<svg preserveAspectRatio="none" width="189" height="50" viewBox="0 0 189 50" fill="none" xmlns="http://www.w3.org/2000/svg">
<path d="M57.5884 46.3357C45.0939 48.9362 32.2921 49.5272 19.4903 48.818C17.6469 48.6998 15.701 48.3452 13.96 47.6359C1.46547 42.9078 -3.14316 26.2411 2.18237 13.0024C4.84514 6.50118 10.7852 2.83691 16.7252 1.65488C19.5928 0.945656 22.5628 0.591017 25.5328 0.591017C37.208 0.472813 48.7808 0.118203 60.3536 0C95.8913 0.70922 131.429 1.65483 167.069 1.53663C175.262 1.65483 185.401 4.60995 187.757 15.0118C188.678 18.3215 188.781 22.6951 188.883 25.2955C189.6 31.3239 186.937 37.3523 183.046 41.253C179.256 45.1537 174.443 47.3996 169.527 48.3452C164.611 49.2908 159.798 48.5816 154.984 48.818L140.544 48.9362C135.73 48.818 130.917 49.409 126.103 49.6454L111.663 49.7636C102.036 49.8819 92.4092 50 82.7823 50C82.5774 50 82.3726 49.7636 82.3726 49.5272C82.3726 49.2908 82.5774 49.0544 82.7823 49.0544C92.4092 48.3452 102.036 47.7542 111.663 47.3996L126.103 46.9267C130.917 46.9267 135.73 47.3996 140.544 47.1632L154.984 46.9267C157.237 46.8085 163.587 46.9267 165.738 46.6903C171.473 46.2175 177.31 43.8534 181.612 39.3617C185.094 35.9338 186.323 30.6147 185.913 25.4137C185.913 22.104 185.811 18.7944 184.992 15.8393C182.636 5.9102 172.395 4.25536 164.714 4.25536C129.893 3.42794 95.072 3.78255 60.2512 3.66435C48.6784 3.42794 37.0032 2.60052 25.4304 2.48231C22.5628 2.48231 19.6952 2.83691 16.93 3.42793C7.81514 5.43738 2.07997 12.175 1.87514 23.1679C0.851 34.6336 8.42962 45.5083 18.4662 46.5721C31.4728 47.636 44.4794 47.1631 57.3836 45.5083C57.8956 45.7447 57.8956 46.3357 57.5884 46.3357Z" fill="#4E4B9A"/>
</svg>
