<svg width="65" height="49" viewBox="0 0 65 49" fill="none" xmlns="http://www.w3.org/2000/svg">
<g clip-path="url(#clip0_53418_84164)">
<path d="M55.0614 4.10367C50.7908 2.15897 46.2825 0.779331 41.6514 0C41.0177 1.1268 40.4443 2.28612 39.9336 3.47312C35.0007 2.73376 29.9842 2.73376 25.0512 3.47312C24.5403 2.28624 23.9669 1.12693 23.3334 0C18.6994 0.785912 14.188 2.16883 9.91316 4.11384C1.42645 16.6028 -0.87416 28.7817 0.276147 40.7876C5.24618 44.44 10.8091 47.2177 16.723 49C18.0546 47.2186 19.233 45.3287 20.2455 43.3505C18.3223 42.636 16.4662 41.7546 14.6984 40.7164C15.1637 40.3808 15.6187 40.035 16.0584 39.6994C21.202 42.1053 26.816 43.3528 32.5001 43.3528C38.1841 43.3528 43.7981 42.1053 48.9418 39.6994C49.3866 40.0604 49.8416 40.4062 50.3017 40.7164C48.5306 41.7563 46.671 42.6394 44.7444 43.3555C45.7557 45.3329 46.9341 47.2212 48.2669 49C54.1859 47.2249 59.7531 44.4484 64.724 40.7927C66.0737 26.8697 62.4183 14.8027 55.0614 4.10367ZM21.7025 33.404C18.497 33.404 15.8487 30.5106 15.8487 26.951C15.8487 23.3914 18.405 20.4726 21.6923 20.4726C24.9796 20.4726 27.6074 23.3914 27.5512 26.951C27.495 30.5106 24.9694 33.404 21.7025 33.404ZM43.2976 33.404C40.087 33.404 37.4489 30.5106 37.4489 26.951C37.4489 23.3914 40.0052 20.4726 43.2976 20.4726C46.5901 20.4726 49.1974 23.3914 49.1412 26.951C49.0849 30.5106 46.5645 33.404 43.2976 33.404Z" fill="#5865F2"/>
</g>
<defs>
<clipPath id="clip0_53418_84164">
<rect width="65" height="49" fill="white"/>
</clipPath>
</defs>
</svg>
