<svg width="306" height="51" viewBox="0 0 306 51" fill="none" xmlns="http://www.w3.org/2000/svg">
<g clip-path="url(#clip0_53418_84070)">
<path d="M264.554 50.5001C260.125 50.5001 256.668 49.8983 254 48.6775C251.333 47.4568 249.654 45.789 248.468 43.6397C246.031 43.6397 244.056 43.3646 242.376 42.7972C240.647 43.3474 238.639 43.6397 236.383 43.6397C234.127 43.6397 231.954 43.3818 230.258 42.8144C228.546 43.3818 226.537 43.6397 223.952 43.6397C221.367 43.6397 219.326 43.3818 217.613 42.8144C215.901 43.3818 213.876 43.6397 211.274 43.6397C208.031 43.6397 205.709 43.2443 203.734 42.3502C203.119 42.0741 202.529 41.7403 201.972 41.3529C199.864 42.8144 197.345 43.5709 194.481 43.5709C192.093 43.5709 190.019 43.1239 188.24 42.2298C186.396 43.1239 184.289 43.5709 181.918 43.5709C178.954 43.5709 176.32 42.78 174.163 41.2326C171.745 42.7575 168.97 43.5548 166.145 43.5366C164.482 43.5494 162.827 43.2942 161.238 42.78C159.366 43.41 157.41 43.7235 155.443 43.7085C152.002 43.7085 148.939 42.6253 146.601 40.6996C145.543 41.5726 144.344 42.2421 143.061 42.6769C140.295 43.6397 137.414 43.6397 135.866 43.6397C133.084 43.6397 130.762 43.2443 128.803 42.4533C126.25 43.2929 123.593 43.739 120.916 43.7773C119.525 43.7941 118.142 43.5495 116.833 43.0551C115.477 43.4848 114.068 43.705 112.651 43.7085C108.749 43.7085 105.259 42.1954 102.707 39.4272C99.4959 42.2298 94.9517 43.8461 89.7982 43.8461C86.7523 43.8461 83.9039 43.2615 81.4342 42.1438L81.0061 42.3502C79.0303 43.2443 76.7088 43.6397 73.4653 43.6397C70.2217 43.6397 67.9002 43.2443 65.9245 42.3502H65.8915C63.6359 43.2958 61.1003 43.7601 58.3343 43.7601C54.6297 43.7601 51.8966 42.7972 49.9373 41.5936C47.764 42.78 44.7839 43.7601 40.8323 43.7601C38.2803 43.7601 35.9753 43.313 33.9666 42.4018C32.0073 43.2615 29.7187 43.6569 26.5245 43.6569C23.9231 43.6569 21.898 43.399 20.1857 42.8316C18.4733 43.399 16.4482 43.6569 13.8468 43.6569C10.6032 43.6569 8.28171 43.2615 6.30595 42.3674C2.40383 40.5792 0.0987729 36.9169 0.0987729 32.5324C0.0829775 31.0938 0.34621 29.6667 0.872612 28.3371V17.1782C0.299693 15.7992 -0.00262875 14.3142 -0.0164795 12.811C-0.0164795 9.45815 1.41595 6.58676 4.11615 4.4891C7.35969 1.97879 11.9204 0.48291 16.3165 0.48291C18.6874 0.48291 20.4985 1.11909 21.8486 1.92721C23.9165 1.32158 26.0564 1.02632 28.2039 1.05031C32.847 1.05031 35.8929 2.94165 37.6876 5.45197C39.0236 4.92189 40.4404 4.64812 41.8696 4.64385C45.179 4.64385 48.1262 6.12253 49.9867 8.54688C52.621 6.62115 55.5847 4.64385 59.3715 4.64385C60.5574 4.64357 61.7357 4.84092 62.862 5.22844C63.1365 4.97626 63.4218 4.72982 63.7182 4.4891C66.9617 1.97879 71.5225 0.48291 75.9185 0.48291C82.2245 0.48291 84.6613 4.7642 85.4186 6.60396C85.6892 7.26357 85.8987 7.94872 86.0443 8.65003C87.5447 8.32645 89.073 8.16513 90.605 8.16861C96.3182 8.16861 100.418 10.1631 103.118 12.8626C104.993 10.9344 107.331 9.56844 109.885 8.90794C110.544 7.10258 111.729 5.53793 113.376 4.26558L113.425 4.23119C118.052 0.758016 124.094 0.48291 125.839 0.48291C132.145 0.48291 134.582 4.7642 135.339 6.60396C135.592 7.22583 135.791 7.87038 135.932 8.52968C136.758 8.43686 137.588 8.39094 138.418 8.39213C139.605 8.38152 140.787 8.55536 141.925 8.90794C143.253 8.42281 144.651 8.17857 146.058 8.1858C147.26 8.1858 149.878 8.39213 152.397 9.92239C155.097 8.85637 158.258 8.32335 161.831 8.32335C164.959 8.32335 167.725 8.80478 170.047 9.73326C172.138 8.80478 174.69 8.35774 177.934 8.35774C180.255 8.35774 182.33 8.66723 184.108 9.28621C185.902 8.65004 188.01 8.35774 190.677 8.35774C192.949 8.35774 194.991 8.65003 196.753 9.25182C197.226 9.06716 197.71 8.91214 198.202 8.78759C198.931 7.07513 200.085 5.59711 201.544 4.5063C204.787 1.99598 209.348 0.500105 213.744 0.500105C216.115 0.500105 217.926 1.13628 219.276 1.9444C221.344 1.33877 223.484 1.04352 225.632 1.06751C231.822 1.06751 235.362 4.43752 236.63 8.52968C237.423 8.44045 238.22 8.39454 239.017 8.39213C240.403 8.37697 241.781 8.62156 243.084 9.11427C244.793 8.57709 246.569 8.31049 248.353 8.32335C251.02 8.32335 253.424 8.97672 255.416 10.2491C258.232 8.97672 261.689 8.32335 265.723 8.32335C266.905 8.32093 268.087 8.38407 269.263 8.51249L269.411 8.42652C270.498 7.75595 272.721 6.38044 275.684 6.38044C277.924 6.36048 280.095 7.19153 281.793 8.71881C284.392 8.09738 287.084 8.0214 289.712 8.49529C290.689 8.21692 291.697 8.07811 292.709 8.08264C299.36 8.08264 304.563 13.43 304.563 20.256C304.566 21.3389 304.416 22.4164 304.119 23.454C304.813 25.1851 305.166 27.0448 305.156 28.9217C305.156 32.8763 303.707 36.5386 301.106 39.2381C299.08 41.3185 295.376 43.7945 289.218 43.7945C287.883 43.7958 286.55 43.6808 285.234 43.4506C284.185 43.769 283.099 43.9311 282.007 43.932C280.877 45.3678 279.504 46.5743 277.956 47.4912C274.614 49.5029 270.218 50.4829 264.554 50.4829" fill="white"/>
<path d="M299.97 23.6432C300.518 22.6067 300.801 21.4401 300.793 20.256C300.793 15.648 297.253 12.0373 292.709 12.0373C291.767 12.0335 290.833 12.2204 289.959 12.5875C288.761 12.2956 287.535 12.1456 286.304 12.1404C284.319 12.1136 282.349 12.4993 280.508 13.2752C279.471 11.2635 277.561 10.3179 275.668 10.3179C273.774 10.3179 272.507 11.0744 271.354 11.7965L271.305 11.8309C270.448 12.3811 270.201 12.5187 269.872 12.5703C268.498 12.3639 267.111 12.2662 265.723 12.278C260.635 12.278 257.26 13.3956 255.038 14.943C253.457 13.2236 251.168 12.278 248.353 12.278C246.13 12.278 244.336 12.725 242.887 13.4128C241.849 12.725 240.549 12.3639 239.017 12.3639C237.088 12.3723 235.17 12.6676 233.321 13.2408C233.372 12.9052 233.399 12.5662 233.403 12.2264C233.403 8.75322 231.361 5.03932 225.632 5.03932C222.882 5.03932 220.511 5.52075 218.634 6.41484C217.696 5.3832 216.181 4.47192 213.744 4.47192C210.188 4.47192 206.368 5.70989 203.8 7.70438C202.202 8.92515 201.363 10.507 201.231 12.3811C199.705 12.3913 198.205 12.7991 196.868 13.5675C195.419 12.8282 193.427 12.3296 190.694 12.3296C187.961 12.3296 185.721 12.725 184.141 13.5847C182.708 12.8282 180.716 12.3296 177.95 12.3296C174.542 12.3296 172.154 12.8626 170.426 13.9974L170.179 14.1693C167.725 12.725 164.647 12.2952 161.831 12.2952C157.55 12.2952 154.274 13.1549 151.919 14.5132C149.927 12.3983 147.21 12.1576 146.058 12.1576C144.633 12.1489 143.228 12.5156 141.975 13.2236C141.069 12.6906 139.917 12.3811 138.418 12.3811C136.42 12.3911 134.433 12.7098 132.524 13.3268C132.524 11.4011 132.475 9.73327 131.865 8.20301C131.256 6.67275 129.758 4.48912 125.856 4.48912C122.859 4.48912 118.611 5.28004 115.681 7.48086L115.648 7.51525C114.001 8.7876 113.129 10.4382 113.063 12.4155C108.189 12.9142 104.748 15.6652 103.151 20.1528C101.867 15.8543 97.6189 12.192 90.6215 12.192C87.592 12.192 84.8753 12.897 82.6196 14.1865V13.7567C82.6196 11.6762 82.6196 9.87082 81.9446 8.2374C81.2695 6.60397 79.8371 4.5235 75.935 4.5235C72.3786 4.5235 68.5588 5.76147 65.9903 7.75597C65.0848 8.42652 64.3637 9.33367 63.8993 10.3866C62.7633 9.32061 61.1827 8.68444 59.388 8.68444C56.4738 8.68444 54.0864 10.4554 51.5179 12.3467C50.991 12.7422 50.3818 13.2064 49.7397 13.7395C49.2248 13.5181 48.6808 13.379 48.1262 13.3268C47.4182 10.5586 44.9979 8.68444 41.8696 8.68444C39.6798 8.68444 37.7864 9.68169 35.8765 10.9884C35.4155 7.9451 33.2257 5.09091 28.204 5.09091C25.4544 5.09091 23.0834 5.57234 21.2065 6.46642C20.268 5.43479 18.7532 4.5235 16.3165 4.5235C12.7601 4.5235 8.9403 5.76147 6.37182 7.75597C4.65949 9.0799 3.78687 10.8165 3.78687 12.897C3.78687 14.3241 4.26434 15.476 4.57717 16.1982L4.67596 16.4561V29.2828C4.14786 30.3013 3.87593 31.443 3.88565 32.6012C3.88565 35.4038 5.31808 37.6562 7.80424 38.791C9.28606 39.4616 11.1466 39.7539 13.8303 39.7539C16.514 39.7539 18.391 39.4616 19.8564 38.791L20.1527 38.6363L20.4491 38.791C21.9309 39.4616 23.7914 39.7539 26.4752 39.7539C29.1589 39.7539 31.0359 39.4616 32.5012 38.791C32.9845 38.5695 33.4429 38.2927 33.8678 37.9657C35.3496 38.9802 37.5559 39.857 40.7665 39.857C45.426 39.857 48.3567 38.258 50.0361 36.8481C51.3862 38.2408 53.9053 39.857 58.2849 39.857C61.7425 39.857 64.2286 38.9802 65.9903 37.9485C66.4248 38.2837 66.8943 38.5663 67.3898 38.791C68.8717 39.4616 70.7322 39.7539 73.4159 39.7539C76.0996 39.7539 77.9766 39.4616 79.442 38.791C80.0742 38.5048 80.6623 38.1224 81.1872 37.6562C83.4593 39.1521 86.3571 39.9602 89.7159 39.9602C96.1207 39.9602 101.142 37.0544 102.986 32.6528C103.396 33.8906 104.003 35.0474 104.781 36.0744C106.642 38.4987 109.408 39.8227 112.585 39.8227C114.102 39.8167 115.599 39.4768 116.981 38.8254C118.019 39.5132 119.319 39.8914 120.867 39.8914C123.189 39.8914 126.498 39.3068 128.951 38.2408C130.449 39.1521 132.639 39.7539 135.833 39.7539C138.567 39.7539 145.613 39.7539 146.223 33.6672C147.457 37.4155 150.899 39.8227 155.426 39.8227C157.418 39.849 159.392 39.439 161.222 38.6191C162.473 39.2209 164.087 39.6507 166.128 39.6507C169.158 39.6507 172.336 38.4987 174.278 36.04C175.645 37.8797 177.901 39.6851 181.902 39.6851C184.882 39.6851 186.874 38.8082 188.273 37.639C189.739 38.9286 191.682 39.6851 194.481 39.6851C198.531 39.6851 200.754 37.811 202.087 35.8853C202.793 37.1954 203.901 38.219 205.232 38.791C206.714 39.4616 208.574 39.7539 211.258 39.7539C213.942 39.7539 215.819 39.4616 217.284 38.791L217.58 38.6363L217.877 38.791C219.359 39.4616 221.219 39.7539 223.903 39.7539C226.587 39.7539 228.464 39.4616 229.929 38.791L230.209 38.6535L230.489 38.791C231.971 39.4616 233.765 39.7539 236.334 39.7539C238.902 39.7539 240.944 39.324 242.36 38.6363L242.887 38.877C244.303 39.4788 246.081 39.7539 248.468 39.7539C249.309 39.7598 250.15 39.7196 250.987 39.6335C251.382 42.0063 252.979 43.9664 255.482 45.1356C257.655 46.1328 260.619 46.6315 264.521 46.6315C269.51 46.6315 273.28 45.8233 276.03 44.1727C277.841 43.0723 279.208 41.628 280.08 39.8914C280.675 40.0272 281.282 40.0963 281.891 40.0978C282.925 40.1061 283.95 39.8955 284.904 39.4788C286.311 39.7982 287.746 39.9596 289.185 39.9602C297.582 39.9602 301.353 34.4753 301.353 29.0421C301.375 27.1718 300.884 25.3339 299.937 23.7463" fill="#025563"/>
<path d="M19.2142 29.472V13.8255C19.2142 10.232 19.2472 8.40942 16.3164 8.40942C13.3857 8.40942 10.5867 9.32071 8.61099 10.851C7.82069 11.4528 7.55725 12.0202 7.55725 12.8111C7.55725 13.602 7.78776 13.9803 8.03473 14.5477C8.28227 15.0674 8.42251 15.6356 8.44634 16.2155V29.4548C8.45807 29.97 8.32653 30.4776 8.06766 30.9163C7.83715 31.4149 7.65604 31.776 7.65604 32.5153C7.65604 35.0772 9.97756 35.7134 13.8303 35.7134C17.683 35.7134 20.0045 35.0772 20.0045 32.5153C20.0045 31.776 19.8399 31.4149 19.5929 30.9163C19.334 30.4776 19.2025 29.97 19.2142 29.4548" fill="#5CC1FF"/>
<path d="M31.892 29.4718V21.4595C31.892 18.0379 31.8591 16.3013 28.9943 16.3013C26.1294 16.3013 23.2316 17.0406 21.3217 18.5365C20.5314 19.1383 20.3009 19.7057 20.3009 20.4966C20.3009 21.2875 20.5314 21.7346 20.7454 22.3191C20.978 22.8427 21.1069 23.4101 21.1241 23.987V29.4718C21.1359 29.987 21.0043 30.4946 20.7454 30.9333C20.5149 31.4319 20.3338 31.793 20.3338 32.5324C20.3338 35.0942 22.6554 35.7304 26.5081 35.7304C30.3608 35.7304 32.6823 35.0942 32.6823 32.5324C32.6823 31.793 32.5177 31.4319 32.2707 30.9333C32.0118 30.4946 31.8803 29.987 31.892 29.4718Z" fill="#5CC1FF"/>
<path d="M24.3183 16.267C27.7594 16.267 32.1884 15.201 32.1884 12.2093C32.1884 9.88808 30.7231 8.97681 28.204 8.97681C24.7629 8.97681 20.3339 10.0772 20.3339 13.1721C20.3339 15.373 21.7992 16.267 24.3183 16.267Z" fill="#5CC1FF"/>
<path d="M47.9286 27.0132C46.4962 27.0132 45.887 28.4403 45.1955 28.4403C44.504 28.4403 44.5534 28.1136 44.5534 27.5806V23.5228C44.5534 23.3509 44.6521 23.2821 44.8662 23.2821H47.6322C48.7518 23.2821 49.4434 22.3193 49.4434 20.2216C49.4434 18.124 48.8506 17.1955 47.6322 17.1955H44.8662C44.6686 17.1955 44.5534 17.1267 44.5534 16.9548V15.029C44.5534 13.3612 43.3679 12.5703 41.8696 12.5703C40.3713 12.5703 38.4285 13.8427 36.2222 15.4933C34.016 17.1439 32.2049 18.6914 32.2049 20.8234C32.1933 21.3953 32.3372 21.9589 32.6199 22.4488C32.9026 22.9387 33.3124 23.335 33.8019 23.5916V29.9534C33.769 33.7876 36.4198 35.8165 40.8159 35.8165C47.3524 35.8165 49.9538 32.0167 49.9538 29.2656C49.9538 27.9417 49.2458 26.996 47.9451 26.996" fill="#5CC1FF"/>
<path d="M65.447 27.0132C64.0146 27.0132 63.4054 28.4403 62.7139 28.4403C62.0224 28.4403 62.0718 28.1136 62.0718 27.5806V23.5228C62.0718 23.3509 62.1706 23.2821 62.3846 23.2821H65.1507C66.2703 23.2821 66.9618 22.3193 66.9618 20.2216C66.9618 18.124 66.3855 17.1955 65.1507 17.1955H62.3681C62.1706 17.1955 62.0553 17.1267 62.0553 16.9548V15.029C62.0553 13.3612 60.8699 12.5703 59.3716 12.5703C57.8733 12.5703 55.9305 13.8427 53.7242 15.4933C51.5179 17.1439 49.7068 18.6914 49.7068 20.8234C49.6953 21.3953 49.8392 21.9589 50.1219 22.4488C50.4045 22.9387 50.8144 23.335 51.3039 23.5916V29.9534C51.271 33.7876 53.9218 35.8165 58.3178 35.8165C64.8543 35.8165 67.4557 32.0167 67.4557 29.2656C67.4557 27.9417 66.7477 26.996 65.447 26.996" fill="#5CC1FF"/>
<path d="M78.8328 29.472V13.8255C78.8328 10.232 78.8657 8.40942 75.935 8.40942C73.0043 8.40942 70.2053 9.3379 68.2295 10.8682C67.4392 11.4699 67.1758 12.0373 67.1758 12.8283C67.1758 13.6192 67.4063 13.9975 67.6533 14.5649C67.9008 15.0846 68.041 15.6528 68.0649 16.2327V29.472C68.0766 29.9871 67.9451 30.4948 67.6862 30.9335C67.4557 31.4321 67.2746 31.7932 67.2746 32.5325C67.2746 35.0944 69.5961 35.7306 73.4488 35.7306C77.3015 35.7306 79.6231 35.0944 79.6231 32.5325C79.6231 31.7932 79.4584 31.4321 79.2114 30.9335C78.9526 30.4948 78.821 29.9871 78.8328 29.472Z" fill="#5CC1FF"/>
<path d="M98.3763 26.4801C97.2567 26.4801 95.6925 27.2194 92.8277 27.2194C91.3294 27.2194 89.9628 26.6864 89.9628 26.2566C89.9628 26.119 90.0616 26.0847 90.2427 26.0847H96.2688C98.4092 26.0847 99.7757 25.1906 99.7757 22.921C99.7757 19.7573 96.9438 16.095 90.605 16.095C84.0026 16.095 79.4913 20.1184 79.4913 26.5489C79.4913 32.4464 83.2782 35.9368 89.7488 35.9368C95.8078 35.9368 100.006 32.8763 100.006 28.7153C100.006 27.1507 99.43 26.4801 98.3763 26.4801ZM89.6171 22.8178C89.6171 21.6486 89.8476 20.1184 90.4732 20.1184C91.0989 20.1184 91.0824 20.6858 91.0824 21.2532C91.0824 22.3536 90.605 23.454 89.9299 23.454C89.6829 23.454 89.6171 23.2133 89.6171 22.8178Z" fill="#5CC1FF"/>
<path d="M128.77 28.509V13.8082C128.77 10.2146 128.803 8.39209 125.872 8.39209C122.942 8.39209 119.846 9.18301 117.903 10.6273C117.113 11.2291 116.85 11.7965 116.85 12.5874C116.85 13.3783 117.195 13.791 117.492 14.41C117.845 15.046 118.022 15.7725 118.002 16.5076V16.8687C117.014 16.4045 115.928 16.2325 114.726 16.2325C108.963 16.2325 105.901 19.7917 105.901 26.5489C105.901 32.8075 108.634 35.7992 112.618 35.7992C113.66 35.788 114.686 35.5408 115.627 35.0747C116.568 34.6086 117.401 33.9348 118.068 33.0998C118.2 34.9567 118.776 35.868 120.9 35.868C123.518 35.868 126.926 35.0083 128.391 34.0455C129.313 33.4437 129.577 32.7731 129.577 31.9822C129.577 31.1913 129.33 30.7442 129.132 30.1596C128.9 29.636 128.771 29.0687 128.754 28.4918L128.77 28.509ZM117.508 30.0565C117.064 30.0565 116.932 29.5922 116.932 25.0014C116.932 20.4107 117.064 19.9464 117.508 19.9464C117.953 19.9464 118.084 20.4107 118.084 25.0014C118.084 29.5922 117.953 30.0565 117.508 30.0565Z" fill="#5CC1FF"/>
<path d="M146.074 16.095C143.868 16.095 142.32 17.5221 141.3 19.4478C141.168 17.3501 140.658 16.3185 138.435 16.3185C135.817 16.3185 132.672 17.0578 130.762 18.5537C129.972 19.1555 129.741 19.7229 129.741 20.5138C129.741 21.3047 129.972 21.7518 130.186 22.3364C130.419 22.86 130.547 23.4273 130.565 24.0042V29.4891C130.576 30.0042 130.445 30.5119 130.186 30.9505C129.955 31.4492 129.774 31.8102 129.774 32.5496C129.774 35.1115 132.228 35.7476 135.833 35.7476C140.229 35.7476 142.469 35.2146 142.469 32.7559C142.469 31.8962 142.156 31.4835 141.826 30.9333C141.497 30.3831 141.316 30.2628 141.316 29.4719V24.52C141.316 24.1589 141.448 24.0558 141.629 24.0558C142.386 24.0558 142.172 28.1823 145.86 28.1823C149.022 28.1823 150.487 25.7236 150.487 21.7862C150.487 17.8488 148.824 16.095 146.058 16.095" fill="#5CC1FF"/>
<path d="M171.924 29.3173C171.315 28.8874 171.068 28.3544 171.068 27.3571V23.3853C171.068 21.1157 171.068 16.2327 161.831 16.2327C155.081 16.2327 150.931 18.829 150.931 21.9239C150.931 23.6261 152.199 24.5889 154.652 24.5889C157.517 24.5889 159.049 23.7292 159.394 21.7863C159.559 20.9266 159.559 20.3936 159.938 20.3936C160.316 20.3936 160.316 20.8235 160.316 21.1845V24.5889C160.316 24.95 160.316 25.1219 159.905 25.0875C158.762 24.9501 157.613 24.8813 156.464 24.8812C152.446 24.8812 149.516 26.2395 149.516 30.4005C149.516 33.994 152.166 35.8166 155.443 35.8166C157.995 35.8166 159.971 35.0256 161.337 33.9252C162.358 34.9569 163.922 35.6274 166.145 35.6274C170.376 35.6274 172.385 33.1687 172.385 30.2113C172.385 29.6439 172.319 29.5752 171.94 29.3173H171.924ZM160.053 31.5181C159.707 31.5181 159.477 31.0882 159.477 29.6267C159.477 28.1653 159.707 27.8558 160.053 27.8558C160.399 27.8558 160.596 28.8186 160.596 29.5236C160.596 31.0882 160.465 31.5181 160.053 31.5181Z" fill="#5CC1FF"/>
<path d="M201.396 16.3012C198.465 16.3012 197.313 17.8659 197.313 19.6884C197.313 20.978 197.889 21.3219 197.889 22.3535C197.889 22.9897 197.691 23.815 197.411 24.9498C197.345 25.1905 197.28 25.3796 197.066 25.3796C196.852 25.3796 196.786 25.2421 196.72 24.9498C196.308 23.3164 196.242 22.9209 196.242 22.491C196.242 21.3562 196.819 21.0296 196.819 19.7572C196.819 17.3329 194.678 16.2668 190.694 16.2668C185.886 16.2668 184.388 17.4704 184.388 19.7572C184.388 20.9608 184.964 21.3906 184.964 22.3879C184.964 22.9897 184.799 23.815 184.487 24.9498C184.421 25.1905 184.355 25.3796 184.141 25.3796C183.927 25.3796 183.861 25.2421 183.795 24.9498C183.416 23.4539 183.318 22.9209 183.318 22.4567C183.318 21.3563 183.894 21.0983 183.894 19.7572C183.894 17.4876 182.231 16.2668 177.934 16.2668C172.418 16.2668 171.084 17.7971 171.084 20.1527C171.084 21.6829 171.628 22.3879 172.138 23.1444C172.846 24.1761 172.846 24.2104 174.147 27.1334L176.057 31.3631C176.913 33.2545 177.967 35.6616 181.885 35.6616C185.804 35.6616 186.825 33.7015 187.78 31.6382C187.911 31.3115 187.977 31.1052 188.257 31.1052C188.537 31.1052 188.57 31.2772 188.734 31.6382C190.101 34.4924 191.188 35.6616 194.464 35.6616C198.136 35.6616 199.173 33.5296 200.161 31.3631L202.104 27.1334C202.96 25.2765 203.289 24.2104 204.244 22.8693C204.82 22.0784 205.512 21.0983 205.512 19.7056C205.512 17.6424 204.08 16.3184 201.396 16.3184" fill="#5CC1FF"/>
<path d="M216.658 29.472V13.8255C216.658 10.232 216.691 8.40942 213.761 8.40942C210.83 8.40942 208.031 9.3379 206.055 10.8682C205.265 11.4699 205.001 12.0373 205.001 12.8283C205.001 13.6192 205.232 13.9975 205.479 14.5649C205.726 15.0846 205.867 15.6528 205.891 16.2327V29.472C205.902 29.9871 205.771 30.4948 205.512 30.9335C205.281 31.4321 205.1 31.7932 205.1 32.5325C205.1 35.0944 207.422 35.7306 211.274 35.7306C215.127 35.7306 217.449 35.0944 217.449 32.5325C217.449 31.7932 217.284 31.4321 217.037 30.9335C216.778 30.4948 216.647 29.9871 216.658 29.472Z" fill="#5CC1FF"/>
<path d="M229.336 29.4718V21.4595C229.336 18.0379 229.303 16.3013 226.438 16.3013C223.574 16.3013 220.676 17.0406 218.766 18.5365C217.976 19.1383 217.745 19.7057 217.745 20.4966C217.745 21.2875 217.976 21.7346 218.19 22.3191C218.422 22.8427 218.551 23.4101 218.568 23.987V29.4718C218.58 29.987 218.449 30.4946 218.19 30.9333C217.959 31.4319 217.778 31.793 217.778 32.5324C217.778 35.0942 220.1 35.7304 223.952 35.7304C227.805 35.7304 230.127 35.0942 230.127 32.5324C230.127 31.793 229.962 31.4319 229.715 30.9333C229.456 30.4946 229.325 29.987 229.336 29.4718Z" fill="#5CC1FF"/>
<path d="M221.762 16.267C225.204 16.267 229.633 15.201 229.633 12.2093C229.633 9.88808 228.167 8.97681 225.648 8.97681C222.207 8.97681 217.778 10.0772 217.778 13.1721C217.778 15.373 219.243 16.267 221.762 16.267Z" fill="#5CC1FF"/>
<path d="M253.72 29.4719V22.1988C253.72 18.5021 252.189 16.2153 248.369 16.2153C245.208 16.2153 243.117 17.4189 241.866 19.1039C241.734 17.2126 241.158 16.3013 239.034 16.3013C236.416 16.3013 233.271 17.0406 231.361 18.5365C230.571 19.1383 230.341 19.7057 230.341 20.4966C230.341 21.2875 230.571 21.7346 230.785 22.3192C231.018 22.8428 231.147 23.4101 231.164 23.987V29.4719C231.176 29.987 231.044 30.4947 230.785 30.9333C230.555 31.432 230.374 31.793 230.374 32.5324C230.374 35.0943 232.827 35.7305 236.367 35.7305C239.643 35.7305 242.261 35.1631 242.261 32.7387C242.249 32.2339 242.183 31.7322 242.063 31.2428C241.957 30.7641 241.912 30.2725 241.932 29.7814V24.3137C241.932 23.5743 241.998 23.0413 242.442 23.0413C242.887 23.0413 242.953 23.5743 242.953 24.3137V29.7985C242.972 30.2897 242.928 30.7813 242.821 31.26C242.702 31.7494 242.636 32.2512 242.623 32.7559C242.623 35.1803 245.241 35.7477 248.518 35.7477C252.058 35.7477 254.511 35.1115 254.511 32.5496C254.511 31.8102 254.346 31.4492 254.099 30.9505C253.84 30.5119 253.709 30.0042 253.72 29.4891" fill="#5CC1FF"/>
<path d="M273.132 29.3172C270.58 29.3172 266.694 30.8474 263.056 30.8474C261.788 30.8474 261.525 30.6755 261.525 30.1425C261.525 29.9705 261.557 29.5751 261.804 29.5751C262.051 29.5751 262.348 29.7126 264.389 29.7126C271.98 29.7126 275.766 26.8584 275.766 22.4568V22.0613C276.928 20.6556 277.57 18.8629 277.578 17.0063C277.578 15.1494 276.903 14.2725 275.701 14.2725C274.91 14.2725 274.235 14.6335 273.313 15.2009C272.095 15.9919 271.305 16.4733 269.74 16.5593C268.424 16.329 267.091 16.2197 265.756 16.2326C257.985 16.2326 254.609 19.0352 254.609 23.3853C254.609 25.5173 255.433 27.1507 257.161 28.1824C255.894 29.2484 255.054 30.7443 255.054 32.67C255.049 33.8347 255.382 34.9738 256.009 35.9368C255.219 36.5042 254.708 37.2952 254.708 38.3612C254.708 40.9231 257.672 42.5909 264.554 42.5909C272.902 42.5909 277.528 40.1322 277.528 34.441C277.528 30.8818 275.717 29.3172 273.132 29.3172ZM264.406 19.9637C264.752 19.9637 265.015 20.3591 265.707 22.8179C266.118 24.2793 266.25 25.1218 266.25 25.4829C266.25 25.844 266.085 25.9471 265.904 25.9471C265.723 25.9471 265.328 25.5173 264.636 23.1445C264.192 21.6143 264.06 20.789 264.06 20.4451C264.06 20.1012 264.192 19.9809 264.406 19.9809V19.9637ZM265.328 39.2209C262.875 39.2209 261.475 38.9286 260.734 38.5503C260.454 38.4128 260.388 38.3096 260.388 38.2236C260.388 38.1377 260.454 38.1205 260.553 38.1205C260.652 38.1205 261.409 38.2924 262.94 38.2924C265.295 38.2924 268.769 37.7938 270.02 37.7938C270.531 37.7938 270.695 37.8626 270.695 38.0345C270.695 38.5675 269.098 39.2037 265.311 39.2037" fill="#5CC1FF"/>
<path d="M290.47 21.8549C288.494 21.2532 287.605 21.2532 287.605 20.617C287.605 20.3247 287.835 20.1527 288.247 20.1527C289.103 20.1527 290.766 20.8921 291.721 21.4251C292.989 22.1301 293.894 22.8522 294.849 22.8522C295.804 22.8522 296.99 21.9237 296.99 20.2559C296.99 17.694 295.047 15.9918 292.692 15.9918C291.863 15.97 291.057 16.2772 290.437 16.8515C289.103 16.365 287.7 16.1151 286.288 16.1122C281.035 16.1122 277.874 19.0695 277.874 23.0929C277.874 28.0104 282.534 29.2827 284.559 29.8845C286.584 30.4863 287.424 30.5207 287.424 31.0881C287.424 31.3288 287.226 31.5179 286.749 31.5179C285.925 31.5179 284.394 30.9849 283.027 30.28C281.661 29.575 280.739 28.6809 279.586 28.6809C278.434 28.6809 277.38 29.6782 277.38 31.3116C277.38 33.9423 279.224 36.0743 281.908 36.0743C282.962 36.0743 283.785 35.7133 284.328 35.1459C285.904 35.6714 287.548 35.9383 289.202 35.9368C294.652 35.9368 297.582 32.9794 297.582 28.956C297.582 23.8322 292.445 22.4739 290.47 21.8721" fill="#5CC1FF"/>
<path d="M18.8027 31.5008C18.6874 31.5352 18.2593 30.3144 18.0453 28.2683C17.93 27.2539 17.8642 26.0331 17.8313 24.692C17.7983 23.3509 17.7654 21.8722 17.7654 20.3247C17.7489 17.2298 17.7819 14.4272 17.8477 12.3983C17.8757 11.9575 17.8757 11.5152 17.8477 11.0744C17.8292 10.7597 17.7567 10.451 17.6337 10.1631C17.5585 9.98465 17.4459 9.82603 17.3044 9.69888C17.2056 9.61291 17.1397 9.56133 17.1562 9.52694C17.1727 9.49255 17.255 9.47536 17.4032 9.52694C17.6292 9.60351 17.8256 9.75427 17.963 9.95679C18.1761 10.2639 18.3222 10.616 18.3911 10.9884C18.4799 11.4529 18.5295 11.9247 18.5392 12.3983C18.638 14.4272 18.7204 17.2298 18.7368 20.3247C18.7533 21.8722 18.7533 23.3509 18.7368 24.692C18.7204 26.0331 18.7204 27.2367 18.7368 28.234C18.7862 30.2456 18.9509 31.4836 18.8191 31.518" fill="#CAFBFF"/>
<path d="M28.632 14.668C28.5991 14.5305 28.9778 14.3414 29.4552 13.9803C29.7273 13.7754 29.9711 13.5324 30.1797 13.2581C30.4134 12.9403 30.5714 12.569 30.6407 12.1749C30.7138 11.8003 30.6794 11.4116 30.5419 11.0573C30.4122 10.7643 30.214 10.5101 29.9656 10.318C29.5211 9.97409 29.1259 9.9569 29.1095 9.80215C29.093 9.64741 29.1918 9.64741 29.4058 9.59582C29.7054 9.53596 30.0153 9.57191 30.2949 9.69899C30.7292 9.88074 31.0938 10.2071 31.3322 10.6275C31.6148 11.1553 31.7082 11.7709 31.5956 12.3641C31.4967 12.9336 31.2389 13.4599 30.8547 13.8771C30.5523 14.2001 30.1875 14.4522 29.7845 14.6165C29.5231 14.7303 29.2443 14.7944 28.9613 14.8056C28.7637 14.8056 28.6485 14.754 28.632 14.7024" fill="#CAFBFF"/>
<path d="M31.4146 33.9939C31.3652 33.9423 31.5298 33.736 31.5134 33.3405C31.503 33.0945 31.4412 32.8539 31.3322 32.6356C31.217 32.3605 31.0194 32.0853 30.8054 31.7071C30.5722 31.283 30.4002 30.8253 30.295 30.3488C30.1755 29.8186 30.1093 29.277 30.0974 28.7325C30.0809 28.1651 30.1139 27.5805 30.1303 26.9787L30.2291 25.139C30.3114 23.8838 30.3938 22.6803 30.4925 21.597L30.6243 20.0668C30.6687 19.6551 30.6632 19.2391 30.6078 18.8288C30.5751 18.5489 30.4789 18.2811 30.3271 18.0478C30.1753 17.8146 29.9724 17.6225 29.7352 17.4877C29.6015 17.4122 29.4569 17.3599 29.3071 17.3329C29.1918 17.3157 29.126 17.2986 29.126 17.2642C29.126 17.2298 29.1754 17.1782 29.2906 17.1266C29.4771 17.0632 29.6772 17.0572 29.8669 17.1094C30.1693 17.1802 30.448 17.3346 30.6737 17.5565C30.8147 17.6926 30.9367 17.8489 31.0359 18.0207C31.1427 18.2154 31.2256 18.4234 31.2828 18.6397C31.3993 19.111 31.4492 19.5976 31.431 20.084C31.4146 20.5826 31.3981 21.0984 31.3816 21.6486C31.3322 22.7318 31.2828 23.9354 31.2005 25.1906L31.0853 27.0303C31.0359 27.6149 31.0029 28.1823 30.9865 28.6981C30.97 29.747 31.1017 30.6583 31.4146 31.346C31.5807 31.6906 31.7237 32.0468 31.8426 32.412C31.9386 32.7172 31.9557 33.0434 31.892 33.3577C31.8521 33.5607 31.7546 33.7464 31.6121 33.8907C31.5134 33.9767 31.431 33.9939 31.4146 33.9767" fill="#CAFBFF"/>
<path d="M43.8125 17.2298C43.6808 17.2298 43.5655 16.9375 43.4667 16.4732C43.4144 16.2004 43.3759 15.9249 43.3515 15.6479C43.3185 15.3384 43.3185 14.9774 43.2856 14.6851C43.2756 14.4476 43.2076 14.2167 43.088 14.0145C42.9623 13.8507 42.8053 13.716 42.627 13.619L42.1825 13.3439C42.0672 13.258 42.0178 13.1892 42.0178 13.1204C42.0178 13.0516 42.1001 13 42.2483 12.9657C42.4432 12.9217 42.6442 12.9159 42.8411 12.9485C43.1745 12.998 43.4851 13.1541 43.7301 13.3955C43.8878 13.5559 44.0112 13.7493 44.0924 13.9629C44.1701 14.1667 44.22 14.3808 44.2406 14.5991C44.2576 14.7877 44.2631 14.9772 44.257 15.1665C44.257 15.3384 44.2406 15.4932 44.2406 15.6651C44.2215 15.9418 44.1885 16.2173 44.1418 16.4904C44.0594 16.9719 43.9442 17.2641 43.8125 17.2641" fill="#CAFBFF"/>
<path d="M47.9945 22.8179C47.9122 22.6976 48.0933 22.4225 48.1921 21.9238C48.2538 21.6296 48.2924 21.3306 48.3073 21.0298C48.3302 20.6576 48.3302 20.2843 48.3073 19.9121C48.2877 19.5791 48.2096 19.2527 48.0768 18.9493C47.963 18.7137 47.7998 18.508 47.5993 18.3475C47.4594 18.2282 47.3043 18.1298 47.1383 18.0552C47.0066 18.0036 46.9078 17.9692 46.8914 17.8833C46.8749 17.7973 46.9407 17.7285 47.1219 17.6597C47.3765 17.583 47.6482 17.5951 47.8957 17.6941C48.2719 17.8381 48.5948 18.103 48.8177 18.4507C49.0691 18.8578 49.2165 19.3255 49.2458 19.809C49.2747 20.2522 49.2471 20.6974 49.1635 21.1329C49.1015 21.5017 48.9789 21.8565 48.8012 22.1817C48.6796 22.4128 48.504 22.6079 48.2908 22.7491C48.1427 22.8351 48.0274 22.8523 47.978 22.8007" fill="#CAFBFF"/>
<path d="M44.4051 28.9732C44.415 28.9925 44.4186 29.0146 44.4157 29.0362C44.4127 29.0579 44.4033 29.0779 44.3887 29.0936C44.3404 29.1624 44.2704 29.2111 44.1911 29.2312C44.0661 29.2653 43.9341 29.2593 43.8124 29.214L43.5984 29.0936C43.5225 29.0361 43.4558 28.9665 43.4008 28.8873C43.2962 28.7263 43.2234 28.545 43.1868 28.3543C43.15 28.1783 43.1225 28.0004 43.1044 27.8212C43.0621 27.4388 43.0401 27.0542 43.0386 26.6692C43.0386 25.0186 43.4008 23.7119 43.6642 23.7463C43.9277 23.7807 43.9935 25.0874 43.9935 26.6692C43.9935 27.0647 43.9935 27.443 43.9771 27.7869V28.2511C43.9723 28.3489 43.9778 28.4469 43.9935 28.5434C44.0153 28.6617 44.0802 28.7665 44.1746 28.8357C44.257 28.9045 44.3393 28.9045 44.3887 28.9732" fill="#CAFBFF"/>
<path d="M44.5039 34.4066C44.4545 34.269 44.9484 34.0111 45.6564 33.5125C46.5606 32.8817 47.3519 32.0903 47.9944 31.1741C48.1733 30.9146 48.3382 30.6448 48.4883 30.366C48.6278 30.1181 48.7489 29.8595 48.8506 29.5923C48.9277 29.3843 48.9614 29.1616 48.9494 28.9389C48.9328 28.7453 48.8767 28.5577 48.7847 28.3887C48.6425 28.118 48.439 27.8878 48.192 27.7181C48.0109 27.5806 47.8792 27.529 47.8792 27.443C47.8792 27.3571 48.0273 27.3055 48.3072 27.3399C48.7109 27.4133 49.0745 27.6399 49.328 27.9761C49.5224 28.2133 49.6581 28.4966 49.7232 28.8014C49.7874 29.1501 49.7704 29.5097 49.6738 29.8502C49.579 30.1837 49.4521 30.5063 49.2951 30.8131C48.5754 32.2742 47.4031 33.4378 45.9692 34.1143C45.1131 34.4926 44.5368 34.5097 44.5039 34.3894" fill="#CAFBFF"/>
<path d="M61.0674 17.2298C60.9357 17.2126 60.8533 16.9203 60.8039 16.4561C60.7545 15.9918 60.7216 15.4072 60.6064 14.8054C60.5617 14.5438 60.4842 14.2894 60.3759 14.0489C60.3354 13.963 60.2857 13.8823 60.2277 13.8082C60.1802 13.7486 60.1247 13.6965 60.063 13.6534C59.9571 13.5816 59.8402 13.5292 59.7173 13.4987C59.6185 13.4643 59.5197 13.4643 59.4868 13.3955C59.4538 13.3268 59.4703 13.2408 59.602 13.1204C59.6997 13.0509 59.81 13.0029 59.926 12.9793C60.0421 12.9556 60.1615 12.9569 60.2771 12.9829C60.4418 13.0113 60.5989 13.0758 60.7381 13.172C60.8912 13.2783 61.0251 13.4122 61.1332 13.5675C61.3498 13.8853 61.4961 14.2494 61.5613 14.6335C61.679 15.2666 61.6564 15.9194 61.4955 16.542C61.3637 17.0063 61.2156 17.2642 61.0838 17.247" fill="#CAFBFF"/>
<path d="M65.019 22.388C64.986 22.3192 65.0354 22.2332 65.1178 22.0785C65.2213 21.8881 65.3041 21.6862 65.3647 21.4767C65.4491 21.162 65.5042 20.8395 65.5294 20.5138C65.5777 20.1203 65.5832 19.7223 65.5458 19.3274C65.5209 19.0094 65.3793 18.7138 65.1507 18.5021C64.9216 18.3233 64.6573 18.1999 64.3768 18.1411L63.7018 17.9691C63.5371 17.9175 63.4384 17.866 63.4384 17.7972C63.4384 17.7284 63.5207 17.6596 63.6853 17.5908C64.103 17.4394 64.5512 17.4038 64.986 17.4877C65.219 17.5303 65.4423 17.6178 65.6446 17.7456C65.8822 17.8997 66.0801 18.1122 66.2209 18.3646C66.36 18.6188 66.4495 18.8993 66.4843 19.1899C66.5407 19.684 66.5129 20.1846 66.402 20.6686C66.3262 21.0708 66.1812 21.4553 65.9739 21.8034C65.8288 22.0553 65.6173 22.2582 65.3647 22.388C65.1836 22.4739 65.0684 22.4567 65.0354 22.388" fill="#CAFBFF"/>
<path d="M61.94 29.0766C61.94 29.1454 61.8412 29.2141 61.6436 29.1969C61.511 29.1722 61.3849 29.118 61.2741 29.0379C61.1633 28.9578 61.0704 28.8537 61.0015 28.7327C60.8204 28.4082 60.7186 28.042 60.7052 27.6667C60.6722 27.3056 60.6558 26.9101 60.6558 26.4975C60.6558 24.8468 60.9851 23.5229 61.2485 23.5573C61.5119 23.5917 61.6107 24.8984 61.6107 26.5147C61.6107 26.9101 61.5942 27.3056 61.5778 27.6495C61.5515 27.9071 61.5571 28.1671 61.5942 28.4232C61.625 28.5729 61.6869 28.7138 61.7753 28.8359C61.8412 28.939 61.9235 28.9906 61.9235 29.0594" fill="#CAFBFF"/>
<path d="M60.4418 34.7161C60.4253 34.5613 61.0015 34.441 61.7919 34.0283C62.2558 33.7856 62.6968 33.4977 63.109 33.1686C63.6102 32.7626 64.0733 32.3078 64.492 31.8103C64.92 31.3063 65.3212 30.7782 65.694 30.2285C65.8492 30.0088 65.9817 29.7725 66.0891 29.5235C66.1307 29.4236 66.1637 29.32 66.1879 29.214V29.0593C66.1907 29.0135 66.1907 28.9675 66.1879 28.9217C66.1829 28.7545 66.1436 28.5903 66.0727 28.4403C66.0208 28.3188 65.9483 28.2081 65.8586 28.1136C65.7104 27.9589 65.5622 27.9073 65.5622 27.8385C65.5622 27.7697 65.7269 27.6666 66.0397 27.7697C66.2534 27.8558 66.4425 27.9973 66.5894 28.1807C66.7363 28.3642 66.8361 28.5837 66.8794 28.8186C66.896 28.8978 66.9071 28.9783 66.9123 29.0593C66.9165 29.1394 66.9165 29.2198 66.9123 29.3C66.9011 29.463 66.8735 29.6244 66.83 29.7814C66.7376 30.1076 66.6048 30.4197 66.4349 30.7099C66.0769 31.3337 65.6635 31.9209 65.2 32.4637C64.732 33.0176 64.1948 33.5033 63.603 33.908C63.1145 34.2397 62.5819 34.4946 62.0224 34.6645C61.649 34.7835 61.2602 34.8415 60.8698 34.8364C60.5899 34.8192 60.4418 34.7677 60.4418 34.6989" fill="#CAFBFF"/>
<path d="M77.812 17.7801C77.5486 17.7801 77.351 15.5449 77.3675 12.8111C77.3935 12.2073 77.3604 11.6024 77.2687 11.0057C77.228 10.7728 77.1559 10.547 77.0546 10.3351C76.9645 10.1566 76.8478 9.99407 76.7089 9.8537C76.503 9.64038 76.2478 9.48637 75.968 9.40666C75.7704 9.35508 75.6222 9.33788 75.6057 9.26911C75.5893 9.20033 75.6881 9.07997 75.968 9.0112C76.3718 8.94376 76.7849 9.04237 77.1205 9.2863C77.3588 9.44404 77.5657 9.64839 77.7297 9.88809C77.915 10.1593 78.0542 10.4617 78.1413 10.7822C78.3224 11.4355 78.3389 12.1405 78.3389 12.8283C78.3224 15.5793 78.0919 17.7973 77.8285 17.7973" fill="#CAFBFF"/>
<path d="M77.6967 22.8351C77.4332 22.8007 77.3015 21.9926 77.3344 21.0298C77.3674 20.0669 77.5814 19.2588 77.8448 19.2588C78.1083 19.2588 78.3388 20.0669 78.2894 21.0642C78.24 22.0614 77.9601 22.8523 77.6967 22.8351Z" fill="#CAFBFF"/>
<path d="M77.4333 33.9424C77.3839 33.8909 77.4662 33.7533 77.6144 33.547C77.8166 33.2888 77.988 33.0059 78.1248 32.7045C78.1983 32.5256 78.2321 32.3316 78.2236 32.1371C78.2027 31.9333 78.1222 31.7412 77.9931 31.5869C77.7797 31.3204 77.5921 31.0324 77.4333 30.7272C77.2897 30.3551 77.2117 29.959 77.2028 29.558C77.0979 28.3321 77.1256 27.0979 77.2851 25.8785C77.4168 24.95 77.6144 24.3826 77.7296 24.3998C77.8449 24.417 77.9272 26.7038 78.1577 29.472C78.1609 29.7582 78.2053 30.0422 78.2894 30.3145C78.4214 30.5767 78.5699 30.8295 78.734 31.0711C78.832 31.2318 78.9095 31.4052 78.9645 31.5869C79.0141 31.7713 79.0308 31.9636 79.0139 32.1543C78.9879 32.4681 78.8859 32.7698 78.7175 33.0312C78.5901 33.2268 78.4346 33.4008 78.2565 33.547C78.1279 33.6521 77.9901 33.7442 77.8449 33.8221C77.6144 33.9424 77.4662 33.9768 77.4333 33.9252" fill="#CAFBFF"/>
<path d="M88.8103 23.6603C88.695 23.7291 88.4645 23.5571 88.267 23.1617C88.1563 22.9235 88.0839 22.6679 88.0529 22.4051C87.9704 21.7633 88.0918 21.1109 88.3987 20.5482C88.5254 20.3218 88.6867 20.1185 88.8762 19.9464C89.2055 19.6541 89.4854 19.6025 89.5512 19.6885C89.6171 19.7745 89.5348 20.0324 89.403 20.359C89.2713 20.6857 89.2713 20.7201 89.189 20.9264C89.039 21.3873 88.9504 21.8675 88.9256 22.3535C88.9091 22.5771 88.9091 22.7834 88.9091 22.9725C88.9091 23.1617 88.9091 23.5915 88.7938 23.6603" fill="#CAFBFF"/>
<path d="M96.7957 25.1218C96.8122 25.053 96.9933 25.0186 97.2567 24.9155C97.6159 24.7559 97.9203 24.486 98.1293 24.1418C98.2751 23.9168 98.3811 23.6664 98.4422 23.4024C98.4586 23.3336 98.4586 23.2649 98.4751 23.1961C98.4916 23.1273 98.4916 23.0585 98.4916 22.9726C98.4885 22.8109 98.472 22.6498 98.4422 22.4911C98.3269 21.8378 97.9482 21.15 97.4214 20.5138C96.9195 19.9117 96.3501 19.3749 95.7255 18.9148C95.2056 18.5329 94.6546 18.1992 94.079 17.9175C93.0911 17.4361 92.4161 17.247 92.4325 17.1094C92.449 16.9719 92.6301 17.0063 92.9594 17.0063C93.4235 17.0321 93.8826 17.1188 94.326 17.2642C94.991 17.469 95.6276 17.7638 96.2194 18.1411C96.9483 18.6127 97.6035 19.1984 98.1623 19.8777C98.755 20.5998 99.216 21.4767 99.3313 22.3708C99.357 22.5875 99.3625 22.8063 99.3477 23.0241C99.3477 23.1273 99.3148 23.2477 99.3148 23.3508C99.2925 23.4554 99.265 23.5587 99.2325 23.6603C99.1172 24.0171 98.9322 24.345 98.6891 24.6232C98.5224 24.8268 98.3187 24.994 98.0898 25.115C97.8609 25.236 97.6114 25.3084 97.3555 25.3281H97.125L96.9603 25.2766C96.878 25.2422 96.8286 25.2078 96.8451 25.1734" fill="#CAFBFF"/>
<path d="M95.4786 33.5812C95.4457 33.5296 95.6268 33.3405 95.9561 33.0482C96.4325 32.6613 96.8886 32.248 97.3227 31.8102C97.6065 31.5158 97.8552 31.1868 98.0636 30.8301C98.2909 30.4393 98.4472 30.0079 98.5246 29.5578C98.5601 29.3246 98.5657 29.0875 98.541 28.8528C98.5314 28.6548 98.4809 28.4612 98.3929 28.2854H98.3105L98.1294 28.3542C97.838 28.4674 97.5413 28.565 97.2403 28.6465C96.6544 28.7926 96.0606 28.9017 95.4621 28.9732L93.8157 29.1451C93.3004 29.19 92.7822 29.1842 92.268 29.1279C91.8016 29.0776 91.3458 28.9499 90.9179 28.7497C90.5643 28.5791 90.2413 28.3465 89.9629 28.0619C89.7534 27.8479 89.5807 27.5978 89.4525 27.3226C89.2549 26.8583 89.2879 26.5832 89.3373 26.5661C89.3867 26.5489 89.5019 26.7896 89.7653 27.1163C90.1378 27.5698 90.6217 27.9087 91.1649 28.0963C91.5379 28.2211 91.9258 28.2906 92.3174 28.3026C92.7849 28.3186 93.2529 28.2956 93.7169 28.2339L95.314 28.0103C95.8573 27.9244 96.4336 27.8212 96.9769 27.6837L97.7837 27.4257L98.0306 27.3398C98.1431 27.3062 98.2594 27.2889 98.3764 27.2882C98.517 27.2882 98.6556 27.3224 98.7814 27.388C98.9071 27.4537 99.0165 27.549 99.1008 27.6665C99.2225 27.8405 99.3068 28.0399 99.3478 28.2511C99.3816 28.4153 99.4036 28.582 99.4137 28.7497C99.435 29.0723 99.4128 29.3964 99.3478 29.7125C99.1065 30.7436 98.5377 31.6588 97.7343 32.3088C97.2343 32.7271 96.6868 33.0794 96.1043 33.3576C95.6927 33.5468 95.4621 33.6156 95.4292 33.564" fill="#CAFBFF"/>
<path d="M116.422 30.194C116.372 30.2455 116.208 30.1768 116.026 29.936C115.782 29.5906 115.619 29.1902 115.549 28.7669C115.5 28.5089 115.45 28.2338 115.417 27.9587C115.384 27.6836 115.335 27.357 115.318 27.0303C115.253 26.3769 115.22 25.6548 115.236 24.881C115.232 23.5772 115.348 22.2759 115.582 20.9952C115.621 20.753 115.687 20.5164 115.779 20.2902C115.854 20.1064 115.966 19.9421 116.109 19.8088C116.201 19.7237 116.316 19.6697 116.438 19.6541C116.52 19.6541 116.57 19.6712 116.586 19.7056C116.603 19.74 116.487 19.8604 116.389 20.0667C116.279 20.3919 116.234 20.7372 116.257 21.0812C116.24 22.0612 116.191 23.4023 116.191 24.881C116.191 25.6204 116.191 26.3253 116.208 26.9787L116.24 28.6809C116.244 29.0404 116.288 29.3982 116.372 29.7469C116.438 29.9876 116.487 30.1424 116.438 30.194" fill="#CAFBFF"/>
<path d="M127.453 33.5469C127.387 33.4953 127.585 33.203 127.683 32.5841C127.735 32.2138 127.741 31.8382 127.7 31.4665C127.644 30.9635 127.561 30.4641 127.453 29.9706C127.316 29.3406 127.212 28.7036 127.14 28.0621C127.058 27.3743 127.025 26.635 126.992 25.8612C126.959 24.3138 126.959 22.6288 127.008 20.8406C127.058 19.0524 127.14 17.3674 127.255 15.8372C127.305 15.0634 127.371 14.3413 127.436 13.6535C127.51 13.043 127.554 12.429 127.568 11.8138C127.579 11.3367 127.495 10.8625 127.321 10.4211C127.181 10.091 126.973 9.79741 126.712 9.56138C126.267 9.18311 125.905 9.16591 125.922 9.07994C125.938 8.99397 126.004 9.01117 126.185 9.01117C126.446 9.0192 126.701 9.09609 126.926 9.23469C127.286 9.45584 127.587 9.76952 127.799 10.146C128.067 10.6416 128.224 11.1941 128.26 11.7622C128.294 12.4095 128.289 13.0585 128.243 13.7051L128.144 15.8716C128.078 17.4018 128.029 19.0868 127.98 20.8406C127.93 22.5944 127.897 24.2966 127.897 25.8097C127.897 26.5662 127.914 27.2883 127.947 27.9589C127.98 28.6295 128.062 29.2312 128.128 29.8158C128.204 30.3451 128.243 30.8796 128.243 31.4149C128.248 31.8351 128.186 32.2532 128.062 32.6528C127.982 32.9029 127.859 33.1359 127.7 33.3406C127.585 33.4781 127.502 33.5297 127.486 33.5125" fill="#CAFBFF"/>
<path d="M117.393 32.6701C117.591 32.842 117.377 33.461 116.833 33.9424C116.29 34.4239 115.681 34.5442 115.532 34.3207C115.384 34.0972 115.73 33.6157 116.208 33.1859C116.685 32.756 117.179 32.4981 117.393 32.6701Z" fill="#CAFBFF"/>
<path d="M140.592 20.0668C140.46 20.0153 140.46 19.723 140.378 19.3447C140.311 18.8716 140.12 18.427 139.827 18.0599C139.533 17.6928 139.149 17.4174 138.715 17.2642C138.369 17.1267 138.106 17.0579 138.073 16.9203C138.04 16.7828 138.122 16.7828 138.237 16.6968C138.417 16.6048 138.614 16.5577 138.814 16.5593C139.107 16.5531 139.399 16.6117 139.67 16.7312C140.012 16.8782 140.316 17.1099 140.554 17.4064C140.792 17.7029 140.957 18.0554 141.036 18.4334C141.103 18.7326 141.109 19.0431 141.053 19.3447C141.019 19.5498 140.94 19.7439 140.822 19.9121C140.74 20.0324 140.641 20.0668 140.592 20.0496" fill="#CAFBFF"/>
<path d="M140.789 34.5786C140.756 34.5098 140.855 34.4066 140.954 34.2003C141.077 33.915 141.123 33.5996 141.086 33.289C141.065 33.0763 141.015 32.8679 140.937 32.67C140.855 32.4465 140.723 32.1886 140.592 31.9307C140.432 31.6266 140.295 31.3105 140.18 30.985C140.057 30.6082 139.99 30.2139 139.983 29.8158C139.966 29.4204 139.999 29.0593 140.015 28.7326C140.032 28.4059 140.065 28.062 140.081 27.7526C140.131 27.1336 140.197 26.5662 140.262 26.1019C140.394 25.1735 140.526 24.5889 140.674 24.5889C140.822 24.5889 140.905 25.1907 140.954 26.1191C140.97 26.5834 140.987 27.1508 140.987 27.7697C140.987 28.0792 140.987 28.4059 140.97 28.7498C140.954 29.0937 140.954 29.4376 140.954 29.7642C140.959 30.0671 141.003 30.3679 141.086 30.6583C141.175 30.9504 141.28 31.2374 141.399 31.518C141.517 31.8025 141.616 32.0956 141.695 32.3949C141.773 32.6855 141.801 32.9882 141.777 33.289C141.768 33.5107 141.717 33.7283 141.627 33.9291C141.536 34.1298 141.408 34.3097 141.25 34.4582C141.003 34.6473 140.822 34.6473 140.806 34.5786" fill="#CAFBFF"/>
<path d="M147.655 26.7725C147.54 26.6694 147.951 26.1192 148.297 25.1219C148.643 24.1247 148.89 22.6804 148.775 21.0469C148.737 20.3008 148.593 19.5647 148.347 18.8633C148.149 18.3152 147.827 17.8254 147.408 17.4362C147.118 17.1684 146.783 16.9586 146.42 16.8172C146.157 16.7141 145.992 16.6625 145.992 16.5937C145.992 16.5249 146.157 16.439 146.486 16.439C146.955 16.4486 147.412 16.5977 147.803 16.8688C148.395 17.2656 148.864 17.833 149.153 18.5022C149.49 19.2834 149.685 20.1228 149.73 20.9782C149.765 21.4128 149.771 21.8495 149.746 22.2849C149.726 22.6894 149.676 23.0918 149.598 23.4885C149.473 24.1693 149.245 24.8251 148.923 25.4314C148.708 25.8428 148.43 26.2145 148.1 26.5318C147.869 26.7553 147.704 26.8241 147.655 26.7725Z" fill="#CAFBFF"/>
<path d="M158.966 19.7058C159.098 19.7058 159.213 19.9809 159.197 20.4451C159.189 20.714 159.145 20.9803 159.065 21.2361C158.862 21.8649 158.491 22.4198 157.995 22.8351C157.795 23.0047 157.573 23.1437 157.336 23.2478C156.925 23.4197 156.645 23.4025 156.595 23.2821C156.546 23.1618 156.711 22.9383 156.974 22.6632L157.402 22.1645C157.55 21.9754 157.715 21.7691 157.863 21.5456C158.011 21.322 158.143 21.0813 158.258 20.875L158.555 20.2904C158.719 19.9465 158.851 19.7058 158.983 19.7058" fill="#CAFBFF"/>
<path d="M170.985 29.5579C170.953 29.6095 170.706 29.4891 170.393 29.1452C169.967 28.6365 169.662 28.0296 169.504 27.3743C169.385 26.9354 169.302 26.4867 169.257 26.0331C169.207 25.5517 169.191 25.0359 169.191 24.5029C169.174 23.454 169.191 22.302 168.894 21.236C168.599 20.2316 168.02 19.3443 167.232 18.6913C166.58 18.1521 165.829 17.7599 165.025 17.5393C164.459 17.3853 163.88 17.2875 163.296 17.247C162.885 17.2126 162.638 17.1954 162.621 17.1095C162.605 17.0235 162.835 16.9375 163.28 16.8516C163.901 16.7438 164.536 16.7438 165.157 16.8516C166.11 17.0018 167.014 17.3912 167.791 17.9864C168.255 18.3385 168.666 18.7616 169.01 19.2415C169.38 19.765 169.659 20.3529 169.833 20.9781C169.994 21.5892 170.082 22.2186 170.096 22.8523C170.113 23.454 170.096 24.0043 170.08 24.5373C170.063 25.0703 170.047 25.5517 170.063 25.9988C170.075 26.4136 170.114 26.8272 170.179 27.2367C170.265 27.8246 170.443 28.3937 170.706 28.9217C170.903 29.3 171.035 29.5063 170.985 29.5579Z" fill="#CAFBFF"/>
<path d="M171.446 31.2085C171.333 31.1659 171.231 31.0951 171.15 31.0022C171.115 30.9733 171.087 30.9355 171.07 30.8923C171.053 30.8492 171.046 30.8022 171.051 30.7558C171.056 30.7093 171.072 30.6649 171.098 30.6268C171.124 30.5887 171.159 30.5581 171.199 30.538C171.295 30.4588 171.408 30.4057 171.529 30.3832C171.591 30.3727 171.655 30.3772 171.716 30.3966C171.776 30.416 171.831 30.4497 171.877 30.495C171.923 30.5404 171.959 30.5962 171.981 30.6581C172.003 30.72 172.011 30.7864 172.004 30.8521C171.998 30.9177 171.977 30.981 171.943 31.0368C171.909 31.0927 171.863 31.1397 171.81 31.1741C171.756 31.2086 171.695 31.2296 171.632 31.2356C171.569 31.2416 171.505 31.2323 171.446 31.2085Z" fill="#CAFBFF"/>
<path d="M167.561 34.7505C167.544 34.6129 167.758 34.4582 168.104 34.2518C168.45 34.0455 168.894 33.7876 169.355 33.4609C169.816 33.1342 170.212 32.7732 170.508 32.5152C170.804 32.2573 171.035 32.1026 171.15 32.1714C171.265 32.2401 171.249 32.5324 171.035 32.9623C170.914 33.2043 170.765 33.4296 170.59 33.6329C170.169 34.1316 169.638 34.5153 169.043 34.7505C168.799 34.8462 168.544 34.9097 168.285 34.9396C167.841 34.9912 167.561 34.9052 167.544 34.7676" fill="#CAFBFF"/>
<path d="M158.983 31.6898C158.884 31.7758 158.621 31.6211 158.341 31.2256C157.997 30.7036 157.808 30.0878 157.797 29.4546C157.79 29.1057 157.834 28.7577 157.929 28.423C157.969 28.2762 158.018 28.1325 158.077 27.9931C158.138 27.8569 158.215 27.7297 158.308 27.6149C158.444 27.4279 158.645 27.3044 158.867 27.271C159.032 27.271 159.114 27.3398 159.114 27.4085C159.114 27.4773 159.049 27.5461 159.016 27.6321C158.959 27.7407 158.914 27.8562 158.884 27.9759C158.862 28.0665 158.846 28.1584 158.835 28.251C158.818 28.3542 158.802 28.4918 158.785 28.6121C158.757 28.8862 158.746 29.1619 158.752 29.4374C158.773 29.9415 158.839 30.4423 158.95 30.9333C159.032 31.3288 159.098 31.6039 158.983 31.6898Z" fill="#CAFBFF"/>
<path d="M183.087 26.0331C182.972 26.0847 182.56 25.5001 182.149 24.3997C182.05 24.1246 181.951 23.8151 181.852 23.4884C181.74 23.1093 181.679 22.7158 181.671 22.3192C181.67 22.0804 181.703 21.8427 181.77 21.6143C181.837 21.3937 181.926 21.1806 182.033 20.9781C182.231 20.5998 182.428 20.2731 182.494 19.9637C182.562 19.6383 182.545 19.2997 182.445 18.9836C182.354 18.6862 182.189 18.4193 181.967 18.2099C181.539 17.7972 180.914 17.6081 180.42 17.4361C179.415 17.1267 178.74 17.0751 178.724 16.9203C178.707 16.7656 178.889 16.7828 179.201 16.7312C179.65 16.6726 180.104 16.6784 180.551 16.7484C180.864 16.7911 181.172 16.8601 181.473 16.9547C181.849 17.0703 182.2 17.2567 182.511 17.5049C182.883 17.8217 183.163 18.2404 183.32 18.7142C183.477 19.1879 183.505 19.698 183.4 20.1872C183.344 20.4394 183.256 20.6825 183.136 20.9093C183.021 21.1156 182.922 21.3048 182.824 21.4595C182.739 21.6073 182.667 21.7627 182.61 21.9238C182.562 22.0622 182.535 22.2069 182.527 22.3536C182.52 22.6711 182.547 22.9884 182.61 23.2993C182.659 23.626 182.725 23.9183 182.774 24.1934C183.005 25.2766 183.186 25.9643 183.071 26.0331" fill="#CAFBFF"/>
<path d="M195.946 25.1046C195.897 25.139 195.748 25.0187 195.534 24.7436C195.247 24.3558 195.004 23.9346 194.81 23.4884C194.667 23.1691 194.556 22.8348 194.481 22.4912C194.391 22.0736 194.374 21.6426 194.431 21.2188C194.464 20.9901 194.519 20.7654 194.596 20.5483L194.81 19.9637C194.874 19.8041 194.918 19.6365 194.942 19.465C194.957 19.3197 194.94 19.1726 194.892 19.0352C194.758 18.7207 194.541 18.4525 194.267 18.2615C193.976 18.0526 193.661 17.885 193.328 17.7628C192.735 17.5302 192.115 17.3799 191.484 17.3158C190.397 17.2126 189.689 17.3502 189.656 17.1954C189.623 17.0407 189.788 17.0063 190.101 16.8859C190.545 16.717 191.012 16.6185 191.484 16.5936C192.196 16.5572 192.91 16.6503 193.591 16.8687C194.011 16.9953 194.411 17.1865 194.777 17.4361C194.982 17.5784 195.17 17.7458 195.337 17.9348C195.521 18.1457 195.666 18.3906 195.765 18.6569C195.872 18.9409 195.911 19.2476 195.88 19.551C195.848 19.8115 195.782 20.0661 195.682 20.3075L195.436 20.8921C195.371 21.053 195.321 21.22 195.287 21.3908C195.156 22.0441 195.271 22.6975 195.419 23.2477C195.567 23.7979 195.748 24.2449 195.847 24.5544C195.946 24.8639 195.979 25.0703 195.929 25.1046" fill="#CAFBFF"/>
<path d="M199.272 30.555C199.156 30.4863 199.486 29.5406 200.111 28.0447C200.424 27.3054 200.819 26.4285 201.247 25.4484C201.478 24.967 201.692 24.4512 201.972 23.9182C202.261 23.3581 202.609 22.8334 203.009 22.3535C203.421 21.8721 203.816 21.4594 204.112 21.0296C204.391 20.6593 204.558 20.2101 204.59 19.74C204.601 19.3124 204.498 18.8899 204.293 18.5193C204.11 18.1889 203.856 17.9066 203.553 17.694C203.078 17.3789 202.534 17.1954 201.972 17.161C201.56 17.1266 201.313 17.1438 201.297 17.075C201.28 17.0062 201.494 16.8687 201.955 16.7655C202.238 16.7113 202.526 16.6997 202.812 16.7311C203.196 16.7739 203.57 16.8904 203.915 17.075C204.382 17.332 204.774 17.7146 205.052 18.1831C205.33 18.6516 205.483 19.1891 205.495 19.74C205.5 20.0675 205.45 20.3934 205.347 20.7029C205.242 21.0134 205.098 21.3082 204.919 21.5798C204.563 22.0797 204.178 22.5562 203.767 23.0069C203.026 23.8666 202.565 24.9154 202.071 25.8611C201.577 26.8068 201.132 27.6493 200.737 28.3542C199.963 29.7641 199.42 30.6066 199.305 30.5378" fill="#CAFBFF"/>
<path d="M186.874 30.9678C186.989 31.0194 187.022 31.3117 186.94 31.7587C186.832 32.3535 186.601 32.9167 186.265 33.4093C185.91 33.9398 185.393 34.328 184.799 34.5097C184.617 34.5641 184.426 34.5758 184.239 34.5441C184.108 34.5097 184.025 34.4581 184.025 34.3894C184.025 34.3206 184.239 34.1143 184.536 33.8735C184.905 33.5731 185.232 33.22 185.507 32.8247C185.837 32.3433 186.1 31.8447 186.33 31.5008C186.561 31.1569 186.759 30.9334 186.89 30.985" fill="#CAFBFF"/>
<path d="M216.444 32.7904C216.411 32.8076 216.346 32.7388 216.247 32.6184C216.103 32.4244 215.976 32.2172 215.868 31.9995C215.488 31.1912 215.227 30.3274 215.094 29.4376C214.908 28.1346 214.831 26.8171 214.864 25.5001C214.864 24.0387 214.897 22.4224 214.93 20.7374C214.995 17.3502 215.127 14.2897 215.259 12.0889C215.307 11.6288 215.279 11.1635 215.177 10.7133C215.094 10.3986 214.914 10.1208 214.666 9.92242C214.508 9.79074 214.322 9.70211 214.123 9.66451C213.975 9.64732 213.892 9.64731 213.876 9.61292C213.859 9.57854 213.942 9.50976 214.106 9.47538C214.365 9.42271 214.632 9.46525 214.864 9.59573C215.029 9.68363 215.18 9.79987 215.308 9.93961C215.463 10.1091 215.586 10.3074 215.671 10.5242C215.855 11.0289 215.944 11.566 215.934 12.106C215.967 14.3241 215.967 17.3846 215.885 20.7718C215.852 22.4568 215.802 24.073 215.753 25.5345C215.685 26.812 215.696 28.0928 215.786 29.3688C215.853 30.219 216.002 31.0599 216.23 31.8791L216.428 32.5497C216.477 32.7044 216.477 32.8076 216.444 32.8248" fill="#CAFBFF"/>
<path d="M228.579 18.9836C228.447 19.0352 228.283 18.8805 228.101 18.6742C227.895 18.4103 227.675 18.1578 227.443 17.9176C227.22 17.7148 226.971 17.5468 226.702 17.419C226.488 17.3158 226.307 17.2471 226.257 17.1095C226.251 17.0662 226.257 17.022 226.275 16.9823C226.292 16.9425 226.321 16.9091 226.356 16.886C226.475 16.7897 226.618 16.7301 226.768 16.714C227.006 16.6876 227.248 16.7154 227.475 16.7955C227.702 16.8757 227.911 17.0062 228.085 17.1783C228.421 17.4942 228.647 17.9175 228.727 18.3819C228.776 18.7257 228.711 18.9493 228.595 18.9836" fill="#CAFBFF"/>
<path d="M227.789 14.1005C227.723 13.963 227.97 13.7395 228.101 13.2924C228.185 13.0383 228.224 12.7703 228.217 12.5015C228.208 12.1887 228.129 11.8824 227.986 11.6074C227.673 11.0228 227.113 10.6446 226.669 10.4038C226.224 10.1631 225.911 10.0428 225.911 9.90522C225.911 9.76767 226.274 9.63012 226.866 9.73328C227.222 9.79006 227.563 9.91854 227.871 10.1115C228.269 10.3564 228.598 10.7063 228.826 11.126C229.051 11.5624 229.143 12.0605 229.089 12.5531C229.049 12.9466 228.907 13.3213 228.678 13.6363C228.527 13.8478 228.321 14.0091 228.085 14.1005C227.92 14.1521 227.805 14.1349 227.772 14.0834" fill="#CAFBFF"/>
<path d="M228.233 33.65C228.2 33.5812 228.365 33.4609 228.48 33.203C228.629 32.811 228.629 32.3742 228.48 31.9822C228.366 31.6817 228.234 31.3889 228.085 31.1053C228.003 30.9334 227.92 30.7614 227.854 30.5551C227.778 30.3482 227.718 30.1355 227.673 29.9189C227.587 29.476 227.527 29.0282 227.492 28.5778C227.443 28.1307 227.426 27.6493 227.393 27.1679C227.317 25.5185 227.4 23.8653 227.64 22.2332C227.838 20.9781 228.085 20.2387 228.2 20.2559C228.315 20.2731 228.167 23.368 228.348 27.1335C228.365 27.5977 228.398 28.062 228.414 28.509C228.431 28.956 228.464 29.3859 228.529 29.747C228.556 29.9272 228.594 30.1053 228.645 30.28C228.694 30.4519 228.76 30.6239 228.809 30.7958C228.942 31.1296 229.047 31.4748 229.122 31.8274C229.27 32.5496 229.04 33.1686 228.76 33.4609C228.658 33.5765 228.527 33.6598 228.381 33.7016C228.282 33.7188 228.217 33.7188 228.217 33.6844" fill="#CAFBFF"/>
<path d="M240.565 19.6714C240.433 19.6542 240.351 19.4135 240.219 19.1384L240.104 18.9149L239.972 18.6742C239.756 18.3186 239.476 18.0093 239.149 17.7629L238.919 17.6081L238.705 17.4878C238.441 17.333 238.227 17.247 238.211 17.1095C238.194 16.9719 238.26 16.9719 238.359 16.9032L238.556 16.8172C238.648 16.7931 238.742 16.7815 238.836 16.7828L239.182 16.8172C239.312 16.8436 239.439 16.884 239.561 16.9376C239.835 17.0637 240.083 17.2457 240.289 17.4731C240.496 17.7004 240.657 17.9684 240.763 18.2615C240.808 18.3895 240.841 18.522 240.861 18.657C240.881 18.7762 240.887 18.8974 240.878 19.018C240.874 19.1173 240.857 19.2156 240.829 19.3103C240.813 19.3836 240.785 19.4535 240.746 19.5167C240.68 19.6198 240.614 19.6714 240.549 19.6542" fill="#CAFBFF"/>
<path d="M239.808 34.1486C239.791 34.0798 239.923 33.9939 240.071 33.7876C240.27 33.5079 240.385 33.1727 240.4 32.8247C240.413 32.572 240.402 32.3187 240.367 32.0682C240.335 31.7931 240.285 31.4492 240.236 31.1225C240.153 30.4347 240.088 29.6782 240.055 28.8873C240.022 28.0964 240.022 27.3398 240.055 26.6349C240.075 26.0096 240.152 25.3878 240.285 24.7779C240.375 24.3583 240.519 23.9534 240.713 23.5744C240.861 23.3164 240.977 23.1961 241.043 23.2133C241.108 23.2305 241.01 23.8838 240.96 24.8811C240.927 25.3797 240.927 25.9643 240.944 26.6349C240.96 27.3054 240.993 28.0448 241.026 28.8357L241.125 31.0365C241.141 31.3804 241.158 31.6899 241.158 32.0166C241.168 32.3285 241.14 32.6404 241.075 32.945C241.031 33.1807 240.94 33.4043 240.81 33.6024C240.68 33.8004 240.513 33.9687 240.318 34.097C240.022 34.269 239.841 34.2174 239.824 34.1658" fill="#CAFBFF"/>
<path d="M251.794 34.5097C251.778 34.4753 251.843 34.4237 251.942 34.3378C252.084 34.2157 252.207 34.0706 252.304 33.9079C252.454 33.6621 252.555 33.3873 252.601 33.0998C252.659 32.7105 252.642 32.313 252.551 31.9306C252.469 31.4836 252.304 31.0021 252.156 30.4519C251.992 29.841 251.898 29.2119 251.876 28.5778C251.827 27.2367 252.041 25.8268 252.189 24.3997C252.265 23.7149 252.287 23.0249 252.255 22.3364C252.224 21.7162 252.113 21.1033 251.926 20.5138C251.618 19.5277 250.965 18.699 250.098 18.1927C249.479 17.8444 248.828 17.5622 248.155 17.3502C247.661 17.1782 247.398 17.075 247.414 17.0063C247.431 16.9375 247.711 16.9203 248.238 16.9719C248.988 17.0494 249.722 17.2526 250.411 17.5737C251.196 17.9452 251.86 18.549 252.321 19.3103C252.49 19.5995 252.634 19.9045 252.749 20.2215C253.226 21.5111 253.292 23.0242 253.144 24.52C252.996 26.0159 252.765 27.357 252.765 28.5778C252.761 29.1498 252.816 29.7205 252.93 30.28C253.045 30.813 253.177 31.346 253.226 31.8618C253.253 32.1073 253.259 32.3547 253.243 32.6012C253.23 32.8287 253.191 33.0538 253.128 33.2717C253.027 33.6213 252.846 33.9399 252.601 34.2002C252.446 34.3643 252.253 34.4829 252.041 34.5441C251.893 34.5785 251.81 34.5613 251.81 34.5441" fill="#CAFBFF"/>
<path d="M265.41 26.8755C265.394 26.9271 265.246 26.9787 265.048 26.8583C264.786 26.6946 264.575 26.4559 264.439 26.1706C264.34 25.9986 264.274 25.8267 264.175 25.6548L263.912 25.0702C263.731 24.6575 263.55 24.1761 263.369 23.6946C263.188 23.2132 263.023 22.7318 262.891 22.2676C262.764 21.8499 262.692 21.4161 262.677 20.978C262.669 20.671 262.725 20.3658 262.842 20.0839C262.924 19.8776 263.023 19.8088 263.089 19.826C263.155 19.8432 263.188 20.2903 263.352 20.892C263.452 21.2549 263.573 21.6109 263.714 21.9581C263.879 22.3707 264.077 22.835 264.241 23.3336C264.406 23.8322 264.587 24.3136 264.719 24.7435L264.9 25.3625L265.032 25.8955C265.082 26.1279 265.16 26.353 265.262 26.566C265.344 26.7208 265.41 26.8068 265.377 26.8755" fill="#CAFBFF"/>
<path d="M269.197 27.9072C269.181 27.8384 269.378 27.7009 269.74 27.5117C270.103 27.3226 270.662 27.0475 271.288 26.6864C272.008 26.2866 272.641 25.7365 273.149 25.0702C273.428 24.6973 273.635 24.2709 273.758 23.815C273.814 23.5603 273.852 23.3017 273.873 23.0413C273.901 22.7058 273.973 22.376 274.087 22.0612C274.217 21.7543 274.383 21.4655 274.581 21.2015L275.042 20.531C275.319 20.1089 275.567 19.6664 275.783 19.2071C276.152 18.4404 276.37 17.6044 276.425 16.7483C276.425 16.5764 276.442 16.3872 276.425 16.2325C276.418 16.0929 276.395 15.9545 276.359 15.8198C276.333 15.7094 276.289 15.6046 276.228 15.5103C276.18 15.4349 276.119 15.3705 276.046 15.3212C275.75 15.1321 275.536 15.2696 275.503 15.2009C275.47 15.1321 275.503 15.0977 275.618 15.0289C275.704 14.9756 275.8 14.9419 275.899 14.9301C275.999 14.9182 276.099 14.9285 276.195 14.9601C276.336 15.0026 276.466 15.0792 276.573 15.1837C276.698 15.3049 276.799 15.4511 276.87 15.6135C276.947 15.7887 277.002 15.9737 277.034 16.1637C277.067 16.3571 277.089 16.5523 277.1 16.7483C277.138 17.7239 276.957 18.6951 276.573 19.5853C276.362 20.1056 276.109 20.606 275.816 21.0812L275.338 21.8033C275.188 22.005 275.061 22.2243 274.96 22.4567C274.88 22.6897 274.831 22.9324 274.812 23.1789C274.785 23.4862 274.735 23.7908 274.663 24.0901C274.498 24.6718 274.218 25.2107 273.84 25.672C273.228 26.414 272.455 26.9918 271.584 27.357C271.027 27.6042 270.448 27.7942 269.856 27.9244C269.444 28.0104 269.197 28.0276 269.181 27.9588" fill="#CAFBFF"/>
<path d="M269.148 17.522C269.131 17.7971 268.588 17.9863 267.929 17.9347C267.271 17.8831 266.76 17.6252 266.777 17.3501C266.793 17.075 267.337 16.8859 267.995 16.9374C268.654 16.989 269.164 17.2469 269.148 17.522Z" fill="#CAFBFF"/>
<path d="M263.089 31.9136C263.105 32.0511 262.908 32.2058 262.529 32.309C262.309 32.3714 262.082 32.4003 261.854 32.395C261.546 32.3893 261.242 32.313 260.965 32.1715C260.687 32.0333 260.455 31.8128 260.297 31.5376C260.139 31.2624 260.062 30.9446 260.076 30.624C260.083 30.4252 260.159 30.2359 260.29 30.091C260.389 30.005 260.471 29.9878 260.537 30.0222C260.591 30.0771 260.626 30.1499 260.636 30.2285C260.664 30.3411 260.702 30.4505 260.751 30.5552C260.816 30.6928 260.899 30.8201 260.998 30.9335C261.109 31.0667 261.243 31.1775 261.393 31.2602C261.752 31.4163 262.128 31.526 262.513 31.5869C262.842 31.6556 263.089 31.7588 263.089 31.8964" fill="#CAFBFF"/>
<path d="M271.255 40.2697C271.222 40.201 271.403 40.0634 271.716 39.8571C272.029 39.6507 272.507 39.3584 273.033 38.9802C273.661 38.5435 274.236 38.0297 274.746 37.4499C275.349 36.7643 275.789 35.9395 276.03 35.0428C276.142 34.5943 276.181 34.1293 276.145 33.6672C276.11 33.2389 276.004 32.8201 275.832 32.4293C275.553 31.7603 275.066 31.2092 274.449 30.8646C274.007 30.6398 273.525 30.5111 273.033 30.4864C272.671 30.452 272.457 30.452 272.441 30.3832C272.424 30.3144 272.605 30.1941 273 30.0909C273.238 30.037 273.482 30.0139 273.725 30.0221C274.056 30.0289 274.385 30.0928 274.696 30.2113C275.529 30.5483 276.21 31.1985 276.606 32.0338C276.851 32.5152 277.007 33.04 277.067 33.5813C277.124 34.158 277.079 34.7407 276.936 35.3007C276.657 36.3564 276.118 37.317 275.371 38.0861C274.781 38.691 274.103 39.1957 273.363 39.582C272.878 39.8389 272.371 40.0462 271.848 40.2009C271.469 40.3041 271.255 40.3213 271.239 40.2697" fill="#CAFBFF"/>
<path d="M267.435 39.7883C267.452 39.9258 266.991 40.1149 266.217 40.3041C265.185 40.5426 264.125 40.6179 263.072 40.5276C261.821 40.4072 260.701 39.9602 260.026 39.4616C259.351 38.9629 259.071 38.4643 259.154 38.3784C259.236 38.2924 259.664 38.5503 260.356 38.8426C261.25 39.2176 262.194 39.4494 263.155 39.5303C264.291 39.6335 265.344 39.5819 266.135 39.5991C266.925 39.6163 267.419 39.6507 267.435 39.7883Z" fill="#CAFBFF"/>
<path d="M293.828 33.7705C293.779 33.7189 293.944 33.4782 294.24 33.0656C294.643 32.4925 294.985 31.8757 295.261 31.2258C295.441 30.7912 295.568 30.3349 295.639 29.8675C295.719 29.3474 295.702 28.8163 295.59 28.3028C295.463 27.7401 295.221 27.2123 294.882 26.7554C294.503 26.252 294.054 25.8115 293.548 25.4486C292.495 24.6749 291.309 24.2107 290.206 23.7808C289.103 23.351 288.099 22.9211 287.308 22.4053L286.748 22.027C286.576 21.894 286.421 21.7379 286.287 21.5628C286.16 21.3965 286.07 21.2027 286.024 20.9954C285.985 20.8193 285.99 20.6355 286.04 20.4624C286.07 20.3436 286.125 20.2336 286.203 20.1411C286.28 20.0486 286.376 19.9761 286.485 19.9294C286.633 19.8778 286.716 19.9122 286.716 19.9466C286.716 19.981 286.65 20.0153 286.584 20.1013C286.498 20.2027 286.44 20.3269 286.416 20.4603C286.393 20.5937 286.405 20.7313 286.452 20.8579C286.507 20.9818 286.585 21.093 286.683 21.1845C286.967 21.426 287.283 21.6229 287.621 21.7691C288.559 22.2021 289.521 22.5753 290.502 22.8867C291.062 23.0759 291.655 23.2994 292.264 23.5745C292.908 23.8544 293.52 24.206 294.092 24.6233C294.678 25.0442 295.195 25.5609 295.623 26.1536C295.829 26.4494 296.005 26.7662 296.15 27.0993C296.286 27.4184 296.385 27.7531 296.446 28.0965C296.56 28.7284 296.548 29.3778 296.413 30.005C296.296 30.5344 296.107 31.0437 295.853 31.5181C295.503 32.1894 295.047 32.794 294.503 33.3063C294.108 33.6673 293.861 33.8049 293.828 33.7533" fill="#CAFBFF"/>
<path d="M296.084 21.9239C296.034 21.8723 296.084 21.7519 296.1 21.58C296.112 21.3258 296.09 21.0712 296.034 20.8235C295.919 20.1357 295.705 19.19 295.162 18.3647C294.704 17.6693 294.009 17.1832 293.219 17.0064C292.61 16.8688 292.182 16.972 292.116 16.8345C292.05 16.6969 292.165 16.6625 292.363 16.5422C292.641 16.3855 292.952 16.3029 293.268 16.3014C293.743 16.2933 294.211 16.4054 294.635 16.6281C294.89 16.7557 295.128 16.9175 295.343 17.1096C295.568 17.3178 295.767 17.5546 295.936 17.8145C296.254 18.3031 296.478 18.8522 296.594 19.4307C296.689 19.888 296.722 20.3567 296.693 20.8235C296.695 21.1665 296.597 21.5021 296.413 21.7863C296.248 21.9926 296.1 22.0098 296.067 21.9583" fill="#CAFBFF"/>
<path d="M289.729 17.7973C289.646 17.9177 289.399 17.8833 289.07 17.7973L287.786 17.419L286.502 17.0751C286.156 16.972 285.925 16.8688 285.925 16.7313C285.925 16.5937 286.139 16.439 286.518 16.3702C287.025 16.2866 287.542 16.3137 288.038 16.4499C288.534 16.586 288.998 16.8282 289.399 17.1611C289.696 17.4362 289.811 17.6769 289.745 17.7801" fill="#CAFBFF"/>
<path d="M288.016 32.6356C288.033 32.7732 287.522 32.9795 286.65 33.0483C286.138 33.0768 285.624 33.048 285.118 32.9623C284.491 32.8619 283.877 32.683 283.291 32.4293C282.723 32.1702 282.177 31.8595 281.661 31.5008L280.442 30.6927C279.751 30.2457 279.273 30.0565 279.306 29.919C279.339 29.7814 279.455 29.8158 279.718 29.8158C280.067 29.8378 280.411 29.9131 280.739 30.0394C281.209 30.2232 281.665 30.4415 282.105 30.6927C282.599 30.9506 283.11 31.2601 283.67 31.4836C284.636 31.8913 285.649 32.1687 286.683 32.309C287.489 32.4293 288.016 32.4637 288.033 32.6013" fill="#CAFBFF"/>
</g>
<defs>
<clipPath id="clip0_53418_84070">
<rect width="305.172" height="50" fill="white" transform="translate(0 0.5)"/>
</clipPath>
</defs>
</svg>
