<svg width="70" height="37" viewBox="0 0 70 37" fill="none" xmlns="http://www.w3.org/2000/svg">
<g clip-path="url(#clip0_53525_46580)">
<path d="M12.9644 25.8397C13.4261 26.9069 13.7417 27.8148 13.1715 28.5458L11.8086 28.7945C10.0556 27.4462 10.1105 24.6324 9.17583 22.737C7.00383 29.8477 2.37689 32.9561 0.120754 23.7175C-0.984426 17.6071 5.7866 8.08396 9.2046 17.0196C11.3443 19.2762 11.7489 22.6284 12.9657 25.8401H12.9648L12.9644 25.8397ZM6.75576 20.5102C6.73091 19.9214 6.70345 19.263 6.98072 18.5219C4.39456 11.2331 0.560211 24.6972 4.40633 26.6832C5.12829 24.8088 6.73178 22.5496 6.75663 20.5102H6.75576Z" fill="#FF83A9"/>
<path d="M21.5905 26.2775C21.6838 26.9476 21.8124 27.5924 21.6333 28.2009C20.716 28.207 19.2581 28.3918 18.9621 27.2094L18.867 27.2422C18.2894 20.1053 18.2135 11.5802 16.699 4.55401C20.6807 -3.78105 21.3115 24.5453 21.3821 25.4195H21.6834L21.5901 26.2779H21.591L21.5905 26.2775Z" fill="#FF83A9"/>
<path d="M35.5446 18.1341C36.3319 22.128 35.5764 28.1658 30.2136 27.0251C30.6007 29.0312 30.9612 30.6798 31.2882 31.94H31.3449C31.5184 32.4522 31.6104 32.9088 31.6392 33.5361H32.0464V34.31C33.0674 36.1608 29.6228 37.6158 29.2187 35.3273C29.0848 34.493 28.9501 33.2161 28.6192 32.4601L28.7252 32.4334C28.3358 30.9901 27.9099 29.1035 27.4543 26.8123C26.1625 26.5505 25.7776 24.7895 26.9612 24.2274C26.3173 21.3077 25.7536 18.7106 25.519 16.4623L24.9514 16.0675L25.4061 15.607C25.2139 14.5577 24.9654 12.847 26.5035 12.7091C26.7751 12.8562 27.2908 13.0431 27.4373 13.297H27.7277L27.7682 13.5229C28.624 12.928 29.9659 13.121 31.0341 13.3539V13.5268C32.91 14.2627 34.803 16.261 35.5437 18.1345H35.5446V18.1341ZM31.957 24.4196C34.6988 23.3248 32.2644 13.4082 28.2207 16.5796C28.4605 18.4024 28.6615 19.959 29.2937 22.3767L29.3918 22.4752C29.489 23.0372 29.5879 23.6159 29.6839 24.15C30.7188 24.354 31.3083 24.4564 31.957 24.4196Z" fill="#FF83A9"/>
<path d="M52.0988 23.6199C51.951 25.4002 54.79 27.813 52.6237 29.3237C50.7071 28.6981 50.0109 26.5948 49.6473 24.8771L49.6325 24.8819C49.1311 22.3828 48.7283 19.1514 47.6227 16.8751C46.3954 19.3615 44.1816 21.3944 42.9704 23.7543C43.416 26.4503 42.8139 29.8625 40.1654 26.3807C39.7674 19.077 42.5131 14.7626 40.5347 7.14452C39.6767 4.19063 36.9628 -0.257715 41.8491 0.61033C41.9712 5.23334 45.1472 11.7912 43.7469 15.9777L43.712 15.9716C43.5564 16.8764 43.3981 17.7699 43.2891 18.658C48.5029 8.47657 51.3009 17.0765 52.0988 23.6207V23.6199Z" fill="#FF83A9"/>
<path d="M69.486 25.8397C69.9477 26.9069 70.2633 27.8148 69.6931 28.5458L68.3302 28.7945C66.5772 27.4462 66.6321 24.6324 65.6974 22.737C63.5254 29.8477 58.8985 32.9561 56.6424 23.7175C55.5372 17.6071 62.3082 8.08396 65.7262 17.0196C67.8659 19.2762 68.2705 22.6284 69.4873 25.8401H69.4864L69.486 25.8397ZM63.2774 20.5102C63.2525 19.9214 63.2251 19.263 63.5023 18.5219C60.9162 11.2331 57.0818 24.6972 60.9279 26.6832C61.6499 24.8088 63.2534 22.5496 63.2782 20.5102H63.2774Z" fill="#FF83A9"/>
</g>
<defs>
<clipPath id="clip0_53525_46580">
<rect width="70" height="36" fill="white" transform="translate(0 0.5)"/>
</clipPath>
</defs>
</svg>
