<svg width="305" height="51" viewBox="0 0 305 51" fill="none" xmlns="http://www.w3.org/2000/svg">
<g clip-path="url(#clip0_53525_46494)">
<g clip-path="url(#clip1_53525_46494)">
<path d="M264.405 50.5C259.978 50.5 256.523 49.8982 253.857 48.6774C251.191 47.4566 249.513 45.7888 248.328 43.6396C245.892 43.6396 243.918 43.3645 242.239 42.7971C240.512 43.3473 238.504 43.6396 236.25 43.6396C233.995 43.6396 231.823 43.3817 230.128 42.8143C228.417 43.3817 226.409 43.6396 223.826 43.6396C221.242 43.6396 219.202 43.3817 217.49 42.8143C215.779 43.3817 213.755 43.6396 211.155 43.6396C207.913 43.6396 205.593 43.2441 203.619 42.3501C203.004 42.074 202.415 41.7402 201.858 41.3528C199.752 42.8143 197.234 43.5708 194.371 43.5708C191.985 43.5708 189.911 43.1238 188.134 42.2297C186.291 43.1238 184.185 43.5708 181.815 43.5708C178.853 43.5708 176.22 42.7799 174.065 41.2324C171.648 42.7574 168.874 43.5547 166.051 43.5364C164.389 43.5493 162.735 43.2941 161.147 42.7799C159.276 43.4099 157.321 43.7234 155.355 43.7084C151.916 43.7084 148.855 42.6252 146.519 40.6994C145.461 41.5724 144.263 42.242 142.981 42.6767C140.216 43.6396 137.336 43.6396 135.79 43.6396C133.009 43.6396 130.689 43.2441 128.73 42.4532C126.179 43.2928 123.523 43.7388 120.848 43.7771C119.457 43.794 118.075 43.5494 116.767 43.055C115.412 43.4847 114.004 43.7048 112.588 43.7084C108.688 43.7084 105.199 42.1953 102.649 39.4271C99.4398 42.2297 94.8981 43.8459 89.7476 43.8459C86.7033 43.8459 83.8566 43.2613 81.3883 42.1437L80.9604 42.3501C78.9858 43.2441 76.6656 43.6396 73.4239 43.6396C70.1822 43.6396 67.862 43.2441 65.8873 42.3501H65.8544C63.6 43.2957 61.0659 43.76 58.3014 43.76C54.599 43.76 51.8674 42.7971 49.9092 41.5935C47.7371 42.7799 44.7587 43.76 40.8094 43.76C38.2588 43.76 35.955 43.3129 33.9475 42.4016C31.9893 43.2613 29.702 43.6568 26.5097 43.6568C23.9097 43.6568 21.8857 43.3989 20.1744 42.8315C18.463 43.3989 16.439 43.6568 13.8391 43.6568C10.5973 43.6568 8.27714 43.2613 6.3025 42.3672C2.40258 40.5791 0.0988299 36.9168 0.0988299 32.5323C0.0830434 31.0937 0.346127 29.6666 0.872232 28.337V17.1781C0.299637 15.7991 -0.00251451 14.314 -0.0163574 12.8109C-0.0163574 9.45803 1.41526 6.58664 4.11394 4.48898C7.35564 1.97866 11.9138 0.482788 16.3074 0.482788C18.6769 0.482788 20.487 1.11897 21.8363 1.92708C23.9031 1.32146 26.0418 1.0262 28.1881 1.05019C32.8285 1.05019 35.8728 2.94153 37.6664 5.45184C39.0017 4.92177 40.4176 4.648 41.8461 4.64373C45.1536 4.64373 48.0991 6.12241 49.9585 8.54675C52.5914 6.62103 55.5534 4.64373 59.3381 4.64373C60.5233 4.64345 61.701 4.84079 62.8266 5.22832C63.1009 4.97614 63.3861 4.7297 63.6823 4.48898C66.924 1.97866 71.4821 0.482788 75.8757 0.482788C82.1781 0.482788 84.6135 4.76408 85.3705 6.60383C85.6409 7.26345 85.8503 7.9486 85.9958 8.64991C87.4953 8.32633 89.0227 8.165 90.5539 8.16848C96.2639 8.16848 100.361 10.163 103.06 12.8624C104.934 10.9342 107.27 9.56832 109.823 8.90782C110.481 7.10246 111.666 5.53781 113.312 4.26546L113.361 4.23107C117.985 0.757894 124.024 0.482788 125.768 0.482788C132.071 0.482788 134.506 4.76408 135.263 6.60383C135.516 7.22571 135.714 7.87026 135.855 8.52956C136.681 8.43674 137.51 8.39081 138.34 8.392C139.527 8.38139 140.708 8.55524 141.845 8.90782C143.173 8.42269 144.569 8.17845 145.976 8.18568C147.177 8.18568 149.793 8.39201 152.311 9.92227C155.01 8.85625 158.169 8.32323 161.74 8.32323C164.866 8.32323 167.631 8.80466 169.951 9.73314C172.041 8.80466 174.591 8.35762 177.833 8.35762C180.153 8.35762 182.227 8.66711 184.004 9.28609C185.797 8.64992 187.904 8.35762 190.57 8.35762C192.84 8.35762 194.881 8.64991 196.642 9.2517C197.115 9.06704 197.599 8.91202 198.09 8.78747C198.818 7.07501 199.972 5.59699 201.43 4.50618C204.672 1.99586 209.23 0.499983 213.623 0.499983C215.993 0.499983 217.803 1.13616 219.152 1.94427C221.219 1.33865 223.358 1.04339 225.504 1.06739C231.691 1.06739 235.229 4.4374 236.496 8.52956C237.289 8.44033 238.085 8.39441 238.882 8.392C240.268 8.37685 241.644 8.62144 242.947 9.11415C244.654 8.57697 246.429 8.31036 248.213 8.32323C250.878 8.32323 253.281 8.9766 255.272 10.249C258.086 8.9766 261.541 8.32323 265.573 8.32323C266.755 8.32081 267.936 8.38395 269.111 8.51236L269.259 8.42639C270.345 7.75583 272.567 6.38032 275.529 6.38032C277.768 6.36036 279.937 7.19141 281.633 8.71869C284.232 8.09726 286.922 8.02128 289.548 8.49517C290.524 8.2168 291.532 8.07799 292.543 8.08252C299.191 8.08252 304.391 13.4298 304.391 20.2558C304.394 21.3388 304.244 22.4163 303.947 23.4539C304.641 25.185 304.994 27.0447 304.984 28.9216C304.984 32.8762 303.536 36.5385 300.936 39.2379C298.912 41.3184 295.209 43.7943 289.055 43.7943C287.721 43.7957 286.389 43.6807 285.073 43.4505C284.025 43.7689 282.939 43.931 281.847 43.9319C280.718 45.3677 279.346 46.5741 277.799 47.491C274.459 49.5027 270.065 50.4828 264.405 50.4828" fill="#FFC2D2"/>
<path d="M299.8 23.643C300.348 22.6065 300.632 21.44 300.623 20.2558C300.623 15.6479 297.085 12.0371 292.543 12.0371C291.602 12.0334 290.669 12.2202 289.795 12.5873C288.598 12.2954 287.372 12.1455 286.142 12.1403C284.159 12.1135 282.19 12.4992 280.35 13.2751C279.313 11.2634 277.405 10.3177 275.512 10.3177C273.62 10.3177 272.353 11.0743 271.201 11.7964L271.152 11.8308C270.296 12.381 270.049 12.5186 269.72 12.5701C268.347 12.3638 266.96 12.2661 265.573 12.2778C260.488 12.2778 257.115 13.3955 254.894 14.9429C253.314 13.2235 251.027 12.2778 248.213 12.2778C245.991 12.2778 244.198 12.7249 242.75 13.4127C241.713 12.7249 240.413 12.3638 238.883 12.3638C236.954 12.3722 235.037 12.6675 233.189 13.2407C233.24 12.9051 233.267 12.5661 233.271 12.2263C233.271 8.75309 231.231 5.0392 225.504 5.0392C222.756 5.0392 220.387 5.52063 218.511 6.41471C217.573 5.38308 216.059 4.4718 213.624 4.4718C210.069 4.4718 206.252 5.70976 203.685 7.70426C202.088 8.92503 201.249 10.5069 201.118 12.381C199.592 12.3912 198.093 12.7989 196.757 13.5674C195.309 12.8281 193.318 12.3294 190.586 12.3294C187.855 12.3294 185.617 12.7249 184.037 13.5846C182.605 12.8281 180.614 12.3294 177.85 12.3294C174.443 12.3294 172.057 12.8624 170.33 13.9972L170.083 14.1692C167.631 12.7249 164.554 12.295 161.74 12.295C157.461 12.295 154.187 13.1547 151.834 14.5131C149.843 12.3982 147.128 12.1575 145.976 12.1575C144.551 12.1488 143.148 12.5155 141.895 13.2235C140.99 12.6905 139.838 12.381 138.34 12.381C136.343 12.391 134.358 12.7097 132.449 13.3267C132.449 11.401 132.4 9.73315 131.791 8.20289C131.182 6.67263 129.685 4.489 125.785 4.489C122.79 4.489 118.545 5.27992 115.615 7.48074L115.583 7.51513C113.937 8.78748 113.065 10.4381 112.999 12.4154C108.128 12.914 104.689 15.6651 103.093 20.1527C101.809 15.8542 97.564 12.1919 90.5704 12.1919C87.5427 12.1919 84.8275 12.8968 82.5731 14.1864V13.7565C82.5731 11.6761 82.5732 9.8707 81.8985 8.23727C81.2238 6.60385 79.7922 4.52338 75.8923 4.52338C72.3379 4.52338 68.5203 5.76135 65.9532 7.75585C65.0482 8.4264 64.3275 9.33355 63.8634 10.3865C62.728 9.32049 61.1483 8.68432 59.3546 8.68432C56.442 8.68432 54.056 10.4553 51.489 12.3466C50.9624 12.7421 50.3536 13.2063 49.7118 13.7393C49.1971 13.518 48.6535 13.3789 48.0992 13.3267C47.3916 10.5585 44.9727 8.68432 41.8461 8.68432C39.6576 8.68432 37.7652 9.68156 35.8564 10.9883C35.3956 7.94498 33.2071 5.09078 28.1882 5.09078C25.4402 5.09078 23.0706 5.57221 21.1947 6.4663C20.2567 5.43466 18.7428 4.52338 16.3074 4.52338C12.7531 4.52338 8.93544 5.76135 6.3684 7.75585C4.65705 9.07978 3.78491 10.8164 3.78491 12.8968C3.78491 14.3239 4.26212 15.4759 4.57477 16.1981L4.6735 16.456V29.2827C4.1457 30.3011 3.87393 31.4429 3.88364 32.6011C3.88364 35.4037 5.31526 37.6561 7.80002 38.7909C9.281 39.4615 11.1405 39.7538 13.8227 39.7538C16.5049 39.7538 18.3808 39.4615 19.8453 38.7909L20.1415 38.6362L20.4377 38.7909C21.9187 39.4615 23.7782 39.7538 26.4604 39.7538C29.1426 39.7538 31.0185 39.4615 32.4831 38.7909C32.9661 38.5694 33.4241 38.2926 33.8488 37.9656C35.3298 38.98 37.5348 39.8569 40.7436 39.8569C45.4005 39.8569 48.3296 38.2579 50.008 36.848C51.3573 38.2407 53.875 39.8569 58.2521 39.8569C61.7078 39.8569 64.1925 38.98 65.9532 37.9484C66.3875 38.2836 66.8567 38.5662 67.3519 38.7909C68.8329 39.4615 70.6924 39.7538 73.3746 39.7538C76.0568 39.7538 77.9327 39.4615 79.3973 38.7909C80.0291 38.5047 80.6169 38.1222 81.1415 37.6561C83.4124 39.152 86.3085 39.9601 89.6654 39.9601C96.0665 39.9601 101.085 37.0543 102.928 32.6527C103.338 33.8905 103.944 35.0473 104.722 36.0743C106.582 38.4986 109.346 39.8225 112.522 39.8225C114.037 39.8165 115.534 39.4767 116.915 38.8253C117.952 39.513 119.252 39.8913 120.799 39.8913C123.119 39.8913 126.427 39.3067 128.879 38.2407C130.376 39.152 132.565 39.7538 135.757 39.7538C138.488 39.7538 145.531 39.7538 146.14 33.6671C147.374 37.4154 150.813 39.8225 155.339 39.8225C157.329 39.8489 159.302 39.4389 161.131 38.619C162.382 39.2208 163.994 39.6506 166.035 39.6506C169.062 39.6506 172.238 38.4986 174.18 36.0399C175.546 37.8796 177.8 39.685 181.799 39.685C184.777 39.685 186.768 38.8081 188.167 37.6389C189.632 38.9285 191.573 39.685 194.371 39.685C198.419 39.685 200.64 37.8109 201.973 35.8851C202.679 37.1952 203.786 38.2189 205.116 38.7909C206.597 39.4615 208.457 39.7538 211.139 39.7538C213.821 39.7538 215.697 39.4615 217.161 38.7909L217.458 38.6362L217.754 38.7909C219.235 39.4615 221.094 39.7538 223.777 39.7538C226.459 39.7538 228.335 39.4615 229.799 38.7909L230.079 38.6534L230.359 38.7909C231.84 39.4615 233.633 39.7538 236.2 39.7538C238.767 39.7538 240.808 39.3239 242.223 38.6362L242.75 38.8769C244.165 39.4787 245.942 39.7538 248.328 39.7538C249.169 39.7597 250.009 39.7195 250.846 39.6334C251.241 42.0062 252.837 43.9663 255.338 45.1355C257.51 46.1327 260.472 46.6313 264.372 46.6313C269.358 46.6313 273.126 45.8232 275.874 44.1726C277.684 43.0722 279.05 41.6279 279.922 39.8913C280.517 40.027 281.124 40.0962 281.732 40.0976C282.766 40.1059 283.79 39.8954 284.744 39.4787C286.149 39.7981 287.584 39.9594 289.022 39.9601C297.414 39.9601 301.183 34.4752 301.183 29.0419C301.205 27.1716 300.714 25.3338 299.767 23.7462" fill="#025563"/>
<path d="M19.2036 29.4718V13.8253C19.2036 10.2317 19.2365 8.40918 16.3075 8.40918C13.3784 8.40918 10.581 9.32046 8.60637 10.8507C7.81651 11.4525 7.55322 12.0199 7.55322 12.8108C7.55322 13.6018 7.7836 13.98 8.03043 14.5474C8.27784 15.0671 8.41799 15.6353 8.44181 16.2152V29.4546C8.45353 29.9697 8.32206 30.4774 8.06334 30.9161C7.83296 31.4147 7.65195 31.7758 7.65195 32.5151C7.65195 35.077 9.97216 35.7132 13.8227 35.7132C17.6733 35.7132 19.9935 35.077 19.9935 32.5151C19.9935 31.7758 19.8289 31.4147 19.5821 30.9161C19.3234 30.4774 19.1919 29.9697 19.2036 29.4546" fill="#5CC1FF"/>
<path d="M31.8741 29.4718V21.4595C31.8741 18.0379 31.8412 16.3013 28.978 16.3013C26.1148 16.3013 23.2186 17.0406 21.3098 18.5365C20.5199 19.1383 20.2896 19.7057 20.2896 20.4966C20.2896 21.2875 20.5199 21.7346 20.7338 22.3191C20.9663 22.8427 21.095 23.4101 21.1123 23.987V29.4718C21.124 29.987 20.9926 30.4946 20.7338 30.9333C20.5035 31.4319 20.3225 31.793 20.3225 32.5324C20.3225 35.0942 22.6427 35.7304 26.4932 35.7304C30.3438 35.7304 32.664 35.0942 32.664 32.5324C32.664 31.793 32.4994 31.4319 32.2526 30.9333C31.9939 30.4946 31.8624 29.987 31.8741 29.4718Z" fill="#5CC1FF"/>
<path d="M24.3047 16.2668C27.7439 16.2668 32.1704 15.2008 32.1704 12.209C32.1704 9.88784 30.7058 8.97656 28.1882 8.97656C24.749 8.97656 20.3225 10.077 20.3225 13.1719C20.3225 15.3727 21.787 16.2668 24.3047 16.2668Z" fill="#5CC1FF"/>
<path d="M47.9015 27.0131C46.4699 27.0131 45.8611 28.4402 45.17 28.4402C44.4788 28.4402 44.5282 28.1135 44.5282 27.5805V23.5227C44.5282 23.3508 44.6269 23.282 44.8408 23.282H47.6053C48.7243 23.282 49.4154 22.3192 49.4154 20.2215C49.4154 18.1238 48.823 17.1954 47.6053 17.1954H44.8408C44.6434 17.1954 44.5282 17.1266 44.5282 16.9546V15.0289C44.5282 13.3611 43.3434 12.5702 41.846 12.5702C40.3485 12.5702 38.4068 13.8425 36.2018 15.4932C33.9968 17.1438 32.1867 18.6912 32.1867 20.8233C32.1751 21.3952 32.319 21.9587 32.6015 22.4487C32.884 22.9386 33.2936 23.3349 33.7828 23.5915V29.9533C33.7499 33.7875 36.3992 35.8164 40.7928 35.8164C47.3256 35.8164 49.9256 32.0165 49.9256 29.2655C49.9256 27.9416 49.218 26.9959 47.918 26.9959" fill="#5CC1FF"/>
<path d="M65.4102 27.0131C63.9786 27.0131 63.3697 28.4402 62.6786 28.4402C61.9875 28.4402 62.0368 28.1135 62.0368 27.5805V23.5227C62.0368 23.3508 62.1356 23.282 62.3495 23.282H65.114C66.2329 23.282 66.9241 22.3192 66.9241 20.2215C66.9241 18.1238 66.3481 17.1954 65.114 17.1954H62.333C62.1356 17.1954 62.0204 17.1266 62.0204 16.9546V15.0289C62.0204 13.3611 60.8356 12.5702 59.3382 12.5702C57.8407 12.5702 55.899 13.8425 53.694 15.4932C51.489 17.1438 49.6789 18.6912 49.6789 20.8233C49.6673 21.3952 49.8112 21.9587 50.0937 22.4487C50.3762 22.9386 50.7858 23.3349 51.275 23.5915V29.9533C51.2421 33.7875 53.8914 35.8164 58.285 35.8164C64.8178 35.8164 67.4177 32.0165 67.4177 29.2655C67.4177 27.9416 66.7102 26.9959 65.4102 26.9959" fill="#5CC1FF"/>
<path d="M78.7883 29.4718V13.8253C78.7883 10.2317 78.8212 8.40918 75.8922 8.40918C72.9631 8.40918 70.1657 9.33766 68.1911 10.8679C67.4012 11.4697 67.1379 12.0371 67.1379 12.828C67.1379 13.6189 67.3683 13.9972 67.6151 14.5646C67.8626 15.0843 68.0027 15.6525 68.0265 16.2324V29.4718C68.0382 29.9869 67.9068 30.4946 67.6481 30.9332C67.4177 31.4319 67.2367 31.7929 67.2367 32.5323C67.2367 35.0942 69.5569 35.7303 73.4074 35.7303C77.258 35.7303 79.5782 35.0942 79.5782 32.5323C79.5782 31.7929 79.4136 31.4319 79.1668 30.9332C78.9081 30.4946 78.7766 29.9869 78.7883 29.4718Z" fill="#5CC1FF"/>
<path d="M98.3208 26.48C97.2018 26.48 95.6386 27.2193 92.7753 27.2193C91.2779 27.2193 89.9121 26.6863 89.9121 26.2565C89.9121 26.1189 90.0108 26.0845 90.1919 26.0845H96.2145C98.3537 26.0845 99.7195 25.1904 99.7195 22.9208C99.7195 19.7572 96.8892 16.0948 90.5539 16.0948C83.9553 16.0948 79.4465 20.1182 79.4465 26.5488C79.4465 32.4463 83.2313 35.9367 89.6982 35.9367C95.7537 35.9367 99.9499 32.8761 99.9499 28.7152C99.9499 27.1506 99.3739 26.48 98.3208 26.48ZM89.5666 22.8177C89.5666 21.6485 89.7969 20.1182 90.4222 20.1182C91.0475 20.1182 91.0311 20.6856 91.0311 21.253C91.0311 22.3534 90.5539 23.4539 89.8792 23.4539C89.6324 23.4539 89.5666 23.2131 89.5666 22.8177Z" fill="#5CC1FF"/>
<path d="M128.698 28.5089V13.8081C128.698 10.2145 128.73 8.39197 125.801 8.39197C122.872 8.39197 119.779 9.18289 117.837 10.6272C117.047 11.229 116.784 11.7964 116.784 12.5873C116.784 13.3782 117.129 13.7909 117.426 14.4099C117.779 15.0459 117.956 15.7723 117.936 16.5075V16.8686C116.948 16.4044 115.862 16.2324 114.661 16.2324C108.902 16.2324 105.841 19.7916 105.841 26.5488C105.841 32.8074 108.573 35.7991 112.555 35.7991C113.596 35.7878 114.622 35.5406 115.562 35.0746C116.502 34.6085 117.335 33.9347 118.002 33.0997C118.133 34.9566 118.709 35.8679 120.832 35.8679C123.448 35.8679 126.855 35.0082 128.319 34.0453C129.241 33.4436 129.504 32.773 129.504 31.9821C129.504 31.1911 129.257 30.7441 129.06 30.1595C128.827 29.6359 128.698 29.0686 128.681 28.4917L128.698 28.5089ZM117.442 30.0563C116.998 30.0563 116.866 29.5921 116.866 25.0013C116.866 20.4105 116.998 19.9463 117.442 19.9463C117.886 19.9463 118.018 20.4105 118.018 25.0013C118.018 29.5921 117.886 30.0563 117.442 30.0563Z" fill="#5CC1FF"/>
<path d="M145.992 16.0948C143.787 16.0948 142.24 17.5219 141.22 19.4477C141.088 17.35 140.578 16.3184 138.357 16.3184C135.74 16.3184 132.597 17.0577 130.688 18.5536C129.899 19.1554 129.668 19.7228 129.668 20.5137C129.668 21.3046 129.899 21.7517 130.113 22.3362C130.345 22.8598 130.474 23.4272 130.491 24.0041V29.4889C130.503 30.0041 130.371 30.5117 130.113 30.9504C129.882 31.449 129.701 31.8101 129.701 32.5494C129.701 35.1113 132.153 35.7475 135.757 35.7475C140.15 35.7475 142.388 35.2145 142.388 32.7558C142.388 31.8961 142.076 31.4834 141.746 30.9332C141.417 30.383 141.236 30.2627 141.236 29.4717V24.5199C141.236 24.1588 141.368 24.0556 141.549 24.0556C142.306 24.0556 142.092 28.1822 145.778 28.1822C148.937 28.1822 150.402 25.7235 150.402 21.786C150.402 17.8486 148.74 16.0948 145.975 16.0948" fill="#5CC1FF"/>
<path d="M171.827 29.317C171.218 28.8872 170.971 28.3542 170.971 27.3569V23.3851C170.971 21.1155 170.971 16.2324 161.74 16.2324C154.993 16.2324 150.846 18.8287 150.846 21.9236C150.846 23.6258 152.113 24.5887 154.565 24.5887C157.428 24.5887 158.959 23.729 159.304 21.7861C159.469 20.9264 159.469 20.3934 159.847 20.3934C160.226 20.3934 160.226 20.8232 160.226 21.1843V24.5887C160.226 24.9498 160.226 25.1217 159.815 25.0873C158.673 24.9499 157.525 24.881 156.375 24.881C152.36 24.881 149.431 26.2393 149.431 30.4002C149.431 33.9938 152.08 35.8163 155.355 35.8163C157.906 35.8163 159.88 35.0254 161.246 33.925C162.266 34.9566 163.83 35.6272 166.051 35.6272C170.28 35.6272 172.288 33.1685 172.288 30.2111C172.288 29.6437 172.222 29.5749 171.843 29.317H171.827ZM159.963 31.5178C159.617 31.5178 159.387 31.088 159.387 29.6265C159.387 28.165 159.617 27.8555 159.963 27.8555C160.308 27.8555 160.506 28.8184 160.506 29.5233C160.506 31.088 160.374 31.5178 159.963 31.5178Z" fill="#5CC1FF"/>
<path d="M201.282 16.3012C198.353 16.3012 197.201 17.8659 197.201 19.6884C197.201 20.978 197.777 21.3219 197.777 22.3535C197.777 22.9897 197.58 23.815 197.3 24.9498C197.234 25.1905 197.168 25.3796 196.954 25.3796C196.74 25.3796 196.675 25.2421 196.609 24.9498C196.197 23.3164 196.132 22.9209 196.132 22.491C196.132 21.3562 196.708 21.0296 196.708 19.7572C196.708 17.3329 194.568 16.2668 190.586 16.2668C185.781 16.2668 184.284 17.4704 184.284 19.7572C184.284 20.9608 184.86 21.3906 184.86 22.3879C184.86 22.9897 184.695 23.815 184.382 24.9498C184.317 25.1905 184.251 25.3796 184.037 25.3796C183.823 25.3796 183.757 25.2421 183.691 24.9498C183.313 23.4539 183.214 22.9209 183.214 22.4567C183.214 21.3563 183.79 21.0983 183.79 19.7572C183.79 17.4876 182.128 16.2668 177.833 16.2668C172.321 16.2668 170.988 17.7971 170.988 20.1527C170.988 21.6829 171.531 22.3879 172.041 23.1444C172.749 24.1761 172.749 24.2104 174.048 27.1334L175.957 31.3631C176.813 33.2545 177.866 35.6616 181.783 35.6616C185.699 35.6616 186.719 33.7015 187.674 31.6382C187.805 31.3115 187.871 31.1052 188.151 31.1052C188.43 31.1052 188.463 31.2772 188.628 31.6382C189.994 34.4924 191.08 35.6616 194.354 35.6616C198.024 35.6616 199.061 33.5296 200.048 31.3631L201.99 27.1334C202.845 25.2765 203.174 24.2104 204.129 22.8693C204.705 22.0784 205.396 21.0983 205.396 19.7056C205.396 17.6424 203.964 16.3184 201.282 16.3184" fill="#5CC1FF"/>
<path d="M216.536 29.4718V13.8253C216.536 10.2317 216.569 8.40918 213.64 8.40918C210.711 8.40918 207.914 9.33766 205.939 10.8679C205.149 11.4697 204.886 12.0371 204.886 12.828C204.886 13.6189 205.116 13.9972 205.363 14.5646C205.61 15.0843 205.75 15.6525 205.774 16.2324V29.4718C205.786 29.9869 205.655 30.4946 205.396 30.9332C205.165 31.4319 204.984 31.7929 204.984 32.5323C204.984 35.0942 207.305 35.7303 211.155 35.7303C215.006 35.7303 217.326 35.0942 217.326 32.5323C217.326 31.7929 217.161 31.4319 216.915 30.9332C216.656 30.4946 216.524 29.9869 216.536 29.4718Z" fill="#5CC1FF"/>
<path d="M229.207 29.4718V21.4595C229.207 18.0379 229.174 16.3013 226.311 16.3013C223.447 16.3013 220.551 17.0406 218.642 18.5365C217.853 19.1383 217.622 19.7057 217.622 20.4966C217.622 21.2875 217.853 21.7346 218.066 22.3191C218.299 22.8427 218.428 23.4101 218.445 23.987V29.4718C218.457 29.987 218.325 30.4946 218.066 30.9333C217.836 31.4319 217.655 31.793 217.655 32.5324C217.655 35.0942 219.975 35.7304 223.826 35.7304C227.676 35.7304 229.997 35.0942 229.997 32.5324C229.997 31.793 229.832 31.4319 229.585 30.9333C229.327 30.4946 229.195 29.987 229.207 29.4718Z" fill="#5CC1FF"/>
<path d="M221.637 16.2668C225.076 16.2668 229.503 15.2008 229.503 12.209C229.503 9.88784 228.038 8.97656 225.521 8.97656C222.082 8.97656 217.655 10.077 217.655 13.1719C217.655 15.3727 219.12 16.2668 221.637 16.2668Z" fill="#5CC1FF"/>
<path d="M253.577 29.4717V22.1987C253.577 18.502 252.047 16.2152 248.229 16.2152C245.07 16.2152 242.98 17.4188 241.729 19.1038C241.598 17.2125 241.022 16.3012 238.899 16.3012C236.283 16.3012 233.14 17.0405 231.231 18.5364C230.441 19.1382 230.21 19.7056 230.21 20.4965C230.21 21.2874 230.441 21.7345 230.655 22.3191C230.887 22.8427 231.016 23.41 231.033 23.9869V29.4717C231.045 29.9869 230.913 30.4945 230.655 30.9332C230.424 31.4318 230.243 31.7929 230.243 32.5323C230.243 35.0942 232.695 35.7303 236.233 35.7303C239.508 35.7303 242.124 35.1629 242.124 32.7386C242.112 32.2338 242.046 31.7321 241.927 31.2427C241.82 30.764 241.776 30.2724 241.795 29.7812V24.3136C241.795 23.5742 241.861 23.0412 242.305 23.0412C242.749 23.0412 242.815 23.5742 242.815 24.3136V29.7984C242.835 30.2896 242.79 30.7812 242.684 31.2599C242.565 31.7493 242.498 32.251 242.486 32.7558C242.486 35.1801 245.103 35.7475 248.377 35.7475C251.915 35.7475 254.367 35.1114 254.367 32.5495C254.367 31.8101 254.202 31.449 253.956 30.9504C253.697 30.5117 253.565 30.0041 253.577 29.4889" fill="#5CC1FF"/>
<path d="M272.978 29.317C270.427 29.317 266.544 30.8473 262.907 30.8473C261.64 30.8473 261.377 30.6754 261.377 30.1423C261.377 29.9704 261.41 29.575 261.657 29.575C261.904 29.575 262.2 29.7125 264.24 29.7125C271.826 29.7125 275.611 26.8583 275.611 22.4567V22.0612C276.772 20.6555 277.413 18.8627 277.421 17.0062C277.421 15.1492 276.746 14.2723 275.545 14.2723C274.755 14.2723 274.08 14.6334 273.159 15.2008C271.941 15.9917 271.151 16.4732 269.588 16.5591C268.272 16.3288 266.94 16.2195 265.606 16.2324C257.839 16.2324 254.466 19.0351 254.466 23.3851C254.466 25.5172 255.288 27.1506 257.016 28.1822C255.749 29.2483 254.91 30.7441 254.91 32.6699C254.905 33.8346 255.237 34.9736 255.864 35.9367C255.075 36.5041 254.564 37.295 254.564 38.3611C254.564 40.923 257.526 42.5908 264.405 42.5908C272.748 42.5908 277.372 40.132 277.372 34.4408C277.372 30.8817 275.561 29.317 272.978 29.317ZM264.257 19.9635C264.602 19.9635 264.865 20.359 265.557 22.8177C265.968 24.2792 266.1 25.1217 266.1 25.4828C266.1 25.8439 265.935 25.947 265.754 25.947C265.573 25.947 265.178 25.5172 264.487 23.1444C264.043 21.6142 263.911 20.7888 263.911 20.445C263.911 20.1011 264.043 19.9807 264.257 19.9807V19.9635ZM265.178 39.2208C262.726 39.2208 261.328 38.9285 260.587 38.5502C260.307 38.4126 260.242 38.3095 260.242 38.2235C260.242 38.1375 260.307 38.1203 260.406 38.1203C260.505 38.1203 261.262 38.2923 262.792 38.2923C265.145 38.2923 268.617 37.7937 269.868 37.7937C270.378 37.7937 270.543 37.8624 270.543 38.0344C270.543 38.5674 268.946 39.2036 265.162 39.2036" fill="#5CC1FF"/>
<path d="M290.306 21.8548C288.331 21.253 287.442 21.253 287.442 20.6169C287.442 20.3246 287.673 20.1526 288.084 20.1526C288.94 20.1526 290.602 20.892 291.556 21.425C292.823 22.1299 293.728 22.8521 294.683 22.8521C295.637 22.8521 296.822 21.9236 296.822 20.2558C296.822 17.6939 294.88 15.9917 292.527 15.9917C291.699 15.9698 290.893 16.2771 290.273 16.8514C288.94 16.3649 287.538 16.115 286.126 16.112C280.877 16.112 277.717 19.0694 277.717 23.0928C277.717 28.0103 282.374 29.2826 284.398 29.8844C286.422 30.4862 287.261 30.5206 287.261 31.088C287.261 31.3287 287.064 31.5178 286.587 31.5178C285.764 31.5178 284.233 30.9848 282.868 30.2799C281.502 29.5749 280.58 28.6808 279.429 28.6808C278.277 28.6808 277.224 29.6781 277.224 31.3115C277.224 33.9422 279.067 36.0742 281.749 36.0742C282.802 36.0742 283.625 35.7131 284.168 35.1457C285.742 35.6713 287.385 35.9381 289.038 35.9367C294.485 35.9367 297.414 32.9793 297.414 28.9559C297.414 23.8321 292.28 22.4738 290.306 21.872" fill="#5CC1FF"/>
<path d="M18.7921 31.5007C18.6769 31.5351 18.2491 30.3143 18.0352 28.2682C17.92 27.2538 17.8541 26.033 17.8212 24.6919C17.7883 23.3507 17.7554 21.8721 17.7554 20.3246C17.739 17.2297 17.7719 14.4271 17.8377 12.3982C17.8657 11.9574 17.8657 11.5151 17.8377 11.0743C17.8192 10.7596 17.7468 10.4509 17.6238 10.163C17.5486 9.98453 17.4361 9.82591 17.2947 9.69876C17.1959 9.61279 17.1301 9.56121 17.1466 9.52682C17.163 9.49243 17.2453 9.47524 17.3934 9.52682C17.6193 9.60339 17.8156 9.75415 17.9529 9.95667C18.1659 10.2638 18.3119 10.6159 18.3807 10.9883C18.4695 11.4528 18.5191 11.9246 18.5288 12.3982C18.6275 14.4271 18.7098 17.2297 18.7263 20.3246C18.7427 21.8721 18.7427 23.3507 18.7263 24.6919C18.7098 26.033 18.7098 27.2366 18.7263 28.2338C18.7756 30.2455 18.9402 31.4835 18.8086 31.5179" fill="#CAFBFF"/>
<path d="M28.616 14.6678C28.5831 14.5302 28.9616 14.3411 29.4388 13.98C29.7107 13.7752 29.9543 13.5322 30.1628 13.2579C30.3964 12.9401 30.5543 12.5688 30.6236 12.1747C30.6966 11.8001 30.6622 11.4113 30.5248 11.0571C30.3952 10.7641 30.1971 10.5098 29.9489 10.3177C29.5046 9.97385 29.1097 9.95666 29.0932 9.80191C29.0768 9.64716 29.1755 9.64716 29.3894 9.59558C29.6888 9.53571 29.9985 9.57167 30.278 9.69875C30.712 9.8805 31.0764 10.2069 31.3147 10.6272C31.5971 11.155 31.6905 11.7706 31.578 12.3638C31.4791 12.9333 31.2215 13.4597 30.8375 13.8769C30.5352 14.1999 30.1706 14.4519 29.7679 14.6162C29.5066 14.7301 29.228 14.7942 28.9451 14.8054C28.7477 14.8054 28.6325 14.7538 28.616 14.7022" fill="#CAFBFF"/>
<path d="M31.3969 33.9938C31.3476 33.9422 31.5121 33.7358 31.4956 33.3404C31.4853 33.0944 31.4235 32.8538 31.3146 32.6354C31.1995 32.3603 31.002 32.0852 30.7881 31.707C30.555 31.2829 30.3831 30.8252 30.2779 30.3486C30.1586 29.8185 30.0924 29.2769 30.0805 28.7324C30.064 28.165 30.0969 27.5804 30.1134 26.9786L30.2121 25.1389C30.2944 23.8837 30.3767 22.6801 30.4754 21.5969L30.6071 20.0667C30.6515 19.6549 30.646 19.239 30.5906 18.8287C30.5579 18.5487 30.4618 18.281 30.3101 18.0477C30.1584 17.8144 29.9555 17.6224 29.7185 17.4876C29.5848 17.4121 29.4403 17.3598 29.2906 17.3328C29.1754 17.3156 29.1096 17.2984 29.1096 17.264C29.1096 17.2297 29.159 17.1781 29.2742 17.1265C29.4606 17.0631 29.6605 17.0571 29.8501 17.1093C30.1524 17.1801 30.4309 17.3345 30.6564 17.5563C30.7974 17.6925 30.9193 17.8488 31.0184 18.0206C31.1252 18.2153 31.2081 18.4233 31.2653 18.6396C31.3816 19.1109 31.4315 19.5975 31.4134 20.0838C31.3969 20.5825 31.3805 21.0983 31.364 21.6485C31.3146 22.7317 31.2653 23.9353 31.183 25.1905L31.0678 27.0302C31.0184 27.6148 30.9855 28.1822 30.9691 28.698C30.9526 29.7469 31.0843 30.6581 31.3969 31.3459C31.563 31.6905 31.7059 32.0467 31.8248 32.4119C31.9207 32.7171 31.9377 33.0433 31.8741 33.3576C31.8342 33.5606 31.7367 33.7463 31.5944 33.8906C31.4956 33.9766 31.4134 33.9938 31.3969 33.9766" fill="#CAFBFF"/>
<path d="M43.7878 17.2296C43.6561 17.2296 43.5409 16.9373 43.4422 16.4731C43.3899 16.2003 43.3515 15.9248 43.327 15.6478C43.2941 15.3383 43.2941 14.9772 43.2612 14.6849C43.2512 14.4475 43.1832 14.2166 43.0637 14.0144C42.9381 13.8506 42.7812 13.7159 42.603 13.6189L42.1587 13.3438C42.0435 13.2578 41.9941 13.1891 41.9941 13.1203C41.9941 13.0515 42.0764 12.9999 42.2245 12.9655C42.4193 12.9216 42.6201 12.9158 42.8169 12.9483C43.1502 12.9978 43.4606 13.154 43.7055 13.3954C43.863 13.5558 43.9864 13.7491 44.0675 13.9628C44.1452 14.1665 44.195 14.3807 44.2156 14.599C44.2327 14.7875 44.2382 14.9771 44.2321 15.1664C44.2321 15.3383 44.2156 15.4931 44.2156 15.665C44.1965 15.9417 44.1636 16.2172 44.1169 16.4903C44.0346 16.9717 43.9194 17.264 43.7878 17.264" fill="#CAFBFF"/>
<path d="M47.9675 22.8177C47.8852 22.6973 48.0662 22.4222 48.1649 21.9236C48.2267 21.6294 48.2652 21.3303 48.2801 21.0295C48.3031 20.6574 48.3031 20.2841 48.2801 19.9119C48.2606 19.5789 48.1825 19.2525 48.0498 18.949C47.936 18.7135 47.7729 18.5078 47.5726 18.3473C47.4327 18.2279 47.2777 18.1295 47.1118 18.055C46.9802 18.0034 46.8814 17.969 46.865 17.883C46.8485 17.7971 46.9143 17.7283 47.0954 17.6595C47.3499 17.5828 47.6214 17.5948 47.8688 17.6939C48.2448 17.8378 48.5674 18.1027 48.7903 18.4504C49.0415 18.8576 49.1888 19.3252 49.2181 19.8087C49.247 20.2519 49.2194 20.6971 49.1358 21.1327C49.0739 21.5015 48.9514 21.8563 48.7738 22.1815C48.6522 22.4125 48.4768 22.6077 48.2637 22.7489C48.1156 22.8349 48.0004 22.8521 47.951 22.8005" fill="#CAFBFF"/>
<path d="M44.3802 28.9731C44.39 28.9924 44.3937 29.0145 44.3907 29.0361C44.3878 29.0577 44.3783 29.0778 44.3637 29.0935C44.3155 29.1622 44.2456 29.211 44.1663 29.231C44.0413 29.2652 43.9094 29.2592 43.7878 29.2138L43.5739 29.0935C43.4981 29.036 43.4314 28.9664 43.3764 28.8871C43.2719 28.7261 43.1991 28.5449 43.1625 28.3541C43.1258 28.1782 43.0983 28.0002 43.0802 27.8211C43.0379 27.4387 43.016 27.0541 43.0144 26.6691C43.0144 25.0185 43.3764 23.7118 43.6397 23.7461C43.903 23.7805 43.9688 25.0873 43.9688 26.6691C43.9688 27.0646 43.9688 27.4429 43.9524 27.7867V28.251C43.9476 28.3487 43.9531 28.4468 43.9688 28.5433C43.9906 28.6615 44.0555 28.7664 44.1498 28.8356C44.2321 28.9043 44.3144 28.9043 44.3637 28.9731" fill="#CAFBFF"/>
<path d="M44.479 34.4065C44.4296 34.2689 44.9233 34.011 45.6309 33.5124C46.5346 32.8816 47.3254 32.0902 47.9675 31.174C48.1463 30.9144 48.3112 30.6446 48.4612 30.3659C48.6006 30.118 48.7216 29.8593 48.8232 29.5922C48.9003 29.3842 48.934 29.1614 48.9219 28.9388C48.9054 28.7452 48.8493 28.5576 48.7574 28.3886C48.6153 28.1179 48.4119 27.8877 48.165 27.718C47.984 27.5805 47.8523 27.5289 47.8523 27.4429C47.8523 27.3569 48.0004 27.3054 48.2802 27.3398C48.6837 27.4132 49.047 27.6398 49.3004 27.9759C49.4947 28.2131 49.6303 28.4965 49.6953 28.8012C49.7595 29.1499 49.7425 29.5096 49.646 29.8501C49.5512 30.1835 49.4244 30.5061 49.2675 30.8129C48.5482 32.2741 47.3766 33.4377 45.9435 34.1142C45.0878 34.4924 44.5119 34.5096 44.479 34.3893" fill="#CAFBFF"/>
<path d="M61.033 17.2297C60.9014 17.2125 60.8191 16.9202 60.7697 16.4559C60.7204 15.9917 60.6875 15.4071 60.5723 14.8053C60.5276 14.5437 60.4502 14.2893 60.3419 14.0488C60.3015 13.9629 60.2518 13.8821 60.1938 13.8081C60.1463 13.7485 60.0909 13.6964 60.0292 13.6533C59.9234 13.5814 59.8065 13.5291 59.6837 13.4986C59.585 13.4642 59.4862 13.4642 59.4533 13.3954C59.4204 13.3266 59.4369 13.2407 59.5685 13.1203C59.6662 13.0508 59.7763 13.0028 59.8923 12.9791C60.0083 12.9555 60.1277 12.9567 60.2432 12.9828C60.4078 13.0112 60.5648 13.0756 60.7039 13.1719C60.857 13.2781 60.9907 13.4121 61.0988 13.5673C61.3153 13.8851 61.4615 14.2493 61.5267 14.6334C61.6443 15.2665 61.6218 15.9193 61.4609 16.5419C61.3292 17.0061 61.1811 17.264 61.0495 17.2468" fill="#CAFBFF"/>
<path d="M64.9823 22.3878C64.9494 22.3191 64.9988 22.2331 65.081 22.0783C65.1845 21.888 65.2673 21.6861 65.3279 21.4766C65.4122 21.1619 65.4673 20.8394 65.4924 20.5137C65.5407 20.1201 65.5462 19.7222 65.5089 19.3273C65.4839 19.0093 65.3425 18.7137 65.1139 18.502C64.885 18.3231 64.6208 18.1998 64.3405 18.1409L63.6659 17.969C63.5013 17.9174 63.4026 17.8658 63.4026 17.7971C63.4026 17.7283 63.4849 17.6595 63.6494 17.5907C64.0669 17.4392 64.5148 17.4037 64.9494 17.4876C65.1822 17.5302 65.4054 17.6177 65.6076 17.7455C65.8451 17.8996 66.0428 18.1121 66.1835 18.3645C66.3226 18.6187 66.4121 18.8992 66.4468 19.1898C66.5032 19.6839 66.4753 20.1845 66.3646 20.6684C66.2888 21.0706 66.1439 21.4551 65.9367 21.8032C65.7917 22.0552 65.5803 22.2581 65.3279 22.3878C65.1469 22.4738 65.0317 22.4566 64.9988 22.3878" fill="#CAFBFF"/>
<path d="M61.9051 29.0763C61.9051 29.1451 61.8064 29.2139 61.6089 29.1967C61.4763 29.172 61.3503 29.1177 61.2396 29.0376C61.1289 28.9575 61.0359 28.8534 60.9671 28.7325C60.7861 28.4079 60.6844 28.0418 60.6709 27.6664C60.638 27.3053 60.6216 26.9099 60.6216 26.4972C60.6216 24.8466 60.9507 23.5227 61.214 23.5571C61.4773 23.5914 61.576 24.8982 61.576 26.5144C61.576 26.9099 61.5595 27.3053 61.5431 27.6492C61.5168 27.9068 61.5224 28.1668 61.5595 28.423C61.5903 28.5727 61.6521 28.7135 61.7405 28.8356C61.8064 28.9388 61.8886 28.9904 61.8886 29.0591" fill="#CAFBFF"/>
<path d="M60.4078 34.716C60.3914 34.5612 60.9673 34.4409 61.7572 34.0282C62.2208 33.7854 62.6616 33.4976 63.0736 33.1685C63.5745 32.7625 64.0373 32.3077 64.4558 31.8102C64.8835 31.3062 65.2845 30.7781 65.6571 30.2283C65.8123 30.0086 65.9446 29.7723 66.052 29.5234C66.0935 29.4234 66.1266 29.3199 66.1507 29.2139V29.0591C66.1536 29.0133 66.1536 28.9674 66.1507 28.9216C66.1457 28.7544 66.1065 28.5902 66.0355 28.4402C65.9837 28.3186 65.9112 28.208 65.8216 28.1135C65.6735 27.9587 65.5254 27.9071 65.5254 27.8384C65.5254 27.7696 65.69 27.6664 66.0026 27.7696C66.2162 27.8557 66.4052 27.9971 66.552 28.1806C66.6989 28.3641 66.7986 28.5836 66.8419 28.8184C66.8585 28.8977 66.8695 28.9782 66.8748 29.0591C66.8789 29.1393 66.8789 29.2197 66.8748 29.2999C66.8635 29.4629 66.8359 29.6243 66.7925 29.7813C66.7001 30.1074 66.5674 30.4196 66.3976 30.7098C66.0398 31.3336 65.6266 31.9208 65.1634 32.4635C64.6956 33.0174 64.1588 33.5032 63.5672 33.9078C63.079 34.2396 62.5467 34.4945 61.9875 34.6644C61.6143 34.7834 61.2258 34.8414 60.8357 34.8363C60.5559 34.8191 60.4078 34.7675 60.4078 34.6988" fill="#CAFBFF"/>
<path d="M77.7681 17.7799C77.5048 17.7799 77.3073 15.5447 77.3238 12.8108C77.3498 12.2071 77.3167 11.6022 77.225 11.0055C77.1843 10.7725 77.1123 10.5468 77.0111 10.3349C76.921 10.1563 76.8044 9.99383 76.6655 9.85346C76.4598 9.64013 76.2047 9.48613 75.925 9.40642C75.7276 9.35484 75.5795 9.33764 75.563 9.26886C75.5466 9.20009 75.6453 9.07973 75.925 9.01095C76.3286 8.94351 76.7415 9.04212 77.0769 9.28606C77.3151 9.4438 77.5218 9.64814 77.6858 9.88785C77.8709 10.159 78.0101 10.4615 78.0972 10.7819C78.2782 11.4353 78.2946 12.1403 78.2946 12.828C78.2782 15.579 78.0478 17.7971 77.7845 17.7971" fill="#CAFBFF"/>
<path d="M77.6529 22.8349C77.3896 22.8005 77.2579 21.9924 77.2909 21.0295C77.3238 20.0667 77.5377 19.2585 77.801 19.2585C78.0643 19.2585 78.2946 20.0667 78.2453 21.0639C78.1959 22.0612 77.9162 22.8521 77.6529 22.8349Z" fill="#CAFBFF"/>
<path d="M77.3895 33.9422C77.3402 33.8906 77.4224 33.7531 77.5705 33.5467C77.7727 33.2886 77.944 33.0057 78.0807 32.7042C78.1541 32.5253 78.1879 32.3313 78.1794 32.1368C78.1585 31.9331 78.0781 31.7409 77.949 31.5866C77.7357 31.3201 77.5483 31.0322 77.3895 30.7269C77.2461 30.3548 77.168 29.9588 77.1591 29.5577C77.0544 28.3319 77.082 27.0976 77.2414 25.8782C77.3731 24.9498 77.5705 24.3824 77.6857 24.3995C77.8009 24.4167 77.8832 26.7035 78.1136 29.4718C78.1168 29.7579 78.1612 30.0419 78.2452 30.3143C78.3771 30.5765 78.5255 30.8292 78.6895 31.0708C78.7875 31.2315 78.865 31.4049 78.9199 31.5866C78.9694 31.771 78.9862 31.9633 78.9692 32.154C78.9433 32.4678 78.8414 32.7696 78.673 33.0309C78.5457 33.2266 78.3903 33.4005 78.2123 33.5467C78.0838 33.6518 77.946 33.7439 77.8009 33.8218C77.5705 33.9422 77.4224 33.9766 77.3895 33.925" fill="#CAFBFF"/>
<path d="M88.7602 23.6603C88.645 23.7291 88.4146 23.5571 88.2171 23.1617C88.1065 22.9235 88.0342 22.6679 88.0032 22.4051C87.9207 21.7633 88.0421 21.1109 88.3488 20.5482C88.4754 20.3218 88.6366 20.1185 88.826 19.9464C89.1551 19.6541 89.4349 19.6025 89.5007 19.6885C89.5665 19.7745 89.4842 20.0324 89.3526 20.359C89.2209 20.6857 89.2209 20.7201 89.1387 20.9264C88.9887 21.3873 88.9001 21.8675 88.8754 22.3535C88.8589 22.5771 88.8589 22.7834 88.8589 22.9725C88.8589 23.1617 88.8589 23.5915 88.7437 23.6603" fill="#CAFBFF"/>
<path d="M96.7411 25.1217C96.7576 25.0529 96.9386 25.0185 97.2019 24.9154C97.5609 24.7557 97.865 24.4859 98.074 24.1416C98.2197 23.9167 98.3256 23.6663 98.3866 23.4023C98.4031 23.3335 98.4031 23.2647 98.4196 23.196C98.436 23.1272 98.436 23.0584 98.436 22.9724C98.433 22.8108 98.4164 22.6497 98.3866 22.491C98.2715 21.8376 97.893 21.1499 97.3664 20.5137C96.8648 19.9116 96.2958 19.3748 95.6715 18.9147C95.1519 18.5328 94.6013 18.1991 94.026 17.9174C93.0386 17.436 92.364 17.2469 92.3804 17.1093C92.3969 16.9718 92.5779 17.0061 92.907 17.0061C93.3708 17.032 93.8297 17.1187 94.2728 17.264C94.9375 17.4689 95.5737 17.7637 96.1652 18.1409C96.8936 18.6126 97.5485 19.1983 98.1069 19.8775C98.6993 20.5997 99.1601 21.4766 99.2752 22.3707C99.301 22.5874 99.3065 22.8062 99.2917 23.024C99.2917 23.1272 99.2588 23.2475 99.2588 23.3507C99.2365 23.4553 99.209 23.5586 99.1765 23.6602C99.0613 24.017 98.8764 24.3449 98.6335 24.6231C98.4669 24.8267 98.2633 24.9938 98.0345 25.1148C97.8057 25.2358 97.5563 25.3083 97.3006 25.328H97.0702L96.9057 25.2764C96.8234 25.242 96.774 25.2077 96.7905 25.1733" fill="#CAFBFF"/>
<path d="M95.4248 33.5812C95.3919 33.5296 95.5729 33.3405 95.902 33.0482C96.3781 32.6613 96.834 32.248 97.2678 31.8102C97.5515 31.5158 97.8001 31.1868 98.0083 30.8301C98.2356 30.4393 98.3918 30.0079 98.4691 29.5578C98.5046 29.3246 98.5101 29.0875 98.4855 28.8528C98.4759 28.6548 98.4254 28.4612 98.3374 28.2854H98.2552L98.0741 28.3542C97.7829 28.4674 97.4863 28.565 97.1855 28.6465C96.6 28.7926 96.0065 28.9017 95.4084 28.9732L93.7628 29.1451C93.2478 29.19 92.73 29.1842 92.216 29.1279C91.7498 29.0776 91.2944 28.9499 90.8667 28.7497C90.5133 28.5791 90.1904 28.3465 89.9122 28.0619C89.7028 27.8479 89.5303 27.5978 89.4021 27.3226C89.2047 26.8583 89.2376 26.5832 89.2869 26.5661C89.3363 26.5489 89.4515 26.7896 89.7148 27.1163C90.087 27.5698 90.5706 27.9087 91.1135 28.0963C91.4863 28.2211 91.8741 28.2906 92.2654 28.3026C92.7326 28.3186 93.2004 28.2956 93.6641 28.2339L95.2603 28.0103C95.8033 27.9244 96.3792 27.8212 96.9223 27.6837L97.7286 27.4257L97.9754 27.3398C98.0878 27.3062 98.2041 27.2889 98.321 27.2882C98.4615 27.2882 98.6001 27.3224 98.7257 27.388C98.8514 27.4537 98.9607 27.549 99.045 27.6665C99.1666 27.8405 99.2508 28.0399 99.2918 28.2511C99.3256 28.4153 99.3476 28.582 99.3577 28.7497C99.3789 29.0723 99.3568 29.3964 99.2918 29.7125C99.0507 30.7436 98.4822 31.6588 97.6792 32.3088C97.1795 32.7271 96.6324 33.0794 96.0501 33.3576C95.6387 33.5468 95.4084 33.6156 95.3755 33.564" fill="#CAFBFF"/>
<path d="M116.356 30.194C116.307 30.2455 116.142 30.1768 115.961 29.936C115.717 29.5906 115.553 29.1902 115.484 28.7669C115.434 28.5089 115.385 28.2338 115.352 27.9587C115.319 27.6836 115.27 27.357 115.253 27.0303C115.188 26.3769 115.155 25.6548 115.171 24.881C115.167 23.5772 115.283 22.2759 115.517 20.9952C115.556 20.753 115.622 20.5164 115.714 20.2902C115.789 20.1064 115.901 19.9421 116.043 19.8088C116.136 19.7237 116.25 19.6697 116.372 19.6541C116.455 19.6541 116.504 19.6712 116.521 19.7056C116.537 19.74 116.422 19.8604 116.323 20.0667C116.213 20.3919 116.169 20.7372 116.191 21.0812C116.175 22.0612 116.126 23.4023 116.126 24.881C116.126 25.6204 116.126 26.3253 116.142 26.9787L116.175 28.6809C116.179 29.0404 116.223 29.3982 116.307 29.7469C116.372 29.9876 116.422 30.1424 116.372 30.194" fill="#CAFBFF"/>
<path d="M127.381 33.5467C127.315 33.4951 127.513 33.2028 127.611 32.5838C127.663 32.2136 127.668 31.8379 127.628 31.4662C127.572 30.9632 127.489 30.4639 127.381 29.9703C127.245 29.3404 127.14 28.7033 127.068 28.0618C126.986 27.3741 126.953 26.6347 126.92 25.861C126.887 24.3135 126.887 22.6285 126.937 20.8404C126.986 19.0522 127.068 17.3672 127.183 15.8369C127.233 15.0632 127.299 14.341 127.364 13.6533C127.438 13.0428 127.482 12.4287 127.496 11.8135C127.507 11.3365 127.423 10.8623 127.249 10.4208C127.11 10.0908 126.902 9.79716 126.64 9.56113C126.196 9.18287 125.834 9.16567 125.851 9.0797C125.867 8.99373 125.933 9.01093 126.114 9.01093C126.375 9.01895 126.63 9.09585 126.854 9.23445C127.215 9.4556 127.515 9.76928 127.726 10.1457C127.995 10.6414 128.152 11.1938 128.187 11.762C128.222 12.4093 128.216 13.0583 128.171 13.7049L128.072 15.8713C128.006 17.4016 127.957 19.0866 127.907 20.8404C127.858 22.5941 127.825 24.2963 127.825 25.8094C127.825 26.5659 127.842 27.2881 127.875 27.9586C127.907 28.6292 127.99 29.231 128.056 29.8156C128.132 30.3449 128.17 30.8794 128.171 31.4146C128.175 31.8348 128.114 32.2529 127.99 32.6526C127.91 32.9027 127.787 33.1356 127.628 33.3404C127.513 33.4779 127.43 33.5295 127.414 33.5123" fill="#CAFBFF"/>
<path d="M117.327 32.6698C117.524 32.8418 117.31 33.4607 116.767 33.9422C116.224 34.4236 115.615 34.544 115.467 34.3204C115.319 34.0969 115.665 33.6155 116.142 33.1856C116.619 32.7558 117.113 32.4979 117.327 32.6698Z" fill="#CAFBFF"/>
<path d="M140.512 20.0667C140.381 20.0151 140.381 19.7228 140.298 19.3446C140.232 18.8715 140.041 18.4269 139.748 18.0598C139.455 17.6927 139.07 17.4173 138.636 17.2641C138.291 17.1266 138.028 17.0578 137.995 16.9202C137.962 16.7827 138.044 16.7827 138.159 16.6967C138.338 16.6047 138.536 16.5576 138.735 16.5592C139.029 16.553 139.32 16.6116 139.591 16.7311C139.933 16.8781 140.237 17.1098 140.474 17.4063C140.712 17.7028 140.878 18.0552 140.957 18.4333C141.023 18.7325 141.029 19.043 140.973 19.3446C140.939 19.5497 140.86 19.7438 140.743 19.912C140.66 20.0323 140.562 20.0667 140.512 20.0495" fill="#CAFBFF"/>
<path d="M140.71 34.5784C140.677 34.5097 140.776 34.4065 140.874 34.2002C140.998 33.9148 141.043 33.5995 141.006 33.2889C140.985 33.0762 140.935 32.8678 140.858 32.6699C140.776 32.4464 140.644 32.1885 140.512 31.9306C140.353 31.6265 140.215 31.3104 140.101 30.9849C139.978 30.6081 139.911 30.2137 139.903 29.8157C139.887 29.4202 139.92 29.0592 139.936 28.7325C139.953 28.4058 139.986 28.0619 140.002 27.7524C140.052 27.1334 140.117 26.566 140.183 26.1018C140.315 25.1733 140.446 24.5887 140.595 24.5887C140.743 24.5887 140.825 25.1905 140.874 26.119C140.891 26.5832 140.907 27.1506 140.907 27.7696C140.907 28.0791 140.907 28.4058 140.891 28.7497C140.874 29.0936 140.874 29.4374 140.874 29.7641C140.879 30.067 140.924 30.3678 141.006 30.6582C141.096 30.9503 141.2 31.2373 141.319 31.5179C141.437 31.8024 141.536 32.0955 141.615 32.3948C141.693 32.6854 141.721 32.9881 141.697 33.2889C141.688 33.5106 141.637 33.7282 141.547 33.9289C141.456 34.1297 141.328 34.3096 141.17 34.4581C140.924 34.6472 140.743 34.6472 140.726 34.5784" fill="#CAFBFF"/>
<path d="M147.572 26.7723C147.456 26.6691 147.868 26.1189 148.213 25.1217C148.559 24.1244 148.806 22.6801 148.691 21.0467C148.653 20.3005 148.509 19.5645 148.263 18.8631C148.065 18.3149 147.744 17.8252 147.325 17.436C147.035 17.1682 146.7 16.9584 146.337 16.817C146.074 16.7138 145.91 16.6622 145.91 16.5935C145.91 16.5247 146.074 16.4387 146.403 16.4387C146.872 16.4484 147.329 16.5975 147.72 16.8686C148.311 17.2654 148.78 17.8327 149.069 18.502C149.406 19.2831 149.601 20.1226 149.645 20.9779C149.681 21.4125 149.686 21.8492 149.661 22.2847C149.641 22.6892 149.592 23.0915 149.513 23.4882C149.388 24.1691 149.161 24.8249 148.839 25.4312C148.624 25.8425 148.346 26.2143 148.016 26.5316C147.786 26.7551 147.621 26.8239 147.572 26.7723Z" fill="#CAFBFF"/>
<path d="M158.877 19.7057C159.008 19.7057 159.123 19.9808 159.107 20.445C159.099 20.7139 159.055 20.9802 158.975 21.2359C158.772 21.8648 158.401 22.4197 157.906 22.835C157.706 23.0046 157.485 23.1436 157.248 23.2476C156.836 23.4196 156.556 23.4024 156.507 23.282C156.458 23.1617 156.622 22.9381 156.885 22.663L157.313 22.1644C157.461 21.9753 157.626 21.769 157.774 21.5454C157.922 21.3219 158.054 21.0812 158.169 20.8749L158.465 20.2903C158.63 19.9464 158.761 19.7057 158.893 19.7057" fill="#CAFBFF"/>
<path d="M170.889 29.5578C170.856 29.6094 170.609 29.489 170.297 29.1451C169.871 28.6364 169.566 28.0295 169.408 27.3741C169.289 26.9353 169.207 26.4866 169.161 26.033C169.112 25.5516 169.095 25.0358 169.095 24.5028C169.079 23.4539 169.095 22.3019 168.799 21.2359C168.504 20.2315 167.925 19.3442 167.137 18.6912C166.486 18.152 165.735 17.7598 164.932 17.5392C164.366 17.3852 163.788 17.2873 163.204 17.2469C162.793 17.2125 162.546 17.1953 162.53 17.1093C162.513 17.0234 162.744 16.9374 163.188 16.8514C163.809 16.7437 164.443 16.7437 165.064 16.8514C166.016 17.0017 166.92 17.3911 167.697 17.9862C168.16 18.3384 168.571 18.7615 168.914 19.2414C169.285 19.7648 169.563 20.3528 169.737 20.978C169.898 21.5891 169.986 22.2185 170 22.8521C170.017 23.4539 170 24.0041 169.984 24.5371C169.967 25.0702 169.951 25.5516 169.967 25.9986C169.979 26.4135 170.018 26.8271 170.083 27.2366C170.169 27.8245 170.347 28.3936 170.609 28.9216C170.807 29.2999 170.938 29.5062 170.889 29.5578Z" fill="#CAFBFF"/>
<path d="M171.35 31.2084C171.236 31.1658 171.135 31.095 171.053 31.0021C171.018 30.9731 170.991 30.9353 170.974 30.8922C170.956 30.8491 170.95 30.8021 170.955 30.7556C170.96 30.7092 170.976 30.6648 171.002 30.6267C171.028 30.5886 171.062 30.558 171.103 30.5379C171.199 30.4587 171.312 30.4055 171.432 30.3831C171.494 30.3725 171.558 30.3771 171.619 30.3965C171.679 30.4159 171.734 30.4496 171.78 30.4949C171.826 30.5403 171.862 30.5961 171.884 30.658C171.905 30.7199 171.914 30.7863 171.907 30.8519C171.9 30.9176 171.879 30.9808 171.846 31.0367C171.812 31.0925 171.766 31.1395 171.713 31.174C171.659 31.2085 171.598 31.2295 171.535 31.2355C171.472 31.2415 171.409 31.2322 171.35 31.2084Z" fill="#CAFBFF"/>
<path d="M167.466 34.7503C167.45 34.6128 167.664 34.458 168.009 34.2517C168.355 34.0454 168.799 33.7875 169.26 33.4608C169.721 33.1341 170.115 32.773 170.412 32.5151C170.708 32.2572 170.938 32.1025 171.053 32.1712C171.169 32.24 171.152 32.5323 170.938 32.9622C170.817 33.2042 170.668 33.4295 170.494 33.6327C170.073 34.1315 169.542 34.5152 168.947 34.7503C168.703 34.8461 168.449 34.9096 168.19 34.9395C167.746 34.991 167.466 34.9051 167.45 34.7675" fill="#CAFBFF"/>
<path d="M158.893 31.6898C158.794 31.7758 158.531 31.6211 158.251 31.2256C157.908 30.7036 157.719 30.0878 157.708 29.4546C157.701 29.1057 157.745 28.7577 157.84 28.423C157.879 28.2762 157.929 28.1325 157.988 27.9931C158.048 27.8569 158.126 27.7297 158.218 27.6149C158.354 27.4279 158.555 27.3044 158.778 27.271C158.942 27.271 159.025 27.3398 159.025 27.4085C159.025 27.4773 158.959 27.5461 158.926 27.6321C158.869 27.7407 158.825 27.8562 158.794 27.9759C158.773 28.0665 158.756 28.1584 158.745 28.251C158.729 28.3542 158.712 28.4918 158.696 28.6121C158.667 28.8862 158.656 29.1619 158.663 29.4374C158.683 29.9415 158.749 30.4423 158.86 30.9333C158.942 31.3288 159.008 31.6039 158.893 31.6898Z" fill="#CAFBFF"/>
<path d="M182.984 26.033C182.869 26.0846 182.457 25.5 182.046 24.3996C181.947 24.1245 181.848 23.815 181.75 23.4883C181.638 23.1092 181.577 22.7157 181.569 22.3191C181.567 22.0803 181.601 21.8426 181.667 21.6142C181.735 21.3936 181.823 21.1805 181.931 20.978C182.128 20.5997 182.326 20.273 182.391 19.9635C182.459 19.6381 182.442 19.2996 182.342 18.9835C182.251 18.6861 182.086 18.4192 181.865 18.2097C181.437 17.7971 180.812 17.608 180.318 17.436C179.314 17.1265 178.64 17.0749 178.623 16.9202C178.607 16.7655 178.788 16.7826 179.1 16.7311C179.549 16.6725 180.003 16.6782 180.45 16.7483C180.762 16.791 181.07 16.86 181.371 16.9546C181.746 17.0701 182.097 17.2566 182.408 17.5048C182.78 17.8216 183.06 18.2403 183.217 18.714C183.374 19.1878 183.401 19.6978 183.296 20.1871C183.241 20.4393 183.152 20.6823 183.033 20.9092C182.918 21.1155 182.819 21.3047 182.72 21.4594C182.636 21.6072 182.564 21.7625 182.507 21.9236C182.459 22.0621 182.432 22.2068 182.424 22.3535C182.417 22.671 182.444 22.9883 182.507 23.2992C182.556 23.6258 182.622 23.9181 182.671 24.1932C182.901 25.2765 183.082 25.9642 182.967 26.033" fill="#CAFBFF"/>
<path d="M195.835 25.1045C195.786 25.1389 195.638 25.0186 195.424 24.7435C195.137 24.3557 194.894 23.9345 194.7 23.4883C194.557 23.169 194.446 22.8347 194.371 22.491C194.281 22.0735 194.265 21.6425 194.321 21.2187C194.355 20.99 194.41 20.7653 194.486 20.5481L194.7 19.9635C194.764 19.8039 194.808 19.6363 194.832 19.4649C194.847 19.3196 194.83 19.1724 194.782 19.0351C194.648 18.7206 194.431 18.4523 194.157 18.2613C193.867 18.0525 193.551 17.8848 193.219 17.7627C192.626 17.5301 192.006 17.3798 191.376 17.3157C190.29 17.2125 189.582 17.3501 189.549 17.1953C189.516 17.0406 189.681 17.0062 189.994 16.8858C190.438 16.7169 190.904 16.6184 191.376 16.5935C192.088 16.5571 192.801 16.6501 193.482 16.8686C193.902 16.9952 194.301 17.1864 194.667 17.436C194.872 17.5783 195.06 17.7457 195.226 17.9346C195.411 18.1456 195.556 18.3905 195.654 18.6568C195.761 18.9408 195.801 19.2475 195.77 19.5509C195.738 19.8114 195.671 20.066 195.572 20.3074L195.325 20.892C195.261 21.0529 195.211 21.2199 195.177 21.3906C195.045 22.044 195.161 22.6974 195.309 23.2476C195.457 23.7978 195.638 24.2448 195.737 24.5543C195.835 24.8638 195.868 25.0701 195.819 25.1045" fill="#CAFBFF"/>
<path d="M199.159 30.555C199.044 30.4863 199.373 29.5406 199.998 28.0447C200.311 27.3054 200.706 26.4285 201.134 25.4484C201.364 24.967 201.578 24.4512 201.858 23.9182C202.147 23.3581 202.495 22.8334 202.895 22.3535C203.306 21.8721 203.701 21.4594 203.997 21.0296C204.276 20.6593 204.442 20.2101 204.474 19.74C204.485 19.3124 204.383 18.8899 204.178 18.5193C203.995 18.1889 203.741 17.9066 203.438 17.694C202.963 17.3789 202.419 17.1954 201.858 17.161C201.447 17.1266 201.2 17.1438 201.183 17.075C201.167 17.0062 201.381 16.8687 201.841 16.7655C202.124 16.7113 202.412 16.6997 202.697 16.7311C203.082 16.7739 203.456 16.8904 203.8 17.075C204.266 17.332 204.659 17.7146 204.936 18.1831C205.214 18.6516 205.367 19.1891 205.379 19.74C205.384 20.0675 205.334 20.3934 205.231 20.7029C205.126 21.0134 204.982 21.3082 204.803 21.5798C204.448 22.0797 204.063 22.5562 203.652 23.0069C202.911 23.8666 202.45 24.9154 201.957 25.8611C201.463 26.8068 201.019 27.6493 200.624 28.3542C199.85 29.7641 199.307 30.6066 199.192 30.5378" fill="#CAFBFF"/>
<path d="M186.768 30.9677C186.884 31.0192 186.917 31.3115 186.834 31.7586C186.726 32.3533 186.496 32.9165 186.16 33.4092C185.806 33.9397 185.289 34.3279 184.695 34.5096C184.513 34.564 184.322 34.5757 184.136 34.544C184.004 34.5096 183.922 34.458 183.922 34.3892C183.922 34.3205 184.136 34.1141 184.432 33.8734C184.801 33.573 185.128 33.2199 185.403 32.8246C185.732 32.3432 185.995 31.8445 186.225 31.5007C186.456 31.1568 186.653 30.9333 186.785 30.9848" fill="#CAFBFF"/>
<path d="M216.322 32.7903C216.289 32.8075 216.223 32.7387 216.125 32.6183C215.981 32.4243 215.854 32.2171 215.746 31.9993C215.366 31.191 215.105 30.3273 214.973 29.4374C214.787 28.1345 214.709 26.817 214.742 25.5C214.742 24.0385 214.775 22.4223 214.808 20.7373C214.874 17.3501 215.006 14.2896 215.137 12.0887C215.186 11.6287 215.158 11.1634 215.055 10.7132C214.972 10.3985 214.793 10.1207 214.545 9.9223C214.387 9.79062 214.201 9.70199 214.002 9.66439C213.854 9.64719 213.772 9.64719 213.755 9.6128C213.739 9.57841 213.821 9.50964 213.986 9.47525C214.244 9.42259 214.511 9.46513 214.742 9.59561C214.908 9.68351 215.058 9.79974 215.187 9.93949C215.341 10.109 215.464 10.3073 215.549 10.5241C215.733 11.0287 215.823 11.5659 215.812 12.1059C215.845 14.3239 215.845 17.3845 215.763 20.7717C215.73 22.4567 215.68 24.0729 215.631 25.5344C215.563 26.8119 215.574 28.0926 215.664 29.3687C215.732 30.2188 215.88 31.0598 216.108 31.879L216.306 32.5495C216.355 32.7043 216.355 32.8074 216.322 32.8246" fill="#CAFBFF"/>
<path d="M228.45 18.9835C228.318 19.0351 228.154 18.8804 227.973 18.674C227.766 18.4102 227.546 18.1577 227.314 17.9175C227.092 17.7147 226.843 17.5467 226.574 17.4189C226.36 17.3157 226.179 17.2469 226.13 17.1094C226.123 17.0661 226.129 17.0219 226.147 16.9821C226.164 16.9424 226.193 16.9089 226.228 16.8859C226.347 16.7895 226.49 16.73 226.64 16.7139C226.878 16.6875 227.119 16.7153 227.347 16.7954C227.574 16.8755 227.782 17.0061 227.956 17.1782C228.292 17.4941 228.517 17.9174 228.598 18.3817C228.647 18.7256 228.581 18.9491 228.466 18.9835" fill="#CAFBFF"/>
<path d="M227.66 14.1004C227.594 13.9629 227.841 13.7393 227.973 13.2923C228.057 13.0381 228.096 12.7701 228.088 12.5014C228.079 12.1886 228 11.8823 227.857 11.6073C227.545 11.0227 226.985 10.6444 226.541 10.4037C226.097 10.163 225.784 10.0427 225.784 9.9051C225.784 9.76755 226.146 9.63 226.738 9.73316C227.093 9.78994 227.434 9.91842 227.742 10.1114C228.14 10.3563 228.469 10.7061 228.697 11.1259C228.922 11.5622 229.014 12.0603 228.96 12.553C228.92 12.9465 228.778 13.3212 228.549 13.6362C228.398 13.8477 228.192 14.009 227.956 14.1004C227.792 14.152 227.676 14.1348 227.643 14.0832" fill="#CAFBFF"/>
<path d="M228.104 33.6499C228.071 33.5811 228.236 33.4607 228.351 33.2028C228.5 32.8109 228.5 32.374 228.351 31.9821C228.237 31.6816 228.105 31.3888 227.956 31.1052C227.874 30.9332 227.792 30.7613 227.726 30.555C227.65 30.3481 227.589 30.1354 227.545 29.9188C227.459 29.4759 227.398 29.0281 227.364 28.5777C227.314 28.1306 227.298 27.6492 227.265 27.1678C227.189 25.5184 227.272 23.8652 227.512 22.2331C227.709 20.9779 227.956 20.2386 228.071 20.2558C228.187 20.273 228.038 23.3679 228.219 27.1334C228.236 27.5976 228.269 28.0618 228.285 28.5089C228.302 28.9559 228.335 29.3858 228.4 29.7468C228.427 29.9271 228.465 30.1052 228.516 30.2799C228.565 30.4518 228.631 30.6237 228.68 30.7957C228.813 31.1295 228.917 31.4747 228.993 31.8273C229.141 32.5495 228.911 33.1684 228.631 33.4607C228.529 33.5763 228.398 33.6597 228.252 33.7015C228.154 33.7186 228.088 33.7186 228.088 33.6843" fill="#CAFBFF"/>
<path d="M240.429 19.6713C240.298 19.6541 240.215 19.4134 240.084 19.1383L239.969 18.9147L239.837 18.674C239.62 18.3184 239.341 18.0092 239.014 17.7627L238.784 17.608L238.57 17.4876C238.307 17.3329 238.093 17.2469 238.076 17.1094C238.06 16.9718 238.125 16.9718 238.224 16.903L238.422 16.8171C238.513 16.793 238.607 16.7814 238.701 16.7827L239.047 16.8171C239.177 16.8435 239.304 16.8838 239.425 16.9374C239.7 17.0636 239.947 17.2456 240.154 17.473C240.36 17.7003 240.521 17.9683 240.627 18.2614C240.672 18.3893 240.705 18.5219 240.725 18.6568C240.745 18.776 240.751 18.8973 240.742 19.0179C240.738 19.1172 240.721 19.2154 240.693 19.3102C240.677 19.3835 240.649 19.4534 240.61 19.5165C240.544 19.6197 240.479 19.6713 240.413 19.6541" fill="#CAFBFF"/>
<path d="M239.672 34.1485C239.656 34.0797 239.787 33.9938 239.936 33.7874C240.134 33.5078 240.249 33.1726 240.265 32.8246C240.277 32.5719 240.266 32.3185 240.232 32.068C240.199 31.7929 240.15 31.4491 240.1 31.1224C240.018 30.4346 239.952 29.6781 239.919 28.8872C239.886 28.0962 239.886 27.3397 239.919 26.6348C239.939 26.0095 240.016 25.3877 240.149 24.7778C240.239 24.3582 240.383 23.9532 240.577 23.5742C240.725 23.3163 240.841 23.196 240.906 23.2132C240.972 23.2304 240.874 23.8837 240.824 24.881C240.791 25.3796 240.791 25.9642 240.808 26.6348C240.824 27.3053 240.857 28.0447 240.89 28.8356L240.989 31.0364C241.005 31.3803 241.022 31.6898 241.022 32.0165C241.032 32.3283 241.004 32.6403 240.939 32.9449C240.895 33.1805 240.804 33.4042 240.674 33.6022C240.544 33.8003 240.377 33.9686 240.182 34.0969C239.886 34.2689 239.705 34.2173 239.689 34.1657" fill="#CAFBFF"/>
<path d="M251.652 34.5096C251.635 34.4752 251.701 34.4236 251.8 34.3377C251.942 34.2156 252.064 34.0705 252.162 33.9078C252.312 33.662 252.412 33.3871 252.458 33.0997C252.516 32.7104 252.5 32.3129 252.409 31.9305C252.326 31.4835 252.162 31.002 252.014 30.4518C251.85 29.8409 251.756 29.2118 251.734 28.5777C251.685 27.2366 251.899 25.8266 252.047 24.3995C252.122 23.7148 252.144 23.0248 252.113 22.3363C252.081 21.7161 251.971 21.1031 251.783 20.5137C251.475 19.5276 250.823 18.6989 249.957 18.1925C249.338 17.8443 248.688 17.562 248.015 17.35C247.521 17.1781 247.258 17.0749 247.275 17.0062C247.291 16.9374 247.571 16.9202 248.097 16.9718C248.848 17.0493 249.581 17.2525 250.27 17.5736C251.055 17.9451 251.718 18.5488 252.178 19.3101C252.348 19.5993 252.491 19.9044 252.606 20.2214C253.083 21.511 253.149 23.024 253.001 24.5199C252.853 26.0158 252.623 27.3569 252.623 28.5777C252.618 29.1496 252.674 29.7204 252.787 30.2799C252.902 30.8129 253.034 31.3459 253.083 31.8617C253.11 32.1071 253.116 32.3546 253.1 32.6011C253.087 32.8286 253.048 33.0537 252.985 33.2716C252.884 33.6211 252.703 33.9398 252.458 34.2001C252.304 34.3642 252.111 34.4828 251.899 34.544C251.751 34.5784 251.668 34.5612 251.668 34.544" fill="#CAFBFF"/>
<path d="M265.26 26.8755C265.244 26.9271 265.096 26.9787 264.898 26.8583C264.637 26.6946 264.425 26.4559 264.29 26.1706C264.191 25.9986 264.125 25.8267 264.026 25.6548L263.763 25.0702C263.582 24.6575 263.401 24.1761 263.22 23.6946C263.039 23.2132 262.874 22.7318 262.743 22.2676C262.615 21.8499 262.543 21.4161 262.529 20.978C262.52 20.671 262.577 20.3658 262.693 20.0839C262.776 19.8776 262.874 19.8088 262.94 19.826C263.006 19.8432 263.039 20.2903 263.203 20.892C263.303 21.2549 263.424 21.6109 263.566 21.9581C263.73 22.3707 263.928 22.835 264.092 23.3336C264.257 23.8322 264.438 24.3136 264.569 24.7435L264.75 25.3625L264.882 25.8955C264.933 26.1279 265.01 26.353 265.112 26.566C265.195 26.7208 265.26 26.8068 265.228 26.8755" fill="#CAFBFF"/>
<path d="M269.045 27.9072C269.029 27.8384 269.226 27.7009 269.588 27.5117C269.95 27.3226 270.51 27.0475 271.135 26.6864C271.854 26.2866 272.487 25.7365 272.995 25.0702C273.274 24.6973 273.481 24.2709 273.603 23.815C273.659 23.5603 273.698 23.3017 273.719 23.0413C273.746 22.7058 273.818 22.376 273.932 22.0612C274.062 21.7543 274.228 21.4655 274.426 21.2015L274.887 20.531C275.164 20.1089 275.411 19.6664 275.627 19.2071C275.996 18.4404 276.214 17.6044 276.269 16.7483C276.269 16.5764 276.286 16.3872 276.269 16.2325C276.262 16.0929 276.24 15.9545 276.203 15.8198C276.177 15.7094 276.133 15.6046 276.072 15.5103C276.024 15.4349 275.963 15.3705 275.891 15.3212C275.594 15.1321 275.381 15.2696 275.348 15.2009C275.315 15.1321 275.348 15.0977 275.463 15.0289C275.549 14.9756 275.644 14.9419 275.744 14.9301C275.843 14.9182 275.944 14.9285 276.039 14.9601C276.18 15.0026 276.31 15.0792 276.417 15.1837C276.542 15.3049 276.643 15.4511 276.713 15.6135C276.791 15.7887 276.846 15.9737 276.878 16.1637C276.91 16.3571 276.932 16.5523 276.944 16.7483C276.981 17.7239 276.801 18.6951 276.417 19.5853C276.206 20.1056 275.953 20.606 275.66 21.0812L275.183 21.8033C275.033 22.005 274.906 22.2243 274.805 22.4567C274.725 22.6897 274.676 22.9324 274.657 23.1789C274.63 23.4862 274.58 23.7908 274.508 24.0901C274.343 24.6718 274.063 25.2107 273.686 25.672C273.074 26.414 272.301 26.9918 271.431 27.357C270.874 27.6042 270.296 27.7942 269.703 27.9244C269.292 28.0104 269.045 28.0276 269.029 27.9588" fill="#CAFBFF"/>
<path d="M268.996 17.522C268.979 17.7971 268.436 17.9863 267.778 17.9347C267.12 17.8831 266.61 17.6252 266.626 17.3501C266.643 17.075 267.186 16.8859 267.844 16.9374C268.502 16.989 269.012 17.2469 268.996 17.522Z" fill="#CAFBFF"/>
<path d="M262.94 31.9133C262.957 32.0509 262.759 32.2056 262.381 32.3088C262.161 32.3712 261.934 32.4001 261.706 32.3947C261.398 32.3891 261.094 32.3128 260.817 32.1712C260.54 32.033 260.308 31.8126 260.15 31.5373C259.992 31.2621 259.915 30.9444 259.929 30.6238C259.936 30.425 260.012 30.2357 260.143 30.0908C260.241 30.0048 260.324 29.9876 260.39 30.022C260.444 30.0768 260.479 30.1497 260.488 30.2283C260.516 30.3409 260.555 30.4503 260.603 30.555C260.668 30.6926 260.751 30.8199 260.85 30.9333C260.962 31.0665 261.096 31.1772 261.245 31.2599C261.604 31.416 261.98 31.5258 262.364 31.5866C262.693 31.6554 262.94 31.7586 262.94 31.8961" fill="#CAFBFF"/>
<path d="M271.102 40.2696C271.069 40.2008 271.25 40.0633 271.563 39.8569C271.876 39.6506 272.353 39.3583 272.879 38.9801C273.506 38.5434 274.081 38.0296 274.591 37.4498C275.194 36.7642 275.634 35.9394 275.874 35.0426C275.987 34.5942 276.026 34.1291 275.989 33.6671C275.954 33.2388 275.848 32.82 275.677 32.4292C275.397 31.7602 274.91 31.2091 274.294 30.8645C273.852 30.6397 273.371 30.511 272.879 30.4862C272.517 30.4519 272.303 30.4519 272.287 30.3831C272.27 30.3143 272.451 30.1939 272.846 30.0908C273.084 30.0369 273.327 30.0138 273.57 30.022C273.902 30.0288 274.23 30.0927 274.541 30.2111C275.373 30.5482 276.054 31.1983 276.45 32.0337C276.694 32.5151 276.851 33.0399 276.911 33.5812C276.968 34.1579 276.923 34.7406 276.779 35.3005C276.501 36.3562 275.962 37.3169 275.216 38.086C274.626 38.6909 273.948 39.1956 273.208 39.5818C272.724 39.8388 272.217 40.0461 271.695 40.2008C271.316 40.304 271.102 40.3212 271.086 40.2696" fill="#CAFBFF"/>
<path d="M267.285 39.7881C267.301 39.9257 266.84 40.1148 266.067 40.304C265.036 40.5424 263.976 40.6178 262.924 40.5275C261.673 40.4071 260.554 39.9601 259.88 39.4615C259.205 38.9628 258.925 38.4642 259.007 38.3782C259.09 38.2923 259.518 38.5502 260.209 38.8425C261.103 39.2174 262.046 39.4493 263.006 39.5302C264.142 39.6334 265.195 39.5818 265.985 39.599C266.774 39.6162 267.268 39.6506 267.285 39.7881Z" fill="#CAFBFF"/>
<path d="M293.662 33.7703C293.613 33.7187 293.778 33.478 294.074 33.0653C294.476 32.4922 294.818 31.8754 295.094 31.2256C295.274 30.791 295.401 30.3347 295.472 29.8672C295.552 29.3472 295.535 28.816 295.423 28.3026C295.296 27.7398 295.055 27.2121 294.715 26.7551C294.337 26.2518 293.887 25.8112 293.383 25.4484C292.329 24.6747 291.145 24.2104 290.042 23.7806C288.94 23.3507 287.936 22.9209 287.146 22.4051L286.587 22.0268C286.414 21.8938 286.259 21.7377 286.126 21.5626C285.999 21.3963 285.909 21.2024 285.862 20.9952C285.823 20.8191 285.829 20.6352 285.879 20.4621C285.908 20.3434 285.964 20.2334 286.041 20.1409C286.118 20.0484 286.215 19.9759 286.323 19.9291C286.471 19.8776 286.554 19.9119 286.554 19.9463C286.554 19.9807 286.488 20.0151 286.422 20.1011C286.336 20.2024 286.278 20.3266 286.255 20.4601C286.231 20.5935 286.244 20.731 286.29 20.8576C286.345 20.9816 286.424 21.0927 286.521 21.1843C286.805 21.4257 287.12 21.6227 287.459 21.7689C288.396 22.2018 289.358 22.575 290.338 22.8865C290.898 23.0756 291.49 23.2992 292.099 23.5743C292.742 23.8541 293.355 24.2058 293.926 24.6231C294.511 25.044 295.028 25.5607 295.456 26.1533C295.662 26.4491 295.838 26.766 295.983 27.099C296.118 27.4181 296.218 27.7529 296.279 28.0963C296.392 28.7282 296.381 29.3776 296.246 30.0048C296.128 30.5341 295.94 31.0435 295.686 31.5179C295.336 32.1892 294.88 32.7938 294.337 33.306C293.942 33.6671 293.695 33.8046 293.662 33.7531" fill="#CAFBFF"/>
<path d="M295.917 21.9236C295.867 21.872 295.917 21.7517 295.933 21.5797C295.945 21.3256 295.923 21.0709 295.867 20.8232C295.752 20.1354 295.538 19.1898 294.995 18.3645C294.538 17.669 293.843 17.183 293.053 17.0061C292.445 16.8686 292.017 16.9718 291.951 16.8342C291.885 16.6967 292 16.6623 292.198 16.5419C292.476 16.3853 292.787 16.3026 293.103 16.3012C293.577 16.293 294.045 16.4051 294.469 16.6279C294.724 16.7554 294.961 16.9173 295.176 17.1093C295.401 17.3176 295.6 17.5544 295.769 17.8143C296.087 18.3029 296.311 18.852 296.427 19.4305C296.521 19.8877 296.554 20.3564 296.525 20.8232C296.527 21.1663 296.43 21.5019 296.246 21.7861C296.081 21.9924 295.933 22.0096 295.9 21.958" fill="#CAFBFF"/>
<path d="M289.565 17.797C289.483 17.9174 289.236 17.883 288.907 17.797L287.623 17.4188L286.34 17.0749C285.994 16.9717 285.764 16.8686 285.764 16.731C285.764 16.5935 285.978 16.4387 286.356 16.37C286.862 16.2863 287.38 16.3135 287.875 16.4496C288.371 16.5858 288.834 16.828 289.236 17.1609C289.532 17.436 289.647 17.6767 289.581 17.7799" fill="#CAFBFF"/>
<path d="M287.854 32.6355C287.87 32.7731 287.36 32.9794 286.488 33.0482C285.976 33.0767 285.463 33.0479 284.957 32.9622C284.33 32.8618 283.717 32.6829 283.131 32.4292C282.563 32.1701 282.018 31.8594 281.502 31.5007L280.284 30.6926C279.593 30.2456 279.116 30.0564 279.149 29.9189C279.182 29.7813 279.297 29.8157 279.56 29.8157C279.909 29.8377 280.253 29.913 280.58 30.0392C281.05 30.223 281.506 30.4414 281.946 30.6926C282.44 30.9505 282.95 31.26 283.509 31.4835C284.475 31.8912 285.487 32.1686 286.521 32.3088C287.327 32.4292 287.854 32.4636 287.87 32.6011" fill="#CAFBFF"/>
</g>
</g>
<defs>
<clipPath id="clip0_53525_46494">
<rect width="305" height="50" fill="white" transform="translate(0 0.5)"/>
</clipPath>
<clipPath id="clip1_53525_46494">
<rect width="305" height="50" fill="white" transform="translate(0 0.5)"/>
</clipPath>
</defs>
</svg>
