<svg width="30" height="30" viewBox="0 0 30 30" fill="none" xmlns="http://www.w3.org/2000/svg">
<circle cx="15" cy="15" r="15" fill="white"/>
<path d="M5.74586 18.5507C5.74563 17.0045 6.95259 15.7582 8.47968 15.7277C10.0591 15.6964 11.3002 16.8845 11.3698 18.5296C11.3919 19.0502 11.4655 19.5239 11.9128 19.8518C12.5339 20.3067 13.6237 20.0382 14.1395 19.3106C14.5938 18.6697 14.451 17.8854 13.7034 17.4378C12.6105 16.7837 12.1177 15.8526 12.0888 14.5963C12.0661 13.605 11.1754 13.0776 10.2551 13.4548C9.93757 13.5849 9.6387 13.7696 9.31282 13.8689C7.82378 14.3228 6.20267 13.404 5.80782 11.9011C5.39492 10.3294 6.36946 8.729 7.94505 8.39105C9.51192 8.05506 11.0402 9.08775 11.3029 10.6661C11.3436 10.9106 11.3586 11.16 11.3764 11.4078C11.4472 12.3923 12.3345 12.995 13.2118 12.541C14.3848 11.934 15.4607 11.9018 16.6399 12.5416C17.5872 13.0557 18.4867 12.3788 18.5232 11.2348C18.5657 9.89745 19.254 8.90085 20.4134 8.49772C21.5783 8.09264 22.9248 8.51186 23.6401 9.50237C24.3676 10.5097 24.3314 11.9356 23.5532 12.9277C22.7975 13.8911 21.4541 14.2407 20.2902 13.7768C18.3656 13.0099 17.9664 13.2539 17.7182 15.2891C17.6127 16.1551 17.1483 16.8218 16.4017 17.2739C15.8227 17.6244 15.3984 18.054 15.5245 18.7976C15.6238 19.3836 16.2997 19.9615 17.0013 20.0819C17.85 20.2274 18.4907 19.6258 18.5239 18.6517C18.5741 17.1809 19.4017 16.1216 20.739 15.8166C21.9382 15.5431 23.1631 16.072 23.7905 17.1343C24.4106 18.1842 24.2661 19.5999 23.4469 20.5003C22.6217 21.4071 21.2436 21.673 20.1323 21.1381C19.9603 21.0554 19.7961 20.9546 19.6202 20.8816C18.7874 20.5357 18.0161 20.9293 17.8129 21.8035C17.7742 21.9703 17.7497 22.1427 17.7403 22.3137C17.6495 23.9632 16.4879 25.1147 14.9254 25.0986C13.333 25.0823 12.167 23.8962 12.102 22.2319C12.0947 22.0417 12.095 21.8438 12.0415 21.6645C11.7911 20.8255 10.928 20.4958 10.0901 20.9569C9.36559 21.3556 8.61704 21.4987 7.8247 21.297C6.54096 20.9704 5.74609 19.8984 5.74586 18.5507Z" fill="#F7931A"/>
<path d="M12.1519 7.44684C12.1578 5.88078 13.3858 4.64842 14.9468 4.64175C16.5304 4.63508 17.7766 5.88745 17.7704 7.47937C17.7643 9.02818 16.5171 10.2831 14.9707 10.2965C13.4111 10.31 12.1459 9.03094 12.152 7.44684H12.1519Z" fill="#F7931A"/>
</svg>
