<svg width="66" height="67" viewBox="0 0 66 67" fill="none" xmlns="http://www.w3.org/2000/svg">
<g clip-path="url(#clip0_53418_84165)">
<path d="M33 66.5C51.2254 66.5 66 51.7254 66 33.5C66 15.2746 51.2254 0.5 33 0.5C14.7746 0.5 0 15.2746 0 33.5C0 51.7254 14.7746 66.5 33 66.5Z" fill="#1B9DF0"/>
<path d="M26.961 50.9076C41.5965 50.9076 49.599 38.7801 49.599 28.2696C49.599 27.9231 49.599 27.5766 49.5825 27.2466C51.1335 26.1246 52.4865 24.7221 53.559 23.1216C52.14 23.7486 50.6055 24.1776 48.9885 24.3756C50.6385 23.3856 51.8925 21.8346 52.4865 19.9701C50.952 20.8776 49.2525 21.5376 47.4375 21.9006C45.9855 20.3496 43.923 19.3926 41.6295 19.3926C37.2405 19.3926 33.6765 22.9566 33.6765 27.3456C33.6765 27.9726 33.7425 28.5831 33.891 29.1606C27.2745 28.8306 21.417 25.6626 17.49 20.8446C16.8135 22.0161 16.4175 23.3856 16.4175 24.8376C16.4175 27.5931 17.82 30.0351 19.965 31.4541C18.6615 31.4211 17.4405 31.0581 16.368 30.4641C16.368 30.4971 16.368 30.5301 16.368 30.5631C16.368 34.4241 19.107 37.6251 22.7535 38.3676C22.0935 38.5491 21.384 38.6481 20.658 38.6481C20.1465 38.6481 19.6515 38.5986 19.1565 38.4996C20.163 41.6676 23.1 43.9611 26.5815 44.0271C23.859 46.1556 20.427 47.4261 16.698 47.4261C16.0545 47.4261 15.4275 47.3931 14.8005 47.3106C18.282 49.5876 22.473 50.9076 26.961 50.9076Z" fill="white"/>
</g>
<defs>
<clipPath id="clip0_53418_84165">
<rect width="66" height="66" fill="white" transform="translate(0 0.5)"/>
</clipPath>
</defs>
</svg>
