<svg width="388" height="77" viewBox="0 0 388 77" fill="none" xmlns="http://www.w3.org/2000/svg">
	<path d="M343.21 6.73985L343.222 6.73976C368.41 6.53933 378.589 13.7904 382.733 22.4625C384.854 26.9007 385.496 31.8964 385.558 36.8889C385.589 39.3799 385.476 41.8438 385.34 44.2181C385.309 44.7558 385.277 45.2908 385.246 45.821C385.138 47.6129 385.034 49.3508 384.994 50.9575C384.993 51.0011 384.994 51.0447 384.997 51.0883C385.208 54.455 384.012 57.2093 381.599 59.5436C379.135 61.9266 375.379 63.8843 370.514 65.4499C360.785 68.5804 347.147 69.9821 332.147 70.5001C317.176 71.0172 300.992 70.6517 286.218 70.3067L285.521 70.2904C271.061 69.9526 257.95 69.6462 248.839 70.2495C248.64 70.2626 248.446 70.3152 248.268 70.4042C245.995 71.539 243.307 72.0137 240.736 71.9548C238.153 71.8956 235.82 71.3014 234.258 70.4345C234.082 70.337 233.888 70.2758 233.689 70.2546C230.923 69.9607 229.072 70.6543 227.532 71.6104C227.016 71.9302 226.508 72.2991 226.053 72.629C225.887 72.7494 225.728 72.8646 225.579 72.9703C224.983 73.3924 224.429 73.7463 223.811 74.0137C223.761 74.0356 223.711 74.0603 223.664 74.0876C223.065 74.4291 222.174 74.642 221.105 74.6756C220.053 74.7087 218.948 74.564 218.008 74.3003C217.24 74.0852 216.699 73.8239 216.383 73.6032C216.62 73.3354 216.882 72.8799 216.754 72.2455C216.669 71.8263 216.438 71.5499 216.282 71.4027C216.125 71.2544 215.967 71.1625 215.863 71.1095C215.656 71.0038 215.444 70.9403 215.287 70.8999C214.674 70.7415 213.658 70.6314 212.428 70.5421C209.891 70.358 205.912 70.2314 200.985 70.1468C191.116 69.9772 177.316 69.9741 163.327 70.0311C152.965 70.0733 142.491 70.1484 133.425 70.2135C130.249 70.2363 127.246 70.2578 124.48 70.2763C119.149 70.3119 114.704 70.3359 111.61 70.3353C110.061 70.335 108.859 70.3286 108.055 70.3145C107.649 70.3074 107.363 70.2986 107.189 70.289C107.184 70.2887 107.179 70.2884 107.174 70.2881C106.682 70.1693 106.143 70.3032 105.761 70.6848C105.733 70.7162 105.702 70.7593 105.669 70.8106L105.656 70.8003C104.808 71.845 103.229 72.8443 101.15 73.6134C99.1016 74.3707 96.7197 74.8479 94.4343 74.9549C92.1309 75.0627 90.0446 74.7892 88.53 74.1506C87.0433 73.5237 86.2773 72.6373 86.1033 71.5162C85.9882 70.7739 85.3417 70.2312 84.5906 70.2465C84.2066 70.2543 83.8198 70.2622 83.4305 70.2701C68.6301 70.5723 50.0773 70.9511 34.4345 69.055C26.4036 68.0816 19.247 66.5195 13.7995 64.0978C8.33938 61.6706 4.83984 58.4947 3.64894 54.4204C3.51258 53.9538 3.15862 53.5823 2.69924 53.4235C2.1488 53.2332 1.81151 53.0357 1.62737 52.8838C1.60369 52.8643 1.58376 52.8466 1.56705 52.8308C1.66629 52.7089 1.8731 52.5159 2.26192 52.2864C2.43661 52.1833 2.58857 52.0459 2.70863 51.8824C3.09869 51.3512 3.20586 50.7074 3.24699 50.258C3.29279 49.7574 3.27775 49.1995 3.23811 48.6461C3.17091 47.7081 3.01798 46.6088 2.87137 45.555C2.84576 45.3709 2.82035 45.1882 2.79561 45.008C2.62286 43.7493 2.48197 42.6035 2.47209 41.7109C2.46713 41.2633 2.49715 40.9575 2.54059 40.771C2.54458 40.7538 2.54839 40.739 2.5519 40.7262C2.96142 40.3234 3.10908 39.7147 2.91534 39.1614C0.566215 32.4522 1.7873 24.376 8.10465 17.9723C14.4478 11.5425 26.1021 6.64103 44.869 6.84094C44.9076 6.84135 44.9461 6.84027 44.9846 6.83771C44.9812 6.83793 44.9934 6.83714 45.0303 6.83602C45.064 6.835 45.1089 6.83398 45.166 6.83302C45.2803 6.8311 45.4325 6.8296 45.6221 6.82852C46.0008 6.82635 46.5151 6.8259 47.1477 6.82659C48.0542 6.82758 49.1959 6.8309 50.5162 6.83474C51.038 6.83626 51.5878 6.83786 52.1619 6.83943C56.2125 6.85051 61.467 6.86002 66.6502 6.82834C71.829 6.79669 76.954 6.72385 80.74 6.56931C82.6258 6.49233 84.2157 6.39376 85.3225 6.26492C85.859 6.20247 86.3633 6.12429 86.7464 6.01353C86.906 5.96738 87.2221 5.86852 87.5065 5.65443C87.5459 5.62474 87.5942 5.58581 87.6467 5.53685C89.0462 5.00535 90.836 4.86832 92.5787 5.06051C94.5157 5.27411 96.0654 5.85587 96.7612 6.41174C97.1452 6.71848 97.6551 6.81768 98.126 6.67729C104.777 4.6947 112.223 3.50403 120.673 3.70257L120.674 3.7026C122.776 3.7503 124.384 4.08384 125.5 4.54037C126.649 5.01021 127.106 5.5336 127.241 5.84173C127.406 6.21808 127.718 6.51032 128.104 6.6502C128.49 6.79008 128.917 6.76536 129.285 6.58182C131.375 5.53808 134.313 4.88933 137.205 4.84159C140.133 4.79326 142.721 5.36415 144.27 6.46314C144.523 6.64312 144.827 6.7398 145.138 6.7398C145.165 6.7398 145.275 6.74138 145.451 6.7439C146.27 6.75566 148.522 6.78798 150.593 6.77774C151.878 6.77139 153.171 6.74918 154.145 6.69476C154.623 6.66806 155.073 6.6312 155.419 6.5753C155.576 6.54997 155.805 6.50679 156.024 6.42196C156.089 6.39716 156.209 6.34797 156.346 6.26082C160.574 4.88251 164.545 5.45063 168.988 6.08634C169.69 6.18674 170.403 6.28882 171.132 6.38519C176.483 7.09347 182.316 7.39239 188.9 3.54223C191.553 2.40041 195.13 2.1549 198.176 2.68144C199.705 2.94566 201.008 3.38936 201.942 3.93777C202.898 4.49873 203.284 5.05425 203.382 5.4763C203.476 5.8838 203.736 6.23348 204.099 6.44096C204.462 6.64845 204.895 6.69491 205.294 6.56912C208.912 5.4282 213.101 5.27665 216.444 6.63018C216.623 6.70258 216.814 6.7398 217.007 6.7398H233.226C233.598 6.7398 233.957 6.60134 234.233 6.35134C236.611 4.19662 241.332 2.65712 245.89 2.48721C248.137 2.40341 250.211 2.66071 251.82 3.25801C253.428 3.8553 254.419 4.72748 254.843 5.79373C255.096 6.43292 255.753 6.81746 256.434 6.72668C256.43 6.72732 256.439 6.72698 256.467 6.72603C256.536 6.72359 256.719 6.71718 257.066 6.71274C257.494 6.70728 258.084 6.70481 258.815 6.70461C260.277 6.70422 262.284 6.71289 264.654 6.72397L265.507 6.72798C270.119 6.74969 275.924 6.77703 281.67 6.76511C287.774 6.75245 293.829 6.69552 298.326 6.53961C300.568 6.46188 302.457 6.35853 303.778 6.21951C304.425 6.15144 305.006 6.06812 305.441 5.95575C305.635 5.90556 305.936 5.81667 306.212 5.64503C306.255 5.61815 306.31 5.5816 306.371 5.53388C310.717 4.30907 315.042 5.08592 317.516 6.53431C317.746 6.66887 318.007 6.7398 318.273 6.7398L343.21 6.73985ZM216.11 73.3603C216.11 73.3599 216.111 73.361 216.113 73.3637C216.111 73.3617 216.11 73.3605 216.11 73.3603ZM154.108 5.23068C154.105 5.21867 154.103 5.20673 154.101 5.19484C154.103 5.20679 154.105 5.21873 154.108 5.23068ZM214.512 71.3323C214.512 71.3323 214.509 71.3339 214.501 71.3369C214.508 71.3337 214.512 71.3322 214.512 71.3323ZM1.48676 52.7382C1.48683 52.7382 1.48752 52.7393 1.48863 52.7417C1.48725 52.7394 1.48669 52.7382 1.48676 52.7382ZM2.57403 40.6609C2.57416 40.6612 2.5727 40.6649 2.56929 40.6716C2.5722 40.6641 2.57391 40.6607 2.57403 40.6609Z" stroke="#4E4B9A" stroke-width="3" stroke-miterlimit="10" stroke-linecap="round" stroke-linejoin="round" />
</svg>
