<svg width="292" height="50" viewBox="0 0 292 50" fill="none" xmlns="http://www.w3.org/2000/svg">
	<path d="M258.798 3.99309L258.805 3.99305C277.869 3.86141 285.597 8.63999 288.722 14.314C290.309 17.1968 290.79 20.4399 290.837 23.6896C290.86 25.3123 290.775 26.9185 290.673 28.4701C290.65 28.8202 290.626 29.1689 290.602 29.5148C290.521 30.6874 290.442 31.8282 290.412 32.8824C290.411 32.9158 290.412 32.9494 290.415 32.9828C290.569 35.119 289.702 36.8988 287.866 38.4399C285.992 40.0129 283.136 41.3036 279.449 42.3333C272.084 44.3897 261.779 45.3068 250.472 45.6457C239.183 45.984 226.98 45.7448 215.849 45.5192L215.336 45.5088C204.432 45.2878 194.562 45.0876 187.709 45.4814C187.591 45.4881 187.476 45.5155 187.368 45.5622C185.619 46.3201 183.553 46.6361 181.58 46.5969C179.6 46.5575 177.802 46.1624 176.59 45.5787C176.483 45.527 176.367 45.4949 176.248 45.484C174.234 45.2983 172.893 45.733 171.758 46.3439C171.375 46.5502 170.999 46.7868 170.658 47.0018C170.532 47.0813 170.41 47.1578 170.295 47.2286C169.844 47.5057 169.415 47.7445 168.931 47.9264C168.918 47.9313 168.905 47.9364 168.892 47.9418C168.874 47.9495 168.856 47.9577 168.838 47.9664C168.349 48.2088 167.636 48.3532 166.803 48.3759C165.982 48.3983 165.123 48.3006 164.392 48.1226C163.839 47.9882 163.428 47.8247 163.166 47.6773C163.182 47.6575 163.199 47.6365 163.214 47.6142C163.349 47.4253 163.464 47.1248 163.382 46.7736C163.309 46.464 163.12 46.2782 163.018 46.1948C162.909 46.1057 162.802 46.0524 162.735 46.0226C162.599 45.9622 162.457 45.925 162.347 45.9003C161.909 45.8023 161.167 45.7312 160.238 45.6727C158.334 45.5527 155.342 45.47 151.63 45.4147C144.197 45.3039 133.801 45.3019 123.26 45.3391C115.453 45.3667 107.561 45.4158 100.729 45.4584C98.3366 45.4733 96.0741 45.4873 93.9908 45.4994C89.9735 45.5227 86.624 45.5384 84.2913 45.538C83.124 45.5379 82.2163 45.5336 81.6082 45.5244C81.3021 45.5197 81.0822 45.514 80.946 45.5074C80.9317 45.5067 80.9193 45.5061 80.9085 45.5055C80.607 45.4359 80.2782 45.5071 80.0279 45.724C80.0084 45.7436 79.9857 45.7711 79.9614 45.8043L79.9528 45.7963C79.3026 46.4909 78.089 47.1573 76.4963 47.6684C74.9304 48.1709 73.1104 48.4874 71.3622 48.5584C69.6024 48.6299 67.9893 48.4497 66.8057 48.0166C65.6117 47.5796 65.0604 46.9757 64.9403 46.3038C64.8539 45.8204 64.4292 45.4712 63.9383 45.4799C63.6464 45.485 63.3525 45.4902 63.0566 45.4955C51.91 45.693 37.9149 45.941 26.1098 44.6992C20.0471 44.0615 14.6276 43.0367 10.4938 41.442C6.32711 39.8345 3.69391 37.7382 2.80761 35.1069C2.70408 34.7995 2.45791 34.5614 2.14725 34.4682C1.73271 34.3439 1.46343 34.2124 1.30536 34.1043C1.39921 34.0242 1.54989 33.9193 1.78107 33.8009C1.89871 33.7407 2.00325 33.6577 2.08863 33.5568C2.39101 33.1995 2.47809 32.7554 2.51085 32.4447C2.54677 32.1041 2.53466 31.7287 2.50447 31.3631C2.45334 30.7436 2.33704 30.0183 2.22663 29.3297C2.20738 29.2096 2.1883 29.0906 2.16978 28.9735C2.03937 28.1489 1.93507 27.4099 1.92778 26.8386C1.92413 26.5525 1.94655 26.3675 1.97469 26.2626C1.97524 26.2606 1.97578 26.2586 1.97631 26.2567C2.29834 25.9809 2.4149 25.5256 2.25263 25.1234C0.510621 20.8059 1.38933 15.5753 6.15794 11.3806C10.969 7.14847 19.8116 3.928 34.0062 4.05921C34.0285 4.05942 34.0508 4.05888 34.0731 4.05759C34.0729 4.0576 34.0738 4.05755 34.076 4.05745L34.085 4.05708L34.117 4.05609C34.1439 4.05538 34.179 4.05469 34.2228 4.05406C34.3103 4.05278 34.426 4.05179 34.5693 4.05108C34.8556 4.04966 35.2439 4.04936 35.7206 4.04982C36.404 4.05046 37.2646 4.05264 38.2596 4.05515C38.6527 4.05615 39.0668 4.05719 39.4992 4.05822C42.5511 4.06546 46.5093 4.07167 50.4135 4.05097C54.3152 4.03027 58.173 3.98266 61.0209 3.88178C62.4406 3.83148 63.6305 3.76729 64.4543 3.68407C64.856 3.64349 65.2186 3.59398 65.4867 3.52671C65.5982 3.49874 65.8075 3.44167 65.9971 3.31778C66.0259 3.29896 66.0668 3.27069 66.1129 3.2316C67.2178 2.85956 68.6257 2.76674 69.9805 2.89639C71.4684 3.03878 72.6813 3.42822 73.239 3.81489C73.4781 3.98065 73.7775 4.03406 74.0592 3.9612C79.0929 2.65906 84.7302 1.87675 91.1264 2.00717L91.1271 2.00718C92.7344 2.03884 93.9774 2.26036 94.8508 2.57032C95.7615 2.89352 96.1163 3.25507 96.2116 3.44374C96.4502 3.91644 97.016 4.12116 97.5019 3.91064C99.1105 3.21361 101.361 2.78359 103.573 2.75191C105.809 2.71987 107.817 3.09777 109.03 3.84459C109.187 3.94167 109.369 3.99307 109.554 3.99307C109.579 3.99307 109.672 3.99422 109.818 3.99603C110.456 4.00394 112.115 4.02452 113.664 4.01788C114.631 4.01373 115.599 3.99922 116.326 3.96397C116.684 3.94661 117.012 3.923 117.259 3.88837C117.373 3.87248 117.525 3.84704 117.668 3.7993C117.71 3.78508 117.796 3.75485 117.895 3.69791C121.151 2.77034 124.214 3.15136 127.568 3.56858C128.096 3.63419 128.631 3.7007 129.174 3.76315C133.185 4.22381 137.516 4.41509 142.42 1.92321C144.47 1.15437 147.223 0.991921 149.562 1.34269C150.735 1.5187 151.745 1.81553 152.474 2.18692C153.235 2.57512 153.512 2.94895 153.575 3.18421C153.643 3.44164 153.812 3.66108 154.043 3.79385C154.274 3.92661 154.548 3.96173 154.805 3.89141C157.57 3.13483 160.791 3.02862 163.375 3.93654C163.482 3.97396 163.594 3.99307 163.707 3.99307H175.927C176.151 3.99307 176.369 3.91773 176.545 3.77914C178.371 2.34385 181.982 1.32506 185.459 1.21258C187.176 1.15702 188.774 1.32693 190.024 1.72957C191.291 2.13812 192.046 2.73179 192.356 3.40941C192.536 3.80323 192.95 4.03618 193.38 3.98646C193.375 3.98709 193.375 3.98706 193.384 3.98661C193.398 3.98588 193.435 3.98405 193.502 3.98213C193.596 3.97945 193.725 3.97719 193.887 3.97539C194.211 3.9718 194.657 3.97019 195.208 3.97006C196.311 3.9698 197.824 3.97548 199.609 3.98272L200.252 3.98534C203.726 3.99954 208.099 4.01741 212.429 4.00962C217.027 4.00134 221.586 3.96411 224.97 3.86231C226.658 3.81152 228.073 3.74414 229.06 3.6541C229.545 3.60983 229.967 3.55667 230.276 3.48738C230.414 3.45629 230.616 3.4041 230.798 3.30528C230.831 3.28782 230.878 3.26101 230.931 3.22265C234.284 2.39184 237.634 2.908 239.556 3.88462C239.696 3.95591 239.852 3.99307 240.009 3.99307L258.798 3.99309ZM162.883 47.4692C162.883 47.4691 162.884 47.4705 162.886 47.4734C162.884 47.4707 162.883 47.4693 162.883 47.4692ZM116.434 2.957C116.434 2.957 116.434 2.957 116.434 2.95701C116.438 2.97749 116.442 2.99828 116.447 3.01937C116.442 2.99858 116.438 2.97778 116.434 2.957ZM1.17 33.9885C1.17003 33.9885 1.17054 33.9892 1.17138 33.9905C1.17039 33.9892 1.16996 33.9885 1.17 33.9885ZM1.99151 26.2122C1.99155 26.2123 1.99088 26.214 1.98935 26.2169C1.9907 26.2136 1.99146 26.2122 1.99151 26.2122Z" stroke="#4E4B9A" stroke-width="2" stroke-miterlimit="10" stroke-linecap="round" stroke-linejoin="round" />
</svg>
