<svg width="240" height="50" viewBox="0 0 240 50" fill="none" xmlns="http://www.w3.org/2000/svg">
	<path d="M212.698 3.99303L212.69 3.99311L197.251 3.99307C197.065 3.99307 196.883 3.94133 196.725 3.84364C195.22 2.9135 192.586 2.41056 189.933 3.19434C189.899 3.22195 189.867 3.24394 189.841 3.26093C189.659 3.38091 189.46 3.44246 189.336 3.47631C189.059 3.55222 188.691 3.60748 188.29 3.65213C187.467 3.74354 186.294 3.81124 184.905 3.86209C182.118 3.96411 178.368 4.00134 174.589 4.00962C171.03 4.01741 167.436 3.99953 164.581 3.98534L164.053 3.98272C162.585 3.97547 161.343 3.9698 160.438 3.97006C159.985 3.97019 159.621 3.9718 159.357 3.97537C159.167 3.97793 159.059 3.98151 159.011 3.98313C158.982 3.9841 158.973 3.98437 158.981 3.98333C158.517 4.04851 158.07 3.78338 157.906 3.34523C157.643 2.64723 157.037 2.08987 156.065 1.70874C155.087 1.32521 153.82 1.15798 152.44 1.21233C149.64 1.3226 146.742 2.32216 145.286 3.71554C145.1 3.89365 144.853 3.99307 144.595 3.99307H134.553C134.418 3.99307 134.284 3.96568 134.16 3.91255C132.121 3.04087 129.559 3.13581 127.338 3.87564C127.069 3.96527 126.774 3.9364 126.528 3.79621C126.281 3.65603 126.106 3.41772 126.045 3.14063C125.983 2.85788 125.744 2.50239 125.169 2.14578C124.603 1.79456 123.809 1.50834 122.873 1.3375C121.008 0.997025 118.821 1.15637 117.203 1.89015C113.1 4.42243 109.458 4.22466 106.134 3.76005C105.68 3.69671 105.237 3.62982 104.802 3.56415C102.054 3.14935 99.63 2.78341 97.0451 3.66965C96.9584 3.7267 96.8821 3.7598 96.84 3.77703C96.6932 3.83699 96.5414 3.86685 96.4419 3.88382C96.2209 3.9215 95.9371 3.94589 95.6401 3.96341C95.0335 3.99919 94.2309 4.01372 93.4349 4.01788C92.1461 4.02461 90.7319 4.00311 90.2364 3.99558C90.1345 3.99403 90.0714 3.99307 90.0564 3.99307C89.8401 3.99307 89.6297 3.92298 89.4567 3.79332C88.5195 3.09102 86.9448 2.72052 85.1471 2.75186C83.3721 2.7828 81.5712 3.20354 80.2929 3.87762C80.0441 4.00879 79.7517 4.02916 79.4872 3.93376C79.2226 3.83835 79.0105 3.63598 78.9028 3.37624C78.8198 3.17622 78.5452 2.84484 77.8531 2.54594C77.1773 2.25406 76.1971 2.03801 74.9072 2.00709L74.9063 2.00707C69.6892 1.87761 65.092 2.65392 60.9849 3.94692C60.6581 4.04978 60.3015 3.97825 60.0397 3.75737C59.6249 3.4074 58.6869 3.03228 57.5015 2.89422C56.4426 2.7709 55.3627 2.85858 54.52 3.19228C54.4902 3.22087 54.4625 3.24446 54.4387 3.26335C54.2509 3.4127 54.0415 3.48171 53.9385 3.51318C53.6914 3.58861 53.3708 3.64067 53.0375 3.68166C52.3473 3.76651 51.359 3.83112 50.1908 3.88148C47.8444 3.98263 44.6695 4.03026 41.4629 4.05096C38.2532 4.07168 34.9995 4.06546 32.4916 4.05822C32.136 4.05719 31.7956 4.05614 31.4725 4.05515C30.6551 4.05264 29.9485 4.05046 29.3873 4.04982C28.9957 4.04936 28.6776 4.04966 28.4436 4.05107C28.3264 4.05178 28.2328 4.05276 28.1627 4.054C28.0894 4.05531 28.0598 4.05665 28.0569 4.05678L28.0567 4.05679C28.0296 4.0587 28.0024 4.0595 27.9753 4.05919C16.3824 3.92878 9.19591 7.1247 5.28419 11.3123C1.37998 15.4919 0.615004 20.7811 2.07434 25.1829C2.19174 25.537 2.10147 25.9227 1.84924 26.1873C1.84689 26.1963 1.84435 26.2067 1.84169 26.2188C1.81408 26.344 1.79546 26.5469 1.79854 26.8409C1.80468 27.4269 1.89221 28.1782 1.99913 29.0009C2.01446 29.1189 2.03021 29.2384 2.04607 29.3588C2.13685 30.048 2.23136 30.7655 2.27289 31.3777C2.29738 31.7388 2.30657 32.1014 2.27843 32.4261C2.25334 32.7158 2.18827 33.1335 1.94617 33.4817C1.86866 33.5932 1.76927 33.6877 1.65404 33.7595C1.41011 33.9115 1.28683 34.0373 1.23139 34.1125C1.24175 34.123 1.25451 34.1351 1.27015 34.1488C1.37636 34.2413 1.57545 34.3655 1.9074 34.4867C2.21083 34.5975 2.44207 34.848 2.52823 35.1593C3.26666 37.8273 5.42896 39.8927 8.78814 41.4697C12.147 43.0467 16.5649 44.0661 21.5315 44.7018C31.2075 45.9405 42.6865 45.693 51.8524 45.4954C52.0922 45.4902 52.3305 45.485 52.5671 45.48C53.0713 45.4692 53.5046 45.8355 53.5779 46.3344C53.6874 47.0801 54.1639 47.6455 55.0546 48.0421C55.9722 48.4508 57.244 48.6287 58.6583 48.5588C60.0605 48.4895 61.5231 48.1801 62.7802 47.6891C64.0561 47.1908 65.0213 46.5448 65.5404 45.87L65.5487 45.8764C65.5697 45.8421 65.5897 45.813 65.6073 45.7917C65.8621 45.523 66.2321 45.4259 66.57 45.5081M212.698 3.99303L212.69 2.99307C241.164 2.75379 240.264 18.6259 239.642 29.5983C239.576 30.7665 239.513 31.8791 239.488 32.9108C240.387 48.0736 204.472 47.1874 176.993 46.5094C168.006 46.2877 159.922 46.0882 154.323 46.4797C151.185 48.1345 147.043 47.8035 144.783 46.4797C142.782 46.2552 141.763 47.036 140.727 47.8301C140.235 48.2065 139.74 48.5859 139.135 48.8626C136.938 50.1864 132.043 48.7302 133.298 47.1416M212.698 3.99303C220.483 3.92762 225.943 5.08318 229.766 6.94698C233.562 8.79814 235.785 11.3673 237.087 14.2439C238.401 17.1486 238.799 20.4195 238.838 23.6871C238.857 25.3171 238.787 26.9291 238.703 28.4818C238.684 28.8333 238.664 29.183 238.644 29.5295C238.578 30.7014 238.513 31.8372 238.489 32.8874C238.488 32.915 238.489 32.9425 238.49 32.97C238.621 35.1856 237.875 36.9884 236.389 38.5063C234.872 40.0554 232.56 41.3293 229.557 42.3496C223.55 44.3911 215.121 45.3072 205.836 45.6459C196.571 45.9838 186.555 45.7449 177.407 45.5193L176.97 45.5086C168.022 45.2878 159.9 45.0873 154.253 45.4822C154.114 45.4919 153.979 45.5304 153.856 45.5952C152.467 46.3281 150.822 46.6351 149.248 46.597C147.665 46.5587 146.24 46.1741 145.289 45.6169C145.168 45.5462 145.034 45.5016 144.895 45.486C143.148 45.29 141.977 45.7547 141.011 46.388C140.689 46.5987 140.371 46.8425 140.089 47.0587C139.987 47.137 139.889 47.2117 139.798 47.2798C139.43 47.5551 139.093 47.7823 138.719 47.9531C138.685 47.9688 138.651 47.9865 138.619 48.0061C138.266 48.2184 137.735 48.3546 137.086 48.3761C136.449 48.3973 135.777 48.3045 135.206 48.1354C134.74 47.9976 134.417 47.8318 134.23 47.6948M212.698 3.99303L134.079 47.759M66.57 45.5081C66.7179 45.544 66.8596 45.6143 66.9828 45.7196C67.2265 45.9279 67.3462 46.2293 67.3319 46.5282M66.57 45.5081C66.6753 45.5142 66.85 45.5198 67.0994 45.5244C67.5959 45.5336 68.3393 45.5379 69.2981 45.538C71.2136 45.5384 73.9648 45.5227 77.2658 45.4994C78.9777 45.4874 80.837 45.4733 82.8032 45.4584C88.4167 45.4158 94.9019 45.3667 101.318 45.3391C109.979 45.3019 118.524 45.3039 124.636 45.4148C127.686 45.4701 130.153 45.5529 131.728 45.6736C132.488 45.7319 133.127 45.8044 133.519 45.9113C133.62 45.9387 133.76 45.9827 133.897 46.0568L133.899 46.0578C133.975 46.0986 134.373 46.3134 134.468 46.8126C134.547 47.2212 134.381 47.5182 134.23 47.6948M66.57 45.5081C66.5694 45.508 66.5687 45.508 66.5681 45.508C66.5264 45.5055 66.5097 45.5038 66.5097 45.5038C66.5097 45.5039 66.5125 45.5042 66.5176 45.505C66.5243 45.506 66.5411 45.5086 66.5641 45.5136C66.5819 45.5175 66.6324 45.5289 66.696 45.5532L66.6983 45.5541C66.7263 45.5643 66.9491 45.6456 67.1243 45.8727C67.2076 46.0018 67.3075 46.315 67.3243 46.5281C67.3268 46.5282 67.3293 46.5282 67.3319 46.5282M67.3319 46.5282C69.5872 46.5585 75.4524 46.5141 82.8122 46.4583C100.446 46.3247 126.659 46.1261 132.365 46.7348C132.41 46.6608 132.46 46.5897 132.514 46.5217C132.628 46.3768 132.78 46.2664 132.954 46.2028C132.97 46.1968 132.968 46.1964 132.954 46.2031C132.935 46.2119 132.894 46.2331 132.845 46.2703C132.819 46.2897 132.685 46.3946 132.588 46.5803C132.561 46.6315 132.537 46.6888 132.519 46.7521C132.646 46.7669 132.761 46.7822 132.863 46.798C132.994 46.818 133.105 46.8388 133.195 46.8604C133.538 46.9424 133.587 47.0357 133.298 47.1416M133.298 47.1416L134.079 47.759M133.298 47.1416L133.643 48.0805C133.74 48.0447 133.898 47.9804 134.048 47.8682C134.084 47.8409 134.155 47.7828 134.23 47.6948M134.079 47.759C134.087 47.7376 134.1 47.6935 134.094 47.6312C134.089 47.5823 134.076 47.5546 134.072 47.5477C134.075 47.552 134.084 47.5643 134.103 47.5844C134.134 47.6179 134.176 47.6551 134.23 47.6948" stroke="#C9C5CA" stroke-width="2" stroke-miterlimit="10" stroke-linecap="round" stroke-linejoin="round" />
</svg>
