<svg width="389" height="80" viewBox="0 0 389 80" fill="none" xmlns="http://www.w3.org/2000/svg">
	<path d="M344.926 6.07683L344.939 6.07672C357.587 5.9707 366.472 7.84321 372.7 10.8725C378.89 13.8828 382.518 18.0639 384.642 22.7463C386.786 27.4707 387.432 32.7853 387.495 38.0832C387.526 40.7264 387.412 43.3397 387.276 45.8544C387.245 46.4244 387.212 46.9911 387.181 47.5524C387.073 49.4496 386.968 51.2861 386.928 52.9844C386.928 52.9986 386.928 53.0127 386.928 53.0268C386.928 53.0541 386.929 53.0814 386.931 53.1086C387.146 56.7304 385.92 59.6813 383.486 62.1618C381.005 64.6892 377.231 66.7601 372.348 68.4154C362.578 71.7271 348.879 73.2109 333.805 73.7593C318.762 74.3066 302.498 73.9197 287.649 73.5545L286.945 73.5372C272.416 73.1795 259.236 72.8551 250.076 73.494C249.868 73.5085 249.666 73.566 249.482 73.6628C247.203 74.8613 244.512 75.3615 241.939 75.2994C239.353 75.237 237.018 74.6106 235.452 73.6954C235.271 73.5897 235.07 73.523 234.862 73.4997C232.061 73.1863 230.189 73.928 228.64 74.9406C228.122 75.2791 227.611 75.6694 227.154 76.0187C226.988 76.1462 226.828 76.2682 226.678 76.3802C226.078 76.8278 225.522 77.2017 224.904 77.4838C224.852 77.5074 224.802 77.5338 224.753 77.5631C224.157 77.9216 223.271 78.1448 222.205 78.1801C221.156 78.2148 220.052 78.0628 219.112 77.7852C218.262 77.5342 217.687 77.2231 217.387 76.9723C217.631 76.7229 217.962 76.2432 217.829 75.5511C217.685 74.798 217.082 74.4737 216.966 74.4111L216.964 74.4097C216.753 74.2963 216.536 74.2281 216.377 74.1847C215.754 74.0153 214.728 73.8984 213.492 73.8039C210.94 73.6088 206.939 73.4748 201.987 73.3851C192.068 73.2056 178.198 73.2024 164.138 73.2627C153.724 73.3073 143.197 73.3869 134.084 73.4558C130.893 73.4799 127.875 73.5027 125.096 73.5223C119.737 73.5599 115.271 73.5854 112.161 73.5848C110.604 73.5845 109.397 73.5776 108.59 73.5627C108.182 73.5552 107.896 73.546 107.722 73.5359C107.719 73.5357 107.716 73.5355 107.713 73.5353C107.204 73.4079 106.645 73.5523 106.261 73.9569C106.234 73.989 106.204 74.0325 106.172 74.0839L106.16 74.0743C105.299 75.1913 103.709 76.248 101.627 77.0591C99.5729 77.8592 97.1854 78.3629 94.8959 78.4758C92.5884 78.5896 90.5021 78.3009 88.9885 77.6286C87.5145 76.9738 86.7058 76.0289 86.5207 74.7719C86.4105 74.0237 85.7606 73.4746 85.0046 73.4907C84.6193 73.499 84.2312 73.5073 83.8406 73.5157C68.9644 73.8357 50.3226 74.2366 34.6063 72.2298C26.5386 71.1996 19.3522 69.5469 13.8826 66.9855C8.412 64.4236 4.86707 61.0573 3.65563 56.6912C3.52606 56.2242 3.17886 55.8486 2.72349 55.6828C2.17502 55.4831 1.83713 55.2753 1.65008 55.1127C1.58064 55.0524 1.54021 55.006 1.51742 54.9752C1.5238 54.9638 1.53207 54.9501 1.54274 54.9339C1.63156 54.7992 1.84539 54.5693 2.289 54.2936C2.46194 54.1861 2.61118 54.0445 2.72762 53.8774C3.10219 53.3401 3.206 52.6895 3.24636 52.2248C3.29128 51.7077 3.27678 51.1272 3.23719 50.545C3.17005 49.5577 3.01721 48.4002 2.86983 47.2841C2.84406 47.0889 2.81845 46.895 2.7935 46.7035C2.62007 45.3723 2.47699 44.1492 2.46693 43.1924C2.46188 42.7125 2.49215 42.374 2.53969 42.159C2.54768 42.1229 2.55517 42.0945 2.56157 42.073C2.95662 41.6754 3.1005 41.0845 2.92053 40.543C0.538993 33.3777 1.78804 24.7684 8.15702 17.9673C14.5379 11.1535 26.2427 5.97242 45.0839 6.18385C45.1245 6.1843 45.1651 6.18311 45.2056 6.18027C45.2028 6.18046 45.2057 6.18025 45.2166 6.17979C45.2237 6.17949 45.2343 6.17908 45.2489 6.17862C45.2824 6.17755 45.3271 6.17647 45.3844 6.17546C45.4989 6.17343 45.6515 6.17185 45.8419 6.1707C46.2222 6.16841 46.739 6.16793 47.3747 6.16866C48.2857 6.16971 49.433 6.17323 50.7599 6.1773C51.2844 6.1789 51.8369 6.1806 52.414 6.18226C56.485 6.19398 61.7663 6.20405 66.9758 6.17051C72.1808 6.137 77.3327 6.05988 81.139 5.8962C83.0347 5.81468 84.6348 5.71024 85.7499 5.57349C86.29 5.50727 86.8012 5.42398 87.191 5.30524C87.3552 5.25523 87.6761 5.14896 87.9619 4.92225C88.0025 4.89006 88.0507 4.84893 88.1021 4.79821C89.4989 4.24019 91.2849 4.09604 93.0265 4.29837C94.9628 4.52331 96.5134 5.13565 97.213 5.72443C97.6053 6.05459 98.1391 6.16149 98.6283 6.00787C105.308 3.91038 112.784 2.65109 121.268 2.86108L121.269 2.86111C123.375 2.91145 124.983 3.26327 126.098 3.7439C127.239 4.23519 127.716 4.79 127.867 5.15277C128.028 5.54177 128.346 5.8448 128.742 5.98777C129.139 6.13073 129.577 6.10045 129.95 5.90433C132.046 4.80199 134.989 4.1174 137.886 4.06703C140.818 4.01606 143.406 4.61737 144.96 5.77823C145.219 5.97205 145.534 6.07678 145.858 6.07678C145.884 6.07678 145.992 6.0784 146.165 6.08102C146.981 6.09338 149.256 6.1278 151.341 6.11694C152.633 6.11022 153.933 6.08669 154.914 6.02897C155.395 6.00066 155.85 5.96148 156.202 5.90168C156.361 5.87458 156.596 5.82803 156.821 5.73631C156.888 5.70905 157.009 5.65645 157.146 5.56514C161.379 4.11275 165.352 4.71128 169.816 5.38398C170.522 5.4903 171.24 5.59847 171.973 5.70069C177.36 6.45175 183.239 6.76804 189.865 2.68623C192.521 1.48246 196.101 1.2236 199.151 1.77893C200.681 2.05751 201.986 2.52529 202.922 3.10443C203.872 3.69186 204.289 4.29093 204.398 4.791C204.489 5.20626 204.752 5.56336 205.122 5.77351C205.492 5.98367 205.933 6.02713 206.336 5.8931C209.963 4.6883 214.155 4.52986 217.5 5.95653C217.686 6.03588 217.886 6.07678 218.089 6.07678H234.389C234.775 6.07678 235.146 5.92815 235.425 5.66179C237.818 3.37764 242.555 1.75356 247.119 1.57429C249.371 1.48584 251.446 1.75746 253.054 2.38668C254.654 3.01247 255.67 3.93549 256.112 5.10618C256.359 5.76258 257.029 6.15968 257.724 6.06223C257.717 6.06323 257.728 6.06283 257.763 6.0616C257.837 6.05898 258.017 6.0526 258.35 6.04812C258.78 6.04234 259.372 6.03973 260.107 6.03952C261.576 6.0391 263.593 6.04828 265.975 6.06001L266.833 6.06426C271.467 6.08724 277.301 6.11619 283.077 6.10357C289.211 6.09016 295.298 6.02989 299.819 5.86478C302.073 5.78247 303.973 5.67298 305.304 5.5255C305.955 5.45334 306.543 5.3647 306.984 5.2445C307.182 5.19056 307.489 5.09503 307.768 4.91191C307.812 4.88299 307.866 4.84469 307.926 4.79574C312.274 3.50684 316.599 4.32508 319.077 5.85352C319.314 5.99948 319.586 6.07678 319.864 6.07678L344.926 6.07683ZM154.877 4.5354C154.877 4.53312 154.876 4.53084 154.876 4.52856C154.876 4.53084 154.877 4.53312 154.877 4.5354ZM1.49037 54.9311C1.49044 54.9311 1.49102 54.9323 1.49186 54.9348C1.49072 54.9323 1.4903 54.9311 1.49037 54.9311ZM1.49839 55.0152C1.49779 55.0182 1.49726 55.0197 1.49715 55.0198C1.49704 55.0198 1.49733 55.0183 1.49839 55.0152ZM2.58189 42.0164C2.58198 42.0165 2.58075 42.0195 2.57793 42.0249C2.58039 42.0189 2.5818 42.0162 2.58189 42.0164Z" stroke="#C9C5CA" stroke-width="3" stroke-miterlimit="10" stroke-linecap="round" stroke-linejoin="round" />
</svg>
