<svg width="391" height="80" viewBox="0 0 391 80" fill="none" xmlns="http://www.w3.org/2000/svg">
	<path d="M345.864 6.94441L345.876 6.94431C358.562 6.84023 367.476 8.67838 373.726 11.6531C379.936 14.6091 383.57 18.7118 385.695 23.2969C387.84 27.9243 388.488 33.1306 388.551 38.3252C388.582 40.917 388.468 43.4798 388.331 45.9471C388.3 46.5062 388.268 47.0621 388.236 47.613C388.127 49.4747 388.023 51.2782 387.983 52.9458C387.982 52.9881 387.982 53.0304 387.985 53.0727C388.2 56.6065 386.979 59.4903 384.541 61.922C382.054 64.4014 378.269 66.4346 373.37 68.0601C363.569 71.3114 349.83 72.7675 334.714 73.3058C319.629 73.8429 303.32 73.4632 288.432 73.1048L287.728 73.0878C273.158 72.7368 259.944 72.4185 250.761 73.0454C250.557 73.0593 250.358 73.1147 250.176 73.2082C247.888 74.3861 245.184 74.8781 242.598 74.8171C240.001 74.7557 237.654 74.1397 236.081 73.2398C235.902 73.1376 235.704 73.0732 235.499 73.0508C232.702 72.7444 230.831 73.4687 229.279 74.4615C228.76 74.7935 228.249 75.1764 227.79 75.5191C227.623 75.6443 227.463 75.7641 227.312 75.8741C226.711 76.3131 226.153 76.6807 225.531 76.9582C225.48 76.9811 225.43 77.0068 225.382 77.0352C224.78 77.389 223.887 77.6092 222.814 77.6439C221.758 77.6781 220.647 77.5284 219.702 77.2551C218.877 77.0169 218.311 76.7236 218.001 76.4828C218.245 76.2257 218.552 75.7537 218.42 75.0808C218.339 74.6709 218.119 74.3952 217.963 74.2433C217.807 74.0916 217.649 73.9966 217.543 73.941C217.334 73.8307 217.119 73.7644 216.96 73.7221C216.339 73.5567 215.313 73.4422 214.073 73.3495C211.515 73.158 207.505 73.0265 202.54 72.9386C192.594 72.7624 178.687 72.7592 164.59 72.8184C154.147 72.8622 143.591 72.9403 134.454 73.0079C131.254 73.0316 128.228 73.054 125.442 73.0731C120.07 73.1101 115.591 73.1351 112.473 73.1345C110.912 73.1342 109.701 73.1275 108.891 73.1129C108.482 73.1055 108.194 73.0964 108.02 73.0864C108.016 73.0862 108.011 73.086 108.008 73.0857C107.505 72.9616 106.954 73.1016 106.571 73.4968C106.544 73.5286 106.513 73.572 106.481 73.6233L106.468 73.6135C105.607 74.7064 104.013 75.7445 101.922 76.5419C99.8597 77.3281 97.4624 77.8231 95.1629 77.9341C92.8454 78.0459 90.7479 77.7623 89.2253 77.1003C87.7378 76.4536 86.9406 75.5275 86.7587 74.3187C86.6465 73.5729 85.998 73.0264 85.244 73.0422C84.8572 73.0503 84.4677 73.0585 84.0756 73.0668C69.1602 73.3807 50.4661 73.7742 34.7049 71.8046C26.6138 70.7934 19.4046 69.171 13.9171 66.656C8.42406 64.1384 4.87899 60.8355 3.66943 56.5691C3.53706 56.1023 3.187 55.7282 2.72987 55.5653C2.17742 55.3684 1.83739 55.1636 1.64989 55.0042C1.59813 54.9601 1.56298 54.9241 1.53952 54.8969C1.54137 54.8941 1.54332 54.8911 1.54537 54.8881C1.63172 54.7599 1.84441 54.5349 2.29087 54.2632C2.4646 54.1576 2.61503 54.0176 2.73301 53.852C3.11461 53.3163 3.22013 52.667 3.26095 52.2071C3.3064 51.6951 3.29164 51.1219 3.25185 50.5492C3.18439 49.5784 3.03083 48.4403 2.88306 47.3451C2.85723 47.1537 2.83158 46.9636 2.8066 46.7759C2.63263 45.4691 2.4897 44.2724 2.47966 43.3376C2.47462 42.8687 2.50493 42.5418 2.55121 42.3369C2.55773 42.308 2.56388 42.2846 2.56927 42.266C2.97134 41.8662 3.11736 41.2673 2.93158 40.7202C0.551067 33.7107 1.79538 25.2827 8.17505 18.6155C14.5723 11.9299 26.3141 6.84185 45.2156 7.04943C45.2553 7.04987 45.2951 7.04872 45.3348 7.046C45.3337 7.04607 45.3337 7.04607 45.3349 7.04601C45.3384 7.04584 45.352 7.04517 45.3796 7.04431C45.4133 7.04326 45.4584 7.0422 45.5159 7.0412C45.6309 7.03921 45.784 7.03765 45.975 7.03653C46.3565 7.03427 46.8748 7.0338 47.5122 7.03452C48.4257 7.03555 49.5762 7.039 50.9067 7.043C51.4326 7.04458 51.9866 7.04624 52.5652 7.04787C56.6471 7.05937 61.9424 7.06925 67.1657 7.03634C72.3847 7.00346 77.5498 6.92778 81.3657 6.76719C83.2663 6.6872 84.8696 6.58475 85.9863 6.45073C86.5273 6.3858 87.0375 6.30433 87.4258 6.1886C87.5887 6.14005 87.9081 6.0367 88.1937 5.81504C88.2341 5.78366 88.2827 5.74312 88.335 5.69268C89.7412 5.14222 91.5391 5.00026 93.2908 5.19942C95.2374 5.42074 96.7965 6.02337 97.4993 6.60218C97.8882 6.92252 98.412 7.02619 98.8936 6.87817C105.594 4.81903 113.094 3.5826 121.605 3.78878L121.606 3.78881C123.721 3.83829 125.338 4.18418 126.46 4.65737C127.61 5.14231 128.083 5.68739 128.229 6.03099C128.392 6.41477 128.707 6.71334 129.099 6.85506C129.491 6.99679 129.925 6.96887 130.296 6.77802C132.4 5.69461 135.357 5.0217 138.266 4.97218C141.211 4.92207 143.814 5.51351 145.374 6.655C145.631 6.84302 145.941 6.94436 146.26 6.94436C146.287 6.94436 146.396 6.94597 146.572 6.94857C147.394 6.96074 149.669 6.99442 151.758 6.98378C153.053 6.97717 154.356 6.95409 155.339 6.8975C155.821 6.86974 156.275 6.83137 156.626 6.77301C156.785 6.74656 157.018 6.70131 157.241 6.61237C157.307 6.58606 157.428 6.53471 157.565 6.44478C161.819 5.01577 165.812 5.60466 170.289 6.26499C170.997 6.36931 171.716 6.47542 172.45 6.57563C177.848 7.3121 183.734 7.62236 190.372 3.62007C193.041 2.43585 196.638 2.18133 199.703 2.72739C201.24 3.00134 202.552 3.46143 203.492 4.03088C204.449 4.61036 204.857 5.19509 204.963 5.66725C205.056 6.0793 205.317 6.43334 205.684 6.64241C206.051 6.85149 206.489 6.89624 206.891 6.76568C210.532 5.58174 214.745 5.42518 218.107 6.82862C218.29 6.90502 218.487 6.94436 218.685 6.94436H235.029C235.41 6.94436 235.776 6.79999 236.053 6.54045C238.453 4.29871 243.208 2.70227 247.792 2.52606C250.054 2.43912 252.139 2.70604 253.757 3.32523C255.368 3.94241 256.381 4.84936 256.818 5.98382C257.068 6.63313 257.732 7.02506 258.422 6.93042C258.416 6.93123 258.426 6.93086 258.457 6.92976C258.53 6.92721 258.712 6.92074 259.054 6.91624C259.485 6.91057 260.079 6.908 260.816 6.90779C262.29 6.90738 264.312 6.9164 266.7 6.92791L267.56 6.93207C272.207 6.95463 278.057 6.98303 283.848 6.97065C289.999 6.9575 296.101 6.89834 300.634 6.73634C302.894 6.65558 304.797 6.54817 306.131 6.4036C306.783 6.33283 307.371 6.24607 307.81 6.12877C308.007 6.07621 308.313 5.98326 308.591 5.80471C308.635 5.77644 308.69 5.73855 308.75 5.68967C313.121 4.42057 317.469 5.22548 319.959 6.72859C320.193 6.86975 320.461 6.94436 320.734 6.94436L345.864 6.94441ZM155.309 5.41488C155.308 5.40886 155.307 5.40285 155.306 5.39687C155.307 5.40287 155.308 5.40887 155.309 5.41488ZM1.4961 54.8358C1.49617 54.8358 1.49677 54.8369 1.49771 54.8393C1.4965 54.837 1.49603 54.8358 1.4961 54.8358ZM1.50596 54.9571C1.5056 54.9583 1.50537 54.9589 1.50535 54.9589L1.50596 54.9571ZM2.59031 42.2064C2.59042 42.2066 2.58909 42.2099 2.586 42.2158C2.58866 42.2092 2.59021 42.2062 2.59031 42.2064Z" fill="#FBE7F0" stroke="#4E4B9A" stroke-width="3" stroke-miterlimit="10" stroke-linecap="round" stroke-linejoin="round" />
</svg>
