<svg width="291" height="50" viewBox="0 0 291 50" fill="none" xmlns="http://www.w3.org/2000/svg">
	<path d="M258.03 3.86051L258.037 3.86046C277.053 3.72728 284.763 8.56021 287.883 14.3063C289.469 17.2276 289.95 20.5139 289.996 23.805C290.019 25.4482 289.935 27.0746 289.833 28.645C289.81 28.9995 289.786 29.3526 289.762 29.7029C289.681 30.8894 289.602 32.043 289.572 33.1092C289.572 33.1422 289.572 33.1753 289.575 33.2082C289.729 35.3809 288.859 37.1869 287.027 38.7463C285.158 40.338 282.309 41.6437 278.631 42.6853C271.284 44.7659 261.003 45.694 249.721 46.0369C238.457 46.3793 226.282 46.1372 215.175 45.909L214.663 45.8984C203.782 45.6747 193.934 45.4722 187.095 45.8707C186.976 45.8776 186.859 45.9057 186.75 45.9535C185.007 46.7197 182.947 47.0392 180.981 46.9996C179.007 46.9598 177.215 46.5602 176.007 45.9704C175.899 45.9175 175.782 45.8846 175.662 45.8733C173.648 45.6851 172.307 46.126 171.174 46.7449C170.792 46.9538 170.416 47.1934 170.075 47.411C169.95 47.4914 169.828 47.5687 169.713 47.6404C169.263 47.9208 168.836 48.1621 168.354 48.3459C168.322 48.358 168.291 48.3716 168.261 48.3868C167.774 48.6312 167.064 48.777 166.235 48.7999C165.418 48.8225 164.562 48.7238 163.833 48.544C163.272 48.4056 162.858 48.2367 162.598 48.0857C162.619 48.0608 162.64 48.0338 162.661 48.0047C162.793 47.8156 162.904 47.5183 162.825 47.1722C162.754 46.8654 162.568 46.6795 162.466 46.5943C162.357 46.5041 162.25 46.4499 162.183 46.4195C162.046 46.3579 161.903 46.3201 161.793 46.2949C161.355 46.1955 160.613 46.1235 159.686 46.0643C157.785 45.9429 154.8 45.8592 151.096 45.8032C143.679 45.691 133.306 45.689 122.788 45.7267C114.999 45.7546 107.125 45.8043 100.308 45.8473C97.9204 45.8624 95.6621 45.8767 93.5827 45.8889C89.5742 45.9125 86.2321 45.9284 83.9045 45.928C82.7398 45.9278 81.8342 45.9235 81.2275 45.9142C80.9221 45.9095 80.7029 45.9036 80.5672 45.897C80.5537 45.8964 80.5418 45.8957 80.5314 45.8951C80.227 45.8243 79.8949 45.8971 79.6437 46.1179C79.6243 46.1376 79.6017 46.1653 79.5777 46.1986L79.5691 46.1907C78.9199 46.8941 77.7095 47.5679 76.1219 48.0846C74.5606 48.5928 72.746 48.9128 71.003 48.9846C69.2484 49.0569 67.641 48.8746 66.4622 48.4371C65.2763 47.997 64.7202 47.3864 64.5984 46.6954C64.5129 46.2108 64.0877 45.8604 63.5957 45.8692C63.3047 45.8744 63.0116 45.8796 62.7165 45.8849C51.594 46.0848 37.6303 46.3357 25.8519 45.0792C19.8032 44.4339 14.3969 43.397 10.2737 41.7837C6.12009 40.1586 3.48922 38.0377 2.60245 35.3675C2.50019 35.0596 2.25489 34.8204 1.94449 34.726C1.51645 34.5957 1.24419 34.4579 1.08957 34.3465C1.18192 34.2635 1.33628 34.1517 1.58084 34.0247C1.6985 33.9636 1.80283 33.8797 1.88777 33.7779C2.18689 33.4194 2.27282 32.9747 2.30525 32.6628C2.34085 32.3204 2.3289 31.9424 2.29883 31.5731C2.24789 30.9473 2.13204 30.2144 2.02186 29.5174C2.00264 29.3959 1.9836 29.2754 1.9651 29.1567C1.83501 28.3225 1.73062 27.5728 1.72332 26.9925C1.71966 26.7019 1.74206 26.512 1.77095 26.4028C1.772 26.3988 1.77304 26.3951 1.77403 26.3915C2.09259 26.1164 2.20815 25.6652 2.04911 25.2654C0.306267 20.8844 1.18895 15.5815 5.94873 11.335C10.7486 7.05272 19.5689 3.79466 33.7292 3.92742C33.7518 3.92763 33.7745 3.92707 33.7971 3.92575C33.797 3.92576 33.8004 3.92556 33.8086 3.92525L33.8403 3.92426C33.8672 3.92354 33.9021 3.92285 33.9457 3.9222C34.033 3.92091 34.1484 3.91991 34.2913 3.91919C34.5769 3.91775 34.9643 3.91745 35.44 3.91791C36.1218 3.91857 36.9805 3.92077 37.9732 3.92331C38.3655 3.92432 38.7788 3.92538 39.2103 3.92641C42.2556 3.93374 46.2052 3.94003 50.1009 3.91908C53.9941 3.89813 57.8436 3.84995 60.6855 3.74785C62.1023 3.69695 63.2899 3.63197 64.1125 3.54769C64.5134 3.50661 64.8762 3.45642 65.1448 3.38806C65.2566 3.35962 65.4668 3.30148 65.6569 3.17548C65.686 3.15626 65.7265 3.12774 65.7721 3.08864C66.872 2.71335 68.2737 2.61957 69.6234 2.75057C71.1064 2.89451 72.3144 3.28808 72.8697 3.67851C73.1105 3.84787 73.4138 3.90247 73.6986 3.82775C78.7201 2.51029 84.3437 1.7188 90.7243 1.85075L90.725 1.85076C92.3275 1.88278 93.5661 2.10676 94.436 2.41984C95.3415 2.74579 95.697 3.11088 95.7942 3.3061C96.0321 3.78389 96.6032 3.9907 97.0918 3.77598C98.6953 3.07131 100.939 2.63646 103.144 2.60443C105.374 2.57203 107.374 2.95414 108.582 3.70867C108.741 3.80788 108.925 3.86048 109.112 3.86048C109.137 3.86048 109.229 3.86164 109.374 3.86347C110.009 3.87146 111.667 3.89232 113.213 3.88559C114.178 3.88139 115.144 3.8667 115.87 3.83102C116.228 3.81344 116.555 3.78952 116.803 3.75438C116.916 3.73825 117.069 3.71236 117.213 3.66364C117.255 3.6491 117.341 3.61839 117.44 3.56083C120.685 2.62352 123.738 3.0086 127.085 3.43075C127.611 3.49715 128.145 3.56447 128.687 3.6277C132.691 4.09404 137.016 4.28777 141.912 1.76469C143.954 0.98778 146.699 0.8235 149.03 1.17812C150.2 1.35606 151.205 1.65609 151.932 2.03135C152.689 2.42256 152.969 2.80136 153.033 3.04745C153.101 3.30632 153.27 3.52713 153.502 3.6605C153.734 3.79386 154.01 3.82865 154.268 3.75707C157.025 2.99198 160.235 2.88488 162.81 3.80247C162.918 3.84086 163.032 3.86048 163.146 3.86048H175.34C175.567 3.86048 175.786 3.78355 175.963 3.64229C177.784 2.1906 181.385 1.16037 184.852 1.04662C186.564 0.990435 188.156 1.16228 189.401 1.56912C190.662 1.98132 191.417 2.58104 191.729 3.27198C191.908 3.66909 192.324 3.9044 192.756 3.85369C192.751 3.85438 192.751 3.85435 192.76 3.85388C192.775 3.85315 192.81 3.85132 192.877 3.8494C192.971 3.8467 193.099 3.84442 193.261 3.8426C193.584 3.83896 194.028 3.83733 194.579 3.8372C195.679 3.83694 197.188 3.84268 198.97 3.85001L199.611 3.85266C203.078 3.86703 207.442 3.88511 211.761 3.87723C216.35 3.86885 220.899 3.83118 224.276 3.72814C225.96 3.67674 227.373 3.60855 228.358 3.51738C228.842 3.47257 229.264 3.4187 229.573 3.34835C229.712 3.31678 229.914 3.26365 230.097 3.16305C230.13 3.14527 230.176 3.11825 230.229 3.07987C233.571 2.24068 236.908 2.76252 238.824 3.74943C238.965 3.82241 239.122 3.86048 239.282 3.86048L258.03 3.86051ZM162.33 47.8831C162.33 47.8829 162.331 47.8843 162.333 47.8872C162.331 47.8846 162.33 47.8833 162.33 47.8831ZM115.975 2.82408C115.975 2.82408 115.975 2.82409 115.975 2.82409C115.978 2.84294 115.982 2.86205 115.987 2.88141C115.982 2.8623 115.979 2.84318 115.975 2.82408ZM0.970442 34.24C0.970476 34.2399 0.970927 34.2406 0.971705 34.2419C0.970796 34.2406 0.970409 34.24 0.970442 34.24ZM1.78912 26.3481C1.78917 26.3482 1.78845 26.3499 1.7868 26.353C1.78825 26.3495 1.78907 26.348 1.78912 26.3481Z" fill="#FBE7F0" stroke="#4E4B9A" stroke-width="2" stroke-miterlimit="10" stroke-linecap="round" stroke-linejoin="round" />
</svg>
