<?xml version="1.0" encoding="UTF-8"?>
<svg xmlns="http://www.w3.org/2000/svg" width="336.361" height="179.768" viewBox="0 0 336.361 179.768">
  <g id="a" data-name="Layer 1"/>
  <g id="b" data-name="Layer 2">
    <g id="c" data-name="Layer 1">
      <g id="d" data-name="eraser">
        <path d="M321.957,37.933c.599-3.053-1.105-6.209-4.207-7.067-22.836-6.319-45.67-12.65-68.509-18.958-21.662-8.721-41.263,8.122-61.307,14.3-19.912,7.689-40.177,14.458-60.707,20.299-54.198,13.838-78.394,14.184-113.638,62.81-1.829,2.299-2.728,6.227-.001,8.417,20.599,16.524,41.159,33.099,61.777,49.598-2.68,3.502,.378,9.709,4.954,9.237,78.57-8.183,154.785-37.759,217.604-85.807,9.842-6.386,27.095-42.002,24.034-52.828Z" fill="#ffc5c5"/>
        <path d="M111.228,119.977c-12.651-10.875-56.441-42.564-71.649-41.991-8.713,3.97-14.714,12.61-22.036,18.649-4.935,4.724-17.625,13.068-11.728,21.037,19.308,21.013,45.094,36.243,71.218,47.546,8.242,4.744,17.025,5.059,23.311-2.945,11.165-10.452,27.178-29.121,10.884-42.297Z" fill="#e58f8f"/>
        <path d="M332.225,25.593c-31.682-6.128-62.402-16.817-93.684-24.703-24.527-6.412-74.797,23.647-100.286,32.371-15.776,6.728-31.519,14.684-47.822,20.029-14.733,3.787-29.995,5.334-43.725,12.468-7.309-.511-32.572,24.6-37.315,31.461-2.655,3.836-3.887,8.958-7.444,12.039-3.809,3.299-1.474,8.05,2.212,9.509-.11,1.466,.377,3.008,1.72,4.367,20.866,23.699,44.632,44.154,73.997,56.55,63.294,2.126,128.636-35.21,185.642-63.086,16.273-8.704,32.378-17.713,48.476-26.731,3.264-1.828,3.501-5.214,2.113-7.767,2.346-8.61,30.663-53.414,16.115-56.505Zm-17.218,32.008c-3.76,7.781-9.38,15.732-11.172,24.309-68.107,38.118-138.619,77.016-216.974,88.002-30.385-12.594-51.6-31.91-73.349-55.874,6.964-15.361,20.575-25.823,33.526-36.047,8.691-2.434,16.804-7.264,25.871-8.829,7.487-1.619,15.048-2.391,22.315-4.949,46.013-16.015,88.652-43.887,136.812-52.859,28.041,7.753,55.988,15.758,84.15,23.148-49.276,18.436-97.789,38.326-144.166,63.003-16.477,6.027-32.646,12.076-48.236,20.218-6.794,3.548-.782,13.827,6.009,10.281,15.227-7.952,31.022-13.581,47.038-19.629,15.931-6.016,29.642-16.18,45.091-23.171,32.383-13.977,65.606-26.071,98.225-39.519-1.518,4.038-3.248,8.004-5.14,11.918Z" fill="#b75555"/>
        <path d="M119.927,127.283c-2.991-15.164-50.921-36.885-65.013-47.838-6.519-4.069-12.503,6.228-6.011,10.283,19.46,12.303,39.22,24.627,58.197,37.488,2.761,3.485-15.971,27.193-19.583,31.388-5.007,5.759,3.38,14.214,8.418,8.419,9.172-11.958,21.376-24.545,23.992-39.739Z" fill="#b75555"/>
        <path d="M299.585,29.408c-16.805-5.141-33.611-10.281-50.416-15.422-6.554-2.005-15-6.301-21.957-4.49-6.492,2.601-12.635,6.068-19.66,7.241-47.568,12.535-90.372,38.7-135.4,57.198-6.598-5.277-14.609,5.273-7.199,9.624,16.363,8.419,38.36,22.225,54.641,30.105,8.358,3.707,19.544-2.922,27.244-6.244,46.425-21.883,93.446-42.507,140.558-62.88,7.899,1.111,24.548-8.454,12.188-15.132Z" fill="#ffdcdc"/>
      </g>
    </g>
  </g>
</svg>