<?xml version="1.0" encoding="UTF-8"?>
<svg xmlns="http://www.w3.org/2000/svg" width="313.737" height="244.966" viewBox="0 0 313.737 244.966">
  <g id="a" data-name="Layer 1"/>
  <g id="b" data-name="Layer 2">
    <g id="c" data-name="Layer 1">
      <g id="d" data-name="Paintbrush">
        <path d="M302.883,31.753c-1.899-.531-3.808-.955-5.729-1.282,3.339-7.418-.349-33.659-12.134-21.759-12.217,26.909-52.235,12.726-74.345,15.582-30.719,3.123-56.145,31.967-48.88,62.946,9.126,15.465,30.094,17.453,45.601,23.087,17.739,15.527,46.867,5.27,60.944-11.244,17.969-17.017,16.336-53.617,34.543-55.848,6.064-.942,5.26-10.009,.001-11.48Z" fill="#75593e"/>
        <path d="M289.481,16.851c4.248-5.757-3.146-13.803-8.744-8.34-6.312,6.318-13.71,11.199-22.057,14.353-37.251,.736-86.82,3.878-99.199,46.536-1.33,4.18,1.852,6.991,5.256,7.277-2.559,6.955,8.746,9.917,11.553,2.959,4.083-10.121,11.808-20.23,19.472-27.942,13.505-11.851,33.754-10.315,50.718-13.394-24.764,5.923-48.534,16.421-61.863,39.173-3.993,6.563,6.299,12.553,10.28,6.009,10.045-17.8,28.939-27.141,48.114-31.872,9.355-.825,63.068-23.204,46.47-34.759Z" fill="#9e6e4a"/>
        <path d="M290.366,31.426c-28.522,19.677-53.636,53.579-90.862,54.039-7.66-.371-7.641,11.536-.001,11.904,24.871,1.251,45.395-14.464,63.871-29.146-8.278,12.553-13.678,30.424-29.61,34.895-11.129,2.627-24.276,.431-35.472-.84-7.601-.862-7.539,11.051,0,11.906,22.064,3.347,49.033,4.824,61.818-17.331,12.874-18.363,20.764-39.625,37.673-55.046,6.552-5.621,.731-15.309-7.417-10.381Z" fill="#543621"/>
        <path d="M313.074,34.563c-3.009-7.358-10.561-6.254-14.634-10.419,5.457-15.076-4.653-34.016-19.888-18.132C243.925,32.92,175.83,.203,157.835,54.963c4.166-.037,8.332-.091,12.498-.009,.074-.164,.141-.339,.217-.501,33.549-3.242,58.504,23.18,59.715,55.761-.19,.03-.382,.049-.573,.077,1.432,4.287,.628,9.087-1.635,12.105,37.843-1.957,54.674-37.56,65.889-68.628,3.813-13.011,23.637-6.136,19.128-19.206Zm-49.344,54.757c-4.916,8.065-12.806,14.082-21.816,17.686-2.418-32.732-27.526-65.361-62.549-64.26,25.687-21.938,80.878-2.245,108.618-29.023-.045,9.644-5.223,15.891,6.286,22.047-14.697,8.126-17.927,38.876-30.539,53.55Z" fill="#3a2b1e"/>
        <path d="M215.088,94.688c-15.519-35.962-64.467-33.619-86.223-4.801-36.367,26.822-71.464,56.132-101.666,89.849-12.55,13.957-30.001,42.302-10.552,57.132,22.763,10.666,45.256-16.047,64.063-26.058,33.837-22.432,67.674-44.862,101.511-67.293,16.96-10.339,41.797-25.402,32.868-48.829Z" fill="#6490ff"/>
        <path d="M213.243,90.768c-3.009-20.132-40.315,19.379-49.689,21.828-39.292,24.069-68.136,61.239-107.063,85.848-9.091,4.765-30.689,26.632-40.005,19.878-4.939-4.459-12.764,1.156-9.35,7.213,4.319,5.459,9.214,14.066,17.08,12.337,15.797,4.051,30.853-5.158,41.12-16.54,13.548-8.474,26.208-18.773,39.03-27.957,30.03-21.51,63.597-37.65,94.713-57.459,16.547-8.87,18.086-28.639,14.165-45.147Z" fill="#4973c9"/>
        <path d="M33.623,180.257c44.326-41.457,93.814-78.098,147.171-107.146-25-20.604-59.205,21.4-79.624,34.512-15.032,12.639-118.715,89.405-88.286,105.915,3.057-12.813,11.806-23.865,20.739-33.281Z" fill="#b0d0ff"/>
        <path d="M179.089,58.945c-45.785-3.687-77.925,39.17-110.267,65.216-30.24,23.496-98.211,77.769-54.646,116.665,28.631,15.502,51.709-16.515,73.339-30.449,14.831-8.497,30.309-15.581,43.534-26.568,27.644-23.26,88.819-34.839,93.301-74.224,2.165-25.515-21.542-47.113-45.26-50.64Zm-12.439,89.843c-19.679,10.596-38.729,22.357-57.035,35.18-7.306,5.115-14.304,7.611-22.258,11.437-12.169,7.012-21.319,18.187-33.044,25.967-23.475,22.049-49.799,10.708-39.787-22.292,6.596-13.584,15.984-26.887,27.45-36.731,38.753-30.837,72.214-72.906,119.333-90.865,21.364-5.236,48.025,8.676,51.077,31.843,3.303,25.077-28.406,36.127-45.735,45.46Z" fill="#002870"/>
        <path d="M229.21,104.821c-4.783-11.14-10.387-23.426-18.82-31.897-9.703-8.074-20.077-15.088-32.455-18.457-28.253-9.35-56.757,13.9-35.982,17.825,8.034,3.617,17.476,1.716,26.02,3.581,14.624,6.782,27.661,14.147,33.549,29.292,5.756,9.123,6.562,15.7,5.111,26.058-.782,21.697,32.307-2.804,22.576-26.403Z" fill="#ffce00"/>
        <path d="M176.142,54.247c-13.729-.225-27.879,.124-39.724,7.957-7.478,6.485,1.752,15.455,8.713,8.694,1.861,2.994,16.457,3.376,19.753,2.214,4.956-1.922,8.237-8.697,12.871-11.285,5.254-2.934,4.172-7.485-1.614-7.58Z" fill="#ffe888"/>
        <path d="M226.382,105.913c-.408-1.743-.988-3.526-1.843-5.096,3.675-5.829-4.414-12.196-9.275-7.351-3.327,3.808-9.005,4.719-13.033,7.035-7.007,3.455-.622,13.851,6.227,10.178,.134,7.875,2.109,15.873-.185,23.591-2.042,7.397,9.441,10.553,11.481,3.165,2.216-10.754,10.388-19.668,6.628-31.522Z" fill="#c6a000"/>
        <path d="M225.478,82.29c-6.443-11.967-16.072-22.635-28.244-28.925-22.174-10.291-67.674-13.061-72.061,18.649-6.997,18.555,39.898-4.612,62.537,20.088,13.774,12.994,14.23,32.52,13.951,50.14,.187,4.234,3.636,6.3,7.537,5.74,30.401-5.736,29.931-44.392,16.28-65.691Zm-12.092,51.52c2.958-45.831-31.574-71.172-75.167-66.081,4.579-9.426,21.419-9.069,30.191-8.957,13.867,.177,25.965,4.53,35.855,14.484,14.181,14.349,28.624,45.415,9.121,60.553Z" fill="#8e7300"/>
      </g>
    </g>
  </g>
</svg>