<?xml version="1.0" encoding="UTF-8"?>
<svg xmlns="http://www.w3.org/2000/svg" width="355.51" height="260.108" viewBox="0 0 355.51 260.108">
  <g id="a" data-name="Layer 1"/>
  <g id="b" data-name="Layer 2">
    <g id="c" data-name="Layer 1">
      <g id="d" data-name="Highlighter">
        <path d="M349.456,27.856c-1.274-5.572-2.937-11.01-3.72-16.616-2.872-.583-5.701-1.379-8.495-2.344-13.972,7.111-23.115,10.809-35.895,19.992-14.099-4.179-28.577,.989-40.993,7.76-11.871-1.815-24.224,.474-35.375,4.757-51.735,21.638-106.42,45.252-150.9,81.699-20.407,18.354-49.415,28.408-62.097,54.193-21.189,39.621,26.926,87.854,66.731,69.23,1.65,1.147,3.839,1.523,6.12,.348,47.238-24.804,91.233-55.245,136.655-83.136,27.214-17.34,60.889-34.039,72.546-66.009,12.041-5.05,23.282-13.912,27.755-26.622-.306-2.105,.595-4.3,3.083-5.112,4.849-14.773,14.268-20.656,26.436-29.156-.572-3.003-1.168-6.001-1.85-8.984Z" fill="#ffff6e"/>
        <path d="M80.473,235.092c-5.356-22.914-16.436-50.779-38.819-60.921-11.137-10.06-31.415-13.651-31.992,6.711-12.507,23.807,11.243,60.104,35.446,66.482,13.05,6.525,37.882,8.849,35.365-12.272Z" fill="#fff"/>
        <path d="M320.021,46.899c-2.241-7.307-13.411-4.285-11.481,3.165,.897,3.461-1.673,6.813-4.893,8.006-4.802,1.778-10.167-.398-14.338-2.743-4.662-2.622-9.876,1.691-8.745,6.723,2.354,10.474-3.555,18.817-11.23,25.472-52.148,33.412-103.309,68.974-156.365,101.236-7.689,4.688-15.381,8.257-24.066,4.027-27.189-16.556-33.909,5.242-20.709,6.322,4.299,11.414,8.59,23.031,9.426,35.377,3.63,20.996,58.446-27.123,67.828-32.662,18.654-11.054,36.288-23.69,56.713-31.437,25.601-10.686,45.928-29.339,67.107-46.735,5.201-5.007,31.237-19.491,21.296-26.562,3.682-4.801,7.153-9.768,10.404-14.886,18.97,3.875,25.098-21.171,19.051-35.303Z" fill="#e4ef00"/>
        <path d="M344.199,35.051c-.404-6.031-.809-12.062-1.213-18.093-.51-7.605-12.42-7.662-11.906,0,.689,7.736,.774,15.723,1.508,23.396-8.343,4.036-11.167,5.674-18.08,11.824-5.735,5.106,2.71,13.502,8.419,8.419,12.656-13.778,25.191-6.16,21.273-25.546Z" fill="#ffffb6"/>
        <path d="M284.232,23.321c-9.616,.906-15.225,8.366-22.632,13.441-42.647,11.81-48.105-9.854-89.334,24.219-40.707,29.277-84.693,53.632-126.948,80.574-6.443,3.97-12.878,7.976-19.32,11.951-5.776,3.573-1.712,12.089,3.851,11.121,3.641,10.609,18.262,10.167,25.189,2.957,5.644-5.992,10.806-12.497,18.051-16.708,54.562-33.216,109.978-67.251,166.416-96.329,14.919,1.713,28.897-5.624,39.123-16.083,2.223-1.479,4.576-2.715,7.186-3.449,6.303-1.773,5.286-12.04-1.583-11.694Z" fill="#fffee1"/>
        <path d="M355.504,39.104c-.589-6.389-2.685-12.88-4.07-19.139-.842-14.9-5.225-22.34-18.708-19.289-5.889,1.39-10.408,4.81-14.975,8.584-5.546,5.726-13.758,6.689-19.921,10.815-24.495-13.052-32.964,7.655-54.015,12.396-55.744-5.373-121.58,55.307-169.841,81.274-17.249,10.236-35.606,18.817-51.748,30.825-48.937,30.326-8.431,107.357,38.423,115.44,23.441,2.418,77.786-40.321,98.762-54.812,28.06-15.584,135.593-78.955,142.01-105.352,9.003-8.521,19.872-21.66,23.45-33.848,10.261-5.484,31.035-13.564,30.634-26.894Zm-65.297,56.253c-.971,8.937-8.885,13.726-15.377,18.895-60.804,47.313-127.869,86.363-192.663,127.37,4.243-17.403-11.082-18.182-11.487-8.894,.291,5.268-.546,10.113-2.461,14.982-32.938,2.102-71.296-51.625-48.442-79.779,22.893,9.438,41.068,27.917,50.82,50.571,3.031,7.014,13.292,.958,10.281-6.009-10.775-24.935-31.037-44.376-55.826-55.102,18.063-14.407,38.331-23.255,57.846-35.105,53.814-31.515,185.718-142.662,207.309-26.93Zm15.396-16.427c-1.307,1.509-2.665,2.967-4.045,4.402-3.523-20.857-19.678-38.137-38.991-45.649,11.326-8.873,24.638-14.372,36.219-2.312,10.777,10.872,21.563,31.556,6.817,43.56Zm18.469-22.096c-2.556-10.82-8.393-21.031-15.655-28.68,12.33-3.755,16.261-13.57,30.111-12.812-13.922,29.154-.079,30.138,6.402,25.962l-20.858,15.53Z" fill="#aaa500"/>
        <path d="M51.024,198.741c-23.863-36.07-38.126-9.613-16.428,16.954,3.893,7.42,20.77,24.725,24.907,9.347,.489-9.549-3.133-18.541-8.479-26.301Z" fill="#ffff6e"/>
        <path d="M50.428,208.712l-5.787-9.037c-3.871-6.643-14.219-.616-10.281,6.01l5.787,9.037c3.871,6.643,14.219,.616,10.281-6.009Z" fill="#e4ef00"/>
        <path d="M182.332,107.942c-11.936-2.541-12.748,9.028-21.416,11.592-6.215,.181-14.394-.108-16.373,7.455-5.663-.395-11.907,3.082-13.356,8.862-6.225-1.015-13.034-1.054-16.196,5.233-1.083,2.153-.79,2.967-2.902,4.286-2.071,1.294-4.168,2.546-6.268,3.791-4.465,2.645-8.984,5.194-13.542,7.677-6.731,3.666-.729,13.95,6.009,10.281,8.895-6.294,22.928-9.293,27.224-20.045,7.622-.881,15.164,6.198,17.125-6.551,.598-2.043-.83-.63,.716-1.67,7.351,.138,11.45,2.635,12.632-7.458,11.653,1.051,16.731-3.708,23.18-11.972,7.496,1.124,10.73-10.346,3.166-11.48Z" fill="#51512e"/>
        <path d="M240.505,72.508c-7.247-.749-11.627,3.15-12.692,5.147-4.786-.652-9.528,1.913-10.533,6.477-7.288,4.539-14.673,8.915-22.168,13.106-6.688,3.74-.692,14.028,6.009,10.281,8.976-5.98,20.595-9.878,27.656-17.971,6.121,.455,6.9-5.242,11.728-5.134,7.663,.287,7.651-11.62,0-11.906Z" fill="#51512e"/>
        <path d="M256.628,61.482c-7.661,0-7.674,11.906,0,11.906s7.674-11.906,0-11.906Z" fill="#51512e"/>
        <path d="M175.917,128.403c-7.808,4.67-16.518,8.841-23.424,14.816-1.753,1.516-1.934,1.901-4.15,2.197-5.417-.218-9.483,3.164-11.766,7.851-13.4,.48-2.951,21.643,9.193,7.768,1.67-2.167,1.374-3.375,4.079-3.694,7.143-.201,11.508-6.395,17.271-9.802,4.933-2.957,9.872-5.904,14.808-8.857,6.569-3.929,.589-14.227-6.009-10.281Z" fill="#51512e"/>
        <path d="M217.262,103.459c-5.198,2.573-8.941,7.382-13.836,10.27-4.856,2.093-10.325,1.154-13.202,6.534-3.612,6.755,6.662,12.776,10.281,6.009,7.555,1.094,15.91-8.111,22.767-12.533,6.578-3.916,.597-14.214-6.009-10.28Z" fill="#51512e"/>
      </g>
    </g>
  </g>
</svg>