<svg width="53" height="37" viewBox="0 0 53 37" fill="none" xmlns="http://www.w3.org/2000/svg">
	<path d="M21.7941 19.288C20.4243 20.7595 18.5658 21.9181 17.093 23.325C16.3341 24.05 15.3471 24.6566 14.6646 25.428C14.1803 25.9754 13.4813 26.3447 13.0283 26.9181C12.3509 27.7756 12.2982 28.8029 13.4049 29.3699C14.3134 29.8354 16.0094 29.649 16.8593 29.1796C19.5333 27.703 20.7912 24.9188 23.4564 23.4729C24.3102 23.0097 24.9134 22.529 25.9757 22.8283C26.6509 23.0185 27.5086 23.1876 28.2224 23.1876C29.2328 23.1876 29.7607 22.5064 30.4171 21.9723C31.1765 21.3543 31.8499 20.6999 32.6378 20.1229C33.2155 19.6998 30.8506 18.724 30.5599 18.5483C29.1398 17.6898 27.6682 16.8839 26.2355 16.0331C25.6424 15.6809 24.923 15.1534 24.2485 14.9182C23.9118 14.8007 23.4226 14.3586 23.0798 14.3422C22.6717 14.3227 22.0204 15.0141 21.7357 15.2458C21.2663 15.6277 20.863 15.9976 20.5085 16.4558C19.7749 17.4038 20.946 17.6462 21.4175 18.3369C21.6305 18.6488 21.9373 18.8957 21.7292 19.2827C21.54 19.6347 21.3094 19.9678 20.976 20.2391" stroke="#545454" stroke-width="3" stroke-linecap="round" stroke-linejoin="round" />
	<path d="M20.5088 16.9102C21.6563 17.4748 22.6522 18.2306 23.8333 18.7384C24.9764 19.2298 26.19 19.6885 27.2228 20.3289C27.7192 20.6367 28.4338 21.0869 28.9824 21.2853C29.3263 21.4097 29.5385 21.6305 29.859 21.7609" stroke="#545454" stroke-width="3" stroke-linecap="round" stroke-linejoin="round" />
	<path d="M23.3135 14.1528C24.2637 13.1416 24.927 12.0575 25.7679 10.993C26.1143 10.5545 26.4972 9.20703 27.3458 9.20703C27.8172 9.20703 28.614 10.263 28.6899 10.2321C29.2196 10.0166 29.8052 9.39725 30.443 9.39725C30.6735 9.39725 31.0357 9.81419 31.2677 9.92037C31.6137 10.0788 31.9397 10.1913 32.2546 10.3906C32.6228 10.6236 32.1094 11.163 31.9624 11.4686C31.7201 11.9726 31.5919 12.4744 31.404 12.9904C31.231 13.4657 32.4111 12.6359 32.5338 12.5359C33.1807 12.0095 33.7592 11.3487 34.6506 11.9653C35.0178 12.2192 35.6859 12.3816 36.1441 12.5148C36.6082 12.6497 36.8156 13.0336 37.2804 13.2017C37.6128 13.322 38.2639 13.9525 38.5076 14.2004C38.9493 14.6497 39.8023 14.9425 39.5335 15.6535C39.3292 16.1939 39.4879 16.5515 38.7413 16.7684C37.3705 17.1668 36.0653 17.7954 34.7675 18.3378C34.3817 18.499 33.9809 18.6275 33.5987 18.7922C33.3776 18.8874 33.0748 19.2783 32.839 19.2783C32.4827 19.2783 31.6894 18.2746 31.9884 18.0313C33.3602 16.915 35.0005 16.1506 36.6375 15.3365C36.9972 15.1576 38.0863 14.2667 38.5076 14.4382" stroke="#545454" stroke-width="3" stroke-linecap="round" stroke-linejoin="round" />
	<path d="M13.4961 28.5141C14.0761 28.8573 14.4397 28.8945 15.1324 28.8945C15.6964 28.8945 15.9405 28.6555 16.418 28.4612C16.9297 28.253 17.5653 27.6513 17.8855 27.2723C18.3678 26.7014 19.0798 26.262 19.5997 25.7135C21.185 24.0412 22.9387 21.9513 25.7423 21.9513C26.2185 21.9513 26.6946 21.9513 27.1708 21.9513C27.6382 21.9513 28.022 22.1416 28.5019 22.1416C29.0139 22.1416 27.6073 21.7309 27.1318 21.5762C26.6871 21.4314 26.2169 21.1088 25.7683 20.9262C24.8747 20.5627 24.1579 20.2082 23.3723 19.7109C23.1639 19.5791 22.3326 18.8518 22.5866 19.3833C22.7181 19.6586 22.0622 20.1597 21.8529 20.2922C20.7666 20.9797 19.9394 21.8635 18.9893 22.6594C17.6843 23.7527 16.5123 25.0191 15.3012 26.1838C15.0479 26.4274 13.1227 27.9777 13.6389 28.3978C13.9132 28.621 14.7674 28.3139 15.0155 28.2076C15.8005 27.8714 16.4505 27.1561 17.0674 26.6541C18.2944 25.6556 19.4024 24.5742 20.6256 23.5788C21.5066 22.8619 22.4964 22.2379 23.4047 21.5498C23.8458 21.2156 24.4171 20.9246 25.041 20.9051C25.2345 20.8991 25.7162 20.9195 25.8592 21.0214C26.032 21.1444 25.4121 20.931 25.1839 20.9104C24.235 20.8246 23.5736 20.4298 22.6061 20.8628C21.0379 21.5647 19.8307 22.8828 18.7036 23.9698C17.6283 25.007 16.5318 26.0219 15.4895 27.0821C15.2067 27.3697 14.7045 28.0699 14.3142 28.2287" stroke="#D27C2C" stroke-width="3" stroke-linecap="round" stroke-linejoin="round" />
	<path d="M27.404 9.9668C27.092 10.2286 26.0164 11.3292 26.1248 11.7264C26.1878 11.9569 26.5153 11.6238 26.6508 11.5837C27.1026 11.45 27.524 11.3636 27.9884 11.2772C29.2318 11.0459 28.6771 12.0783 28.2871 12.5771C27.8013 13.1982 29.6678 12.2267 30.0337 12.3921C30.7045 12.6954 30.0339 13.5972 29.8844 14.0566C29.7739 14.3964 29.398 15.0672 30.0402 14.9179C30.6557 14.7748 31.2023 14.3479 31.7285 14.0355C32.5335 13.5574 33.3754 12.9013 34.2998 12.6088C34.6824 12.4877 35.7001 13.2798 36.0465 13.4384C36.4952 13.6438 37.517 14.0305 36.988 14.4371C36.3567 14.9222 35.2977 15.184 34.54 15.5308C34.3439 15.6206 33.7637 16.0148 34.066 15.5995C34.2402 15.3603 34.4399 14.8472 34.2349 14.585C33.8235 14.059 32.8574 13.9179 32.196 14.1729C31.6411 14.3867 32.7396 13.853 32.8713 13.7924C33.3674 13.5642 33.9046 13.3908 34.4751 13.3908C35.1689 13.3908 34.6254 14.2897 35.2608 14.1306C35.4079 14.0937 36.0739 14.0069 35.8776 14.2944C35.7496 14.4819 35.6637 14.5164 35.9361 14.6273" stroke="#699BF7" stroke-width="3" stroke-linecap="round" stroke-linejoin="round" />
	<path d="M35.3525 17.0052C35.8626 16.4573 36.5612 16.2368 37.281 15.9114C37.4843 15.8195 38.4764 15.3282 38.5082 15.7687C38.5429 16.2485 37.3207 16.42 36.9304 16.667C36.7054 16.8094 36.4165 16.8423 36.1707 16.9312C36.0281 16.9828 35.4835 17.184 35.5863 17.1003" stroke="#699BF7" stroke-width="3" stroke-linecap="round" stroke-linejoin="round" />
	<path d="M33.4824 12.9156C33.3016 12.973 30.8242 13.8059 30.7942 13.3912C30.7714 13.0757 31.1154 12.7846 31.1448 12.4612C31.1748 12.1319 31.2617 11.8269 31.2617 11.4889C31.2617 11.2446 31.2893 11.0804 31.4695 10.8971C31.6133 10.7509 31.0417 10.5698 30.9111 10.5167C30.7626 10.4562 30.3506 10.1313 30.2098 10.1785C29.8297 10.3058 29.6141 10.5535 29.2748 10.7069C28.4284 11.0896 28.3944 10.7196 27.8463 10.2736C27.5527 10.0347 27.4394 10.3079 27.3138 10.5378C27.1353 10.8647 27.5758 10.927 27.8463 10.9922C28.3483 11.1133 28.7992 10.954 29.2228 11.2987C29.4099 11.451 29.5741 11.9934 29.8592 11.7743C30.0286 11.644 30.4703 11.1259 30.7682 11.3198C31.0473 11.5015 30.7942 11.8195 30.7942 12.0596" stroke="#699BF7" stroke-width="3" stroke-linecap="round" stroke-linejoin="round" />
	<path d="M21.9111 15.7695C22.5704 16.0542 23.0704 16.5304 23.7162 16.8158C24.2142 17.0357 24.7238 17.2159 25.1902 17.4815C26.0548 17.9741 27.1171 18.2442 27.8979 18.8342C28.5117 19.2981 29.4966 19.8557 30.2679 20.0971C30.4864 20.1655 31.5117 20.7018 31.612 20.6202" stroke="#545454" stroke-width="3" stroke-linecap="round" stroke-linejoin="round" />
	<path d="M25.1836 14.8181C26.0447 13.6861 27.0444 12.6105 27.9302 11.4892C28.1088 11.2631 28.4635 11.0158 28.573 10.7706C28.6711 10.5511 28.9079 10.164 29.1574 10.0625" stroke="#545454" stroke-width="3" stroke-linecap="round" stroke-linejoin="round" />
	<path d="M26.9365 16.1487C27.3601 15.3687 28.0643 14.6722 28.6377 13.9611C29.1884 13.2782 29.8167 12.6219 30.4429 11.9849C30.7902 11.6316 31.1597 11.2853 31.5532 10.9651C31.7037 10.8426 31.9968 10.6711 32.0791 10.5371" stroke="#545454" stroke-width="3" stroke-linecap="round" stroke-linejoin="round" />
	<path d="M29.041 17.3856C29.8322 16.993 30.7711 16.5378 31.4305 16.0012C31.8702 15.6434 32.2629 15.289 32.7811 15.0078" stroke="#545454" stroke-width="3" stroke-linecap="round" stroke-linejoin="round" />
	<path d="M31.2617 18.4317C32.4491 17.1562 34.5034 16.7959 36.0537 15.8848C36.6402 15.5401 37.3533 15.2304 37.9822 14.9548C38.2338 14.8445 38.8377 14.4284 39.0925 14.5321" stroke="#545454" stroke-width="3" stroke-linecap="round" stroke-linejoin="round" />
</svg>
