<svg width="109" height="49" viewBox="0 0 109 49" fill="none" xmlns="http://www.w3.org/2000/svg">
<path d="M100.692 10.2988C100.692 16.2085 101.143 22.1105 101.143 28.0242C101.143 30.6661 101.34 33.2766 101.56 35.9097C101.696 37.5469 101.419 39.2226 101.86 40.8365C101.988 41.306 102.043 42.0073 102.043 42.4787C102.043 42.9691 102.894 42.6984 103.252 42.6619C104.448 42.5403 105.633 42.5466 106.847 42.5466" stroke="#545454" stroke-width="3" stroke-linecap="round" stroke-linejoin="round"/>
<path d="M2.22381 7C1.72024 9.56119 2.22381 12.1212 2.22381 14.7091C2.22381 17.6 2.22381 20.4908 2.22381 23.3817C2.22381 26.3168 1.66101 29.6152 2.37391 32.5159C2.84047 34.4143 2.82423 36.8048 2.82423 38.7456C2.82423 39.7612 3.05959 40.741 3.12443 41.6908C3.22345 43.1412 4.16183 41.6045 5.22589 41.9893C6.68638 42.5176 8.98767 42.1794 10.5629 42.1794C14.8149 42.1794 18.9921 41.9351 23.2384 41.9351C29.6643 41.9351 36.0293 42.4237 42.4517 42.4237C46.6729 42.4237 50.8374 41.7306 55.0605 41.9215C58.811 42.091 62.5791 42.4237 66.3349 42.4237C69.5197 42.4237 72.7293 42.8763 75.9083 42.9123C80.5046 42.9642 85.0806 42.3908 89.5844 41.6908C93.7101 41.0495 97.9484 41.2022 102.126 41.2022C102.862 41.2022 105.74 40.868 106.096 41.4465" stroke="#545454" stroke-width="3" stroke-linecap="round" stroke-linejoin="round"/>
<path d="M43.5029 32.4075C46.2096 31.9355 48.9609 31.2465 51.5418 30.4531C53.538 29.8394 55.6002 30.02 57.6127 29.6659C61.1063 29.0512 64.2289 27.5749 67.5863 26.7343C69.6704 26.2125 71.9722 25.1815 74.1242 25.0785C74.5842 25.0564 74.7246 24.6479 74.7246 24.3456C74.7246 23.7164 74.907 23.8257 75.2583 23.3684C75.8406 22.6102 77.2193 22.0958 78.1603 21.6583C80.2198 20.7006 78.4606 20.1318 78.0436 18.6045C77.7794 17.6373 76.4558 18.238 75.4751 18.238C74.3672 18.238 73.668 17.929 72.7566 17.5051C72.0505 17.1768 71.1181 16.4813 70.8052 17.6273C70.5278 18.6433 70.5217 19.605 70.5217 20.681C70.5217 22.6994 72.6326 23.6165 74.4244 24.3456" stroke="#545454" stroke-width="3" stroke-linecap="round" stroke-linejoin="round"/>
<path d="M78.0264 18.2373C78.8177 17.986 81.2168 16.902 81.9291 17.6266C82.068 17.768 84.8825 18.3436 84.7977 18.4816C84.5787 18.8382 82.2526 19.4589 81.779 19.4589C80.9422 19.4589 79.5982 19.8322 79.2272 20.4361" stroke="#545454" stroke-width="3" stroke-linecap="round" stroke-linejoin="round"/>
<path d="M78.7773 18.2375C79.4513 18.1171 80.2579 17.9463 80.8788 17.7217C81.3338 17.5572 81.9423 18.0335 82.4632 18.1425C83.1117 18.2782 83.8177 18.6039 84.4813 18.6039C85.2273 18.6039 83.0926 19.0652 82.4632 19.3911C81.7676 19.7513 80.1202 20.6204 79.8197 19.5201C79.6983 19.0755 79.29 18.6039 80.1366 18.6039C80.4744 18.6039 82.1629 18.4951 82.2297 18.6039" stroke="#FFC700" stroke-width="3" stroke-linecap="round" stroke-linejoin="round"/>
<path d="M81.3291 17.2617C82.001 17.4884 83.0158 17.7082 83.5807 18.1168C83.9651 18.3949 84.5666 18.6054 85.0817 18.6054" stroke="#D27C2C" stroke-width="3" stroke-linecap="round" stroke-linejoin="round"/>
<path d="M42.3015 25.4451C39.8528 26.9547 41.4411 30.0153 43.3856 31.2812C43.7817 31.539 44.6362 31.1414 45.0784 31.0029C46.052 30.6982 47.1451 30.3933 48.1556 30.1818C49.2467 29.9535 50.0965 29.4275 51.2327 29.3471C52.2916 29.2722 53.4261 29.0305 54.46 28.8382C58.1615 28.1497 61.5449 26.5166 65.3008 25.9608C66.2113 25.8261 67.4323 25.9226 68.2779 25.6215C69.0517 25.346 69.7755 25.009 70.5211 24.7393C70.9619 24.5799 71.4911 24.6129 71.9471 24.4068C72.2811 24.2558 71.9084 24.5405 71.7553 24.4407C71.5861 24.3306 71.3346 24.176 71.2049 24.0404C70.3418 23.1373 69.7706 22.221 69.7706 21.0477C69.7706 20.741 69.5726 20.4291 69.6288 20.1315C69.6889 19.8139 69.7863 19.5743 69.7706 19.2426C69.7605 19.0299 69.6369 18.8312 69.6205 18.6047C69.604 18.3764 69.1629 18.6858 69.0117 18.7268C67.1994 19.2184 65.4623 19.8154 63.608 20.1926C62.5618 20.4055 61.4931 20.6518 60.4641 20.9255C59.1937 21.2635 57.8508 21.5374 56.6281 21.9638C54.3511 22.7579 51.8739 23.1217 49.5899 23.9182C48.7054 24.2267 47.7389 24.3891 46.8046 24.5629C46.3792 24.642 45.902 24.6308 45.4871 24.7393C45.0569 24.8519 44.6311 25.1282 44.1862 25.194C43.6075 25.2796 42.98 25.3414 42.4516 25.5944C42.005 25.8082 41.8512 27.026 41.8512 27.3927C41.8512 28.1577 42.3986 29.4017 43.052 29.9647C43.2495 30.1348 43.7221 30.8285 43.9527 30.4533" stroke="#FFC700" stroke-width="3" stroke-linecap="round" stroke-linejoin="round"/>
<path d="M43.8027 28.7433C44.6585 28.2517 45.7981 28.0146 46.8048 27.7932C47.4525 27.6507 47.9608 27.2772 48.5727 27.0603C49.2102 26.8344 49.8984 26.6859 50.5491 26.4835C53.1902 25.6617 55.9058 25.2086 58.5963 24.5291C59.9645 24.1835 61.2462 23.6953 62.499 23.1243C63.3008 22.759 64.2958 22.6359 65.0842 22.2693C65.5536 22.051 65.9654 21.9973 66.3934 21.7264C66.7163 21.522 67.1392 21.273 67.5192 21.1699" stroke="#FFC700" stroke-width="8" stroke-linecap="round" stroke-linejoin="round"/>
<path d="M43.0518 27.0327C44.7827 26.5632 46.5145 26.1904 48.222 25.6619C50.1295 25.0716 52.0457 24.2136 54.0427 23.8568C54.9451 23.6956 55.8843 23.6776 56.7946 23.5447C57.676 23.4159 58.5082 23.1373 59.4131 23.1239C60.1564 23.1129 61.5638 23.0419 62.115 23.4904" stroke="#FFC700" stroke-width="8" stroke-linecap="round" stroke-linejoin="round"/>
<path d="M48.9062 29.2322C50.4467 29.1765 51.9713 28.6327 53.4594 28.3229C54.7361 28.0571 56.0177 27.9978 57.2287 27.5221C57.9451 27.2407 58.7033 27.0209 59.4469 26.7892C60.5509 26.4451 61.6334 25.9057 62.7492 25.622C64.304 25.2266 65.7927 24.7884 67.2773 24.2308C67.7182 24.0653 68.6514 23.9692 68.8701 23.6133" stroke="#FFC700" stroke-width="8" stroke-linecap="round" stroke-linejoin="round"/>
<path d="M42.1518 24.5898C41.2534 25.1216 40.3506 25.8699 40.3506 26.8564C40.3506 27.8233 40.7534 28.6125 40.951 29.5369C41.1318 30.3829 41.8234 31.0702 42.3853 31.7696C42.7486 32.2217 43.5304 32.5745 43.803 33.0182" stroke="#545454" stroke-width="3" stroke-linecap="round" stroke-linejoin="round"/>
<path d="M43.6523 32.897C44.7633 32.0187 46.0787 31.812 47.4883 31.3769C48.7371 30.9914 50.0386 30.76 51.3077 30.454C52.3438 30.2041 53.4501 30.215 54.4682 29.9043C55.6638 29.5395 56.9267 29.3777 58.1374 29.0492C60.6461 28.3687 63.2821 28.008 65.7844 27.2781C66.9758 26.9305 68.0265 26.326 69.2451 25.9955C70.0473 25.7779 70.9076 25.6351 71.7218 25.4458C72.1481 25.3467 72.5204 25.1298 72.9227 24.9843C73.2201 24.8768 74.2071 24.8351 73.8816 24.8351C72.909 24.8351 71.928 23.5426 71.505 22.9756C70.2574 21.3035 69.735 19.0295 70.8212 17.2617" stroke="#545454" stroke-width="3" stroke-linecap="round" stroke-linejoin="round"/>
<path d="M42.1514 25.6893C43.1497 25.2137 44.1174 25.0972 45.1868 24.8071C46.2902 24.5078 47.4758 24.0614 48.6058 23.857C49.8963 23.6237 51.1918 23.4021 52.4418 23.0631C53.0862 22.8883 53.8243 22.7294 54.4933 22.6084C55.3206 22.4588 56.0495 22.0591 56.8616 21.8755C58.1159 21.5919 59.3454 21.1172 60.6142 20.8304C61.8957 20.5407 63.373 20.2128 64.5836 19.765C65.4432 19.447 66.4091 19.3563 67.2855 19.0321C67.8954 18.8065 68.6418 18.4824 69.3202 18.4824" stroke="white" stroke-width="3" stroke-linecap="round" stroke-linejoin="round"/>
<path d="M42.0013 26.5448C41.894 26.7686 41.2986 28.2695 42.1514 27.8613C43.2613 27.33 44.2832 26.8603 45.4537 26.4226C46.7431 25.9405 48.2956 25.8464 49.5399 25.2961C51.1588 24.5801 53.123 23.9514 54.8769 23.491C55.9327 23.2139 56.9938 22.9335 57.9957 22.5409C58.8586 22.2029 59.8363 22.0912 60.6976 21.7538C61.9312 21.2704 63.2424 20.7522 64.5503 20.4101C65.3088 20.2117 66.2733 19.7403 67.0687 19.7043C67.6249 19.6792 68.0715 19.3379 68.5698 19.3379" stroke="white" stroke-width="3" stroke-linecap="round" stroke-linejoin="round"/>
<path d="M42.9023 26.299C44.716 25.7498 46.5642 25.2757 48.3811 24.7178C49.3732 24.4131 50.3404 24.1792 51.2748 23.7609C51.771 23.5389 52.2595 23.2349 52.8092 23.123" stroke="white" stroke-width="3" stroke-linecap="round" stroke-linejoin="round"/>
<path d="M49.957 23.7356C51.2653 23.2899 52.4513 22.7116 53.8264 22.3919C54.7907 22.1677 55.7747 21.9864 56.7201 21.7201C58.6869 21.1661 60.6549 20.6688 62.5991 20.071C63.2892 19.8589 64.0682 19.7968 64.784 19.6096C65.4752 19.4288 66.216 19.2209 66.9188 19.0938C67.6885 18.9547 68.547 18.3239 69.3205 18.3609C69.6253 18.3755 69.1809 20.0424 69.087 20.0643C67.9866 20.3201 66.7824 20.4863 65.6846 20.804C62.3026 21.7825 58.4211 21.9407 55.2107 23.247" stroke="white" stroke-width="3" stroke-linecap="round" stroke-linejoin="round"/>
<path d="M43.5029 31.5532C44.3332 31.1577 45.6913 30.6812 46.6551 30.5692C47.6624 30.4521 48.6295 30.0514 49.6572 29.9584C52.2853 29.7208 54.9251 28.7714 57.4626 28.228C59.0748 27.8827 60.5324 27.1339 62.1158 26.7825C62.8999 26.6085 63.7865 26.3052 64.5509 26.0564C65.2304 25.8352 65.9173 25.7875 66.619 25.6289C67.0519 25.531 71.2706 24.2215 71.4223 24.4684" stroke="#D27C2C" stroke-width="3" stroke-linecap="round" stroke-linejoin="round"/>
<path d="M39.7494 26.0547C37.9139 26.6376 36.0813 27.1099 34.2706 27.7648C33.9809 27.8696 32.8621 28.0176 32.8446 28.1312C32.7213 28.934 32.8025 29.6218 33.2199 30.4521C34.1511 32.3046 35.2244 33.7855 37.3477 34.7002C37.9326 34.9522 39.4536 33.7803 40.0413 33.4516C40.5945 33.1421 41.1227 32.5287 41.8508 32.5287" stroke="#FFC700" stroke-width="3" stroke-linecap="round" stroke-linejoin="round"/>
<path d="M32.6953 31.4297C32.5518 31.5009 31.3182 31.9563 31.4278 32.2237C31.6511 32.7689 31.8792 33.2027 32.3117 33.6827C32.903 34.3388 32.7903 34.3677 33.8211 33.9948C34.4143 33.7803 33.7654 32.6813 33.2957 32.434C32.7361 32.1394 32.1958 33.0176 32.9955 33.0176" stroke="#FFC700" stroke-width="3" stroke-linecap="round" stroke-linejoin="round"/>
<path d="M39.1492 26.9102C39.1492 27.879 39.2829 29.1197 39.7829 30.0182C40.007 30.421 40.1066 30.8572 40.35 31.2533C40.5107 31.5148 40.808 31.7187 40.9504 31.9794C41.2324 32.4957 40.1137 32.8279 39.5995 33.0448C39.1725 33.225 37.8364 34.0394 37.2729 33.6827C36.1487 32.9712 35.395 31.6695 35.0213 30.5882C34.7489 29.8002 34.7435 29.2688 34.7961 28.4981C34.8401 27.8539 35.9593 28.1515 36.4389 27.8263C36.7281 27.6302 36.306 28.6708 36.2972 28.6949C36.2124 28.9266 35.5062 30.6044 35.997 30.7375C36.2805 30.8145 37.3042 28.6894 37.4313 28.4574C37.9713 27.4717 37.7465 28.2962 37.6148 28.9053C37.3937 29.9272 36.9032 31.3366 37.2312 32.3798C37.443 33.0538 38.4718 30.9938 38.5321 30.8325C38.6476 30.5236 38.9049 29.5801 38.7656 29.8825C38.5136 30.4291 38.4118 31.4707 38.5821 32.0405C38.6719 32.3409 39.6427 31.7642 39.2325 31.2397C38.812 30.7019 39.0048 29.8932 38.8406 29.2921C38.714 28.8286 37.6633 28.6063 37.2312 28.4031C36.5242 28.0707 36.0703 27.8673 35.3215 28.0027C34.9156 28.0761 34.025 28.4262 33.8955 28.7424" stroke="#FFC700" stroke-width="3" stroke-linecap="round" stroke-linejoin="round"/>
<path d="M35.6973 33.9956C36.2216 34.3188 36.7097 34.5347 37.2734 34.7895C37.6281 34.9499 39.0708 34.1298 39.4832 33.9956C39.8932 33.8621 42.3018 33.1344 42.3018 32.6519C42.3018 32.4321 41.8319 32.1749 41.6264 32.0412C41.2506 31.7965 40.718 32.2178 40.3505 32.4076C39.4962 32.8488 38.6061 33.2003 37.6403 33.4459C37.3352 33.5235 36.5777 33.5398 36.4478 33.7513" stroke="#D27C2C" stroke-width="3" stroke-linecap="round" stroke-linejoin="round"/>
<path d="M32.5449 27.7659C34.4301 27.1593 36.3398 26.9063 38.2489 26.4493C38.3987 26.4135 39.5831 26.0991 39.5831 26.2458C39.5831 26.5681 39.3232 26.9313 39.2996 27.2773C39.2698 27.7132 38.7417 27.7659 38.3239 27.7659C37.5307 27.7659 36.5458 28.0725 35.7638 28.2273C35.1597 28.3469 34.3673 28.4349 33.8208 28.682C33.5819 28.79 32.8127 28.8652 32.8451 28.8652" stroke="white" stroke-width="3" stroke-linecap="round" stroke-linejoin="round"/>
<path d="M40.9511 24.5898C40.1919 27.756 41.8627 30.8329 43.9531 33.3847" stroke="#545454" stroke-width="3" stroke-linecap="round" stroke-linejoin="round"/>
<path d="M43.0525 32.6511C41.8907 33.0431 40.8751 33.759 39.8169 34.307C39.1822 34.6356 38.4432 35.2624 37.6487 35.3384C37.4377 35.3587 37.2036 35.6276 36.9816 35.576C36.7304 35.5175 36.4303 35.2292 36.2228 35.0941C35.2471 34.459 34.5701 33.6802 34.0129 32.7733C33.3322 31.6654 32.6953 30.7458 32.6953 29.482C32.6953 29.1379 32.7297 27.9061 33.1456 27.8873C33.7195 27.8613 34.4758 27.4857 35.0219 27.3376C36.0425 27.0608 36.947 26.5621 37.949 26.245C38.6956 26.0087 39.7259 25.5664 40.5007 25.5664" stroke="#545454" stroke-width="3" stroke-linecap="round" stroke-linejoin="round"/>
<path d="M32.545 30.5742C31.8784 30.8067 31.2405 31.1118 30.5936 31.375C30.4411 31.437 30.0562 31.5859 30.0016 31.7414C29.7202 32.5427 30.9392 33.5165 31.4609 34.0623C31.9658 34.5905 32.058 34.767 32.8535 34.6052C33.3921 34.4956 33.7519 34.2973 34.1961 34.1166" stroke="#545454" stroke-width="3" stroke-linecap="round" stroke-linejoin="round"/>
<path d="M41.1006 24.834C42.293 24.8103 43.7295 24.3804 44.8449 24.04C46.1233 23.6499 47.4667 23.3983 48.7559 23.0289C50.1752 22.6222 51.7307 22.3482 53.2006 22.0856C55.1965 21.7291 57.1261 21.1197 59.0464 20.5587C60.521 20.128 62.0522 19.804 63.4995 19.3101C64.6797 18.9073 65.8397 18.4546 67.0686 18.1768C68.2298 17.9143 69.3898 17.6897 70.521 17.3828" stroke="#545454" stroke-width="3" stroke-linecap="round" stroke-linejoin="round"/>
<path d="M70.9713 17.5039C70.1502 19.1547 69.6163 20.8918 70.8963 22.5121C71.591 23.3915 72.4382 24.2536 73.6732 24.5886" stroke="#545454" stroke-width="3" stroke-linecap="round" stroke-linejoin="round"/>
<path d="M71.7217 21.4136C71.8796 21.7236 73.2056 23.572 73.9399 22.9745C74.8506 22.2334 75.9189 21.4977 77.0504 20.9861C77.5044 20.7809 77.4354 20.5586 76.9003 20.5586C76.4672 20.5586 75.6969 20.8787 75.3242 21.0472C74.2098 21.551 73.3927 21.2915 72.3221 21.2915" stroke="#FFC700" stroke-width="3" stroke-linecap="round" stroke-linejoin="round"/>
<path d="M73.9736 23.4896C74.6047 22.8116 75.7897 21.5352 76.9757 21.5352" stroke="#D27C2C" stroke-width="3" stroke-linecap="round" stroke-linejoin="round"/>
<path d="M73.6731 24.5904C72.4109 23.9891 71.5067 23.5839 71.0463 22.3849C70.632 21.306 70.302 20.4962 70.5209 19.3379" stroke="#545454" stroke-width="3" stroke-linecap="round" stroke-linejoin="round"/>
<path d="M74.2734 24.8347C74.5565 23.5806 75.746 22.597 77.042 21.9642C77.6638 21.6606 78.6233 21.0864 79.377 21.0481C79.5473 21.0394 79.1004 20.7008 79.0017 20.6205C78.5482 20.2514 78.2059 19.841 77.8259 19.4194C77.5201 19.0801 77.3412 17.9676 77.8759 17.75" stroke="#545454" stroke-width="3" stroke-linecap="round" stroke-linejoin="round"/>
</svg>
