<svg width="42" height="23" viewBox="0 0 42 23" fill="none" xmlns="http://www.w3.org/2000/svg">
<path d="M25.3777 7.14437C28.0334 4.31833 33.6003 1.39178 38.0738 2.05367C42.7614 2.74725 36.7184 5.26323 35.0267 6.12999C33.0677 7.13373 28.8066 8.69032 26.4396 8.13997C23.6094 7.48194 20.3783 7.37689 17.2523 7.83942C15.5176 8.09608 10.0905 9.70922 13.6512 10.6008C15.2247 10.9948 17.7983 10.8432 19.3529 10.3566C20.7063 9.93298 22.8979 10.2718 24.0389 9.43613C24.2268 9.29846 26.0702 8.19628 26.2087 8.30904C26.5078 8.55237 26.7675 10.5343 27.0398 11.0328C27.5989 12.0567 29.9356 15.6735 28.494 16.612C27.614 17.1849 27.167 18.5133 25.9779 19.1291C24.5527 19.8672 22.5792 20.3314 20.8995 20.3314C18.9555 20.3314 15.0868 20.7701 14.5515 18.8098C13.9487 16.6025 12.0815 14.1465 12.0815 11.8782C12.0815 10.8109 11.7976 10.9232 12.1046 12.0472C12.3233 12.848 12.5778 13.9595 13.4204 14.5081C15.216 15.6771 21.3034 13.8777 23.0924 13.2307C25.2678 12.4439 27.4553 10.4613 27.4553 13.7379C27.4553 15.5616 22.904 17.1772 21.1303 17.2882C19.5307 17.3883 18.0815 17.9645 16.4443 17.9645C15.755 17.9645 13.6393 17.9645 13.7435 17.9645" stroke="#545454" stroke-width="3" stroke-linecap="round" stroke-linejoin="round"/>
<path d="M19.1456 10.8647C18.5658 9.65551 18.1699 8.43276 17.0681 7.48337C16.3142 6.83382 14.7331 6.54523 14.1595 5.96179C13.3191 5.10692 9.27356 5.42187 9.17343 6.80711C9.10385 7.76969 10.3934 7.77431 11.251 8.08449C11.7292 8.25745 12.2005 8.2738 12.6822 8.49775C13.1866 8.73234 12.3853 8.97536 12.082 8.66682C11.2486 7.8191 6.0165 8.88068 6.77272 10.1884C7.42197 11.3111 10.531 10.1884 11.8742 10.1884C13.8707 10.1884 15.9066 10.2838 17.8991 10.1884C18.5383 10.1578 15.2186 6.71687 13.9518 6.48777C13.0176 6.31884 11.6674 6.39347 10.8355 6.73197C9.02203 7.46983 11.9825 6.87368 11.8742 7.31431C11.6852 8.08351 14.0108 6.4032 13.3285 7.65243C13.0135 8.22923 13.1439 8.09774 13.744 7.89664C14.2787 7.71748 14.0319 8.4425 14.575 8.49775C15.143 8.55553 16.13 8.89903 16.5602 9.24915C17.145 9.72503 15.5239 8.1554 14.8059 7.8215C13.1122 7.03394 19.1501 9.65094 17.0681 9.85027C14.8129 10.0662 12.5746 10.1884 10.2122 10.1884C9.9532 10.1884 7.55757 10.9169 7.55757 10.3575C7.55757 9.89607 9.995 9.85027 10.42 9.85027C11.1244 9.85027 16.4149 10.7074 15.406 9.6812C14.4813 8.74057 10.3799 9.79572 9.17343 9.85027C7.41599 9.92972 13.2737 8.92505 13.3285 8.83588" stroke="#699BF7" stroke-width="3" stroke-linecap="round" stroke-linejoin="round"/>
<path d="M26.625 6.80582C26.6748 6.79669 29.9817 5.79143 28.7025 5.79143C28.0307 5.79143 27.3142 7.10637 27.6869 7.10637C28.2734 7.10637 29.6829 5.60358 29.4412 5.60358C28.5382 5.60358 27.597 7.27145 27.2713 7.80142C26.8045 8.56119 32.3031 4.21394 29.5335 6.46769C27.079 8.46513 34.0386 3.88326 31.1956 5.04004C29.3299 5.79917 30.4319 6.76201 29.3258 7.48207C28.6145 7.94515 30.5381 7.65049 30.7801 7.55721C31.7745 7.17387 32.7049 6.71769 33.6886 6.31741C34.3673 6.04127 38.0563 4.4168 37.6129 3.57481C37.0563 2.51801 34.0245 3.15998 33.0654 3.5936C32.2776 3.94975 29.118 4.62795 29.118 5.4533C29.118 6.59451 33.9397 5.07573 34.5196 4.85219C35.362 4.52749 36.1596 4.14633 37.0127 3.8378C37.8793 3.52438 38.1448 3.17571 37.2204 3.5936C35.6638 4.29735 33.2488 4.3791 32.0266 5.62237C31.0685 6.59694 35.0659 4.58215 35.6738 4.02565C36.0735 3.65978 33.7812 4.42337 33.5039 4.60798C33.1783 4.82481 31.256 6.04351 32.0266 5.4533C34.3072 3.70659 32.3439 4.76172 31.2879 5.86657C30.8695 6.30436 32.3677 5.51387 32.1882 5.65994C31.6613 6.08872 31.1956 6.54254 31.1956 7.14394" stroke="#699BF7" stroke-width="3" stroke-linecap="round" stroke-linejoin="round"/>
<path d="M14.1592 14.9218C18.0025 14.9218 21.2359 13.5681 24.9624 13.2311C26.3756 13.1033 27.1825 11.9347 27.0399 13.9074C26.9561 15.0663 24.7292 14.8208 24.1313 15.429C23.6792 15.8888 20.8873 16.4247 20.1609 16.5936C19.0088 16.8615 17.3597 17.6805 16.2367 17.6268C15.5417 17.5935 13.9911 15.932 14.5747 16.1991C16.4114 17.0399 17.8799 16.231 19.7454 15.9549C21.3956 15.7108 22.7404 14.9312 24.316 14.5648C25.4784 14.2946 26.5231 13.6611 24.7315 13.9262C21.5258 14.4005 12.8709 17.4729 15.1749 15.598C15.3412 15.4627 18.7862 15.2599 19.1453 15.2599C20.251 15.2599 22.543 14.8509 23.5081 14.4146C24.1773 14.112 27.261 14.132 25.5625 14.9218C24.284 15.5163 22.6178 15.2196 21.2228 15.598" stroke="#699BF7" stroke-width="3" stroke-linecap="round" stroke-linejoin="round"/>
<path d="M17.8994 7.82031C18.5055 8.4516 19.4243 9.84908 20.3925 9.84908C21.3755 9.84908 22.1253 9.51095 23.0933 9.51095C25.3331 9.51095 25.8025 8.15844 23.0933 8.15844C22.3291 8.15844 17.8064 7.97452 19.9769 8.75956C20.6116 8.98911 21.2041 9.44455 21.4312 9.34189C21.7487 9.19835 23.1666 9.17282 23.7165 9.17282" stroke="#545454" stroke-width="3" stroke-linecap="round" stroke-linejoin="round"/>
<path d="M20.8076 9.17235C21.9587 8.80682 22.9122 8.49609 24.1317 8.49609" stroke="#545454" stroke-width="3" stroke-linecap="round" stroke-linejoin="round"/>
<path d="M37.843 3.08625C37.0946 5.79281 31.1548 8.15817 27.8708 8.15817C25.4665 8.15817 25.5876 6.87189 27.1321 5.86642C28.4439 5.01242 30.6462 4.86356 31.9335 4.0255C33.5817 2.95249 41.6879 1.8181 37.7506 4.70175C35.4129 6.41389 31.017 8.83443 27.8708 8.83443C27.4473 8.83443 25.9251 8.37452 25.8163 8.68415C25.6024 9.2934 26.5785 10.1929 26.6243 10.8632C26.7149 12.1908 27.7808 13.3373 27.8708 14.5826C27.9741 16.0123 29.2171 16.2103 28.194 17.6258C27.1204 19.1109 25.3977 19.0329 24.0389 19.9175C23.3052 20.3952 19.7075 20.6689 18.7296 20.6689C17.381 20.6689 14.6831 21.1554 14.5746 19.6545C14.4611 18.0851 13.6921 16.6779 12.8202 15.2589C12.1773 14.2126 11.666 10.7078 11.666 11.8776" stroke="#545454" stroke-width="3" stroke-linecap="round" stroke-linejoin="round"/>
<path d="M12.4971 12.2168C13.145 14.9848 15.4056 23.1496 15.4056 20.3319" stroke="#545454" stroke-width="3" stroke-linecap="round" stroke-linejoin="round"/>
<path d="M19.1454 10.1867C18.0267 8.93487 15.9291 5.45287 13.5361 5.45287C12.0646 5.45287 11.3679 5.11166 9.81961 5.47166C8.91041 5.68305 8.2637 7.85173 9.17327 7.48164" stroke="#545454" stroke-width="3" stroke-linecap="round" stroke-linejoin="round"/>
<path d="M19.1459 10.1883C18.0705 10.5298 14.0628 11.8648 12.9133 10.6955C11.6544 9.41489 8.75607 12.065 7.1885 10.7894C5.35811 9.29987 8.59945 8.46209 9.82005 8.17829C11.3864 7.81411 13.3109 8.3213 14.5753 8.83576" stroke="#545454" stroke-width="3" stroke-linecap="round" stroke-linejoin="round"/>
<path d="M3.77148 5.45312H3.77158" stroke="#699BF7" stroke-width="3" stroke-linecap="round" stroke-linejoin="round"/>
<path d="M2.94081 5.45363C6.11709 7.25514 5.7015 4.86975 3.77182 4.77737C2.23736 4.70392 3.35643 5.6791 3.97958 5.96082C4.51213 6.20159 5.32794 5.69088 4.60284 5.37849C2.49277 4.46943 1.55519 6.80614 3.77182 6.80614C5.89995 6.80614 5.12554 5.45363 3.35632 5.45363" stroke="#699BF7" stroke-width="3" stroke-linecap="round" stroke-linejoin="round"/>
<path d="M2.52494 4.43945C2.39779 5.03075 1.986 6.74077 3.35596 6.80635C4.27671 6.85042 5.16678 6.99415 5.64125 6.29916C6.6343 4.84454 3.47938 4.77758 2.52494 4.77758" stroke="#545454" stroke-width="3" stroke-linecap="round" stroke-linejoin="round"/>
<path d="M12.082 12.892C15.4267 13.4231 17.6394 12.2158 20.8077 12.2158C22.8637 12.2158 24.3787 11.6081 26.2093 10.8633" stroke="#545454" stroke-width="3" stroke-linecap="round" stroke-linejoin="round"/>
</svg>
