<svg width="95" height="31" viewBox="0 0 95 31" fill="none" xmlns="http://www.w3.org/2000/svg">
	<path d="M40.7671 13.6491C37.8491 14.0765 35.8009 15.2713 34.4961 17.4358C33.514 19.0649 33.9786 21.0983 35.1382 22.5661C37.168 25.1356 41.2667 25.3737 44.2195 23.6383C45.8388 22.6866 47.2101 21.5448 47.7052 19.9331C48.2148 18.2745 47.6198 16.6593 46.6212 15.2371C45.9401 14.2671 44.1276 13.4086 42.7935 13.1673C42.1644 13.0535 40.179 13.1404 39.8665 13.6491" stroke="#545454" stroke-width="3" stroke-linecap="round" stroke-linejoin="round" />
	<path d="M33.562 17.1916C32.4984 17.0227 31.4765 16.9409 30.3765 17.0966C29.1866 17.265 27.969 17.1917 26.799 17.3748C25.6584 17.5533 24.4604 17.2442 23.2882 17.3205C22.7026 17.3586 22.1596 17.4359 21.562 17.4359C21.0634 17.4359 20.6994 17.2386 20.2027 17.4087C19.7204 17.574 19.0459 17.4158 18.5516 17.5852C18.0459 17.7584 17.4555 17.9263 16.9672 18.0398C15.9377 18.2792 14.8886 17.8023 13.8984 17.8023C12.7978 17.8023 11.3633 18.3106 11.3633 19.3903C11.3633 20.0599 12.3921 20.5302 13.0811 20.605C14.4934 20.7582 15.9913 20.8561 17.4175 20.8561C20.7868 20.8561 24.1358 20.576 27.4828 20.3743C28.8885 20.2895 30.2643 20.1232 31.6774 20.1232C32.2913 20.1232 33.211 19.8513 33.7121 20.1232" stroke="#545454" stroke-width="3" stroke-linecap="round" stroke-linejoin="round" />
	<path d="M48.2719 20.3679C49.4585 20.1795 51.7863 20.0466 51.7243 18.685C51.6934 18.0057 50.905 17.1112 50.2232 16.7645C49.5928 16.4438 48.6896 16.4591 47.9717 16.4591" stroke="#545454" stroke-width="3" stroke-linecap="round" stroke-linejoin="round" />
	<path d="M73.563 6.50349C72.4226 5.82853 71.0557 6.24146 69.8703 6.71074C69.0321 7.0426 68.4052 7.55734 67.642 7.90238C67.3259 8.04529 67.1127 7.86406 66.8143 7.85057C66.3259 7.82849 66.7297 8.20333 66.6799 8.42624C66.5801 8.87302 65.8808 8.95194 65.4419 9.07099C64.877 9.22422 65.1833 9.48322 65.159 9.81937C65.128 10.2482 63.5332 9.82353 64.3667 10.6714C64.4853 10.792 64.6696 11.2196 64.6425 11.3737C64.6235 11.4823 64.6034 12.0124 64.5718 12.0587C64.3284 12.4153 63.6602 12.5794 63.6309 13.0316C63.611 13.3399 63.8275 13.4779 63.5036 13.757C63.1945 14.0233 63.2941 14.138 63.5036 14.4363C63.7629 14.8055 63.2741 14.9635 63.0721 15.2595C63.0011 15.3635 63.396 15.7343 63.2772 16.0136C63.1385 16.3398 63.2489 16.397 63.2489 16.7102C63.2489 17.0051 62.6848 18.0909 63.5319 17.8788C64.185 17.7153 64.0435 17.9853 64.3384 18.3624C64.593 18.6879 64.9043 18.7495 64.9043 19.1913C64.9043 19.6877 65.085 19.7451 65.541 19.9512C65.8978 20.1125 65.4792 20.8677 65.9796 20.9874C66.4177 21.0923 67.2192 20.8705 67.3166 21.4249C67.4046 21.9262 67.4479 21.844 68.0311 21.9661C68.5179 22.0679 68.672 22.5377 69.1063 22.7144C69.36 22.8177 69.8037 22.7965 70.0825 22.7662C70.8202 22.6862 70.7326 22.9042 71.2427 23.1865C71.618 23.3941 71.9291 23.2554 72.2897 23.4168C72.6849 23.5937 72.7106 23.9102 73.1244 23.814C73.4738 23.7327 73.8188 23.9635 74.136 23.9061C74.5047 23.8394 74.6234 23.6908 75.0627 23.7046C75.4716 23.7174 75.6523 23.9195 75.9116 23.4974C76.1442 23.1188 76.5165 23.4771 76.902 23.5779C77.3404 23.6926 77.7231 23.4974 78.1471 23.4974C78.5691 23.4974 79.1429 23.5652 79.3497 23.1807C79.6269 22.665 79.7942 22.4611 80.5381 22.4611C81.056 22.4611 81.4235 22.4499 81.3375 21.9948C81.2052 21.295 81.8945 21.4157 82.4693 21.2695C83.0422 21.1238 82.7592 20.7683 82.9858 20.3887C83.2114 20.0107 83.8735 19.6618 84.3157 19.4561C84.5914 19.3279 84.249 18.7428 84.6128 18.5235C84.8821 18.3612 85.8928 17.9303 85.4759 17.591C85.0047 17.2075 84.7677 16.9991 85.3485 16.549C85.6206 16.3381 86.4466 15.6654 85.9781 15.3689C85.5077 15.0711 85.898 14.7117 86.0135 14.2981C86.1937 13.6528 85.8047 14.0361 85.4051 13.7109C84.9565 13.3459 85.8208 12.7965 85.4476 12.4099C85.0555 12.0038 84.2034 11.8927 84.1884 11.2701C84.183 11.0466 84.6304 10.2146 84.1954 10.136C83.6392 10.0354 83.8011 9.85816 83.9337 9.46245C84.0383 9.15027 83.4 9.16595 83.2404 8.96737C82.993 8.65942 83.2016 8.11359 82.5047 8.28808C82.0211 8.40917 81.8677 8.28781 81.5214 8.006C81.0748 7.64259 80.7196 8.10333 80.2551 8.00024C79.8277 7.90537 80.0456 7.17127 79.8024 7.17127C79.435 7.17127 79.0603 7.78296 78.5998 7.47638C78.4327 7.36514 78.2982 6.44302 78.0197 6.52652C77.7864 6.59647 77.1427 7.08723 76.9727 6.68771C76.8133 6.31288 76.8879 5.89793 76.3573 6.14082C76.0521 6.28054 75.4841 6.62177 75.3528 6.14082C75.2444 5.74395 74.6986 6.09105 74.3553 6.19263C73.9908 6.3005 73.0537 5.92738 73.0537 6.19263" stroke="#545454" stroke-width="3" stroke-linecap="round" stroke-linejoin="round" />
	<path d="M48.2715 17.4375C48.426 17.8073 48.6674 18.1979 48.7135 18.5911C48.7316 18.7463 48.6751 18.9468 48.7552 19.0933C48.903 19.364 49.3189 19.0216 49.4723 18.9033C49.8612 18.6035 49.7978 17.8753 49.3222 17.6818" stroke="#545454" stroke-width="3" stroke-linecap="round" stroke-linejoin="round" />
	<path d="M49.4727 17.5586C49.7427 18.0886 50.3652 18.3516 50.2315 18.8412C50.1727 19.0564 50.2097 19.3963 50.5234 19.2687" stroke="#545454" stroke-width="3" stroke-linecap="round" stroke-linejoin="round" />
	<path d="M12.6968 18.5362C11.4712 19.8926 12.9168 18.9573 13.7141 18.4887C14.3707 18.1029 13.5875 19.1929 13.4806 19.4863C13.3438 19.8622 15.2707 18.7124 15.457 18.6787C15.6139 18.6504 13.5639 20.7206 15.1401 19.846C16.0389 19.3473 16.8715 18.7709 17.7586 18.258C17.9466 18.1493 18.7221 17.6738 18.4841 18.2241C18.2106 18.8566 16.3597 20.605 18.3424 19.5609C18.9159 19.259 19.8543 18.4618 20.5272 18.3666C20.9544 18.3061 20.4855 19.3397 20.3187 19.4863C19.6857 20.0426 21.0294 19.2488 21.136 19.1809C21.9986 18.631 22.9483 17.8674 23.9546 17.4912C24.4612 17.3017 23.6552 18.4881 23.621 18.5362C23.5632 18.6176 22.6476 19.7442 22.8538 19.7442C23.3328 19.7442 27.0875 17.4312 27.2235 17.7355C27.419 18.1729 26.2809 19.2685 26.006 19.5949C25.6402 20.0292 25.2313 20.4463 26.1811 19.9613C27.2618 19.4095 28.2223 18.7067 29.2583 18.1019C29.6884 17.8508 28.7987 19.0028 28.7162 19.1266C28.5602 19.361 28.5991 19.587 28.9581 19.4184C29.7591 19.0423 30.4253 18.3943 31.2763 18.1019C32.0582 17.8333 29.9431 20.0921 30.4508 19.9681C31.2055 19.7838 31.9815 19.1831 32.6106 18.8077C32.9829 18.5855 33.0752 18.5693 32.9275 18.9298C32.7113 19.4576 33.0967 19.2691 33.5612 19.2691" stroke="#545454" stroke-width="3" stroke-linecap="round" stroke-linejoin="round" />
	<path d="M14.3481 4.48828C13.1951 5.23013 12.0619 5.96137 10.7456 6.49698C10.4092 6.63382 9.53685 6.94624 10.3119 7.17559C11.4739 7.51946 14.6893 8.21954 15.2487 9.13" stroke="#545454" stroke-width="3" stroke-linecap="round" stroke-linejoin="round" />
	<path d="M11.6465 7.3815C13.3446 6.82217 15.2267 6.4043 17.0502 6.4043" stroke="#545454" stroke-width="3" stroke-linecap="round" stroke-linejoin="round" />
	<path d="M47.6719 4C49.1827 5.91251 51.0012 5.70059 52.8922 6.93161C52.9893 6.99485 50.7918 8.77263 50.3737 8.88602" stroke="#545454" stroke-width="3" stroke-linecap="round" stroke-linejoin="round" />
	<path d="M46.4704 7.17631C47.4662 6.917 48.5506 6.56708 49.6226 6.70128C50.0009 6.74864 50.6581 7.13072 50.9735 6.80986C51.2388 6.54004 48.5122 6.93201 48.1049 6.93201C45.8571 6.93201 43.5691 6.98904 41.3668 7.36632C39.8437 7.62726 37.8042 7.17631 36.1966 7.17631C31.7254 7.17631 27.2955 7.25107 22.904 6.70128C21.1027 6.47576 19.3971 6.93201 17.6504 6.93201" stroke="#545454" stroke-width="3" stroke-linecap="round" stroke-linejoin="round" />
	<g style="mix-blend-mode:multiply" opacity="0.55">
		<path d="M81.5317 19.8495L60.043 9.16123L59.7883 9.67338C59.5153 10.2222 59.3403 10.8187 59.3859 11.43C59.5377 13.46 60.6141 18.3803 67.2246 21.6682C69.1845 22.6431 71.345 24.7619 73.0538 26.6908C74.5564 28.3875 77.4087 28.1387 78.4183 26.1089L81.5317 19.8495ZM76.4913 13.2838L68.6722 22.3866L76.4913 13.2838ZM77.7105 3.95759L66.2659 25.0531L66.7686 25.3259C67.3074 25.6182 67.8974 25.8142 68.5098 25.7904C70.544 25.7108 75.4994 24.8097 79.02 18.3202C80.0639 16.3961 82.2581 14.3123 84.2464 12.6731C85.9954 11.2317 85.8481 8.37236 83.8554 7.29132L77.7105 3.95759ZM81.5317 19.8495C81.7202 19.4703 81.8684 19.141 81.9559 18.9445C81.9865 18.8757 82.0503 18.7314 82.0559 18.7187C82.0788 18.6671 82.0822 18.66 82.0772 18.6709C82.0721 18.6819 81.9788 18.8867 81.8171 19.1735C81.6497 19.4701 81.3643 19.9361 80.9367 20.4683C79.9763 21.6638 78.6 22.8149 76.8278 23.5545C75.2173 24.2266 73.8785 24.3066 73.2557 24.3066V0.306641C71.746 0.306641 69.7303 0.510382 67.5847 1.40581C65.2774 2.3687 63.5076 3.84282 62.227 5.4368C61.1091 6.82826 60.4902 8.17035 60.2774 8.63245C60.1756 8.85358 60.0336 9.17649 60.0308 9.18292C59.9911 9.272 60.0048 9.23807 60.043 9.16123L81.5317 19.8495ZM73.2557 24.3066C72.8325 24.3066 72.3495 24.2593 71.7713 24.0981C71.2755 23.9598 70.027 23.5505 68.6722 22.3866L84.3104 4.18104C80.3862 0.810184 75.6698 0.306641 73.2557 0.306641V24.3066ZM68.6722 22.3866C66.102 20.1789 65.2781 17.1871 65.395 14.8502C65.5077 12.595 66.5127 10.086 68.7669 8.25154L83.9154 26.8667C90.2707 21.695 91.9608 10.7526 84.3104 4.18104L68.6722 22.3866ZM68.7669 8.25154C70.8624 6.54631 73.1392 6.22095 74.6535 6.32988C76.1302 6.4361 77.5752 6.97369 78.8286 7.99367L63.6801 26.6088C68.3094 30.376 76.9763 32.5135 83.9154 26.8667L68.7669 8.25154ZM78.8286 7.99367C81.2838 9.99165 82.0473 12.3208 82.2613 13.0524C82.5557 14.0589 82.7155 15.2525 82.5592 16.6295C82.4605 17.4989 81.921 21.3487 78.0886 24.1421C73.1062 27.7737 68.0318 26.0112 66.2659 25.0531L77.7105 3.95759C75.0848 2.53311 69.3752 0.794433 63.952 4.7473C59.6788 7.86197 58.893 12.3304 58.7123 13.923C58.4739 16.0231 58.7159 18.0444 59.2265 19.7903C59.6568 21.2611 60.7706 24.2412 63.6801 26.6088L78.8286 7.99367Z" fill="#FF99F8" />
	</g>
</svg>
