<svg preserveAspectRatio="none" width="162" height="50" viewBox="0 0 162 50" fill="none" xmlns="http://www.w3.org/2000/svg">
	<path d="M143.759 2.86049H133.386C132.163 1.72176 130.097 1.18588 128.073 2.19064C128.326 3.26239 108.213 2.72652 107.581 2.86049C106.527 -1.35951 100.286 -0.421733 98.0094 2.86049H91.263C89.7028 1.85572 87.8054 1.98969 86.2031 2.7935C85.8236 0.181119 81.7758 -0.890621 79.288 0.850964C74.1439 5.67382 70.2225 0.181121 65.7108 2.65953C65.753 2.99445 61.5786 2.86049 61.3678 2.86049C59.7655 1.05192 56.4345 1.31985 54.4949 2.86049C54.1997 1.78874 53.0612 0.917948 51.206 0.850964C47.6219 0.716996 44.4595 1.5208 41.6345 2.86049C40.7912 1.78874 38.5142 1.18589 37.0384 2.25763C37.3758 3.19541 20.2988 2.86049 19.6664 2.92747C3.85438 2.65954 -0.488643 16.0563 1.61962 25.6351C0.944976 26.4389 2.08344 32.1325 1.61962 33.1373C0.691985 34.0081 0.818479 35.0798 1.91478 35.6827C4.1917 48.0747 23.7564 47.2709 36.1951 46.869C36.6589 51.6249 43.6162 50.4192 45.4293 46.869C45.2185 47.2039 93.3291 45.9312 90.4196 47.5388C89.5763 49.1465 92.8652 50.6201 94.341 49.2804C95.606 48.4096 96.1541 46.5341 98.1359 46.869C99.6538 48.2087 102.437 48.5436 104.545 46.869C119.809 45.2614 162.564 53.5004 161.763 33.1373C161.932 22.2859 164.926 2.59255 143.759 2.86049ZM158.095 36.2185C157.547 35.9506 158.39 35.3477 158.474 34.9458C158.39 35.3477 158.264 35.7497 158.095 36.2185ZM10.0105 37.6922C10.0948 37.6252 10.1792 37.5582 10.2635 37.4912C10.2213 37.6252 10.2213 37.7592 10.1792 37.9601C10.137 37.8262 10.0527 37.7592 10.0105 37.6922ZM38.0926 12.1713C38.0926 12.1713 38.1347 12.1043 38.1769 12.1043C38.1347 12.1713 38.0926 12.1713 38.0926 12.1713ZM27.1296 5.67381C26.7923 5.53985 26.4128 5.40588 26.0755 5.27192H27.7621C27.5513 5.40588 27.3404 5.53985 27.1296 5.67381ZM31.051 44.3236C31.4305 44.5915 30.1655 44.3906 30.1233 44.4576C30.4185 44.3906 30.7558 44.3236 31.051 44.3236ZM113.358 5.27192C110.069 7.21445 108.509 7.68334 106.274 5.27192C106.316 5.27192 113.358 5.27192 113.358 5.27192ZM157.673 26.5728C158.011 26.1709 158.348 25.769 158.643 25.3671C158.474 26.037 159.276 27.5106 157.673 26.5728ZM151.264 9.69286C150.969 9.22397 150.505 8.75508 149.999 8.42016C150.674 8.62112 151.222 9.09001 151.433 9.62588C151.391 9.55889 151.306 9.4919 151.264 9.69286ZM124.489 14.5157C127.483 11.3005 133.344 9.09001 134.567 5.27192H136.759C132.627 8.2862 128.495 11.3675 124.489 14.5157ZM62.2954 42.1801C62.4219 43.1179 63.2231 43.9217 64.235 44.4576H59.5547C60.4823 43.6538 61.3678 42.9169 62.2954 42.1801ZM69.5057 44.1227C71.3609 41.3093 73.8487 44.2566 76.7159 44.3906H69.1262C69.2105 44.3236 69.3792 44.2566 69.5057 44.1227ZM115.044 44.3906C115.845 44.1896 116.604 44.3236 117.448 44.4576H114.918C114.96 44.3906 115.002 44.3906 115.044 44.3906ZM153.71 8.15222C150.379 8.68809 147.216 6.47762 144.138 8.6881C144.686 7.4154 144.054 6.07572 142.873 5.20493C146.921 5.13794 150.885 6.20968 153.71 8.15222ZM118.755 7.54937C118.333 6.47762 117.279 5.60684 115.93 5.27192H122.592C121.285 6.00874 120.02 6.74556 118.755 7.54937ZM87.9741 11.3005C90.7148 9.42493 91.4738 4.87001 95.1843 5.20493C92.7809 7.28143 90.3775 9.29096 87.9741 11.3005ZM72.3308 5.33889C72.3308 5.27191 72.3729 5.27192 72.4572 5.27192C72.4151 5.27192 72.3729 5.33889 72.3308 5.33889ZM60.1872 6.87953C60.904 6.34366 61.157 5.07096 62.2954 5.27192C61.5786 5.80779 60.8618 6.34366 60.1872 6.87953ZM4.73985 27.1757C9.0407 23.0897 13.6367 19.2716 18.6122 15.6544C13.974 20.4103 9.37803 25.1662 4.73985 29.922V27.1757ZM84.643 44.4576C88.8174 40.5725 93.0339 36.6874 97.4191 32.8693C93.9615 37.4243 91.6003 41.1084 84.643 44.4576Z" fill="#89D6F0" />
</svg>
