<svg width="272" height="80" viewBox="0 0 272 80" fill="none" xmlns="http://www.w3.org/2000/svg">
	<path d="M241.296 4.57678H223.836C221.778 2.75481 218.3 1.89741 214.893 3.50503C215.319 5.21982 181.465 4.36243 180.4 4.57678C178.626 -2.17522 168.122 -0.674773 164.289 4.57678H152.933C150.307 2.96916 147.113 3.1835 144.416 4.4696C143.778 0.289791 136.964 -1.42499 132.777 1.36154C124.118 9.0781 117.517 0.289794 109.923 4.25525C109.994 4.79112 102.968 4.57678 102.613 4.57678C99.9159 1.68307 94.3089 2.11176 91.0441 4.57678C90.5473 2.86199 88.631 1.46872 85.5082 1.36154C79.4754 1.14719 74.1524 2.43329 69.3971 4.57678C67.9777 2.86199 64.1451 1.89742 61.661 3.61221C62.2288 5.11266 33.4844 4.57678 32.4198 4.68396C5.80458 4.25526 -1.50573 25.6901 2.04296 41.0161C0.907382 42.3022 2.82368 51.412 2.04296 53.0196C0.481539 54.4129 0.694459 56.1277 2.53978 57.0923C6.37236 76.9195 39.3042 75.6335 60.2415 74.9904C61.0222 82.5998 72.7329 80.6707 75.7848 74.9904C75.4299 75.5263 156.411 73.49 151.514 76.0622C150.094 78.6343 155.63 80.9922 158.114 78.8487C160.244 77.4554 161.166 74.4545 164.502 74.9904C167.057 77.1339 171.741 77.6698 175.29 74.9904C200.983 72.4182 272.95 85.6007 271.602 53.0196C271.885 35.6574 276.925 4.14808 241.296 4.57678ZM265.427 57.9497C264.504 57.521 265.924 56.5564 266.066 55.9133C265.924 56.5564 265.711 57.1994 265.427 57.9497ZM16.1668 60.3075C16.3087 60.2003 16.4507 60.0932 16.5926 59.986C16.5216 60.2003 16.5216 60.4147 16.4507 60.7362C16.3797 60.5218 16.2377 60.4147 16.1668 60.3075ZM63.4353 19.474C63.4353 19.474 63.5063 19.3669 63.5773 19.3669C63.5063 19.474 63.4353 19.474 63.4353 19.474ZM44.9821 9.0781C44.4143 8.86375 43.7756 8.64941 43.2078 8.43506H46.0467C45.6919 8.64941 45.337 8.86375 44.9821 9.0781ZM51.5827 70.9178C52.2215 71.3465 50.0922 71.025 50.0213 71.1321C50.5181 71.025 51.0859 70.9178 51.5827 70.9178ZM190.124 8.43506C184.588 11.5431 181.962 12.2933 178.2 8.43506C178.271 8.43506 190.124 8.43506 190.124 8.43506ZM264.717 42.5165C265.285 41.8735 265.853 41.2305 266.349 40.5874C266.066 41.6592 267.414 44.017 264.717 42.5165ZM253.929 15.5086C253.432 14.7583 252.652 14.0081 251.8 13.4723C252.935 13.7938 253.858 14.544 254.213 15.4014C254.142 15.2942 254 15.187 253.929 15.5086ZM208.861 23.2251C213.9 18.0808 223.765 14.544 225.823 8.43506H229.514C222.559 13.2579 215.603 18.1879 208.861 23.2251ZM104.174 67.4882C104.387 68.9886 105.736 70.2747 107.439 71.1321H99.561C101.122 69.846 102.613 68.6671 104.174 67.4882ZM116.311 70.5963C119.434 66.0949 123.621 70.8106 128.447 71.025H115.672C115.814 70.9178 116.098 70.8106 116.311 70.5963ZM192.963 71.025C194.311 70.7034 195.589 70.9178 197.008 71.1321H192.75C192.821 71.025 192.892 71.025 192.963 71.025ZM258.046 13.0436C252.439 13.901 247.116 10.3642 241.934 13.901C242.857 11.8646 241.793 9.72115 239.805 8.32788C246.619 8.22071 253.29 9.93549 258.046 13.0436ZM199.208 12.079C198.498 10.3642 196.724 8.97094 194.453 8.43506H205.667C203.467 9.61398 201.337 10.7929 199.208 12.079ZM147.397 18.0808C152.011 15.0799 153.288 7.79201 159.534 8.32788C155.488 11.6503 151.443 14.8655 147.397 18.0808ZM121.066 8.54223C121.066 8.43506 121.137 8.43506 121.279 8.43506C121.208 8.43506 121.137 8.54223 121.066 8.54223ZM100.626 11.0072C101.832 10.1498 102.258 8.11354 104.174 8.43506C102.968 9.29246 101.761 10.1498 100.626 11.0072ZM7.29502 43.4811C14.5344 36.9435 22.2705 30.8345 30.6454 25.0471C22.8383 32.6565 15.1021 40.2659 7.29502 47.8753V43.4811ZM141.79 71.1321C148.817 64.916 155.914 58.6999 163.295 52.5909C157.476 59.8788 153.501 65.7734 141.79 71.1321Z" fill="#89D6F0" />
</svg>
