<svg width="272" height="80" viewBox="0 0 272 80" fill="none" xmlns="http://www.w3.org/2000/svg">
	<path d="M4.25889 53.2716C9.10242 72.1443 44.5294 70.0367 56.915 69.4619C57.6761 69.3661 59.2675 69.4619 60.9974 69.4619V70.7073C61.205 71.4737 62.5196 72.1444 63.2808 72.5276C66.2561 73.773 71.5895 75.4974 74.0113 72.5276C74.4956 71.6653 75.1128 69.4619 75.8047 69.4619C94.3485 69.0787 112.892 68.6955 131.436 69.1745C136.902 69.3661 142.369 69.4619 147.835 70.2283C148.596 70.3241 149.357 70.4199 150.188 70.8031C151.295 71.2821 152.194 73.0066 151.917 74.8268C151.779 76.5512 150.603 77.7008 149.634 77.8924L149.357 77.9882L150.949 76.7428C151.225 76.168 151.433 75.4974 151.295 74.5394C151.156 73.5814 150.741 72.9107 150.326 72.6233C150.188 72.5275 150.188 72.5276 150.257 72.5276C150.326 72.5276 150.395 72.5275 150.533 72.6233C151.917 72.8149 153.476 75.3058 154.722 74.5394C155.829 73.8688 159.183 71.1863 160.843 70.5157C162.573 69.8451 163.256 71.7612 164.64 70.5157C165.747 71.3779 167.555 70.5157 168.939 70.5157C170.392 70.5157 171.671 71.3723 172.848 70.5101C173.124 70.3185 177.924 69.1397 175.374 69.2703C181.324 68.7913 185.161 69.2703 190.973 69.2703C203.013 68.6955 269.164 75.0184 268.264 53.08C269.025 35.0696 271.342 14.9025 252.94 8.53281C252.663 8.43701 252.455 7.95801 252.594 7.57481C252.663 7.19161 252.94 7 253.216 7C256.122 7.5748 259.098 8.82021 261.727 11.1194C269.892 18.4003 271 26.7101 271 43.1351C271 48.1538 271 55.673 271 56.8226C270.862 61.2294 269.045 64.0088 266.554 66.4038C254.376 77.9957 224.017 74.8268 208.933 75.3058C198.761 75.4016 184.369 75.1142 174.405 75.9764L175.374 75.5932C173.298 77.0302 171.153 77.605 169.008 77.605C166.725 77.605 164.58 77.126 162.504 75.5932L163.473 75.9764C162.504 75.8806 161.674 75.9764 160.843 76.2638C159.944 76.647 158.975 77.3176 157.66 78.1798L157.937 77.9882C156.069 79.3294 154.547 79.6168 152.609 79.8084C151.502 79.9042 150.257 79.9042 149.08 79.521C147.904 79.1378 146.659 78.084 146.313 75.9764C146.036 73.6772 147.005 71.5695 148.527 71.1863H148.665C148.596 71.1863 148.596 71.1863 148.389 71.2821C146.244 72.4318 146.313 76.647 148.389 77.7008C142.784 76.647 136.972 76.7428 131.298 76.4554C112.823 76.0722 94.3485 76.168 75.8739 76.3596L77.7422 75.1142C74.9052 79.3294 70.892 79.9042 67.0864 80C63.2808 79.9042 57.7453 78.3714 56.915 71.9527L59.2676 74.731C49.3037 74.6352 39.8118 74.3478 28.526 72.5276C17.2402 70.7073 5.44901 70.7073 3.01341 53.8465C2.94422 53.3675 3.1518 52.8884 3.42857 52.7926C3.84373 52.601 4.1897 52.8884 4.25889 53.2716Z" fill="#F4EFF4" />
	<path d="M239.532 6.00592H222.229C220.189 4.34959 216.743 3.57014 213.367 5.03161C213.789 6.59051 180.238 5.81106 179.183 6.00592C177.425 -0.132254 167.015 1.23178 163.217 6.00592H151.963C149.361 4.54445 146.196 4.73931 143.523 5.90848C142.89 2.10866 136.138 0.549766 131.988 3.08298C123.407 10.098 116.865 2.10866 109.339 5.71362C109.41 6.20078 102.446 6.00592 102.095 6.00592C99.422 3.37527 93.8654 3.765 90.6299 6.00592C90.1376 4.44702 88.2385 3.18041 85.1437 3.08298C79.1651 2.88812 73.8899 4.05729 69.1774 6.00592C67.7706 4.44702 63.9725 3.57013 61.5107 5.12903C62.0734 6.49307 33.5872 6.00591 32.5322 6.10334C6.15607 5.71362 -1.08857 25.1999 2.42825 39.1326C1.30287 40.3018 3.20195 48.5834 2.42825 50.0449C0.880849 51.3115 1.09186 52.8704 2.9206 53.7473C6.71876 71.7721 39.3548 70.6029 60.104 70.0183C60.8777 76.9359 72.4832 75.1822 75.5076 70.0183C75.156 70.5055 155.41 68.6543 150.556 70.9926C149.15 73.331 154.636 75.4745 157.098 73.5258C159.208 72.2592 160.122 69.5312 163.428 70.0183C165.96 71.9669 170.602 72.4541 174.119 70.0183C199.581 67.68 270.902 79.664 269.565 50.0449C269.847 34.261 274.841 5.6162 239.532 6.00592Z" fill="#F4EFF4" />
</svg>
