<svg width="162" height="50" viewBox="0 0 162 50" fill="none" xmlns="http://www.w3.org/2000/svg">
	<path d="M3.00746 33.3C5.88891 45.0514 26.9646 43.7391 34.3328 43.3811C34.7856 43.3215 35.7324 43.3811 36.7615 43.3811V44.1566C36.885 44.6338 37.6671 45.0514 38.1199 45.29C39.8899 46.0655 43.0628 47.1392 44.5035 45.29C44.7917 44.7531 45.1588 43.3811 45.5705 43.3811C56.6023 43.1425 67.6341 42.9039 78.6659 43.2022C81.9178 43.3215 85.1697 43.3811 88.4216 43.8583C88.8744 43.918 89.3272 43.9777 89.8212 44.2163C90.4798 44.5145 91.0149 45.5882 90.8503 46.7216C90.7679 47.7954 90.0681 48.5112 89.4919 48.6305L89.3272 48.6901L90.274 47.9147C90.4386 47.5568 90.5621 47.1392 90.4798 46.5427C90.3975 45.9462 90.1505 45.5286 89.9035 45.3496C89.8212 45.29 89.8212 45.29 89.8623 45.29C89.9035 45.29 89.9446 45.29 90.027 45.3496C90.8502 45.4689 91.7778 47.0199 92.5187 46.5427C93.1773 46.1251 95.1724 44.4549 96.1603 44.0373C97.1894 43.6197 97.5956 44.8128 98.4189 44.0373C99.0775 44.5742 100.153 44.0373 100.976 44.0373C101.841 44.0373 102.602 44.5707 103.302 44.0338C103.466 43.9145 106.322 43.1805 104.805 43.2618C108.345 42.9636 110.627 43.2618 114.085 43.2618C121.247 42.9039 160.601 46.8409 160.066 33.1807C160.518 21.9662 161.897 9.40891 150.949 5.44271C150.784 5.38306 150.661 5.0848 150.743 4.84619C150.784 4.60759 150.949 4.48828 151.114 4.48828C152.842 4.84619 154.612 5.62166 156.177 7.0533C161.034 11.5868 161.693 16.7611 161.693 26.9883C161.693 30.1133 161.693 34.7952 161.693 35.5111C161.611 38.255 160.53 39.9857 159.048 41.477C151.803 48.6948 133.743 46.7216 124.769 47.0199C118.718 47.0795 110.156 46.9006 104.228 47.4374L104.805 47.1988C103.57 48.0936 102.294 48.4515 101.018 48.4515C99.6592 48.4515 98.3832 48.1533 97.1483 47.1988L97.7245 47.4374C97.1483 47.3778 96.6543 47.4374 96.1603 47.6164C95.6252 47.855 95.0489 48.2726 94.2668 48.8094L94.4315 48.6901C93.3201 49.5253 92.4145 49.7042 91.2619 49.8235C90.6033 49.8832 89.8623 49.8832 89.1626 49.6446C88.4628 49.406 87.7218 48.7498 87.516 47.4374C87.3514 46.0058 87.9276 44.6935 88.8332 44.4549H88.9156C88.8744 44.4549 88.8744 44.4549 88.7509 44.5145C87.4749 45.2303 87.516 47.855 88.7509 48.5112C85.4167 47.855 81.9589 47.9147 78.5835 47.7357C67.5929 47.4971 56.6023 47.5568 45.6116 47.6761L46.723 46.9006C45.0353 49.5253 42.6479 49.8832 40.3839 49.9428C38.1199 49.8832 34.8268 48.9287 34.3328 44.9321L35.7324 46.662C29.8049 46.6023 24.1581 46.4234 17.4441 45.29C10.7301 44.1566 3.71548 44.1566 2.26652 33.6579C2.22536 33.3597 2.34885 33.0614 2.5135 33.0018C2.76048 32.8825 2.9663 33.0614 3.00746 33.3Z" fill="#F4EFF4" />
	<path d="M142.171 3.75376H131.931C130.724 2.71855 128.685 2.2314 126.687 3.14482C126.937 4.11913 107.082 3.63197 106.458 3.75376C105.417 -0.0825974 99.2569 0.769927 97.0092 3.75376H90.3494C88.8093 2.84034 86.9363 2.96213 85.3546 3.69286C84.98 1.31797 80.9841 0.343665 78.5283 1.92692C73.4502 6.31133 69.5792 1.31798 65.1255 3.57108C65.1671 3.87555 61.0464 3.75376 60.8383 3.75376C59.2566 2.10961 55.9683 2.35319 54.0536 3.75376C53.7623 2.77945 52.6384 1.98782 50.807 1.92692C47.269 1.80513 44.1472 2.53587 41.3584 3.75376C40.526 2.77945 38.2783 2.23139 36.8215 3.2057C37.1545 4.05823 20.2969 3.75376 19.6725 3.81465C4.06368 3.57107 -0.223549 15.75 1.85763 24.4579C1.19165 25.1887 2.31549 30.3647 1.85763 31.2781C0.941912 32.0697 1.06678 33.0441 2.149 33.5921C4.39667 44.8576 23.71 44.1269 35.989 43.7615C36.4469 48.085 43.3147 46.9889 45.1046 43.7615C44.8964 44.066 92.389 42.909 89.5169 44.3704C88.6845 45.8319 91.9311 47.1716 93.3879 45.9537C94.6366 45.1621 95.1778 43.457 97.1341 43.7615C98.6325 44.9794 101.38 45.2839 103.461 43.7615C118.529 42.3 160.735 49.7901 159.944 31.2781C160.111 21.4132 163.066 3.51018 142.171 3.75376Z" fill="#F4EFF4" />
</svg>
