<svg width="271" height="80" viewBox="0 0 271 80" fill="none" xmlns="http://www.w3.org/2000/svg">
	<path d="M240.296 4.57678H222.836C220.778 2.75481 217.3 1.89741 213.893 3.50503C214.319 5.21982 180.465 4.36243 179.4 4.57678C177.626 -2.17522 167.122 -0.674773 163.289 4.57678H151.933C149.307 2.96916 146.113 3.1835 143.416 4.4696C142.778 0.289791 135.964 -1.42499 131.777 1.36154C123.118 9.0781 116.517 0.289794 108.923 4.25525C108.994 4.79112 101.968 4.57678 101.613 4.57678C98.9159 1.68307 93.3089 2.11176 90.0441 4.57678C89.5473 2.86199 87.631 1.46872 84.5082 1.36154C78.4754 1.14719 73.1524 2.43329 68.3971 4.57678C66.9777 2.86199 63.1451 1.89742 60.661 3.61221C61.2288 5.11266 32.4844 4.57678 31.4198 4.68396C4.80458 4.25526 -2.50573 25.6901 1.04296 41.0161C-0.0926178 42.3022 1.82368 51.412 1.04296 53.0196C-0.518461 54.4129 -0.305541 56.1277 1.53978 57.0923C5.37236 76.9195 38.3042 75.6335 59.2415 74.9904C60.0222 82.5998 71.7329 80.6707 74.7848 74.9904C74.4299 75.5263 155.411 73.49 150.514 76.0622C149.094 78.6343 154.63 80.9922 157.114 78.8487C159.244 77.4554 160.166 74.4545 163.502 74.9904C166.057 77.1339 170.741 77.6698 174.29 74.9904C199.983 72.4182 271.95 85.6007 270.602 53.0196C270.885 35.6574 275.925 4.14808 240.296 4.57678ZM264.427 57.9497C263.504 57.521 264.924 56.5564 265.066 55.9133C264.924 56.5564 264.711 57.1994 264.427 57.9497ZM15.1668 60.3075C15.3087 60.2003 15.4507 60.0932 15.5926 59.986C15.5216 60.2003 15.5216 60.4147 15.4507 60.7362C15.3797 60.5218 15.2377 60.4147 15.1668 60.3075ZM62.4353 19.474C62.4353 19.474 62.5063 19.3669 62.5773 19.3669C62.5063 19.474 62.4353 19.474 62.4353 19.474ZM43.9821 9.0781C43.4143 8.86375 42.7756 8.64941 42.2078 8.43506H45.0467C44.6919 8.64941 44.337 8.86375 43.9821 9.0781ZM50.5827 70.9178C51.2215 71.3465 49.0922 71.025 49.0213 71.1321C49.5181 71.025 50.0859 70.9178 50.5827 70.9178ZM189.124 8.43506C183.588 11.5431 180.962 12.2933 177.2 8.43506C177.271 8.43506 189.124 8.43506 189.124 8.43506ZM263.717 42.5165C264.285 41.8735 264.853 41.2305 265.349 40.5874C265.066 41.6592 266.414 44.017 263.717 42.5165ZM252.929 15.5086C252.432 14.7583 251.652 14.0081 250.8 13.4723C251.935 13.7938 252.858 14.544 253.213 15.4014C253.142 15.2942 253 15.187 252.929 15.5086ZM207.861 23.2251C212.9 18.0808 222.765 14.544 224.823 8.43506H228.514C221.559 13.2579 214.603 18.1879 207.861 23.2251ZM103.174 67.4882C103.387 68.9886 104.736 70.2747 106.439 71.1321H98.561C100.122 69.846 101.613 68.6671 103.174 67.4882ZM115.311 70.5963C118.434 66.0949 122.621 70.8106 127.447 71.025H114.672C114.814 70.9178 115.098 70.8106 115.311 70.5963ZM191.963 71.025C193.311 70.7034 194.589 70.9178 196.008 71.1321H191.75C191.821 71.025 191.892 71.025 191.963 71.025ZM257.046 13.0436C251.439 13.901 246.116 10.3642 240.934 13.901C241.857 11.8646 240.793 9.72115 238.805 8.32788C245.619 8.22071 252.29 9.93549 257.046 13.0436ZM198.208 12.079C197.498 10.3642 195.724 8.97094 193.453 8.43506H204.667C202.467 9.61398 200.337 10.7929 198.208 12.079ZM146.397 18.0808C151.011 15.0799 152.288 7.79201 158.534 8.32788C154.488 11.6503 150.443 14.8655 146.397 18.0808ZM120.066 8.54223C120.066 8.43506 120.137 8.43506 120.279 8.43506C120.208 8.43506 120.137 8.54223 120.066 8.54223ZM99.6256 11.0072C100.832 10.1498 101.258 8.11354 103.174 8.43506C101.968 9.29246 100.761 10.1498 99.6256 11.0072ZM6.29502 43.4811C13.5344 36.9435 21.2705 30.8345 29.6454 25.0471C21.8383 32.6565 14.1021 40.2659 6.29502 47.8753V43.4811ZM140.79 71.1321C147.817 64.916 154.914 58.6999 162.295 52.5909C156.476 59.8788 152.501 65.7734 140.79 71.1321Z" fill="#B6E6F6" />
</svg>
