<svg width="280" height="51" viewBox="0 0 280 51" fill="none" xmlns="http://www.w3.org/2000/svg">
	<path d="M259.73 49.4441C176.068 48.4374 91.8098 49.7187 8.04827 51H6.06104C5.36551 51 4.57063 51 3.67638 50.8169C1.88788 50.4509 0 49.078 0 47.0646C0.993612 34.6175 1.09297 21.9874 0.496806 9.44888L0.298102 4.68977C0.298102 4.23215 0.198741 3.77454 0.298102 3.31693C0.993631 0.754309 4.37191 0.205131 6.75658 0.296653C16.0965 0.388175 25.6352 0.662764 34.9752 0.662764C62.2995 0.845809 89.6238 0.571231 116.948 0.93732C143.875 1.48645 171.895 1.85254 198.921 1.39493C218.893 1.02884 253.471 0.388187 273.243 0.0220975H274.535C275.628 -0.0694247 276.82 0.113609 277.814 0.754264C279.304 1.66949 280 3.40844 280 4.96432C279.404 12.3776 279.205 19.7909 279.205 27.2042C279.205 32.604 279.205 38.553 279.404 43.9528C279.304 45.7832 280.199 48.895 277.715 49.7187C276.92 49.9017 275.926 49.8102 275.131 49.9017C272.846 49.9017 270.461 49.9017 268.176 49.8102V48.895C270.461 48.895 272.747 48.8035 275.032 48.7119L276.125 48.6204L276.721 48.5289C276.92 48.5289 277.118 48.4374 277.118 48.4374H277.019C277.317 48.2543 277.516 48.0713 277.615 47.7967C277.715 47.5222 277.715 47.1561 277.715 46.6984L277.516 43.9528C276.622 30.8651 276.324 17.8689 277.218 4.78127C277.019 3.49995 276.622 2.40166 274.535 2.58471C272.25 2.58471 263.009 2.7678 260.426 2.85932C228.432 3.40845 189.78 3.22538 157.885 3.68299C110.192 5.14734 62.1008 4.14061 14.4074 2.49321L9.24061 2.31015L6.65722 2.21865C5.1668 2.12713 3.57701 2.31018 2.5834 3.13388C2.18595 3.49997 2.18597 3.77454 2.28533 4.68977L2.48403 9.35738C3.17956 21.9874 3.577 34.6175 2.48403 47.2476V47.1561C2.58339 47.8882 3.27893 48.2543 4.17318 48.4374C4.96807 48.712 6.95528 48.6204 7.84953 48.6204C91.8098 48.0713 176.068 47.2476 259.73 49.4441Z" fill="#79747E" />
</svg>
