<svg width="272" height="80" viewBox="0 0 272 80" fill="none" xmlns="http://www.w3.org/2000/svg">
	<path d="M241.409 6.07678L241.427 6.07667C250.084 5.97212 256.091 7.81585 260.281 10.752C264.463 13.682 266.992 17.8101 268.493 22.5771C270.001 27.3661 270.453 32.7471 270.496 38.0777C270.523 41.3771 270.398 44.537 270.28 47.5196C270.204 49.4201 270.132 51.2486 270.103 52.9952C270.103 53.0239 270.103 53.0527 270.104 53.0814C270.26 56.8632 269.359 59.8965 267.676 62.368C265.98 64.8576 263.422 66.8744 260.118 68.4881C253.469 71.7355 244.086 73.2133 233.649 73.7604C223.248 74.3056 211.993 73.9204 201.681 73.555L201.141 73.5358C191.099 73.1796 181.908 72.8537 175.497 73.4979C175.222 73.5255 174.961 73.6283 174.741 73.7949C171.782 76.037 167.892 75.5501 165.865 73.843C165.657 73.668 165.406 73.5528 165.137 73.5095C164.062 73.3362 163.11 73.442 162.258 73.7729C161.424 74.0966 160.769 74.6033 160.237 75.1041C159.866 75.4536 159.497 75.8607 159.177 76.2125C159.064 76.3372 158.957 76.4549 158.859 76.5607C158.442 77.0085 158.086 77.3488 157.711 77.5949C157.656 77.6313 157.603 77.6714 157.553 77.7148C156.924 78.2594 155.614 78.3705 154.375 77.8435C153.793 77.5957 153.442 77.2872 153.299 77.0669C153.267 77.0181 153.248 76.9815 153.238 76.9506C153.446 76.7204 153.741 76.2622 153.657 75.6359C153.578 75.0422 153.207 74.6922 153.018 74.5454C152.814 74.3868 152.603 74.292 152.459 74.2355C151.925 74.0263 151.117 73.9023 150.267 73.8086C148.46 73.6096 145.655 73.4751 142.217 73.3854C135.318 73.2055 125.68 73.2024 115.921 73.2627C108.691 73.3074 101.381 73.387 95.0557 73.4558C92.8411 73.48 90.7472 73.5028 88.8196 73.5223C85.1 73.56 82.0037 73.5854 79.8498 73.5848C78.7705 73.5845 77.9408 73.5776 77.3913 73.563C77.1706 73.5572 77.0118 73.5504 76.9069 73.5439C76.2952 73.3753 75.6224 73.6102 75.2568 74.1643C75.2379 74.1968 75.2171 74.2391 75.1959 74.2876L75.1863 74.2825C73.9738 76.5477 70.8446 78.2623 67.811 78.4778C66.3296 78.583 65.0526 78.3126 64.1517 77.736C63.3056 77.1945 62.6654 76.3083 62.5151 74.8379C62.4351 74.0548 61.7634 73.4669 60.9767 73.4911C60.72 73.499 60.4617 73.507 60.2017 73.5151C49.8532 73.8356 36.9854 74.2341 26.1593 72.2425C14.9739 70.1847 6.72571 65.7328 5.00703 56.8086C4.92073 56.3605 4.63511 55.976 4.23098 55.764C3.60026 55.4331 3.51364 55.1242 3.50272 55.0348C3.49162 54.944 3.50232 54.6184 4.03985 54.137C4.18548 54.0066 4.30422 53.8489 4.38937 53.6729C4.62342 53.1892 4.68731 52.6167 4.71331 52.1853C4.74244 51.7021 4.73351 51.1485 4.70649 50.576C4.66063 49.6045 4.55613 48.4639 4.45375 47.3466C4.4358 47.1508 4.41792 46.9556 4.40043 46.7622C4.28039 45.4347 4.17836 44.1855 4.17115 43.1972C4.16753 42.7013 4.18872 42.3241 4.22883 42.0627C4.24258 41.9731 4.25604 41.9145 4.26517 41.8803C4.50952 41.5337 4.59718 41.097 4.50072 40.6789C2.80846 33.3433 3.72368 24.5838 8.15942 17.7595C12.5428 11.0157 20.4823 5.97685 33.2796 6.18374C33.338 6.18469 33.3965 6.18222 33.4546 6.17634C33.4479 6.17702 33.4546 6.17685 33.479 6.17623C33.5243 6.17507 33.6307 6.17236 33.825 6.17067C34.0848 6.16841 34.4402 6.16793 34.8809 6.16866C35.5121 6.1697 36.3068 6.17322 37.2272 6.17728C37.5915 6.17889 37.9754 6.18059 38.3767 6.18225C41.2028 6.19398 44.8728 6.20407 48.4943 6.17048C52.1092 6.13695 55.7021 6.05973 58.3656 5.89471C59.6869 5.81286 60.8335 5.70641 61.6522 5.56177C62.0406 5.49314 62.4668 5.39783 62.8176 5.24388C62.977 5.17392 63.2809 5.02525 63.5351 4.73487C63.5566 4.71028 63.5777 4.6846 63.5983 4.65792C64.3933 4.23276 65.4075 4.11483 66.4411 4.28781C67.6387 4.48826 68.5743 5.03016 68.9875 5.53116C69.4184 6.05365 70.146 6.22258 70.763 5.94341C75.3153 3.88383 80.3897 2.65542 86.1429 2.86059L86.1447 2.86065C88.8894 2.9552 90.0233 4.13568 90.2707 4.99278C90.4078 5.46767 90.77 5.84454 91.2391 6.00033C91.7082 6.15611 92.2239 6.07081 92.6178 5.77227C93.97 4.74758 95.8686 4.11328 97.7246 4.06678C99.5908 4.02003 101.18 4.56521 102.139 5.59746C102.423 5.90311 102.821 6.07678 103.238 6.07678C103.235 6.07678 103.242 6.07679 103.265 6.07717L103.348 6.07874L103.623 6.0846C103.849 6.08943 104.154 6.09577 104.51 6.10169C105.221 6.11351 106.14 6.12375 107.05 6.11692C107.951 6.11017 108.877 6.08655 109.589 6.0262C109.933 5.99709 110.297 5.95408 110.6 5.8798C110.735 5.84664 110.977 5.78033 111.214 5.64079C111.259 5.61451 111.354 5.55472 111.465 5.45926C114.132 4.16787 116.594 4.69828 119.676 5.36223C120.171 5.46893 120.682 5.57909 121.213 5.68569C123.097 6.06416 125.181 6.35994 127.403 5.99124C129.631 5.62157 131.887 4.60457 134.205 2.55538C135.869 1.48422 138.111 1.24968 140.034 1.7541C142.029 2.27748 143.212 3.4356 143.404 4.69538C143.476 5.16514 143.766 5.57323 144.186 5.79545C144.606 6.01768 145.106 6.02775 145.535 5.8226C147.896 4.69257 150.517 4.58291 152.587 5.85479C152.824 5.99994 153.095 6.07678 153.373 6.07678H164.687C165.167 6.07678 165.617 5.8471 165.9 5.4589C167.5 3.25798 170.62 1.73975 173.566 1.57305C175.016 1.491 176.306 1.74499 177.285 2.29649C178.229 2.82849 178.95 3.67073 179.287 4.9567C179.482 5.70067 180.205 6.17257 180.958 6.06064C180.968 6.05991 180.984 6.05894 181.006 6.05786C181.079 6.05423 181.186 6.05081 181.333 6.04797C181.623 6.04234 182.028 6.03972 182.537 6.03952C183.554 6.0391 184.95 6.04826 186.604 6.05999L187.2 6.06424C190.417 6.08723 194.47 6.11619 198.483 6.10356C202.742 6.09015 206.983 6.02989 210.141 5.8637C211.711 5.7811 213.064 5.67003 214.029 5.51587C214.495 5.44157 214.967 5.34299 215.348 5.19349C215.525 5.12419 215.818 4.99297 216.077 4.7476C216.097 4.72929 216.116 4.70976 216.136 4.68904C218.827 3.59227 221.469 4.32184 223.018 5.69811C223.292 5.94204 223.647 6.07678 224.014 6.07678H241.409Z" stroke="#4E4B9A" stroke-width="3" stroke-miterlimit="10" stroke-linecap="round" stroke-linejoin="round" />
</svg>
