<svg width="162" height="50" viewBox="0 0 162 50" fill="none" xmlns="http://www.w3.org/2000/svg">
	<path d="M143.051 3.99315L143.064 3.99299C148.184 3.92872 151.723 5.06175 154.187 6.85646C156.649 8.64968 158.146 11.1821 159.036 14.1216C159.931 17.0733 160.199 20.3922 160.225 23.6832C160.241 25.7206 160.167 27.6701 160.096 29.5113C160.052 30.6851 160.008 31.8148 159.992 32.8952C159.991 32.9136 159.991 32.9321 159.992 32.9505C160.085 35.2805 159.55 37.1439 158.558 38.6577C157.56 40.1813 156.054 41.4157 154.106 42.4047C150.18 44.3976 144.629 45.3091 138.433 45.6467C132.26 45.983 125.58 45.7455 119.451 45.5197L119.121 45.5075C113.162 45.2879 107.693 45.0862 103.873 45.4852C103.686 45.5048 103.507 45.5773 103.359 45.6942C101.65 47.0401 99.4134 46.7457 98.2497 45.7273C98.1102 45.6051 97.9394 45.5242 97.7564 45.4935C97.0932 45.3824 96.501 45.4499 95.9703 45.6641C95.4539 45.8724 95.053 46.1967 94.7331 46.5098C94.5099 46.7283 94.2864 46.984 94.0961 47.2019C94.0294 47.2782 93.9668 47.3498 93.9097 47.4136C93.6627 47.6894 93.4577 47.8922 93.246 48.0367C93.2091 48.0619 93.1739 48.0895 93.1407 48.1194C92.8157 48.412 92.1027 48.4931 91.394 48.1797C91.065 48.0342 90.8742 47.8562 90.7997 47.7368C90.7904 47.7219 90.7833 47.7097 90.7781 47.6993C90.9099 47.5381 91.0688 47.2519 91.0202 46.8736C90.9711 46.4915 90.7394 46.2602 90.6133 46.1584C90.4805 46.0512 90.3435 45.9873 90.2517 45.9499C89.9152 45.8129 89.4174 45.7349 88.9137 45.6772C87.8336 45.5535 86.1615 45.4703 84.1184 45.415C80.0168 45.3038 74.288 45.3019 68.4895 45.3391C64.193 45.3667 59.8492 45.4159 56.0909 45.4584C54.7751 45.4733 53.531 45.4874 52.3859 45.4995C50.1758 45.5227 48.3368 45.5384 47.0579 45.5381C46.4168 45.5379 45.9254 45.5336 45.601 45.5246C45.4801 45.5213 45.3923 45.5176 45.3329 45.514C44.92 45.4025 44.4679 45.5666 44.2284 45.9438C44.2125 45.9689 44.1976 45.995 44.1838 46.0219L44.1837 46.0219C43.4772 47.3938 41.654 48.4303 39.8943 48.5603C39.037 48.6236 38.3107 48.4601 37.804 48.1231C37.3307 47.8083 36.9553 47.2827 36.8667 46.3819C36.8151 45.8577 36.3659 45.4634 35.8395 45.4803C35.689 45.4851 35.5377 45.49 35.3854 45.4949C29.2322 45.6929 21.6001 45.9386 15.1832 44.7115C8.56639 43.4463 3.71113 40.7185 2.69678 35.2439C2.64193 34.9478 2.45661 34.6923 2.19228 34.5481C1.84594 34.3592 1.80797 34.1903 1.80336 34.151C1.79829 34.1079 1.799 33.9237 2.10078 33.6428C2.19513 33.555 2.2716 33.4497 2.326 33.3329C2.46942 33.0248 2.50741 32.664 2.52285 32.3977C2.54027 32.0975 2.5349 31.7541 2.51882 31.4C2.49154 30.7991 2.42936 30.0938 2.36853 29.4038C2.35787 29.2829 2.34725 29.1624 2.33687 29.0431C2.26553 28.2231 2.20505 27.453 2.20078 26.8444C2.19863 26.5389 2.21123 26.3081 2.23464 26.1495C2.24152 26.1029 2.24823 26.0704 2.25324 26.0496C2.40214 25.8248 2.45481 25.5475 2.39565 25.2809C1.39166 20.7573 1.93642 15.3591 4.56233 11.1599C7.15206 7.01861 11.8324 3.9322 19.3849 4.05911C19.4254 4.05979 19.4659 4.05801 19.5062 4.05378C19.4975 4.05469 19.5013 4.0546 19.5233 4.05407C19.5517 4.05339 19.6107 4.05197 19.7127 4.05105C19.8663 4.04967 20.0768 4.04936 20.3385 4.04982C20.7133 4.05046 21.1851 4.05263 21.7319 4.05514C21.9484 4.05613 22.1766 4.05718 22.4152 4.05821C24.0945 4.06545 26.276 4.07169 28.4288 4.05093C30.5771 4.03022 32.7151 3.98251 34.3018 3.88034C35.0879 3.82971 35.776 3.76358 36.271 3.67269C36.5043 3.62983 36.7711 3.56859 36.9947 3.46659C37.0972 3.41982 37.2944 3.31951 37.4584 3.12469C37.468 3.11337 37.4774 3.10172 37.4866 3.08978C37.9259 2.85267 38.4863 2.7852 39.0665 2.88614C39.7514 3.00529 40.2797 3.32682 40.508 3.61463C40.7965 3.97814 41.297 4.09547 41.717 3.898C44.4059 2.63347 47.3992 1.88094 50.7917 2.00669L50.793 2.00674C52.3725 2.06329 53.0041 2.76278 53.1424 3.26065C53.2319 3.58307 53.4768 3.83934 53.7948 3.94344C54.1128 4.04755 54.4618 3.98569 54.7247 3.77863C55.5081 3.16155 56.6087 2.77962 57.6822 2.75167C58.7595 2.72362 59.6642 3.04997 60.2085 3.6593C60.3983 3.87166 60.6695 3.99307 60.9543 3.99307L60.9533 3.99307C60.9533 3.99308 60.9574 3.99311 60.9682 3.99329L61.0168 3.99425L61.18 3.99787C61.3144 4.00085 61.4959 4.00477 61.7077 4.00843C62.1306 4.01574 62.6782 4.02209 63.2204 4.01786C63.7563 4.01368 64.3117 3.99908 64.7407 3.96129C64.9465 3.94315 65.1721 3.91583 65.3634 3.8671C65.4485 3.84543 65.6065 3.8006 65.7633 3.70493C65.7942 3.68608 65.8513 3.64839 65.9167 3.59094C67.4504 2.82488 68.8578 3.13935 70.6848 3.54755C70.98 3.6135 71.2861 3.68189 71.6055 3.74857C72.7296 3.98328 73.9891 4.17054 75.3364 3.93819C76.688 3.70509 78.0475 3.06528 79.4345 1.79232C80.3892 1.15708 81.675 1.01711 82.7805 1.31853C83.9251 1.63064 84.6011 2.31802 84.7115 3.07182C84.758 3.38889 84.9536 3.66451 85.2375 3.81301C85.5215 3.96152 85.8595 3.96494 86.1464 3.8222C87.5196 3.13903 89.0225 3.08097 90.2045 3.83585C90.3652 3.93852 90.552 3.99307 90.7427 3.99307H97.4651C97.7915 3.99307 98.0974 3.83375 98.2845 3.56628C99.2191 2.23026 101.04 1.31193 102.749 1.21137C103.589 1.16197 104.327 1.31532 104.883 1.6406C105.416 1.95293 105.835 2.45314 106.033 3.23733C106.159 3.73826 106.644 4.05732 107.149 3.98237C107.154 3.98203 107.16 3.98163 107.169 3.9812C107.21 3.97907 107.272 3.97699 107.359 3.97525C107.53 3.9718 107.769 3.97019 108.072 3.97006C108.675 3.9698 109.504 3.97545 110.487 3.9827L110.841 3.98533C112.752 3.99952 115.161 4.01742 117.546 4.00961C120.077 4.00133 122.6 3.96411 124.481 3.86127C125.415 3.8102 126.224 3.74129 126.806 3.64475C127.085 3.59844 127.378 3.5356 127.619 3.43751C127.731 3.39186 127.921 3.30374 128.088 3.13861C128.096 3.1313 128.103 3.12373 128.111 3.1159C129.648 2.47523 131.15 2.90863 132.037 3.72772C132.222 3.89833 132.464 3.99307 132.715 3.99307L143.051 3.99315Z" stroke="#4E4B9A" stroke-width="2" stroke-miterlimit="10" stroke-linecap="round" stroke-linejoin="round" />
</svg>
