<svg width="272" height="79" viewBox="0 0 272 79" fill="none" xmlns="http://www.w3.org/2000/svg">
	<path d="M241.192 6.84418L241.209 6.84408C249.928 6.74248 255.98 8.53479 260.199 11.3877C264.405 14.2315 266.941 18.2315 268.446 22.8419C269.958 27.4775 270.413 32.6889 270.457 37.8582C270.484 41.0595 270.358 44.1205 270.239 47.0126C270.163 48.8574 270.09 50.6334 270.061 52.3334C270.061 52.3452 270.061 52.357 270.061 52.3688C270.061 52.3868 270.062 52.4048 270.062 52.4228C270.218 56.0719 269.319 58.9978 267.633 61.386C265.931 63.7955 263.361 65.7537 260.032 67.3224C253.337 70.4777 243.891 71.9126 233.391 72.4437C222.925 72.973 211.603 72.599 201.232 72.2444L200.692 72.2259C190.589 71.8801 181.348 71.5639 174.904 72.1887C174.636 72.2147 174.38 72.3121 174.163 72.4709C171.174 74.657 167.231 74.181 165.184 72.5175C164.978 72.3501 164.731 72.2404 164.469 72.1996C163.397 72.0329 162.451 72.1345 161.601 72.4526C160.769 72.7645 160.112 73.2542 159.575 73.7418C159.202 74.0813 158.829 74.4772 158.508 74.8188C158.394 74.9397 158.286 75.0538 158.188 75.1562C157.769 75.5898 157.412 75.9199 157.034 76.1593C156.979 76.1944 156.925 76.2332 156.875 76.2753C156.232 76.8123 154.89 76.9189 153.633 76.4027C153.039 76.159 152.689 75.858 152.55 75.6523C152.536 75.6313 152.525 75.6139 152.516 75.5992C152.725 75.3642 153.007 74.9122 152.922 74.2952C152.837 73.686 152.446 73.3371 152.262 73.1992C152.058 73.0462 151.848 72.9553 151.706 72.9015C151.175 72.7009 150.37 72.5811 149.515 72.4902C147.701 72.2973 144.881 72.1668 141.423 72.0798C134.486 71.9053 124.793 71.9022 114.977 71.9607C107.705 72.0041 100.353 72.0813 93.9909 72.1482C91.7634 72.1716 89.6572 72.1937 87.7183 72.2127C83.9771 72.2493 80.8627 72.274 78.6959 72.2733C77.6102 72.273 76.775 72.2664 76.2215 72.2522C75.9953 72.2464 75.8328 72.2397 75.7261 72.2331C75.1255 72.071 74.4656 72.2965 74.0973 72.8351C74.0776 72.8678 74.056 72.9105 74.0337 72.9596L74.0238 72.9541C72.8137 75.1355 69.6673 76.8111 66.5916 77.0219C65.0908 77.1248 63.7946 76.8601 62.8816 76.2963C62.0268 75.7684 61.3992 74.9182 61.2515 73.5237C61.1688 72.7437 60.4992 72.1591 59.7152 72.1824C59.4562 72.1901 59.1954 72.1979 58.9331 72.2057C48.5263 72.5167 35.5784 72.9037 24.6833 70.9696C13.4024 68.9671 5.12849 64.6348 3.40863 56.0177C3.31851 55.5661 3.02597 55.181 2.61514 54.973C1.96739 54.6451 1.9026 54.3497 1.89664 54.3026C1.89113 54.2591 1.87702 53.9634 2.42058 53.4937C2.56986 53.3647 2.69223 53.2075 2.78067 53.0311C3.02335 52.5471 3.08848 51.9765 3.11482 51.555C3.14444 51.0809 3.13528 50.5396 3.10803 49.9825C3.06179 49.0372 2.95643 47.9278 2.85347 46.8436C2.83543 46.6536 2.81746 46.4644 2.7999 46.277C2.67911 44.9881 2.57691 43.7797 2.56969 42.8252C2.56607 42.3462 2.58737 41.986 2.62655 41.7396C2.6381 41.667 2.6493 41.6168 2.65757 41.5849C2.91037 41.2335 3.00065 40.7868 2.89868 40.3603C1.20213 33.2642 2.11875 24.7892 6.5689 18.1829C10.9694 11.6503 18.9588 6.7468 31.8566 6.948C31.913 6.94888 31.9694 6.94658 32.0256 6.9411C32.0205 6.9416 32.0268 6.94144 32.0475 6.94091C32.0915 6.93979 32.2004 6.93701 32.4037 6.93531C32.6654 6.93311 33.0231 6.93264 33.4663 6.93335C34.1013 6.93437 34.9008 6.93778 35.8267 6.94172C36.1929 6.94328 36.579 6.94493 36.9825 6.94655C39.825 6.95793 43.516 6.96772 47.158 6.93512C50.7937 6.90258 54.4061 6.82764 57.0833 6.6676C58.4118 6.58818 59.5623 6.48502 60.3824 6.34522C60.7717 6.27885 61.1955 6.18718 61.5435 6.03982C61.6997 5.97369 62.0047 5.83069 62.2623 5.5466C62.2831 5.52369 62.3043 5.49904 62.3257 5.47263C63.1335 5.05539 64.1672 4.93883 65.2193 5.10875C66.4374 5.30547 67.3822 5.83662 67.7943 6.31877C68.2232 6.82056 68.9297 6.983 69.5347 6.71889C74.1179 4.71805 79.2301 3.52335 85.0276 3.72286L85.0294 3.72291C87.8256 3.81586 88.9522 4.98043 89.1897 5.77407C89.3293 6.24082 89.6869 6.61069 90.1487 6.76596C90.6104 6.92123 91.1189 6.84256 91.5121 6.55499C92.8744 5.55882 94.7926 4.93892 96.6728 4.89347C98.5668 4.84768 100.175 5.38328 101.139 6.38429C101.422 6.67814 101.812 6.84418 102.22 6.84418L102.22 6.84419C102.223 6.84421 102.231 6.8443 102.248 6.84457L102.332 6.8461L102.608 6.85178C102.836 6.85647 103.142 6.86262 103.5 6.86836C104.215 6.87983 105.139 6.88976 106.053 6.88314C106.959 6.87659 107.889 6.85368 108.603 6.7953C108.947 6.76712 109.31 6.72566 109.611 6.6546C109.744 6.62296 109.982 6.55984 110.218 6.42654C110.257 6.40443 110.354 6.34674 110.469 6.25069C113.17 4.98797 115.667 5.50748 118.768 6.15236C119.265 6.25587 119.778 6.36261 120.31 6.46572C122.204 6.83272 124.291 7.118 126.515 6.76193C128.744 6.4051 131.009 5.42251 133.341 3.43283C135.023 2.38786 137.295 2.15731 139.244 2.65074C141.279 3.16591 142.443 4.29785 142.629 5.47395C142.702 5.93833 142.989 6.34149 143.403 6.56308C143.818 6.78467 144.313 6.79905 144.739 6.60194C147.124 5.50054 149.783 5.39123 151.88 6.63444C152.112 6.77173 152.376 6.84418 152.645 6.84418H164.025C164.496 6.84418 164.939 6.623 165.223 6.24689C166.826 4.11892 169.968 2.63625 172.952 2.47334C175.932 2.31065 178.097 3.43431 178.722 5.73698C178.921 6.47199 179.637 6.93701 180.384 6.82882C180.394 6.82808 180.411 6.82705 180.435 6.82589C180.51 6.82233 180.619 6.81899 180.766 6.81624C181.059 6.81076 181.467 6.80822 181.979 6.80802C183.001 6.80761 184.406 6.8165 186.07 6.82789L186.669 6.83202C189.904 6.85432 193.981 6.88243 198.017 6.87017C202.301 6.85716 206.565 6.79867 209.74 6.63747C211.318 6.55733 212.676 6.44965 213.644 6.30052C214.111 6.22861 214.582 6.13364 214.96 5.99035C215.134 5.92443 215.427 5.79853 215.688 5.56027C215.707 5.5424 215.727 5.52319 215.748 5.50267C218.478 4.42694 221.158 5.14435 222.72 6.48296C222.992 6.71605 223.338 6.84418 223.696 6.84418H241.192Z" stroke="#C9C5CA" stroke-width="3" stroke-miterlimit="10" stroke-linecap="round" stroke-linejoin="round" />
</svg>
