<svg width="162" height="50" viewBox="0 0 162 50" fill="none" xmlns="http://www.w3.org/2000/svg">
	<path d="M143.051 3.89419L143.062 3.89405C148.204 3.82962 151.774 4.96539 154.269 6.77898C156.761 8.59119 158.272 11.1479 159.168 14.1018C160.068 17.0666 160.337 20.3945 160.363 23.6848C160.379 25.72 160.304 27.674 160.234 29.5155C160.189 30.6865 160.146 31.812 160.129 32.8839C160.129 32.8998 160.129 32.9158 160.13 32.9317C160.223 35.2825 159.683 37.171 158.674 38.7082C157.659 40.2539 156.132 41.5005 154.169 42.4957C150.216 44.4986 144.641 45.4095 138.44 45.7468C132.26 46.0829 125.573 45.8454 119.446 45.6201L119.125 45.6083C113.159 45.3887 107.698 45.1877 103.888 45.585C103.726 45.6018 103.572 45.6642 103.444 45.7648C101.681 47.151 99.3704 46.852 98.1586 45.7933C98.0383 45.6881 97.8911 45.6185 97.7335 45.5921C97.0938 45.4851 96.5277 45.5507 96.0222 45.7543C95.5291 45.9529 95.143 46.2633 94.8298 46.5693C94.6108 46.7833 94.3933 47.0319 94.2037 47.2484C94.136 47.3257 94.072 47.399 94.0127 47.4651C93.764 47.7423 93.55 47.9548 93.3241 48.1088C93.2923 48.1305 93.2619 48.1542 93.2333 48.18C92.8517 48.5229 92.0729 48.5882 91.3379 48.2637C90.9922 48.1111 90.776 47.9181 90.6827 47.7691C90.6458 47.7102 90.6292 47.6657 90.6293 47.6228C90.6347 47.6169 90.6401 47.611 90.6455 47.605C90.7656 47.4701 90.9294 47.2077 90.8838 46.853C90.8409 46.5201 90.6386 46.3176 90.5264 46.2272C90.4082 46.132 90.285 46.0743 90.1993 46.0395C89.8829 45.9108 89.4034 45.8343 88.8979 45.7765C87.8243 45.6538 86.1575 45.5708 84.1146 45.5156C80.0155 45.4047 74.2888 45.4027 68.4904 45.4399C64.1948 45.4674 59.8521 45.5165 56.0941 45.559C54.7777 45.5739 53.5331 45.5879 52.3873 45.6C50.1773 45.6232 48.3376 45.6389 47.0578 45.6385C46.4165 45.6383 45.9236 45.6341 45.5972 45.6251C45.4661 45.6215 45.3718 45.6173 45.3095 45.6133C44.9504 45.5105 44.554 45.6512 44.3449 45.98C44.3311 46.0017 44.3182 46.0242 44.3063 46.0474L44.3062 46.0474C43.573 47.4687 41.7002 48.5227 39.9045 48.6551C39.0262 48.7199 38.2666 48.5541 37.7272 48.1959C37.2169 47.857 36.822 47.2942 36.7298 46.3582C36.6853 45.9062 36.2979 45.5662 35.8439 45.5807C35.6914 45.5856 35.5379 45.5906 35.3835 45.5955C29.2347 45.7931 21.5894 46.0388 15.1571 44.811C8.52711 43.5454 3.59212 40.8035 2.56153 35.2509C2.51412 34.9955 2.35408 34.775 2.1259 34.6508C1.7518 34.4471 1.67784 34.2451 1.66678 34.1511C1.65534 34.054 1.68272 33.8302 2.00655 33.5293C2.08803 33.4535 2.15409 33.3628 2.2011 33.262C2.33295 32.9792 2.37026 32.6411 2.38558 32.3775C2.4026 32.0844 2.39745 31.7469 2.38146 31.3953C2.35432 30.7986 2.29244 30.0979 2.2316 29.4089C2.22093 29.2881 2.21029 29.1676 2.19988 29.048C2.12859 28.2301 2.0676 27.4562 2.06328 26.8424C2.06112 26.5346 2.07371 26.2964 2.09858 26.1282C2.10938 26.0552 2.12018 26.0123 2.12613 25.9915C2.26409 25.7943 2.3141 25.5472 2.26135 25.3099C1.25113 20.7661 1.79744 15.34 4.44539 11.1129C7.06218 6.93557 11.7893 3.83261 19.3873 3.96007C19.4221 3.96065 19.457 3.95912 19.4917 3.95549C19.4876 3.95591 19.4916 3.95581 19.5062 3.95542C19.5332 3.95471 19.5963 3.95305 19.7114 3.95201C19.8658 3.95062 20.0769 3.95032 20.3388 3.95077C20.7138 3.95141 21.1859 3.95358 21.7328 3.95608C21.9493 3.95708 22.1774 3.95812 22.4158 3.95915C24.095 3.96638 26.2757 3.9726 28.4274 3.95189C30.5753 3.93122 32.7102 3.88361 34.2928 3.78187C35.0779 3.7314 35.7594 3.66576 36.2459 3.57657C36.477 3.53421 36.7297 3.47547 36.9371 3.38104C37.0328 3.33749 37.2081 3.24764 37.3528 3.07614C37.3669 3.0594 37.3806 3.0419 37.3939 3.02367C37.8707 2.7569 38.4759 2.68446 39.0903 2.79116C39.7991 2.91426 40.3616 3.24802 40.6162 3.56829C40.8649 3.88122 41.2961 3.98224 41.6579 3.81237C44.3643 2.54185 47.3795 1.78483 50.7969 1.91129L50.7979 1.91132C52.4155 1.96914 53.1156 2.69003 53.2749 3.26278C53.3522 3.54065 53.5633 3.76148 53.8374 3.85126C54.1115 3.94105 54.4123 3.88789 54.639 3.70962C55.4476 3.07383 56.5776 2.68354 57.6785 2.65493C58.783 2.62622 59.7324 2.95965 60.3116 3.6068C60.4752 3.78963 60.7089 3.89412 60.9543 3.89412C60.9528 3.89412 60.9566 3.89413 60.9706 3.89436L61.0198 3.89533L61.1831 3.89894C61.3174 3.90192 61.4986 3.90583 61.7101 3.90948C62.1324 3.91676 62.6787 3.92308 63.2193 3.91887C63.7544 3.9147 64.3053 3.90015 64.7285 3.86293C64.9326 3.84497 65.1491 3.81844 65.3291 3.77266C65.41 3.75209 65.552 3.71139 65.6911 3.62669C65.7207 3.60867 65.7764 3.57183 65.8389 3.5152C67.4263 2.71692 68.8888 3.04396 70.7202 3.45345C71.0145 3.51927 71.3184 3.58722 71.6339 3.65297C72.7533 3.88628 73.9919 4.06875 75.3128 3.84135C76.6377 3.61325 77.9761 2.98615 79.3488 1.72631C80.3425 1.06173 81.6755 0.918387 82.817 1.22911C83.9928 1.54913 84.7266 2.26603 84.8476 3.09076C84.8877 3.36409 85.0563 3.60167 85.3011 3.72975C85.5459 3.85782 85.8372 3.8609 86.0846 3.73802C87.4888 3.04068 89.0456 2.97244 90.2791 3.75888C90.4176 3.8472 90.5785 3.89412 90.7427 3.89412H97.4651C97.7464 3.89412 98.01 3.75695 98.1714 3.52659C99.1333 2.15404 100.995 1.22 102.741 1.11749C103.601 1.06699 104.368 1.22294 104.953 1.56469C105.518 1.89526 105.96 2.42512 106.166 3.24264C106.276 3.67609 106.697 3.95154 107.133 3.88416C107.14 3.88371 107.149 3.88311 107.162 3.88245C107.205 3.88022 107.269 3.87811 107.356 3.87636C107.528 3.87289 107.769 3.87128 108.071 3.87115C108.675 3.87089 109.505 3.87654 110.488 3.88377L110.842 3.88639C112.753 3.90056 115.161 3.91842 117.546 3.91063C120.077 3.90237 122.596 3.86521 124.473 3.76275C125.406 3.71183 126.21 3.64334 126.783 3.54828C127.06 3.50243 127.341 3.44166 127.566 3.34979C127.672 3.30679 127.842 3.22703 127.991 3.08067C128.004 3.06819 128.017 3.05487 128.03 3.04072C129.629 2.36234 131.201 2.80894 132.131 3.66576C132.29 3.8126 132.499 3.89412 132.715 3.89412L143.051 3.89419ZM53.7046 2.25297C53.1691 1.57912 52.1936 1.09816 50.8287 1.04937C47.2575 0.917225 44.1064 1.71012 41.2914 3.03162C40.4511 1.97442 38.1823 1.37974 36.7118 2.43694L53.7046 2.25297Z" stroke="#C9C5CA" stroke-width="1.725" stroke-miterlimit="10" stroke-linecap="round" stroke-linejoin="round" />
</svg>
