<svg width="272" height="80" viewBox="0 0 272 80" fill="none" xmlns="http://www.w3.org/2000/svg">
	<path d="M241.182 6.07678L241.2 6.07667C249.925 5.97207 255.981 7.81672 260.205 10.7549C264.42 13.6864 266.967 17.8151 268.478 22.5801C269.997 27.3679 270.452 32.7477 270.496 38.0778C270.524 41.3772 270.397 44.5366 270.278 47.519C270.202 49.4194 270.129 51.248 270.1 52.995C270.1 53.024 270.1 53.0529 270.101 53.0819C270.258 56.8611 269.352 59.8927 267.656 62.3637C265.947 64.8536 263.37 66.8715 260.039 68.4862C253.337 71.7352 243.881 73.2132 233.366 73.7604C222.887 74.3057 211.548 73.9204 201.159 73.555L200.617 73.5359C190.499 73.1796 181.242 72.8537 174.784 73.4978C174.511 73.525 174.251 73.6267 174.031 73.7917C171.045 76.0386 167.115 75.5506 165.067 73.8395C164.86 73.6661 164.609 73.552 164.342 73.5093C163.263 73.3365 162.308 73.4419 161.452 73.7716C160.615 74.0942 159.957 74.5997 159.421 75.1004C159.048 75.4496 158.675 75.8565 158.354 76.2083C158.239 76.333 158.132 76.4508 158.032 76.5567C157.613 77.0044 157.254 77.3453 156.875 77.5922C156.819 77.6283 156.766 77.6681 156.716 77.7113C156.077 78.2608 154.748 78.3707 153.496 77.842C152.906 77.593 152.552 77.2832 152.408 77.0626C152.378 77.0165 152.358 76.9817 152.348 76.9525C152.557 76.7227 152.854 76.2635 152.769 75.6344C152.689 75.0373 152.314 74.6873 152.125 74.5421C151.921 74.3845 151.71 74.2903 151.566 74.2342C151.03 74.026 150.22 73.9022 149.363 73.8085C147.544 73.6095 144.719 73.4751 141.255 73.3854C134.306 73.2055 124.597 73.2024 114.765 73.2627C107.481 73.3074 100.118 73.387 93.7456 73.4558C91.5145 73.48 89.4049 73.5028 87.4629 73.5223C83.7157 73.56 80.5965 73.5854 78.4265 73.5848C77.3391 73.5845 76.503 73.5776 75.9492 73.563C75.7253 73.5571 75.5643 73.5503 75.4581 73.5437C74.8486 73.3759 74.1778 73.6089 73.8115 74.1601C73.7925 74.1926 73.7715 74.235 73.7501 74.2836L73.7404 74.2784C72.519 76.5435 69.3635 78.2617 66.3 78.4777C64.804 78.5832 63.513 78.3121 62.6019 77.7333C61.7463 77.1898 61.1032 76.3031 60.9522 74.8367C60.8716 74.0543 60.2004 73.467 59.4142 73.4911C59.1553 73.499 58.8947 73.507 58.6325 73.5151C48.208 73.8356 35.2429 74.2342 24.3343 72.2421C13.0591 70.1831 4.7488 65.7276 3.018 56.8066C2.93092 56.3577 2.64385 55.9731 2.23832 55.7619C1.59847 55.4286 1.51313 55.1185 1.50266 55.0335C1.49213 54.9479 1.49994 54.6239 2.04344 54.1407C2.18984 54.0105 2.30933 53.8529 2.39517 53.6769C2.63158 53.1918 2.69605 52.6178 2.72228 52.186C2.75166 51.7022 2.74264 51.1481 2.71542 50.5755C2.66921 49.6037 2.5639 48.4629 2.46077 47.3456C2.44269 47.1497 2.42467 46.9546 2.40706 46.7612C2.28612 45.4337 2.18338 44.1849 2.17612 43.1971C2.17248 42.7015 2.19382 42.3249 2.2341 42.0643C2.24775 41.9761 2.26109 41.9181 2.27019 41.8841C2.51702 41.5362 2.60558 41.0969 2.50787 40.6765C0.803707 33.3437 1.72508 24.587 6.19296 17.7637C10.609 11.0197 18.6112 5.97672 31.5116 6.18375C31.5696 6.18468 31.6277 6.18224 31.6854 6.17645C31.6793 6.17707 31.6859 6.1769 31.7091 6.1763C31.7542 6.17515 31.8621 6.17238 32.0606 6.17067C32.3224 6.16841 32.6806 6.16793 33.1245 6.16866C33.7604 6.1697 34.5609 6.17322 35.4881 6.17728C35.8551 6.17889 36.2419 6.18059 36.6462 6.18225C39.4933 6.19398 43.1904 6.20407 46.8385 6.17048C50.4801 6.13695 54.0992 6.05973 56.7818 5.89476C58.1126 5.81291 59.2668 5.70652 60.0903 5.56209C60.4811 5.49355 60.9086 5.39855 61.2599 5.24551C61.4192 5.17611 61.7238 5.02837 61.9789 4.73899C62.0008 4.71414 62.0223 4.68817 62.0433 4.66114C62.8484 4.23303 63.8759 4.11431 64.922 4.28811C66.1328 4.48928 67.0784 5.03308 67.4957 5.53535C67.9263 6.05354 68.6495 6.22112 69.264 5.94512C73.8521 3.8846 78.9673 2.65529 84.7669 2.8606L84.7687 2.86067C87.5434 2.95554 88.6876 4.14133 88.936 4.99562C89.0736 5.46883 89.4349 5.84426 89.9025 5.99995C90.3701 6.15564 90.8843 6.07173 91.2781 5.77548C92.6424 4.74917 94.5588 4.1134 96.4331 4.06679C98.3184 4.01991 99.9246 4.56693 100.892 5.6015C101.176 5.9047 101.573 6.07678 101.988 6.07678C101.987 6.07678 101.987 6.07678 101.988 6.07679C101.991 6.07682 101.999 6.0769 102.016 6.07717L102.099 6.07875L102.376 6.0846C102.604 6.08944 102.911 6.09577 103.27 6.10169C103.986 6.11351 104.912 6.12375 105.828 6.11692C106.735 6.11017 107.668 6.08656 108.385 6.02628C108.73 5.9972 109.096 5.95429 109.399 5.88041C109.535 5.84743 109.776 5.78164 110.013 5.64322C110.057 5.61768 110.154 5.558 110.265 5.46193C112.96 4.16641 115.448 4.69866 118.553 5.36284C119.051 5.46953 119.566 5.57963 120.1 5.6861C121.998 6.06445 124.094 6.35957 126.328 5.99153C128.568 5.62256 130.839 4.60721 133.174 2.55853C134.854 1.48431 137.119 1.24893 139.062 1.75479C141.08 2.28017 142.27 3.44186 142.463 4.69701C142.535 5.16566 142.824 5.57273 143.243 5.79483C143.662 6.01694 144.161 6.02792 144.589 5.82446C146.972 4.69246 149.621 4.58155 151.713 5.85737C151.948 6.00086 152.218 6.07678 152.494 6.07678H163.892C164.37 6.07678 164.819 5.84886 165.102 5.46316C166.715 3.2614 169.861 1.74015 172.836 1.57309C175.79 1.40717 177.975 2.54552 178.612 4.95933C178.807 5.70156 179.53 6.17208 180.281 6.06076C180.292 6.06002 180.308 6.059 180.331 6.05789C180.404 6.05424 180.513 6.05081 180.661 6.04798C180.954 6.04234 181.362 6.03972 181.875 6.03952C182.898 6.0391 184.306 6.04826 185.972 6.05999L186.572 6.06424C189.812 6.08723 193.895 6.11619 197.938 6.10356C202.229 6.09015 206.501 6.02989 209.682 5.86373C211.263 5.78114 212.625 5.67011 213.596 5.51614C214.065 5.4419 214.539 5.3436 214.921 5.19486C215.098 5.126 215.391 4.9956 215.651 4.75139C215.671 4.73275 215.691 4.71281 215.712 4.6916C218.432 3.58995 221.102 4.32238 222.666 5.70176C222.94 5.94343 223.293 6.07678 223.658 6.07678H241.182Z" fill="#FBE7F0" stroke="#4E4B9A" stroke-width="3" stroke-miterlimit="10" stroke-linecap="round" stroke-linejoin="round" />
	<path d="M123.343 45.928C123.986 42.58 123.476 38.656 122.931 35.236C122.528 31.132 123.53 27.1 122.624 22.996C117.795 19.504 116.345 36.856 114.518 42.94C112.024 36.424 113.378 26.776 106.784 22.744C106.352 22.6 106.028 22.636 105.56 23.068C104.121 23.788 103.922 34.516 104.913 47.512C105.023 48.664 106.463 49.024 107.146 48.304C107.46 41.212 106.332 33.652 107.221 26.344C110.611 30.304 109.469 36.784 111.564 41.428C112.287 43.444 113.154 45.532 112.617 47.584C112.834 47.98 113.159 48.844 114.023 48.88C116.077 50.32 119.004 33.4 120.329 28.54C120.264 33.616 120.955 38.44 121.107 43.48C120.928 44.2 120.463 46.324 121.437 47.584C123.421 50.104 126.476 46.576 123.343 45.928ZM132.479 40.348C132.077 36.748 130.922 34.444 130.916 30.556C130.916 30.124 130.699 29.728 130.339 29.476C131.742 29.152 132.387 26.848 131.341 25.696C130.403 24.58 130.402 23.644 129.106 23.536C127.234 23.716 128.21 26.308 129.111 27.136C129.111 27.172 129.111 27.244 129.111 27.316L128.536 27.604L128.788 27.856L128.717 28.252H128.753L128.717 28.324C128.861 28.648 129.15 29.044 129.366 29.224C127.459 29.836 128.4 32.86 128.654 34.48C129.559 38.044 130.034 42.22 130.723 45.748L130.22 46.432C135.013 49.564 132.699 42.904 132.479 40.348ZM150.392 43.48C149.922 42.076 148.512 38.728 147.934 36.964C147.39 34.12 146.772 30.34 143.604 30.34C141.804 30.448 140.257 30.952 139.792 33.112C139.033 30.988 139.391 29.944 137.914 29.224C137.051 29.512 136.08 30.196 136.477 31.276C137.381 33.688 138.577 39.196 139.374 42.256C139.631 45.532 141.107 45.892 142.185 44.632C142.684 41.248 141.129 36.244 142.672 33.004C143.104 33.076 143.608 33.256 144.112 33.148C144.941 34.012 144.981 36.424 145.379 37.72C146.03 39.628 147.546 42.652 147.801 44.56C148.272 46.684 151.114 45.316 150.392 43.48ZM166.134 39.088C165.702 39.124 164.73 39.088 164.298 38.944C162.354 39.34 162.069 41.32 161.783 42.796C161.066 44.308 160.852 45.64 159.95 44.632H159.842C157.932 43.156 157.856 40.24 158.392 37.864C159.472 38.008 160.624 37.828 161.559 37.324H162.279L162.275 34.732C161.519 34.732 160.799 34.732 160.044 35.056C159.468 35.272 159.288 35.272 158.676 35.2C158.708 32.5 159.063 28.864 159.561 25.408L158.876 24.508C156.859 24.112 156.754 26.056 156.649 27.604C156.08 32.284 156.187 31.78 156.011 34.48L155.542 34.012L153.709 35.884C154.322 36.532 154.899 37.144 155.871 37.432C155.122 42.112 154.98 42.94 158.009 46.54L158.009 46.576C161.686 49.708 164.307 44.992 164.77 41.644C165.993 41.284 166.244 40.168 166.134 39.088Z" fill="#4E4B9A" />
</svg>
