<svg preserveAspectRatio="none" width="162" height="50" viewBox="0 0 162 50" fill="none" xmlns="http://www.w3.org/2000/svg">
	<path d="M143.051 3.85564L143.062 3.8555C148.203 3.79096 151.774 4.92861 154.268 6.74532C156.761 8.56074 158.272 11.1221 159.168 14.0817C160.068 17.052 160.337 20.386 160.363 23.6821C160.379 25.7208 160.304 27.6783 160.234 29.523C160.189 30.6961 160.146 31.8236 160.129 32.8973C160.129 32.9132 160.129 32.9291 160.13 32.945C160.223 35.3005 159.683 37.1928 158.673 38.7331C157.658 40.2817 156.132 41.5305 154.168 42.5274C150.216 44.5337 144.641 45.4462 138.44 45.784C132.26 46.1207 125.574 45.8828 119.446 45.6571L119.125 45.6453C113.159 45.4253 107.698 45.224 103.888 45.6219C103.726 45.6388 103.572 45.7014 103.444 45.8022C101.681 47.1906 99.3708 46.8912 98.1592 45.8307C98.0388 45.7254 97.8915 45.6556 97.7337 45.6291C97.0938 45.5219 96.5274 45.5876 96.0218 45.7916C95.5285 45.9906 95.1424 46.3016 94.8293 46.608C94.6103 46.8224 94.3927 47.0714 94.2032 47.2884C94.1355 47.3658 94.0715 47.4391 94.0122 47.5053C93.7635 47.7831 93.5494 47.996 93.3235 48.1502C93.2917 48.172 93.2614 48.1958 93.2327 48.2216C92.8513 48.565 92.0731 48.6303 91.3384 48.3054C90.9929 48.1526 90.7766 47.9593 90.6831 47.8097C90.6457 47.7499 90.6289 47.7046 90.6293 47.6607C90.6349 47.6547 90.6405 47.6486 90.646 47.6424C90.7661 47.5074 90.9293 47.2452 90.8838 46.8911C90.8411 46.5585 90.6393 46.3561 90.5269 46.2654C90.4088 46.1701 90.2856 46.1122 90.1998 46.0773C89.8832 45.9483 89.4035 45.8717 88.898 45.8138C87.8244 45.6908 86.1575 45.6078 84.1147 45.5524C80.0155 45.4413 74.2888 45.4394 68.4904 45.4766C64.1948 45.5042 59.8522 45.5534 56.0943 45.5959C54.7778 45.6108 53.5331 45.6249 52.3873 45.6369C50.1773 45.6602 48.3376 45.6759 47.0578 45.6756C46.4165 45.6754 45.9236 45.6711 45.5972 45.6621C45.4662 45.6585 45.372 45.6543 45.3098 45.6503C44.9503 45.5473 44.5535 45.6883 44.3445 46.0175C44.3308 46.0392 44.3179 46.0617 44.306 46.0849L44.3059 46.0849C43.5724 47.5093 41.6995 48.5649 39.9044 48.6974C39.0264 48.7623 38.2671 48.5963 37.7278 48.2375C37.2175 47.898 36.8222 47.3339 36.7299 46.3953C36.6854 45.9432 36.2979 45.6031 35.8439 45.6177C35.6914 45.6226 35.5379 45.6275 35.3834 45.6325C29.2346 45.8304 21.5895 46.0765 15.1574 44.8466C8.52822 43.579 3.59243 40.8326 2.56158 35.2689C2.51427 35.0136 2.35444 34.7932 2.12645 34.6688C1.75263 34.465 1.678 34.2623 1.6668 34.167C1.65521 34.0684 1.68326 33.8436 2.00709 33.5421C2.08847 33.4664 2.15443 33.3756 2.20134 33.2748C2.33299 32.992 2.37027 32.6538 2.38558 32.3898C2.4026 32.0964 2.39745 31.7583 2.38146 31.4062C2.35432 30.8085 2.29246 30.1067 2.23162 29.4165C2.22094 29.2954 2.2103 29.1747 2.19989 29.055C2.12861 28.2357 2.0676 27.4603 2.06328 26.8453C2.06112 26.5368 2.07371 26.2981 2.09861 26.1294C2.1095 26.0557 2.12041 26.0125 2.12637 25.9917C2.26409 25.7947 2.31403 25.5477 2.26142 25.3107C1.25105 20.7584 1.79745 15.322 4.44575 11.087C7.06284 6.90195 11.79 3.79397 19.3872 3.92163C19.4221 3.92222 19.4571 3.92068 19.4918 3.91704C19.4877 3.91747 19.4917 3.91736 19.5064 3.91697C19.5335 3.91626 19.5965 3.9146 19.7115 3.91356C19.8658 3.91216 20.0769 3.91186 20.3388 3.91232C20.7138 3.91296 21.186 3.91513 21.7329 3.91764C21.9493 3.91864 22.1774 3.91968 22.4158 3.92071C24.095 3.92795 26.2757 3.93419 28.4274 3.91344C30.5753 3.89273 32.7102 3.84504 34.2929 3.74312C35.0781 3.69256 35.7595 3.62681 36.2461 3.53745C36.4773 3.495 36.7301 3.43614 36.9376 3.34149C37.0334 3.29782 37.2087 3.20781 37.3533 3.03613C37.3674 3.01935 37.3812 3.00179 37.3945 2.98351C37.8711 2.71634 38.476 2.64384 39.0901 2.75067C39.7985 2.87392 40.361 3.20812 40.6157 3.52917C40.8645 3.84269 41.2963 3.94389 41.6584 3.77357C44.3647 2.50089 47.3797 1.74262 50.7968 1.86929L50.7979 1.86932C52.4144 1.9272 53.1151 2.64883 53.2748 3.22386C53.3521 3.50195 53.5633 3.72298 53.8376 3.81277C54.1118 3.90256 54.4129 3.84921 54.6396 3.67062C55.4481 3.03372 56.578 2.64288 57.6786 2.61422C58.7826 2.58547 59.7318 2.91928 60.3111 3.56769C60.4747 3.75086 60.7087 3.85557 60.9543 3.85557C60.9527 3.85557 60.9566 3.85558 60.9705 3.85581L61.0197 3.85678L61.1831 3.8604C61.3174 3.86338 61.4986 3.8673 61.7101 3.87095C62.1324 3.87825 62.6787 3.88458 63.2193 3.88036C63.7545 3.87619 64.3054 3.86161 64.7286 3.82432C64.9327 3.80633 65.1493 3.77974 65.3295 3.73386C65.4104 3.71324 65.5525 3.67243 65.6917 3.58755C65.7214 3.56941 65.7771 3.5325 65.8395 3.47586C67.4265 2.67641 68.8885 3.0039 70.7198 3.41409C71.0142 3.48003 71.3181 3.5481 71.6336 3.61397C72.753 3.8477 73.9919 4.03053 75.313 3.80269C76.6382 3.57414 77.9768 2.94582 79.3494 1.68385C80.3429 1.01821 81.6755 0.874724 82.8167 1.18587C83.9917 1.50626 84.7263 2.22426 84.8476 3.05189C84.8876 3.32537 85.0563 3.56308 85.3013 3.69117C85.5462 3.81926 85.8377 3.82221 86.0851 3.69909C87.4891 3.00065 89.0453 2.93236 90.2785 3.71997C90.4171 3.80852 90.5782 3.85557 90.7427 3.85557H97.4651C97.7466 3.85557 98.0105 3.71816 98.1718 3.48746C99.1339 2.11217 100.996 1.17677 102.741 1.07411C103.601 1.02354 104.368 1.1797 104.952 1.52196C105.517 1.85306 105.96 2.38403 106.166 3.20374C106.275 3.63744 106.696 3.91308 107.133 3.84558C107.14 3.84514 107.149 3.84454 107.162 3.84388C107.205 3.84164 107.269 3.83953 107.356 3.83778C107.528 3.8343 107.769 3.83269 108.071 3.83256C108.675 3.8323 109.505 3.83796 110.488 3.8452L110.842 3.84783C112.753 3.86202 115.161 3.87991 117.546 3.87211C120.077 3.86383 122.596 3.82661 124.473 3.72397C125.406 3.67296 126.21 3.60435 126.784 3.50911C127.06 3.46317 127.341 3.40228 127.567 3.31021C127.672 3.2671 127.843 3.18717 127.992 3.04061C128.005 3.0281 128.018 3.01475 128.03 3.00058C129.629 2.32128 131.201 2.76837 132.13 3.6267C132.29 3.77385 132.499 3.85557 132.715 3.85557L143.051 3.85564ZM53.7052 2.21383C53.1698 1.53841 52.1941 1.05626 50.8287 1.00738C47.2575 0.874998 44.1064 1.66928 41.2914 2.99307C40.4511 1.93403 38.1823 1.33832 36.7118 2.39736L53.7052 2.21383Z" fill="#FBE7F0" stroke="#4E4B9A" stroke-width="1.725" stroke-miterlimit="10" stroke-linecap="round" stroke-linejoin="round" />
</svg>
