<svg preserveAspectRatio="none" width="420" height="241" viewBox="0 0 420 241" fill="none" xmlns="http://www.w3.org/2000/svg">
<path d="M416.362 16.0105V15.9789L416.36 15.9472C416.192 11.9632 415.777 8.79686 414.26 6.51278C412.656 4.09692 410.049 2.96315 406.368 2.41317C402.712 1.86697 397.654 1.84886 390.755 1.95573C389.045 1.98222 387.216 2.01661 385.26 2.0534C379.269 2.16608 372.078 2.30132 363.415 2.30132C349.202 2.30132 313.389 2.37681 269.882 2.46852C172.41 2.67398 36.3209 2.96084 17.9852 2.66261C14.6339 2.60809 11.8213 3.56815 9.55293 5.52005C7.31781 7.44334 5.72612 10.23 4.5888 13.6383C2.32685 20.4168 1.7081 30.1442 1.83589 41.9855C1.94283 51.8954 2.5781 63.4356 3.27995 76.1854C3.41951 78.7207 3.5617 81.3038 3.7029 83.9315C4.55521 99.7926 5.37404 117.318 5.37404 135.878C5.37404 140.073 5.00588 146.495 4.56673 154.155C4.48629 155.558 4.40346 157.003 4.32008 158.483C3.78343 168.01 3.22825 178.944 3.16118 189.516C3.09419 200.073 3.51281 210.339 4.94556 218.512C5.66165 222.596 6.64201 226.224 7.9794 229.127C9.29877 231.99 11.0375 234.302 13.3681 235.548C13.7597 235.787 14.2462 235.922 14.6307 236.013C15.1086 236.126 15.6991 236.228 16.3779 236.322C17.7394 236.51 19.5622 236.681 21.7683 236.837C26.1863 237.151 32.2352 237.414 39.4054 237.635C53.7508 238.077 72.6488 238.351 92.1058 238.521C126.168 238.819 161.977 238.796 178.135 238.785C180.438 238.784 182.342 238.783 183.785 238.783C188.44 238.783 197.348 238.846 209.028 238.929C233.433 239.102 269.938 239.361 305.025 239.309C330.994 239.27 356.25 239.061 375.371 238.521C384.929 238.251 392.975 237.898 398.818 237.439C401.736 237.211 404.134 236.953 405.909 236.662C406.794 236.516 407.558 236.357 408.17 236.177C408.701 236.021 409.382 235.779 409.848 235.331C416.046 229.363 417.53 222.323 417.616 205.971C417.651 199.416 417.457 191.274 417.212 181.006C417.15 178.428 417.086 175.716 417.021 172.862C416.697 158.624 416.362 140.797 416.362 118.259V16.0105Z" stroke="#221856" stroke-width="3"/>
</svg>
