<svg width="269" height="80" viewBox="0 0 269 80" fill="none" xmlns="http://www.w3.org/2000/svg">
	<path d="M238.522 4.57678H221.192C219.149 2.75481 215.696 1.89741 212.315 3.50503C212.738 5.21982 179.133 4.36243 178.076 4.57678C176.315 -2.17522 165.888 -0.674773 162.084 4.57678H150.812C148.205 2.96916 145.035 3.1835 142.358 4.4696C141.724 0.289791 134.961 -1.42499 130.804 1.36154C122.209 9.0781 115.657 0.289794 108.119 4.25525C108.19 4.79112 101.215 4.57678 100.863 4.57678C98.1858 1.68307 92.6203 2.11176 89.3796 4.57678C88.8864 2.86198 86.9843 1.46872 83.8845 1.36154C77.8962 1.14719 72.6125 2.43329 67.8923 4.57678C66.4833 2.86198 62.679 1.8974 60.2133 3.6122C60.7769 5.11264 32.2446 4.57677 31.1879 4.68394C4.76912 4.25524 -2.48724 25.6901 1.03527 41.0161C-0.0919353 42.3022 1.81022 51.412 1.03527 53.0196C-0.514635 54.4129 -0.303285 56.1277 1.52842 57.0923C5.33272 76.9195 38.0215 75.6334 58.8043 74.9904C59.5792 82.5998 71.2035 80.6706 74.2328 74.9904C73.8806 75.5263 154.264 73.49 149.403 76.0621C147.994 78.6343 153.489 80.9922 155.955 78.8487C158.068 77.4554 158.984 74.4545 162.295 74.9904C164.832 77.1339 169.481 77.6698 173.004 74.9904C198.507 72.4182 269.943 85.6007 268.604 53.0196C268.886 35.6574 273.888 4.14808 238.522 4.57678Z" fill="#FBE7F0" />
</svg>
