<svg width="160" height="50" viewBox="0 0 160 50" fill="none" xmlns="http://www.w3.org/2000/svg">
	<path d="M141.872 2.86049H131.564C130.349 1.72176 128.295 1.18588 126.284 2.19064C126.535 3.26239 106.547 2.72652 105.919 2.86049C104.871 -1.35951 98.6696 -0.421733 96.4068 2.86049H89.7023C88.1519 1.85572 86.2662 1.98969 84.6739 2.7935C84.2968 0.18112 80.274 -0.890621 77.8018 0.850964C72.6895 5.67381 68.7925 0.181121 64.3089 2.65953C64.3508 2.99445 60.2023 2.86049 59.9928 2.86049C58.4005 1.05192 55.0901 1.31985 53.1626 2.86049C52.8693 1.78874 51.7379 0.917948 49.8941 0.850964C46.3323 0.716996 43.1896 1.5208 40.3821 2.86049C39.544 1.78874 37.2812 1.18588 35.8146 2.25762C36.1498 3.1954 19.179 2.86048 18.5504 2.92746C2.83665 2.65953 -1.4794 16.0563 0.615771 25.6351C-0.0546827 26.4389 1.07671 32.1325 0.615771 33.1373C-0.306103 34.0081 -0.180393 35.0798 0.909095 35.6827C3.17188 48.0747 22.615 47.2709 34.9765 46.869C35.4375 51.6249 42.3515 50.4192 44.1534 46.869C43.9438 47.2039 91.7556 45.9312 88.8642 47.5388C88.0262 49.1465 91.2946 50.6201 92.7612 49.2804C94.0183 48.4096 94.5631 46.5341 96.5326 46.869C98.0411 48.2087 100.807 48.5436 102.902 46.869C118.071 45.2614 160.561 53.5004 159.765 33.1373C159.932 22.2859 162.907 2.59255 141.872 2.86049Z" fill="#FBE7F0" />
</svg>
