<svg width="704" height="622" viewBox="0 0 704 622" fill="none" xmlns="http://www.w3.org/2000/svg">
<path d="M4.63044 387.463C7.08716 387.463 9.07871 385.365 9.07871 382.778C9.07871 380.191 7.08716 378.094 4.63044 378.094C2.17372 378.094 0.182129 380.191 0.182129 382.778C0.182129 385.365 2.17372 387.463 4.63044 387.463Z" fill="white"/>
<path d="M488.867 621.999C495.614 621.999 501.084 616.239 501.084 609.134C501.084 602.029 495.614 596.269 488.867 596.269C482.119 596.269 476.649 602.029 476.649 609.134C476.649 616.239 482.119 621.999 488.867 621.999Z" fill="white"/>
<path d="M683.651 432.717C694.412 432.717 703.135 423.531 703.135 412.199C703.135 400.867 694.412 391.681 683.651 391.681C672.89 391.681 664.166 400.867 664.166 412.199C664.166 423.531 672.89 432.717 683.651 432.717Z" fill="white"/>
<path d="M626.575 488.73C629.343 488.73 631.587 486.367 631.587 483.452C631.587 480.537 629.343 478.174 626.575 478.174C623.807 478.174 621.563 480.537 621.563 483.452C621.563 486.367 623.807 488.73 626.575 488.73Z" fill="white"/>
<path d="M223.411 9.09538C225.695 9.09538 227.546 7.14589 227.546 4.74106C227.546 2.33622 225.695 0.386719 223.411 0.386719C221.127 0.386719 219.276 2.33622 219.276 4.74106C219.276 7.14589 221.127 9.09538 223.411 9.09538Z" fill="white"/>
<path d="M134.069 69.3316C140.09 69.3316 144.97 64.192 144.97 57.852C144.97 51.512 140.09 46.3724 134.069 46.3724C128.048 46.3724 123.167 51.512 123.167 57.852C123.167 64.192 128.048 69.3316 134.069 69.3316Z" fill="white"/>
<path d="M273.971 513.474C277.327 513.474 280.048 510.609 280.048 507.075C280.048 503.54 277.327 500.675 273.971 500.675C270.614 500.675 267.894 503.54 267.894 507.075C267.894 510.609 270.614 513.474 273.971 513.474Z" fill="white"/>
<path d="M236.317 538.872C247.978 538.872 257.43 528.917 257.43 516.638C257.43 504.359 247.978 494.405 236.317 494.405C224.656 494.405 215.203 504.359 215.203 516.638C215.203 528.917 224.656 538.872 236.317 538.872Z" fill="white"/>
</svg>
