<svg width="235" height="123" viewBox="0 0 235 123" fill="none" xmlns="http://www.w3.org/2000/svg">
<path d="M231.283 55.0104C205.854 71.6144 128.429 102.309 98.1115 95.8564C95.7591 94.8583 94.1997 93.7546 94.0347 91.7589C95.224 93.1137 96.0632 94.1116 98.4619 94.6999C135.408 97.1418 197.719 68.8647 231.283 55.0104Z" fill="black"/>
<path d="M27.1947 104.186C24.4191 106.069 21.6435 107.952 18.8679 109.835C17.3017 110.952 15.7354 112.069 14.6185 113.529C14.4466 113.754 14.3607 113.866 14.4004 114.163C14.4268 114.361 14.5523 114.547 14.6779 114.732C15.5038 115.63 16.9047 115.545 18.2065 115.472C22.4953 115.102 26.7973 114.832 31.086 114.462C30.3064 113.154 29.1698 112.195 28.4893 110.874C27.5709 109.281 27.4059 107.285 28.0867 105.581L27.1947 104.186Z" fill="#B7B7B7"/>
<path d="M29.0982 103.327C27.9813 104.787 27.5383 106.763 27.8884 108.633C28.2384 110.504 29.4542 112.057 31.0996 113.048C31.4233 113.207 31.7471 113.365 32.0577 113.425C32.5665 113.458 33.1481 113.279 33.6305 113.114C44.2502 108.774 55.0483 105.015 66.1372 101.923C68.4633 101.21 70.9018 100.582 73.0628 99.3862C71.7676 98.7517 71.8273 96.9278 72.1512 95.5732C72.9644 91.833 74.4119 88.311 76.2824 84.9344C67.1496 87.5636 58.6775 92.1224 49.9874 95.8024C43.0155 98.749 35.8651 101.114 28.7149 103.479L29.0982 103.327Z" fill="#727272"/>
<path d="M208.516 35.5375C197.633 27.3027 188.475 17.6274 182.014 5.47437C141.001 30.8129 100.755 57.3608 61.4001 85.3032C59.4638 86.6709 57.2234 88.7853 58.1351 91.085C63.706 89.7375 70.4994 87.7226 75.7135 85.212C73.8761 88.0798 71.034 94.007 71.5822 97.364C72.1436 100.82 76.386 100.86 78.7718 98.3229C79.5975 102.248 79.4185 107.72 82.4184 110.548C86.2842 110.033 88.4126 104.806 89.153 101.278C98.0266 114.118 108.891 112.368 99.6803 96.2433C137.869 94.3833 169.848 79.2272 205.342 66.2256C213.886 62.9686 222.715 59.5728 229.463 53.4278C219.907 52.885 215.157 42.219 208.516 35.5375Z" fill="#FFD3B6"/>
<path d="M79.0496 98.8912C79.1219 103.22 80.3969 107.489 82.7821 111.004C85.4984 107.919 87.4019 104.033 87.964 99.9229C96.884 110.84 105.461 113.128 99.7269 95.8336C144.868 93.1483 188.034 71.8608 229.185 54.3727C215.54 49.6334 207.525 35.6695 197.806 25.5647C199.971 46.3609 150.858 59.3612 135.09 68.2213C123.4 73.6124 111.022 76.8757 98.3939 76.7424C92.0298 81.2221 87.8394 89.145 79.8366 91.9263C73.8825 93.4258 74.5097 100.404 78.792 97.7149L79.0496 98.8912Z" fill="#D3A288"/>
<path d="M67.3018 80.3806C63.3565 83.3275 59.7877 86.8295 56.7806 90.7611C62.9397 88.5281 70.5788 88.3174 74.5244 82.3439C130.796 52.652 158.466 39.9867 189.771 16.7487C187.987 15.4731 182.476 7.43047 181.604 5.42811C144.906 30.5952 105.843 53.1519 68.9475 78.3454L67.3018 80.3806Z" fill="#FFE3D4"/>
<path d="M75.6145 85.2252C74.6958 86.6591 45.8167 100.091 58.1158 87.1531C92.9171 59.1112 142.032 30.9782 176.509 8.83079C183.369 4.285 184.386 4.35121 177.15 9.85515C143.783 34.2759 94.1196 62.0784 58.5451 89.618C54.5468 93.6817 76.5728 84.0887 75.6145 85.2252Z" fill="black"/>
<path d="M101.46 80.0665C99.1731 87.1305 86.709 98.0725 78.1511 101.23C67.6636 105.049 69.5084 93.9077 73.2095 88.3704C78.8009 78.8485 79.7854 79.4235 75.1522 89.3221C64.1802 114.492 98.0765 83.443 101.46 80.0665Z" fill="black"/>
<path d="M89.7617 93.7312C91.235 96.4605 86.8915 117.62 80.4557 111.718C78.4735 108.955 78.3486 101.204 79.4655 99.7437C80.6748 100.491 81.1301 107.693 82.5242 109.828C85.9674 106.141 87.2569 96.8897 89.7617 93.7312Z" fill="black"/>
<path d="M98.7226 95.8665C109.903 107.088 97.9406 120.284 89.563 102.837C87.4556 96.8633 88.5063 96.4206 91.4531 101.879C92.715 104.536 100.122 112.427 100.387 105.33C100.552 102.785 98.1344 96.7519 98.7226 95.8665Z" fill="black"/>
<path d="M72.719 99.8356C65.0067 104.798 53.2967 107.77 43.0471 111.86C39.0094 112.599 34.2907 116.557 30.0484 115.004C27.0023 112.585 25.5886 108.032 27.3335 104.47C29.3559 101.477 33.2613 101.259 36.1889 99.7595C44.1388 96.5817 53.8202 92.7697 60.8317 90.1205C79.6525 82.9722 80.0952 84.0229 61.6047 92.136C53.1261 95.8887 41.7529 100.632 32.3821 104.504C28.9524 105.263 29.0512 108.277 30.4255 111.019C30.9408 111.859 31.1192 112.44 31.8395 112.546C45.2149 108.444 60.6984 102.749 72.719 99.8356Z" fill="black"/>
<path d="M34.734 114.581C31.3041 116.854 19.8587 117.27 14.5192 118.082C13.6007 118.002 12.4839 117.949 11.9554 117.011C10.7132 115.26 12.1011 113.562 13.7069 112.742C17.5796 110.007 26.0585 103.228 29.3164 102.693C27.9879 105.594 19.3438 111.89 15.8081 114.884C20.6189 114.646 31.4762 113.603 34.734 114.581Z" fill="black"/>
<path d="M19.0853 115.254C17.0829 116.126 16.244 112.102 18.3521 112.023C20.2486 111.871 20.8035 114.521 19.0853 115.254Z" fill="black"/>
<path d="M29.0248 108.079C43.484 103.025 57.9036 97.6734 72.1976 92.137" stroke="black" stroke-width="2" stroke-miterlimit="10"/>
</svg>
