<svg preserveAspectRatio="none" width="200" height="50" viewBox="0 0 200 50" fill="none" xmlns="http://www.w3.org/2000/svg">
<g clip-path="url(#clip0_250_3354)">
<path d="M177.34 3.86054L177.35 3.86043C183.807 3.79464 188.308 4.95644 191.448 6.81302C194.569 8.65829 196.427 11.2376 197.525 14.1787C198.631 17.1434 198.965 20.4801 198.997 23.8006C199.017 25.8603 198.925 27.8204 198.837 29.6779C198.781 30.8669 198.727 32.0138 198.706 33.118C198.706 33.1407 198.706 33.1634 198.707 33.1861C198.82 35.494 198.172 37.3498 196.937 38.8796C195.684 40.4319 193.78 41.703 191.305 42.7229C186.339 44.7694 179.347 45.6951 171.606 46.0374C163.887 46.3788 155.539 46.1376 147.902 45.9092L147.52 45.8978C140.067 45.6748 133.274 45.4715 128.543 45.8726C128.381 45.8863 128.225 45.9391 128.089 46.0265C125.82 47.4773 122.805 47.162 121.245 46.0538C121.113 45.9602 120.961 45.8999 120.8 45.8781C119.234 45.665 118.182 46.1803 117.353 46.8397C117.079 47.0568 116.807 47.3097 116.571 47.5294C116.486 47.6076 116.407 47.6816 116.333 47.7483C116.026 48.0266 115.757 48.2448 115.467 48.4058C115.43 48.426 115.395 48.4484 115.362 48.473C115.112 48.6555 114.726 48.7804 114.23 48.8004C113.74 48.82 113.219 48.7334 112.773 48.5737C112.354 48.4232 112.093 48.2411 111.97 48.1094C112.112 47.9448 112.289 47.6476 112.225 47.2402C112.154 46.7932 111.838 46.5647 111.732 46.4949C111.594 46.405 111.455 46.3522 111.359 46.3206C110.996 46.2007 110.43 46.1252 109.798 46.0665C108.472 45.9432 106.404 45.8593 103.858 45.8033C98.7521 45.691 91.6166 45.689 84.3879 45.7267C79.0328 45.7546 73.6194 45.8043 68.9343 45.8474C67.2934 45.8625 65.7419 45.8767 64.3135 45.8889C61.5583 45.9125 59.2635 45.9284 57.6664 45.928C56.8666 45.9278 56.249 45.9235 55.8383 45.9143C55.6546 45.9102 55.5241 45.9053 55.441 45.9003C55.0666 45.8041 54.6555 45.9313 54.4039 46.253C54.3889 46.275 54.3721 46.3042 54.3547 46.338L54.3473 46.3333C53.918 47.01 53.1321 47.644 52.1022 48.1317C51.0823 48.6147 49.8979 48.9178 48.7678 48.9855C47.6268 49.0539 46.625 48.8784 45.9145 48.4947C45.2454 48.1334 44.8147 47.5849 44.7134 46.7487C44.6514 46.2368 44.2102 45.8559 43.6947 45.8693C43.5008 45.8744 43.3057 45.8795 43.1093 45.8846C35.4517 46.0848 25.8955 46.3345 17.8481 45.0854C13.7219 44.4449 10.0718 43.4209 7.30524 41.8459C4.55875 40.2824 2.73964 38.213 2.1113 35.4601C2.04107 35.1525 1.82973 34.896 1.54115 34.7683C1.10012 34.573 1.01476 34.4013 1.00142 34.3685C1.00745 34.3294 1.05352 34.1762 1.37261 33.9351C1.48015 33.8538 1.57015 33.7517 1.6372 33.6347C1.82806 33.3019 1.8783 32.9095 1.89822 32.6307C1.92071 32.3159 1.91359 31.9598 1.89337 31.5983C1.85907 30.9852 1.78095 30.2659 1.70515 29.568C1.69188 29.4459 1.67869 29.3244 1.66581 29.2042C1.57674 28.3732 1.50238 27.6023 1.49714 26.9964C1.49451 26.6923 1.51015 26.4713 1.53659 26.3259C1.54173 26.2976 1.54664 26.2758 1.55079 26.2595C1.7488 26.0119 1.81929 25.6821 1.73431 25.3713C0.497245 20.8468 1.16016 15.4347 4.42312 11.199C7.6648 6.99103 13.5909 3.79664 23.1744 3.92737C23.2073 3.92782 23.2402 3.92664 23.273 3.92385C23.2707 3.92404 23.2694 3.92415 23.2694 3.92418C23.2694 3.92429 23.2892 3.92321 23.3417 3.92208C23.3981 3.92087 23.4746 3.91989 23.5718 3.91918C23.7657 3.91776 24.0301 3.91745 24.3567 3.91791C24.8246 3.91857 25.4138 3.92076 26.0958 3.92331C26.3656 3.92431 26.6498 3.92537 26.9468 3.92641C29.0401 3.93374 31.7571 3.94004 34.4377 3.91906C37.1147 3.89811 39.7702 3.84987 41.7358 3.74713C42.7126 3.69607 43.5497 3.63012 44.1409 3.54197C44.4235 3.49985 44.7161 3.44365 44.9508 3.35673C45.0521 3.31922 45.2591 3.23571 45.4395 3.06179C45.4567 3.04523 45.4748 3.02667 45.4934 3.00609C46.1326 2.71058 46.954 2.62909 47.7777 2.74542C48.7188 2.87832 49.4476 3.23736 49.7624 3.55949C50.0409 3.8444 50.462 3.93682 50.8342 3.79473C54.2316 2.49781 58.0289 1.72086 62.3376 1.85051L62.3386 1.85054C64.5004 1.91337 65.3464 2.71454 65.5071 3.18418C65.6064 3.47458 65.8336 3.70328 66.1234 3.80452C66.4131 3.90576 66.7333 3.86833 66.9919 3.70298C68.0189 3.04631 69.4704 2.63454 70.9004 2.60431C72.347 2.57373 73.5851 2.93416 74.3185 3.60059C74.5026 3.76783 74.7424 3.86048 74.991 3.86048C74.9905 3.86048 74.9921 3.86048 74.9971 3.86053L75.0158 3.86076L75.0782 3.86176L75.2822 3.86542C75.4494 3.86844 75.6748 3.87239 75.9378 3.87609C76.4633 3.88346 77.1419 3.88983 77.8127 3.88558C78.4784 3.88137 79.1566 3.86664 79.6734 3.82968C79.9243 3.81173 80.1778 3.78595 80.3826 3.74361C80.4736 3.72477 80.6282 3.68868 80.7808 3.6131C80.8236 3.59192 80.8908 3.55589 80.9656 3.49945C83.0263 2.65304 84.9468 3.0033 87.2327 3.4202C87.5976 3.48675 87.9718 3.555 88.3574 3.62035C91.1708 4.09718 94.3032 4.30154 97.7976 1.69197C99.0819 0.991059 100.822 0.835822 102.313 1.16586C103.902 1.51745 104.734 2.28284 104.858 2.97108C104.912 3.26727 105.096 3.52364 105.359 3.66905C105.623 3.81446 105.938 3.83344 106.217 3.72074C108.016 2.99423 110.056 2.91276 111.668 3.74827C111.81 3.822 111.968 3.86048 112.128 3.86048H120.509C120.8 3.86048 121.076 3.73373 121.266 3.51329C122.453 2.13565 124.807 1.15413 127.071 1.04602C129.381 0.935704 130.998 1.72116 131.444 3.15685C131.592 3.63574 132.072 3.93054 132.567 3.84626C132.543 3.85037 132.544 3.85031 132.591 3.84869C132.632 3.84725 132.709 3.84457 132.834 3.84253C133.052 3.83896 133.354 3.83733 133.731 3.8372C134.485 3.83694 135.521 3.84267 136.746 3.85L137.187 3.85266C139.57 3.86702 142.571 3.88512 145.542 3.87723C148.696 3.86885 151.832 3.83118 154.165 3.72763C155.326 3.67609 156.316 3.60713 157.017 3.51269C157.357 3.46692 157.686 3.40811 157.944 3.32256C158.06 3.28398 158.257 3.21045 158.436 3.06778C158.453 3.05389 158.472 3.03782 158.492 3.01964C160.594 2.2837 162.666 2.76936 163.855 3.66062C164.028 3.79036 164.238 3.86048 164.455 3.86048L177.34 3.86054ZM110.674 46.6252C110.673 46.6257 110.671 46.6263 110.67 46.6268C110.677 46.6233 110.679 46.6228 110.674 46.6252ZM1.00067 34.3784C1.00058 34.3784 1.00051 34.3772 1.0007 34.3746C1.00085 34.3772 1.00075 34.3784 1.00067 34.3784ZM1.56278 26.2207C1.56284 26.2208 1.56208 26.223 1.56034 26.2269C1.56184 26.2226 1.56272 26.2206 1.56278 26.2207Z" fill="#FBE7F0" stroke="#4E4B9A" stroke-width="2" stroke-miterlimit="10" stroke-linecap="round" stroke-linejoin="round"/>
</g>
<defs>
<clipPath id="clip0_250_3354">
<rect width="200" height="50" fill="white"/>
</clipPath>
</defs>
</svg>
