<svg preserveAspectRatio="none" width="201" height="50" viewBox="0 0 201 50" fill="none" xmlns="http://www.w3.org/2000/svg">
<g clip-path="url(#clip0_250_3364)">
<path d="M178.109 3.99312L178.119 3.99302C184.599 3.92798 189.117 5.07656 192.269 6.91228C195.401 8.73636 197.263 11.2842 198.363 14.1859C199.471 17.1118 199.806 20.4055 199.838 23.6852C199.858 25.7201 199.766 27.655 199.678 29.4895C199.622 30.6646 199.567 31.7985 199.546 32.8912C199.545 32.9143 199.546 32.9374 199.547 32.9604C199.66 35.2338 199.013 37.0623 197.775 38.5719C196.519 40.1047 194.609 41.3614 192.124 42.3698C187.14 44.3931 180.124 45.3078 172.357 45.6462C164.613 45.9835 156.237 45.7451 148.577 45.5195L148.194 45.5082C140.716 45.2878 133.902 45.087 129.157 45.4832C128.997 45.4966 128.843 45.5481 128.708 45.6336C126.427 47.0699 123.395 46.7577 121.827 45.6604C121.696 45.5688 121.545 45.5098 121.386 45.4886C119.821 45.2789 118.77 45.7853 117.938 46.4369C117.663 46.6515 117.39 46.9015 117.153 47.1185C117.069 47.1958 116.989 47.2689 116.915 47.3348C116.607 47.6096 116.337 47.8255 116.045 47.9848C116.009 48.0047 115.974 48.0268 115.94 48.051C115.688 48.2322 115.298 48.3565 114.797 48.3763C114.304 48.3959 113.778 48.3099 113.33 48.1514C112.922 48.0069 112.662 47.833 112.535 47.7047C112.676 47.538 112.847 47.2438 112.782 46.8424C112.71 46.391 112.387 46.1635 112.283 46.0964C112.146 46.008 112.007 45.9562 111.912 45.9252C111.55 45.8073 110.984 45.7329 110.35 45.6749C109.02 45.5531 106.946 45.4702 104.391 45.4148C99.2699 45.3038 92.1118 45.3019 84.86 45.3391C79.4879 45.3667 74.0572 45.4158 69.3571 45.4584C67.711 45.4733 66.1546 45.4874 64.7217 45.4994C61.9577 45.5227 59.6555 45.5384 58.0533 45.538C57.2508 45.5379 56.6311 45.5336 56.2189 45.5245C56.0333 45.5204 55.9016 45.5156 55.8179 45.5106C55.4467 45.416 55.0393 45.5407 54.7874 45.858C54.7721 45.88 54.7551 45.9092 54.7374 45.9431L54.7299 45.9383C54.3007 46.6046 53.513 47.2315 52.4779 47.7143C51.4535 48.1922 50.2634 48.4922 49.1273 48.5593C47.9802 48.627 46.9719 48.4532 46.2568 48.0728C45.5826 47.7142 45.1559 47.1738 45.0555 46.3577C44.9927 45.8467 44.5521 45.4669 44.0374 45.4801C43.8427 45.4851 43.6468 45.4901 43.4495 45.4952C35.7679 45.6929 26.1799 45.9398 18.1052 44.7052C13.9645 44.0721 10.301 43.0598 7.52421 41.5027C4.76633 39.9562 2.94552 37.9124 2.31706 35.2003C2.24564 34.8921 2.03257 34.6359 1.74256 34.5094C1.32125 34.3257 1.22437 34.1641 1.20545 34.1245C1.21568 34.0799 1.27301 33.9357 1.57214 33.713C1.68046 33.6324 1.77133 33.5307 1.83926 33.414C2.03305 33.0811 2.08383 32.6889 2.1039 32.4122C2.12658 32.0995 2.11937 31.7463 2.09906 31.3887C2.06461 30.782 1.98614 30.0704 1.9101 29.3809C1.8968 29.2602 1.88357 29.1402 1.87066 29.0216C1.78129 28.2002 1.70685 27.4398 1.70161 26.8426C1.69897 26.5428 1.71466 26.3263 1.74075 26.185C1.74536 26.1601 1.74976 26.1404 1.75355 26.1253C1.95427 25.8764 2.02559 25.5434 1.93862 25.2301C0.699766 20.767 1.36287 15.4272 4.63309 11.2458C7.88385 7.08927 13.8311 3.9299 23.4514 4.05916C23.4838 4.0596 23.5162 4.05846 23.5485 4.05575C23.5465 4.05592 23.5453 4.05601 23.5453 4.05604C23.5453 4.05615 23.5654 4.05507 23.6187 4.05394C23.6754 4.05274 23.7522 4.05177 23.8497 4.05107C24.0443 4.04966 24.3096 4.04936 24.6372 4.04982C25.1067 4.05046 25.6979 4.05263 26.3821 4.05515C26.6527 4.05614 26.9378 4.05719 27.2357 4.05821C29.3356 4.06545 32.0612 4.07168 34.7503 4.05095C37.4358 4.03025 40.0994 3.98259 42.0709 3.88108C43.0506 3.83063 43.8897 3.7655 44.482 3.67852C44.7652 3.63694 45.0573 3.5816 45.2913 3.49624C45.3919 3.45957 45.5987 3.37755 45.7796 3.20574C45.7968 3.18939 45.8151 3.171 45.8339 3.15053C46.4779 2.85694 47.3059 2.776 48.1355 2.8914C49.0828 3.02318 49.8158 3.3792 50.1316 3.69745C50.4091 3.97702 50.8247 4.06771 51.1934 3.92909C54.6031 2.647 58.4147 1.87875 62.7398 2.00694L62.7408 2.00697C64.9184 2.06931 65.7652 2.86565 65.9234 3.32116C66.0235 3.6092 66.2494 3.83586 66.5372 3.93675C66.8249 4.03763 67.143 4.00173 67.401 3.83923C68.4326 3.18951 69.8912 2.78173 71.329 2.7518C72.7841 2.7215 74.0295 3.07887 74.7662 3.73821C74.9496 3.90233 75.187 3.99307 75.4331 3.99307C75.4326 3.99307 75.4343 3.99307 75.4394 3.99312L75.4582 3.99335L75.5208 3.99433L75.7255 3.99795C75.8933 4.00094 76.1193 4.00484 76.3832 4.00849C76.9102 4.01577 77.5909 4.02207 78.2637 4.01787C78.9314 4.01371 79.6113 3.99915 80.1291 3.96267C80.3807 3.94495 80.634 3.91954 80.8383 3.87793C80.9291 3.85943 81.0828 3.82406 81.2346 3.75003C81.277 3.72934 81.3444 3.69383 81.4195 3.63785C83.4918 2.79909 85.4241 3.14628 87.7176 3.55836C88.0835 3.62412 88.4587 3.69152 88.8451 3.75603C91.6646 4.22672 94.802 4.42887 98.3049 1.85204C99.5962 1.15773 101.347 1.00384 102.846 1.3308C104.448 1.68006 105.277 2.43934 105.399 3.10708C105.453 3.40177 105.636 3.65673 105.899 3.80181C106.161 3.94689 106.474 3.9668 106.752 3.85606C108.56 3.13702 110.612 3.0558 112.234 3.88366C112.374 3.95558 112.53 3.99307 112.688 3.99307H121.096C121.384 3.99307 121.659 3.86857 121.848 3.65152C123.039 2.29098 125.402 1.31906 127.678 1.212C130.006 1.10252 131.626 1.88455 132.07 3.29354C132.22 3.76932 132.697 4.06188 133.189 3.97926C133.166 3.98314 133.169 3.98305 133.214 3.98148C133.256 3.98004 133.333 3.97737 133.46 3.97533C133.679 3.9718 133.982 3.97019 134.361 3.97006C135.117 3.9698 136.156 3.97547 137.385 3.98271L137.828 3.98533C140.218 3.99953 143.228 4.01741 146.209 4.00961C149.374 4.00134 152.519 3.96411 154.859 3.8618C156.023 3.81088 157.016 3.74276 157.718 3.64956C158.059 3.60436 158.388 3.54642 158.645 3.46232C158.761 3.4245 158.958 3.3523 159.136 3.21174C159.154 3.198 159.173 3.18196 159.193 3.16368C161.308 2.43362 163.393 2.91527 164.588 3.79752C164.76 3.92453 164.968 3.99307 165.182 3.99307L178.109 3.99312ZM111.236 46.2257C111.235 46.2262 111.234 46.2268 111.232 46.2273C111.24 46.2236 111.242 46.2233 111.236 46.2257ZM1.20344 34.1392C1.20331 34.1392 1.20325 34.1375 1.20367 34.1342C1.20378 34.1376 1.20357 34.1392 1.20344 34.1392ZM1.76596 26.0849C1.76603 26.085 1.76518 26.0874 1.76319 26.0919C1.76489 26.087 1.76588 26.0848 1.76596 26.0849Z" stroke="#C9C5CA" stroke-width="2" stroke-miterlimit="10" stroke-linecap="round" stroke-linejoin="round"/>
</g>
<defs>
<clipPath id="clip0_250_3364">
<rect width="201" height="50" fill="white"/>
</clipPath>
</defs>
</svg>
