<svg preserveAspectRatio="none" width="161" height="50" viewBox="0 0 161 50" fill="none" xmlns="http://www.w3.org/2000/svg">
<path d="M142.759 2.86049H132.386C131.163 1.72176 129.097 1.18588 127.073 2.19064C127.326 3.26239 107.213 2.72652 106.581 2.86049C105.527 -1.35951 99.2863 -0.421733 97.0094 2.86049H90.263C88.7028 1.85573 86.8054 1.98969 85.2031 2.7935C84.8236 0.181119 80.7758 -0.890621 78.288 0.850964C73.1439 5.67382 69.2225 0.181121 64.7108 2.65953C64.753 2.99445 60.5786 2.86049 60.3678 2.86049C58.7655 1.05192 55.4345 1.31985 53.4949 2.86049C53.1997 1.78874 52.0612 0.917948 50.206 0.850964C46.6219 0.716996 43.4595 1.5208 40.6345 2.86049C39.7912 1.78874 37.5142 1.18589 36.0384 2.25763C36.3758 3.19541 19.2988 2.86049 18.6664 2.92747C2.85438 2.65954 -1.48864 16.0563 0.61962 25.6351C-0.0550238 26.4389 1.08344 32.1325 0.61962 33.1373C-0.308015 34.0081 -0.181521 35.0798 0.914776 35.6827C3.1917 48.0747 22.7564 47.2709 35.1951 46.869C35.6589 51.6249 42.6162 50.4192 44.4293 46.869C44.2185 47.2039 92.329 45.9312 89.4196 47.5388C88.5763 49.1465 91.8652 50.6201 93.341 49.2804C94.606 48.4096 95.1541 46.5341 97.1359 46.869C98.6538 48.2087 101.437 48.5436 103.545 46.869C118.809 45.2614 161.564 53.5004 160.763 33.1373C160.932 22.2859 163.926 2.59255 142.759 2.86049ZM157.095 36.2185C156.547 35.9506 157.39 35.3477 157.474 34.9458C157.39 35.3477 157.264 35.7497 157.095 36.2185ZM9.0105 37.6922C9.09484 37.6252 9.17917 37.5582 9.2635 37.4912C9.22133 37.6252 9.22133 37.7592 9.17917 37.9601C9.137 37.8262 9.05267 37.7592 9.0105 37.6922ZM37.0926 12.1713C37.0926 12.1713 37.1347 12.1043 37.1769 12.1043C37.1347 12.1713 37.0926 12.1713 37.0926 12.1713ZM26.1296 5.67381C25.7923 5.53985 25.4128 5.40588 25.0755 5.27192H26.7621C26.5513 5.40588 26.3404 5.53985 26.1296 5.67381ZM30.051 44.3236C30.4305 44.5915 29.1655 44.3906 29.1233 44.4576C29.4185 44.3906 29.7558 44.3236 30.051 44.3236ZM112.358 5.27192C109.069 7.21445 107.509 7.68334 105.274 5.27192C105.316 5.27192 112.358 5.27192 112.358 5.27192ZM156.673 26.5728C157.011 26.1709 157.348 25.769 157.643 25.3671C157.474 26.037 158.276 27.5106 156.673 26.5728ZM150.264 9.69286C149.969 9.22397 149.505 8.75508 148.999 8.42016C149.674 8.62112 150.222 9.09001 150.433 9.62588C150.391 9.55889 150.306 9.4919 150.264 9.69286ZM123.489 14.5157C126.483 11.3005 132.344 9.09001 133.567 5.27192H135.759C131.627 8.2862 127.495 11.3675 123.489 14.5157ZM61.2954 42.1801C61.4219 43.1179 62.2231 43.9217 63.235 44.4576H58.5547C59.4823 43.6538 60.3678 42.9169 61.2954 42.1801ZM68.5057 44.1227C70.3609 41.3093 72.8487 44.2566 75.7159 44.3906H68.1262C68.2105 44.3236 68.3792 44.2566 68.5057 44.1227ZM114.044 44.3906C114.845 44.1896 115.604 44.3236 116.448 44.4576H113.918C113.96 44.3906 114.002 44.3906 114.044 44.3906ZM152.71 8.15222C149.379 8.68809 146.216 6.47762 143.138 8.6881C143.686 7.4154 143.054 6.07572 141.873 5.20493C145.921 5.13794 149.885 6.20968 152.71 8.15222ZM117.755 7.54937C117.333 6.47762 116.279 5.60684 114.93 5.27192H121.592C120.285 6.00874 119.02 6.74556 117.755 7.54937ZM86.9741 11.3005C89.7148 9.42493 90.4738 4.87001 94.1843 5.20493C91.7809 7.28143 89.3775 9.29096 86.9741 11.3005ZM71.3308 5.33889C71.3308 5.27191 71.3729 5.27192 71.4572 5.27192C71.4151 5.27192 71.3729 5.33889 71.3308 5.33889ZM59.1872 6.87953C59.904 6.34366 60.157 5.07096 61.2954 5.27192C60.5786 5.80779 59.8618 6.34366 59.1872 6.87953ZM3.73985 27.1757C8.0407 23.0897 12.6367 19.2716 17.6122 15.6544C12.974 20.4103 8.37803 25.1662 3.73985 29.922V27.1757ZM83.643 44.4576C87.8174 40.5725 92.0339 36.6874 96.4191 32.8693C92.9615 37.4243 90.6003 41.1084 83.643 44.4576Z" fill="#750D4A"/>
</svg>
