<svg preserveAspectRatio="none" width="242" height="81" viewBox="0 0 242 81" fill="none" xmlns="http://www.w3.org/2000/svg">
<path d="M239.945 30.0174C242.499 22.6168 237.848 14.2728 229.683 11.3855C221.949 9.13705 222.839 10.5104 210.612 10.3725C207.443 9.69541 204.297 10.823 200.951 10.4981C198.923 9.32545 196.117 9.12067 194.245 10.5459C193.547 10.5486 192.85 10.5514 192.154 10.5527C190.113 7.9985 184.93 7.32 182.634 10.5091C171.745 10.3971 163.398 9.39644 153.316 9.43466C151.258 6.80533 146.458 5.89749 144.064 9.46197C124.156 10.0667 121.879 10.105 105.978 10.879C103.946 6.20329 97.109 7.43468 95.0319 11.4333C91.243 11.4824 86.3595 12.191 82.9032 11.8032C80.993 7.9944 73.8874 8.23604 72.5902 12.4067C65.8623 12.5923 64.2654 11.8892 58.6253 11.5247C59.5612 7.36915 54.7447 3.933 50.4072 6.24424C52.2626 1.72551 44.9285 -2.21302 41.204 1.43336C38.5344 4.23197 36.0454 7.16574 33.6413 10.1637C32.3264 10.1323 31.0853 10.1104 29.9181 10.094C27.956 7.477 23.2901 6.42854 20.9024 9.52476C19.8447 9.44968 18.7842 9.63944 17.8675 10.1582C8.4658 10.3261 0.38183 17.7104 0.572025 25.9574V47.3961C-0.149074 48.6999 -0.231172 50.1702 0.572025 51.508C0.136903 60.8336 0.0821692 70.6232 11.5883 74.8539C12.7007 75.2676 18.1356 75.8041 24.137 76.2928C25.4315 80.787 32.7875 81.2061 35.3928 77.1269C43.9871 78.1126 56.0296 76.985 64.7019 76.428C80.3157 76.0744 113.797 74.0253 129.353 74.4102C127.416 79.1474 134.564 83.288 138.561 79.5556C140.01 78.0566 141.359 76.5085 142.627 74.9208C162.24 75.6252 179.012 76.6327 195.508 76.7365C196.396 82.3337 205.465 81.9474 207.005 76.6955C215.183 76.3147 223.073 76.9658 229.683 74.8566C236.251 72.4867 240.781 66.5195 240.699 60.2848V51.4466L239.696 46.3941C237.699 41.2242 245.549 34.0665 239.944 30.0188L239.945 30.0174ZM195.447 70.7871C195.921 70.3011 196.399 69.8192 196.867 69.3277C196.714 69.8137 196.57 70.3011 196.436 70.7912C196.105 70.7898 195.782 70.7884 195.445 70.7857L195.447 70.7871ZM25.3234 70.4116C25.7393 70.069 26.1567 69.7277 26.5726 69.3837C26.403 69.7468 26.2319 70.1086 26.0623 70.4703C25.8146 70.4512 25.5683 70.4307 25.3247 70.4116H25.3234ZM55.7354 17.2571C56.5058 17.3186 57.2843 17.3814 58.0697 17.4482C56.3511 18.6264 54.7571 19.9206 53.2752 21.3144C54.1235 19.9738 54.9459 18.6223 55.7354 17.2571ZM41.0288 38.8679C39.0803 42.8364 37.6409 46.9634 33.6358 49.7388C35.9456 46.0542 38.4605 42.4515 41.0288 38.8679ZM77.4464 70.043L77.4491 70.0471H77.4423L77.4464 70.043ZM96.8257 62.5496C97.4073 61.867 97.971 61.1749 98.5402 60.4841C97.6987 63.3974 95.1619 66.2506 95.7051 69.3127L89.3096 69.5707C92.2049 67.6758 94.5543 65.2185 96.8257 62.5509V62.5496ZM161.077 17.8196C161.425 17.0892 161.436 16.3029 161.22 15.5466C161.593 15.5588 161.965 15.5725 162.34 15.5861C160.958 17.3759 160.744 19.78 159.316 21.5902C159.895 20.3301 160.481 19.0728 161.076 17.8196H161.077ZM219.054 16.165C212.559 24.9676 209.403 35.403 203.183 44.3914C206.778 35.0017 212.029 26.0803 214.031 16.2619C215.975 16.2278 217.677 16.1937 219.055 16.165H219.054ZM233.092 29.8836C232.916 29.9969 232.744 30.1185 232.584 30.255L233.796 26.3383L233.092 29.8836ZM162.101 66.0321C161.835 67.2403 161.4 68.5017 161.592 69.7304C161.127 69.7113 160.656 69.6922 160.18 69.6731C160.815 68.4567 161.459 67.2458 162.101 66.0321ZM177.442 16.3493C177.876 16.3616 178.317 16.3725 178.768 16.3834C178.437 16.8926 178.105 17.4018 177.776 17.9124C177.778 17.3459 177.657 16.8244 177.444 16.3506L177.442 16.3493ZM185.296 66.1427C184.912 67.628 184.786 69.2963 185.554 70.6301C184.634 70.6082 183.697 70.5836 182.746 70.5563C183.596 69.0847 184.447 67.613 185.296 66.1414V66.1427ZM140.286 15.4906C140.252 15.5479 140.216 15.6039 140.182 15.6599C140.14 15.6039 140.093 15.5507 140.048 15.496L140.286 15.4906ZM125.957 16.0831C126.503 16.0653 127.466 15.9834 130.456 15.8414C128.378 18.9431 126.3 22.0448 124.222 25.1478C124.932 22.3124 127.68 18.8216 125.767 16.0858C125.83 16.0858 125.894 16.0858 125.957 16.0858V16.0831ZM115.521 16.3466C115.614 16.3425 115.707 16.3384 115.8 16.3343C110.324 20.9178 106.374 24.1371 102.317 30.264C105.052 24.0893 109.435 20.4728 112.985 16.4749L115.522 16.3466H115.521ZM9.96273 19.638C9.10069 21.0114 8.31392 22.4175 7.60787 23.8564C7.98415 22.311 8.80514 20.8475 9.96273 19.638ZM11.2312 67.7318C12.3326 66.6383 13.4027 65.5229 14.4467 64.3898C14.0157 65.882 13.3479 67.4246 13.2699 68.9741C12.5406 68.6287 11.8606 68.2123 11.2312 67.7332V67.7318ZM130.83 68.5113L130.85 68.4854L130.843 68.5113H130.83ZM151.718 60.7039C151.083 63.497 148.831 66.4021 149.93 69.2622C148.876 69.2198 147.831 69.1789 146.806 69.1379C148.596 66.4007 150.212 63.5803 151.718 60.7025V60.7039Z" fill="#A52871"/>
</svg>
