<svg preserveAspectRatio="none" width="242" height="83" viewBox="0 0 242 83" fill="none" xmlns="http://www.w3.org/2000/svg">
<path d="M239.945 30.0243C242.499 22.6237 237.848 14.2798 229.683 11.3924C221.949 9.14396 222.839 10.5173 210.612 10.3794C207.443 9.70232 204.297 10.83 200.951 10.505C198.923 9.33235 196.117 9.12758 194.245 10.5528C193.547 10.5556 192.85 10.5583 192.154 10.5596C190.113 8.0054 184.93 7.32691 182.634 10.516C171.745 10.404 170.261 8.89686 160.18 8.93509C162.34 -2.6635 149.93 -0.883235 144.668 8.93523C124.76 9.54001 121.879 10.1119 105.978 10.8859C103.946 6.2102 97.109 7.44159 95.0319 11.4402C91.243 11.4893 86.3595 12.1979 82.9032 11.8102C78.7396 11.8102 77.4491 12.2795 72.5902 12.4136C65.8623 12.5992 64.2654 11.8962 58.6253 11.5317C59.5612 7.37606 54.7447 3.9399 50.4072 6.25115C48.9342 8.01782 48.4893 6.25109 45.3753 4.90275C39.1474 4.01258 36.0454 7.17264 33.6413 10.1706C32.3264 10.1392 31.0853 10.1173 29.9181 10.1009C27.956 7.48391 23.2901 6.43545 20.9024 9.53167C19.8447 9.45658 18.7842 9.64634 17.8675 10.1651C8.4658 10.333 0.38183 17.7173 0.572025 25.9643V47.403C-0.149074 48.7068 -0.231172 50.1771 0.572025 51.515C0.136903 60.8405 0.0821692 70.6301 11.5883 74.8608C12.7007 75.2745 18.1356 75.811 24.137 76.2997C27.5811 76.4349 29.9181 77.1338 35.3928 77.1338C43.9871 78.1195 56.0296 76.9919 64.7019 76.4349C80.3157 76.0813 113.797 74.0321 129.353 74.4171C129.353 74.4171 133.012 74.4171 136.126 74.4171C137.461 74.4171 140.841 74.8635 142.627 74.9277C162.24 75.6321 179.012 76.6396 195.508 76.7434C193.068 84.5673 204.189 84.1222 207.005 76.7024C215.183 76.3216 223.073 76.9727 229.683 74.8635C236.251 72.4936 240.781 66.5264 240.699 60.2917V51.4535L239.696 46.401C237.699 41.2311 245.549 34.0734 239.944 30.0257L239.945 30.0243ZM195.447 70.794C195.921 70.308 196.399 69.826 196.867 69.3346C196.714 69.8206 196.57 70.308 196.436 70.798C196.105 70.7967 195.782 70.7953 195.445 70.7926L195.447 70.794ZM25.3234 70.4185C25.7393 70.0759 26.1567 69.7346 26.5726 69.3906C26.403 69.7537 26.2319 70.1155 26.0623 70.4772C25.8146 70.4581 25.5683 70.4376 25.3247 70.4185H25.3234ZM55.7354 17.264C56.5058 17.3255 57.2843 17.3883 58.0697 17.4552C56.3511 18.6333 54.7571 19.9275 53.2752 21.3213C54.1235 19.9807 54.9459 18.6292 55.7354 17.264ZM41.0288 38.8748C39.0803 42.8434 37.6409 46.9703 33.6358 49.7457C35.9456 46.0611 38.4605 42.4584 41.0288 38.8748ZM77.4464 70.0499L77.4491 70.054H77.4423L77.4464 70.0499ZM96.8257 62.5565C97.4073 61.8739 97.971 61.1818 98.5402 60.491C97.6987 63.4043 95.1619 66.2575 95.7051 69.3196L89.3096 69.5776C92.2049 67.6827 94.5543 65.2254 96.8257 62.5578V62.5565ZM161.077 17.8265C161.425 17.0961 161.436 16.3098 161.22 15.5535C161.593 15.5657 161.965 15.5794 162.34 15.593C160.958 17.3828 160.744 19.7869 159.316 21.5971C159.895 20.337 160.481 19.0797 161.076 17.8265H161.077ZM219.054 16.1719C212.559 24.9745 209.403 35.41 203.183 44.3983C206.778 35.0086 212.029 26.0872 214.031 16.2688C215.975 16.2347 217.677 16.2006 219.055 16.1719H219.054ZM233.092 29.8905C232.916 30.0039 232.744 30.1254 232.584 30.2619L233.796 26.3452L233.092 29.8905ZM162.101 66.039C161.835 67.2472 161.4 68.5086 161.592 69.7373C161.127 69.7182 160.656 69.6991 160.18 69.68C160.815 68.4636 161.459 67.2527 162.101 66.039ZM177.442 16.3562C177.876 16.3685 178.317 16.3794 178.768 16.3903C178.437 16.8995 178.105 17.4087 177.776 17.9193C177.778 17.3528 177.657 16.8313 177.444 16.3575L177.442 16.3562ZM185.296 66.1496C184.912 67.6349 184.786 69.3032 185.554 70.637C184.634 70.6151 183.697 70.5905 182.746 70.5632C183.596 69.0916 184.447 67.6199 185.296 66.1483V66.1496ZM140.286 15.4975C140.252 15.5548 140.216 15.6108 140.182 15.6668C140.14 15.6108 140.093 15.5576 140.048 15.5029L140.286 15.4975ZM125.957 16.09C126.503 16.0722 127.466 15.9903 130.456 15.8483C128.378 18.95 126.3 22.0517 124.222 25.1547C124.932 22.3193 127.68 18.8285 125.767 16.0927C125.83 16.0927 125.894 16.0927 125.957 16.0927V16.09ZM115.521 16.3535C115.614 16.3494 115.707 16.3453 115.8 16.3412C110.324 20.9247 106.374 24.144 102.317 30.2709C105.052 24.0962 109.435 20.4797 112.985 16.4818L115.522 16.3535H115.521ZM9.96273 19.6449C9.10069 21.0183 8.31392 22.4244 7.60787 23.8633C7.98415 22.3179 8.80514 20.8544 9.96273 19.6449ZM11.2312 67.7387C12.3326 66.6452 13.4027 65.5298 14.4467 64.3967C14.0157 65.8889 13.3479 67.4315 13.2699 68.981C12.5406 68.6356 11.8606 68.2192 11.2312 67.7401V67.7387ZM130.83 68.5182L130.85 68.4923L130.843 68.5182H130.83ZM151.718 60.7108C151.083 63.5039 148.831 66.409 149.93 69.269C148.876 69.2267 147.831 69.1858 146.806 69.1448C148.596 66.4076 150.212 63.5872 151.718 60.7094V60.7108Z" fill="#17618E"/>
</svg>
