<svg width="1408" height="900" viewBox="0 0 1408 900" fill="none" xmlns="http://www.w3.org/2000/svg">
	<path d="M1297.98 800H102.013C78.8072 800 60 779.074 60 753.254V126.746C60 100.926 78.8072 80 102.013 80H1297.99C1321.19 80 1340 100.926 1340 126.746V753.266C1339.99 779.074 1321.18 800 1297.98 800Z" fill="white" />
	<path d="M1339.57 115.258V115.205L1339.57 115.152C1339.04 102.713 1337.73 93.43 1333.36 86.8781C1328.85 80.1085 1321.45 76.7362 1310.2 75.0607C1298.99 73.3912 1283.37 73.3265 1261.77 73.6599C1256.43 73.7422 1250.73 73.8492 1244.62 73.9637C1225.89 74.3147 1203.39 74.7364 1176.3 74.7364C1131.9 74.7364 1020.02 74.9714 884.094 75.2569C579.486 75.8968 154.113 76.7903 96.7929 75.8612C86.795 75.6992 78.5449 78.5405 71.9077 84.2319C65.3253 89.8763 60.5224 98.1574 57.0406 108.555C50.0985 129.287 48.15 159.254 48.5493 196.126C48.8829 226.934 50.8648 262.814 53.0581 302.52C53.4944 310.419 53.939 318.469 54.3807 326.661C57.0446 376.064 59.6062 430.687 59.6062 488.548C59.6062 501.679 58.451 521.757 57.0789 545.604C56.8277 549.971 56.5691 554.465 56.3091 559.065C54.6323 588.73 52.9002 622.737 52.6909 655.6C52.4818 688.439 53.7914 720.256 58.2346 745.511C60.4557 758.137 63.4781 769.233 67.5485 778.036C71.586 786.768 76.7744 793.499 83.4926 797.058C84.3838 797.616 85.6234 797.986 86.8505 798.275C88.2488 798.604 90.018 798.91 92.1065 799.197C96.29 799.774 101.93 800.302 108.806 800.789C122.568 801.763 141.436 802.581 163.834 803.268C208.639 804.642 267.676 805.497 328.475 806.027C434.909 806.953 546.797 806.882 597.296 806.849C604.492 806.845 610.442 806.841 614.952 806.841C629.549 806.841 657.424 807.038 693.957 807.297C770.204 807.836 884.164 808.642 993.824 808.479C1074.97 808.358 1153.87 807.708 1213.6 806.026C1243.46 805.186 1268.56 804.087 1286.76 802.665C1295.85 801.954 1303.28 801.159 1308.73 800.265C1311.46 799.819 1313.75 799.34 1315.54 798.816C1317.19 798.331 1318.84 797.693 1319.88 796.701C1338.54 778.799 1343.22 757.736 1343.49 706.819C1343.6 686.44 1342.99 661.13 1342.23 629.162C1342.03 621.128 1341.83 612.674 1341.63 603.773C1340.61 559.424 1339.57 503.889 1339.57 433.678V115.258Z" stroke="#221856" stroke-width="5" />
	<rect width="291.335" height="37.2327" transform="translate(534 748)" fill="white" />
	<path d="M804.378 764.144C807.033 761.318 812.6 758.392 817.074 759.054C821.761 759.747 815.718 762.263 814.027 763.13C812.068 764.134 807.807 765.69 805.44 765.14C802.609 764.482 799.378 764.377 796.252 764.839C794.518 765.096 789.09 766.709 792.651 767.601C794.225 767.995 796.798 767.843 798.353 767.357C799.706 766.933 801.898 767.272 803.039 766.436C803.227 766.298 805.07 765.196 805.209 765.309C805.508 765.552 805.767 767.534 806.04 768.033C806.599 769.057 808.936 772.673 807.494 773.612C806.614 774.185 806.167 775.513 804.978 776.129C803.553 776.867 801.579 777.331 799.899 777.331C797.955 777.331 794.087 777.77 793.551 775.81C792.949 773.602 791.081 771.147 791.081 768.878C791.081 767.811 790.798 767.923 791.105 769.047C791.323 769.848 791.578 770.96 792.42 771.508C794.216 772.677 800.303 770.878 802.092 770.231C804.268 769.444 806.455 767.461 806.455 770.738C806.455 772.562 801.904 774.177 800.13 774.288C798.531 774.388 797.081 774.964 795.444 774.964C794.755 774.964 792.639 774.964 792.744 774.964" stroke="#545454" stroke-width="3" stroke-linecap="round" stroke-linejoin="round" />
	<path d="M798.146 767.865C797.566 766.656 797.17 765.433 796.068 764.483C795.314 763.834 793.733 763.545 793.16 762.962C792.319 762.107 788.274 762.422 788.173 763.807C788.104 764.77 789.393 764.774 790.251 765.084C790.729 765.257 791.201 765.274 791.682 765.498C792.187 765.732 791.385 765.975 791.082 765.667C790.249 764.819 785.016 765.881 785.773 767.188C786.422 768.311 789.531 767.188 790.874 767.188C792.871 767.188 794.907 767.284 796.899 767.188C797.538 767.158 794.219 763.717 792.952 763.488C792.018 763.319 790.667 763.393 789.835 763.732C788.022 764.47 790.983 763.874 790.874 764.314C790.685 765.084 793.011 763.403 792.329 764.652C792.013 765.229 792.144 765.098 792.744 764.897C793.279 764.717 793.032 765.443 793.575 765.498C794.143 765.556 795.13 765.899 795.56 766.249C796.145 766.725 794.524 765.155 793.806 764.821C792.112 764.034 798.15 766.651 796.068 766.85C793.813 767.066 791.575 767.188 789.212 767.188C788.953 767.188 786.558 767.917 786.558 767.357C786.558 766.896 788.995 766.85 789.42 766.85C790.124 766.85 795.415 767.707 794.406 766.681C793.481 765.741 789.38 766.796 788.173 766.85C786.416 766.93 792.274 765.925 792.329 765.836" stroke="#699BF7" stroke-width="3" stroke-linecap="round" stroke-linejoin="round" />
	<path d="M805.625 763.806C805.675 763.797 808.982 762.791 807.703 762.791C807.031 762.791 806.314 764.106 806.687 764.106C807.273 764.106 808.683 762.604 808.441 762.604C807.538 762.604 806.597 764.271 806.271 764.801C805.805 765.561 811.303 761.214 808.534 763.468C806.079 765.465 813.039 760.883 810.196 762.04C808.33 762.799 809.432 763.762 808.326 764.482C807.614 764.945 809.538 764.65 809.78 764.557C810.775 764.174 811.705 763.718 812.689 763.317C813.367 763.041 817.056 761.417 816.613 760.575C816.056 759.518 813.024 760.16 812.065 760.594C811.278 760.95 808.118 761.628 808.118 762.453C808.118 763.595 812.94 762.076 813.52 761.852C814.362 761.527 815.16 761.146 816.013 760.838C816.879 760.524 817.145 760.176 816.22 760.594C814.664 761.297 812.249 761.379 811.027 762.622C810.069 763.597 814.066 761.582 814.674 761.026C815.073 760.66 812.781 761.423 812.504 761.608C812.178 761.825 810.256 763.044 811.027 762.453C813.307 760.707 811.344 761.762 810.288 762.867C809.869 763.304 811.368 762.514 811.188 762.66C810.661 763.089 810.196 763.543 810.196 764.144" stroke="#699BF7" stroke-width="3" stroke-linecap="round" stroke-linejoin="round" />
	<path d="M793.159 771.922C797.003 771.922 800.236 770.568 803.962 770.231C805.376 770.103 806.182 768.935 806.04 770.907C805.956 772.066 803.729 771.821 803.131 772.429C802.679 772.889 799.887 773.425 799.161 773.594C798.009 773.862 796.36 774.681 795.237 774.627C794.542 774.594 792.991 772.932 793.575 773.199C795.411 774.04 796.88 773.231 798.745 772.955C800.396 772.711 801.74 771.931 803.316 771.565C804.478 771.295 805.523 770.661 803.732 770.926C800.526 771.4 791.871 774.473 794.175 772.598C794.341 772.463 797.786 772.26 798.145 772.26C799.251 772.26 801.543 771.851 802.508 771.415C803.177 771.112 806.261 771.132 804.563 771.922C803.284 772.516 801.618 772.22 800.223 772.598" stroke="#699BF7" stroke-width="3" stroke-linecap="round" stroke-linejoin="round" />
	<path d="M796.899 764.82C797.505 765.452 798.424 766.849 799.392 766.849C800.376 766.849 801.125 766.511 802.093 766.511C804.333 766.511 804.803 765.158 802.093 765.158C801.329 765.158 796.806 764.975 798.977 765.76C799.612 765.989 800.204 766.445 800.431 766.342C800.749 766.198 802.167 766.173 802.717 766.173" stroke="#545454" stroke-width="3" stroke-linecap="round" stroke-linejoin="round" />
	<path d="M799.808 766.172C800.959 765.807 801.912 765.496 803.132 765.496" stroke="#545454" stroke-width="3" stroke-linecap="round" stroke-linejoin="round" />
	<path d="M816.843 760.086C816.095 762.793 810.155 765.158 806.871 765.158C804.467 765.158 804.588 763.872 806.132 762.866C807.444 762.012 809.646 761.864 810.934 761.025C812.582 759.952 820.688 758.818 816.751 761.702C814.413 763.414 810.017 765.834 806.871 765.834C806.447 765.834 804.925 765.375 804.816 765.684C804.602 766.293 805.579 767.193 805.624 767.863C805.715 769.191 806.781 770.337 806.871 771.583C806.974 773.012 808.217 773.21 807.194 774.626C806.12 776.111 804.398 776.033 803.039 776.918C802.305 777.395 798.707 777.669 797.73 777.669C796.381 777.669 793.683 778.155 793.575 776.655C793.461 775.085 792.692 773.678 791.82 772.259C791.177 771.213 790.666 767.708 790.666 768.878" stroke="#545454" stroke-width="3" stroke-linecap="round" stroke-linejoin="round" />
	<path d="M791.497 769.217C792.145 771.985 794.406 780.15 794.406 777.332" stroke="#545454" stroke-width="3" stroke-linecap="round" stroke-linejoin="round" />
	<path d="M798.145 767.187C797.027 765.935 794.929 762.453 792.536 762.453C791.065 762.453 790.368 762.112 788.82 762.472C787.91 762.683 787.264 764.852 788.173 764.482" stroke="#545454" stroke-width="3" stroke-linecap="round" stroke-linejoin="round" />
	<path d="M798.146 767.188C797.07 767.53 793.063 768.865 791.913 767.695C790.654 766.415 787.756 769.065 786.189 767.789C784.358 766.3 787.599 765.462 788.82 765.178C790.386 764.814 792.311 765.321 793.575 765.836" stroke="#545454" stroke-width="3" stroke-linecap="round" stroke-linejoin="round" />
	<path d="M782.771 762.453H782.772" stroke="#699BF7" stroke-width="3" stroke-linecap="round" stroke-linejoin="round" />
	<path d="M781.941 762.454C785.117 764.255 784.702 761.87 782.772 761.777C781.237 761.704 782.356 762.679 782.98 762.961C783.512 763.202 784.328 762.691 783.603 762.378C781.493 761.469 780.555 763.806 782.772 763.806C784.9 763.806 784.126 762.454 782.356 762.454" stroke="#699BF7" stroke-width="3" stroke-linecap="round" stroke-linejoin="round" />
	<path d="M781.525 761.439C781.398 762.031 780.986 763.741 782.356 763.806C783.277 763.85 784.167 763.994 784.641 763.299C785.634 761.845 782.479 761.778 781.525 761.778" stroke="#545454" stroke-width="3" stroke-linecap="round" stroke-linejoin="round" />
	<path d="M791.082 769.892C794.427 770.423 796.639 769.216 799.808 769.216C801.864 769.216 803.379 768.608 805.209 767.863" stroke="#545454" stroke-width="3" stroke-linecap="round" stroke-linejoin="round" />
	<path d="M827.377 753.619C827.336 755.915 827.29 758.221 827.227 760.514C827.169 762.633 827.227 764.721 827.227 766.839C827.227 769.426 827.227 772.014 827.227 774.602C827.227 776.852 827.029 779.102 827.077 781.347C827.089 781.91 827.715 783.478 826.71 783.478C825.831 783.478 824.843 783.723 823.983 783.851C822.23 784.113 820.519 784.279 818.738 784.279C809.346 784.279 799.935 783.6 790.535 783.94C784.308 784.165 778.07 784.331 771.839 784.496C764.548 784.69 757.235 784.914 749.94 784.89C742.107 784.864 734.29 784.327 726.457 784.279C718.474 784.23 710.485 783.926 702.507 783.695C695.08 783.48 687.623 783.361 680.192 783.302C676.74 783.274 673.297 783.134 669.843 783.186C666.578 783.236 663.306 783.545 660.044 783.695C655.138 783.921 650.25 783.912 645.334 783.912C643.8 783.912 642.265 783.912 640.731 783.912C640.039 783.912 639.352 783.968 638.696 783.79" stroke="#545454" stroke-width="3" stroke-linecap="round" stroke-linejoin="round" />
	<path d="M775.441 753.984C775.935 757.467 776.466 761.05 776.492 764.557C776.518 768.007 777.026 771.436 777.093 774.886C777.132 776.965 777.543 779.02 777.543 781.102C777.543 781.674 777.668 782.221 777.693 782.785C777.697 782.882 777.693 783.45 777.693 783.056" stroke="#545454" stroke-width="3" stroke-linecap="round" stroke-linejoin="round" />
	<path d="M730.109 751.055C729.877 752.211 729.959 753.348 729.776 754.502C729.534 756.029 729.933 757.582 729.959 759.117C729.988 760.832 730.011 762.51 729.959 764.22C729.907 765.953 729.755 767.693 729.651 769.425C729.458 772.637 729.829 775.957 729.284 779.149C729.103 780.208 729.209 781.318 729.209 782.386C729.209 782.986 729.059 783.551 729.059 784.157" stroke="#545454" stroke-width="3" stroke-linecap="round" stroke-linejoin="round" />
	<path d="M748.794 768.288C747.424 769.759 745.566 770.918 744.093 772.325C743.334 773.05 742.347 773.657 741.665 774.428C741.18 774.975 740.481 775.345 740.028 775.918C739.351 776.776 739.298 777.803 740.405 778.37C741.313 778.835 743.009 778.649 743.859 778.18C746.533 776.703 747.791 773.919 750.456 772.473C751.31 772.01 751.913 771.529 752.976 771.828C753.651 772.018 754.509 772.188 755.222 772.188C756.233 772.188 756.761 771.506 757.417 770.972C758.177 770.354 758.85 769.7 759.638 769.123C760.215 768.7 757.851 767.724 757.56 767.548C756.14 766.69 754.668 765.884 753.235 765.033C752.642 764.681 751.923 764.153 751.249 763.918C750.912 763.801 750.423 763.359 750.08 763.342C749.672 763.323 749.02 764.014 748.736 764.246C748.266 764.628 747.863 764.998 747.508 765.456C746.775 766.404 747.946 766.646 748.418 767.337C748.63 767.649 748.937 767.896 748.729 768.283C748.54 768.635 748.309 768.968 747.976 769.239" stroke="#545454" stroke-width="3" stroke-linecap="round" stroke-linejoin="round" />
	<path d="M747.509 765.91C748.656 766.475 749.652 767.231 750.833 767.738C751.976 768.23 753.19 768.689 754.223 769.329C754.719 769.637 755.434 770.087 755.982 770.285C756.326 770.41 756.539 770.63 756.859 770.761" stroke="#545454" stroke-width="3" stroke-linecap="round" stroke-linejoin="round" />
	<path d="M750.313 763.153C751.264 762.142 751.927 761.058 752.768 759.993C753.114 759.555 753.497 758.207 754.346 758.207C754.817 758.207 755.614 759.263 755.69 759.232C756.22 759.017 756.805 758.397 757.443 758.397C757.674 758.397 758.036 758.814 758.268 758.92C758.614 759.079 758.94 759.191 759.255 759.391C759.623 759.624 759.109 760.163 758.962 760.469C758.72 760.973 758.592 761.474 758.404 761.99C758.231 762.466 759.411 761.636 759.534 761.536C760.181 761.01 760.759 760.349 761.651 760.965C762.018 761.219 762.686 761.382 763.144 761.515C763.608 761.65 763.816 762.034 764.28 762.202C764.613 762.322 765.264 762.953 765.508 763.2C765.949 763.65 766.802 763.942 766.534 764.653C766.329 765.194 766.488 765.551 765.741 765.768C764.371 766.167 763.065 766.795 761.767 767.338C761.382 767.499 760.981 767.628 760.599 767.792C760.378 767.887 760.075 768.278 759.839 768.278C759.483 768.278 758.689 767.275 758.988 767.031C760.36 765.915 762.001 765.151 763.638 764.336C763.997 764.158 765.086 763.267 765.508 763.438" stroke="#545454" stroke-width="3" stroke-linecap="round" stroke-linejoin="round" />
	<path d="M740.496 777.514C741.076 777.857 741.44 777.895 742.132 777.895C742.696 777.895 742.941 777.656 743.418 777.461C743.93 777.253 744.565 776.651 744.886 776.272C745.368 775.701 746.08 775.262 746.6 774.714C748.185 773.041 749.939 770.951 752.742 770.951C753.218 770.951 753.695 770.951 754.171 770.951C754.638 770.951 755.022 771.142 755.502 771.142C756.014 771.142 754.607 770.731 754.132 770.576C753.687 770.431 753.217 770.109 752.768 769.926C751.875 769.563 751.158 769.208 750.372 768.711C750.164 768.579 749.333 767.852 749.587 768.383C749.718 768.659 749.062 769.16 748.853 769.292C747.767 769.98 746.939 770.864 745.989 771.659C744.684 772.753 743.512 774.019 742.301 775.184C742.048 775.427 740.123 776.978 740.639 777.398C740.913 777.621 741.767 777.314 742.016 777.208C742.8 776.871 743.45 776.156 744.067 775.654C745.294 774.656 746.402 773.574 747.626 772.579C748.507 771.862 749.496 771.238 750.405 770.55C750.846 770.216 751.417 769.925 752.041 769.905C752.235 769.899 752.716 769.92 752.859 770.021C753.032 770.144 752.412 769.931 752.184 769.91C751.235 769.825 750.574 769.43 749.606 769.863C748.038 770.565 746.831 771.883 745.704 772.97C744.628 774.007 743.532 775.022 742.49 776.082C742.207 776.37 741.705 777.07 741.314 777.229" stroke="#D27C2C" stroke-width="3" stroke-linecap="round" stroke-linejoin="round" />
	<path d="M754.404 758.967C754.092 759.229 753.016 760.329 753.125 760.726C753.188 760.957 753.515 760.624 753.651 760.584C754.103 760.45 754.524 760.364 754.988 760.277C756.232 760.046 755.677 761.078 755.287 761.577C754.801 762.198 756.668 761.227 757.034 761.392C757.704 761.695 757.034 762.597 756.884 763.057C756.774 763.396 756.398 764.067 757.04 763.918C757.656 763.775 758.202 763.348 758.728 763.035C759.534 762.557 760.375 761.901 761.3 761.609C761.682 761.488 762.7 762.28 763.046 762.438C763.495 762.644 764.517 763.03 763.988 763.437C763.357 763.922 762.298 764.184 761.54 764.531C761.344 764.621 760.764 765.015 761.066 764.6C761.24 764.36 761.44 763.847 761.235 763.585C760.824 763.059 759.857 762.918 759.196 763.173C758.641 763.387 759.74 762.853 759.871 762.792C760.367 762.564 760.905 762.391 761.475 762.391C762.169 762.391 761.625 763.29 762.261 763.131C762.408 763.094 763.074 763.007 762.878 763.294C762.75 763.482 762.664 763.516 762.936 763.627" stroke="#699BF7" stroke-width="3" stroke-linecap="round" stroke-linejoin="round" />
	<path d="M762.353 766.005C762.863 765.457 763.561 765.237 764.281 764.911C764.484 764.819 765.476 764.328 765.508 764.769C765.543 765.249 764.321 765.42 763.93 765.667C763.705 765.809 763.416 765.842 763.171 765.931C763.028 765.983 762.483 766.184 762.586 766.1" stroke="#699BF7" stroke-width="3" stroke-linecap="round" stroke-linejoin="round" />
	<path d="M760.482 761.916C760.302 761.973 757.824 762.806 757.794 762.391C757.771 762.076 758.115 761.785 758.145 761.461C758.175 761.132 758.262 760.827 758.262 760.489C758.262 760.245 758.289 760.08 758.469 759.897C758.613 759.751 758.042 759.57 757.911 759.517C757.763 759.456 757.351 759.131 757.21 759.178C756.83 759.306 756.614 759.553 756.275 759.707C755.428 760.09 755.394 759.72 754.846 759.274C754.553 759.035 754.439 759.308 754.314 759.538C754.135 759.865 754.576 759.927 754.846 759.992C755.348 760.113 755.799 759.954 756.223 760.299C756.41 760.451 756.574 760.993 756.859 760.774C757.029 760.644 757.47 760.126 757.768 760.32C758.047 760.502 757.794 760.819 757.794 761.06" stroke="#699BF7" stroke-width="3" stroke-linecap="round" stroke-linejoin="round" />
	<path d="M748.911 764.77C749.57 765.054 750.07 765.53 750.716 765.816C751.214 766.036 751.724 766.216 752.19 766.482C753.055 766.974 754.117 767.244 754.898 767.834C755.512 768.298 756.497 768.856 757.268 769.097C757.486 769.166 758.512 769.702 758.612 769.62" stroke="#545454" stroke-width="3" stroke-linecap="round" stroke-linejoin="round" />
	<path d="M752.184 763.818C753.045 762.686 754.044 761.61 754.93 760.489C755.109 760.263 755.463 760.016 755.573 759.771C755.671 759.551 755.908 759.164 756.157 759.062" stroke="#545454" stroke-width="3" stroke-linecap="round" stroke-linejoin="round" />
	<path d="M753.937 765.149C754.36 764.369 755.064 763.672 755.638 762.961C756.188 762.278 756.817 761.622 757.443 760.985C757.79 760.632 758.16 760.285 758.553 759.965C758.704 759.843 758.997 759.671 759.079 759.537" stroke="#545454" stroke-width="3" stroke-linecap="round" stroke-linejoin="round" />
	<path d="M756.041 766.386C756.832 765.993 757.771 765.538 758.431 765.001C758.87 764.643 759.263 764.289 759.781 764.008" stroke="#545454" stroke-width="3" stroke-linecap="round" stroke-linejoin="round" />
	<path d="M758.262 767.432C759.449 766.156 761.503 765.796 763.054 764.885C763.64 764.54 764.353 764.23 764.982 763.955C765.234 763.845 765.838 763.428 766.093 763.532" stroke="#545454" stroke-width="3" stroke-linecap="round" stroke-linejoin="round" />
	<path d="M632.692 751.299C632.692 757.209 633.143 763.111 633.143 769.024C633.143 771.666 633.34 774.277 633.56 776.91C633.696 778.547 633.419 780.223 633.86 781.836C633.988 782.306 634.043 783.007 634.043 783.479C634.043 783.969 634.894 783.698 635.252 783.662C636.448 783.54 637.633 783.547 638.847 783.547" stroke="#545454" stroke-width="3" stroke-linecap="round" stroke-linejoin="round" />
	<path d="M534.224 748C533.72 750.561 534.224 753.121 534.224 755.709C534.224 758.6 534.224 761.491 534.224 764.382C534.224 767.317 533.661 770.615 534.374 773.516C534.84 775.414 534.824 777.805 534.824 779.746C534.824 780.761 535.06 781.741 535.124 782.691C535.223 784.141 536.162 782.605 537.226 782.989C538.686 783.518 540.988 783.179 542.563 783.179C546.815 783.179 550.992 782.935 555.238 782.935C561.664 782.935 568.029 783.424 574.452 783.424C578.673 783.424 582.837 782.731 587.06 782.921C590.811 783.091 594.579 783.424 598.335 783.424C601.52 783.424 604.729 783.876 607.908 783.912C612.505 783.964 617.081 783.391 621.584 782.691C625.71 782.049 629.948 782.202 634.126 782.202C634.862 782.202 637.74 781.868 638.096 782.446" stroke="#545454" stroke-width="3" stroke-linecap="round" stroke-linejoin="round" />
	<path d="M574.301 772.673C573.113 771.344 572.5 769.173 572.5 767.543C572.5 767.047 574.102 766.113 574.601 765.887C577.08 764.767 580.353 764.644 582.857 763.512C583.997 762.997 586.211 762.674 587.494 762.413C589.294 762.046 591.378 761.455 593.081 760.825C594.526 760.29 596.288 760.416 597.717 759.834C598.841 759.377 600.936 758.504 602.221 758.504" stroke="#545454" stroke-width="3" stroke-linecap="round" stroke-linejoin="round" />
	<path d="M575.503 773.407C578.21 772.936 580.961 772.247 583.542 771.453C585.538 770.839 587.6 771.02 589.613 770.666C593.106 770.051 596.229 768.575 599.586 767.734C601.67 767.212 603.972 766.181 606.124 766.078C606.584 766.056 606.725 765.648 606.725 765.346C606.725 764.716 606.907 764.826 607.258 764.368C607.841 763.61 609.219 763.096 610.16 762.658C612.22 761.701 610.461 761.132 610.044 759.604C609.779 758.637 608.456 759.238 607.475 759.238C606.367 759.238 605.668 758.929 604.757 758.505C604.051 758.177 603.118 757.481 602.805 758.627C602.528 759.643 602.522 760.605 602.522 761.681C602.522 763.699 604.633 764.617 606.424 765.346" stroke="#545454" stroke-width="3" stroke-linecap="round" stroke-linejoin="round" />
	<path d="M610.026 759.237C610.818 758.986 613.217 757.902 613.929 758.627C614.068 758.768 616.883 759.344 616.798 759.482C616.579 759.838 614.253 760.459 613.779 760.459C612.942 760.459 611.598 760.832 611.227 761.436" stroke="#545454" stroke-width="3" stroke-linecap="round" stroke-linejoin="round" />
	<path d="M610.777 759.237C611.451 759.117 612.258 758.946 612.879 758.722C613.334 758.557 613.942 759.033 614.463 759.142C615.112 759.278 615.818 759.604 616.481 759.604C617.227 759.604 615.093 760.065 614.463 760.391C613.768 760.751 612.12 761.62 611.82 760.52C611.698 760.075 611.29 759.604 612.137 759.604C612.474 759.604 614.163 759.495 614.23 759.604" stroke="#FFC700" stroke-width="3" stroke-linecap="round" stroke-linejoin="round" />
	<path d="M613.329 758.262C614.001 758.488 615.016 758.708 615.581 759.117C615.965 759.395 616.567 759.605 617.082 759.605" stroke="#D27C2C" stroke-width="3" stroke-linecap="round" stroke-linejoin="round" />
	<path d="M574.302 766.445C571.853 767.955 573.441 771.015 575.386 772.281C575.782 772.539 576.636 772.141 577.078 772.003C578.052 771.698 579.145 771.393 580.156 771.182C581.247 770.954 582.097 770.428 583.233 770.347C584.292 770.272 585.426 770.03 586.46 769.838C590.161 769.15 593.545 767.517 597.301 766.961C598.211 766.826 599.432 766.923 600.278 766.622C601.052 766.346 601.775 766.009 602.521 765.739C602.962 765.58 603.491 765.613 603.947 765.407C604.281 765.256 603.908 765.54 603.755 765.441C603.586 765.331 603.335 765.176 603.205 765.04C602.342 764.137 601.771 763.221 601.771 762.048C601.771 761.741 601.573 761.429 601.629 761.132C601.689 760.814 601.786 760.574 601.771 760.243C601.761 760.03 601.637 759.831 601.62 759.605C601.604 759.376 601.163 759.686 601.012 759.727C599.199 760.218 597.462 760.815 595.608 761.193C594.562 761.405 593.493 761.652 592.464 761.926C591.194 762.264 589.851 762.537 588.628 762.964C586.351 763.758 583.874 764.122 581.59 764.918C580.705 765.227 579.739 765.389 578.805 765.563C578.379 765.642 577.902 765.631 577.487 765.739C577.057 765.852 576.631 766.128 576.186 766.194C575.607 766.28 574.98 766.341 574.452 766.594C574.005 766.808 573.851 768.026 573.851 768.393C573.851 769.158 574.399 770.402 575.052 770.965C575.249 771.135 575.722 771.829 575.953 771.453" stroke="#FFC700" stroke-width="3" stroke-linecap="round" stroke-linejoin="round" />
	<path d="M575.803 769.743C576.658 769.252 577.798 769.015 578.805 768.793C579.452 768.651 579.961 768.277 580.573 768.06C581.21 767.834 581.898 767.686 582.549 767.483C585.19 766.662 587.906 766.209 590.596 765.529C591.965 765.184 593.246 764.695 594.499 764.124C595.301 763.759 596.296 763.636 597.084 763.269C597.554 763.051 597.965 762.997 598.393 762.726C598.716 762.522 599.139 762.273 599.519 762.17" stroke="#FFC700" stroke-width="8" stroke-linecap="round" stroke-linejoin="round" />
	<path d="M575.052 768.033C576.783 767.563 578.515 767.19 580.222 766.662C582.13 766.072 584.046 765.214 586.043 764.857C586.945 764.696 587.884 764.678 588.795 764.545C589.676 764.416 590.508 764.137 591.413 764.124C592.156 764.113 593.564 764.042 594.115 764.49" stroke="#FFC700" stroke-width="8" stroke-linecap="round" stroke-linejoin="round" />
	<path d="M580.906 770.232C582.447 770.176 583.971 769.633 585.459 769.323C586.736 769.057 588.018 768.998 589.229 768.522C589.945 768.241 590.703 768.021 591.447 767.789C592.551 767.445 593.633 766.906 594.749 766.622C596.304 766.227 597.793 765.788 599.277 765.231C599.718 765.065 600.651 764.969 600.87 764.613" stroke="#FFC700" stroke-width="8" stroke-linecap="round" stroke-linejoin="round" />
	<path d="M574.152 765.59C573.253 766.122 572.351 766.87 572.351 767.856C572.351 768.823 572.753 769.612 572.951 770.537C573.132 771.383 573.823 772.07 574.385 772.77C574.749 773.222 575.53 773.575 575.803 774.018" stroke="#545454" stroke-width="3" stroke-linecap="round" stroke-linejoin="round" />
	<path d="M575.652 773.897C576.763 773.019 578.079 772.812 579.488 772.377C580.737 771.991 582.039 771.76 583.308 771.454C584.344 771.204 585.45 771.215 586.468 770.904C587.664 770.539 588.927 770.378 590.137 770.049C592.646 769.369 595.282 769.008 597.784 768.278C598.976 767.93 600.027 767.326 601.245 766.995C602.047 766.778 602.908 766.635 603.722 766.446C604.148 766.347 604.52 766.13 604.923 765.984C605.22 765.877 606.207 765.835 605.882 765.835C604.909 765.835 603.928 764.543 603.505 763.976C602.257 762.303 601.735 760.029 602.821 758.262" stroke="#545454" stroke-width="3" stroke-linecap="round" stroke-linejoin="round" />
	<path d="M574.151 766.689C575.15 766.214 576.117 766.097 577.187 765.807C578.29 765.508 579.476 765.061 580.606 764.857C581.896 764.624 583.192 764.402 584.442 764.063C585.086 763.888 585.824 763.729 586.493 763.608C587.321 763.459 588.049 763.059 588.862 762.875C590.116 762.592 591.345 762.117 592.614 761.83C593.896 761.541 595.373 761.213 596.584 760.765C597.443 760.447 598.409 760.356 599.285 760.032C599.895 759.806 600.642 759.482 601.32 759.482" stroke="white" stroke-width="3" stroke-linecap="round" stroke-linejoin="round" />
	<path d="M574.001 767.545C573.894 767.769 573.299 769.27 574.151 768.861C575.261 768.33 576.283 767.86 577.454 767.423C578.743 766.941 580.296 766.846 581.54 766.296C583.159 765.58 585.123 764.951 586.877 764.491C587.933 764.214 588.994 763.934 589.996 763.541C590.859 763.203 591.836 763.091 592.698 762.754C593.931 762.27 595.242 761.752 596.55 761.41C597.309 761.212 598.273 760.74 599.069 760.704C599.625 760.679 600.072 760.338 600.57 760.338" stroke="white" stroke-width="3" stroke-linecap="round" stroke-linejoin="round" />
	<path d="M574.902 767.299C576.716 766.75 578.564 766.276 580.381 765.718C581.373 765.413 582.34 765.179 583.275 764.761C583.771 764.539 584.259 764.235 584.809 764.123" stroke="white" stroke-width="3" stroke-linecap="round" stroke-linejoin="round" />
	<path d="M581.957 764.736C583.265 764.29 584.451 763.712 585.826 763.392C586.791 763.168 587.775 762.986 588.72 762.72C590.687 762.166 592.655 761.669 594.599 761.071C595.289 760.859 596.068 760.797 596.784 760.61C597.475 760.429 598.216 760.221 598.919 760.094C599.688 759.955 600.547 759.324 601.32 759.361C601.625 759.376 601.181 761.042 601.087 761.064C599.987 761.32 598.782 761.486 597.685 761.804C594.303 762.783 590.421 762.941 587.211 764.247" stroke="white" stroke-width="3" stroke-linecap="round" stroke-linejoin="round" />
	<path d="M575.503 772.553C576.333 772.158 577.691 771.681 578.655 771.569C579.662 771.452 580.63 771.051 581.657 770.958C584.285 770.721 586.925 769.771 589.463 769.228C591.075 768.883 592.532 768.134 594.116 767.783C594.9 767.609 595.787 767.305 596.551 767.056C597.23 766.835 597.917 766.787 598.619 766.629C599.052 766.531 603.271 765.221 603.422 765.468" stroke="#D27C2C" stroke-width="3" stroke-linecap="round" stroke-linejoin="round" />
	<path d="M571.749 767.055C569.914 767.638 568.081 768.11 566.271 768.765C565.981 768.87 564.862 769.018 564.845 769.131C564.721 769.934 564.802 770.622 565.22 771.452C566.151 773.305 567.224 774.785 569.348 775.7C569.933 775.952 571.454 774.78 572.041 774.452C572.594 774.142 573.123 773.529 573.851 773.529" stroke="#FFC700" stroke-width="3" stroke-linecap="round" stroke-linejoin="round" />
	<path d="M564.695 772.43C564.552 772.501 563.318 772.956 563.428 773.224C563.651 773.769 563.879 774.203 564.312 774.683C564.903 775.339 564.79 775.368 565.821 774.995C566.414 774.78 565.765 773.681 565.296 773.434C564.736 773.139 564.196 774.018 564.996 774.018" stroke="#FFC700" stroke-width="3" stroke-linecap="round" stroke-linejoin="round" />
	<path d="M571.149 767.91C571.149 768.879 571.283 770.12 571.783 771.018C572.007 771.421 572.107 771.857 572.35 772.253C572.511 772.515 572.808 772.719 572.95 772.979C573.232 773.496 572.114 773.828 571.599 774.045C571.173 774.225 569.836 775.039 569.273 774.683C568.149 773.971 567.395 772.67 567.021 771.588C566.749 770.8 566.744 770.269 566.796 769.498C566.84 768.854 567.959 769.152 568.439 768.826C568.728 768.63 568.306 769.671 568.297 769.695C568.212 769.927 567.506 771.604 567.997 771.738C568.281 771.814 569.304 769.689 569.431 769.457C569.971 768.472 569.747 769.296 569.615 769.905C569.394 770.927 568.903 772.337 569.231 773.38C569.443 774.054 570.472 771.994 570.532 771.833C570.648 771.524 570.905 770.58 570.766 770.882C570.514 771.429 570.412 772.471 570.582 773.04C570.672 773.341 571.643 772.764 571.233 772.24C570.812 771.702 571.005 770.893 570.841 770.292C570.714 769.829 569.663 769.606 569.231 769.403C568.524 769.071 568.07 768.867 567.321 769.003C566.916 769.076 566.025 769.426 565.896 769.742" stroke="#FFC700" stroke-width="3" stroke-linecap="round" stroke-linejoin="round" />
	<path d="M567.697 774.996C568.222 775.319 568.71 775.535 569.273 775.79C569.628 775.95 571.071 775.13 571.483 774.996C571.893 774.862 574.302 774.134 574.302 773.652C574.302 773.432 573.832 773.175 573.626 773.041C573.251 772.797 572.718 773.218 572.35 773.408C571.496 773.849 570.606 774.2 569.64 774.446C569.335 774.523 568.578 774.54 568.448 774.751" stroke="#D27C2C" stroke-width="3" stroke-linecap="round" stroke-linejoin="round" />
	<path d="M564.545 768.766C566.43 768.159 568.34 767.906 570.249 767.449C570.399 767.413 571.583 767.099 571.583 767.246C571.583 767.568 571.323 767.931 571.3 768.277C571.27 768.713 570.742 768.766 570.324 768.766C569.531 768.766 568.546 769.073 567.764 769.227C567.16 769.347 566.367 769.435 565.821 769.682C565.582 769.79 564.813 769.865 564.845 769.865" stroke="white" stroke-width="3" stroke-linecap="round" stroke-linejoin="round" />
	<path d="M572.951 765.59C572.192 768.756 573.863 771.833 575.953 774.385" stroke="#545454" stroke-width="3" stroke-linecap="round" stroke-linejoin="round" />
	<path d="M575.052 773.651C573.891 774.043 572.875 774.759 571.817 775.307C571.182 775.636 570.443 776.262 569.649 776.338C569.438 776.359 569.204 776.628 568.982 776.576C568.73 776.518 568.43 776.229 568.223 776.094C567.247 775.459 566.57 774.68 566.013 773.773C565.332 772.665 564.695 771.746 564.695 770.482C564.695 770.138 564.73 768.906 565.146 768.887C565.719 768.861 566.476 768.486 567.022 768.338C568.042 768.061 568.947 767.562 569.949 767.245C570.696 767.009 571.726 766.566 572.501 766.566" stroke="#545454" stroke-width="3" stroke-linecap="round" stroke-linejoin="round" />
	<path d="M564.545 771.574C563.878 771.807 563.24 772.112 562.594 772.375C562.441 772.437 562.056 772.586 562.002 772.741C561.72 773.543 562.939 774.517 563.461 775.062C563.966 775.591 564.058 775.767 564.854 775.605C565.392 775.496 565.752 775.297 566.196 775.117" stroke="#545454" stroke-width="3" stroke-linecap="round" stroke-linejoin="round" />
	<path d="M573.101 765.834C574.293 765.81 575.729 765.38 576.845 765.04C578.123 764.65 579.467 764.398 580.756 764.029C582.175 763.622 583.731 763.348 585.201 763.086C587.197 762.729 589.126 762.12 591.046 761.559C592.521 761.128 594.052 760.804 595.499 760.31C596.68 759.907 597.84 759.455 599.069 759.177C600.23 758.914 601.39 758.69 602.521 758.383" stroke="#545454" stroke-width="3" stroke-linecap="round" stroke-linejoin="round" />
	<path d="M602.971 758.504C602.15 760.155 601.616 761.892 602.896 763.512C603.591 764.391 604.438 765.254 605.673 765.589" stroke="#545454" stroke-width="3" stroke-linecap="round" stroke-linejoin="round" />
	<path d="M603.722 762.414C603.88 762.724 605.206 764.572 605.94 763.974C606.851 763.233 607.919 762.498 609.05 761.986C609.504 761.781 609.435 761.559 608.9 761.559C608.467 761.559 607.697 761.879 607.324 762.047C606.21 762.551 605.393 762.291 604.322 762.291" stroke="#FFC700" stroke-width="3" stroke-linecap="round" stroke-linejoin="round" />
	<path d="M605.974 764.49C606.605 763.812 607.79 762.535 608.976 762.535" stroke="#D27C2C" stroke-width="3" stroke-linecap="round" stroke-linejoin="round" />
	<path d="M605.673 765.59C604.411 764.989 603.507 764.584 603.046 763.385C602.632 762.306 602.302 761.496 602.521 760.338" stroke="#545454" stroke-width="3" stroke-linecap="round" stroke-linejoin="round" />
	<path d="M606.273 765.835C606.556 764.581 607.746 763.597 609.042 762.964C609.664 762.661 610.623 762.086 611.377 762.048C611.547 762.039 611.1 761.701 611.002 761.621C610.548 761.251 610.206 760.841 609.826 760.419C609.52 760.08 609.341 758.968 609.876 758.75" stroke="#545454" stroke-width="3" stroke-linecap="round" stroke-linejoin="round" />
	<g style="mix-blend-mode:multiply" opacity="0.55">
		<path d="M555.898 780.046L568.102 741.954L567.194 741.663C566.221 741.351 565.194 741.213 564.199 741.442C560.892 742.202 553.057 745.214 549.302 756.932C548.189 760.406 545.242 764.499 542.494 767.799C540.076 770.702 541.204 775.339 544.802 776.491L555.898 780.046ZM565.295 761.478L564.052 781.44L565.295 761.478ZM571.037 761.884L570.188 781.866L571.037 761.884ZM578.687 762.592L581.463 742.786L578.687 762.592ZM587.592 762.592L586.442 742.625L587.592 762.592ZM600.002 762.592L585.511 776.377L585.511 776.377L600.002 762.592ZM600.43 764.603L580.482 766.041L580.482 766.041L600.43 764.603ZM600.984 769.845L581.032 768.449L581.032 768.449L600.984 769.845ZM597.867 769.845L598.07 749.846L598.07 749.846L597.867 769.845ZM582.645 769.399L584.685 749.504L584.685 749.504L582.645 769.399ZM575.774 769.046L574.605 749.08L574.605 749.08L575.774 769.046ZM568.31 769.281L566.379 749.375H566.379L568.31 769.281ZM553.902 786.229L573.464 751.338L572.632 750.872C571.741 750.372 570.762 750.032 569.741 750.058C566.349 750.143 558.07 751.53 552.053 762.263C550.268 765.445 546.563 768.867 543.212 771.553C540.264 773.914 540.443 778.683 543.739 780.53L553.902 786.229ZM555.898 780.046C559.693 781.262 563.373 781.397 564.052 781.44L566.539 741.517C566.267 741.5 566.14 741.491 566.047 741.484C565.964 741.477 565.997 741.479 566.104 741.492C566.211 741.505 566.443 741.537 566.764 741.602C567.085 741.667 567.545 741.775 568.102 741.954L555.898 780.046ZM564.052 781.44C564.349 781.458 568.416 781.791 570.188 781.866L571.886 741.903C569.804 741.814 570.071 741.737 566.539 741.517L564.052 781.44ZM570.188 781.866C572.093 781.947 573.922 782.12 575.911 782.398L581.463 742.786C578.311 742.344 575.191 742.043 571.886 741.903L570.188 781.866ZM575.911 782.398C581.236 783.145 586.634 782.68 588.742 782.559L586.442 742.625C584.691 742.726 583.743 742.792 582.734 742.812C582.298 742.821 581.986 742.816 581.763 742.807C581.541 742.797 581.451 742.784 581.463 742.786L575.911 782.398ZM588.742 782.559C589.617 782.509 590.289 782.533 592.508 782.533V742.533C591.45 742.533 588.837 742.487 586.442 742.625L588.742 782.559ZM592.508 782.533C594.132 782.533 595.62 782.409 596.22 782.363C597.076 782.297 597.025 782.31 596.847 782.31V742.31C595.225 742.31 593.734 742.436 593.145 742.481C592.3 742.546 592.34 742.533 592.508 742.533V782.533ZM596.847 782.31C597.121 782.31 597.432 782.304 597.439 782.304C597.544 782.302 597.611 782.301 597.677 782.3C597.827 782.299 597.846 782.301 597.773 782.299C597.73 782.297 597.598 782.292 597.398 782.277C597.218 782.262 596.828 782.228 596.302 782.145C595.867 782.076 594.793 781.893 593.436 781.439C592.736 781.205 591.668 780.802 590.437 780.14C589.261 779.507 587.382 778.344 585.511 776.377L614.493 748.807C612.577 746.794 610.637 745.586 609.388 744.914C608.082 744.211 606.926 743.773 606.126 743.505C604.569 742.984 603.248 742.746 602.533 742.633C601.06 742.401 599.771 742.343 599.126 742.321C598.07 742.286 595.968 742.31 596.847 742.31V782.31ZM585.511 776.377C583.228 773.976 582.036 771.479 581.413 769.725C580.804 768.013 580.597 766.614 580.515 765.928C580.469 765.548 580.447 765.247 580.436 765.068C580.43 764.974 580.427 764.901 580.425 764.854C580.423 764.808 580.422 764.779 580.422 764.779C580.413 764.506 580.435 765.384 580.482 766.041L620.379 763.166C620.405 763.524 620.42 764.061 620.399 763.431C620.389 763.137 620.36 762.25 620.232 761.184C620.052 759.673 619.315 753.877 614.493 748.807L585.511 776.377ZM580.482 766.041C580.577 767.35 580.756 768.444 580.891 769.169C580.959 769.536 581.025 769.856 581.072 770.079C581.095 770.191 581.118 770.296 581.134 770.373C581.153 770.459 581.163 770.509 581.174 770.56C581.223 770.789 581.175 770.587 581.124 770.246C581.069 769.868 580.984 769.164 580.984 768.246H620.984C620.984 766.703 620.84 765.385 620.695 764.399C620.555 763.449 620.385 762.645 620.306 762.273C620.191 761.727 620.213 761.838 620.218 761.861C620.24 761.984 620.329 762.471 620.379 763.166L580.482 766.041ZM580.984 768.246C580.984 768.427 580.985 768.591 580.987 768.728C580.989 768.864 580.991 768.985 580.993 769.078C580.994 769.125 580.995 769.169 580.996 769.205C580.997 769.245 580.998 769.269 580.998 769.299C581 769.355 581 769.379 581 769.391C581.001 769.402 581 769.387 581 769.354C581 769.321 581 769.263 581.001 769.186C581.003 769.036 581.009 768.779 581.032 768.449L620.935 771.24C621.015 770.097 621.002 769.14 620.994 768.7C620.991 768.514 620.984 768.225 620.984 768.212C620.982 768.121 620.984 768.16 620.984 768.246H580.984ZM581.032 768.449C581.561 760.896 585.976 756.144 588.902 753.936C591.582 751.915 594.105 751.088 595.119 750.785C597.286 750.136 599.017 750.047 599.31 750.029C599.9 749.993 600.32 750 600.446 750.002C600.534 750.004 600.598 750.006 600.632 750.008C600.65 750.008 600.663 750.009 600.672 750.009C600.68 750.01 600.685 750.01 600.685 750.01C600.686 750.01 600.675 750.009 600.651 750.008C600.628 750.006 600.598 750.004 600.559 750.001C600.478 749.994 600.384 749.986 600.262 749.975C600.201 749.97 599.951 749.947 599.81 749.935C599.726 749.927 599.565 749.914 599.381 749.9C599.326 749.897 598.76 749.853 598.07 749.846L597.665 789.844C596.758 789.835 595.947 789.75 596.353 789.785C596.421 789.791 596.437 789.793 596.68 789.815C597.021 789.845 597.66 789.902 598.361 789.942C598.88 789.973 600.226 790.047 601.743 789.955C602.307 789.92 604.264 789.801 606.59 789.105C607.684 788.777 610.27 787.923 612.993 785.868C615.963 783.627 620.403 778.837 620.935 771.24L581.032 768.449ZM598.07 749.846C596.359 749.829 594.725 749.867 593.417 749.9C592.008 749.935 590.98 749.963 589.968 749.963V789.963C591.592 789.963 593.194 789.918 594.415 789.888C595.739 789.855 596.736 789.834 597.665 789.844L598.07 749.846ZM589.968 749.963C588.848 749.963 587.83 749.826 584.685 749.504L580.604 789.295C582.293 789.468 586.203 789.963 589.968 789.963V749.963ZM584.685 749.504C582.866 749.317 578.785 748.835 574.605 749.08L576.942 789.011C576.931 789.012 577.001 789.008 577.17 789.01C577.34 789.013 577.575 789.022 577.898 789.043C578.614 789.091 579.37 789.168 580.604 789.295L584.685 749.504ZM574.605 749.08C573.995 749.115 573.4 749.115 571.868 749.128C570.585 749.14 568.572 749.162 566.379 749.375L570.242 789.188C570.528 789.16 571.004 789.137 572.212 789.127C573.17 789.119 575.067 789.121 576.942 789.011L574.605 749.08ZM566.379 749.375C565.588 749.452 566.18 749.356 567.132 749.414C568.216 749.48 570.679 749.777 573.464 751.338L553.902 786.229C561.549 790.516 569.593 789.251 570.242 789.188L566.379 749.375Z" fill="#FFEE00" />
	</g>
	<path d="M673.767 764.649C670.849 765.077 668.801 766.271 667.496 768.436C666.514 770.065 666.979 772.098 668.138 773.566C670.168 776.136 674.267 776.374 677.219 774.638C678.839 773.687 680.21 772.545 680.705 770.933C681.215 769.274 680.62 767.659 679.621 766.237C678.94 765.267 677.128 764.409 675.794 764.167C675.164 764.054 673.179 764.14 672.866 764.649" stroke="#545454" stroke-width="3" stroke-linecap="round" stroke-linejoin="round" />
	<path d="M666.562 768.192C665.498 768.023 664.477 767.941 663.376 768.097C662.187 768.265 660.969 768.192 659.799 768.375C658.658 768.553 657.46 768.244 656.288 768.321C655.703 768.359 655.16 768.436 654.562 768.436C654.063 768.436 653.699 768.239 653.203 768.409C652.72 768.574 652.046 768.416 651.552 768.585C651.046 768.758 650.455 768.926 649.967 769.04C648.938 769.279 647.889 768.802 646.898 768.802C645.798 768.802 644.363 769.311 644.363 770.39C644.363 771.06 645.392 771.53 646.081 771.605C647.493 771.758 648.991 771.856 650.417 771.856C653.787 771.856 657.136 771.576 660.483 771.374C661.888 771.29 663.264 771.123 664.677 771.123C665.291 771.123 666.211 770.851 666.712 771.123" stroke="#545454" stroke-width="3" stroke-linecap="round" stroke-linejoin="round" />
	<path d="M681.272 771.368C682.459 771.179 684.786 771.047 684.724 769.685C684.693 769.006 683.905 768.111 683.223 767.764C682.593 767.444 681.69 767.459 680.972 767.459" stroke="#545454" stroke-width="3" stroke-linecap="round" stroke-linejoin="round" />
	<path d="M706.563 757.503C705.423 756.829 704.056 757.241 702.87 757.711C702.032 758.043 701.405 758.557 700.642 758.902C700.326 759.045 700.113 758.864 699.814 758.851C699.326 758.828 699.73 759.203 699.68 759.426C699.58 759.873 698.881 759.952 698.442 760.071C697.877 760.224 698.183 760.483 698.159 760.819C698.128 761.248 696.533 760.824 697.367 761.671C697.485 761.792 697.67 762.22 697.643 762.374C697.623 762.482 697.603 763.012 697.572 763.059C697.328 763.415 696.66 763.579 696.631 764.032C696.611 764.34 696.827 764.478 696.504 764.757C696.195 765.023 696.294 765.138 696.504 765.436C696.763 765.805 696.274 765.964 696.072 766.259C696.001 766.363 696.396 766.734 696.277 767.014C696.138 767.34 696.249 767.397 696.249 767.71C696.249 768.005 695.685 769.091 696.532 768.879C697.185 768.715 697.043 768.985 697.338 769.362C697.593 769.688 697.904 769.749 697.904 770.191C697.904 770.688 698.085 770.745 698.541 770.951C698.898 771.113 698.479 771.868 698.98 771.987C699.418 772.092 700.219 771.871 700.317 772.425C700.405 772.926 700.448 772.844 701.031 772.966C701.518 773.068 701.672 773.538 702.106 773.714C702.36 773.818 702.804 773.797 703.083 773.766C703.82 773.686 703.733 773.904 704.243 774.186C704.618 774.394 704.929 774.255 705.29 774.417C705.685 774.594 705.711 774.91 706.124 774.814C706.474 774.733 706.819 774.963 707.136 774.906C707.505 774.839 707.623 774.691 708.063 774.705C708.472 774.717 708.652 774.919 708.912 774.497C709.144 774.119 709.516 774.477 709.902 774.578C710.34 774.693 710.723 774.497 711.147 774.497C711.569 774.497 712.143 774.565 712.35 774.181C712.627 773.665 712.794 773.461 713.538 773.461C714.056 773.461 714.424 773.45 714.337 772.995C714.205 772.295 714.895 772.416 715.469 772.269C716.042 772.124 715.759 771.768 715.986 771.389C716.211 771.011 716.873 770.662 717.316 770.456C717.591 770.328 717.249 769.743 717.613 769.524C717.882 769.361 718.893 768.93 718.476 768.591C718.005 768.208 717.768 767.999 718.349 767.549C718.621 767.338 719.447 766.665 718.978 766.369C718.508 766.071 718.898 765.712 719.013 765.298C719.194 764.653 718.805 765.036 718.405 764.711C717.957 764.346 718.821 763.796 718.448 763.41C718.055 763.004 717.203 762.893 717.188 762.27C717.183 762.047 717.63 761.215 717.195 761.136C716.639 761.035 716.801 760.858 716.934 760.462C717.038 760.15 716.4 760.166 716.24 759.967C715.993 759.659 716.202 759.114 715.505 759.288C715.021 759.409 714.868 759.288 714.521 759.006C714.075 758.643 713.72 759.103 713.255 759C712.828 758.905 713.046 758.171 712.802 758.171C712.435 758.171 712.06 758.783 711.6 758.476C711.433 758.365 711.298 757.443 711.02 757.527C710.786 757.596 710.143 758.087 709.973 757.688C709.813 757.313 709.888 756.898 709.357 757.141C709.052 757.281 708.484 757.622 708.353 757.141C708.244 756.744 707.699 757.091 707.355 757.193C706.991 757.3 706.054 756.927 706.054 757.193" stroke="#545454" stroke-width="3" stroke-linecap="round" stroke-linejoin="round" />
	<path d="M681.271 768.438C681.426 768.807 681.667 769.198 681.713 769.591C681.732 769.746 681.675 769.947 681.755 770.093C681.903 770.364 682.319 770.022 682.472 769.903C682.861 769.604 682.798 768.875 682.322 768.682" stroke="#545454" stroke-width="3" stroke-linecap="round" stroke-linejoin="round" />
	<path d="M682.473 768.559C682.743 769.089 683.365 769.352 683.232 769.841C683.173 770.056 683.21 770.396 683.523 770.269" stroke="#545454" stroke-width="3" stroke-linecap="round" stroke-linejoin="round" />
	<path d="M645.697 769.536C644.471 770.893 645.917 769.957 646.714 769.489C647.371 769.103 646.587 770.193 646.481 770.486C646.344 770.862 648.271 769.712 648.457 769.679C648.614 769.65 646.564 771.721 648.14 770.846C649.039 770.347 649.872 769.771 650.759 769.258C650.947 769.149 651.722 768.674 651.484 769.224C651.211 769.857 649.36 771.605 651.342 770.561C651.916 770.259 652.854 769.462 653.527 769.367C653.954 769.306 653.486 770.34 653.319 770.486C652.686 771.043 654.029 770.249 654.136 770.181C654.999 769.631 655.948 768.867 656.955 768.491C657.461 768.302 656.655 769.488 656.621 769.536C656.563 769.618 655.648 770.744 655.854 770.744C656.333 770.744 660.088 768.431 660.224 768.735C660.419 769.173 659.281 770.268 659.006 770.595C658.64 771.029 658.231 771.446 659.181 770.961C660.262 770.41 661.222 769.707 662.258 769.102C662.688 768.851 661.799 770.003 661.716 770.127C661.56 770.361 661.599 770.587 661.958 770.418C662.759 770.042 663.425 769.394 664.276 769.102C665.058 768.833 662.943 771.092 663.451 770.968C664.206 770.784 664.981 770.183 665.611 769.808C665.983 769.585 666.075 769.569 665.927 769.93C665.711 770.458 666.097 770.269 666.561 770.269" stroke="#545454" stroke-width="3" stroke-linecap="round" stroke-linejoin="round" />
	<path d="M647.348 755.488C646.195 756.23 645.062 756.961 643.746 757.497C643.409 757.634 642.537 757.946 643.312 758.176C644.474 758.519 647.689 759.22 648.249 760.13" stroke="#545454" stroke-width="3" stroke-linecap="round" stroke-linejoin="round" />
	<path d="M644.646 758.382C646.345 757.822 648.227 757.404 650.05 757.404" stroke="#545454" stroke-width="3" stroke-linecap="round" stroke-linejoin="round" />
	<path d="M680.672 755C682.183 756.913 684.001 756.701 685.892 757.932C685.989 757.995 683.792 759.773 683.374 759.886" stroke="#545454" stroke-width="3" stroke-linecap="round" stroke-linejoin="round" />
	<path d="M679.47 758.176C680.466 757.917 681.551 757.567 682.623 757.701C683.001 757.749 683.658 758.131 683.974 757.81C684.239 757.54 681.512 757.932 681.105 757.932C678.857 757.932 676.569 757.989 674.367 758.366C672.844 758.627 670.804 758.176 669.197 758.176C664.725 758.176 660.295 758.251 655.904 757.701C654.103 757.476 652.397 757.932 650.65 757.932" stroke="#545454" stroke-width="3" stroke-linecap="round" stroke-linejoin="round" />
	<g style="mix-blend-mode:multiply" opacity="0.55">
		<path d="M714.532 770.849L693.043 760.161L692.788 760.673C692.515 761.222 692.34 761.819 692.386 762.43C692.538 764.46 693.614 769.38 700.225 772.668C702.185 773.643 704.345 775.762 706.054 777.691C707.556 779.388 710.409 779.139 711.418 777.109L714.532 770.849ZM709.491 764.284L701.672 773.387L709.491 764.284ZM710.71 754.958L699.266 776.053L699.769 776.326C700.307 776.618 700.897 776.814 701.51 776.79C703.544 776.711 708.499 775.81 712.02 769.32C713.064 767.396 715.258 765.312 717.246 763.673C718.995 762.232 718.848 759.372 716.855 758.291L710.71 754.958ZM714.532 770.849C714.72 770.47 714.868 770.141 714.956 769.945C714.987 769.876 715.05 769.731 715.056 769.719C715.079 769.667 715.082 769.66 715.077 769.671C715.072 769.682 714.979 769.887 714.817 770.173C714.65 770.47 714.364 770.936 713.937 771.468C712.976 772.664 711.6 773.815 709.828 774.554C708.217 775.227 706.879 775.307 706.256 775.307V751.307C704.746 751.307 702.73 751.51 700.585 752.406C698.277 753.369 696.508 754.843 695.227 756.437C694.109 757.828 693.49 759.17 693.277 759.632C693.176 759.854 693.034 760.176 693.031 760.183C692.991 760.272 693.005 760.238 693.043 760.161L714.532 770.849ZM706.256 775.307C705.832 775.307 705.349 775.259 704.771 775.098C704.275 774.96 703.027 774.55 701.672 773.387L717.31 755.181C713.386 751.81 708.67 751.307 706.256 751.307V775.307ZM701.672 773.387C699.102 771.179 698.278 768.187 698.395 765.85C698.508 763.595 699.513 761.086 701.767 759.252L716.915 777.867C723.271 772.695 724.961 761.753 717.31 755.181L701.672 773.387ZM701.767 759.252C703.862 757.546 706.139 757.221 707.654 757.33C709.13 757.436 710.575 757.974 711.829 758.994L696.68 777.609C701.309 781.376 709.976 783.514 716.915 777.867L701.767 759.252ZM711.829 758.994C714.284 760.992 715.047 763.321 715.261 764.052C715.556 765.059 715.715 766.253 715.559 767.63C715.461 768.499 714.921 772.349 711.089 775.142C706.106 778.774 701.032 777.011 699.266 776.053L710.71 754.958C708.085 753.533 702.375 751.794 696.952 755.747C692.679 758.862 691.893 763.33 691.712 764.923C691.474 767.023 691.716 769.044 692.227 770.79C692.657 772.261 693.771 775.241 696.68 777.609L711.829 758.994Z" fill="#FF99F8" />
	</g>
	<g style="mix-blend-mode:multiply" opacity="0.55">
		<path d="M119.299 215.668L118.188 239.642L118.76 239.67C119.372 239.699 119.988 239.62 120.529 239.333C122.325 238.378 126.393 235.416 126.734 228.041C126.836 225.854 127.903 223.024 128.978 220.685C129.924 218.627 128.546 216.114 126.282 216.005L119.299 215.668ZM108.878 237.641L101.577 247.15L108.878 237.641ZM119.086 234.585L107.175 233.107L119.086 234.585ZM117.15 226.491L124.532 217.044L117.15 226.491ZM112.922 224.071L111.527 235.988L112.922 224.071ZM111.102 224.332L121.502 218.367L111.102 224.332ZM112.501 229.692L124.5 229.801L112.501 229.692ZM115.44 236.091L114.274 248.033L115.44 236.091ZM116.702 232.685L104.708 232.983L116.702 232.685ZM110.975 227.075L114.123 215.5L110.975 227.075ZM117.612 225.349L94.4795 231.689L94.6317 232.241C94.7947 232.832 95.0626 233.393 95.5045 233.819C96.9724 235.232 101.058 238.186 108.174 236.235C110.284 235.657 113.307 235.799 115.866 236.099C118.118 236.364 120.075 234.279 119.472 232.092L117.612 225.349ZM119.299 215.668C118.709 215.639 118.105 215.569 116.74 215.432C115.59 215.317 113.942 215.162 112.183 215.164C108.819 215.167 102.98 215.717 98.0875 220.261L114.436 237.864C112.765 239.417 111.176 239.167 112.252 239.166C112.713 239.165 113.333 239.208 114.393 239.314C115.238 239.399 116.788 239.575 118.188 239.642L119.299 215.668ZM98.0875 220.261C95.6383 222.536 93.6188 225.693 93.0403 229.642C92.4824 233.452 93.4559 236.701 94.5581 238.967C96.5566 243.075 99.8945 245.857 101.577 247.15L116.18 228.132C115.862 227.888 115.671 227.708 115.596 227.629C115.482 227.509 115.787 227.788 116.133 228.5C116.502 229.257 117.112 230.934 116.785 233.167C116.437 235.54 115.243 237.115 114.436 237.864L98.0875 220.261ZM101.577 247.15C105.33 250.036 111.191 252.655 117.678 251.321C121.162 250.605 124.506 248.76 127.026 245.697C129.468 242.73 130.604 239.277 130.996 236.063L107.175 233.107C107.198 232.923 107.385 231.76 108.483 230.425C109.659 228.995 111.266 228.126 112.802 227.81C114.192 227.524 115.185 227.745 115.591 227.87C115.82 227.94 115.97 228.011 116.051 228.054C116.134 228.097 116.173 228.127 116.18 228.132L101.577 247.15ZM130.996 236.063C131.223 234.204 133.133 223.774 124.532 217.044L109.768 235.937C109.093 235.409 108.463 234.682 107.999 233.814C107.558 232.988 107.402 232.291 107.347 231.928C107.297 231.597 107.323 231.487 107.311 231.745C107.298 232.013 107.262 232.396 107.175 233.107L130.996 236.063ZM124.532 217.044C124.452 216.982 123.003 215.785 121.745 214.959C120.309 214.016 117.746 212.562 114.318 212.154L111.527 235.988C110.595 235.877 109.871 235.632 109.399 235.431C108.942 235.236 108.666 235.058 108.606 235.018C108.55 234.982 108.589 235.003 108.805 235.172C108.911 235.256 109.024 235.346 109.192 235.48C109.341 235.599 109.551 235.768 109.768 235.937L124.532 217.044ZM114.318 212.154C114.066 212.124 112.915 211.993 111.64 212.012C111.314 212.017 109.452 212.016 107.391 212.711C106.597 212.979 103.308 214.115 101.025 217.632C97.8675 222.498 99.1241 227.551 100.702 230.297L121.502 218.367C122.16 219.512 122.955 221.35 123.062 223.738C123.176 226.296 122.46 228.729 121.162 230.729C118.932 234.165 115.749 235.237 115.1 235.456C114.022 235.82 113.163 235.925 112.857 235.959C112.466 236.002 112.177 236.01 112.05 236.012C111.713 236.017 111.611 235.998 111.527 235.988L114.318 212.154ZM100.702 230.297C100.755 230.388 100.746 230.384 100.711 230.302C100.673 230.213 100.624 230.078 100.58 229.912C100.537 229.746 100.515 229.61 100.506 229.527C100.497 229.451 100.504 229.459 100.503 229.583L124.5 229.801C124.53 225.603 123.583 221.988 121.502 218.367L100.702 230.297ZM100.503 229.583C100.496 230.595 100.451 233.733 101.379 236.912C102.309 240.098 105.588 247.168 114.274 248.033L116.605 224.149C118.985 224.386 121.142 225.551 122.635 227.188C123.895 228.57 124.308 229.864 124.414 230.227C124.581 230.8 124.492 230.881 124.5 229.801L100.503 229.583ZM114.274 248.033C120.208 248.624 124.21 245.181 126.025 242.561C127.544 240.368 128.073 238.178 128.275 237.23C128.729 235.095 128.717 233.119 128.697 232.387L104.708 232.983C104.705 232.862 104.707 232.826 104.708 232.807C104.709 232.789 104.713 232.737 104.723 232.653C104.732 232.575 104.754 232.415 104.802 232.19C104.839 232.017 105.125 230.548 106.29 228.867C106.939 227.929 108.107 226.572 110 225.519C112.035 224.387 114.349 223.925 116.605 224.149L114.274 248.033ZM128.697 232.387C128.533 226.277 125.025 222.126 122.535 219.98C119.952 217.755 116.909 216.263 114.123 215.5L107.827 238.649C107.449 238.546 107.231 238.444 106.892 238.151C106.644 237.938 104.796 236.262 104.708 232.983L128.697 232.387ZM114.123 215.5C113.177 215.241 110.044 214.399 106.73 214.633C105.28 214.736 101.135 215.185 97.7245 218.633C93.3999 223.006 93.595 228.482 94.4795 231.689L117.612 225.349C118.122 227.197 118.536 231.754 114.802 235.53C111.982 238.381 108.802 238.552 108.467 238.576C107.385 238.652 107.091 238.448 107.827 238.649L114.123 215.5Z" fill="#FF99F8" />
	</g>
	<g style="mix-blend-mode:multiply" opacity="0.55">
		<path d="M120.336 272.224L118.982 296.186L119.553 296.208C120.166 296.233 120.783 296.148 121.328 295.856C123.135 294.887 127.236 291.892 127.653 284.521C127.776 282.336 128.873 279.499 129.973 277.152C130.941 275.088 129.587 272.59 127.322 272.5L120.336 272.224ZM109.919 285.018L114.879 295.853L109.919 285.018ZM107.715 299.054L96.3019 302.977L107.715 299.054ZM112.286 302.157L109.526 290.536L112.286 302.157ZM117.389 295.841L129.003 298.699L117.389 295.841ZM111.914 299.162L116.57 275.562L116.008 275.46C115.406 275.352 114.784 275.351 114.206 275.565C112.286 276.278 107.819 278.685 106.387 285.945C105.962 288.097 104.486 290.762 103.074 292.94C101.832 294.855 102.824 297.522 105.05 297.924L111.914 299.162ZM120.336 272.224C119.578 272.194 116.67 271.98 114.579 272.03C111.974 272.092 108.564 272.491 104.959 274.183L114.879 295.853C114.364 296.095 114.114 296.019 114.752 296.004C115.1 295.995 115.56 296.006 116.301 296.045C116.869 296.074 118.05 296.149 118.982 296.186L120.336 272.224ZM104.959 274.183C96.058 278.362 94.7036 287.293 94.5633 291.323C94.4026 295.941 95.43 300.334 96.3019 302.977L119.128 295.131C119.012 294.779 118.843 294.161 118.719 293.438C118.592 292.7 118.556 292.114 118.568 291.753C118.583 291.317 118.649 291.699 118.274 292.513C118.065 292.969 117.698 293.596 117.091 294.243C116.466 294.909 115.707 295.464 114.879 295.853L104.959 274.183ZM96.3019 302.977C96.9947 305.077 98.4408 308.209 101.412 310.72C104.894 313.664 109.79 315.106 115.046 313.779L109.526 290.536C110.627 290.258 112.047 290.166 113.588 290.539C115.104 290.906 116.285 291.611 117.113 292.311C118.584 293.555 119.023 294.812 119.128 295.131L96.3019 302.977ZM115.046 313.779C119.934 312.544 123.548 309.675 125.884 306.137C127.864 303.138 128.664 299.988 129.003 298.699L105.776 292.982C105.623 293.564 105.554 293.775 105.524 293.856C105.501 293.918 105.6 293.625 105.896 293.177C106.218 292.689 106.74 292.069 107.502 291.515C108.271 290.957 109.006 290.667 109.526 290.536L115.046 313.779ZM129.003 298.699C129.147 298.15 129.571 296.641 129.842 295.257C130.119 293.838 130.483 291.443 130.089 288.723C129.651 285.697 128.274 282.34 125.298 279.65C122.527 277.145 119.282 276.051 116.57 275.562L111.914 299.162C111.881 299.156 111.549 299.095 111.037 298.873C110.509 298.645 109.775 298.238 109.014 297.549C107.284 295.986 106.529 294.02 106.316 292.546C106.147 291.378 106.338 290.697 106.269 291.048C106.194 291.434 106.099 291.753 105.776 292.982L129.003 298.699Z" fill="#FFEE00" />
	</g>
	<g style="mix-blend-mode:multiply" opacity="0.55">
		<path d="M122.998 347.121L103.604 361.592L103.942 362.048C104.304 362.536 104.753 362.958 105.317 363.189C107.191 363.957 112.058 365.182 118.024 360.73C119.793 359.41 122.671 358.42 125.172 357.749C127.372 357.159 128.464 354.497 127.126 352.691L122.998 347.121ZM105.852 351.083L117.611 353.322L105.852 351.083ZM106.941 356.765L118.905 355.52L106.941 356.765ZM108.486 365.873L117.804 358.153L108.486 365.873ZM112.83 368.63L106.503 378.926L106.503 378.926L112.83 368.63ZM116.469 366.432L105.336 362.124L116.469 366.432ZM116.785 356.873L107.402 364.513L107.402 364.513L116.785 356.873ZM103.628 357.409L126.995 351.463L126.862 350.909C126.72 350.316 126.472 349.751 126.045 349.318C124.627 347.882 120.645 344.863 113.457 346.692C111.326 347.234 108.307 347.042 105.757 346.699C103.515 346.397 101.482 348.447 102.008 350.642L103.628 357.409ZM122.998 347.121C122.142 345.965 120.391 343.596 117.633 341.756C114.499 339.664 111.135 338.891 107.914 338.764L106.559 362.726C106.617 362.728 106.309 362.722 105.788 362.572C105.22 362.408 104.615 362.136 104.053 361.761C103.526 361.409 103.23 361.095 103.176 361.036C103.154 361.012 103.253 361.119 103.604 361.592L122.998 347.121ZM107.914 338.764C108.189 338.775 108.689 338.821 108.103 338.769C107.886 338.749 106.958 338.659 105.838 338.73C104.819 338.795 102.382 339.049 99.8158 340.647C96.7262 342.57 94.7636 345.606 94.0925 348.845L117.611 353.322C116.998 356.28 115.174 359.131 112.276 360.936C109.902 362.414 107.709 362.615 106.958 362.662C106.481 362.693 106.109 362.684 105.904 362.675C105.697 362.666 105.553 362.653 105.543 362.652C105.246 362.625 106.031 362.705 106.559 362.726L107.914 338.764ZM94.0925 348.845C93.6265 351.095 93.7512 353.061 93.964 354.469C94.1713 355.84 94.5156 356.999 94.7187 357.653C94.821 357.982 94.9349 358.329 94.9929 358.508C95.0659 358.734 95.0985 358.839 95.118 358.906C95.1704 359.085 95.0367 358.693 94.9768 358.009L118.905 355.52C118.765 353.926 118.408 352.596 118.183 351.824C118.063 351.416 117.943 351.042 117.86 350.787C117.763 350.486 117.718 350.351 117.671 350.198C117.574 349.887 117.652 350.081 117.716 350.501C117.785 350.957 117.888 351.984 117.611 353.322L94.0925 348.845ZM94.9768 358.009C94.9757 357.996 94.9823 358.069 94.9857 358.277C94.9893 358.493 94.9885 358.748 94.9852 359.143C94.9797 359.809 94.9598 361.061 95.0348 362.344C95.1841 364.897 95.7694 369.478 99.1674 373.593L117.804 358.153C119.113 359.738 119.052 361.198 119.014 360.546C118.995 360.227 118.996 359.855 119.004 358.939C119.01 358.217 119.025 356.892 118.905 355.52L94.9768 358.009ZM99.1674 373.593C101.155 376 103.56 377.353 104.571 377.909C105.147 378.227 105.77 378.543 106.047 378.685C106.43 378.883 106.513 378.932 106.503 378.926L119.157 358.333C118.445 357.905 117.759 357.55 117.351 357.339C117.087 357.203 116.973 357.145 116.782 357.046C116.624 356.964 116.519 356.908 116.44 356.865C116.262 356.767 116.342 356.8 116.54 356.943C116.734 357.084 117.241 357.471 117.804 358.153L99.1674 373.593ZM106.503 378.926C108.529 380.145 111.399 381.224 114.856 380.96C118.371 380.692 121.093 379.145 122.909 377.581C125.951 374.963 127.263 371.585 127.602 370.741L105.336 362.124C105.29 362.236 105.36 362.04 105.56 361.697C105.73 361.404 106.287 360.491 107.401 359.532C108.631 358.473 110.683 357.259 113.428 357.049C116.116 356.844 118.117 357.707 119.157 358.333L106.503 378.926ZM127.602 370.741C128.301 369.005 129.339 366.096 129.722 362.802C130.078 359.751 130.126 354.112 126.169 349.233L107.402 364.513C106.443 363.331 106.071 362.151 105.937 361.425C105.872 361.07 105.858 360.804 105.857 360.653C105.856 360.574 105.858 360.517 105.86 360.481C105.861 360.463 105.862 360.45 105.863 360.441C105.863 360.437 105.864 360.434 105.864 360.432C105.864 360.431 105.864 360.43 105.864 360.429C105.864 360.429 105.864 360.429 105.864 360.429C105.864 360.43 105.864 360.427 105.864 360.429C105.864 360.43 105.864 360.427 105.864 360.429C105.864 360.43 105.864 360.427 105.864 360.429C105.864 360.43 105.864 360.427 105.864 360.429C105.864 360.429 105.864 360.429 105.864 360.429C105.864 360.43 105.864 360.431 105.864 360.432C105.863 360.434 105.863 360.437 105.863 360.44C105.861 360.448 105.86 360.46 105.857 360.474C105.852 360.504 105.844 360.546 105.833 360.599C105.81 360.708 105.775 360.847 105.726 361.015C105.625 361.36 105.49 361.739 105.336 362.124L127.602 370.741ZM126.169 349.233C125.932 348.941 125.887 348.887 125.81 348.79C125.762 348.729 125.829 348.81 125.94 348.977C126.187 349.35 126.695 350.21 126.995 351.463L103.628 357.409C104.607 361.497 107.293 364.379 107.402 364.513L126.169 349.233Z" fill="#86FA16" />
	</g>
	<g style="mix-blend-mode:multiply" opacity="0.55">
		<path d="M133.051 424.662L109.088 423.327L109.065 423.898C109.041 424.511 109.125 425.129 109.416 425.672C110.385 427.479 113.377 431.577 120.749 431.988C122.934 432.11 125.771 433.204 128.117 434.302C130.181 435.269 132.68 433.913 132.771 431.648L133.051 424.662ZM118.359 416.909L116.246 428.696L118.359 416.909ZM108.962 416.345L108.295 404.345L108.962 416.345ZM103.533 424.494L92.0674 427.834L103.533 424.494ZM112.119 416.192L108.757 427.666L112.119 416.192ZM111.093 418.782L122.854 421.304L111.093 418.782ZM121.499 427.139L98.0356 421.806L97.9173 422.364C97.7906 422.962 97.7706 423.584 97.9676 424.168C98.6225 426.106 100.895 430.638 108.113 432.279C110.253 432.765 112.873 434.317 115.009 435.79C116.887 437.087 119.584 436.173 120.053 433.96L121.499 427.139ZM133.051 424.662C133.066 424.298 133.417 420.427 132.714 417.171C132.277 415.146 131.291 412.325 128.935 409.773C126.468 407.101 123.396 405.692 120.473 405.123L116.246 428.696C114.969 428.447 113.074 427.698 111.443 425.932C109.924 424.286 109.432 422.617 109.277 421.897C109.135 421.24 109.176 420.92 109.171 421.347C109.165 421.899 109.137 422.113 109.088 423.327L133.051 424.662ZM120.473 405.123C116.246 404.299 111.826 404.203 108.295 404.345L109.629 428.344C112.142 428.243 114.53 428.362 116.246 428.696L120.473 405.123ZM108.295 404.345C97.3079 404.788 88.3562 415.646 92.0674 427.834L114.998 421.155C115.48 422.74 115.161 424.602 114.138 426.01C113.254 427.226 111.713 428.26 109.629 428.344L108.295 404.345ZM92.0674 427.834C92.9682 430.792 94.5504 434.146 97.0004 437.044C99.3931 439.874 103.692 443.455 109.879 443.799L110.842 419.819C113.734 419.98 115.14 421.615 115.203 421.69C115.323 421.833 115.14 421.621 114.998 421.155L92.0674 427.834ZM109.879 443.799C117.372 444.217 121.895 439.31 123.835 436.207C125.855 432.975 126.793 429.327 127.141 426.256C127.492 423.158 127.38 419.438 126.228 415.845C125.147 412.477 122.251 406.804 115.482 404.719L108.757 427.666C104.613 426.39 103.482 423.11 103.405 422.869C103.256 422.403 103.384 422.542 103.311 423.183C103.236 423.852 103.086 423.823 103.451 423.239C103.658 422.908 104.25 422.057 105.452 421.257C106.782 420.372 108.665 419.697 110.842 419.819L109.879 443.799ZM115.482 404.719C113.948 404.246 111.683 403.856 109.069 404.413C106.297 405.005 104.072 406.465 102.503 408.215C99.8959 411.124 99.4588 414.427 99.3629 415.081C99.206 416.151 99.1834 417.205 99.1796 417.307C99.1575 417.904 99.1527 417.158 99.3315 416.259L122.854 421.304C123.124 419.947 123.144 418.601 123.145 418.57C123.165 418.042 123.164 418.438 123.092 418.929C123.048 419.228 122.937 419.89 122.646 420.723C122.367 421.525 121.758 422.963 120.46 424.411C119.03 426.007 116.974 427.361 114.412 427.908C112.008 428.42 109.993 428.047 108.757 427.666L115.482 404.719ZM99.3315 416.259C99.1995 416.922 99.0297 417.629 98.7946 418.581C98.5785 419.457 98.2875 420.617 98.0356 421.806L121.499 427.139C121.651 426.422 121.831 425.697 122.081 424.683C122.313 423.746 122.604 422.56 122.854 421.304L99.3315 416.259Z" fill="#6FFFF6" />
	</g>
	<g style="mix-blend-mode:multiply" opacity="0.55">
		<path d="M130.763 486.554L106.782 485.593L106.75 486.164C106.716 486.776 106.791 487.392 107.074 487.93C108.016 489.719 110.95 493.765 118.327 494.061C120.514 494.149 123.338 495.198 125.671 496.258C127.723 497.191 130.247 495.798 130.373 493.534L130.763 486.554ZM117.7 480.251L125.292 470.843L117.7 480.251ZM110.683 478.479L112.525 466.603L110.683 478.479ZM108.437 479.628L96.5072 478.443L108.437 479.628ZM105.786 489.574L93.9277 487.865L105.786 489.574ZM107.304 496.528L100.938 506.793L100.938 506.793L107.304 496.528ZM114.539 495.526L103.545 490.874L114.539 495.526ZM117.537 483.17L105.813 480.755L117.537 483.17ZM111.627 490.786L117.546 467.455L116.991 467.322C116.396 467.181 115.776 467.145 115.188 467.328C113.234 467.934 108.648 470.094 106.827 477.271C106.287 479.4 104.67 481.981 103.144 484.08C101.802 485.927 102.647 488.647 104.846 489.171L111.627 490.786ZM130.763 486.554C130.763 486.556 130.764 486.534 130.769 486.476C130.773 486.417 130.779 486.342 130.789 486.233C130.805 486.055 130.839 485.687 130.866 485.34C130.92 484.637 130.996 483.458 130.916 482.115C130.759 479.466 129.875 474.504 125.292 470.843L110.108 489.658C108.802 488.615 107.953 487.324 107.471 486.132C107.032 485.045 106.957 484.195 106.94 483.904C106.923 483.618 106.946 483.52 106.92 483.86C106.906 484.035 106.892 484.178 106.864 484.494C106.842 484.753 106.806 485.158 106.782 485.593L130.763 486.554ZM125.292 470.843C122.078 468.275 118.434 467.494 116.736 467.179C115.709 466.989 114.748 466.867 114.053 466.785C113.205 466.685 112.907 466.656 112.525 466.603L108.841 490.356C109.245 490.412 109.636 490.459 109.958 490.497C110.12 490.516 110.287 490.535 110.432 490.551C110.583 490.569 110.72 490.585 110.855 490.6C111.413 490.667 111.753 490.715 111.998 490.761C112.251 490.808 112.188 490.813 111.939 490.723C111.704 490.638 110.975 490.351 110.108 489.658L125.292 470.843ZM112.525 466.603C112.315 466.574 111.424 466.44 110.566 466.388C109.838 466.344 107.408 466.206 104.661 467.312C101.159 468.723 98.9152 471.362 97.7307 473.932C96.8081 475.934 96.5849 477.767 96.5072 478.443L120.368 480.813C120.358 480.898 120.322 481.197 120.226 481.62C120.133 482.031 119.936 482.778 119.522 483.676C118.516 485.858 116.514 488.258 113.345 489.534C110.932 490.506 108.93 490.338 108.752 490.327C108.443 490.308 108.224 490.27 108.841 490.356L112.525 466.603ZM96.5072 478.443C96.4736 478.735 96.3542 479.259 95.7796 480.981C95.3307 482.327 94.3871 484.991 93.9277 487.865L117.644 491.283C117.725 490.774 117.912 490.168 118.555 488.238C119.073 486.686 120.009 483.928 120.368 480.813L96.5072 478.443ZM93.9277 487.865C93.7775 488.805 93.2971 491.608 93.5949 494.638C93.8988 497.731 95.2758 503.348 100.938 506.793L113.67 486.262C115.191 487.188 116.218 488.472 116.814 489.674C117.353 490.762 117.469 491.626 117.498 491.928C117.53 492.249 117.504 492.364 117.521 492.176C117.536 491.996 117.569 491.754 117.644 491.283L93.9277 487.865ZM100.938 506.793C103.949 508.626 107.914 509.863 112.131 509.541C116.699 509.193 122.676 506.715 125.533 500.177L103.545 490.874C104.258 489.242 105.494 487.815 107.048 486.853C108.494 485.958 109.831 485.694 110.673 485.629C112.176 485.515 113.107 485.92 113.67 486.262L100.938 506.793ZM125.533 500.177C126.884 497.087 127.613 494.015 128.099 491.628C128.752 488.419 128.77 487.801 129.26 485.585L105.813 480.755C105.416 482.548 104.771 486.194 104.565 487.205C104.192 489.036 103.867 490.137 103.545 490.874L125.533 500.177ZM129.26 485.585C129.658 483.789 130.806 478.156 126.94 473.072C123.66 468.759 118.71 467.732 117.546 467.455L111.627 490.786C112.057 490.889 111.763 490.853 111.184 490.588C110.555 490.301 109.054 489.506 107.729 487.763C104.779 483.884 105.993 479.94 105.813 480.755L129.26 485.585Z" fill="#B38FFF" />
	</g>
	<g style="mix-blend-mode:multiply" opacity="0.55">
		<path d="M121.325 536.918L108.694 557.408L109.18 557.706C109.702 558.025 110.28 558.25 110.893 558.257C112.929 558.279 117.929 557.627 121.815 551.324C122.967 549.455 125.277 547.484 127.356 545.947C129.185 544.595 129.201 541.733 127.273 540.554L121.325 536.918ZM109.521 545.62L110.656 557.554L110.656 557.554L109.521 545.62ZM105.993 546.863L95.5124 541.088L105.993 546.863ZM106.295 555.11L118.023 552.471L106.295 555.11ZM110.966 560.963L113.501 549.221L110.966 560.963ZM116.357 557.141L104.967 553.434L116.357 557.141ZM117.555 544.958L109.915 554.264L117.555 544.958ZM109.471 545.388L121.417 546.481L109.471 545.388ZM122.539 555.076L98.5621 554.023L98.533 554.595C98.5019 555.207 98.5796 555.823 98.8655 556.363C99.8155 558.156 102.768 562.216 110.144 562.54C112.331 562.636 115.158 563.696 117.496 564.765C119.551 565.706 122.068 564.322 122.183 562.058L122.539 555.076ZM121.325 536.918C118.692 535.308 114.289 533.084 108.385 533.686L110.656 557.554C110.339 557.587 109.988 557.588 109.624 557.548C109.263 557.508 108.961 557.436 108.736 557.365C108.329 557.237 108.245 557.134 108.694 557.408L121.325 536.918ZM108.385 533.686C107.734 533.753 106.192 533.925 104.521 534.378C103.695 534.602 102.405 535.006 101.022 535.744C99.809 536.391 97.2567 537.954 95.5124 541.088L116.474 552.638C114.97 555.341 112.862 556.546 112.209 556.894C111.387 557.332 110.774 557.498 110.653 557.531C110.393 557.601 110.375 557.583 110.656 557.554L108.385 533.686ZM95.5124 541.088C92.9617 545.671 93.4058 550.54 93.5952 552.322C93.8449 554.672 94.4035 557.002 94.5668 557.748L118.023 552.471C117.989 552.316 117.953 552.156 117.922 552.013C117.889 551.864 117.858 551.726 117.827 551.585C117.766 551.305 117.711 551.047 117.661 550.798C117.558 550.281 117.498 549.899 117.469 549.624C117.463 549.562 117.458 549.514 117.456 549.48C117.454 549.445 117.453 549.429 117.453 549.43C117.453 549.431 117.454 549.454 117.453 549.499C117.452 549.544 117.448 549.617 117.44 549.716C117.423 549.902 117.38 550.255 117.256 550.724C117.132 551.193 116.903 551.868 116.474 552.638L95.5124 541.088ZM94.5668 557.748C95.2173 560.724 97.7201 570.468 108.431 572.706L113.501 549.221C114.287 549.385 115.167 549.737 116 550.325C116.811 550.897 117.346 551.529 117.669 552.008C118.207 552.805 118.192 553.243 118.023 552.471L94.5668 557.748ZM108.431 572.706C113.374 573.739 118.349 572.584 122.206 569.326C125.491 566.553 127.013 563.059 127.748 560.848L104.967 553.434C104.972 553.419 105.051 553.176 105.275 552.796C105.499 552.417 105.962 551.741 106.786 551.045C107.659 550.308 108.823 549.65 110.216 549.312C111.591 548.979 112.75 549.064 113.501 549.221L108.431 572.706ZM127.748 560.848C127.868 560.484 128.023 560.145 128.626 558.631C129.091 557.466 129.766 555.718 130.261 553.794C131.012 550.882 132.802 541.873 125.196 535.653L109.915 554.264C109.082 553.583 108.366 552.707 107.848 551.703C107.346 550.729 107.135 549.84 107.052 549.198C106.906 548.069 107.131 547.512 107.015 547.961C106.92 548.329 106.724 548.901 106.33 549.889C106.237 550.122 106.143 550.356 106.037 550.616C105.936 550.865 105.821 551.149 105.71 551.429C105.497 551.964 105.217 552.682 104.967 553.434L127.748 560.848ZM125.196 535.653C122.223 533.222 117.974 531.641 114.162 531.283C112.195 531.098 108.679 531.067 105.104 532.943C100.692 535.259 97.9938 539.53 97.5245 544.296L121.417 546.481C121.3 547.67 120.891 549.232 119.857 550.8C118.813 552.385 117.455 553.483 116.15 554.167C113.836 555.382 111.972 555.19 111.75 555.169C111.489 555.145 111.329 555.108 111.27 555.093C111.204 555.076 111.165 555.062 111.134 555.05C111.106 555.04 111.02 555.005 110.871 554.924C110.753 554.859 110.395 554.656 109.915 554.264L125.196 535.653ZM97.5245 544.296C97.1636 547.96 97.9347 551.247 98.218 552.566C98.6383 554.525 98.5436 554.388 98.5621 554.023L122.539 555.076C122.633 553.228 122.462 551.6 122.269 550.352C122.087 549.165 121.829 548.01 121.694 547.378C121.322 545.649 121.476 545.884 121.417 546.481L97.5245 544.296Z" fill="#FFAE4F" />
	</g>
	<g filter="url(#filter0_d_1242_62017)">
		<rect x="80" y="584" width="64" height="64" rx="10" fill="white" />
	</g>
	<g style="mix-blend-mode:multiply" opacity="0.55">
		<path d="M111.817 594.189L117.697 617.393L118.252 617.248C118.846 617.092 119.413 616.832 119.848 616.395C121.29 614.946 124.325 610.899 122.516 603.761C121.98 601.645 122.182 598.625 122.534 596.07C122.843 593.823 120.797 591.84 118.598 592.415L111.817 594.189ZM107.352 612.23L98.1513 604.61L98.1512 604.61L107.352 612.23ZM102.701 620.844L90.6973 620.789L102.701 620.844ZM108.337 626.27L104.823 637.772L108.337 626.27ZM121.645 621.082L133.411 623.353L121.645 621.082ZM117.376 611.829L126.434 603.874L117.376 611.829ZM110.728 609.186L98.7524 610.132L110.728 609.186ZM111.603 614.469L99.601 614.849L111.603 614.469ZM116.664 621.957L111.624 632.889L116.664 621.957ZM118.16 621.718L129.565 625.36L118.16 621.718ZM114.4 618.383L118.151 606.955L114.4 618.383ZM109.09 617.913L99.3705 610.962L109.09 617.913ZM113.363 618.762L104.073 611.25L113.363 618.762ZM121.973 617.256L97.9952 616.228L97.9654 616.799C97.9335 617.411 98.0105 618.027 98.2957 618.567C99.2436 620.359 102.191 624.415 109.567 624.731C111.754 624.825 114.581 625.882 116.918 626.949C118.972 627.888 121.491 626.502 121.609 624.238L121.973 617.256ZM111.817 594.189C107.179 595.402 103.958 598.17 102.089 600.05C100.376 601.773 98.5587 604.121 98.1513 604.61L116.553 619.851C116.86 619.482 117.16 619.109 117.406 618.805C117.669 618.479 117.883 618.214 118.099 617.952C118.533 617.426 118.825 617.1 119.046 616.877C119.267 616.655 119.286 616.672 119.113 616.787C118.923 616.914 118.443 617.198 117.697 617.393L111.817 594.189ZM98.1512 604.61C97.3097 605.621 95.5593 607.665 94.1199 609.976C92.699 612.257 90.7627 616.041 90.6973 620.789L114.706 620.898C114.694 621.734 114.517 622.309 114.433 622.537C114.354 622.752 114.323 622.755 114.473 622.515C114.618 622.282 114.852 621.948 115.223 621.474C115.608 620.981 116.004 620.509 116.553 619.851L98.1512 604.61ZM90.6973 620.789C90.6144 626.807 93.7265 631.112 96.7466 633.616C99.5323 635.925 102.646 637.126 104.823 637.772L111.85 614.769C111.252 614.592 111.528 614.556 112.179 615.097C112.57 615.42 113.229 616.066 113.791 617.124C114.389 618.251 114.724 619.565 114.706 620.898L90.6973 620.789ZM104.823 637.772C109.077 639.033 114.569 639.57 119.896 637.969C125.816 636.19 131.76 631.516 133.411 623.353L109.878 618.81C110.031 618.054 110.487 617.037 111.362 616.163C112.163 615.364 112.914 615.08 113.176 615.001C113.418 614.928 113.382 614.982 113.025 614.969C112.686 614.957 112.264 614.892 111.85 614.769L104.823 637.772ZM133.411 623.353C134.528 617.832 132.984 613.239 131.112 609.994C129.514 607.225 127.249 604.803 126.434 603.874L108.317 619.784C108.481 619.969 108.645 620.155 108.79 620.319C108.94 620.489 109.074 620.642 109.204 620.791C109.466 621.09 109.67 621.329 109.843 621.54C110.205 621.982 110.296 622.143 110.281 622.116C110.252 622.066 110.036 621.681 109.895 621.016C109.741 620.296 109.735 619.52 109.878 618.81L133.411 623.353ZM126.434 603.874C126.286 603.705 121.622 596.796 112.911 596.422L111.661 620.39C110.975 620.36 110.16 620.208 109.318 619.866C108.496 619.531 107.91 619.12 107.571 618.843C107.273 618.599 107.16 618.451 107.331 618.642C107.412 618.733 107.511 618.847 107.686 619.052C107.838 619.229 108.074 619.506 108.317 619.784L126.434 603.874ZM112.911 596.422C111.906 596.379 109.837 596.387 107.524 597.171C106.349 597.569 104.15 598.486 102.168 600.589C99.8398 603.061 98.4964 606.476 98.7524 610.132L122.704 608.239C122.936 611.548 121.707 614.689 119.581 616.946C117.802 618.834 115.893 619.595 115.046 619.882C113.388 620.444 112.122 620.409 111.661 620.39L112.911 596.422ZM98.7524 610.132C98.8288 611.224 98.9871 612.173 99.1262 612.887C99.2559 613.553 99.4152 614.232 99.4875 614.551C99.6924 615.453 99.6105 615.271 99.601 614.849L123.605 614.088C123.555 611.829 123.096 609.879 122.905 609.036C122.632 607.833 122.687 607.99 122.704 608.239L98.7524 610.132ZM99.601 614.849C99.6689 617.864 100.239 621.731 102.629 625.445C105.029 629.176 108.41 631.433 111.624 632.889L121.705 611.024C121.137 610.767 122.027 611.046 122.862 612.343C123.686 613.625 123.617 614.603 123.605 614.088L99.601 614.849ZM111.624 632.889C112.642 633.35 114.77 634.173 117.496 634.148C118.958 634.134 121.361 633.866 123.867 632.408C126.657 630.785 128.622 628.233 129.565 625.36L106.756 618.077C107.592 615.528 109.371 613.193 111.927 611.706C114.2 610.383 116.323 610.17 117.491 610.159C119.629 610.139 121.115 610.757 121.705 611.024L111.624 632.889ZM129.565 625.36C131.005 620.972 129.95 616.92 128.208 614.119C126.71 611.711 124.777 610.265 123.676 609.535C121.425 608.043 119.073 607.249 118.151 606.955L110.649 629.811C111.008 629.926 110.823 629.926 110.275 629.563C110.026 629.398 108.829 628.599 107.782 626.917C106.491 624.842 105.603 621.592 106.756 618.077L129.565 625.36ZM118.151 606.955C117.113 606.623 115.258 606.212 113.676 605.969C112.86 605.843 111.542 605.669 110.133 605.673C109.467 605.676 108.231 605.713 106.796 606.05C105.826 606.278 102.069 607.219 99.3705 610.962L118.808 624.865C117.442 626.761 115.824 627.837 114.722 628.414C113.619 628.992 112.66 629.266 112.087 629.401C110.986 629.659 110.173 629.662 109.988 629.663C109.543 629.664 109.426 629.621 109.81 629.68C110.092 629.723 110.432 629.789 110.735 629.856C111.204 629.959 111.094 629.953 110.649 629.811L118.151 606.955ZM99.3705 610.962C98.0603 612.779 94.3963 618.96 98.4263 625.672C101.768 631.237 107.535 631.848 109.047 631.952C111.422 632.115 113.712 631.721 115.65 631.057C117.421 630.45 120.335 629.125 122.654 626.273L104.073 611.25C105.715 609.23 107.51 608.557 108.046 608.373C108.748 608.132 109.685 607.934 110.914 608.019C111.54 608.062 112.671 608.208 114.017 608.781C115.364 609.356 117.504 610.623 119.046 613.192C122.671 619.229 119.134 624.413 118.808 624.865L99.3705 610.962ZM122.654 626.273C126.454 621.598 126.219 616.071 124.566 612.284C123.149 609.038 120.754 606.868 118.659 605.595C116.845 604.493 112.913 602.666 108.06 603.851C105.264 604.535 102.484 606.196 100.507 608.952C98.6479 611.543 98.098 614.256 97.9952 616.228L121.973 617.256C121.91 618.475 121.546 620.623 119.978 622.81C118.291 625.161 115.905 626.578 113.562 627.151C109.616 628.115 106.829 626.599 106.047 626.124C104.983 625.478 103.507 624.251 102.544 622.044C101.345 619.298 101.099 614.908 104.073 611.25L122.654 626.273Z" fill="#979797" />
	</g>
	<path d="M1193.68 115.16C1192.59 115.16 1191.61 114.88 1190.74 114.32C1189.89 113.76 1189.21 112.947 1188.7 111.88C1188.21 110.813 1187.96 109.52 1187.96 108C1187.96 106.48 1188.21 105.187 1188.7 104.12C1189.21 103.053 1189.89 102.24 1190.74 101.68C1191.61 101.12 1192.59 100.84 1193.68 100.84C1194.76 100.84 1195.73 101.12 1196.6 101.68C1197.47 102.24 1198.15 103.053 1198.64 104.12C1199.13 105.187 1199.38 106.48 1199.38 108C1199.38 109.52 1199.13 110.813 1198.64 111.88C1198.15 112.947 1197.47 113.76 1196.6 114.32C1195.73 114.88 1194.76 115.16 1193.68 115.16ZM1193.68 113.38C1194.41 113.38 1195.05 113.18 1195.6 112.78C1196.16 112.38 1196.59 111.78 1196.9 110.98C1197.22 110.18 1197.38 109.187 1197.38 108C1197.38 106.813 1197.22 105.82 1196.9 105.02C1196.59 104.22 1196.16 103.62 1195.6 103.22C1195.05 102.82 1194.41 102.62 1193.68 102.62C1192.95 102.62 1192.3 102.82 1191.74 103.22C1191.18 103.62 1190.74 104.22 1190.42 105.02C1190.11 105.82 1189.96 106.813 1189.96 108C1189.96 109.187 1190.11 110.18 1190.42 110.98C1190.74 111.78 1191.18 112.38 1191.74 112.78C1192.3 113.18 1192.95 113.38 1193.68 113.38ZM1207.52 115.16C1206.43 115.16 1205.45 114.88 1204.58 114.32C1203.73 113.76 1203.05 112.947 1202.54 111.88C1202.05 110.813 1201.8 109.52 1201.8 108C1201.8 106.48 1202.05 105.187 1202.54 104.12C1203.05 103.053 1203.73 102.24 1204.58 101.68C1205.45 101.12 1206.43 100.84 1207.52 100.84C1208.6 100.84 1209.57 101.12 1210.44 101.68C1211.31 102.24 1211.99 103.053 1212.48 104.12C1212.97 105.187 1213.22 106.48 1213.22 108C1213.22 109.52 1212.97 110.813 1212.48 111.88C1211.99 112.947 1211.31 113.76 1210.44 114.32C1209.57 114.88 1208.6 115.16 1207.52 115.16ZM1207.52 113.38C1208.25 113.38 1208.89 113.18 1209.44 112.78C1210 112.38 1210.43 111.78 1210.74 110.98C1211.06 110.18 1211.22 109.187 1211.22 108C1211.22 106.813 1211.06 105.82 1210.74 105.02C1210.43 104.22 1210 103.62 1209.44 103.22C1208.89 102.82 1208.25 102.62 1207.52 102.62C1206.79 102.62 1206.14 102.82 1205.58 103.22C1205.02 103.62 1204.58 104.22 1204.26 105.02C1203.95 105.82 1203.8 106.813 1203.8 108C1203.8 109.187 1203.95 110.18 1204.26 110.98C1204.58 111.78 1205.02 112.38 1205.58 112.78C1206.14 113.18 1206.79 113.38 1207.52 113.38ZM1216.96 107.04C1216.59 107.04 1216.27 106.913 1216 106.66C1215.73 106.393 1215.6 106.06 1215.6 105.66C1215.6 105.26 1215.73 104.933 1216 104.68C1216.27 104.427 1216.59 104.3 1216.96 104.3C1217.32 104.3 1217.63 104.427 1217.88 104.68C1218.15 104.933 1218.28 105.26 1218.28 105.66C1218.28 106.06 1218.15 106.393 1217.88 106.66C1217.63 106.913 1217.32 107.04 1216.96 107.04ZM1216.96 115.12C1216.59 115.12 1216.27 114.993 1216 114.74C1215.73 114.473 1215.6 114.14 1215.6 113.74C1215.6 113.34 1215.73 113.013 1216 112.76C1216.27 112.507 1216.59 112.38 1216.96 112.38C1217.32 112.38 1217.63 112.507 1217.88 112.76C1218.15 113.013 1218.28 113.34 1218.28 113.74C1218.28 114.14 1218.15 114.473 1217.88 114.74C1217.63 114.993 1217.32 115.12 1216.96 115.12ZM1220.45 115V113.64L1226.15 108.14C1226.66 107.66 1227.03 107.24 1227.27 106.88C1227.52 106.507 1227.69 106.167 1227.77 105.86C1227.86 105.54 1227.91 105.233 1227.91 104.94C1227.91 104.22 1227.66 103.653 1227.15 103.24C1226.64 102.827 1225.9 102.62 1224.93 102.62C1224.18 102.62 1223.51 102.747 1222.91 103C1222.31 103.24 1221.79 103.62 1221.35 104.14L1219.99 102.96C1220.52 102.28 1221.24 101.76 1222.13 101.4C1223.04 101.027 1224.03 100.84 1225.11 100.84C1226.08 100.84 1226.93 101 1227.65 101.32C1228.37 101.627 1228.92 102.073 1229.31 102.66C1229.71 103.247 1229.91 103.94 1229.91 104.74C1229.91 105.193 1229.85 105.64 1229.73 106.08C1229.61 106.52 1229.38 106.987 1229.05 107.48C1228.72 107.973 1228.24 108.527 1227.61 109.14L1222.53 114.04L1222.05 113.26H1230.51V115H1220.45ZM1238.36 115.16C1237.26 115.16 1236.28 114.88 1235.42 114.32C1234.56 113.76 1233.88 112.947 1233.38 111.88C1232.88 110.813 1232.64 109.52 1232.64 108C1232.64 106.48 1232.88 105.187 1233.38 104.12C1233.88 103.053 1234.56 102.24 1235.42 101.68C1236.28 101.12 1237.26 100.84 1238.36 100.84C1239.44 100.84 1240.41 101.12 1241.28 101.68C1242.14 102.24 1242.82 103.053 1243.32 104.12C1243.81 105.187 1244.06 106.48 1244.06 108C1244.06 109.52 1243.81 110.813 1243.32 111.88C1242.82 112.947 1242.14 113.76 1241.28 114.32C1240.41 114.88 1239.44 115.16 1238.36 115.16ZM1238.36 113.38C1239.09 113.38 1239.73 113.18 1240.28 112.78C1240.84 112.38 1241.27 111.78 1241.58 110.98C1241.9 110.18 1242.06 109.187 1242.06 108C1242.06 106.813 1241.9 105.82 1241.58 105.02C1241.27 104.22 1240.84 103.62 1240.28 103.22C1239.73 102.82 1239.09 102.62 1238.36 102.62C1237.62 102.62 1236.98 102.82 1236.42 103.22C1235.86 103.62 1235.42 104.22 1235.1 105.02C1234.79 105.82 1234.64 106.813 1234.64 108C1234.64 109.187 1234.79 110.18 1235.1 110.98C1235.42 111.78 1235.86 112.38 1236.42 112.78C1236.98 113.18 1237.62 113.38 1238.36 113.38ZM1247.8 107.04C1247.42 107.04 1247.1 106.913 1246.84 106.66C1246.57 106.393 1246.44 106.06 1246.44 105.66C1246.44 105.26 1246.57 104.933 1246.84 104.68C1247.1 104.427 1247.42 104.3 1247.8 104.3C1248.16 104.3 1248.46 104.427 1248.72 104.68C1248.98 104.933 1249.12 105.26 1249.12 105.66C1249.12 106.06 1248.98 106.393 1248.72 106.66C1248.46 106.913 1248.16 107.04 1247.8 107.04ZM1247.8 115.12C1247.42 115.12 1247.1 114.993 1246.84 114.74C1246.57 114.473 1246.44 114.14 1246.44 113.74C1246.44 113.34 1246.57 113.013 1246.84 112.76C1247.1 112.507 1247.42 112.38 1247.8 112.38C1248.16 112.38 1248.46 112.507 1248.72 112.76C1248.98 113.013 1249.12 113.34 1249.12 113.74C1249.12 114.14 1248.98 114.473 1248.72 114.74C1248.46 114.993 1248.16 115.12 1247.8 115.12ZM1255.79 115.16C1254.8 115.16 1253.84 115.007 1252.91 114.7C1251.99 114.393 1251.23 113.98 1250.65 113.46L1251.57 111.88C1252.03 112.32 1252.64 112.68 1253.39 112.96C1254.13 113.24 1254.93 113.38 1255.79 113.38C1256.83 113.38 1257.63 113.16 1258.21 112.72C1258.79 112.267 1259.09 111.66 1259.09 110.9C1259.09 110.167 1258.81 109.58 1258.25 109.14C1257.7 108.687 1256.83 108.46 1255.63 108.46H1254.51V107.06L1258.67 101.94L1258.95 102.74H1251.29V101H1260.53V102.36L1256.39 107.46L1255.35 106.84H1256.01C1257.7 106.84 1258.97 107.22 1259.81 107.98C1260.66 108.74 1261.09 109.707 1261.09 110.88C1261.09 111.667 1260.89 112.387 1260.51 113.04C1260.12 113.693 1259.53 114.213 1258.75 114.6C1257.97 114.973 1256.99 115.16 1255.79 115.16ZM1263.13 115V113.64L1268.83 108.14C1269.34 107.66 1269.71 107.24 1269.95 106.88C1270.21 106.507 1270.37 106.167 1270.45 105.86C1270.55 105.54 1270.59 105.233 1270.59 104.94C1270.59 104.22 1270.34 103.653 1269.83 103.24C1269.33 102.827 1268.59 102.62 1267.61 102.62C1266.87 102.62 1266.19 102.747 1265.59 103C1264.99 103.24 1264.47 103.62 1264.03 104.14L1262.67 102.96C1263.21 102.28 1263.92 101.76 1264.81 101.4C1265.72 101.027 1266.71 100.84 1267.79 100.84C1268.77 100.84 1269.61 101 1270.33 101.32C1271.05 101.627 1271.61 102.073 1271.99 102.66C1272.39 103.247 1272.59 103.94 1272.59 104.74C1272.59 105.193 1272.53 105.64 1272.41 106.08C1272.29 106.52 1272.07 106.987 1271.73 107.48C1271.4 107.973 1270.92 108.527 1270.29 109.14L1265.21 114.04L1264.73 113.26H1273.19V115H1263.13Z" fill="#49454F" />
	<path d="M1298 98C1292.48 98 1288 102.48 1288 108C1288 113.52 1292.48 118 1298 118C1303.52 118 1308 113.52 1308 108C1308 102.48 1303.52 98 1298 98ZM1298 116C1293.59 116 1290 112.41 1290 108C1290 103.59 1293.59 100 1298 100C1302.41 100 1306 103.59 1306 108C1306 112.41 1302.41 116 1298 116ZM1295.5 112.5L1302.5 108L1295.5 103.5V112.5Z" fill="#484649" />
	<defs>
		<filter id="filter0_d_1242_62017" x="65" y="573" width="94" height="94" filterUnits="userSpaceOnUse" color-interpolation-filters="sRGB">
			<feFlood flood-opacity="0" result="BackgroundImageFix" />
			<feColorMatrix in="SourceAlpha" type="matrix" values="0 0 0 0 0 0 0 0 0 0 0 0 0 0 0 0 0 0 127 0" result="hardAlpha" />
			<feOffset dy="4" />
			<feGaussianBlur stdDeviation="7.5" />
			<feComposite in2="hardAlpha" operator="out" />
			<feColorMatrix type="matrix" values="0 0 0 0 0.566667 0 0 0 0 0.662 0 0 0 0 1 0 0 0 0.25 0" />
			<feBlend mode="normal" in2="BackgroundImageFix" result="effect1_dropShadow_1242_62017" />
			<feBlend mode="normal" in="SourceGraphic" in2="effect1_dropShadow_1242_62017" result="shape" />
		</filter>
	</defs>
</svg>
