<svg width="1408" height="900" viewBox="0 0 1408 900" fill="none" xmlns="http://www.w3.org/2000/svg">
	<path d="M1297.98 800H102.013C78.8072 800 60 779.074 60 753.254V126.746C60 100.926 78.8072 80 102.013 80H1297.99C1321.19 80 1340 100.926 1340 126.746V753.266C1339.99 779.074 1321.18 800 1297.98 800Z" fill="white" />
	<path d="M1339.57 115.258V115.205L1339.57 115.152C1339.04 102.713 1337.73 93.43 1333.36 86.8781C1328.85 80.1085 1321.45 76.7362 1310.2 75.0607C1298.99 73.3912 1283.37 73.3265 1261.77 73.6599C1256.43 73.7422 1250.73 73.8492 1244.62 73.9637C1225.89 74.3147 1203.39 74.7364 1176.3 74.7364C1131.9 74.7364 1020.02 74.9714 884.094 75.2569C579.486 75.8968 154.113 76.7903 96.7929 75.8612C86.795 75.6992 78.5449 78.5405 71.9077 84.2319C65.3253 89.8763 60.5224 98.1574 57.0406 108.555C50.0985 129.287 48.15 159.254 48.5493 196.126C48.8829 226.934 50.8648 262.814 53.0581 302.52C53.4944 310.419 53.939 318.469 54.3807 326.661C57.0446 376.064 59.6062 430.687 59.6062 488.548C59.6062 501.679 58.451 521.757 57.0789 545.604C56.8277 549.971 56.5691 554.465 56.3091 559.065C54.6323 588.73 52.9002 622.737 52.6909 655.6C52.4818 688.439 53.7914 720.256 58.2346 745.511C60.4557 758.137 63.4781 769.233 67.5485 778.036C71.586 786.768 76.7744 793.499 83.4926 797.058C84.3838 797.616 85.6234 797.986 86.8505 798.275C88.2488 798.604 90.018 798.91 92.1065 799.197C96.29 799.774 101.93 800.302 108.806 800.789C122.568 801.763 141.436 802.581 163.834 803.268C208.639 804.642 267.676 805.497 328.475 806.027C434.909 806.953 546.797 806.882 597.296 806.849C604.492 806.845 610.442 806.841 614.952 806.841C629.549 806.841 657.424 807.038 693.957 807.297C770.204 807.836 884.164 808.642 993.824 808.479C1074.97 808.358 1153.87 807.708 1213.6 806.026C1243.46 805.186 1268.56 804.087 1286.76 802.665C1295.85 801.954 1303.28 801.159 1308.73 800.265C1311.46 799.819 1313.75 799.34 1315.54 798.816C1317.19 798.331 1318.84 797.693 1319.88 796.701C1338.54 778.799 1343.22 757.736 1343.49 706.819C1343.6 686.44 1342.99 661.13 1342.23 629.162C1342.03 621.128 1341.83 612.674 1341.63 603.773C1340.61 559.424 1339.57 503.889 1339.57 433.678V115.258Z" stroke="#221856" stroke-width="5" />
	<g style="mix-blend-mode:multiply" opacity="0.55">
		<path d="M119.299 215.668L118.188 239.642L118.76 239.67C119.372 239.699 119.988 239.62 120.529 239.333C122.325 238.378 126.393 235.416 126.734 228.041C126.835 225.854 127.902 223.024 128.978 220.685C129.924 218.627 128.546 216.114 126.282 216.005L119.299 215.668ZM108.878 237.641L101.577 247.15L108.878 237.641ZM119.085 234.585L107.175 233.107L119.085 234.585ZM117.15 226.491L124.532 217.044L117.15 226.491ZM112.922 224.071L111.526 235.988L112.922 224.071ZM111.102 224.332L121.502 218.367L111.102 224.332ZM112.501 229.692L124.5 229.801L112.501 229.692ZM115.439 236.091L114.274 248.033L115.439 236.091ZM116.702 232.685L104.708 232.983L116.702 232.685ZM110.975 227.075L114.123 215.5L110.975 227.075ZM117.612 225.349L94.4793 231.689L94.6314 232.241C94.7945 232.832 95.0624 233.393 95.5042 233.819C96.9722 235.232 101.058 238.186 108.174 236.235C110.284 235.657 113.307 235.799 115.866 236.099C118.117 236.364 120.075 234.279 119.472 232.092L117.612 225.349ZM119.299 215.668C118.708 215.639 118.105 215.569 116.74 215.432C115.59 215.317 113.942 215.162 112.183 215.164C108.819 215.167 102.98 215.717 98.0872 220.261L114.436 237.864C112.764 239.417 111.175 239.167 112.251 239.166C112.713 239.165 113.333 239.208 114.393 239.314C115.238 239.399 116.788 239.575 118.188 239.642L119.299 215.668ZM98.0872 220.261C95.638 222.536 93.6186 225.693 93.0401 229.642C92.4821 233.452 93.4557 236.701 94.5578 238.967C96.5564 243.075 99.8943 245.857 101.577 247.15L116.179 228.132C115.862 227.888 115.671 227.708 115.596 227.629C115.482 227.509 115.787 227.788 116.133 228.5C116.501 229.257 117.112 230.934 116.785 233.167C116.437 235.54 115.243 237.115 114.436 237.864L98.0872 220.261ZM101.577 247.15C105.33 250.036 111.191 252.655 117.678 251.321C121.162 250.605 124.506 248.76 127.026 245.697C129.467 242.73 130.604 239.277 130.996 236.063L107.175 233.107C107.198 232.923 107.385 231.76 108.483 230.425C109.659 228.995 111.266 228.126 112.802 227.81C114.191 227.524 115.184 227.745 115.591 227.87C115.82 227.94 115.97 228.011 116.051 228.054C116.133 228.097 116.172 228.127 116.179 228.132L101.577 247.15ZM130.996 236.063C131.223 234.204 133.133 223.774 124.532 217.044L109.768 235.937C109.092 235.409 108.463 234.682 107.999 233.814C107.558 232.988 107.402 232.291 107.347 231.928C107.297 231.597 107.323 231.487 107.311 231.745C107.298 232.013 107.262 232.396 107.175 233.107L130.996 236.063ZM124.532 217.044C124.452 216.982 123.003 215.785 121.745 214.959C120.309 214.016 117.746 212.562 114.318 212.154L111.526 235.988C110.595 235.877 109.871 235.632 109.399 235.431C108.942 235.236 108.666 235.058 108.606 235.018C108.55 234.982 108.588 235.003 108.805 235.172C108.911 235.256 109.024 235.346 109.191 235.48C109.341 235.599 109.551 235.768 109.768 235.937L124.532 217.044ZM114.318 212.154C114.066 212.124 112.914 211.993 111.639 212.012C111.314 212.017 109.451 212.016 107.39 212.711C106.597 212.979 103.308 214.115 101.025 217.632C97.8673 222.498 99.1239 227.551 100.702 230.297L121.502 218.367C122.16 219.512 122.955 221.35 123.062 223.738C123.175 226.296 122.46 228.729 121.161 230.729C118.931 234.165 115.749 235.237 115.1 235.456C114.022 235.82 113.163 235.925 112.857 235.959C112.465 236.002 112.177 236.01 112.05 236.012C111.713 236.017 111.61 235.998 111.526 235.988L114.318 212.154ZM100.702 230.297C100.754 230.388 100.746 230.384 100.711 230.302C100.673 230.213 100.623 230.078 100.58 229.912C100.536 229.746 100.515 229.61 100.506 229.527C100.497 229.451 100.503 229.459 100.502 229.583L124.5 229.801C124.53 225.603 123.583 221.988 121.502 218.367L100.702 230.297ZM100.502 229.583C100.495 230.595 100.451 233.733 101.378 236.912C102.309 240.098 105.588 247.168 114.274 248.033L116.605 224.149C118.985 224.386 121.142 225.551 122.635 227.188C123.895 228.57 124.308 229.864 124.414 230.227C124.581 230.8 124.492 230.881 124.5 229.801L100.502 229.583ZM114.274 248.033C120.207 248.624 124.21 245.181 126.024 242.561C127.544 240.368 128.073 238.178 128.274 237.23C128.729 235.095 128.716 233.119 128.697 232.387L104.708 232.983C104.704 232.862 104.707 232.826 104.708 232.807C104.709 232.789 104.713 232.737 104.723 232.653C104.732 232.575 104.754 232.415 104.802 232.19C104.839 232.017 105.125 230.548 106.289 228.867C106.939 227.929 108.106 226.572 109.999 225.519C112.034 224.387 114.349 223.925 116.605 224.149L114.274 248.033ZM128.697 232.387C128.533 226.277 125.025 222.126 122.534 219.98C119.952 217.755 116.908 216.263 114.123 215.5L107.827 238.649C107.449 238.546 107.231 238.444 106.891 238.151C106.644 237.938 104.796 236.262 104.708 232.983L128.697 232.387ZM114.123 215.5C113.176 215.241 110.044 214.399 106.73 214.633C105.28 214.736 101.135 215.185 97.7242 218.633C93.3996 223.006 93.5947 228.482 94.4793 231.689L117.612 225.349C118.122 227.197 118.535 231.754 114.802 235.53C111.982 238.381 108.801 238.552 108.467 238.576C107.385 238.652 107.091 238.448 107.827 238.649L114.123 215.5Z" fill="#FF99F8" />
	</g>
	<g style="mix-blend-mode:multiply" opacity="0.55">
		<path d="M120.336 272.224L118.982 296.186L119.553 296.208C120.166 296.233 120.784 296.148 121.328 295.856C123.135 294.887 127.236 291.892 127.653 284.521C127.776 282.336 128.873 279.499 129.973 277.152C130.941 275.088 129.587 272.59 127.322 272.5L120.336 272.224ZM109.919 285.018L114.879 295.853L109.919 285.018ZM107.715 299.054L96.3022 302.977L107.715 299.054ZM112.286 302.157L109.526 290.536L112.286 302.157ZM117.389 295.841L129.003 298.699L117.389 295.841ZM111.914 299.162L116.57 275.562L116.008 275.46C115.407 275.352 114.785 275.351 114.206 275.565C112.286 276.278 107.82 278.685 106.387 285.945C105.963 288.097 104.486 290.762 103.074 292.94C101.832 294.855 102.824 297.522 105.05 297.924L111.914 299.162ZM120.336 272.224C119.578 272.194 116.67 271.98 114.579 272.03C111.974 272.092 108.565 272.491 104.96 274.183L114.879 295.853C114.364 296.095 114.115 296.019 114.752 296.004C115.1 295.995 115.56 296.006 116.301 296.045C116.87 296.074 118.05 296.149 118.982 296.186L120.336 272.224ZM104.96 274.183C96.0583 278.362 94.7039 287.293 94.5636 291.323C94.4028 295.941 95.4303 300.334 96.3022 302.977L119.129 295.131C119.012 294.779 118.844 294.161 118.719 293.438C118.592 292.7 118.556 292.114 118.569 291.753C118.584 291.317 118.649 291.699 118.275 292.513C118.065 292.969 117.699 293.596 117.092 294.243C116.466 294.909 115.707 295.464 114.879 295.853L104.96 274.183ZM96.3022 302.977C96.9949 305.077 98.441 308.209 101.412 310.72C104.894 313.664 109.79 315.106 115.046 313.779L109.526 290.536C110.627 290.258 112.047 290.166 113.588 290.539C115.105 290.906 116.285 291.611 117.113 292.311C118.584 293.555 119.023 294.812 119.129 295.131L96.3022 302.977ZM115.046 313.779C119.934 312.544 123.548 309.675 125.884 306.137C127.864 303.138 128.664 299.988 129.003 298.699L105.776 292.982C105.623 293.564 105.554 293.775 105.524 293.856C105.502 293.918 105.6 293.625 105.896 293.177C106.218 292.689 106.74 292.069 107.502 291.515C108.271 290.957 109.007 290.667 109.526 290.536L115.046 313.779ZM129.003 298.699C129.147 298.15 129.571 296.641 129.842 295.257C130.119 293.838 130.484 291.443 130.089 288.723C129.651 285.697 128.274 282.34 125.298 279.65C122.527 277.145 119.282 276.051 116.57 275.562L111.914 299.162C111.881 299.156 111.549 299.095 111.037 298.873C110.509 298.645 109.775 298.238 109.014 297.549C107.284 295.986 106.53 294.02 106.316 292.546C106.147 291.378 106.338 290.697 106.27 291.048C106.194 291.434 106.099 291.753 105.776 292.982L129.003 298.699Z" fill="#FFEE00" />
	</g>
	<g style="mix-blend-mode:multiply" opacity="0.55">
		<path d="M122.998 347.121L103.604 361.592L103.942 362.048C104.304 362.536 104.753 362.958 105.317 363.189C107.191 363.957 112.059 365.182 118.025 360.73C119.794 359.41 122.671 358.42 125.172 357.749C127.372 357.159 128.464 354.497 127.126 352.691L122.998 347.121ZM105.852 351.083L117.611 353.322L105.852 351.083ZM106.941 356.765L118.905 355.52L106.941 356.765ZM108.486 365.873L117.804 358.153L108.486 365.873ZM112.83 368.63L106.503 378.926L106.503 378.926L112.83 368.63ZM116.469 366.432L105.336 362.124L116.469 366.432ZM116.786 356.873L107.402 364.513L107.402 364.513L116.786 356.873ZM103.628 357.409L126.995 351.463L126.862 350.909C126.72 350.316 126.472 349.751 126.045 349.318C124.627 347.882 120.645 344.863 113.457 346.692C111.326 347.234 108.307 347.042 105.758 346.699C103.515 346.397 101.483 348.447 102.008 350.642L103.628 357.409ZM122.998 347.121C122.142 345.965 120.391 343.596 117.633 341.756C114.499 339.664 111.135 338.891 107.914 338.764L106.559 362.726C106.617 362.728 106.309 362.722 105.788 362.572C105.22 362.408 104.615 362.136 104.053 361.761C103.526 361.409 103.231 361.095 103.176 361.036C103.154 361.012 103.253 361.119 103.604 361.592L122.998 347.121ZM107.914 338.764C108.19 338.775 108.689 338.821 108.103 338.769C107.886 338.749 106.958 338.659 105.838 338.73C104.819 338.795 102.382 339.049 99.816 340.647C96.7264 342.57 94.7638 345.606 94.0928 348.845L117.611 353.322C116.998 356.28 115.174 359.131 112.276 360.936C109.902 362.414 107.709 362.615 106.958 362.662C106.481 362.693 106.109 362.684 105.904 362.675C105.697 362.666 105.553 362.653 105.543 362.652C105.247 362.625 106.031 362.705 106.559 362.726L107.914 338.764ZM94.0928 348.845C93.6267 351.095 93.7515 353.061 93.9642 354.469C94.1715 355.84 94.5159 356.999 94.719 357.653C94.8212 357.982 94.9351 358.329 94.9931 358.508C95.0662 358.734 95.0988 358.839 95.1183 358.906C95.1706 359.085 95.037 358.693 94.977 358.009L118.905 355.52C118.766 353.926 118.409 352.596 118.183 351.824C118.063 351.416 117.943 351.042 117.86 350.787C117.763 350.486 117.718 350.351 117.671 350.198C117.574 349.887 117.653 350.081 117.716 350.501C117.785 350.957 117.888 351.984 117.611 353.322L94.0928 348.845ZM94.977 358.009C94.9759 357.996 94.9825 358.069 94.986 358.277C94.9896 358.493 94.9888 358.748 94.9855 359.143C94.9799 359.809 94.9601 361.061 95.0351 362.344C95.1843 364.897 95.7697 369.478 99.1676 373.593L117.804 358.153C119.113 359.738 119.052 361.198 119.014 360.546C118.995 360.227 118.996 359.855 119.004 358.939C119.01 358.217 119.026 356.892 118.905 355.52L94.977 358.009ZM99.1676 373.593C101.155 376 103.56 377.353 104.571 377.909C105.147 378.227 105.771 378.543 106.048 378.685C106.43 378.883 106.513 378.932 106.503 378.926L119.157 358.333C118.446 357.905 117.759 357.55 117.352 357.339C117.087 357.203 116.973 357.145 116.782 357.046C116.624 356.964 116.519 356.908 116.44 356.865C116.263 356.767 116.342 356.8 116.54 356.943C116.734 357.084 117.241 357.471 117.804 358.153L99.1676 373.593ZM106.503 378.926C108.529 380.145 111.399 381.224 114.857 380.96C118.371 380.692 121.093 379.145 122.909 377.581C125.951 374.963 127.263 371.585 127.603 370.741L105.336 362.124C105.291 362.236 105.36 362.04 105.56 361.697C105.731 361.404 106.287 360.491 107.401 359.532C108.632 358.473 110.684 357.259 113.428 357.049C116.116 356.844 118.117 357.707 119.157 358.333L106.503 378.926ZM127.603 370.741C128.301 369.005 129.339 366.096 129.722 362.802C130.078 359.751 130.126 354.112 126.169 349.233L107.402 364.513C106.443 363.331 106.071 362.151 105.938 361.425C105.872 361.07 105.859 360.804 105.857 360.653C105.856 360.574 105.858 360.517 105.86 360.481C105.861 360.463 105.862 360.45 105.863 360.441C105.864 360.437 105.864 360.434 105.864 360.432C105.864 360.431 105.864 360.43 105.864 360.429C105.864 360.429 105.864 360.429 105.864 360.429C105.864 360.43 105.865 360.427 105.864 360.429C105.864 360.43 105.865 360.427 105.864 360.429C105.864 360.43 105.865 360.427 105.864 360.429C105.864 360.43 105.865 360.427 105.864 360.429C105.864 360.429 105.864 360.429 105.864 360.429C105.864 360.43 105.864 360.431 105.864 360.432C105.864 360.434 105.863 360.437 105.863 360.44C105.862 360.448 105.86 360.46 105.857 360.474C105.852 360.504 105.845 360.546 105.833 360.599C105.81 360.708 105.775 360.847 105.726 361.015C105.626 361.36 105.491 361.739 105.336 362.124L127.603 370.741ZM126.169 349.233C125.932 348.941 125.887 348.887 125.81 348.79C125.762 348.729 125.83 348.81 125.94 348.977C126.187 349.35 126.695 350.21 126.995 351.463L103.628 357.409C104.607 361.497 107.293 364.379 107.402 364.513L126.169 349.233Z" fill="#86FA16" />
	</g>
	<g style="mix-blend-mode:multiply" opacity="0.55">
		<path d="M133.051 424.662L109.088 423.327L109.065 423.898C109.041 424.511 109.125 425.129 109.416 425.672C110.385 427.479 113.377 431.577 120.749 431.988C122.934 432.11 125.771 433.204 128.117 434.302C130.181 435.269 132.68 433.913 132.771 431.648L133.051 424.662ZM118.359 416.909L116.246 428.696L118.359 416.909ZM108.962 416.345L108.295 404.345L108.962 416.345ZM103.533 424.494L92.0674 427.834L103.533 424.494ZM112.119 416.192L108.757 427.666L112.119 416.192ZM111.093 418.782L122.854 421.304L111.093 418.782ZM121.499 427.139L98.0356 421.806L97.9173 422.364C97.7906 422.962 97.7706 423.584 97.9676 424.168C98.6225 426.106 100.895 430.638 108.113 432.279C110.253 432.765 112.873 434.317 115.009 435.79C116.887 437.087 119.584 436.173 120.053 433.96L121.499 427.139ZM133.051 424.662C133.066 424.298 133.417 420.427 132.714 417.171C132.277 415.146 131.291 412.325 128.935 409.773C126.468 407.101 123.396 405.692 120.473 405.123L116.246 428.696C114.969 428.447 113.074 427.698 111.443 425.932C109.924 424.286 109.432 422.617 109.277 421.897C109.135 421.24 109.176 420.92 109.171 421.347C109.165 421.899 109.137 422.113 109.088 423.327L133.051 424.662ZM120.473 405.123C116.246 404.299 111.826 404.203 108.295 404.345L109.629 428.344C112.142 428.243 114.53 428.362 116.246 428.696L120.473 405.123ZM108.295 404.345C97.3079 404.788 88.3562 415.646 92.0674 427.834L114.998 421.155C115.48 422.74 115.161 424.602 114.138 426.01C113.254 427.226 111.713 428.26 109.629 428.344L108.295 404.345ZM92.0674 427.834C92.9682 430.792 94.5504 434.146 97.0004 437.044C99.3931 439.874 103.692 443.455 109.879 443.799L110.842 419.819C113.734 419.98 115.14 421.615 115.203 421.69C115.323 421.833 115.14 421.621 114.998 421.155L92.0674 427.834ZM109.879 443.799C117.372 444.217 121.895 439.31 123.835 436.207C125.855 432.975 126.793 429.327 127.141 426.256C127.492 423.158 127.38 419.438 126.228 415.845C125.147 412.477 122.251 406.804 115.482 404.719L108.757 427.666C104.613 426.39 103.482 423.11 103.405 422.869C103.256 422.403 103.384 422.542 103.311 423.183C103.236 423.852 103.086 423.823 103.451 423.239C103.658 422.908 104.25 422.057 105.452 421.257C106.782 420.372 108.665 419.697 110.842 419.819L109.879 443.799ZM115.482 404.719C113.948 404.246 111.683 403.856 109.069 404.413C106.297 405.005 104.072 406.465 102.503 408.215C99.8959 411.124 99.4588 414.427 99.3629 415.081C99.206 416.151 99.1834 417.205 99.1796 417.307C99.1575 417.904 99.1527 417.158 99.3315 416.259L122.854 421.304C123.124 419.947 123.144 418.601 123.145 418.57C123.165 418.042 123.164 418.438 123.092 418.929C123.048 419.228 122.937 419.89 122.646 420.723C122.367 421.525 121.758 422.963 120.46 424.411C119.03 426.007 116.974 427.361 114.412 427.908C112.008 428.42 109.993 428.047 108.757 427.666L115.482 404.719ZM99.3315 416.259C99.1995 416.922 99.0297 417.629 98.7946 418.581C98.5785 419.457 98.2875 420.617 98.0356 421.806L121.499 427.139C121.651 426.422 121.831 425.697 122.081 424.683C122.313 423.746 122.604 422.56 122.854 421.304L99.3315 416.259Z" fill="#6FFFF6" />
	</g>
	<g style="mix-blend-mode:multiply" opacity="0.55">
		<path d="M130.763 486.554L106.782 485.593L106.75 486.164C106.716 486.776 106.791 487.392 107.074 487.93C108.016 489.719 110.95 493.765 118.327 494.061C120.514 494.149 123.338 495.198 125.671 496.258C127.723 497.191 130.247 495.798 130.373 493.534L130.763 486.554ZM117.7 480.251L125.292 470.843L117.7 480.251ZM110.683 478.479L112.525 466.603L110.683 478.479ZM108.437 479.628L96.5072 478.443L108.437 479.628ZM105.786 489.574L93.9277 487.865L105.786 489.574ZM107.304 496.528L100.938 506.793L100.938 506.793L107.304 496.528ZM114.539 495.526L103.545 490.874L114.539 495.526ZM117.537 483.17L105.813 480.755L117.537 483.17ZM111.627 490.786L117.546 467.455L116.991 467.322C116.396 467.181 115.776 467.145 115.188 467.328C113.234 467.934 108.648 470.094 106.827 477.271C106.287 479.4 104.67 481.981 103.144 484.08C101.802 485.927 102.647 488.647 104.846 489.171L111.627 490.786ZM130.763 486.554C130.763 486.556 130.764 486.534 130.769 486.476C130.773 486.417 130.779 486.342 130.789 486.233C130.805 486.055 130.839 485.687 130.866 485.34C130.92 484.637 130.996 483.458 130.916 482.115C130.759 479.466 129.875 474.504 125.292 470.843L110.108 489.658C108.802 488.615 107.953 487.324 107.471 486.132C107.032 485.045 106.957 484.195 106.94 483.904C106.923 483.618 106.946 483.52 106.92 483.86C106.906 484.035 106.892 484.178 106.864 484.494C106.842 484.753 106.806 485.158 106.782 485.593L130.763 486.554ZM125.292 470.843C122.078 468.275 118.434 467.494 116.736 467.179C115.709 466.989 114.748 466.867 114.053 466.785C113.205 466.685 112.907 466.656 112.525 466.603L108.841 490.356C109.245 490.412 109.636 490.459 109.958 490.497C110.12 490.516 110.287 490.535 110.432 490.551C110.583 490.569 110.72 490.585 110.855 490.6C111.413 490.667 111.753 490.715 111.998 490.761C112.251 490.808 112.188 490.813 111.939 490.723C111.704 490.638 110.975 490.351 110.108 489.658L125.292 470.843ZM112.525 466.603C112.315 466.574 111.424 466.44 110.566 466.388C109.838 466.344 107.408 466.206 104.661 467.312C101.159 468.723 98.9152 471.362 97.7307 473.932C96.8081 475.934 96.5849 477.767 96.5072 478.443L120.368 480.813C120.358 480.898 120.322 481.197 120.226 481.62C120.133 482.031 119.936 482.778 119.522 483.676C118.516 485.858 116.514 488.258 113.345 489.534C110.932 490.506 108.93 490.338 108.752 490.327C108.443 490.308 108.224 490.27 108.841 490.356L112.525 466.603ZM96.5072 478.443C96.4736 478.735 96.3542 479.259 95.7796 480.981C95.3307 482.327 94.3871 484.991 93.9277 487.865L117.644 491.283C117.725 490.774 117.912 490.168 118.555 488.238C119.073 486.686 120.009 483.928 120.368 480.813L96.5072 478.443ZM93.9277 487.865C93.7775 488.805 93.2971 491.608 93.5949 494.638C93.8988 497.731 95.2758 503.348 100.938 506.793L113.67 486.262C115.191 487.188 116.218 488.472 116.814 489.674C117.353 490.762 117.469 491.626 117.498 491.928C117.53 492.249 117.504 492.364 117.521 492.176C117.536 491.996 117.569 491.754 117.644 491.283L93.9277 487.865ZM100.938 506.793C103.949 508.626 107.914 509.863 112.131 509.541C116.699 509.193 122.676 506.715 125.533 500.177L103.545 490.874C104.258 489.242 105.494 487.815 107.048 486.853C108.494 485.958 109.831 485.694 110.673 485.629C112.176 485.515 113.107 485.92 113.67 486.262L100.938 506.793ZM125.533 500.177C126.884 497.087 127.613 494.015 128.099 491.628C128.752 488.419 128.77 487.801 129.26 485.585L105.813 480.755C105.416 482.548 104.771 486.194 104.565 487.205C104.192 489.036 103.867 490.137 103.545 490.874L125.533 500.177ZM129.26 485.585C129.658 483.789 130.806 478.156 126.94 473.072C123.66 468.759 118.71 467.732 117.546 467.455L111.627 490.786C112.057 490.889 111.763 490.853 111.184 490.588C110.555 490.301 109.054 489.506 107.729 487.763C104.779 483.884 105.993 479.94 105.813 480.755L129.26 485.585Z" fill="#B38FFF" />
	</g>
	<g style="mix-blend-mode:multiply" opacity="0.55">
		<path d="M121.326 536.918L108.694 557.408L109.181 557.706C109.702 558.025 110.28 558.25 110.893 558.257C112.929 558.279 117.929 557.627 121.815 551.324C122.967 549.455 125.278 547.484 127.357 545.947C129.186 544.595 129.201 541.733 127.273 540.554L121.326 536.918ZM109.521 545.62L110.657 557.554L110.657 557.554L109.521 545.62ZM105.993 546.863L95.5127 541.088L105.993 546.863ZM106.295 555.11L118.023 552.471L106.295 555.11ZM110.966 560.963L113.501 549.221L110.966 560.963ZM116.357 557.141L104.967 553.434L116.357 557.141ZM117.555 544.958L109.915 554.264L117.555 544.958ZM109.471 545.388L121.417 546.481L109.471 545.388ZM122.539 555.076L98.5624 554.023L98.5333 554.595C98.5021 555.207 98.5799 555.823 98.8657 556.363C99.8157 558.156 102.768 562.216 110.144 562.54C112.331 562.636 115.158 563.696 117.496 564.765C119.552 565.706 122.068 564.322 122.184 562.058L122.539 555.076ZM121.326 536.918C118.692 535.308 114.29 533.084 108.385 533.686L110.657 557.554C110.339 557.587 109.988 557.588 109.624 557.548C109.264 557.508 108.961 557.436 108.736 557.365C108.33 557.237 108.245 557.134 108.694 557.408L121.326 536.918ZM108.385 533.686C107.734 533.753 106.192 533.925 104.522 534.378C103.695 534.602 102.406 535.006 101.023 535.744C99.8093 536.391 97.257 537.954 95.5127 541.088L116.474 552.638C114.97 555.341 112.862 556.546 112.209 556.894C111.387 557.332 110.774 557.498 110.653 557.531C110.394 557.601 110.376 557.583 110.657 557.554L108.385 533.686ZM95.5127 541.088C92.962 545.671 93.4061 550.54 93.5954 552.322C93.8451 554.672 94.4038 557.002 94.567 557.748L118.023 552.471C117.989 552.316 117.954 552.156 117.922 552.013C117.889 551.864 117.858 551.726 117.827 551.585C117.766 551.305 117.711 551.047 117.661 550.798C117.559 550.281 117.499 549.899 117.469 549.624C117.463 549.562 117.459 549.514 117.456 549.48C117.454 549.445 117.453 549.429 117.453 549.43C117.453 549.431 117.454 549.454 117.453 549.499C117.452 549.544 117.449 549.617 117.44 549.716C117.423 549.902 117.38 550.255 117.256 550.724C117.132 551.193 116.903 551.868 116.474 552.638L95.5127 541.088ZM94.567 557.748C95.2176 560.724 97.7204 570.468 108.432 572.706L113.501 549.221C114.287 549.385 115.167 549.737 116 550.325C116.811 550.897 117.347 551.529 117.67 552.008C118.207 552.805 118.192 553.243 118.023 552.471L94.567 557.748ZM108.432 572.706C113.374 573.739 118.349 572.584 122.207 569.326C125.491 566.553 127.014 563.059 127.748 560.848L104.967 553.434C104.972 553.419 105.051 553.176 105.276 552.796C105.499 552.417 105.962 551.741 106.786 551.045C107.659 550.308 108.823 549.65 110.216 549.312C111.592 548.979 112.75 549.064 113.501 549.221L108.432 572.706ZM127.748 560.848C127.869 560.484 128.023 560.145 128.626 558.631C129.091 557.466 129.766 555.718 130.262 553.794C131.012 550.882 132.803 541.873 125.196 535.653L109.915 554.264C109.082 553.583 108.366 552.707 107.848 551.703C107.346 550.729 107.135 549.84 107.052 549.198C106.906 548.069 107.131 547.512 107.015 547.961C106.92 548.329 106.724 548.901 106.331 549.889C106.238 550.122 106.143 550.356 106.038 550.616C105.937 550.865 105.822 551.149 105.71 551.429C105.497 551.964 105.217 552.682 104.967 553.434L127.748 560.848ZM125.196 535.653C122.223 533.222 117.974 531.641 114.162 531.283C112.195 531.098 108.679 531.067 105.104 532.943C100.692 535.259 97.994 539.53 97.5248 544.296L121.417 546.481C121.3 547.67 120.891 549.232 119.857 550.8C118.813 552.385 117.455 553.483 116.15 554.167C113.836 555.382 111.973 555.19 111.75 555.169C111.489 555.145 111.33 555.108 111.27 555.093C111.205 555.076 111.165 555.062 111.134 555.05C111.106 555.04 111.02 555.005 110.871 554.924C110.753 554.859 110.395 554.656 109.915 554.264L125.196 535.653ZM97.5248 544.296C97.1639 547.96 97.935 551.247 98.2182 552.566C98.6386 554.525 98.5438 554.388 98.5624 554.023L122.539 555.076C122.633 553.228 122.462 551.6 122.27 550.352C122.087 549.165 121.829 548.01 121.694 547.378C121.323 545.649 121.476 545.884 121.417 546.481L97.5248 544.296Z" fill="#FFAE4F" />
	</g>
	<g filter="url(#filter0_d_1242_62133)">
		<rect x="80" y="584" width="64" height="64" rx="10" fill="white" />
	</g>
	<g style="mix-blend-mode:multiply" opacity="0.55">
		<path d="M111.817 594.189L117.697 617.393L118.252 617.248C118.846 617.092 119.413 616.832 119.848 616.395C121.291 614.946 124.326 610.899 122.517 603.761C121.98 601.645 122.182 598.625 122.534 596.07C122.844 593.823 120.797 591.84 118.598 592.415L111.817 594.189ZM107.352 612.23L98.1515 604.61L98.1515 604.61L107.352 612.23ZM102.702 620.844L90.6975 620.789L102.702 620.844ZM108.337 626.27L104.824 637.772L108.337 626.27ZM121.645 621.082L133.412 623.353L121.645 621.082ZM117.376 611.829L126.435 603.874L117.376 611.829ZM110.729 609.186L98.7526 610.132L110.729 609.186ZM111.603 614.469L99.6012 614.849L111.603 614.469ZM116.665 621.957L111.624 632.889L116.665 621.957ZM118.161 621.718L129.565 625.36L118.161 621.718ZM114.4 618.383L118.151 606.955L114.4 618.383ZM109.09 617.913L99.3708 610.962L109.09 617.913ZM113.363 618.762L104.073 611.25L113.363 618.762ZM121.973 617.256L97.9954 616.228L97.9656 616.799C97.9337 617.411 98.0107 618.027 98.296 618.567C99.2439 620.359 102.191 624.415 109.568 624.731C111.755 624.825 114.581 625.882 116.918 626.949C118.973 627.888 121.491 626.502 121.609 624.238L121.973 617.256ZM111.817 594.189C107.179 595.402 103.959 598.17 102.089 600.05C100.377 601.773 98.5589 604.121 98.1515 604.61L116.553 619.851C116.86 619.482 117.161 619.109 117.406 618.805C117.669 618.479 117.883 618.214 118.099 617.952C118.533 617.426 118.825 617.1 119.046 616.877C119.267 616.655 119.286 616.672 119.113 616.787C118.923 616.914 118.443 617.198 117.697 617.393L111.817 594.189ZM98.1515 604.61C97.31 605.621 95.5596 607.665 94.1201 609.976C92.6993 612.257 90.7629 616.041 90.6975 620.789L114.706 620.898C114.694 621.734 114.517 622.309 114.433 622.537C114.354 622.752 114.324 622.755 114.473 622.515C114.619 622.282 114.852 621.948 115.223 621.474C115.609 620.981 116.004 620.509 116.553 619.851L98.1515 604.61ZM90.6975 620.789C90.6146 626.807 93.7267 631.112 96.7469 633.616C99.5325 635.925 102.646 637.126 104.824 637.772L111.85 614.769C111.253 614.592 111.528 614.556 112.18 615.097C112.57 615.42 113.229 616.066 113.791 617.124C114.389 618.251 114.724 619.565 114.706 620.898L90.6975 620.789ZM104.824 637.772C109.078 639.033 114.569 639.57 119.896 637.969C125.816 636.19 131.761 631.516 133.412 623.353L109.878 618.81C110.031 618.054 110.487 617.037 111.362 616.163C112.163 615.364 112.915 615.08 113.176 615.001C113.418 614.928 113.382 614.982 113.025 614.969C112.686 614.957 112.265 614.892 111.85 614.769L104.824 637.772ZM133.412 623.353C134.528 617.832 132.984 613.239 131.112 609.994C129.515 607.225 127.249 604.803 126.435 603.874L108.318 619.784C108.481 619.969 108.645 620.155 108.79 620.319C108.94 620.489 109.074 620.642 109.205 620.791C109.466 621.09 109.67 621.329 109.843 621.54C110.205 621.982 110.297 622.143 110.281 622.116C110.252 622.066 110.036 621.681 109.895 621.016C109.742 620.296 109.735 619.52 109.878 618.81L133.412 623.353ZM126.435 603.874C126.286 603.705 121.622 596.796 112.912 596.422L111.661 620.39C110.975 620.36 110.16 620.208 109.319 619.866C108.497 619.531 107.91 619.12 107.571 618.843C107.273 618.599 107.161 618.451 107.331 618.642C107.412 618.733 107.512 618.847 107.686 619.052C107.838 619.229 108.074 619.506 108.318 619.784L126.435 603.874ZM112.912 596.422C111.906 596.379 109.837 596.387 107.524 597.171C106.349 597.569 104.15 598.486 102.169 600.589C99.84 603.061 98.4967 606.476 98.7526 610.132L122.705 608.239C122.936 611.548 121.708 614.689 119.581 616.946C117.802 618.834 115.894 619.595 115.047 619.882C113.389 620.444 112.123 620.409 111.661 620.39L112.912 596.422ZM98.7526 610.132C98.8291 611.224 98.9874 612.173 99.1264 612.887C99.2562 613.553 99.4154 614.232 99.4877 614.551C99.6926 615.453 99.6107 615.271 99.6012 614.849L123.606 614.088C123.555 611.829 123.097 609.879 122.905 609.036C122.632 607.833 122.687 607.99 122.705 608.239L98.7526 610.132ZM99.6012 614.849C99.6692 617.864 100.24 621.731 102.629 625.445C105.029 629.176 108.41 631.433 111.624 632.889L121.705 611.024C121.138 610.767 122.028 611.046 122.862 612.343C123.687 613.625 123.617 614.603 123.606 614.088L99.6012 614.849ZM111.624 632.889C112.642 633.35 114.771 634.173 117.496 634.148C118.958 634.134 121.361 633.866 123.868 632.408C126.657 630.785 128.623 628.233 129.565 625.36L106.756 618.077C107.592 615.528 109.371 613.193 111.927 611.706C114.201 610.383 116.323 610.17 117.491 610.159C119.629 610.139 121.116 610.757 121.705 611.024L111.624 632.889ZM129.565 625.36C131.005 620.972 129.95 616.92 128.208 614.119C126.71 611.711 124.777 610.265 123.676 609.535C121.426 608.043 119.074 607.249 118.151 606.955L110.649 629.811C111.008 629.926 110.823 629.926 110.276 629.563C110.027 629.398 108.829 628.599 107.782 626.917C106.491 624.842 105.603 621.592 106.756 618.077L129.565 625.36ZM118.151 606.955C117.113 606.623 115.259 606.212 113.676 605.969C112.86 605.843 111.543 605.669 110.134 605.673C109.467 605.676 108.231 605.713 106.797 606.05C105.826 606.278 102.069 607.219 99.3708 610.962L118.809 624.865C117.442 626.761 115.825 627.837 114.722 628.414C113.619 628.992 112.66 629.266 112.088 629.401C110.987 629.659 110.173 629.662 109.988 629.663C109.543 629.664 109.426 629.621 109.811 629.68C110.093 629.723 110.432 629.789 110.735 629.856C111.204 629.959 111.094 629.953 110.649 629.811L118.151 606.955ZM99.3708 610.962C98.0606 612.779 94.3965 618.96 98.4265 625.672C101.768 631.237 107.536 631.848 109.047 631.952C111.422 632.115 113.712 631.721 115.65 631.057C117.422 630.45 120.335 629.125 122.654 626.273L104.073 611.25C105.716 609.23 107.51 608.557 108.046 608.373C108.748 608.132 109.685 607.934 110.914 608.019C111.54 608.062 112.671 608.208 114.017 608.781C115.365 609.356 117.504 610.623 119.047 613.192C122.671 619.229 119.134 624.413 118.809 624.865L99.3708 610.962ZM122.654 626.273C126.454 621.598 126.22 616.071 124.567 612.284C123.15 609.038 120.755 606.868 118.659 605.595C116.845 604.493 112.913 602.666 108.061 603.851C105.264 604.535 102.484 606.196 100.507 608.952C98.6482 611.543 98.0983 614.256 97.9954 616.228L121.973 617.256C121.91 618.475 121.547 620.623 119.978 622.81C118.291 625.161 115.905 626.578 113.562 627.151C109.616 628.115 106.829 626.599 106.047 626.124C104.984 625.478 103.507 624.251 102.544 622.044C101.345 619.298 101.1 614.908 104.073 611.25L122.654 626.273Z" fill="#979797" />
	</g>
	<path d="M1193.68 115.16C1192.59 115.16 1191.61 114.88 1190.74 114.32C1189.89 113.76 1189.21 112.947 1188.7 111.88C1188.21 110.813 1187.96 109.52 1187.96 108C1187.96 106.48 1188.21 105.187 1188.7 104.12C1189.21 103.053 1189.89 102.24 1190.74 101.68C1191.61 101.12 1192.59 100.84 1193.68 100.84C1194.76 100.84 1195.73 101.12 1196.6 101.68C1197.47 102.24 1198.15 103.053 1198.64 104.12C1199.13 105.187 1199.38 106.48 1199.38 108C1199.38 109.52 1199.13 110.813 1198.64 111.88C1198.15 112.947 1197.47 113.76 1196.6 114.32C1195.73 114.88 1194.76 115.16 1193.68 115.16ZM1193.68 113.38C1194.41 113.38 1195.05 113.18 1195.6 112.78C1196.16 112.38 1196.59 111.78 1196.9 110.98C1197.22 110.18 1197.38 109.187 1197.38 108C1197.38 106.813 1197.22 105.82 1196.9 105.02C1196.59 104.22 1196.16 103.62 1195.6 103.22C1195.05 102.82 1194.41 102.62 1193.68 102.62C1192.95 102.62 1192.3 102.82 1191.74 103.22C1191.18 103.62 1190.74 104.22 1190.42 105.02C1190.11 105.82 1189.96 106.813 1189.96 108C1189.96 109.187 1190.11 110.18 1190.42 110.98C1190.74 111.78 1191.18 112.38 1191.74 112.78C1192.3 113.18 1192.95 113.38 1193.68 113.38ZM1207.52 115.16C1206.43 115.16 1205.45 114.88 1204.58 114.32C1203.73 113.76 1203.05 112.947 1202.54 111.88C1202.05 110.813 1201.8 109.52 1201.8 108C1201.8 106.48 1202.05 105.187 1202.54 104.12C1203.05 103.053 1203.73 102.24 1204.58 101.68C1205.45 101.12 1206.43 100.84 1207.52 100.84C1208.6 100.84 1209.57 101.12 1210.44 101.68C1211.31 102.24 1211.99 103.053 1212.48 104.12C1212.97 105.187 1213.22 106.48 1213.22 108C1213.22 109.52 1212.97 110.813 1212.48 111.88C1211.99 112.947 1211.31 113.76 1210.44 114.32C1209.57 114.88 1208.6 115.16 1207.52 115.16ZM1207.52 113.38C1208.25 113.38 1208.89 113.18 1209.44 112.78C1210 112.38 1210.43 111.78 1210.74 110.98C1211.06 110.18 1211.22 109.187 1211.22 108C1211.22 106.813 1211.06 105.82 1210.74 105.02C1210.43 104.22 1210 103.62 1209.44 103.22C1208.89 102.82 1208.25 102.62 1207.52 102.62C1206.79 102.62 1206.14 102.82 1205.58 103.22C1205.02 103.62 1204.58 104.22 1204.26 105.02C1203.95 105.82 1203.8 106.813 1203.8 108C1203.8 109.187 1203.95 110.18 1204.26 110.98C1204.58 111.78 1205.02 112.38 1205.58 112.78C1206.14 113.18 1206.79 113.38 1207.52 113.38ZM1216.96 107.04C1216.59 107.04 1216.27 106.913 1216 106.66C1215.73 106.393 1215.6 106.06 1215.6 105.66C1215.6 105.26 1215.73 104.933 1216 104.68C1216.27 104.427 1216.59 104.3 1216.96 104.3C1217.32 104.3 1217.63 104.427 1217.88 104.68C1218.15 104.933 1218.28 105.26 1218.28 105.66C1218.28 106.06 1218.15 106.393 1217.88 106.66C1217.63 106.913 1217.32 107.04 1216.96 107.04ZM1216.96 115.12C1216.59 115.12 1216.27 114.993 1216 114.74C1215.73 114.473 1215.6 114.14 1215.6 113.74C1215.6 113.34 1215.73 113.013 1216 112.76C1216.27 112.507 1216.59 112.38 1216.96 112.38C1217.32 112.38 1217.63 112.507 1217.88 112.76C1218.15 113.013 1218.28 113.34 1218.28 113.74C1218.28 114.14 1218.15 114.473 1217.88 114.74C1217.63 114.993 1217.32 115.12 1216.96 115.12ZM1220.45 115V113.64L1226.15 108.14C1226.66 107.66 1227.03 107.24 1227.27 106.88C1227.52 106.507 1227.69 106.167 1227.77 105.86C1227.86 105.54 1227.91 105.233 1227.91 104.94C1227.91 104.22 1227.66 103.653 1227.15 103.24C1226.64 102.827 1225.9 102.62 1224.93 102.62C1224.18 102.62 1223.51 102.747 1222.91 103C1222.31 103.24 1221.79 103.62 1221.35 104.14L1219.99 102.96C1220.52 102.28 1221.24 101.76 1222.13 101.4C1223.04 101.027 1224.03 100.84 1225.11 100.84C1226.08 100.84 1226.93 101 1227.65 101.32C1228.37 101.627 1228.92 102.073 1229.31 102.66C1229.71 103.247 1229.91 103.94 1229.91 104.74C1229.91 105.193 1229.85 105.64 1229.73 106.08C1229.61 106.52 1229.38 106.987 1229.05 107.48C1228.72 107.973 1228.24 108.527 1227.61 109.14L1222.53 114.04L1222.05 113.26H1230.51V115H1220.45ZM1238.36 115.16C1237.26 115.16 1236.28 114.88 1235.42 114.32C1234.56 113.76 1233.88 112.947 1233.38 111.88C1232.88 110.813 1232.64 109.52 1232.64 108C1232.64 106.48 1232.88 105.187 1233.38 104.12C1233.88 103.053 1234.56 102.24 1235.42 101.68C1236.28 101.12 1237.26 100.84 1238.36 100.84C1239.44 100.84 1240.41 101.12 1241.28 101.68C1242.14 102.24 1242.82 103.053 1243.32 104.12C1243.81 105.187 1244.06 106.48 1244.06 108C1244.06 109.52 1243.81 110.813 1243.32 111.88C1242.82 112.947 1242.14 113.76 1241.28 114.32C1240.41 114.88 1239.44 115.16 1238.36 115.16ZM1238.36 113.38C1239.09 113.38 1239.73 113.18 1240.28 112.78C1240.84 112.38 1241.27 111.78 1241.58 110.98C1241.9 110.18 1242.06 109.187 1242.06 108C1242.06 106.813 1241.9 105.82 1241.58 105.02C1241.27 104.22 1240.84 103.62 1240.28 103.22C1239.73 102.82 1239.09 102.62 1238.36 102.62C1237.62 102.62 1236.98 102.82 1236.42 103.22C1235.86 103.62 1235.42 104.22 1235.1 105.02C1234.79 105.82 1234.64 106.813 1234.64 108C1234.64 109.187 1234.79 110.18 1235.1 110.98C1235.42 111.78 1235.86 112.38 1236.42 112.78C1236.98 113.18 1237.62 113.38 1238.36 113.38ZM1247.8 107.04C1247.42 107.04 1247.1 106.913 1246.84 106.66C1246.57 106.393 1246.44 106.06 1246.44 105.66C1246.44 105.26 1246.57 104.933 1246.84 104.68C1247.1 104.427 1247.42 104.3 1247.8 104.3C1248.16 104.3 1248.46 104.427 1248.72 104.68C1248.98 104.933 1249.12 105.26 1249.12 105.66C1249.12 106.06 1248.98 106.393 1248.72 106.66C1248.46 106.913 1248.16 107.04 1247.8 107.04ZM1247.8 115.12C1247.42 115.12 1247.1 114.993 1246.84 114.74C1246.57 114.473 1246.44 114.14 1246.44 113.74C1246.44 113.34 1246.57 113.013 1246.84 112.76C1247.1 112.507 1247.42 112.38 1247.8 112.38C1248.16 112.38 1248.46 112.507 1248.72 112.76C1248.98 113.013 1249.12 113.34 1249.12 113.74C1249.12 114.14 1248.98 114.473 1248.72 114.74C1248.46 114.993 1248.16 115.12 1247.8 115.12ZM1255.79 115.16C1254.8 115.16 1253.84 115.007 1252.91 114.7C1251.99 114.393 1251.23 113.98 1250.65 113.46L1251.57 111.88C1252.03 112.32 1252.64 112.68 1253.39 112.96C1254.13 113.24 1254.93 113.38 1255.79 113.38C1256.83 113.38 1257.63 113.16 1258.21 112.72C1258.79 112.267 1259.09 111.66 1259.09 110.9C1259.09 110.167 1258.81 109.58 1258.25 109.14C1257.7 108.687 1256.83 108.46 1255.63 108.46H1254.51V107.06L1258.67 101.94L1258.95 102.74H1251.29V101H1260.53V102.36L1256.39 107.46L1255.35 106.84H1256.01C1257.7 106.84 1258.97 107.22 1259.81 107.98C1260.66 108.74 1261.09 109.707 1261.09 110.88C1261.09 111.667 1260.89 112.387 1260.51 113.04C1260.12 113.693 1259.53 114.213 1258.75 114.6C1257.97 114.973 1256.99 115.16 1255.79 115.16ZM1263.13 115V113.64L1268.83 108.14C1269.34 107.66 1269.71 107.24 1269.95 106.88C1270.21 106.507 1270.37 106.167 1270.45 105.86C1270.55 105.54 1270.59 105.233 1270.59 104.94C1270.59 104.22 1270.34 103.653 1269.83 103.24C1269.33 102.827 1268.59 102.62 1267.61 102.62C1266.87 102.62 1266.19 102.747 1265.59 103C1264.99 103.24 1264.47 103.62 1264.03 104.14L1262.67 102.96C1263.21 102.28 1263.92 101.76 1264.81 101.4C1265.72 101.027 1266.71 100.84 1267.79 100.84C1268.77 100.84 1269.61 101 1270.33 101.32C1271.05 101.627 1271.61 102.073 1271.99 102.66C1272.39 103.247 1272.59 103.94 1272.59 104.74C1272.59 105.193 1272.53 105.64 1272.41 106.08C1272.29 106.52 1272.07 106.987 1271.73 107.48C1271.4 107.973 1270.92 108.527 1270.29 109.14L1265.21 114.04L1264.73 113.26H1273.19V115H1263.13Z" fill="#49454F" />
	<path d="M1298 98C1292.48 98 1288 102.48 1288 108C1288 113.52 1292.48 118 1298 118C1303.52 118 1308 113.52 1308 108C1308 102.48 1303.52 98 1298 98ZM1298 116C1293.59 116 1290 112.41 1290 108C1290 103.59 1293.59 100 1298 100C1302.41 100 1306 103.59 1306 108C1306 112.41 1302.41 116 1298 116ZM1295.5 112.5L1302.5 108L1295.5 103.5V112.5Z" fill="#484649" />
	<path d="M733.432 493.118C730.975 491.383 729.643 490.235 728.772 487.187C727.904 484.149 726.176 481.376 724.513 478.714C723.161 476.552 721.491 474.446 719.688 472.642C719.003 471.957 710.89 467.278 710.5 466.5" stroke="#FF99F8" stroke-width="8" stroke-linecap="round" />
	<path d="M710.685 466.524C708.34 466.524 706.048 465.644 703.77 465.011C700.344 464.059 697.021 463.931 693.493 463.931C690.479 463.931 687.506 462.943 684.513 462.658C681.792 462.399 678.937 462.634 676.205 462.634C673.512 462.634 670.299 462.148 667.705 462.874C664.984 463.636 662.6 465.07 660.021 466.188C653.081 469.195 649.116 475.364 643.958 480.522C640.143 484.337 636.982 488.789 634.425 493.536C633.241 495.735 632.247 498.085 631.496 500.476C631.073 501.822 630.127 504.067 629.215 505.182C628.383 506.199 628.214 508.467 628.134 509.744C628.051 511.077 627.702 512.32 627.702 513.802C627.702 516.547 630.5 523.312 630.5 526" stroke="#FF99F8" stroke-width="8" stroke-linecap="round" />
	<path d="M630.32 526.398C636.452 533.459 640.249 541.841 645.079 549.623C647.58 553.652 648.704 558.449 650.752 562.698C652.445 566.209 653.531 569.261 653.877 573.069C654.023 574.675 655.052 575.865 655.052 577.545C655.052 578.93 654.835 580.49 655.251 581.822C655.953 584.069 655.516 587.055 654.675 589.158C653.684 591.636 646.014 599.501 643 599.501" stroke="#FF99F8" stroke-width="8" stroke-linecap="round" />
	<path d="M643.088 599.455C630.976 596.868 618.898 593.605 606.529 593.605C603.857 593.605 601.185 593.605 598.513 593.605C596.423 593.605 594.632 594.965 592.88 595.068C591.244 595.164 588.308 596.678 588.006 598.372C587.68 600.198 585.683 602.074 585.081 604.032C584.371 606.338 584.002 608.209 584.133 610.693C584.888 625.035 604.754 628.012 615.547 630.435C620.074 631.452 624.61 633.31 628.952 634.931C635.185 637.258 641.743 638.723 648.125 640.563C650.2 641.162 652.438 640.878 654.408 641.484C656.24 642.048 657.701 642.838 659.661 642.838" stroke="#FF99F8" stroke-width="8" stroke-linecap="round" />
	<path d="M874.518 513.21C876.774 513.29 878.929 513.913 881.173 514.081C883.535 514.257 885.737 513.927 888.072 513.663C893.256 513.075 899.269 512.518 903.96 510.091C907.348 508.339 910.672 506.458 913.542 503.906C917.159 500.692 921.093 497.277 924.222 493.593C925.607 491.962 926.876 490.04 928.49 488.628C930.317 487.029 932.413 485.689 934.344 484.22C936.509 482.573 938.78 481.076 940.929 479.411C942.817 477.949 945.01 477.026 946.783 475.404C951.468 471.119 956.679 466.298 962.48 463.505C967.902 460.895 972.573 458.018 978.787 458.018C982.908 458.018 987.181 457.547 990.093 461.014C992.347 463.697 992.738 468.007 992.985 471.363C993.245 474.879 993.055 478.466 993.055 481.99C993.055 486.053 993.046 489.863 992.045 493.837C990.622 499.482 987.732 504.844 985.25 510.056C980.37 520.305 975.093 530.709 968.665 540.074C961.349 550.732 952.889 561.102 942.985 569.482C921.104 587.997 894.994 600.71 867.305 607.67C855.335 610.679 843.306 614.5 830.859 614.5C823.584 614.5 815.856 615.25 808.716 613.733C806.409 613.243 804.065 613.138 801.764 612.618C798.222 611.818 794.719 610.849 791.172 610.075C784.509 608.619 777.975 606.741 771.329 605.214C767.743 604.39 764.356 602.497 760.823 601.712C760.241 601.583 759.474 601.555 758.942 601.259C758.417 600.967 758.188 600.338 757.409 600.092C754.891 599.297 751.886 598.077 749.708 596.625" stroke="#FF99F8" stroke-width="8" stroke-linecap="round" />
	<path d="M467.15 296.604C466.147 292.037 461.541 290.255 460.025 285.707C457.579 278.369 460.333 269.732 467.569 266.428C475.474 262.819 482.233 259.962 491.099 259.962C503.192 259.962 516.083 261.338 527.921 258.765C532.7 257.726 537.863 253.204 541.512 250.053C545.809 246.342 549.701 243.777 554.983 241.761C561.85 239.14 568.447 236.01 575.43 233.828C577.919 233.05 581.22 232.452 583.782 233.259C589.576 235.083 594.83 239.113 598.6 243.826C600.695 246.445 601.894 249.752 603.719 252.538C609.078 260.717 613.178 269.785 618.837 277.774C621.554 281.61 624.298 285.41 628.267 287.983C631.309 289.954 634.767 291.054 637.847 292.952C644.343 296.954 650.736 299.797 658.204 301.663C667 303.863 675.643 307.209 684.607 308.579C689.046 309.257 694.481 311.379 698.228 313.788C703.313 317.056 708.549 320.032 713.167 323.966C717.325 327.508 723.253 331.284 726.099 335.941C728.733 340.25 733.528 344.05 736.996 347.676C745.028 356.072 752.455 364.493 762.322 370.906C768.653 375.022 772.125 381.408 776.692 387.132C784.353 396.734 792.308 405.604 798.366 416.409C804.04 426.532 809.644 436.683 815.369 446.765C817.928 451.27 820.497 455.742 822.973 460.296C825.963 465.794 828.671 472.053 832.283 477.18C834.335 480.092 836.559 482.861 838.63 485.742C840.686 488.602 843.186 490.894 845.306 493.705C846.494 495.281 848.105 495.923 849.317 497.297C850.878 499.066 854.589 502.592 856.951 502.955C860.291 503.469 862.213 504.984 864.405 507.176C865.517 508.288 866.977 508.941 868.087 510.26C869.281 511.677 870.981 513.224 872.907 513.224" stroke="#FF99F8" stroke-width="8" stroke-linecap="round" />
	<path d="M442.517 461.267C441.465 458.508 441.899 454.802 442.53 451.964C442.745 450.996 443.12 450.062 443.255 449.051C443.393 448.016 443.657 446.688 443.967 445.681C444.307 444.576 444.411 443.283 444.45 442.124C444.469 441.557 444.584 440.793 444.745 440.245C444.94 439.583 445.654 439.386 445.846 438.661C446.002 438.071 445.819 437.538 446.195 436.996C446.548 436.487 447.064 436.046 447.296 435.466C447.619 434.659 448.559 433.71 449.095 432.995C450.282 431.413 451.06 429.461 452.397 428.028C452.69 427.715 452.621 427.295 452.853 426.955C453.25 426.372 454.03 426.089 454.599 425.72C456.007 424.804 457.583 423.434 458.774 422.243C459.866 421.15 460.885 420.235 462.197 419.343C464.228 417.962 465.691 415.864 467.781 414.524C479.279 407.153 493.407 400.738 507.302 402.415C514.553 403.29 521.986 403.815 529.318 403.757C531.221 403.742 533.117 403.582 534.956 403.086C535.793 402.861 536.93 403.024 537.641 402.549C539.369 401.398 539.213 398.474 539.172 396.616C539.094 393.151 536.334 389.381 534.218 386.843C529.782 381.519 526.12 375.507 521.546 370.317C517.333 365.538 512.08 362.589 507.007 358.907C504.624 357.177 502.128 355.181 499.476 353.886C496.301 352.336 492.689 351.399 489.354 350.235C482.095 347.701 474.485 346.463 467.056 344.556C461.798 343.206 456.57 341.755 451.296 340.448C447.313 339.462 444.244 338.026 441.362 335.025C439.211 332.785 437.154 330.305 435.993 327.4C435.341 325.77 435.268 324.363 435.268 322.621C435.268 320.83 435 318.78 435.805 317.117C437.946 312.692 442.677 310.181 447.188 308.901C451.56 307.661 455.914 305.925 459.619 303.236C462.058 301.467 464.425 299.411 466.573 297.303C467.315 296.574 469.223 295.259 469.338 294.108C469.447 293.018 469.326 291.154 467.889 291.154" stroke="#FF99F8" stroke-width="8" stroke-linecap="round" />
	<path d="M518.914 458.97C517.571 457.972 516.549 456.772 515.271 455.717C514.144 454.785 513.145 453.582 511.979 452.736C511.093 452.094 510.376 451.379 509.369 450.866C507.557 449.943 505.485 449.372 503.505 448.957C500.554 448.339 497.388 447.958 494.369 447.924C491.895 447.897 489.665 447.904 487.414 449.074C485.447 450.096 483.37 450.838 481.531 452.093C479.722 453.328 477.839 454.433 476.067 455.726C474.454 456.903 472.726 457.868 471.051 458.96C469.273 460.119 467.399 461.495 465.518 462.457C462.959 463.766 460.239 464.8 457.482 465.622C455.563 466.195 453.584 466.462 451.677 466.957C450.197 467.341 449.039 467.758 447.567 467.298C446.886 467.085 446.348 466.896 445.716 466.596C445.334 466.415 442.905 461.499 442.5 461.499" stroke="#FF99F8" stroke-width="8" stroke-linecap="round" />
	<path d="M585.431 421.973C584.588 424.153 583.273 425.84 582.158 427.868C580.744 430.439 579.517 433.329 577.473 435.489C575.139 437.957 573.906 441.01 571.959 443.761C570.396 445.969 568.702 448.125 567.229 450.396C566.452 451.595 565.632 452.698 564.651 453.736C563.636 454.811 563.025 456.185 562.186 457.389C560.872 459.275 559.139 461.333 557.254 462.68C555.243 464.116 553.151 465.585 550.933 466.714C548.613 467.896 546.19 468.83 543.872 470.032C541.397 471.316 538.379 471.803 535.601 471.803C534.018 471.803 532.527 470.551 531.162 469.83C529.733 469.075 528.301 467.959 527.127 466.849C524.944 464.783 522.707 462.644 520.358 460.752C519.988 460.454 519.847 459.809 519.416 459.653C519.025 459.512 518.681 459.271 518.296 459.138C517.745 458.947 517.694 458.785 517.444 458.286" stroke="#FF99F8" stroke-width="8" stroke-linecap="round" />
	<path d="M586.428 407.312C586.428 409.286 587.701 420.507 585.563 421.575" stroke="#FF99F8" stroke-width="8" stroke-linecap="round" />
	<path d="M690.93 604.215C692.711 604.315 694.679 605.417 695.832 606.569C696.182 606.92 695.71 608.713 695.516 609.226C694.556 611.771 692.328 614.172 691.358 616.743C690.917 617.914 689.58 619.707 688.857 620.799C687.843 622.332 686.788 624.223 686.029 625.873C685.385 627.272 684.051 628.43 683.451 629.852C682.98 630.969 682.116 633.068 681.207 633.977" stroke="#545454" stroke-width="3" stroke-linecap="round" stroke-linejoin="round" />
	<path d="M689.561 604.544C687.981 606.792 686.523 609.225 685.259 611.611C684.281 613.456 682.695 614.787 681.523 616.46C679.487 619.365 678.323 622.617 676.543 625.586C675.439 627.428 674.54 629.785 673.091 631.379C672.781 631.72 672.971 632.108 673.185 632.322C673.63 632.767 673.423 632.819 673.499 633.391C673.623 634.338 673.012 635.677 672.656 636.652C671.877 638.785 673.523 637.944 674.898 638.729C675.768 639.226 676.279 637.865 676.973 637.172C677.756 636.388 678.469 636.112 679.413 635.767C680.145 635.5 681.296 635.333 680.707 634.301C680.185 633.387 679.509 632.702 678.748 631.941C677.321 630.514 675.18 631.358 673.397 632.11" stroke="#545454" stroke-width="3" stroke-linecap="round" stroke-linejoin="round" />
	<path d="M675.169 638.976C674.787 639.714 673.858 642.177 672.842 642.168C672.643 642.166 670.246 643.749 670.208 643.592C670.111 643.185 671.317 641.101 671.652 640.766C672.244 640.174 672.93 638.96 672.765 638.271" stroke="#545454" stroke-width="3" stroke-linecap="round" stroke-linejoin="round" />
	<path d="M674.638 639.508C674.247 640.069 673.797 640.76 673.517 641.358C673.312 641.796 672.544 641.89 672.099 642.181C671.545 642.544 670.815 642.813 670.346 643.282C669.818 643.809 671.002 641.974 671.216 641.298C671.453 640.552 672.004 638.772 672.994 639.338C673.394 639.566 674.017 639.611 673.418 640.21C673.179 640.448 672.062 641.719 671.938 641.69" stroke="#FFC700" stroke-width="3" stroke-linecap="round" stroke-linejoin="round" />
	<path d="M673.524 642.002C672.888 642.317 672.015 642.879 671.327 642.989C670.858 643.065 670.284 643.341 669.92 643.705" stroke="#D27C2C" stroke-width="3" stroke-linecap="round" stroke-linejoin="round" />
	<path d="M695.334 608.619C695.998 605.82 692.711 604.779 690.441 605.259C689.978 605.356 689.655 606.242 689.44 606.652C688.967 607.556 688.41 608.545 687.845 609.409C687.235 610.342 687.006 611.315 686.259 612.175C685.564 612.977 684.932 613.95 684.337 614.817C682.207 617.921 680.969 621.468 678.706 624.517C678.158 625.256 677.226 626.051 676.841 626.862C676.489 627.604 676.215 628.354 675.879 629.072C675.68 629.496 675.282 629.847 675.106 630.315C674.976 630.658 675.038 630.194 675.217 630.156C675.415 630.114 675.702 630.046 675.889 630.05C677.138 630.078 678.19 630.322 679.02 631.152C679.237 631.369 679.597 631.449 679.768 631.699C679.95 631.966 680.051 632.205 680.296 632.428C680.454 632.571 680.682 632.624 680.853 632.773C681.026 632.923 681.12 632.392 681.198 632.256C682.131 630.627 682.938 628.977 683.982 627.399C684.571 626.508 685.153 625.579 685.687 624.657C686.346 623.52 687.102 622.377 687.665 621.211C688.714 619.039 690.208 617.03 691.26 614.852C691.667 614.008 692.236 613.21 692.774 612.427C693.018 612.07 693.364 611.74 693.58 611.37C693.805 610.987 693.911 610.49 694.179 610.129C694.528 609.659 694.927 609.172 695.122 608.619C695.287 608.152 694.534 607.182 694.275 606.923C693.734 606.382 692.468 605.89 691.607 605.954C691.348 605.973 690.523 605.817 690.625 606.245" stroke="#FFC700" stroke-width="3" stroke-linecap="round" stroke-linejoin="round" />
	<path d="M691.94 607.348C691.683 608.301 691.045 609.274 690.489 610.143C690.132 610.701 690.037 611.325 689.757 611.911C689.466 612.521 689.085 613.113 688.768 613.716C687.481 616.165 685.882 618.406 684.459 620.789C683.736 622 683.175 623.252 682.693 624.541C682.385 625.367 681.768 626.157 681.47 626.974C681.292 627.46 681.039 627.79 680.928 628.284C680.844 628.656 680.721 629.132 680.525 629.473" stroke="#FFC700" stroke-width="8" stroke-linecap="round" stroke-linejoin="round" />
	<path d="M693.681 608.027C692.789 609.583 691.828 611.072 690.994 612.653C690.063 614.419 689.314 616.381 688.155 618.045C687.631 618.797 686.979 619.474 686.429 620.211C685.897 620.926 685.506 621.711 684.875 622.361C684.358 622.894 683.413 623.939 682.706 624.012" stroke="#FFC700" stroke-width="8" stroke-linecap="round" stroke-linejoin="round" />
	<path d="M687.986 610.611C686.936 611.739 686.242 613.202 685.409 614.473C684.694 615.564 683.83 616.512 683.31 617.705C683.003 618.41 682.622 619.102 682.26 619.792C681.723 620.816 681.339 621.962 680.75 622.952C679.93 624.331 679.188 625.694 678.532 627.138C678.337 627.566 677.745 628.294 677.842 628.701" stroke="#FFC700" stroke-width="8" stroke-linecap="round" stroke-linejoin="round" />
	<path d="M696.044 609.117C696.304 608.106 696.413 606.939 695.715 606.241C695.032 605.557 694.189 605.284 693.395 604.77C692.669 604.3 691.694 604.303 690.802 604.206C690.226 604.143 689.424 604.446 688.917 604.325" stroke="#545454" stroke-width="3" stroke-linecap="round" stroke-linejoin="round" />
	<path d="M689.109 604.306C688.945 605.712 688.161 606.788 687.472 608.093C686.861 609.248 686.105 610.332 685.424 611.446C684.868 612.355 684.078 613.13 683.578 614.07C682.99 615.173 682.212 616.18 681.588 617.269C680.295 619.524 678.686 621.643 677.433 623.928C676.836 625.017 676.521 626.187 675.893 627.282C675.479 628.004 674.972 628.713 674.53 629.422C674.299 629.794 674.189 630.211 674.007 630.598C673.873 630.884 673.205 631.612 673.435 631.382C674.123 630.694 675.73 630.914 676.43 631.016C678.495 631.316 680.472 632.555 680.954 634.573" stroke="#545454" stroke-width="3" stroke-linecap="round" stroke-linejoin="round" />
	<path d="M695.267 608.34C694.898 609.382 694.296 610.148 693.745 611.11C693.176 612.102 692.654 613.256 691.999 614.199C691.252 615.277 690.492 616.349 689.848 617.473C689.516 618.052 689.106 618.686 688.719 619.245C688.24 619.936 688.007 620.734 687.563 621.438C686.876 622.525 686.342 623.73 685.648 624.83C684.947 625.941 684.134 627.218 683.595 628.391C683.212 629.223 682.593 629.97 682.202 630.819C681.931 631.41 681.632 632.167 681.152 632.647" stroke="white" stroke-width="3" stroke-linecap="round" stroke-linejoin="round" />
	<path d="M694.768 607.629C694.686 607.395 694.046 605.913 693.731 606.805C693.322 607.965 692.932 609.02 692.414 610.157C691.843 611.409 690.812 612.574 690.321 613.843C689.682 615.494 688.738 617.327 687.823 618.893C687.273 619.836 686.721 620.784 686.29 621.77C685.919 622.619 685.306 623.39 684.936 624.237C684.405 625.451 683.845 626.745 683.162 627.912C682.766 628.588 682.417 629.604 681.88 630.192C681.505 630.603 681.43 631.16 681.078 631.512" stroke="white" stroke-width="3" stroke-linecap="round" stroke-linejoin="round" />
	<path d="M694.305 608.44C693.411 610.111 692.44 611.753 691.549 613.432C691.063 614.349 690.545 615.198 690.18 616.155C689.986 616.663 689.855 617.223 689.546 617.691" stroke="white" stroke-width="3" stroke-linecap="round" stroke-linejoin="round" />
	<path d="M691.129 615.241C690.519 616.482 690.09 617.729 689.343 618.928C688.82 619.768 688.253 620.592 687.772 621.449C686.773 623.231 685.733 624.974 684.781 626.772C684.443 627.41 683.936 628.005 683.563 628.643C683.202 629.26 682.825 629.931 682.418 630.517C681.972 631.16 681.811 632.213 681.238 632.734C681.012 632.939 680.148 631.446 680.198 631.364C680.796 630.405 681.53 629.436 682.081 628.435C683.781 625.352 686.414 622.496 687.76 619.302" stroke="white" stroke-width="3" stroke-linecap="round" stroke-linejoin="round" />
	<path d="M690.165 605.15C689.858 606.017 689.234 607.314 688.632 608.075C688.003 608.87 687.602 609.837 686.941 610.629C685.251 612.656 684.056 615.194 682.646 617.372C681.75 618.756 681.248 620.317 680.377 621.685C679.946 622.362 679.533 623.204 679.169 623.92C678.845 624.557 678.393 625.076 678.009 625.685C677.772 626.06 675.715 629.969 675.433 629.902" stroke="#D27C2C" stroke-width="3" stroke-linecap="round" stroke-linejoin="round" />
	<path d="M696.708 606.383C697.593 604.672 698.555 603.043 699.372 601.299C699.503 601.02 700.19 600.124 700.122 600.032C699.641 599.377 699.097 598.948 698.215 598.656C696.247 598.005 694.441 597.716 692.292 598.571C691.701 598.806 691.454 600.711 691.271 601.358C691.098 601.969 691.159 602.776 690.644 603.291" stroke="#FFC700" stroke-width="3" stroke-linecap="round" stroke-linejoin="round" />
	<path d="M697.895 597.595C697.946 597.443 698.496 596.248 698.23 596.137C697.686 595.909 697.218 595.764 696.573 595.73C695.691 595.684 695.75 595.584 695.285 596.577C695.017 597.148 696.253 597.466 696.76 597.309C697.364 597.122 697.125 596.118 696.56 596.684" stroke="#FFC700" stroke-width="3" stroke-linecap="round" stroke-linejoin="round" />
	<path d="M696.527 605.354C695.842 604.669 694.87 603.886 693.881 603.604C693.438 603.478 693.059 603.24 692.607 603.132C692.308 603.06 691.954 603.126 691.669 603.043C691.104 602.877 691.661 601.851 691.871 601.334C692.045 600.905 692.414 599.384 693.065 599.238C694.363 598.946 695.816 599.334 696.845 599.834C697.595 600.199 697.974 600.57 698.482 601.153C698.907 601.639 697.905 602.22 697.796 602.789C697.73 603.132 697.293 602.098 697.282 602.075C697.178 601.851 696.491 600.165 696.05 600.418C695.795 600.564 696.574 602.791 696.648 603.045C696.963 604.124 696.539 603.382 696.201 602.858C695.635 601.979 694.985 600.635 694.016 600.13C693.389 599.803 694.118 601.987 694.19 602.144C694.327 602.444 694.812 603.293 694.697 602.981C694.488 602.416 693.824 601.607 693.3 601.325C693.024 601.176 692.746 602.27 693.407 602.351C694.084 602.434 694.52 603.142 695.061 603.451C695.478 603.689 696.378 603.104 696.828 602.942C697.563 602.677 698.027 602.5 698.461 601.874C698.696 601.536 699.078 600.658 698.946 600.343" stroke="#FFC700" stroke-width="3" stroke-linecap="round" stroke-linejoin="round" />
	<path d="M693.958 597.903C693.358 598.046 692.861 598.238 692.282 598.456C691.918 598.594 691.477 600.194 691.281 600.58C691.085 600.965 689.897 603.182 690.238 603.524C690.393 603.679 690.907 603.529 691.147 603.478C691.586 603.385 691.665 602.711 691.79 602.317C692.082 601.4 692.463 600.523 692.973 599.666C693.133 599.395 693.657 598.848 693.6 598.607" stroke="#D27C2C" stroke-width="3" stroke-linecap="round" stroke-linejoin="round" />
	<path d="M700.592 600.079C699.688 601.841 698.516 603.371 697.489 605.044C697.409 605.175 696.794 606.235 696.69 606.131C696.462 605.903 696.389 605.462 696.161 605.201C695.874 604.872 696.21 604.461 696.505 604.166C697.066 603.605 697.546 602.692 697.989 602.029C698.332 601.517 698.83 600.895 699.042 600.334C699.134 600.088 699.625 599.491 699.602 599.514" stroke="white" stroke-width="3" stroke-linecap="round" stroke-linejoin="round" />
	<path d="M696.894 608.269C695.192 605.493 691.834 604.499 688.552 604.172" stroke="#545454" stroke-width="3" stroke-linecap="round" stroke-linejoin="round" />
	<path d="M689.707 604.054C690.252 602.956 690.464 601.731 690.825 600.595C691.041 599.914 691.12 598.948 691.628 598.333C691.763 598.169 691.739 597.814 691.932 597.693C692.151 597.557 692.567 597.549 692.809 597.497C693.948 597.257 694.978 597.329 696.013 597.576C697.278 597.878 698.378 598.078 699.272 598.971C699.515 599.215 700.362 600.11 700.081 600.418C699.694 600.842 699.425 601.642 699.143 602.133C698.617 603.05 698.33 604.043 697.846 604.975C697.485 605.67 697.069 606.712 696.522 607.259" stroke="#545454" stroke-width="3" stroke-linecap="round" stroke-linejoin="round" />
	<path d="M698.606 598.094C698.913 597.458 699.148 596.791 699.42 596.147C699.483 595.996 699.65 595.618 699.579 595.47C699.211 594.704 697.661 594.878 696.906 594.861C696.176 594.844 695.986 594.784 695.537 595.461C695.234 595.92 695.12 596.314 694.934 596.756" stroke="#545454" stroke-width="3" stroke-linecap="round" stroke-linejoin="round" />
	<path d="M696.615 608.202C695.789 609.062 695.077 610.382 694.529 611.411C693.901 612.591 693.129 613.719 692.479 614.891C691.763 616.183 690.856 617.476 690.003 618.701C688.843 620.365 687.91 622.16 686.949 623.915C686.211 625.262 685.357 626.574 684.683 627.946C684.133 629.066 683.633 630.206 682.96 631.271C682.325 632.278 681.664 633.257 681.081 634.274" stroke="#545454" stroke-width="3" stroke-linecap="round" stroke-linejoin="round" />
	<path d="M680.676 634.507C680.09 632.759 679.239 631.153 677.188 630.913C676.075 630.782 674.867 630.772 673.756 631.408" stroke="#545454" stroke-width="3" stroke-linecap="round" stroke-linejoin="round" />
	<path d="M677.381 632.272C677.051 632.165 674.806 631.795 674.709 632.737C674.589 633.905 674.354 635.181 673.916 636.343C673.74 636.809 673.946 636.917 674.324 636.539C674.63 636.233 674.949 635.461 675.093 635.079C675.525 633.935 676.286 633.54 677.043 632.783" stroke="#FFC700" stroke-width="3" stroke-linecap="round" stroke-linejoin="round" />
	<path d="M674.321 632.397C674.354 633.323 674.419 635.063 673.58 635.902" stroke="#D27C2C" stroke-width="3" stroke-linecap="round" stroke-linejoin="round" />
	<path d="M673.755 631.406C675.073 630.939 675.999 630.586 677.172 631.108C678.228 631.578 679.034 631.917 679.698 632.891" stroke="#545454" stroke-width="3" stroke-linecap="round" stroke-linejoin="round" />
	<path d="M673.158 631.658C673.844 632.745 673.699 634.282 673.23 635.646C673.005 636.3 672.732 637.385 672.227 637.945C672.112 638.071 672.668 637.995 672.794 637.982C673.376 637.922 673.908 637.97 674.475 638C674.931 638.023 675.844 638.683 675.62 639.215" stroke="#545454" stroke-width="3" stroke-linecap="round" stroke-linejoin="round" />
	<defs>
		<filter id="filter0_d_1242_62133" x="65" y="573" width="94" height="94" filterUnits="userSpaceOnUse" color-interpolation-filters="sRGB">
			<feFlood flood-opacity="0" result="BackgroundImageFix" />
			<feColorMatrix in="SourceAlpha" type="matrix" values="0 0 0 0 0 0 0 0 0 0 0 0 0 0 0 0 0 0 127 0" result="hardAlpha" />
			<feOffset dy="4" />
			<feGaussianBlur stdDeviation="7.5" />
			<feComposite in2="hardAlpha" operator="out" />
			<feColorMatrix type="matrix" values="0 0 0 0 0.566667 0 0 0 0 0.662 0 0 0 0 1 0 0 0 0.25 0" />
			<feBlend mode="normal" in2="BackgroundImageFix" result="effect1_dropShadow_1242_62133" />
			<feBlend mode="normal" in="SourceGraphic" in2="effect1_dropShadow_1242_62133" result="shape" />
		</filter>
	</defs>
</svg>
