<svg width="578" height="200" viewBox="0 0 578 200" fill="none" xmlns="http://www.w3.org/2000/svg">
<g clip-path="url(#clip0_52239_85064)">
<path d="M103.558 74.207L414.469 7.37203C432.822 3.42703 451.39 13.071 458.717 30.355L502.148 132.807C512.343 156.857 496.559 183.953 470.609 186.948L149.603 198.825C134.585 200.558 119.912 193.484 111.914 180.655L78.579 133.162C64.241 110.163 77.062 79.904 103.56 74.208L103.558 74.207Z" fill="#FFEBDA"/>
<path opacity="0.25" d="M369.27 179.24C363.495 179.24 358.338 178.196 353.89 176.132C347.437 178.571 340.574 178.571 336.226 178.571C328.8 178.571 317.426 177.33 310.218 170.62C304.619 175.765 295.691 178.571 284.244 178.571C278.192 178.571 273.1 177.928 268.787 176.611C266.049 177.901 263.099 178.571 260.107 178.571C258.329 178.571 256.839 178.34 255.397 178.118L254.564 177.995C253.236 177.872 251.988 177.754 250.602 177.754H220.083C213.496 177.754 208.784 175.875 205.48 173.561C198.767 177.036 190.714 178.793 181.466 178.793C171.959 178.793 163.73 176.985 156.923 173.41C152.731 176.912 147.796 178.793 142.628 178.793C139.872 178.793 137.712 178.375 136.421 178.126L135.082 177.875C134.897 177.835 134.514 177.754 133.346 177.754H107.949C105.174 177.755 101.487 177.561 97.5791 176.049C96.9431 175.802 96.3211 175.529 95.7161 175.231C90.7811 177.153 85.2961 178.126 79.3581 178.126C76.5571 178.126 73.9501 178.046 71.3921 177.884C69.4581 177.82 67.4771 177.755 65.5461 177.755C63.2471 177.755 60.7391 177.828 58.7071 177.888C55.9021 178.048 53.1341 178.126 50.2491 178.126C37.0901 178.126 26.7831 168.243 26.7831 155.625C26.7831 150.039 28.6181 145.135 32.1211 141.284L32.7211 125.622C28.9641 121.737 26.9331 116.577 26.9331 110.773C26.9331 96.548 39.0911 88.049 50.8451 88.049C52.9831 88.049 54.9911 88.12 56.9311 88.19C57.8871 88.225 58.7401 88.255 59.5931 88.279L60.0331 88.296C62.7501 88.442 65.0991 88.569 67.3311 88.569C68.3051 88.569 69.5111 88.464 70.9071 88.343L71.7001 88.29C72.1651 88.269 72.6371 88.242 73.1111 88.215C74.5611 88.134 76.0801 88.048 77.7271 88.048C84.4011 88.048 90.5981 89.305 95.8731 91.708C101.262 89.08 108.226 87.752 116.64 87.752C121.466 87.752 128.075 87.752 134.329 89.737C137.079 90.608 139.519 91.791 141.632 93.272C147.098 89.478 154.59 87.752 165.206 87.752C169.689 87.752 177.493 87.752 184.521 90.797C189.003 88.774 194.545 87.751 201.054 87.751H201.685C206.276 87.752 210.42 88.273 214.029 89.301C216.305 88.785 218.749 88.524 221.323 88.524C222.02 88.524 222.697 88.54 223.326 88.555C223.628 88.563 223.835 88.57 224.021 88.57H245.407C248.337 88.57 250.529 88.414 251.421 88.141C252.537 87.799 254.866 87.085 257.956 87.085C261.338 87.085 264.524 87.794 267.465 89.2C269.607 88.683 271.868 88.422 274.22 88.422C275.407 88.422 276.568 88.464 277.731 88.511L278.019 88.523C278.58 88.546 279.142 88.57 279.715 88.57C285.919 88.57 290.583 88.177 293.991 87.891C296.383 87.689 298.264 87.53 300.137 87.53C306.197 87.53 311.821 88.626 316.903 90.793C320.883 88.97 325.544 88.049 330.808 88.049C332.452 88.049 333.893 88.143 335.049 88.219C335.496 88.248 335.9 88.275 336.308 88.294L336.76 88.313L337.276 88.365C338.083 88.446 339.319 88.569 339.941 88.569C341.709 88.569 343.695 88.447 345.796 88.319L346.45 88.285C347.215 88.26 348.717 88.198 348.717 88.198C350.582 88.122 352.396 88.048 354.346 88.048C361.964 88.048 368.953 89.776 374.827 93.081C382.19 88.754 391.88 87.752 399.275 87.752C402.181 87.752 407.884 87.752 413.744 89.456C417.582 88.309 421.98 87.748 427.108 87.748L428.344 87.752C435.822 87.752 440.753 89.123 446.015 92.954C450.821 89.496 457.299 87.749 465.362 87.749L467.68 87.745C472.028 87.745 475.991 88.294 479.506 89.38C482.355 88.15 485.306 87.527 488.311 87.527C490.73 87.527 492.655 87.955 494.061 88.267L494.461 88.354C495.034 88.441 495.997 88.568 497.445 88.568H515.713C516.215 88.568 516.859 88.557 517.287 88.509C519.029 88.03 521.387 87.528 524.55 87.528C539.187 87.528 552.026 102.623 552.026 119.831C552.026 130.5 546.047 139.184 537.139 142.777C539.837 147.071 540.369 151.563 540.369 154.436C540.369 159.44 538.695 171.609 523.193 176.523C516.731 178.57 510.08 178.57 506.507 178.57H505.895C502.106 178.571 497.132 178.448 492.156 177.488C487.97 176.682 484.233 175.269 481.082 173.323C477.141 176.718 472.176 178.57 466.925 178.57C461.186 178.57 455.796 176.419 450.903 172.175L449.978 171.347C445.779 175.124 438.871 178.57 427.643 178.57C424.145 178.57 419.192 178.176 414.268 176.452C407.551 178.57 400.402 178.57 395.934 178.57C391.114 178.57 386.781 178.053 383.011 177.031C378.985 178.497 374.376 179.238 369.273 179.238L369.27 179.24Z" fill="#122A4E"/>
<path d="M378.947 170.643C372.207 170.643 366.496 169.205 361.893 166.358C355.237 169.89 346.797 169.89 341.713 169.89C320.751 169.89 314.184 161.702 312.431 154.605C309.301 168.301 291.293 169.89 283.138 169.89C275.681 169.89 269.708 168.948 265.07 167.024C261.688 169.309 258.406 169.89 255.941 169.89C254.473 169.89 253.187 169.69 251.699 169.46L250.601 169.294L250.335 169.269C248.748 169.121 247.113 168.969 245.23 168.969H210.841C203.508 168.969 198.375 166.372 195.214 162.601C189.054 166.867 180.149 170.14 167.327 170.14C155.558 170.14 145.928 167.478 138.598 162.213C134.515 167.287 129.25 170.14 123.563 170.14C121.128 170.14 119.182 169.763 117.893 169.515C117.597 169.458 116.507 169.256 116.507 169.256C116.032 169.156 115.144 168.969 113.105 168.969H84.488C81.81 168.97 78.628 168.797 75.319 167.516C73.813 166.934 72.429 166.178 71.185 165.264C65.762 167.976 59.337 169.387 52.27 169.387C49.222 169.387 46.395 169.3 43.631 169.121C41.373 169.045 39.04 168.968 36.705 168.968C34.023 168.968 31.199 169.05 28.697 169.123C25.634 169.3 22.613 169.386 19.468 169.386C8.55102 169.386 -0.000976562 161.312 -0.000976562 151.005C-0.000976562 147.11 1.09902 141.945 5.88102 137.921C5.90802 137.572 5.93102 137.166 5.94802 136.697L6.81002 114.172C2.49102 110.966 0.166023 106.233 0.166023 100.465C0.166023 88.802 10.321 81.832 20.138 81.832C22.427 81.832 24.63 81.911 26.758 81.987C27.839 82.026 28.82 82.062 29.801 82.088L30.079 82.098C33.183 82.265 35.999 82.417 38.714 82.417C40.118 82.417 41.62 82.286 43.361 82.135L43.958 82.096C44.52 82.071 45.091 82.038 45.665 82.005C47.12 81.923 48.739 81.831 50.429 81.831C58.395 81.831 65.484 83.608 71.035 86.923C76.313 83.317 84.089 81.496 94.277 81.496C99.259 81.496 106.082 81.496 112.101 83.405C116.597 84.832 120.064 87.163 122.385 90.248C122.764 89.769 123.171 89.304 123.605 88.856C128.545 83.765 136.377 81.495 149.001 81.495C154.287 81.495 163.793 81.495 170.841 85.826C175.271 82.947 181.475 81.494 189.395 81.494H190.092C195.431 81.494 200.038 82.176 203.835 83.525C206.348 82.753 209.159 82.364 212.234 82.364C212.959 82.364 213.663 82.38 214.316 82.397C214.711 82.407 215.007 82.415 215.273 82.415H239.371C245.614 82.415 247.484 81.842 248.188 81.627C249.196 81.318 251.077 80.741 253.512 80.741C257.124 80.741 260.469 81.744 263.401 83.679C265.944 82.734 268.786 82.248 271.838 82.248C273.077 82.248 274.291 82.294 275.506 82.344L275.667 82.35C276.449 82.382 277.232 82.415 278.03 82.415C285.323 82.415 290.752 81.957 294.717 81.624C297.245 81.41 299.226 81.243 301.042 81.243C308.112 81.243 314.603 82.795 320.127 85.771C323.562 83.545 328.51 81.828 335.602 81.828C337.223 81.828 338.658 81.921 339.925 82.004C340.474 82.039 340.961 82.071 341.454 82.095L341.811 82.111L342.187 82.149C343.632 82.293 344.916 82.414 345.894 82.414C348.084 82.414 350.432 82.271 352.919 82.119L353.575 82.086C354.342 82.062 355.115 82.031 355.893 81.999L356.101 81.99C358.035 81.91 360.038 81.828 362.125 81.828C371.234 81.828 379.34 84.388 385.397 88.966C392.313 82.695 404.471 81.494 412.752 81.494C415.974 81.494 422.841 81.494 429.09 83.787C433.154 82.245 438.11 81.491 444.115 81.491L445.488 81.494C454.03 81.494 458.324 83.111 464.61 88.701L465.753 89.703C469.03 85.349 475.298 81.492 487.221 81.492L489.844 81.487C493.832 81.487 498.985 81.974 503.608 83.932C506.644 82.161 509.854 81.242 513.08 81.242C515.037 81.242 516.636 81.596 518.047 81.909L518.736 82.058C519.672 82.204 521.159 82.413 523.372 82.413H543.957C545.798 82.413 546.644 82.304 547.207 82.203C548.622 81.796 550.764 81.241 553.915 81.241C566.468 81.241 577.902 95.266 577.902 110.667C577.902 122.773 569.327 131.559 557.514 131.559C557.366 131.559 557.217 131.558 557.069 131.555V135.121C563.657 139.419 564.767 145.833 564.767 149.66C564.767 154.757 562.885 163.905 550.279 167.9C544.026 169.882 537.233 169.882 533.584 169.882H532.881C528.933 169.882 523.763 169.759 518.734 168.79C512.359 167.561 507.36 164.94 504.09 161.282C503.346 162.491 502.464 163.64 501.416 164.696C498.097 168.04 493.681 169.882 488.981 169.882C481.84 169.882 477.064 165.742 475.495 164.381L469.082 158.632C465.751 164.91 458.252 169.882 444.718 169.882C441.212 169.882 435.207 169.459 429.772 167.02C422.732 169.882 414.349 169.882 408.987 169.882C403.163 169.882 398.176 169.157 394.097 167.724C389.898 169.658 384.821 170.635 378.945 170.635L378.947 170.643ZM119.186 121.963C120.818 121.106 122.49 120.617 124.094 120.369V113.866C123.492 113.26 122.849 112.542 122.224 111.706C121.361 112.769 120.345 113.735 119.185 114.595V121.962L119.186 121.963Z" fill="#172F56"/>
<path d="M557.516 124.594C565.415 124.594 570.931 118.87 570.931 110.676C570.931 98.239 561.623 88.223 553.917 88.223C551.505 88.223 550.06 88.644 548.901 88.982L548.836 89.001C547.839 89.196 546.612 89.395 543.96 89.395H523.375C520.583 89.395 518.723 89.123 517.461 88.924L516.54 88.724C515.324 88.454 514.274 88.222 513.082 88.222C509.859 88.222 506.769 89.78 504.085 92.214C500.16 89.099 494.107 88.467 489.858 88.467L487.223 88.472C480.495 88.472 469.207 90.042 469.207 100.551C469.207 101.092 469.238 101.607 469.296 102.094L459.979 93.918C454.944 89.441 452.368 88.474 445.473 88.474L444.118 88.471C437.031 88.471 432.291 89.657 429.141 91.444C423.755 88.48 416.137 88.475 412.755 88.475C391.771 88.475 387.158 95.364 387.044 101.245C382.892 93.622 373.797 88.809 362.128 88.809C360.187 88.809 358.255 88.889 356.387 88.966C355.517 89.001 354.651 89.038 353.794 89.064L353.346 89.088C350.743 89.247 348.284 89.396 345.896 89.396C344.593 89.396 343.129 89.26 341.486 89.096L341.305 89.078L341.124 89.07C340.567 89.043 340.018 89.007 339.473 88.972C338.251 88.892 336.989 88.811 335.604 88.811C327.834 88.811 323.193 91.269 320.807 94.549C315.987 90.697 309.38 88.225 301.045 88.225C299.521 88.225 297.666 88.382 295.317 88.58C291.228 88.925 285.628 89.397 278.034 89.397C277.085 89.397 276.153 89.357 275.223 89.319C274.103 89.273 272.985 89.229 271.843 89.229C267.704 89.229 264.608 90.373 262.448 92.129C260.262 89.506 257.315 87.722 253.516 87.722C252.128 87.722 251.033 88.057 250.234 88.302C249.075 88.657 246.663 89.396 239.375 89.396H215.277C214.935 89.396 214.554 89.386 214.144 89.376C213.546 89.361 212.901 89.345 212.237 89.345C208.51 89.345 205.769 90.031 203.716 91.059C199.904 89.066 194.765 88.475 190.088 88.475H189.397C177.958 88.475 172.96 91.788 171.032 95.673C166.976 88.476 154.784 88.475 149.002 88.475C138.418 88.475 132.129 90.092 128.611 93.718C126.598 95.793 125.623 98.359 125.713 101.305C125.713 106.375 129.093 109.119 130.718 110.438C130.826 110.526 130.95 110.626 131.068 110.724V127.904C129.785 127.41 128.395 127.132 126.911 127.132C119.848 127.132 117.782 133.333 117.004 135.667C116.097 138.388 115.974 138.757 112.275 138.763C112.238 138.292 112.212 137.65 112.212 136.783V110.576C116.599 108.724 118.822 105.552 118.822 101.137C118.822 88.474 103.456 88.474 94.277 88.474C80.42 88.474 74.148 91.973 71.599 96.158C66.51 90.91 58.303 88.809 50.429 88.809C48.935 88.809 47.484 88.891 46.082 88.971C45.473 89.006 44.866 89.04 44.268 89.067L43.967 89.087C42.143 89.246 40.42 89.395 38.715 89.395C35.806 89.395 32.89 89.237 29.804 89.07L29.615 89.063C28.604 89.036 27.594 88.999 26.583 88.962C24.491 88.887 22.33 88.809 20.14 88.809C13.751 88.809 7.142 93.17 7.142 100.469C7.142 105.049 9.369 108.301 13.761 110.138C13.833 110.65 13.894 111.504 13.841 112.837L12.919 136.95C12.809 140.027 12.438 141.43 12.25 141.958C10.919 142.724 6.974 145.025 6.974 151.007C6.974 157.404 12.463 162.415 19.47 162.415C22.509 162.415 25.429 162.331 28.395 162.158C30.99 162.082 33.918 161.997 36.707 161.997C39.149 161.997 41.496 162.074 43.976 162.157C46.621 162.331 49.337 162.415 52.272 162.415C61.021 162.415 67.676 160.017 72.431 156.277C73.543 158.398 75.388 160.067 77.837 161.015C80.069 161.879 82.353 161.998 84.489 161.998H113.106C115.543 161.997 116.919 162.217 117.945 162.433L118.234 162.487C118.579 162.545 118.903 162.608 119.219 162.67C120.367 162.892 121.799 163.168 123.565 163.168C129.702 163.168 134.465 157.459 137.014 151.078C137.472 151.668 137.93 152.258 138.438 152.809C144.781 159.683 154.501 163.168 167.329 163.168C185.608 163.168 194.32 155.773 198.41 149.569L198.419 149.554C198.324 150.136 198.263 150.753 198.263 151.425C198.263 156.536 201.568 161.996 210.843 161.996H245.232C247.436 161.996 249.318 162.171 250.978 162.326L251.442 162.369C251.919 162.438 252.361 162.507 252.762 162.569C254.067 162.771 255.009 162.918 255.942 162.918C259.2 162.918 261.93 161.138 264.126 158.517C267.824 161.435 274.161 162.918 283.138 162.918C293.534 162.918 305.926 160.721 305.926 150.255C305.926 146.001 303.844 142.886 299.733 140.992C299.706 140.849 299.677 140.671 299.651 140.455C300.16 140.478 300.681 140.492 301.21 140.492C311.46 140.492 319.981 136.428 325.115 129.86V137.619C325.115 139.497 324.867 140.334 324.769 140.594C324.636 140.685 324.419 140.818 324.25 140.922C322.771 141.835 318.84 144.257 318.84 149.836C318.84 158.516 326.535 162.918 341.711 162.918C347.295 162.918 357.469 162.918 362.02 157.531C365.478 161.223 370.681 163.671 378.945 163.671C385.716 163.671 390.494 162.175 393.715 159.969C397.896 162.257 403.715 162.918 408.987 162.918C414.551 162.918 424.069 162.917 429.93 159.144C434.696 162.534 441.806 162.918 444.717 162.918C462.339 162.918 464.242 153.77 464.242 149.836C464.242 143.677 459.778 141.288 458.311 140.503L458.307 140.501C458.258 140.237 458.209 139.906 458.164 139.492L480.063 159.122C481.942 160.752 484.913 162.918 488.981 162.918C491.808 162.918 494.466 161.809 496.465 159.794C500.808 155.416 501.116 148.072 501.063 141.533L501.06 122.68C502.913 123.89 505.101 124.595 507.475 124.595C510.646 124.595 513.205 123.555 515.269 122.117L514.815 134.666C514.74 136.539 514.571 138.358 514.396 139.617C509.285 141.422 506.694 144.801 506.694 149.67C506.694 153.296 508.429 159.712 520.052 161.953C524.499 162.81 529.24 162.92 532.872 162.92H533.582C540.204 162.92 557.792 162.92 557.792 149.67C557.792 142.284 552.049 140.144 550.161 139.442C550.15 139.437 550.138 139.433 550.126 139.428C550.108 139.22 550.095 138.954 550.095 138.624V122.414C552.014 123.698 554.438 124.595 557.514 124.595L557.516 124.594ZM77.861 115.541C78.02 118.424 78.185 121.404 78.185 124.398C78.185 124.856 78.185 125.326 78.184 125.787C76.85 123.834 75.228 122.137 73.473 120.746C75.251 117.913 76.343 114.563 76.592 111.047C76.94 111.186 77.274 111.334 77.65 111.456C77.71 112.813 77.785 114.172 77.861 115.54V115.541ZM176.159 135.351C175.375 136.148 173.724 136.587 171.512 136.587C169.258 136.587 165.85 136.587 165.85 127.244V112.002C165.869 111.612 165.898 111.297 165.93 111.045C168.628 109.931 170.487 108.206 171.492 105.891C173.175 108.483 175.805 109.638 176.93 110.133C176.998 110.163 177.073 110.196 177.149 110.23C177.163 110.391 177.172 110.594 177.172 110.844V131.896C177.197 133.414 176.826 134.673 176.157 135.351H176.159ZM204.805 137.404L204.553 141.176C204.524 141.615 204.481 141.941 204.437 142.176C203.666 142.531 202.292 143.204 201.035 144.433C202.443 140.81 203.169 136.776 203.169 132.348V109.804C203.207 109.785 203.254 109.76 203.295 109.739C203.674 109.921 204.054 110.102 204.472 110.255C204.592 110.795 204.732 111.705 204.799 113.152C205.291 122.047 205.293 130.131 204.804 137.404H204.805ZM255.278 128.604C255.405 127.248 255.47 125.816 255.47 124.315C255.47 123.026 255.414 121.365 255.213 119.555C255.451 119.567 255.694 119.573 255.943 119.573C260.825 119.573 264.707 116.544 266.377 111.893V130.096C264.633 128.632 262.416 127.717 259.793 127.717C258.027 127.717 256.538 128.057 255.278 128.604ZM385.162 124.11C387.942 120.566 389.52 116.019 389.52 111.094C389.52 110.011 389.416 108.966 389.266 107.94C390.509 109.498 391.979 110.475 392.857 111.056C393.045 111.181 393.274 111.332 393.448 111.45C393.647 112.416 393.985 115.022 393.985 121.553V129.837C393.985 136.483 393.696 139.644 393.472 141.1C393.219 140.991 392.963 140.884 392.689 140.787C391.86 134.575 390.244 128.439 385.163 124.111L385.162 124.11ZM428.588 139.98C428.43 138.53 428.265 135.629 428.265 129.837V121.553C428.265 116.18 428.418 112.548 428.721 110.719L428.751 110.703C428.885 110.632 429.04 110.548 429.205 110.457C429.502 110.615 429.769 110.747 429.991 110.855C430.194 110.955 430.453 111.082 430.617 111.174C430.682 111.333 430.793 111.663 430.884 112.23C431.723 117.731 431.723 123.367 431.723 129.335C431.723 133.68 431.509 137.711 431.128 140.393C430.885 140.538 430.576 140.724 430.235 140.949C429.607 140.531 429.028 140.213 428.588 139.98Z" fill="#005A8D"/>
<path d="M65.071 119.879C64.318 120.549 63.566 121.051 63.566 122.138C63.566 123.225 64.485 123.561 65.323 123.979C68.754 125.318 74.695 129.753 74.695 136.781C74.695 145.149 69.088 155.44 52.27 155.44C49.425 155.44 46.83 155.357 44.32 155.189C41.81 155.105 39.3 155.021 36.705 155.021C33.86 155.021 30.932 155.105 28.087 155.189C25.242 155.357 22.397 155.44 19.469 155.44C16.874 155.44 13.946 153.934 13.946 151.005C13.946 145.817 19.386 151.089 19.887 137.199L20.808 113.101C21.311 100.466 14.114 106.239 14.114 100.466C14.114 97.286 17.545 95.78 20.139 95.78C23.235 95.78 26.33 95.948 29.426 96.031C32.522 96.199 35.617 96.366 38.715 96.366C40.723 96.366 42.647 96.198 44.571 96.031C46.495 95.947 48.504 95.78 50.429 95.78C65.741 95.78 69.673 103.06 69.673 109.503C69.673 113.352 68.084 117.452 65.071 119.878V119.879ZM40.722 116.198C40.722 119.461 40.554 121.051 43.149 121.051C48.169 121.051 49.34 117.536 49.34 112.934C49.34 109.168 48.086 104.483 43.484 104.483C40.387 104.483 40.722 106.993 40.722 109.419V116.197V116.198ZM40.722 136.615C40.722 146.321 42.311 146.572 44.906 146.572C49.676 146.572 51.349 143.309 51.349 138.957C51.349 133.853 49.843 129.334 43.985 129.334C41.392 129.334 40.806 130.673 40.722 132.43V136.614V136.615Z" fill="#FFEBDA"/>
<path d="M85.157 155.023C82.479 155.023 78.211 155.191 78.211 151.342C78.211 146.154 84.737 150.505 84.989 140.798C85.157 134.69 85.157 129.334 85.157 124.398C85.157 119.377 84.738 114.691 84.57 110.006C84.404 102.978 77.04 106.659 77.04 101.889C77.04 95.781 90.177 95.446 94.277 95.446C111.013 95.446 111.849 98.291 111.849 101.136C111.849 105.989 105.239 102.308 105.239 110.173V136.781C105.239 142.806 106.243 145.734 112.184 145.734C126.408 145.734 121.556 134.103 126.911 134.103C130.677 134.103 132.099 138.119 132.099 141.299C132.099 147.826 127.413 156.193 123.564 156.193C122.058 156.193 120.886 155.859 119.38 155.607C117.791 155.273 115.951 155.021 113.105 155.021H85.158L85.157 155.023Z" fill="#FFEBDA"/>
<path d="M184.145 110.843C184.145 101.89 176.95 105.32 176.95 100.468C176.95 95.28 186.655 95.447 190.086 95.447C193.266 95.447 202.47 95.447 202.47 100.3C202.47 104.986 196.194 102.141 196.194 109.755V132.347C196.194 136.112 196.278 156.194 167.326 156.194C134.359 156.194 138.04 130.757 138.04 129.753V110.424C138.375 105.152 132.685 105.152 132.685 101.303C132.685 100.132 131.764 95.446 149.001 95.446C162.641 95.446 165.402 97.956 165.402 101.219C165.402 107.244 159.294 101.638 158.876 111.846V127.243C158.876 137.2 162.642 143.559 171.511 143.559C184.731 143.559 184.146 132.598 184.146 131.677V110.842L184.145 110.843Z" fill="#FFEBDA"/>
<path d="M239.374 96.367C250.586 96.367 252.176 94.693 253.515 94.693C258.285 94.693 260.292 102.893 260.292 106.575C260.292 109.336 259.205 112.6 255.941 112.6C249.331 112.6 254.687 104.567 238.789 104.567C229.5 104.567 230.421 106.241 230.421 115.863C230.421 120.716 230.672 120.884 235.776 120.884C242.135 120.884 237.365 111.596 243.306 111.596C248.16 111.596 248.495 121.051 248.495 124.315C248.495 127.746 247.908 137.787 242.888 137.787C237.7 137.787 242.888 129.001 234.437 129.001C230.923 129.001 231.006 132.18 231.006 134.858C231.006 147.075 231.842 146.489 240.628 146.489C257.782 146.489 252.929 134.69 259.791 134.69C262.469 134.69 263.807 137.703 263.807 140.045C263.807 145.735 259.288 155.944 255.94 155.944C255.354 155.944 254.016 155.693 252.259 155.441C250.419 155.274 248.075 155.023 245.23 155.023H210.841C205.318 155.023 205.234 152.513 205.234 151.425C205.234 146.823 210.924 150.505 211.51 141.635C212.514 126.406 212.598 127.912 211.761 112.767C211.175 99.965 204.816 106.575 204.816 100.634C204.816 95.53 211.845 96.367 215.276 96.367H239.374Z" fill="#FFEBDA"/>
<path d="M273.348 109.086C273.348 102.81 265.566 105.571 265.566 100.3C265.566 96.953 269.247 96.2 271.842 96.2C273.934 96.2 275.941 96.368 278.033 96.368C290.167 96.368 297.529 95.196 301.045 95.196C312.424 95.196 323.385 101.807 323.385 114.358C323.385 126.825 312.842 133.519 301.211 133.519C298.701 133.519 296.191 133.101 293.931 133.101C292.927 133.101 292.592 133.519 292.592 134.44V139.293C292.844 149.752 298.952 145.401 298.952 150.254C298.952 155.693 286.903 155.944 283.137 155.944C279.623 155.944 267.239 155.86 267.239 150.421C267.239 145.819 273.347 148.664 273.347 141.803V109.086H273.348ZM295.773 105.07C292.51 105.07 292.593 106.074 292.593 107.748V120.299C292.593 122.056 291.841 123.98 296.359 123.98C301.882 123.98 304.057 119.797 304.057 114.692C304.057 109.421 301.379 105.07 295.774 105.07H295.773Z" fill="#FFEBDA"/>
<path d="M332.089 113.771C332.089 100.801 325.73 106.156 325.73 100.969C325.73 96.3669 332.256 95.7809 335.604 95.7809C337.361 95.7809 339.035 95.9489 340.792 96.0319C342.466 96.1999 344.223 96.3669 345.897 96.3669C348.575 96.3669 351.252 96.1989 354.013 96.0319C356.691 95.9479 359.451 95.7809 362.129 95.7809C371.585 95.7809 382.546 99.9649 382.546 111.094C382.546 116.114 380.12 120.967 375.434 123.227C374.681 123.645 374.095 123.896 374.095 124.9C374.095 126.155 375.183 126.49 376.187 126.908C382.045 129.084 384.638 132.933 385.809 141.97C386.813 149.752 392.252 145.066 392.252 150.17C392.252 153.349 388.403 156.697 378.947 156.697C365.559 156.697 363.887 148.999 361.292 137.954C360.371 134.104 358.949 130.339 354.347 130.339C352.506 130.339 351.837 130.59 351.837 135.862C351.837 138.288 352.003 141.635 352.423 143.978C353.092 147.828 357.359 146.656 357.359 150.672C357.359 153.685 355.268 155.944 341.713 155.944C337.697 155.944 325.815 155.944 325.815 149.836C325.815 145.485 332.09 148.497 332.09 137.619V113.772L332.089 113.771ZM351.502 117.452C351.334 119.628 350.916 121.468 353.677 121.468C359.117 121.468 360.874 118.456 360.874 113.268C360.874 109.168 359.87 104.985 355.016 104.985C351.92 104.985 352.003 106.909 351.837 109.503L351.502 117.452Z" fill="#FFEBDA"/>
<path d="M400.956 121.553C400.956 110.926 400.12 108.5 399.199 107.328C397.275 104.902 394.011 104.65 394.011 101.471C394.011 95.446 411.08 95.446 412.754 95.446C417.774 95.446 428.066 95.614 428.066 101.303C428.066 104.316 424.887 104.148 422.963 106.324C421.372 108.165 421.289 115.696 421.289 121.553V129.837C421.289 144.731 422.293 144.396 423.967 145.4C426.059 146.655 428.066 147.074 428.066 149.668C428.066 152.178 427.313 155.944 408.988 155.944C405.474 155.944 394.931 155.86 394.931 150.505C394.931 147.827 397.776 147.409 399.115 145.819C400.119 144.648 400.955 141.551 400.955 129.837V121.553H400.956Z" fill="#FFEBDA"/>
<path d="M475.177 116.533C476.181 117.369 478.858 119.796 480.365 119.796C482.457 119.796 482.541 116.365 482.541 114.943C482.541 112.851 482.457 109.253 481.788 107.328C480.617 103.813 476.181 105.069 476.181 100.55C476.181 95.195 484.716 95.446 488.23 95.446C491.913 95.446 501.032 95.028 501.032 100.801C501.032 105.571 496.597 103.813 495.176 107.663C494.088 110.675 494.088 115.863 494.088 119.043V140.714C494.088 144.48 494.591 155.943 488.983 155.943C487.311 155.943 485.887 154.939 484.633 153.851L458.776 130.673C457.605 129.585 455.43 127.577 453.673 127.577C451.078 127.577 450.995 133.016 450.995 134.773C450.995 137.116 451.078 140.212 451.581 142.388C452.835 147.743 457.271 145.735 457.271 149.835C457.271 155.441 448.653 155.943 444.719 155.943C440.87 155.943 432.252 155.44 432.252 150.002C432.252 145.567 437.105 147.324 437.942 141.969C438.528 138.371 438.694 133.099 438.694 129.333C438.694 123.308 438.694 117.2 437.775 111.176C436.436 102.808 430.411 106.071 430.411 101.051C430.411 95.11 441.707 95.445 445.473 95.445C450.661 95.445 451.581 95.779 455.346 99.127L475.177 116.531V116.533Z" fill="#FFEBDA"/>
<path d="M543.96 96.367C547.558 96.367 549.231 96.032 550.486 95.781C551.657 95.447 552.327 95.195 553.917 95.195C557.18 95.195 563.957 101.638 563.957 110.675C563.957 114.859 561.782 117.62 557.515 117.62C550.235 117.62 550.318 107.747 546.051 107.747C542.788 107.747 543.123 112.265 543.123 112.935V138.623C543.123 148.581 550.821 143.811 550.821 149.668C550.821 152.262 549.23 155.944 533.584 155.944C529.316 155.944 513.67 156.111 513.67 149.668C513.67 145.233 518.858 146.99 520.53 143.811C521.368 142.053 521.703 137.033 521.786 134.941L522.455 116.449C522.79 107.663 521.033 107.747 519.862 107.747C516.096 107.747 514.256 117.62 507.478 117.62C504.215 117.62 502.29 114.607 502.29 111.595C502.29 104.483 508.315 95.194 513.083 95.194C513.67 95.194 514.589 95.445 516.18 95.78C517.769 96.031 520.029 96.366 523.375 96.366H543.96V96.367Z" fill="#FFEBDA"/>
<path d="M341.011 87.72C330.358 83.24 326.43 90.793 320.907 87.72C316.331 90.688 311.038 87.469 302.43 87.469H302.098C296.054 87.469 291.125 86.74 287.164 85.252C283.247 86.741 278.456 87.469 272.644 87.469C268.884 87.469 260.979 87.469 254.361 84.33C249.431 86.508 243.845 87.719 238.504 87.719C224.574 87.719 209.58 78.616 209.58 58.628V50.966C208.386 50.307 207.291 49.481 206.302 48.492C201.629 43.82 201.741 38.369 201.788 36.041L201.796 35.359L201.791 35.175C201.561 29.153 204.034 24.07 208.759 20.919L228.091 8.621C230.63 7.074 233.603 5.499 238.244 5.499C238.507 5.499 239.625 5.521 239.926 5.521L241.172 5.514C245.414 5.514 248.687 6.642 251.144 8.472C255.339 5.203 260.807 3.249 265.792 2.082C271.953 0.64 278.481 0 279.924 0C289.621 0 296.024 6.198 296.517 15.903C296.704 15.9 296.89 15.898 297.078 15.898C305.56 15.898 312.811 18.854 317.848 24.198C324.493 18.899 332.906 15.898 341.679 15.898C354.594 15.898 362.784 21.667 367.378 26.507C372.856 32.274 376.127 39.966 376.127 47.081C376.127 51.176 375.273 54.845 373.626 57.915C374.062 59.474 374.285 61.065 374.285 62.644C374.285 70.946 369.01 78.387 359.814 83.058C353.986 86.02 347.131 87.719 341.01 87.719L341.011 87.72Z" fill="#172F56"/>
<path d="M369.154 47.081C369.154 41.709 366.6 35.813 362.321 31.308C358.667 27.459 352.119 22.871 341.679 22.871C331.365 22.871 322.237 27.812 316.718 35.351C316.477 34.726 316.204 34.098 315.891 33.472C312.471 26.636 305.789 22.871 297.078 22.871C293.992 22.871 291.45 23.442 289.352 24.302L289.575 17.125C289.575 8.29099 283.528 6.97198 279.924 6.97198C279.266 6.97198 273.257 7.49599 267.383 8.87099C263.358 9.81298 251.112 12.681 251.112 22.397C251.112 22.56 251.125 22.713 251.131 22.871H250.414C250.413 20.168 250.286 12.487 241.213 12.487L239.926 12.494C239.551 12.494 239.244 12.487 238.982 12.482C238.703 12.476 238.462 12.472 238.244 12.472C235.402 12.472 233.713 13.359 231.833 14.504L212.628 26.72C209.922 28.525 208.621 31.299 208.761 34.965L208.771 35.282C208.771 35.618 208.764 35.917 208.76 36.182C208.723 37.981 208.665 40.992 211.232 43.56C212.933 45.261 214.95 45.748 216.553 45.888V58.628C216.553 73.907 227.578 80.746 238.504 80.746C244.099 80.746 249.981 79.131 254.639 76.36C259.782 80.49 268.891 80.496 272.645 80.496C279.566 80.496 284.163 79.325 287.159 77.56C290.448 79.512 295.436 80.496 302.098 80.496H302.43C312.389 80.496 318.73 78.359 321.406 74.145C325.524 77.541 331.839 80.746 341.01 80.746C345.995 80.746 351.844 79.287 356.656 76.841C363.528 73.35 367.312 68.308 367.312 62.644C367.312 60.747 366.744 58.768 365.743 57.013C367.949 54.734 369.153 51.35 369.153 47.08L369.154 47.081ZM250.415 45.938H252.311C254.008 45.938 255.413 45.711 256.619 45.346C256.592 48.553 256.53 51.068 256.448 53.038C255.575 52.747 254.643 52.576 253.65 52.576C252.415 52.576 251.329 52.837 250.415 53.175V45.938Z" fill="#005A8D"/>
<path d="M243.442 54.529C243.442 60.135 245.785 61.474 248.044 61.474C250.637 61.474 252.143 59.55 253.65 59.55C255.324 59.55 256.495 61.893 256.495 63.399C256.495 68.922 246.956 73.774 238.505 73.774C234.238 73.774 223.528 71.933 223.528 58.629V41.392C223.528 39.886 223.528 39.3 223.109 39.049C222.691 38.798 221.77 38.965 219.846 38.965C217.671 38.965 216.583 39.049 216.165 38.631C215.579 38.045 215.747 37.208 215.747 35.284C215.747 34.113 215.496 33.192 216.5 32.523L235.578 20.39C237.502 19.219 237.418 19.469 239.928 19.469C243.276 19.469 243.443 19.135 243.443 22.984C243.443 25.578 243.275 28.172 243.694 29.176C243.945 29.845 244.53 29.845 246.707 29.845H252.563C256.161 29.845 256.161 30.096 256.161 33.861C256.161 38.631 255.575 38.965 252.312 38.965H246.539C243.611 38.965 243.443 39.049 243.443 42.061V54.528L243.442 54.529Z" fill="#FFEBDA"/>
<path d="M285.364 68.586C285.364 73.439 275.825 73.523 272.645 73.523C260.68 73.523 257.918 71.012 257.918 68.418C257.918 65.071 261.181 66.577 262.604 61.138C263.608 57.205 263.608 46.161 263.608 41.558C263.608 37.793 263.357 33.944 263.273 30.178C263.107 24.237 258.085 26.329 258.085 22.396C258.085 15.702 279.841 13.945 279.924 13.945C282.435 13.945 282.602 14.697 282.602 17.124L282.101 33.022C282.017 34.612 281.933 37.29 284.109 37.29C286.619 37.29 287.707 29.843 297.079 29.843C312.476 29.843 311.388 44.319 311.471 46.662L311.806 60.134C311.806 67.246 315.907 65.489 315.907 68.752C315.907 73.605 305.197 73.522 302.1 73.522C299.507 73.522 289.382 73.522 289.382 69.254C289.382 66.828 291.725 66.911 292.395 62.644C292.896 59.966 292.981 57.038 292.981 54.276C292.981 50.093 292.897 42.227 286.956 42.227C281.853 42.227 282.019 46.578 282.019 50.344" fill="#FFEBDA"/>
<path d="M338.835 53.357C337.916 53.357 336.577 53.106 336.577 54.528C336.577 58.712 342.015 62.226 345.949 62.226C352.224 62.226 355.321 58.46 357.078 58.46C358.835 58.46 360.341 61.054 360.341 62.644C360.341 69.087 348.542 73.773 341.012 73.773C325.95 73.773 318.168 62.895 318.168 52.102C318.168 39.216 329.13 29.844 341.681 29.844C355.907 29.844 362.182 40.806 362.182 47.081C362.182 52.604 359.671 53.357 356.993 53.357H338.835ZM346.116 42.813C346.116 39.801 344.275 37.458 341.179 37.458C338.417 37.458 336.157 40.303 336.157 42.981C336.157 45.994 339.002 45.324 341.179 45.324C343.438 45.324 346.116 45.826 346.116 42.813Z" fill="#FFEBDA"/>
</g>
<defs>
<clipPath id="clip0_52239_85064">
<rect width="577.904" height="199.083" fill="white"/>
</clipPath>
</defs>
</svg>
