<svg width="74" height="24" viewBox="0 0 74 24" fill="none" xmlns="http://www.w3.org/2000/svg">
<path d="M72.52 8.57193C60.0404 9.00399 47.9252 9.93362 35.6279 11.2857C29.7492 11.9321 24.0244 12.3712 18.0765 12.3712C16.716 12.3712 10.0569 13.0562 9.04518 12.2506C8.3954 11.7332 25.1673 7.78253 26.4688 7.48641C33.0082 5.99863 38.911 4.16089 44.8723 1.78745C46.8875 0.985089 45.617 0.936286 43.9776 1.33515C38.968 2.55404 34.4593 4.80887 29.5787 6.28028C22.3652 8.45497 15.1057 11.1711 7.34117 12.2506C5.61756 12.4903 -1.93034 13.581 3.29411 14.8136C17.3685 18.1343 32.8739 17.7809 46.7893 21.3268C47.0862 21.4024 50.3278 22.2907 49.9843 22.4123C45.5608 23.9778 35.782 21.3922 31.1975 20.8443C27.9691 20.4585 20.0586 20.712 21.3142 17.2561C23.0787 12.399 31.2966 10.5313 36.906 8.57193C37.9863 8.19454 47.3425 5.85814 42.8274 5.85814C32.9185 5.85814 21.7485 7.86451 13.2626 11.5269C11.0624 12.4765 6.67192 14.3351 5.80755 16.1705" stroke="#49454F" stroke-width="2" stroke-linecap="round"/>
</svg>
