<svg width="1043" height="224" viewBox="0 0 1043 224" fill="none" xmlns="http://www.w3.org/2000/svg">
<path d="M1009.69 74.2069C1003.43 84.4723 990.845 90.8423 979.653 94.5736C975.44 95.978 971.626 96.4739 967.371 97.1831C961.19 98.2134 968.753 99.08 971.316 99.4744C985.119 101.598 992.507 121.82 992.507 133.525C992.507 137.907 991.202 141.659 990.28 145.809C989.462 149.489 994.107 143.636 995.944 141.799C1005.71 132.027 1022.03 128.051 1035.46 128.051C1037.03 128.051 1038.47 126.538 1039.98 126.969C1041.55 127.419 1041.18 128.961 1039.73 127.797C1036.91 125.547 1034.83 122.362 1032.34 119.777C1028.25 115.517 1024.6 110.324 1021.72 105.203C1018.39 99.2826 1018.07 93.5729 1015.99 87.318C1014.47 82.7688 1018.68 76.5683 1015.67 72.8067C1014.44 71.2619 1017.14 69.6344 1016.5 68.0333C1016.3 67.5401 1011.21 72.6868 1010.83 73.0613" stroke="#FFC700" stroke-width="3" stroke-linecap="round" stroke-linejoin="round"/>
<path d="M260.285 5.53559C256.744 11.383 249.623 15.0114 243.29 17.1369C240.907 17.9368 238.749 18.2193 236.341 18.6233C232.844 19.2102 237.124 19.7038 238.574 19.9284C246.383 21.1382 250.563 32.6567 250.563 39.3244C250.563 41.8203 249.825 43.9579 249.303 46.3214C248.84 48.4178 251.468 45.0838 252.508 44.0374C258.035 38.4712 267.269 36.2065 274.866 36.2065C275.752 36.2065 276.569 35.3447 277.423 35.5902C278.313 35.8462 278.102 36.7247 277.279 36.0615C275.688 34.7797 274.508 32.9658 273.102 31.4935C270.784 29.0664 268.719 26.1088 267.089 23.1913C265.206 19.8192 265.028 16.5668 263.849 13.0039C262.991 10.4126 265.371 6.88066 263.669 4.738C262.97 3.85805 264.499 2.931 264.137 2.01895C264.025 1.73805 261.144 4.66971 260.933 4.88302" stroke="#FFC700" stroke-width="3" stroke-linecap="round" stroke-linejoin="round"/>
<path d="M851.519 8C847.07 8.1011 842.754 14.3441 843.011 18.7135C843.051 19.3931 844.742 20.3306 845.217 20.7792C846.314 21.8152 848.621 22.4947 850.066 22.4947C853.392 22.4947 858.893 21.6798 857.191 16.9979C856.632 15.4617 851.46 14.3021 853.094 14.3021" stroke="#121212" stroke-width="2" stroke-linecap="round"/>
<path d="M23.6703 41C33.609 44.5078 42.0958 52.3974 42.3498 63.8306C42.5312 71.9912 44.2331 82.7631 42.1314 90.7029C39.2358 101.642 16.1291 90.9749 11.3265 88.9551C6.91117 87.0982 1.24716 84.6042 1.05818 79.1238C0.890744 74.2681 0.878147 68.728 4.00759 64.7045C7.4021 60.3401 12.3799 55.747 18.263 55.747C21.0281 55.747 22.397 62.8039 23.6703 65.0322C25.1991 67.7076 25.1057 70.5901 23.0149 73.0611C16.9284 80.2542 10.573 71.1439 13.8389 69.5109" stroke="#121212" stroke-width="2" stroke-linecap="round"/>
<g clip-path="url(#clip0_555_38590)">
<path d="M842.344 224C829.296 224 819.111 222.231 811.253 218.642C803.396 215.053 798.449 210.149 794.956 203.83C787.778 203.83 781.958 203.022 777.01 201.354C771.918 202.971 766 203.83 759.355 203.83C752.71 203.83 746.308 203.072 741.312 201.404C736.268 203.072 730.351 203.83 722.736 203.83C715.121 203.83 709.106 203.072 704.062 201.404C699.018 203.072 693.052 203.83 685.388 203.83C675.833 203.83 668.995 202.668 663.174 200.039C661.363 199.228 659.626 198.246 657.984 197.107C651.776 201.404 644.355 203.628 635.916 203.628C628.883 203.628 622.771 202.314 617.533 199.685C612.101 202.314 605.892 203.628 598.908 203.628C590.177 203.628 582.417 201.303 576.063 196.753C568.939 201.237 560.764 203.581 552.442 203.527C547.543 203.565 542.668 202.815 537.988 201.303C532.473 203.155 526.71 204.077 520.915 204.033C510.778 204.033 501.757 200.848 494.869 195.186C491.751 197.753 488.22 199.721 484.441 201C476.293 203.83 467.805 203.83 463.246 203.83C455.049 203.83 448.21 202.668 442.438 200.343C434.916 202.811 427.09 204.122 419.205 204.235C415.106 204.284 411.031 203.565 407.176 202.112C403.182 203.375 399.031 204.022 394.857 204.033C383.361 204.033 373.079 199.584 365.561 191.446C356.103 199.685 342.716 204.437 327.535 204.437C318.562 204.437 310.171 202.718 302.895 199.433L301.634 200.039C295.814 202.668 288.975 203.83 279.42 203.83C269.865 203.83 263.026 202.668 257.205 200.039H257.108C250.464 202.819 242.994 204.184 234.846 204.184C223.933 204.184 215.881 201.354 210.109 197.815C203.707 201.303 194.928 204.184 183.287 204.184C175.769 204.184 168.979 202.87 163.061 200.191C157.29 202.718 150.548 203.881 141.138 203.881C133.475 203.881 127.509 203.123 122.465 201.455C117.42 203.123 111.454 203.881 103.791 203.881C94.236 203.881 87.3971 202.718 81.5767 200.09C70.0816 194.833 63.2912 184.065 63.2912 171.175C63.2446 166.945 64.0201 162.75 65.5708 158.841V126.034C63.8831 121.979 62.9925 117.613 62.9517 113.194C62.9517 103.337 67.1714 94.8948 75.1259 88.7277C84.6809 81.3473 98.1162 76.9495 111.066 76.9495C118.051 76.9495 123.386 78.8198 127.363 81.1957C133.455 79.4152 139.759 78.5471 146.086 78.6176C159.763 78.6176 168.736 84.1782 174.023 91.5585C177.959 90.0001 182.133 89.1952 186.343 89.1826C196.092 89.1826 204.774 93.5299 210.255 100.658C218.015 94.9959 226.746 89.1826 237.901 89.1826C241.395 89.1818 244.866 89.762 248.184 90.9013C248.992 90.1599 249.833 89.4354 250.706 88.7277C260.261 81.3473 273.696 76.9495 286.647 76.9495C305.223 76.9495 312.402 89.5365 314.633 94.9453C315.43 96.8846 316.047 98.899 316.476 100.961C320.896 100.009 325.398 99.5352 329.911 99.5454C346.742 99.5454 358.819 105.409 366.773 113.346C372.297 107.677 379.183 103.661 386.708 101.719C388.648 96.4113 392.14 91.8112 396.991 88.0705L397.136 87.9694C410.765 77.7583 428.566 76.9495 433.707 76.9495C452.284 76.9495 459.462 89.5365 461.693 94.9453C462.438 96.7737 463.023 98.6686 463.44 100.607C465.872 100.334 468.317 100.199 470.763 100.203C474.26 100.171 477.742 100.682 481.095 101.719C485.007 100.293 489.124 99.5747 493.269 99.596C496.809 99.596 504.521 100.203 511.942 104.702C519.897 101.567 529.209 100 539.734 100C548.95 100 557.098 101.416 563.937 104.145C570.097 101.416 577.615 100.101 587.17 100.101C594.009 100.101 600.12 101.011 605.359 102.831C610.646 100.961 616.854 100.101 624.711 100.101C631.405 100.101 637.419 100.961 642.609 102.73C644.004 102.187 645.43 101.731 646.877 101.365C649.025 96.3306 652.424 91.9852 656.723 88.7782C666.278 81.3979 679.714 77 692.664 77C699.648 77 704.984 78.8704 708.961 81.2462C715.053 79.4657 721.356 78.5976 727.683 78.6682C745.92 78.6682 756.348 88.576 760.083 100.607C762.419 100.345 764.766 100.21 767.116 100.203C771.199 100.158 775.256 100.877 779.096 102.326C784.129 100.746 789.361 99.9625 794.617 100C802.474 100 809.556 101.921 815.424 105.662C823.719 101.921 833.904 100 845.787 100C849.27 99.9933 852.751 100.179 856.215 100.556L856.652 100.304C859.853 98.3322 866.401 94.2882 875.131 94.2882C881.731 94.2295 888.126 96.6728 893.126 101.163C900.784 99.336 908.714 99.1126 916.456 100.506C919.332 99.6875 922.302 99.2793 925.283 99.2927C944.879 99.2927 960.205 115.014 960.205 135.082C960.212 138.266 959.771 141.434 958.896 144.485C960.942 149.574 961.981 155.041 961.952 160.56C961.952 172.186 957.683 182.953 950.02 190.89C944.054 197.006 933.141 204.285 915.001 204.285C911.068 204.289 907.142 203.951 903.263 203.274C900.174 204.211 896.974 204.687 893.757 204.69C890.429 208.911 886.384 212.458 881.825 215.154C871.979 221.068 859.029 223.949 842.344 223.949" fill="#FFC2D2"/>
<path d="M946.673 145.041C948.289 141.993 949.124 138.564 949.098 135.082C949.098 121.535 938.67 110.919 925.283 110.919C922.509 110.908 919.758 111.458 917.183 112.537C913.653 111.679 910.041 111.238 906.416 111.223C900.569 111.144 894.765 112.278 889.343 114.559C886.287 108.644 880.661 105.864 875.083 105.864C869.505 105.864 865.771 108.088 862.375 110.212L862.23 110.313C859.708 111.93 858.98 112.335 858.01 112.486C853.962 111.88 849.876 111.592 845.787 111.627C830.8 111.627 820.857 114.913 814.309 119.462C809.653 114.407 802.911 111.627 794.617 111.627C788.069 111.627 782.782 112.941 778.514 114.963C775.458 112.941 771.626 111.88 767.116 111.88C761.433 111.904 755.782 112.772 750.334 114.458C750.484 113.471 750.565 112.474 750.576 111.475C750.576 101.264 744.562 90.3453 727.683 90.3453C719.583 90.3453 712.599 91.7607 707.069 94.3893C704.305 91.3563 699.842 88.6771 692.664 88.6771C682.187 88.6771 670.935 92.3167 663.368 98.1806C658.663 101.77 656.19 106.42 655.802 111.93C651.306 111.96 646.888 113.159 642.948 115.418C638.68 113.245 632.811 111.779 624.76 111.779C616.708 111.779 610.112 112.941 605.456 115.469C601.236 113.245 595.367 111.779 587.219 111.779C577.179 111.779 570.146 113.346 565.053 116.682L564.325 117.187C557.098 112.941 548.028 111.677 539.734 111.677C527.124 111.677 517.472 114.205 510.536 118.198C504.667 111.981 496.664 111.273 493.269 111.273C489.07 111.248 484.933 112.325 481.24 114.407C478.572 112.84 475.177 111.93 470.763 111.93C464.876 111.96 459.024 112.896 453.399 114.71C453.399 109.049 453.254 104.145 451.459 99.6465C449.665 95.1476 445.251 88.7277 433.756 88.7277C424.928 88.7277 412.414 91.053 403.781 97.5234L403.684 97.6245C398.834 101.365 396.263 106.218 396.069 112.031C381.712 113.497 371.575 121.585 366.87 134.779C363.087 122.141 350.573 111.374 329.96 111.374C321.035 111.374 313.032 113.447 306.387 117.238V115.974C306.387 109.858 306.387 104.55 304.399 99.7476C302.41 94.9453 298.19 88.8288 286.695 88.8288C276.219 88.8288 264.966 92.4684 257.399 98.3322C254.732 100.304 252.608 102.971 251.24 106.066C247.893 102.932 243.237 101.062 237.95 101.062C229.365 101.062 222.332 106.269 214.765 111.829C213.213 112.992 211.419 114.357 209.527 115.924C208.01 115.273 206.408 114.864 204.774 114.71C202.688 106.572 195.558 101.062 186.343 101.062C179.892 101.062 174.314 103.994 168.688 107.836C167.33 98.8883 160.879 90.4969 146.085 90.4969C137.985 90.4969 131.001 91.9123 125.472 94.5409C122.707 91.5079 118.245 88.8288 111.066 88.8288C100.59 88.8288 89.3371 92.4684 81.7707 98.3322C76.7264 102.225 74.1558 107.33 74.1558 113.447C74.1558 117.642 75.5623 121.029 76.4839 123.152L76.7749 123.911V161.621C75.2192 164.615 74.4181 167.972 74.4468 171.377C74.4468 179.617 78.6665 186.239 85.9905 189.575C90.3557 191.547 95.8365 192.406 103.742 192.406C111.648 192.406 117.178 191.547 121.495 189.575L122.368 189.12L123.241 189.575C127.606 191.547 133.087 192.406 140.993 192.406C148.899 192.406 154.428 191.547 158.745 189.575C160.168 188.924 161.519 188.11 162.77 187.149C167.136 190.131 173.635 192.709 183.093 192.709C196.819 192.709 205.453 188.008 210.4 183.863C214.377 187.958 221.798 192.709 234.7 192.709C244.886 192.709 252.21 190.131 257.399 187.098C258.679 188.084 260.063 188.915 261.522 189.575C265.887 191.547 271.368 192.406 279.274 192.406C287.18 192.406 292.71 191.547 297.026 189.575C298.889 188.734 300.621 187.609 302.168 186.239C308.861 190.637 317.397 193.013 327.292 193.013C346.16 193.013 360.953 184.47 366.385 171.529C367.592 175.168 369.379 178.569 371.672 181.588C377.153 188.716 385.301 192.608 394.662 192.608C399.129 192.591 403.542 191.592 407.613 189.676C410.668 191.698 414.5 192.81 419.059 192.81C425.898 192.81 435.647 191.092 442.874 187.958C447.288 190.637 453.739 192.406 463.148 192.406C471.2 192.406 491.959 192.406 493.754 174.511C497.391 185.531 507.529 192.608 520.867 192.608C526.733 192.686 532.549 191.48 537.94 189.07C541.626 190.839 546.379 192.103 552.394 192.103C561.318 192.103 570.679 188.716 576.403 181.487C580.428 186.896 587.073 192.204 598.859 192.204C607.638 192.204 613.507 189.626 617.63 186.188C621.947 189.98 627.67 192.204 635.916 192.204C647.847 192.204 654.395 186.694 658.324 181.032C660.403 184.884 663.667 187.894 667.588 189.575C671.953 191.547 677.434 192.406 685.34 192.406C693.246 192.406 698.775 191.547 703.092 189.575L703.965 189.12L704.838 189.575C709.203 191.547 714.684 192.406 722.59 192.406C730.496 192.406 736.025 191.547 740.342 189.575L741.167 189.171L741.991 189.575C746.357 191.547 751.643 192.406 759.21 192.406C766.776 192.406 772.791 191.142 776.962 189.12L778.514 189.828C782.685 191.597 787.923 192.406 794.956 192.406C797.434 192.423 799.911 192.305 802.377 192.052C803.541 199.028 808.246 204.791 815.619 208.228C822.021 211.16 830.751 212.626 842.247 212.626C856.943 212.626 868.05 210.25 876.15 205.398C881.485 202.162 885.511 197.916 888.082 192.81C889.835 193.21 891.623 193.413 893.417 193.417C896.463 193.441 899.483 192.822 902.293 191.597C906.436 192.536 910.664 193.011 914.904 193.013C939.64 193.013 950.747 176.887 950.747 160.913C950.814 155.415 949.366 150.011 946.576 145.344" fill="#025563"/>
<path d="M119.603 162.177V116.176C119.603 105.611 119.7 100.253 111.067 100.253C102.433 100.253 94.1877 102.932 88.3674 107.431C86.0392 109.201 85.2632 110.869 85.2632 113.194C85.2632 115.519 85.9422 116.631 86.6698 118.3C87.399 119.827 87.8121 121.498 87.8823 123.203V162.127C87.9169 163.641 87.5294 165.134 86.7668 166.423C86.0877 167.889 85.5542 168.951 85.5542 171.124C85.5542 178.656 92.3931 180.527 103.743 180.527C115.092 180.527 121.931 178.656 121.931 171.124C121.931 168.951 121.446 167.889 120.719 166.423C119.956 165.134 119.569 163.641 119.603 162.127" fill="#5CC1FF"/>
<path d="M156.95 162.177V138.621C156.95 128.561 156.853 123.456 148.414 123.456C139.974 123.456 131.438 125.629 125.811 130.027C123.483 131.796 122.804 133.465 122.804 135.79C122.804 138.115 123.483 139.429 124.114 141.148C124.799 142.688 125.178 144.355 125.229 146.052V162.177C125.264 163.692 124.876 165.184 124.114 166.474C123.435 167.94 122.901 169.001 122.901 171.175C122.901 178.707 129.74 180.577 141.09 180.577C152.439 180.577 159.278 178.707 159.278 171.175C159.278 169.001 158.793 167.94 158.066 166.474C157.303 165.184 156.916 163.692 156.95 162.177Z" fill="#5CC1FF"/>
<path d="M134.639 123.355C144.776 123.355 157.823 120.22 157.823 111.425C157.823 104.6 153.507 101.921 146.086 101.921C135.949 101.921 122.901 105.156 122.901 114.256C122.901 120.726 127.218 123.355 134.639 123.355Z" fill="#5CC1FF"/>
<path d="M204.192 154.948C199.972 154.948 198.177 159.144 196.14 159.144C194.103 159.144 194.249 158.184 194.249 156.617V144.687C194.249 144.181 194.54 143.979 195.17 143.979H203.319C206.617 143.979 208.654 141.148 208.654 134.981C208.654 128.814 206.908 126.084 203.319 126.084H195.17C194.588 126.084 194.249 125.882 194.249 125.377V119.715C194.249 114.812 190.756 112.486 186.343 112.486C181.929 112.486 176.206 116.227 169.706 121.08C163.207 125.933 157.872 130.482 157.872 136.75C157.838 138.432 158.261 140.089 159.094 141.529C159.927 142.969 161.134 144.134 162.576 144.889V163.593C162.479 174.865 170.288 180.83 183.239 180.83C202.494 180.83 210.158 169.659 210.158 161.571C210.158 157.678 208.072 154.898 204.24 154.898" fill="#5CC1FF"/>
<path d="M255.799 154.948C251.579 154.948 249.784 159.144 247.747 159.144C245.71 159.144 245.856 158.184 245.856 156.617V144.687C245.856 144.181 246.147 143.979 246.777 143.979H254.926C258.224 143.979 260.261 141.148 260.261 134.981C260.261 128.814 258.563 126.084 254.926 126.084H246.729C246.147 126.084 245.807 125.882 245.807 125.377V119.715C245.807 114.812 242.315 112.486 237.901 112.486C233.488 112.486 227.764 116.227 221.265 121.08C214.765 125.933 209.43 130.482 209.43 136.75C209.396 138.432 209.82 140.089 210.653 141.529C211.485 142.969 212.693 144.134 214.135 144.889V163.593C214.038 174.865 221.847 180.83 234.797 180.83C254.053 180.83 261.716 169.659 261.716 161.571C261.716 157.678 259.631 154.898 255.799 154.898" fill="#5CC1FF"/>
<path d="M295.232 162.177V116.176C295.232 105.611 295.329 100.253 286.695 100.253C278.062 100.253 269.816 102.983 263.996 107.482C261.668 109.251 260.892 110.919 260.892 113.245C260.892 115.57 261.571 116.682 262.298 118.35C263.027 119.878 263.441 121.549 263.511 123.253V162.177C263.545 163.692 263.158 165.184 262.395 166.474C261.716 167.94 261.183 169.001 261.183 171.175C261.183 178.707 268.022 180.577 279.371 180.577C290.721 180.577 297.56 178.707 297.56 171.175C297.56 169.001 297.075 167.94 296.347 166.474C295.585 165.184 295.197 163.692 295.232 162.177Z" fill="#5CC1FF"/>
<path d="M352.805 153.381C349.506 153.381 344.899 155.555 336.459 155.555C332.045 155.555 328.02 153.988 328.02 152.724C328.02 152.32 328.311 152.219 328.844 152.219H346.596C352.902 152.219 356.927 149.59 356.927 142.917C356.927 133.616 348.585 122.849 329.911 122.849C310.462 122.849 297.172 134.678 297.172 153.584C297.172 170.922 308.327 181.184 327.389 181.184C345.238 181.184 357.606 172.186 357.606 159.953C357.606 155.353 355.909 153.381 352.805 153.381ZM327.001 142.614C327.001 139.177 327.68 134.678 329.523 134.678C331.366 134.678 331.318 136.346 331.318 138.014C331.318 141.249 329.911 144.485 327.923 144.485C327.195 144.485 327.001 143.777 327.001 142.614Z" fill="#5CC1FF"/>
<path d="M442.341 159.346V116.126C442.341 105.561 442.438 100.203 433.804 100.203C425.171 100.203 416.052 102.528 410.329 106.774C408.001 108.543 407.225 110.212 407.225 112.537C407.225 114.862 408.243 116.075 409.116 117.895C410.158 119.765 410.679 121.901 410.62 124.062V125.124C407.71 123.759 404.508 123.253 400.968 123.253C383.992 123.253 374.97 133.717 374.97 153.584C374.97 171.984 383.022 180.78 394.759 180.78C397.827 180.746 400.851 180.02 403.623 178.649C406.395 177.279 408.848 175.298 410.814 172.843C411.202 178.303 412.899 180.982 419.156 180.982C426.868 180.982 436.908 178.454 441.225 175.623C443.941 173.854 444.717 171.883 444.717 169.557C444.717 167.232 443.99 165.918 443.408 164.199C442.722 162.66 442.343 160.992 442.292 159.296L442.341 159.346ZM409.165 163.896C407.855 163.896 407.467 162.531 407.467 149.034C407.467 135.537 407.855 134.172 409.165 134.172C410.474 134.172 410.862 135.537 410.862 149.034C410.862 162.531 410.474 163.896 409.165 163.896Z" fill="#5CC1FF"/>
<path d="M493.317 122.849C486.818 122.849 482.259 127.045 479.252 132.706C478.864 126.539 477.36 123.506 470.812 123.506C463.1 123.506 453.836 125.68 448.21 130.078C445.882 131.847 445.203 133.515 445.203 135.84C445.203 138.166 445.882 139.48 446.512 141.199C447.197 142.738 447.577 144.406 447.628 146.102V162.228C447.662 163.742 447.275 165.235 446.512 166.524C445.833 167.99 445.3 169.052 445.3 171.226C445.3 178.758 452.527 180.628 463.149 180.628C476.099 180.628 482.695 179.061 482.695 171.832C482.695 169.305 481.774 168.091 480.804 166.474C479.834 164.856 479.3 164.502 479.3 162.177V147.619C479.3 146.557 479.688 146.254 480.222 146.254C482.453 146.254 481.822 158.386 492.687 158.386C501.999 158.386 506.316 151.157 506.316 139.581C506.316 128.005 501.417 122.849 493.269 122.849" fill="#5CC1FF"/>
<path d="M569.467 161.722C567.672 160.458 566.944 158.891 566.944 155.959V144.282C566.944 137.61 566.944 123.253 539.734 123.253C519.848 123.253 507.625 130.887 507.625 139.986C507.625 144.99 511.36 147.821 518.587 147.821C527.027 147.821 531.537 145.293 532.556 139.581C533.041 137.054 533.041 135.487 534.156 135.487C535.272 135.487 535.272 136.75 535.272 137.812V147.821C535.272 148.882 535.272 149.388 534.059 149.287C530.694 148.883 527.31 148.68 523.922 148.68C512.088 148.68 503.454 152.674 503.454 164.907C503.454 175.472 511.263 180.83 520.915 180.83C528.433 180.83 534.253 178.505 538.279 175.27C541.286 178.303 545.894 180.274 552.442 180.274C564.907 180.274 570.825 173.045 570.825 164.351C570.825 162.683 570.631 162.48 569.515 161.722H569.467ZM534.496 168.193C533.477 168.193 532.798 166.929 532.798 162.632C532.798 158.335 533.477 157.425 534.496 157.425C535.515 157.425 536.097 160.256 536.097 162.329C536.097 166.929 535.709 168.193 534.496 168.193Z" fill="#5CC1FF"/>
<path d="M656.287 123.456C647.653 123.456 644.258 128.056 644.258 133.414C644.258 137.205 645.956 138.216 645.956 141.249C645.956 143.12 645.374 145.546 644.549 148.882C644.355 149.59 644.161 150.146 643.531 150.146C642.9 150.146 642.706 149.742 642.512 148.882C641.3 144.08 641.106 142.917 641.106 141.654C641.106 138.317 642.803 137.357 642.803 133.616C642.803 126.489 636.498 123.355 624.76 123.355C610.597 123.355 606.183 126.893 606.183 133.616C606.183 137.155 607.881 138.419 607.881 141.35C607.881 143.12 607.396 145.546 606.474 148.882C606.28 149.59 606.086 150.146 605.456 150.146C604.825 150.146 604.631 149.742 604.437 148.882C603.322 144.485 603.031 142.917 603.031 141.553C603.031 138.317 604.728 137.559 604.728 133.616C604.728 126.944 599.83 123.355 587.17 123.355C570.922 123.355 566.993 127.854 566.993 134.779C566.993 139.278 568.594 141.35 570.097 143.575C572.183 146.608 572.183 146.709 576.015 155.302L581.641 167.738C584.163 173.298 587.267 180.375 598.811 180.375C610.355 180.375 613.362 174.612 616.175 168.546C616.563 167.586 616.757 166.979 617.582 166.979C618.406 166.979 618.503 167.485 618.988 168.546C623.014 176.938 626.215 180.375 635.867 180.375C646.683 180.375 649.739 174.107 652.649 167.738L658.373 155.302C660.895 149.843 661.865 146.709 664.678 142.766C666.376 140.441 668.413 137.559 668.413 133.465C668.413 127.399 664.193 123.506 656.287 123.506" fill="#5CC1FF"/>
<path d="M701.249 162.177V116.176C701.249 105.611 701.346 100.253 692.713 100.253C684.079 100.253 675.834 102.983 670.013 107.482C667.685 109.251 666.909 110.919 666.909 113.245C666.909 115.57 667.588 116.682 668.316 118.35C669.045 119.878 669.458 121.549 669.528 123.253V162.177C669.563 163.692 669.175 165.184 668.413 166.474C667.734 167.94 667.2 169.001 667.2 171.175C667.2 178.707 674.039 180.577 685.389 180.577C696.738 180.577 703.577 178.707 703.577 171.175C703.577 169.001 703.092 167.94 702.365 166.474C701.602 165.184 701.215 163.692 701.249 162.177Z" fill="#5CC1FF"/>
<path d="M738.596 162.177V138.621C738.596 128.561 738.499 123.456 730.06 123.456C721.62 123.456 713.084 125.629 707.457 130.027C705.129 131.796 704.45 133.465 704.45 135.79C704.45 138.115 705.129 139.429 705.76 141.148C706.445 142.688 706.824 144.355 706.875 146.052V162.177C706.91 163.692 706.522 165.184 705.76 166.474C705.081 167.94 704.547 169.001 704.547 171.175C704.547 178.707 711.386 180.577 722.736 180.577C734.085 180.577 740.924 178.707 740.924 171.175C740.924 169.001 740.439 167.94 739.712 166.474C738.949 165.184 738.562 163.692 738.596 162.177Z" fill="#5CC1FF"/>
<path d="M716.285 123.355C726.422 123.355 739.469 120.22 739.469 111.425C739.469 104.6 735.152 101.921 727.731 101.921C717.594 101.921 704.547 105.156 704.547 114.256C704.547 120.726 708.864 123.355 716.285 123.355Z" fill="#5CC1FF"/>
<path d="M810.429 162.177V140.794C810.429 129.926 805.918 123.203 794.665 123.203C785.353 123.203 779.193 126.741 775.507 131.695C775.119 126.135 773.421 123.456 767.164 123.456C759.452 123.456 750.188 125.629 744.562 130.027C742.234 131.796 741.555 133.465 741.555 135.79C741.555 138.115 742.234 139.429 742.864 141.148C743.55 142.688 743.929 144.355 743.98 146.052V162.177C744.014 163.692 743.627 165.184 742.864 166.474C742.185 167.94 741.652 169.001 741.652 171.175C741.652 178.707 748.879 180.577 759.307 180.577C768.959 180.577 776.671 178.909 776.671 171.782C776.635 170.298 776.44 168.822 776.089 167.384C775.774 165.976 775.644 164.531 775.701 163.087V147.012C775.701 144.838 775.895 143.271 777.204 143.271C778.514 143.271 778.708 144.838 778.708 147.012V163.138C778.765 164.581 778.635 166.027 778.32 167.434C777.969 168.873 777.774 170.348 777.738 171.832C777.738 178.96 785.45 180.628 795.102 180.628C805.53 180.628 812.757 178.758 812.757 171.226C812.757 169.052 812.272 167.99 811.545 166.524C810.782 165.235 810.394 163.742 810.429 162.228" fill="#5CC1FF"/>
<path d="M867.614 161.722C860.096 161.722 848.649 166.221 837.93 166.221C834.195 166.221 833.419 165.716 833.419 164.149C833.419 163.643 833.516 162.48 834.244 162.48C834.971 162.48 835.844 162.885 841.859 162.885C864.218 162.885 875.374 154.493 875.374 141.553V140.39C878.795 136.257 880.687 130.987 880.709 125.528C880.709 120.069 878.721 117.491 875.18 117.491C872.852 117.491 870.863 118.552 868.147 120.22C864.558 122.546 862.23 123.961 857.622 124.214C853.744 123.537 849.816 123.215 845.884 123.253C822.991 123.253 813.048 131.493 813.048 144.282C813.048 150.551 815.473 155.353 820.566 158.386C816.831 161.52 814.357 165.918 814.357 171.579C814.342 175.004 815.323 178.353 817.171 181.184C814.842 182.852 813.339 185.177 813.339 188.312C813.339 195.844 822.069 200.747 842.344 200.747C866.935 200.747 880.564 193.518 880.564 176.786C880.564 166.322 875.229 161.722 867.614 161.722ZM841.907 134.223C842.926 134.223 843.702 135.386 845.739 142.614C846.951 146.911 847.339 149.388 847.339 150.449C847.339 151.511 846.854 151.814 846.321 151.814C845.787 151.814 844.623 150.551 842.586 143.575C841.277 139.076 840.889 136.649 840.889 135.638C840.889 134.627 841.277 134.273 841.907 134.273V134.223ZM844.623 190.839C837.396 190.839 833.274 189.98 831.091 188.868C830.266 188.463 830.072 188.16 830.072 187.907C830.072 187.654 830.266 187.604 830.557 187.604C830.848 187.604 833.08 188.109 837.59 188.109C844.526 188.109 854.76 186.643 858.447 186.643C859.95 186.643 860.435 186.846 860.435 187.351C860.435 188.918 855.73 190.789 844.575 190.789" fill="#5CC1FF"/>
<path d="M918.687 139.783C912.867 138.014 910.248 138.014 910.248 136.144C910.248 135.284 910.927 134.779 912.139 134.779C914.661 134.779 919.56 136.953 922.373 138.52C926.108 140.592 928.776 142.715 931.589 142.715C934.402 142.715 937.894 139.986 937.894 135.082C937.894 127.55 932.171 122.546 925.235 122.546C922.793 122.482 920.418 123.385 918.59 125.073C914.661 123.643 910.53 122.908 906.367 122.9C890.895 122.9 881.583 131.594 881.583 143.423C881.583 157.88 895.309 161.621 901.275 163.39C907.241 165.16 909.714 165.261 909.714 166.929C909.714 167.637 909.132 168.193 907.726 168.193C905.3 168.193 900.79 166.626 896.764 164.553C892.738 162.48 890.022 159.852 886.627 159.852C883.232 159.852 880.127 162.784 880.127 167.586C880.127 175.32 885.56 181.588 893.466 181.588C896.57 181.588 898.995 180.527 900.596 178.859C905.237 180.404 910.08 181.188 914.952 181.184C931.007 181.184 939.64 172.489 939.64 160.661C939.64 145.597 924.508 141.603 918.687 139.834" fill="#5CC1FF"/>
<path d="M118.39 168.142C118.051 168.243 116.79 164.654 116.159 158.639C115.82 155.656 115.626 152.067 115.529 148.124C115.432 144.181 115.335 139.834 115.335 135.284C115.286 126.185 115.383 117.946 115.577 111.981C115.66 110.685 115.66 109.384 115.577 108.088C115.523 107.163 115.309 106.256 114.947 105.409C114.725 104.885 114.394 104.418 113.977 104.044C113.686 103.792 113.492 103.64 113.54 103.539C113.589 103.438 113.831 103.387 114.268 103.539C114.934 103.764 115.512 104.207 115.917 104.803C116.545 105.706 116.975 106.741 117.178 107.836C117.44 109.201 117.586 110.588 117.614 111.981C117.905 117.946 118.148 126.185 118.196 135.284C118.245 139.834 118.245 144.181 118.196 148.124C118.148 152.067 118.148 155.606 118.196 158.538C118.342 164.452 118.827 168.091 118.439 168.193" fill="#CAFBFF"/>
<path d="M147.347 118.653C147.25 118.249 148.365 117.693 149.772 116.631C150.573 116.029 151.291 115.315 151.906 114.508C152.594 113.574 153.06 112.482 153.264 111.324C153.479 110.222 153.378 109.079 152.973 108.038C152.591 107.176 152.007 106.429 151.275 105.864C149.966 104.853 148.802 104.803 148.753 104.348C148.705 103.893 148.996 103.893 149.626 103.741C150.509 103.565 151.422 103.671 152.245 104.044C153.525 104.579 154.599 105.538 155.301 106.774C156.134 108.326 156.409 110.136 156.077 111.88C155.786 113.554 155.026 115.102 153.895 116.328C153.004 117.278 151.929 118.019 150.742 118.502C149.972 118.837 149.151 119.025 148.317 119.058C147.735 119.058 147.395 118.906 147.347 118.755" fill="#CAFBFF"/>
<path d="M155.544 175.472C155.398 175.32 155.883 174.714 155.835 173.551C155.804 172.828 155.622 172.12 155.301 171.478C154.962 170.67 154.38 169.861 153.749 168.749C153.062 167.502 152.555 166.156 152.245 164.755C151.894 163.197 151.699 161.604 151.663 160.003C151.615 158.335 151.712 156.617 151.76 154.847L152.051 149.438C152.294 145.748 152.536 142.21 152.827 139.025L153.216 134.526C153.347 133.316 153.33 132.093 153.167 130.887C153.071 130.063 152.787 129.276 152.34 128.59C151.893 127.905 151.295 127.34 150.596 126.944C150.203 126.722 149.777 126.568 149.335 126.489C148.996 126.438 148.802 126.388 148.802 126.286C148.802 126.185 148.947 126.034 149.287 125.882C149.836 125.696 150.426 125.678 150.984 125.832C151.875 126.04 152.696 126.494 153.361 127.146C153.777 127.546 154.136 128.006 154.428 128.511C154.743 129.083 154.987 129.695 155.156 130.33C155.499 131.716 155.646 133.147 155.592 134.577C155.544 136.043 155.495 137.559 155.447 139.177C155.301 142.361 155.156 145.9 154.913 149.59L154.574 154.999C154.428 156.718 154.331 158.386 154.283 159.902C154.234 162.986 154.622 165.665 155.544 167.687C156.033 168.7 156.454 169.747 156.805 170.821C157.087 171.718 157.138 172.678 156.95 173.601C156.833 174.198 156.545 174.744 156.126 175.169C155.835 175.421 155.592 175.472 155.544 175.421" fill="#CAFBFF"/>
<path d="M192.066 126.185C191.678 126.185 191.339 125.326 191.048 123.961C190.893 123.159 190.78 122.349 190.708 121.535C190.611 120.625 190.611 119.563 190.514 118.704C190.485 118.006 190.284 117.327 189.932 116.732C189.562 116.251 189.099 115.855 188.574 115.57L187.264 114.761C186.925 114.508 186.779 114.306 186.779 114.104C186.779 113.902 187.022 113.75 187.458 113.649C188.032 113.52 188.624 113.503 189.204 113.598C190.187 113.744 191.102 114.203 191.824 114.913C192.288 115.384 192.652 115.953 192.891 116.581C193.12 117.18 193.267 117.809 193.327 118.451C193.377 119.006 193.394 119.563 193.376 120.119C193.376 120.625 193.327 121.08 193.327 121.585C193.271 122.399 193.174 123.209 193.036 124.012C192.794 125.427 192.454 126.286 192.066 126.286" fill="#CAFBFF"/>
<path d="M204.386 142.614C204.143 142.26 204.677 141.452 204.968 139.986C205.15 139.121 205.263 138.241 205.307 137.357C205.375 136.263 205.375 135.165 205.307 134.071C205.25 133.092 205.019 132.133 204.628 131.24C204.293 130.548 203.812 129.943 203.222 129.471C202.81 129.12 202.352 128.831 201.864 128.612C201.476 128.46 201.185 128.359 201.136 128.106C201.088 127.854 201.282 127.651 201.815 127.449C202.565 127.224 203.366 127.259 204.095 127.55C205.203 127.973 206.154 128.752 206.811 129.774C207.552 130.972 207.986 132.346 208.072 133.768C208.157 135.071 208.076 136.38 207.829 137.66C207.647 138.745 207.286 139.788 206.762 140.744C206.404 141.423 205.887 141.997 205.259 142.412C204.822 142.665 204.483 142.715 204.337 142.564" fill="#CAFBFF"/>
<path d="M193.812 160.711C193.841 160.768 193.852 160.833 193.843 160.896C193.835 160.96 193.807 161.019 193.764 161.065C193.622 161.267 193.416 161.411 193.182 161.469C192.814 161.57 192.425 161.552 192.066 161.419L191.436 161.065C191.212 160.896 191.016 160.691 190.854 160.458C190.545 159.985 190.331 159.452 190.223 158.891C190.115 158.374 190.034 157.851 189.981 157.324C189.856 156.2 189.791 155.069 189.787 153.937C189.787 149.085 190.854 145.243 191.63 145.344C192.406 145.445 192.6 149.287 192.6 153.937C192.6 155.1 192.6 156.212 192.551 157.223V158.588C192.537 158.876 192.554 159.164 192.6 159.447C192.664 159.795 192.855 160.103 193.133 160.307C193.376 160.509 193.618 160.509 193.764 160.711" fill="#CAFBFF"/>
<path d="M194.103 176.685C193.958 176.281 195.413 175.522 197.498 174.056C200.162 172.202 202.493 169.875 204.386 167.182C204.913 166.418 205.399 165.625 205.841 164.806C206.252 164.077 206.609 163.316 206.908 162.531C207.135 161.92 207.235 161.265 207.199 160.61C207.15 160.041 206.985 159.489 206.714 158.992C206.295 158.197 205.696 157.52 204.968 157.021C204.434 156.617 204.046 156.465 204.046 156.212C204.046 155.959 204.483 155.808 205.307 155.909C206.497 156.125 207.568 156.791 208.315 157.779C208.887 158.477 209.287 159.31 209.479 160.206C209.668 161.231 209.618 162.288 209.333 163.289C209.054 164.27 208.68 165.218 208.218 166.12C206.097 170.416 202.644 173.837 198.42 175.826C195.898 176.938 194.2 176.988 194.103 176.635" fill="#CAFBFF"/>
<path d="M242.897 126.185C242.509 126.135 242.266 125.275 242.121 123.911C241.975 122.546 241.878 120.827 241.539 119.058C241.407 118.289 241.179 117.541 240.86 116.834C240.741 116.581 240.594 116.344 240.423 116.126C240.283 115.951 240.12 115.798 239.938 115.671C239.626 115.46 239.282 115.306 238.92 115.216C238.629 115.115 238.338 115.115 238.241 114.913C238.144 114.71 238.192 114.458 238.58 114.104C238.868 113.9 239.193 113.758 239.535 113.689C239.877 113.619 240.228 113.623 240.569 113.699C241.054 113.783 241.517 113.973 241.927 114.256C242.378 114.568 242.772 114.962 243.091 115.418C243.729 116.353 244.16 117.423 244.352 118.552C244.699 120.414 244.632 122.333 244.158 124.163C243.77 125.528 243.334 126.286 242.946 126.236" fill="#CAFBFF"/>
<path d="M254.538 141.35C254.441 141.148 254.586 140.895 254.829 140.44C255.134 139.881 255.378 139.287 255.556 138.671C255.805 137.746 255.967 136.798 256.041 135.84C256.184 134.683 256.2 133.513 256.09 132.352C256.016 131.418 255.599 130.548 254.926 129.926C254.251 129.4 253.472 129.038 252.646 128.865L250.657 128.359C250.172 128.207 249.881 128.056 249.881 127.854C249.881 127.651 250.124 127.449 250.609 127.247C251.839 126.802 253.16 126.697 254.441 126.944C255.127 127.069 255.785 127.326 256.381 127.702C257.081 128.155 257.664 128.78 258.078 129.522C258.488 130.269 258.752 131.094 258.854 131.948C259.021 133.401 258.938 134.873 258.612 136.295C258.389 137.478 257.961 138.608 257.351 139.632C256.923 140.372 256.3 140.969 255.556 141.35C255.023 141.603 254.683 141.553 254.586 141.35" fill="#CAFBFF"/>
<path d="M245.468 161.015C245.468 161.217 245.177 161.419 244.595 161.368C244.204 161.296 243.833 161.136 243.506 160.901C243.18 160.665 242.906 160.359 242.703 160.003C242.17 159.049 241.87 157.973 241.83 156.869C241.733 155.808 241.685 154.645 241.685 153.432C241.685 148.579 242.655 144.687 243.431 144.788C244.207 144.889 244.498 148.731 244.498 153.482C244.498 154.645 244.449 155.808 244.401 156.819C244.323 157.576 244.34 158.341 244.449 159.094C244.54 159.534 244.722 159.948 244.983 160.307C245.177 160.61 245.419 160.762 245.419 160.964" fill="#CAFBFF"/>
<path d="M241.054 177.595C241.006 177.14 242.703 176.786 245.031 175.573C246.398 174.859 247.697 174.013 248.912 173.045C250.388 171.852 251.752 170.515 252.986 169.052C254.247 167.57 255.429 166.018 256.527 164.401C256.984 163.755 257.374 163.061 257.691 162.329C257.813 162.035 257.91 161.73 257.982 161.419V160.964C257.99 160.829 257.99 160.694 257.982 160.56C257.967 160.068 257.851 159.585 257.642 159.144C257.489 158.787 257.276 158.461 257.012 158.184C256.575 157.729 256.139 157.577 256.139 157.375C256.139 157.173 256.624 156.869 257.545 157.173C258.175 157.426 258.732 157.842 259.165 158.381C259.597 158.92 259.891 159.566 260.019 160.256C260.068 160.489 260.1 160.726 260.116 160.964C260.128 161.2 260.128 161.436 260.116 161.672C260.083 162.151 260.001 162.625 259.873 163.087C259.601 164.046 259.21 164.964 258.709 165.817C257.655 167.651 256.437 169.377 255.072 170.973C253.693 172.601 252.11 174.03 250.367 175.219C248.928 176.194 247.359 176.944 245.71 177.443C244.611 177.793 243.465 177.964 242.315 177.949C241.491 177.898 241.054 177.747 241.054 177.544" fill="#CAFBFF"/>
<path d="M292.225 127.803C291.449 127.803 290.867 121.231 290.915 113.194C290.992 111.419 290.894 109.64 290.624 107.886C290.504 107.201 290.292 106.538 289.994 105.915C289.728 105.39 289.384 104.912 288.975 104.499C288.369 103.872 287.617 103.419 286.792 103.185C286.21 103.033 285.774 102.983 285.725 102.781C285.677 102.578 285.968 102.225 286.792 102.022C287.982 101.824 289.199 102.114 290.188 102.831C290.89 103.295 291.499 103.896 291.982 104.6C292.528 105.398 292.938 106.287 293.195 107.229C293.728 109.15 293.777 111.222 293.777 113.244C293.728 121.333 293.049 127.853 292.273 127.853" fill="#CAFBFF"/>
<path d="M291.885 142.665C291.109 142.564 290.721 140.188 290.818 137.357C290.915 134.526 291.545 132.15 292.321 132.15C293.097 132.15 293.777 134.526 293.631 137.458C293.486 140.39 292.661 142.715 291.885 142.665Z" fill="#CAFBFF"/>
<path d="M291.109 175.32C290.964 175.169 291.206 174.764 291.643 174.158C292.238 173.399 292.743 172.567 293.146 171.681C293.363 171.155 293.462 170.584 293.437 170.012C293.376 169.413 293.139 168.848 292.758 168.395C292.129 167.611 291.577 166.765 291.109 165.867C290.686 164.773 290.456 163.609 290.43 162.43C290.121 158.826 290.203 155.197 290.673 151.612C291.061 148.882 291.643 147.214 291.982 147.265C292.322 147.315 292.564 154.039 293.243 162.177C293.253 163.018 293.383 163.853 293.631 164.654C294.02 165.425 294.457 166.168 294.941 166.878C295.23 167.351 295.458 167.861 295.62 168.395C295.766 168.937 295.815 169.502 295.765 170.063C295.689 170.986 295.388 171.873 294.892 172.641C294.517 173.216 294.059 173.728 293.534 174.158C293.155 174.466 292.749 174.737 292.322 174.966C291.643 175.32 291.206 175.421 291.109 175.27" fill="#CAFBFF"/>
<path d="M324.624 145.091C324.285 145.293 323.606 144.788 323.024 143.625C322.698 142.925 322.484 142.173 322.393 141.401C322.15 139.514 322.508 137.596 323.412 135.942C323.785 135.276 324.26 134.678 324.818 134.172C325.788 133.313 326.613 133.161 326.807 133.414C327.001 133.667 326.758 134.425 326.37 135.385C325.982 136.346 325.982 136.447 325.74 137.054C325.298 138.409 325.037 139.82 324.964 141.249C324.915 141.906 324.915 142.513 324.915 143.069C324.915 143.625 324.915 144.889 324.576 145.091" fill="#CAFBFF"/>
<path d="M348.148 149.388C348.197 149.186 348.73 149.085 349.506 148.781C350.564 148.312 351.461 147.519 352.077 146.507C352.506 145.845 352.818 145.109 352.998 144.333C353.047 144.131 353.047 143.928 353.095 143.726C353.144 143.524 353.144 143.322 353.144 143.069C353.135 142.594 353.086 142.12 352.998 141.654C352.659 139.733 351.543 137.711 349.991 135.84C348.513 134.07 346.836 132.492 344.995 131.139C343.464 130.016 341.841 129.035 340.145 128.207C337.235 126.792 335.246 126.236 335.295 125.832C335.343 125.427 335.877 125.528 336.847 125.528C338.214 125.604 339.567 125.859 340.873 126.286C342.832 126.889 344.707 127.755 346.451 128.865C348.598 130.251 350.528 131.973 352.174 133.97C353.92 136.093 355.278 138.671 355.618 141.3C355.693 141.937 355.71 142.58 355.666 143.221C355.666 143.524 355.569 143.878 355.569 144.181C355.503 144.489 355.422 144.792 355.327 145.091C354.987 146.14 354.442 147.104 353.726 147.922C353.235 148.521 352.635 149.012 351.961 149.368C351.286 149.723 350.551 149.936 349.797 149.995H349.118L348.633 149.843C348.391 149.742 348.245 149.641 348.294 149.54" fill="#CAFBFF"/>
<path d="M344.268 174.259C344.171 174.107 344.705 173.551 345.675 172.692C347.078 171.554 348.422 170.339 349.7 169.052C350.537 168.186 351.269 167.219 351.883 166.171C352.553 165.021 353.013 163.753 353.241 162.43C353.346 161.744 353.362 161.047 353.29 160.357C353.261 159.775 353.112 159.206 352.853 158.689H352.611L352.077 158.891C351.219 159.224 350.345 159.511 349.458 159.751C347.732 160.18 345.983 160.501 344.22 160.711L339.369 161.217C337.851 161.348 336.325 161.332 334.81 161.166C333.436 161.018 332.093 160.643 330.833 160.054C329.791 159.553 328.84 158.869 328.02 158.032C327.402 157.403 326.894 156.668 326.516 155.858C325.934 154.493 326.031 153.685 326.176 153.634C326.322 153.584 326.662 154.291 327.438 155.252C328.535 156.585 329.96 157.581 331.56 158.133C332.659 158.5 333.802 158.704 334.956 158.74C336.333 158.787 337.711 158.719 339.078 158.538L343.783 157.88C345.384 157.628 347.081 157.324 348.682 156.92L351.059 156.162L351.786 155.909C352.117 155.81 352.46 155.759 352.805 155.757C353.219 155.757 353.627 155.858 353.998 156.051C354.368 156.244 354.69 156.524 354.939 156.869C355.297 157.381 355.545 157.967 355.666 158.588C355.766 159.071 355.831 159.561 355.86 160.054C355.923 161.002 355.858 161.955 355.666 162.885C354.956 165.916 353.28 168.607 350.913 170.518C349.44 171.748 347.827 172.783 346.111 173.601C344.899 174.157 344.22 174.36 344.123 174.208" fill="#CAFBFF"/>
<path d="M405.964 164.3C405.818 164.452 405.333 164.25 404.8 163.542C404.08 162.526 403.598 161.349 403.393 160.105C403.247 159.346 403.102 158.538 403.005 157.729C402.908 156.92 402.762 155.959 402.714 154.999C402.52 153.078 402.423 150.955 402.471 148.68C402.458 144.847 402.8 141.021 403.49 137.256C403.606 136.544 403.801 135.848 404.072 135.183C404.292 134.643 404.623 134.16 405.042 133.768C405.314 133.518 405.652 133.359 406.012 133.313C406.255 133.313 406.4 133.363 406.449 133.465C406.497 133.566 406.158 133.92 405.867 134.526C405.543 135.482 405.411 136.497 405.479 137.509C405.43 140.39 405.285 144.333 405.285 148.68C405.285 150.854 405.285 152.926 405.333 154.847L405.43 159.852C405.441 160.909 405.571 161.961 405.818 162.986C406.012 163.694 406.158 164.149 406.012 164.3" fill="#CAFBFF"/>
<path d="M438.46 174.158C438.266 174.006 438.848 173.146 439.139 171.327C439.292 170.238 439.308 169.134 439.188 168.041C439.023 166.562 438.78 165.094 438.46 163.643C438.058 161.791 437.751 159.918 437.539 158.032C437.296 156.01 437.199 153.836 437.102 151.562C437.005 147.012 437.005 142.058 437.151 136.801C437.296 131.544 437.539 126.59 437.878 122.091C438.024 119.816 438.218 117.693 438.412 115.671C438.63 113.876 438.759 112.071 438.8 110.262C438.831 108.859 438.584 107.465 438.072 106.167C437.661 105.197 437.048 104.334 436.278 103.64C434.968 102.528 433.901 102.477 433.95 102.225C433.998 101.972 434.192 102.022 434.726 102.022C435.495 102.046 436.246 102.272 436.908 102.68C437.97 103.33 438.855 104.252 439.479 105.359C440.269 106.816 440.733 108.44 440.837 110.11C440.939 112.014 440.923 113.922 440.789 115.823L440.498 122.192C440.304 126.691 440.158 131.645 440.013 136.801C439.867 141.957 439.77 146.961 439.77 151.41C439.77 153.634 439.818 155.757 439.915 157.729C440.012 159.7 440.255 161.469 440.449 163.188C440.673 164.744 440.787 166.316 440.789 167.889C440.802 169.125 440.621 170.354 440.255 171.529C440.018 172.264 439.657 172.949 439.188 173.551C438.848 173.955 438.606 174.107 438.557 174.056" fill="#CAFBFF"/>
<path d="M408.825 171.579C409.407 172.085 408.777 173.905 407.176 175.32C405.575 176.736 403.781 177.089 403.344 176.432C402.908 175.775 403.926 174.36 405.333 173.096C406.74 171.832 408.195 171.074 408.825 171.579Z" fill="#CAFBFF"/>
<path d="M477.166 134.526C476.778 134.375 476.778 133.515 476.535 132.403C476.338 131.012 475.777 129.705 474.912 128.626C474.048 127.546 472.914 126.737 471.636 126.286C470.618 125.882 469.842 125.68 469.745 125.275C469.648 124.871 469.89 124.871 470.23 124.618C470.758 124.348 471.339 124.209 471.927 124.214C472.793 124.196 473.652 124.368 474.45 124.719C475.459 125.152 476.353 125.833 477.054 126.705C477.755 127.576 478.243 128.612 478.475 129.724C478.672 130.603 478.689 131.516 478.524 132.403C478.423 133.006 478.191 133.577 477.845 134.071C477.602 134.425 477.311 134.526 477.166 134.476" fill="#CAFBFF"/>
<path d="M477.748 177.191C477.651 176.988 477.942 176.685 478.233 176.078C478.596 175.24 478.73 174.313 478.621 173.399C478.56 172.774 478.413 172.161 478.184 171.579C477.942 170.922 477.554 170.164 477.166 169.406C476.696 168.512 476.29 167.583 475.953 166.626C475.591 165.518 475.394 164.358 475.371 163.188C475.323 162.025 475.42 160.964 475.468 160.003C475.517 159.043 475.614 158.032 475.662 157.122C475.808 155.302 476.002 153.634 476.196 152.269C476.584 149.54 476.972 147.821 477.408 147.821C477.845 147.821 478.087 149.59 478.233 152.32C478.281 153.685 478.33 155.353 478.33 157.173C478.33 158.083 478.33 159.043 478.281 160.054C478.233 161.065 478.233 162.076 478.233 163.036C478.248 163.927 478.378 164.811 478.621 165.665C478.885 166.524 479.193 167.368 479.542 168.193C479.892 169.029 480.184 169.891 480.416 170.771C480.645 171.625 480.727 172.515 480.658 173.399C480.632 174.051 480.481 174.691 480.214 175.281C479.948 175.871 479.571 176.4 479.106 176.837C478.378 177.393 477.845 177.393 477.796 177.191" fill="#CAFBFF"/>
<path d="M497.973 154.241C497.634 153.937 498.847 152.32 499.865 149.388C500.884 146.456 501.611 142.21 501.272 137.408C501.162 135.214 500.737 133.05 500.011 130.988C499.429 129.376 498.48 127.936 497.246 126.792C496.391 126.005 495.405 125.388 494.336 124.972C493.56 124.669 493.075 124.517 493.075 124.315C493.075 124.113 493.56 123.86 494.53 123.86C495.912 123.888 497.258 124.327 498.41 125.124C500.153 126.29 501.535 127.958 502.387 129.926C503.379 132.223 503.954 134.691 504.085 137.205C504.19 138.483 504.206 139.767 504.133 141.047C504.074 142.236 503.928 143.419 503.697 144.586C503.328 146.587 502.657 148.515 501.708 150.298C501.075 151.507 500.256 152.6 499.283 153.533C498.604 154.19 498.119 154.392 497.973 154.241Z" fill="#CAFBFF"/>
<path d="M531.295 133.465C531.683 133.465 532.022 134.273 531.974 135.638C531.952 136.429 531.821 137.212 531.586 137.964C530.988 139.812 529.893 141.444 528.433 142.665C527.845 143.163 527.192 143.572 526.493 143.878C525.28 144.383 524.456 144.333 524.31 143.979C524.165 143.625 524.65 142.968 525.426 142.159L526.687 140.693C527.124 140.137 527.609 139.531 528.045 138.873C528.482 138.216 528.87 137.509 529.209 136.902L530.082 135.183C530.567 134.172 530.955 133.465 531.343 133.465" fill="#CAFBFF"/>
<path d="M566.702 162.43C566.605 162.582 565.878 162.228 564.956 161.217C563.701 159.721 562.804 157.937 562.337 156.01C561.987 154.72 561.744 153.401 561.61 152.067C561.464 150.652 561.416 149.135 561.416 147.568C561.367 144.485 561.416 141.098 560.542 137.964C559.673 135.011 557.965 132.402 555.644 130.482C553.725 128.897 551.512 127.744 549.144 127.095C547.476 126.643 545.771 126.355 544.052 126.236C542.839 126.135 542.111 126.084 542.063 125.832C542.014 125.579 542.694 125.326 544.003 125.073C545.834 124.757 547.702 124.757 549.532 125.073C552.34 125.515 555.003 126.66 557.293 128.41C558.66 129.445 559.87 130.689 560.882 132.1C561.974 133.639 562.795 135.367 563.307 137.205C563.781 139.002 564.042 140.852 564.083 142.715C564.132 144.485 564.083 146.102 564.035 147.669C563.986 149.236 563.938 150.652 563.986 151.966C564.021 153.186 564.135 154.402 564.326 155.606C564.581 157.334 565.105 159.007 565.878 160.56C566.46 161.672 566.848 162.278 566.702 162.43Z" fill="#CAFBFF"/>
<path d="M568.06 167.283C567.726 167.157 567.427 166.949 567.187 166.676C567.084 166.591 567.003 166.48 566.952 166.353C566.901 166.226 566.882 166.088 566.896 165.952C566.911 165.815 566.959 165.685 567.035 165.573C567.111 165.46 567.214 165.371 567.333 165.311C567.615 165.079 567.948 164.922 568.303 164.856C568.487 164.825 568.675 164.839 568.853 164.896C569.031 164.953 569.194 165.052 569.33 165.185C569.465 165.318 569.569 165.482 569.634 165.664C569.699 165.846 569.722 166.042 569.703 166.235C569.684 166.428 569.622 166.614 569.523 166.778C569.423 166.942 569.289 167.08 569.13 167.182C568.971 167.283 568.792 167.345 568.607 167.362C568.421 167.38 568.234 167.353 568.06 167.283Z" fill="#CAFBFF"/>
<path d="M556.613 177.696C556.565 177.292 557.195 176.837 558.214 176.23C559.233 175.623 560.542 174.865 561.9 173.905C563.258 172.944 564.422 171.883 565.295 171.124C566.168 170.366 566.847 169.911 567.187 170.113C567.526 170.316 567.478 171.175 566.847 172.439C566.492 173.15 566.052 173.813 565.538 174.41C564.298 175.877 562.733 177.005 560.979 177.696C560.26 177.977 559.511 178.164 558.748 178.252C557.438 178.404 556.613 178.151 556.565 177.747" fill="#CAFBFF"/>
<path d="M531.344 168.698C531.053 168.951 530.277 168.496 529.452 167.333C528.441 165.799 527.884 163.988 527.851 162.127C527.83 161.101 527.961 160.078 528.239 159.094C528.356 158.662 528.502 158.24 528.676 157.83C528.854 157.429 529.082 157.055 529.355 156.718C529.756 156.168 530.348 155.805 531.004 155.707C531.489 155.707 531.732 155.909 531.732 156.111C531.732 156.313 531.538 156.515 531.441 156.768C531.272 157.088 531.142 157.427 531.053 157.779C530.989 158.046 530.94 158.316 530.907 158.588C530.859 158.891 530.81 159.296 530.762 159.65C530.678 160.455 530.645 161.266 530.665 162.076C530.724 163.558 530.919 165.03 531.247 166.474C531.489 167.637 531.683 168.445 531.344 168.698Z" fill="#CAFBFF"/>
<path d="M602.352 152.067C602.012 152.219 600.8 150.5 599.587 147.265C599.296 146.456 599.005 145.546 598.714 144.586C598.384 143.471 598.205 142.314 598.18 141.148C598.177 140.446 598.275 139.747 598.471 139.076C598.671 138.427 598.931 137.801 599.248 137.205C599.83 136.093 600.412 135.133 600.606 134.223C600.806 133.266 600.756 132.271 600.46 131.342C600.192 130.467 599.707 129.683 599.054 129.067C597.792 127.854 595.949 127.297 594.494 126.792C591.536 125.882 589.547 125.73 589.499 125.275C589.45 124.821 589.984 124.871 590.905 124.719C592.227 124.547 593.565 124.564 594.882 124.77C595.802 124.896 596.71 125.098 597.598 125.377C598.703 125.716 599.739 126.265 600.654 126.994C601.75 127.926 602.576 129.157 603.038 130.549C603.501 131.942 603.582 133.442 603.273 134.88C603.11 135.622 602.849 136.336 602.497 137.003C602.158 137.61 601.867 138.166 601.576 138.621C601.327 139.055 601.116 139.512 600.945 139.986C600.807 140.393 600.725 140.818 600.703 141.249C600.68 142.183 600.761 143.116 600.945 144.03C601.091 144.99 601.285 145.849 601.43 146.658C602.109 149.843 602.643 151.865 602.303 152.067" fill="#CAFBFF"/>
<path d="M640.232 149.337C640.087 149.438 639.65 149.085 639.02 148.276C638.174 147.136 637.458 145.897 636.886 144.586C636.463 143.647 636.138 142.664 635.916 141.654C635.652 140.426 635.602 139.159 635.77 137.913C635.868 137.241 636.03 136.58 636.255 135.942L636.886 134.223C637.075 133.754 637.205 133.261 637.274 132.757C637.32 132.33 637.27 131.897 637.128 131.493C636.732 130.569 636.093 129.78 635.285 129.218C634.43 128.604 633.5 128.111 632.52 127.752C630.773 127.069 628.946 126.627 627.088 126.438C623.887 126.135 621.801 126.539 621.704 126.084C621.607 125.629 622.092 125.528 623.014 125.174C624.323 124.678 625.696 124.388 627.088 124.315C629.187 124.208 631.287 124.482 633.296 125.124C634.534 125.496 635.711 126.058 636.789 126.792C637.393 127.21 637.946 127.702 638.438 128.258C638.981 128.878 639.408 129.598 639.699 130.381C640.014 131.216 640.13 132.118 640.038 133.01C639.944 133.776 639.748 134.524 639.456 135.234L638.729 136.953C638.539 137.426 638.393 137.916 638.292 138.419C637.904 140.339 638.244 142.26 638.68 143.878C639.117 145.496 639.65 146.81 639.941 147.72C640.232 148.63 640.329 149.236 640.184 149.337" fill="#CAFBFF"/>
<path d="M650.03 165.362C649.69 165.16 650.66 162.379 652.504 157.981C653.425 155.808 654.589 153.23 655.85 150.348C656.529 148.933 657.16 147.416 657.984 145.849C658.837 144.203 659.861 142.66 661.04 141.249C662.253 139.834 663.417 138.621 664.29 137.357C665.112 136.268 665.602 134.948 665.697 133.566C665.728 132.308 665.426 131.066 664.823 129.977C664.283 129.005 663.536 128.175 662.641 127.55C661.242 126.624 659.639 126.085 657.984 125.983C656.772 125.882 656.044 125.933 655.996 125.73C655.947 125.528 656.578 125.124 657.936 124.821C658.768 124.661 659.617 124.627 660.458 124.719C661.592 124.845 662.694 125.188 663.708 125.73C665.083 126.486 666.24 127.611 667.058 128.988C667.877 130.366 668.328 131.946 668.364 133.566C668.378 134.529 668.23 135.487 667.928 136.397C667.617 137.309 667.193 138.176 666.667 138.975C665.618 140.444 664.484 141.845 663.271 143.17C661.089 145.698 659.731 148.781 658.276 151.562C656.82 154.342 655.511 156.819 654.347 158.891C652.067 163.036 650.466 165.513 650.127 165.311" fill="#CAFBFF"/>
<path d="M613.507 166.575C613.847 166.727 613.944 167.586 613.701 168.9C613.384 170.649 612.705 172.305 611.713 173.753C610.67 175.313 609.147 176.454 607.396 176.988C606.86 177.148 606.297 177.183 605.747 177.089C605.359 176.988 605.116 176.837 605.116 176.634C605.116 176.432 605.747 175.826 606.62 175.118C607.707 174.235 608.671 173.197 609.482 172.034C610.452 170.619 611.228 169.153 611.907 168.142C612.586 167.131 613.168 166.474 613.556 166.626" fill="#CAFBFF"/>
<path d="M700.619 171.933C700.522 171.984 700.328 171.782 700.037 171.428C699.613 170.857 699.24 170.248 698.921 169.608C697.801 167.232 697.032 164.692 696.641 162.076C696.092 158.245 695.865 154.372 695.962 150.5C695.962 146.203 696.059 141.452 696.156 136.498C696.35 126.539 696.738 117.541 697.126 111.071C697.268 109.718 697.186 108.35 696.884 107.027C696.639 106.101 696.111 105.285 695.38 104.702C694.915 104.314 694.365 104.054 693.78 103.943C693.343 103.893 693.1 103.893 693.052 103.792C693.003 103.691 693.246 103.488 693.731 103.387C694.492 103.232 695.28 103.357 695.962 103.741C696.45 103.999 696.893 104.341 697.272 104.752C697.727 105.25 698.089 105.833 698.339 106.471C698.882 107.954 699.146 109.534 699.115 111.121C699.212 117.642 699.212 126.64 698.969 136.599C698.872 141.553 698.727 146.304 698.581 150.601C698.382 154.357 698.414 158.122 698.678 161.874C698.877 164.373 699.316 166.846 699.988 169.254L700.57 171.226C700.716 171.681 700.716 171.984 700.619 172.034" fill="#CAFBFF"/>
<path d="M736.365 131.342C735.977 131.493 735.492 131.038 734.958 130.432C734.349 129.656 733.701 128.914 733.018 128.207C732.363 127.611 731.628 127.117 730.836 126.741C730.205 126.438 729.672 126.236 729.526 125.832C729.508 125.704 729.525 125.574 729.577 125.457C729.629 125.341 729.712 125.242 729.817 125.174C730.168 124.891 730.588 124.716 731.03 124.669C731.733 124.591 732.443 124.673 733.113 124.908C733.783 125.144 734.396 125.528 734.91 126.034C735.899 126.963 736.564 128.207 736.802 129.572C736.947 130.583 736.753 131.24 736.413 131.342" fill="#CAFBFF"/>
<path d="M734.037 116.985C733.843 116.581 734.57 115.924 734.958 114.609C735.206 113.862 735.321 113.074 735.298 112.284C735.273 111.365 735.04 110.464 734.619 109.655C733.697 107.937 732.048 106.825 730.739 106.117C729.429 105.409 728.507 105.055 728.507 104.651C728.507 104.247 729.574 103.842 731.321 104.146C732.367 104.312 733.372 104.69 734.279 105.258C735.452 105.978 736.422 107.006 737.093 108.24C737.757 109.523 738.028 110.987 737.869 112.436C737.751 113.593 737.332 114.694 736.656 115.62C736.213 116.242 735.607 116.716 734.91 116.985C734.425 117.137 734.085 117.086 733.988 116.935" fill="#CAFBFF"/>
<path d="M735.346 174.461C735.249 174.259 735.734 173.905 736.074 173.147C736.514 171.994 736.514 170.71 736.074 169.557C735.737 168.674 735.348 167.813 734.91 166.979C734.667 166.474 734.425 165.968 734.231 165.362C734.007 164.753 733.829 164.128 733.697 163.491C733.444 162.189 733.266 160.873 733.164 159.549C733.018 158.234 732.97 156.819 732.873 155.403C732.649 150.554 732.893 145.694 733.6 140.895C734.182 137.205 734.91 135.032 735.249 135.082C735.589 135.133 735.152 144.232 735.686 155.302C735.734 156.667 735.831 158.032 735.88 159.346C735.928 160.661 736.025 161.924 736.219 162.986C736.298 163.516 736.411 164.04 736.559 164.553C736.705 165.058 736.899 165.564 737.044 166.07C737.434 167.051 737.743 168.066 737.966 169.103C738.402 171.226 737.723 173.045 736.899 173.905C736.597 174.245 736.211 174.49 735.783 174.612C735.492 174.663 735.298 174.663 735.298 174.562" fill="#CAFBFF"/>
<path d="M771.675 133.364C771.287 133.313 771.045 132.605 770.657 131.796L770.317 131.139L769.929 130.432C769.291 129.386 768.468 128.477 767.504 127.752L766.825 127.297L766.194 126.944C765.418 126.489 764.788 126.236 764.739 125.832C764.691 125.427 764.885 125.427 765.176 125.225L765.758 124.972C766.027 124.901 766.305 124.867 766.582 124.871L767.601 124.972C767.984 125.05 768.357 125.168 768.717 125.326C769.525 125.697 770.255 126.232 770.863 126.9C771.471 127.569 771.945 128.357 772.257 129.218C772.392 129.595 772.489 129.984 772.548 130.381C772.606 130.732 772.622 131.088 772.597 131.443C772.585 131.734 772.536 132.023 772.451 132.302C772.405 132.517 772.323 132.723 772.209 132.909C772.015 133.212 771.821 133.364 771.627 133.313" fill="#CAFBFF"/>
<path d="M769.444 175.927C769.395 175.725 769.783 175.472 770.22 174.865C770.806 174.043 771.143 173.057 771.19 172.034C771.225 171.291 771.193 170.547 771.093 169.81C770.996 169.001 770.85 167.99 770.705 167.03C770.462 165.008 770.268 162.784 770.171 160.458C770.074 158.133 770.074 155.909 770.171 153.836C770.23 151.998 770.458 150.17 770.85 148.377C771.114 147.143 771.538 145.953 772.111 144.838C772.548 144.08 772.887 143.726 773.081 143.777C773.275 143.827 772.984 145.748 772.839 148.68C772.742 150.146 772.742 151.865 772.79 153.836C772.839 155.808 772.936 157.981 773.033 160.307L773.324 166.777C773.372 167.788 773.421 168.698 773.421 169.659C773.45 170.575 773.369 171.493 773.178 172.388C773.046 173.081 772.78 173.738 772.397 174.321C772.013 174.903 771.52 175.398 770.947 175.775C770.074 176.281 769.541 176.129 769.492 175.977" fill="#CAFBFF"/>
<path d="M804.754 176.988C804.705 176.887 804.9 176.736 805.191 176.483C805.609 176.124 805.969 175.697 806.258 175.219C806.699 174.496 806.996 173.688 807.131 172.843C807.302 171.699 807.253 170.53 806.985 169.406C806.743 168.091 806.258 166.676 805.821 165.058C805.338 163.262 805.061 161.413 804.997 159.549C804.851 155.606 805.482 151.46 805.918 147.265C806.14 145.252 806.205 143.223 806.112 141.199C806.02 139.375 805.694 137.573 805.142 135.84C804.234 132.941 802.312 130.505 799.758 129.016C797.935 127.992 796.018 127.163 794.035 126.539C792.58 126.034 791.804 125.73 791.852 125.528C791.901 125.326 792.725 125.275 794.277 125.427C796.489 125.655 798.651 126.252 800.68 127.196C802.994 128.289 804.95 130.064 806.306 132.302C806.805 133.152 807.228 134.049 807.567 134.981C808.974 138.772 809.168 143.221 808.731 147.619C808.295 152.017 807.616 155.959 807.616 159.549C807.603 161.23 807.766 162.908 808.101 164.553C808.44 166.12 808.828 167.687 808.974 169.204C809.053 169.925 809.069 170.653 809.022 171.377C808.985 172.046 808.871 172.708 808.683 173.349C808.385 174.376 807.853 175.313 807.131 176.078C806.676 176.561 806.107 176.91 805.482 177.089C805.045 177.191 804.802 177.14 804.802 177.089" fill="#CAFBFF"/>
<path d="M844.866 154.544C844.818 154.696 844.381 154.847 843.799 154.493C843.028 154.012 842.405 153.31 842.004 152.471C841.713 151.966 841.519 151.46 841.228 150.955L840.452 149.236C839.919 148.023 839.385 146.608 838.852 145.192C838.318 143.777 837.833 142.361 837.445 140.997C837.07 139.769 836.857 138.493 836.814 137.205C836.79 136.303 836.955 135.405 837.299 134.577C837.542 133.97 837.833 133.768 838.027 133.818C838.221 133.869 838.318 135.183 838.803 136.953C839.096 138.019 839.453 139.066 839.87 140.087C840.355 141.3 840.937 142.665 841.422 144.131C841.907 145.597 842.441 147.012 842.829 148.276L843.362 150.096L843.751 151.663C843.9 152.346 844.128 153.008 844.43 153.634C844.672 154.089 844.866 154.342 844.769 154.544" fill="#CAFBFF"/>
<path d="M856.022 157.577C855.973 157.375 856.555 156.97 857.622 156.414C858.689 155.858 860.338 155.05 862.181 153.988C864.302 152.813 866.167 151.195 867.662 149.236C868.486 148.14 869.095 146.886 869.457 145.546C869.622 144.797 869.735 144.037 869.796 143.271C869.877 142.285 870.089 141.315 870.427 140.39C870.809 139.488 871.298 138.638 871.882 137.862L873.24 135.891C874.057 134.65 874.786 133.349 875.423 131.999C876.51 129.745 877.153 127.287 877.314 124.77C877.314 124.264 877.363 123.708 877.314 123.253C877.292 122.843 877.227 122.436 877.12 122.04C877.043 121.715 876.912 121.407 876.732 121.13C876.593 120.909 876.411 120.719 876.199 120.574C875.326 120.018 874.695 120.423 874.598 120.22C874.501 120.018 874.598 119.917 874.938 119.715C875.191 119.558 875.473 119.459 875.766 119.424C876.058 119.389 876.355 119.42 876.635 119.513C877.051 119.638 877.433 119.863 877.751 120.17C878.12 120.526 878.416 120.956 878.624 121.434C878.852 121.949 879.015 122.492 879.109 123.051C879.204 123.62 879.269 124.194 879.303 124.77C879.413 127.638 878.882 130.494 877.751 133.111C877.129 134.64 876.382 136.112 875.52 137.509L874.113 139.632C873.671 140.225 873.296 140.869 872.998 141.553C872.764 142.237 872.617 142.951 872.561 143.676C872.482 144.579 872.336 145.475 872.125 146.355C871.637 148.065 870.811 149.649 869.699 151.006C867.897 153.187 865.618 154.886 863.055 155.959C861.413 156.686 859.707 157.245 857.962 157.628C856.749 157.88 856.022 157.931 855.973 157.729" fill="#CAFBFF"/>
<path d="M855.876 127.045C855.828 127.854 854.227 128.41 852.287 128.258C850.347 128.106 848.843 127.348 848.892 126.539C848.94 125.73 850.541 125.174 852.481 125.326C854.421 125.478 855.925 126.236 855.876 127.045Z" fill="#CAFBFF"/>
<path d="M838.027 169.355C838.076 169.76 837.494 170.215 836.378 170.518C835.73 170.701 835.06 170.786 834.389 170.771C833.481 170.754 832.587 170.53 831.77 170.114C830.953 169.707 830.269 169.059 829.803 168.25C829.337 167.441 829.111 166.507 829.151 165.564C829.173 164.98 829.397 164.423 829.782 163.997C830.073 163.744 830.315 163.694 830.509 163.795C830.67 163.956 830.773 164.17 830.8 164.401C830.883 164.732 830.997 165.054 831.14 165.362C831.331 165.766 831.576 166.141 831.867 166.474C832.196 166.866 832.59 167.191 833.031 167.434C834.089 167.893 835.197 168.216 836.33 168.395C837.3 168.597 838.027 168.9 838.027 169.305" fill="#CAFBFF"/>
<path d="M862.085 193.923C861.988 193.72 862.521 193.316 863.443 192.709C864.364 192.103 865.771 191.243 867.323 190.131C869.171 188.848 870.865 187.337 872.367 185.632C874.145 183.617 875.442 181.192 876.15 178.555C876.482 177.237 876.596 175.87 876.49 174.511C876.385 173.252 876.074 172.021 875.568 170.872C874.745 168.905 873.309 167.285 871.494 166.272C870.19 165.611 868.771 165.232 867.323 165.16C866.256 165.058 865.625 165.058 865.577 164.856C865.528 164.654 866.062 164.3 867.226 163.997C867.927 163.838 868.643 163.77 869.36 163.795C870.337 163.815 871.304 164.003 872.222 164.351C874.674 165.342 876.681 167.253 877.848 169.709C878.568 171.124 879.029 172.667 879.206 174.259C879.373 175.954 879.241 177.667 878.818 179.314C877.998 182.417 876.409 185.242 874.21 187.503C872.47 189.281 870.473 190.765 868.293 191.901C866.865 192.656 865.371 193.265 863.831 193.72C862.715 194.024 862.085 194.074 862.036 193.923" fill="#CAFBFF"/>
<path d="M850.832 192.507C850.88 192.912 849.522 193.468 847.243 194.024C844.204 194.725 841.081 194.946 837.979 194.681C834.292 194.327 830.994 193.013 829.005 191.547C827.017 190.081 826.192 188.615 826.435 188.362C826.677 188.109 827.938 188.868 829.976 189.727C832.611 190.829 835.391 191.511 838.221 191.749C841.568 192.052 844.672 191.901 847 191.951C849.328 192.002 850.783 192.103 850.832 192.507Z" fill="#CAFBFF"/>
<path d="M928.582 174.815C928.436 174.663 928.921 173.955 929.794 172.742C930.981 171.057 931.989 169.244 932.801 167.333C933.331 166.056 933.706 164.714 933.917 163.34C934.152 161.811 934.102 160.249 933.771 158.74C933.397 157.085 932.685 155.534 931.686 154.19C930.57 152.71 929.245 151.415 927.757 150.348C924.653 148.074 921.161 146.709 917.911 145.445C914.661 144.181 911.703 142.917 909.374 141.401L907.725 140.289C907.217 139.898 906.761 139.439 906.367 138.924C905.992 138.435 905.727 137.865 905.591 137.256C905.475 136.738 905.492 136.198 905.64 135.689C905.726 135.34 905.89 135.016 906.117 134.744C906.344 134.472 906.629 134.259 906.949 134.122C907.386 133.97 907.628 134.071 907.628 134.172C907.628 134.273 907.434 134.375 907.24 134.627C906.986 134.925 906.815 135.29 906.747 135.683C906.679 136.075 906.715 136.479 906.852 136.851C907.014 137.216 907.245 137.543 907.531 137.812C908.368 138.522 909.299 139.101 910.296 139.531C913.059 140.803 915.894 141.901 918.784 142.816C920.433 143.372 922.179 144.03 923.974 144.838C925.87 145.661 927.675 146.695 929.358 147.922C931.083 149.159 932.607 150.679 933.868 152.421C934.475 153.291 934.995 154.222 935.421 155.201C935.821 156.139 936.114 157.124 936.294 158.133C936.628 159.991 936.595 161.9 936.197 163.744C935.85 165.3 935.295 166.798 934.548 168.193C933.516 170.166 932.171 171.944 930.57 173.45C929.406 174.511 928.679 174.916 928.582 174.764" fill="#CAFBFF"/>
<path d="M935.226 139.986C935.081 139.834 935.226 139.48 935.275 138.975C935.31 138.227 935.245 137.479 935.081 136.75C934.741 134.728 934.111 131.948 932.51 129.522C931.162 127.477 929.114 126.048 926.787 125.528C924.992 125.124 923.731 125.427 923.537 125.023C923.343 124.618 923.683 124.517 924.265 124.163C925.085 123.703 926.001 123.46 926.932 123.456C928.329 123.432 929.71 123.761 930.958 124.416C931.709 124.791 932.411 125.267 933.044 125.831C933.706 126.444 934.293 127.14 934.79 127.904C935.728 129.341 936.387 130.955 936.73 132.656C937.008 134 937.106 135.378 937.021 136.75C937.026 137.759 936.739 138.746 936.196 139.581C935.711 140.188 935.275 140.238 935.178 140.087" fill="#CAFBFF"/>
<path d="M916.504 127.854C916.262 128.207 915.534 128.106 914.564 127.854L910.781 126.741L906.998 125.73C905.979 125.427 905.3 125.124 905.3 124.719C905.3 124.315 905.931 123.86 907.046 123.658C908.539 123.412 910.063 123.492 911.524 123.892C912.986 124.292 914.351 125.004 915.534 125.983C916.407 126.792 916.747 127.5 916.553 127.803" fill="#CAFBFF"/>
<path d="M911.46 171.478C911.508 171.883 910.005 172.489 907.434 172.692C905.926 172.775 904.414 172.691 902.923 172.439C901.075 172.144 899.267 171.618 897.54 170.872C895.866 170.11 894.259 169.197 892.738 168.142L889.149 165.766C887.112 164.452 885.705 163.896 885.802 163.491C885.899 163.087 886.239 163.188 887.015 163.188C888.042 163.253 889.056 163.474 890.022 163.845C891.406 164.386 892.751 165.028 894.047 165.766C895.503 166.524 897.006 167.434 898.655 168.091C901.503 169.29 904.486 170.105 907.531 170.518C909.908 170.872 911.46 170.973 911.508 171.377" fill="#CAFBFF"/>
</g>
<defs>
<clipPath id="clip0_555_38590">
<rect width="899" height="147" fill="white" transform="translate(63 77)"/>
</clipPath>
</defs>
</svg>
