<svg width="1300" height="740" viewBox="0 0 1300 740" fill="none" xmlns="http://www.w3.org/2000/svg">
	<path d="M1251.98 729H56.013C32.8072 729 14 708.074 14 682.254V55.7458C14 29.9259 32.8072 9 56.013 9H1251.99C1275.19 9 1294 29.9259 1294 55.7458V682.266C1293.99 708.074 1275.18 729 1251.98 729Z" fill="white" />
	<path d="M1293.57 44.2582V44.2052L1293.57 44.1523C1293.04 31.7129 1291.73 22.43 1287.36 15.8781C1282.85 9.10852 1275.45 5.73623 1264.2 4.06069C1252.99 2.39122 1237.37 2.32646 1215.77 2.65991C1210.43 2.74224 1204.73 2.84921 1198.62 2.96372C1179.89 3.31467 1157.39 3.73641 1130.3 3.73641C1085.9 3.73641 974.022 3.97142 838.094 4.25695C533.486 4.8968 108.113 5.79033 50.7928 4.86122C40.795 4.69917 32.5449 7.54048 25.9077 13.2319C19.3253 18.8763 14.5224 27.1574 11.0406 37.5554C4.09851 58.2873 2.15 88.2536 2.5493 125.126C2.88293 155.934 4.86481 191.814 7.05805 231.52C7.49434 239.419 7.93901 247.469 8.38072 255.661C11.0446 305.064 13.6062 359.687 13.6062 417.548C13.6062 430.679 12.451 450.757 11.0789 474.604C10.8277 478.971 10.5691 483.465 10.3091 488.065C8.63226 517.73 6.90014 551.737 6.69091 584.6C6.48183 617.439 7.79142 649.256 12.2346 674.511C14.4557 687.137 17.4781 698.233 21.5485 707.036C25.586 715.768 30.7744 722.499 37.4926 726.058C38.3838 726.616 39.6234 726.986 40.8505 727.275C42.2488 727.604 44.018 727.91 46.1065 728.197C50.29 728.774 55.9302 729.302 62.8062 729.789C76.5682 730.763 95.4362 731.581 117.834 732.268C162.639 733.642 221.676 734.497 282.475 735.027C388.909 735.953 500.797 735.882 551.296 735.849C558.492 735.845 564.442 735.841 568.952 735.841C583.549 735.841 611.424 736.038 647.957 736.297C724.204 736.836 838.164 737.642 947.824 737.479C1028.97 737.358 1107.87 736.708 1167.6 735.026C1197.46 734.186 1222.56 733.087 1240.76 731.665C1249.85 730.954 1257.28 730.159 1262.73 729.265C1265.46 728.819 1267.75 728.34 1269.54 727.816C1271.19 727.331 1272.84 726.693 1273.88 725.701C1292.54 707.799 1297.22 686.736 1297.49 635.819C1297.6 615.44 1296.99 590.13 1296.23 558.162C1296.03 550.128 1295.83 541.674 1295.63 532.773C1294.61 488.424 1293.57 432.889 1293.57 362.678V44.2582Z" stroke="#221856" stroke-width="5" />
</svg>
