<svg width="189" height="51" viewBox="0 0 189 51" fill="none" xmlns="http://www.w3.org/2000/svg">
<path d="M57.5884 46.8357C45.0939 49.4362 32.2921 50.0272 19.4903 49.318C17.6469 49.1998 15.701 48.8452 13.96 48.1359C1.46547 43.4078 -3.14316 26.7411 2.18237 13.5024C4.84514 7.00118 10.7852 3.33691 16.7252 2.15488C19.5928 1.44566 22.5628 1.09102 25.5328 1.09102C37.208 0.972813 48.7808 0.618203 60.3536 0.5C95.8913 1.20922 131.429 2.15483 167.069 2.03663C175.262 2.15483 185.401 5.10995 187.757 15.5118C188.678 18.8215 188.781 23.1951 188.883 25.7955C189.6 31.8239 186.937 37.8523 183.046 41.753C179.256 45.6537 174.443 47.8996 169.527 48.8452C164.611 49.7908 159.798 49.0816 154.984 49.318L140.544 49.4362C135.73 49.318 130.917 49.909 126.103 50.1454L111.663 50.2636C102.036 50.3819 92.4092 50.5 82.7823 50.5C82.5774 50.5 82.3726 50.2636 82.3726 50.0272C82.3726 49.7908 82.5774 49.5544 82.7823 49.5544C92.4092 48.8452 102.036 48.2542 111.663 47.8996L126.103 47.4267C130.917 47.4267 135.73 47.8996 140.544 47.6632L154.984 47.4267C157.237 47.3085 163.587 47.4267 165.738 47.1903C171.473 46.7175 177.31 44.3534 181.612 39.8617C185.094 36.4338 186.323 31.1147 185.913 25.9137C185.913 22.604 185.811 19.2944 184.992 16.3393C182.636 6.4102 172.395 4.75536 164.714 4.75536C129.893 3.92794 95.072 4.28255 60.2512 4.16435C48.6784 3.92794 37.0032 3.10052 25.4304 2.98231C22.5628 2.98231 19.6952 3.33691 16.93 3.92793C7.81514 5.93738 2.07997 12.675 1.87514 23.6679C0.851 35.1336 8.42962 46.0083 18.4662 47.0721C31.4728 48.136 44.4794 47.6631 57.3836 46.0083C57.8956 46.2447 57.8956 46.8357 57.5884 46.8357Z" fill="#4E4B9A"/>
</svg>
