<svg width="292" height="51" viewBox="0 0 292 51" fill="none" xmlns="http://www.w3.org/2000/svg">
<path d="M258.798 4.49316L258.805 4.49311C277.869 4.36147 285.598 9.14006 288.722 14.8141C290.31 17.6969 290.791 20.9399 290.837 24.1897C290.86 25.8123 290.776 27.4186 290.673 28.9702C290.65 29.3202 290.626 29.6689 290.602 30.0149C290.521 31.1875 290.443 32.3283 290.413 33.3824C290.412 33.4159 290.412 33.4494 290.415 33.4828C290.569 35.6191 289.703 37.3988 287.866 38.9399C285.992 40.5129 283.136 41.8037 279.449 42.8333C272.085 44.8898 261.779 45.8068 250.472 46.1457C239.183 46.4841 226.98 46.2449 215.85 46.0193L215.337 46.0089C204.432 45.7878 194.562 45.5877 187.709 45.9814C187.592 45.9882 187.476 46.0155 187.369 46.0622C185.619 46.8202 183.553 47.1362 181.58 47.097C179.6 47.0576 177.803 46.6624 176.59 46.0788C176.483 46.0271 176.367 45.995 176.248 45.984C174.234 45.7983 172.893 46.233 171.759 46.844C171.375 47.0502 171 47.2869 170.658 47.5018C170.532 47.5813 170.41 47.6578 170.295 47.7287C169.844 48.0058 169.415 48.2445 168.931 48.4265C168.9 48.4383 168.869 48.4516 168.839 48.4665C168.349 48.7089 167.636 48.8533 166.803 48.876C165.983 48.8983 165.124 48.8006 164.392 48.6226C163.839 48.4882 163.428 48.3247 163.166 48.1774C163.183 48.1576 163.199 48.1366 163.215 48.1143C163.349 47.9253 163.464 47.6248 163.382 47.2737C163.31 46.9641 163.12 46.7783 163.018 46.6948C162.91 46.6058 162.803 46.5525 162.736 46.5227C162.599 46.4622 162.457 46.4251 162.347 46.4003C161.91 46.3023 161.167 46.2313 160.238 46.1727C158.334 46.0528 155.342 45.9701 151.63 45.9148C144.197 45.804 133.801 45.8019 123.261 45.8392C115.453 45.8667 107.561 45.9159 100.729 45.9584C98.3365 45.9733 96.0742 45.9874 93.9911 45.9995C89.9738 46.0227 86.6243 46.0385 84.2915 46.0381C83.1243 46.0379 82.2166 46.0337 81.6085 46.0244C81.3023 46.0198 81.0825 46.014 80.9462 46.0075C80.932 46.0068 80.9195 46.0061 80.9088 46.0055C80.6072 45.9359 80.2785 46.0072 80.0282 46.2241C80.0086 46.2437 79.9859 46.2712 79.9617 46.3044L79.9531 46.2964C79.3028 46.9909 78.0892 47.6573 76.4965 48.1685C74.9306 48.671 73.1107 48.9874 71.3625 49.0585C69.6027 49.1299 67.9895 48.9497 66.806 48.5166C65.612 48.0797 65.0607 47.4758 64.9405 46.8038C64.8541 46.3204 64.4295 45.9713 63.9385 45.98C63.6467 45.9851 63.3528 45.9903 63.0568 45.9956C51.9102 46.1931 37.9152 46.441 26.11 45.1993C20.0474 44.5616 14.6279 43.5367 10.4941 41.942C6.32736 40.3346 3.69415 38.2383 2.80785 35.6069C2.70432 35.2995 2.45815 35.0615 2.14749 34.9683C1.73295 34.8439 1.46367 34.7125 1.3056 34.6043C1.39946 34.5242 1.55013 34.4194 1.78131 34.301C1.89896 34.2407 2.00349 34.1578 2.08887 34.0569C2.39126 33.6995 2.47833 33.2555 2.5111 32.9447C2.54701 32.6041 2.5349 32.2288 2.50472 31.8631C2.45358 31.2437 2.33729 30.5184 2.22688 29.8298C2.20762 29.7097 2.18855 29.5907 2.17003 29.4736C2.03961 28.649 1.93531 27.91 1.92802 27.3387C1.92437 27.0526 1.94679 26.8676 1.97493 26.7627C1.97548 26.7607 1.97603 26.7587 1.97656 26.7568C2.29859 26.481 2.41514 26.0257 2.25288 25.6235C0.510865 21.306 1.38957 16.0754 6.15819 11.8806C10.9693 7.64853 19.8119 4.42806 34.0064 4.55927C34.0287 4.55948 34.051 4.55894 34.0733 4.55765C34.0731 4.55766 34.074 4.55761 34.0762 4.55751L34.0853 4.55714L34.1172 4.55615C34.1442 4.55544 34.1793 4.55475 34.223 4.55412C34.3105 4.55284 34.4262 4.55185 34.5695 4.55114C34.8558 4.54972 35.2441 4.54943 35.7208 4.54988C36.4042 4.55053 37.2648 4.5527 38.2598 4.55521C38.6529 4.55621 39.067 4.55725 39.4994 4.55828C42.5513 4.56552 46.5096 4.57173 50.4137 4.55103C54.3154 4.53033 58.1732 4.48272 61.0211 4.38184C62.4409 4.33154 63.6307 4.26735 64.4545 4.18413C64.8562 4.14355 65.2188 4.09404 65.487 4.02677C65.5984 3.99881 65.8077 3.94173 65.9974 3.81784C66.0262 3.79902 66.067 3.77075 66.1132 3.73166C67.218 3.35962 68.6259 3.2668 69.9807 3.39645C71.4687 3.53884 72.6815 3.92828 73.2392 4.31495C73.4783 4.48071 73.7778 4.53413 74.0594 4.46126C79.0931 3.15912 84.7304 2.37681 91.1266 2.50723L91.1273 2.50724C92.7346 2.5389 93.9777 2.76042 94.8511 3.07038C95.7618 3.39358 96.1166 3.75513 96.2118 3.9438C96.4505 4.4165 97.0162 4.62123 97.5021 4.4107C99.1108 3.71367 101.361 3.28365 103.573 3.25197C105.809 3.21993 107.817 3.59783 109.03 4.34465C109.188 4.44173 109.369 4.49313 109.554 4.49313C109.579 4.49313 109.672 4.49428 109.818 4.49609C110.456 4.504 112.116 4.52459 113.664 4.51794C114.631 4.51379 115.599 4.49928 116.326 4.46403C116.685 4.44667 117.013 4.42306 117.26 4.38844C117.373 4.37254 117.526 4.3471 117.668 4.29936C117.71 4.28514 117.796 4.25491 117.895 4.19797C121.151 3.2704 124.214 3.65142 127.569 4.06865C128.096 4.13425 128.631 4.20076 129.175 4.26321C133.186 4.72388 137.516 4.91515 142.421 2.42327C144.47 1.65443 147.223 1.49198 149.562 1.84275C150.736 2.01876 151.745 2.31559 152.474 2.68698C153.236 3.07518 153.512 3.44901 153.575 3.68426C153.644 3.9417 153.812 4.16114 154.043 4.29391C154.274 4.42667 154.548 4.46179 154.805 4.39147C157.57 3.63489 160.791 3.52869 163.375 4.4366C163.482 4.47402 163.594 4.49313 163.707 4.49313H175.927C176.152 4.49313 176.369 4.41779 176.546 4.2792C178.371 2.84391 181.983 1.82512 185.459 1.71264C187.177 1.65708 188.775 1.82699 190.024 2.22963C191.292 2.63818 192.046 3.23185 192.356 3.90947C192.537 4.30329 192.95 4.53624 193.38 4.48652C193.375 4.48715 193.375 4.48712 193.384 4.48667C193.399 4.48594 193.435 4.48411 193.502 4.48219C193.597 4.47951 193.725 4.47725 193.887 4.47546C194.211 4.47187 194.657 4.47025 195.208 4.47012C196.311 4.46986 197.824 4.47554 199.609 4.48278L200.252 4.4854C203.727 4.4996 208.1 4.51747 212.429 4.50968C217.027 4.5014 221.586 4.46417 224.97 4.36237C226.658 4.31158 228.074 4.2442 229.06 4.15416C229.545 4.10989 229.967 4.05673 230.276 3.98744C230.414 3.95635 230.616 3.90416 230.799 3.80534C230.831 3.78788 230.878 3.76107 230.931 3.72271C234.284 2.8919 237.634 3.40806 239.556 4.38469C239.697 4.45598 239.852 4.49313 240.009 4.49313L258.798 4.49316ZM162.883 47.9693C162.883 47.9693 162.884 47.9706 162.886 47.9735C162.884 47.9707 162.883 47.9693 162.883 47.9693ZM116.447 3.51944C116.442 3.49835 116.438 3.47756 116.434 3.45707C116.434 3.45706 116.434 3.45706 116.435 3.45706C116.438 3.47784 116.442 3.49864 116.447 3.51944ZM1.17024 34.4886C1.17028 34.4886 1.17078 34.4892 1.17162 34.4906C1.17063 34.4893 1.17021 34.4886 1.17024 34.4886ZM1.99175 26.7123C1.9918 26.7124 1.99112 26.714 1.98959 26.7169C1.99094 26.7137 1.99171 26.7122 1.99175 26.7123Z" stroke="#4E4B9A" stroke-width="2" stroke-miterlimit="10" stroke-linecap="round" stroke-linejoin="round"/>
</svg>
