<svg width="420" height="241" viewBox="0 0 420 241" fill="none" xmlns="http://www.w3.org/2000/svg">
<path d="M402.353 235.889H19.6444C12.2185 235.889 6.2002 229.17 6.2002 220.879V19.7C6.2002 11.409 12.2185 4.68945 19.6444 4.68945H402.356C409.782 4.68945 415.8 11.409 415.8 19.7V220.883C415.797 229.17 409.778 235.889 402.353 235.889Z" fill="#E4E4E4"/>
<path d="M416.361 16.0105V15.9789L416.36 15.9472C416.192 11.9632 415.777 8.79686 414.26 6.51278C412.656 4.09692 410.049 2.96315 406.368 2.41317C402.712 1.86697 397.654 1.84886 390.754 1.95573C389.044 1.98222 387.216 2.01661 385.26 2.0534C379.269 2.16608 372.078 2.30132 363.415 2.30132C349.202 2.30132 313.389 2.37681 269.882 2.46852C172.41 2.67398 36.3207 2.96084 17.985 2.66261C14.6337 2.60809 11.8211 3.56815 9.55269 5.52005C7.31756 7.44334 5.72588 10.23 4.58856 13.6383C2.32661 20.4168 1.70785 30.1442 1.83564 41.9855C1.94259 51.8954 2.57785 63.4356 3.2797 76.1854C3.41926 78.7207 3.56146 81.3038 3.70266 83.9315C4.55496 99.7926 5.3738 117.318 5.3738 135.878C5.3738 140.073 5.00564 146.495 4.56649 154.155C4.48604 155.558 4.40322 157.003 4.31984 158.483C3.78319 168.01 3.22801 178.944 3.16093 189.516C3.09395 200.073 3.51257 210.339 4.94532 218.512C5.66141 222.596 6.64177 226.224 7.97915 229.127C9.29853 231.99 11.0373 234.302 13.3679 235.548C13.7595 235.787 14.246 235.922 14.6304 236.013C15.1084 236.126 15.6989 236.228 16.3777 236.322C17.7392 236.51 19.562 236.681 21.768 236.837C26.1861 237.151 32.235 237.414 39.4052 237.635C53.7505 238.077 72.6486 238.351 92.1056 238.521C126.168 238.819 161.976 238.796 178.135 238.785C180.438 238.784 182.342 238.783 183.784 238.783C188.439 238.783 197.348 238.846 209.028 238.929C233.433 239.102 269.938 239.361 305.024 239.309C330.994 239.27 356.249 239.061 375.371 238.521C384.929 238.251 392.975 237.898 398.818 237.439C401.735 237.211 404.134 236.953 405.909 236.662C406.793 236.516 407.558 236.357 408.169 236.177C408.7 236.021 409.382 235.779 409.847 235.331C416.046 229.363 417.529 222.323 417.616 205.971C417.65 199.416 417.456 191.274 417.212 181.006C417.15 178.428 417.086 175.716 417.021 172.862C416.696 158.624 416.361 140.797 416.361 118.259V16.0105Z" stroke="#221856" stroke-width="3"/>
</svg>
