<svg width="280" height="57" viewBox="0 0 280 57" fill="none" xmlns="http://www.w3.org/2000/svg">
<path d="M5.48554 3.25454C18.7883 2.94526 32.0911 2.73908 45.2939 2.84218C71.8995 2.84218 98.405 0.883417 124.911 0.161771C154.817 -0.250598 184.723 0.16179 214.629 0.986528C231.133 1.50199 247.936 2.22362 264.34 3.25454C267.24 3.56382 271.741 3.25456 274.742 4.59476C277.743 5.83187 278.743 9.337 279.443 12.2236C279.643 13.0483 279.743 13.8731 279.843 14.6978C280.243 21.7081 279.843 28.5122 279.043 35.4193C278.343 40.2647 277.242 53.0481 272.942 55.4193C272.241 55.7285 270.941 55.6254 270.141 55.6254C205.427 56.0378 138.213 58.3058 73.3997 55.9347C53.4956 55.4193 33.4914 55.3162 13.6872 53.8729C11.1867 53.5636 8.58617 53.5636 6.18567 52.6357C2.18483 50.2646 1.88477 44.9038 1.18462 40.7801C0.384454 33.976 0.784556 27.0689 0.484493 20.1617L0.084385 9.95554C0.084385 8.71843 -0.515716 3.25453 1.4847 4.18236C2.68495 5.21329 3.58514 6.4504 4.3853 7.7906C3.08503 7.06895 2.18483 5.93496 1.08459 5.11022C1.08459 5.11022 1.0846 5.11022 1.18462 5.11022C1.28464 5.11022 1.18462 5.11022 1.18462 5.11022C0.884559 6.34733 1.18462 8.71843 1.18462 9.95554C1.98479 21.8112 1.0846 33.976 3.68515 45.5224C4.08523 47.1719 4.68536 48.6152 5.18546 50.1615C5.48552 50.8832 5.7856 51.6048 6.48575 52.1203C7.08588 52.4296 7.98605 52.5327 8.78622 52.7388C30.2907 54.8007 51.8952 54.2852 73.3997 54.6976C112.108 55.2131 154.417 55.2131 192.925 55.11C216.93 55.0069 243.735 55.11 267.641 54.1821L270.141 54.0791L271.341 53.976H271.941C272.642 53.8729 273.042 53.1512 273.442 52.4296C274.542 50.2646 275.042 47.7904 275.442 45.3162C277.042 35.4194 277.643 25.007 276.942 15.0071C276.742 12.8421 275.942 10.3679 274.842 8.61535C273.442 6.96588 271.341 7.06896 269.141 6.96587C251.037 6.34732 232.533 5.52258 214.429 4.49166C197.926 3.35764 181.222 2.22364 164.719 2.01745C139.014 1.81127 110.908 3.04836 85.1022 3.77C65.198 4.49165 45.1939 4.28546 25.2897 3.77C18.6883 3.66691 11.9869 3.6669 5.38551 3.6669C5.48554 3.56381 5.48554 3.25454 5.48554 3.25454Z" fill="#605D62"/>
</svg>
