<svg width="225" height="37" viewBox="0 0 225 37" fill="none" xmlns="http://www.w3.org/2000/svg">
<g clip-path="url(#clip0_702_4457)">
<path d="M195.053 37C191.787 37 189.238 36.5547 187.271 35.6513C185.305 34.748 184.067 33.5138 183.193 31.9233C181.396 31.9233 179.939 31.7198 178.701 31.2999C177.426 31.707 175.945 31.9233 174.282 31.9233C172.619 31.9233 171.017 31.7325 169.767 31.3126C168.504 31.7325 167.023 31.9233 165.117 31.9233C163.211 31.9233 161.706 31.7325 160.444 31.3126C159.181 31.7325 157.688 31.9233 155.77 31.9233C153.379 31.9233 151.667 31.6307 150.21 30.9691C149.757 30.7648 149.322 30.5178 148.911 30.2311C147.358 31.3126 145.5 31.8725 143.388 31.8725C141.628 31.8725 140.098 31.5416 138.787 30.88C137.428 31.5416 135.874 31.8725 134.126 31.8725C131.941 31.8725 129.999 31.2872 128.408 30.142C126.625 31.2705 124.579 31.8605 122.497 31.847C121.27 31.8565 120.05 31.6677 118.879 31.2872C117.499 31.7534 116.056 31.9853 114.606 31.9742C112.069 31.9742 109.811 31.1727 108.087 29.7476C107.307 30.3937 106.423 30.8891 105.477 31.2108C103.438 31.9233 101.314 31.9233 100.173 31.9233C98.121 31.9233 96.4094 31.6307 94.9649 31.0454C93.0824 31.6667 91.1236 31.9968 89.1502 32.0251C88.1242 32.0376 87.1045 31.8566 86.1397 31.4907C85.1399 31.8087 84.1011 31.9716 83.0563 31.9742C80.1793 31.9742 77.6058 30.8546 75.7242 28.8061C73.3571 30.88 70.0067 32.076 66.2071 32.076C63.9613 32.076 61.8613 31.6434 60.0404 30.8164L59.7248 30.9691C58.2681 31.6307 56.5564 31.9233 54.165 31.9233C51.7736 31.9233 50.062 31.6307 48.6053 30.9691H48.581C46.9179 31.6689 45.0485 32.0124 43.0091 32.0124C40.2778 32.0124 38.2627 31.2999 36.8181 30.4092C35.2157 31.2872 33.0185 32.0124 30.1051 32.0124C28.2236 32.0124 26.5241 31.6816 25.0431 31.0072C23.5985 31.6434 21.9112 31.9361 19.5562 31.9361C17.6382 31.9361 16.1451 31.7452 14.8826 31.3253C13.6201 31.7452 12.127 31.9361 10.209 31.9361C7.81757 31.9361 6.10595 31.6434 4.64924 30.9818C1.77225 29.6586 0.0727672 26.9484 0.0727672 23.7039C0.0611214 22.6394 0.255199 21.5833 0.643309 20.5994V12.3418C0.220904 11.3213 -0.00199505 10.2224 -0.012207 9.11007C-0.012207 6.62898 1.0439 4.50416 3.03473 2.95189C5.42615 1.09425 8.78871 -0.0126953 12.0299 -0.0126953C13.7779 -0.0126953 15.1132 0.458078 16.1086 1.05608C17.6333 0.60792 19.211 0.389429 20.7944 0.407183C24.2176 0.407183 26.4634 1.80677 27.7865 3.66441C28.7716 3.27215 29.8162 3.06956 30.8699 3.0664C33.3099 3.0664 35.4828 4.16062 36.8545 5.95464C38.7968 4.5296 40.9818 3.0664 43.7739 3.0664C44.6482 3.06619 45.517 3.21223 46.3474 3.499C46.5497 3.31239 46.7601 3.13002 46.9786 2.95189C49.37 1.09425 52.7326 -0.0126953 55.9738 -0.0126953C60.6231 -0.0126953 62.4197 3.15546 62.9781 4.51688C63.1776 5.00499 63.332 5.51201 63.4394 6.03098C64.5456 5.79153 65.6724 5.67214 66.8019 5.67472C71.0142 5.67472 74.0369 7.15065 76.0277 9.14824C77.4102 7.72138 79.1335 6.7106 81.0169 6.22183C81.5025 4.88586 82.3765 3.72802 83.5904 2.78648L83.6268 2.76103C87.038 0.190883 91.493 -0.0126953 92.7798 -0.0126953C97.4291 -0.0126953 99.2257 3.15546 99.7841 4.51688C99.9706 4.97707 100.117 5.45403 100.221 5.94191C100.83 5.87323 101.442 5.83924 102.054 5.84012C102.929 5.83227 103.801 5.96092 104.64 6.22183C105.619 5.86283 106.649 5.6821 107.687 5.68744C108.573 5.68744 110.503 5.84013 112.36 6.97252C114.351 6.18366 116.682 5.78923 119.316 5.78923C121.623 5.78923 123.662 6.14549 125.374 6.83256C126.915 6.14549 128.797 5.81468 131.188 5.81468C132.9 5.81468 134.429 6.0437 135.74 6.50175C137.064 6.03098 138.617 5.81468 140.584 5.81468C142.259 5.81468 143.764 6.03098 145.063 6.4763C145.413 6.33965 145.769 6.22494 146.132 6.13277C146.669 4.86555 147.52 3.77181 148.596 2.96461C150.987 1.10698 154.35 2.89846e-05 157.591 2.89846e-05C159.339 2.89846e-05 160.674 0.470798 161.67 1.0688C163.194 0.62064 164.772 0.402154 166.355 0.419907C170.92 0.419907 173.53 2.91372 174.464 5.94191C175.049 5.87589 175.637 5.84191 176.225 5.84012C177.247 5.82891 178.262 6.00991 179.223 6.37451C180.483 5.977 181.792 5.77971 183.108 5.78923C185.074 5.78923 186.846 6.27273 188.315 7.21427C190.391 6.27273 192.94 5.78923 195.914 5.78923C196.786 5.78744 197.657 5.83416 198.524 5.92919L198.634 5.86557C199.435 5.36936 201.074 4.35147 203.259 4.35147C204.91 4.33671 206.511 4.95168 207.762 6.08187C209.679 5.62201 211.664 5.56579 213.601 5.91647C214.321 5.71047 215.064 5.60775 215.811 5.6111C220.715 5.6111 224.551 9.56812 224.551 14.6194C224.553 15.4208 224.442 16.2181 224.223 16.9859C224.735 18.2669 224.995 19.6431 224.988 21.032C224.988 23.9584 223.92 26.6685 222.002 28.6661C220.508 30.2057 217.777 32.0379 213.237 32.0379C212.253 32.0389 211.27 31.9537 210.299 31.7834C209.526 32.019 208.725 32.139 207.92 32.1396C207.087 33.2021 206.075 34.0949 204.934 34.7734C202.47 36.2621 199.228 36.9873 195.053 36.9873" fill="#FFC2D2"/>
<path d="M221.164 17.1259C221.568 16.3589 221.777 15.4956 221.771 14.6193C221.771 11.2094 219.161 8.53749 215.811 8.53749C215.116 8.53473 214.428 8.673 213.783 8.94465C212.9 8.72864 211.996 8.61767 211.088 8.61384C209.625 8.59398 208.173 8.87944 206.815 9.45359C206.051 7.96494 204.643 7.26514 203.247 7.26514C201.851 7.26514 200.916 7.82498 200.066 8.35937L200.03 8.38481C199.398 8.79196 199.216 8.89375 198.974 8.93192C197.96 8.77923 196.938 8.70692 195.914 8.71562C192.163 8.71562 189.675 9.54265 188.036 10.6878C186.871 9.41542 185.183 8.71562 183.108 8.71562C181.469 8.71562 180.146 9.04643 179.077 9.55538C178.313 9.04643 177.354 8.77924 176.225 8.77924C174.802 8.78544 173.388 9.00393 172.025 9.42814C172.062 9.17979 172.082 8.9289 172.085 8.67745C172.085 6.1073 170.58 3.35902 166.356 3.35902C164.328 3.35902 162.58 3.71528 161.196 4.3769C160.504 3.61349 159.388 2.93915 157.591 2.93915C154.969 2.93915 152.153 3.85524 150.259 5.33117C149.081 6.23454 148.462 7.4051 148.365 8.79196C147.24 8.79947 146.134 9.10123 145.148 9.66989C144.08 9.12278 142.611 8.7538 140.596 8.7538C138.581 8.7538 136.93 9.04643 135.765 9.68261C134.709 9.12278 133.24 8.7538 131.2 8.7538C128.688 8.7538 126.927 9.14822 125.653 9.98797L125.471 10.1152C123.662 9.04643 121.392 8.72835 119.316 8.72835C116.16 8.72835 113.744 9.36452 112.008 10.3697C110.539 8.80469 108.537 8.62656 107.687 8.62656C106.636 8.62014 105.601 8.89145 104.676 9.41542C104.009 9.02099 103.159 8.79196 102.054 8.79196C100.581 8.79936 99.1161 9.03518 97.7084 9.49176C97.7084 8.06672 97.6719 6.83254 97.2228 5.70015C96.7736 4.56776 95.669 2.95187 92.792 2.95187C90.5826 2.95187 87.4507 3.53715 85.29 5.16576L85.2657 5.19121C84.0518 6.13275 83.4084 7.35421 83.3598 8.81741C79.7666 9.1864 77.2295 11.2222 76.052 14.543C75.1052 11.3621 71.9733 8.65201 66.8141 8.65201C64.5805 8.65201 62.5775 9.17367 60.9145 10.1279V9.80985C60.9145 8.2703 60.9145 6.93433 60.4168 5.7256C59.919 4.51686 58.8629 2.97732 55.9859 2.97732C53.3639 2.97732 50.5476 3.89341 48.6539 5.36934C47.9862 5.86555 47.4546 6.53684 47.1122 7.31604C46.2746 6.52718 45.1092 6.05641 43.7861 6.05641C41.6374 6.05641 39.8772 7.36693 37.9835 8.76652C37.5951 9.05916 37.1459 9.40269 36.6725 9.79712C36.2928 9.63334 35.8918 9.5304 35.4828 9.49176C34.9609 7.44327 33.1764 6.05641 30.87 6.05641C29.2554 6.05641 27.8594 6.79437 26.4513 7.76136C26.1114 5.5093 24.4969 3.3972 20.7944 3.3972C18.7672 3.3972 17.0191 3.75345 15.6353 4.41508C14.9433 3.65167 13.8265 2.97732 12.0299 2.97732C9.40785 2.97732 6.59156 3.89341 4.69785 5.36934C3.43537 6.34905 2.79199 7.63412 2.79199 9.17367C2.79199 10.2297 3.14403 11.0822 3.37467 11.6166L3.44751 11.8074V21.2992C3.05815 22.0529 2.85766 22.8978 2.86483 23.7548C2.86483 25.8288 3.92094 27.4955 5.75396 28.3353C6.84648 28.8315 8.21821 29.0478 10.1969 29.0478C12.1756 29.0478 13.5595 28.8315 14.6398 28.3353L14.8584 28.2208L15.0769 28.3353C16.1694 28.8315 17.5411 29.0478 19.5198 29.0478C21.4985 29.0478 22.8824 28.8315 23.9627 28.3353C24.3191 28.1713 24.657 27.9665 24.9703 27.7246C26.0628 28.4752 27.6895 29.1241 30.0566 29.1241C33.492 29.1241 35.6528 27.9409 36.891 26.8975C37.8864 27.9281 39.7437 29.1241 42.9727 29.1241C45.522 29.1241 47.355 28.4752 48.6539 27.7118C48.9742 27.9599 49.3204 28.169 49.6857 28.3353C50.7782 28.8315 52.15 29.0478 54.1286 29.0478C56.1073 29.0478 57.4912 28.8315 58.5716 28.3353C59.0377 28.1235 59.4713 27.8405 59.8583 27.4955C61.5336 28.6025 63.6701 29.2005 66.1464 29.2005C70.8686 29.2005 74.5711 27.0502 75.9306 23.793C76.2327 24.709 76.68 25.565 77.2538 26.325C78.6255 28.119 80.6649 29.0987 83.0078 29.0987C84.1257 29.0943 85.2301 28.8428 86.249 28.3607C87.0137 28.8697 87.9727 29.1496 89.1138 29.1496C90.8254 29.1496 93.2654 28.717 95.0742 27.9281C96.1788 28.6025 97.7933 29.0478 100.148 29.0478C102.163 29.0478 107.359 29.0478 107.808 24.5437C108.719 27.3174 111.256 29.0987 114.594 29.0987C116.062 29.1182 117.518 28.8148 118.867 28.208C119.79 28.6534 120.979 28.9715 122.484 28.9715C124.718 28.9715 127.061 28.119 128.493 26.2995C129.501 27.6609 131.164 28.9969 134.114 28.9969C136.311 28.9969 137.78 28.348 138.812 27.4828C139.892 28.4371 141.324 28.9969 143.388 28.9969C146.374 28.9969 148.013 27.61 148.996 26.185C149.517 27.1545 150.334 27.912 151.315 28.3353C152.408 28.8315 153.779 29.0478 155.758 29.0478C157.737 29.0478 159.121 28.8315 160.201 28.3353L160.419 28.2208L160.638 28.3353C161.73 28.8315 163.102 29.0478 165.081 29.0478C167.06 29.0478 168.443 28.8315 169.524 28.3353L169.73 28.2335L169.937 28.3353C171.029 28.8315 172.352 29.0478 174.246 29.0478C176.14 29.0478 177.645 28.7297 178.689 28.2208L179.077 28.3989C180.121 28.8442 181.432 29.0478 183.193 29.0478C183.813 29.0522 184.433 29.0224 185.05 28.9587C185.341 30.7146 186.519 32.1651 188.364 33.0303C189.966 33.7682 192.151 34.1372 195.028 34.1372C198.706 34.1372 201.486 33.5392 203.514 32.3177C204.849 31.5034 205.856 30.4347 206.5 29.1496C206.939 29.25 207.386 29.3012 207.835 29.3023C208.598 29.3084 209.353 29.1526 210.057 28.8442C211.094 29.0806 212.152 29.2 213.213 29.2005C219.404 29.2005 222.184 25.1417 222.184 21.121C222.2 19.737 221.838 18.377 221.14 17.2022" fill="#025563"/>
<path d="M14.1663 21.4392V9.86075C14.1663 7.20154 14.1906 5.85284 12.0298 5.85284C9.86905 5.85284 7.80539 6.52719 6.34869 7.65959C5.766 8.10491 5.57178 8.52478 5.57178 9.11007C5.57178 9.69535 5.74173 9.97527 5.92381 10.3951C6.10633 10.7797 6.20972 11.2002 6.22729 11.6293V21.4264C6.23594 21.8076 6.13896 22.1833 5.94809 22.5079C5.77814 22.8769 5.64461 23.1441 5.64461 23.6912C5.64461 25.587 7.35624 26.0578 10.1968 26.0578C13.0374 26.0578 14.749 25.587 14.749 23.6912C14.749 23.1441 14.6276 22.8769 14.4455 22.5079C14.2547 22.1833 14.1577 21.8076 14.1663 21.4264" fill="#5CC1FF"/>
<path d="M23.5138 21.4391V15.51C23.5138 12.978 23.4895 11.6929 21.3773 11.6929C19.2651 11.6929 17.1286 12.24 15.7204 13.347C15.1377 13.7923 14.9678 14.2122 14.9678 14.7975C14.9678 15.3828 15.1377 15.7136 15.2955 16.1462C15.467 16.5336 15.562 16.9534 15.5747 17.3803V21.4391C15.5834 21.8204 15.4864 22.196 15.2955 22.5206C15.1256 22.8896 14.9921 23.1568 14.9921 23.7039C14.9921 25.5997 16.7037 26.0705 19.5443 26.0705C22.3848 26.0705 24.0965 25.5997 24.0965 23.7039C24.0965 23.1568 23.9751 22.8896 23.793 22.5206C23.6021 22.196 23.5051 21.8204 23.5138 21.4391Z" fill="#5CC1FF"/>
<path d="M17.9294 11.6675C20.4665 11.6675 23.7319 10.8786 23.7319 8.66473C23.7319 6.94705 22.6515 6.27271 20.7942 6.27271C18.2571 6.27271 14.9917 7.08701 14.9917 9.37724C14.9917 11.0059 16.0721 11.6675 17.9294 11.6675Z" fill="#5CC1FF"/>
<path d="M35.3371 19.6197C34.2809 19.6197 33.8318 20.6757 33.322 20.6757C32.8121 20.6757 32.8485 20.434 32.8485 20.0396V17.0368C32.8485 16.9096 32.9214 16.8587 33.0792 16.8587H35.1186C35.944 16.8587 36.4539 16.1462 36.4539 14.5939C36.4539 13.0416 36.0169 12.3546 35.1186 12.3546H33.0792C32.9335 12.3546 32.8485 12.3037 32.8485 12.1764V10.7514C32.8485 9.51723 31.9745 8.93195 30.8698 8.93195C29.7652 8.93195 28.3327 9.87349 26.7061 11.0949C25.0794 12.3164 23.7441 13.4615 23.7441 15.0392C23.7356 15.4624 23.8417 15.8795 24.0501 16.242C24.2585 16.6046 24.5607 16.8978 24.9216 17.0877V21.7954C24.8973 24.6328 26.8518 26.1341 30.0929 26.1341C34.9122 26.1341 36.8302 23.3222 36.8302 21.2865C36.8302 20.3068 36.3082 19.607 35.3492 19.607" fill="#5CC1FF"/>
<path d="M48.253 19.6197C47.1969 19.6197 46.7477 20.6757 46.2379 20.6757C45.7281 20.6757 45.7645 20.434 45.7645 20.0396V17.0368C45.7645 16.9096 45.8373 16.8587 45.9951 16.8587H48.0345C48.86 16.8587 49.3698 16.1462 49.3698 14.5939C49.3698 13.0416 48.9449 12.3546 48.0345 12.3546H45.983C45.8373 12.3546 45.7523 12.3037 45.7523 12.1764V10.7514C45.7523 9.51723 44.8783 8.93195 43.7736 8.93195C42.669 8.93195 41.2365 9.87349 39.6099 11.0949C37.9832 12.3164 36.6479 13.4615 36.6479 15.0392C36.6394 15.4624 36.7455 15.8795 36.9539 16.242C37.1623 16.6046 37.4645 16.8978 37.8254 17.0877V21.7954C37.8012 24.6328 39.7556 26.1341 42.9967 26.1341C47.816 26.1341 49.734 23.3222 49.734 21.2865C49.734 20.3068 49.212 19.607 48.253 19.607" fill="#5CC1FF"/>
<path d="M58.1224 21.4391V9.86075C58.1224 7.20154 58.1467 5.85284 55.9859 5.85284C53.8251 5.85284 51.7614 6.53992 50.3047 7.67231C49.7221 8.11763 49.5278 8.53751 49.5278 9.12279C49.5278 9.70807 49.6978 9.98799 49.8799 10.4079C50.0624 10.7924 50.1658 11.2129 50.1833 11.642V21.4391C50.192 21.8204 50.095 22.196 49.9041 22.5206C49.7342 22.8896 49.6007 23.1568 49.6007 23.7039C49.6007 25.5997 51.3123 26.0705 54.1529 26.0705C56.9934 26.0705 58.7051 25.5997 58.7051 23.7039C58.7051 23.1568 58.5837 22.8896 58.4016 22.5206C58.2107 22.196 58.1137 21.8204 58.1224 21.4391Z" fill="#5CC1FF"/>
<path d="M72.5315 19.2253C71.7061 19.2253 70.5529 19.7724 68.4406 19.7724C67.336 19.7724 66.3284 19.378 66.3284 19.0599C66.3284 18.9581 66.4013 18.9326 66.5348 18.9326H70.9777C72.5558 18.9326 73.5634 18.271 73.5634 16.5915C73.5634 14.2504 71.4754 11.5403 66.8018 11.5403C61.934 11.5403 58.6079 14.5176 58.6079 19.2762C58.6079 23.6403 61.3999 26.2232 66.1706 26.2232C70.6378 26.2232 73.7333 23.9584 73.7333 20.8793C73.7333 19.7215 73.3084 19.2253 72.5315 19.2253ZM66.0735 16.5152C66.0735 15.65 66.2434 14.5176 66.7047 14.5176C67.166 14.5176 67.1539 14.9375 67.1539 15.3573C67.1539 16.1716 66.8019 16.9859 66.3041 16.9859C66.1221 16.9859 66.0735 16.8078 66.0735 16.5152Z" fill="#5CC1FF"/>
<path d="M94.9404 20.7267V9.84806C94.9404 7.18884 94.9647 5.84015 92.8039 5.84015C90.6431 5.84015 88.361 6.42543 86.9286 7.49421C86.3459 7.93953 86.1517 8.35941 86.1517 8.94469C86.1517 9.52997 86.4066 9.83533 86.6251 10.2934C86.8858 10.7641 87.0161 11.3016 87.0014 11.8457V12.1128C86.273 11.7693 85.4719 11.6421 84.5857 11.6421C80.337 11.6421 78.0791 14.2758 78.0791 19.2762C78.0791 23.9076 80.0942 26.1214 83.0319 26.1214C83.7997 26.1131 84.5565 25.9302 85.2503 25.5853C85.944 25.2404 86.558 24.7418 87.0499 24.1239C87.1471 25.498 87.5719 26.1723 89.1379 26.1723C91.068 26.1723 93.5808 25.5362 94.6612 24.8236C95.341 24.3783 95.5352 23.8821 95.5352 23.2968C95.5352 22.7115 95.3531 22.3807 95.2075 21.9481C95.036 21.5607 94.941 21.1409 94.9283 20.7139L94.9404 20.7267ZM86.6372 21.8718C86.3095 21.8718 86.2123 21.5283 86.2123 18.1311C86.2123 14.7339 86.3095 14.3904 86.6372 14.3904C86.965 14.3904 87.0621 14.7339 87.0621 18.1311C87.0621 21.5283 86.965 21.8718 86.6372 21.8718Z" fill="#5CC1FF"/>
<path d="M107.699 11.5403C106.072 11.5403 104.931 12.5963 104.178 14.0214C104.081 12.4691 103.705 11.7057 102.066 11.7057C100.136 11.7057 97.8175 12.2528 96.4094 13.3597C95.8267 13.8051 95.6567 14.2249 95.6567 14.8102C95.6567 15.3955 95.8267 15.7263 95.9845 16.1589C96.156 16.5464 96.251 16.9662 96.2637 17.3931V21.4519C96.2723 21.8331 96.1754 22.2088 95.9845 22.5334C95.8145 22.9024 95.681 23.1696 95.681 23.7167C95.681 25.6125 97.4898 26.0833 100.148 26.0833C103.389 26.0833 105.04 25.6888 105.04 23.8694C105.04 23.2332 104.81 22.9278 104.567 22.5207C104.324 22.1135 104.191 22.0245 104.191 21.4392V17.7748C104.191 17.5076 104.288 17.4313 104.421 17.4313C104.98 17.4313 104.822 20.4849 107.541 20.4849C109.872 20.4849 110.952 18.6655 110.952 15.7518C110.952 12.8381 109.726 11.5403 107.687 11.5403" fill="#5CC1FF"/>
<path d="M126.757 21.3246C126.308 21.0065 126.126 20.6121 126.126 19.8741V16.935C126.126 15.2555 126.126 11.642 119.316 11.642C114.339 11.642 111.28 13.5633 111.28 15.8535C111.28 17.1131 112.215 17.8257 114.023 17.8257C116.136 17.8257 117.264 17.1895 117.519 15.7517C117.641 15.1156 117.641 14.7211 117.92 14.7211C118.199 14.7211 118.199 15.0392 118.199 15.3064V17.8257C118.199 18.0929 118.199 18.2201 117.896 18.1946C117.053 18.093 116.206 18.042 115.359 18.042C112.397 18.042 110.236 19.0471 110.236 22.1262C110.236 24.7854 112.19 26.1341 114.606 26.1341C116.488 26.1341 117.944 25.5488 118.952 24.7345C119.704 25.4979 120.858 25.9942 122.496 25.9942C125.616 25.9942 127.097 24.1747 127.097 21.9862C127.097 21.5664 127.049 21.5155 126.769 21.3246H126.757ZM118.005 22.9532C117.75 22.9532 117.58 22.6351 117.58 21.5536C117.58 20.4721 117.75 20.2431 118.005 20.2431C118.26 20.2431 118.406 20.9556 118.406 21.4773C118.406 22.6351 118.308 22.9532 118.005 22.9532Z" fill="#5CC1FF"/>
<path d="M148.486 11.6929C146.326 11.6929 145.476 12.8508 145.476 14.1995C145.476 15.1537 145.901 15.4082 145.901 16.1716C145.901 16.6424 145.755 17.2531 145.549 18.0929C145.5 18.271 145.452 18.4109 145.294 18.4109C145.136 18.4109 145.087 18.3092 145.039 18.0929C144.735 16.8841 144.687 16.5915 144.687 16.2734C144.687 15.4336 145.112 15.1919 145.112 14.2504C145.112 12.4563 143.534 11.6675 140.596 11.6675C137.051 11.6675 135.947 12.5581 135.947 14.2504C135.947 15.141 136.372 15.4591 136.372 16.1971C136.372 16.6424 136.25 17.2531 136.019 18.0929C135.971 18.271 135.922 18.4109 135.765 18.4109C135.607 18.4109 135.558 18.3092 135.51 18.0929C135.23 16.9859 135.158 16.5915 135.158 16.2479C135.158 15.4336 135.582 15.2428 135.582 14.2504C135.582 12.5708 134.356 11.6675 131.188 11.6675C127.121 11.6675 126.138 12.7999 126.138 14.543C126.138 15.6754 126.539 16.1971 126.915 16.7569C127.437 17.5203 127.437 17.5457 128.396 19.7087L129.804 22.8387C130.435 24.2383 131.212 26.0196 134.101 26.0196C136.991 26.0196 137.743 24.5691 138.447 23.0423C138.544 22.8006 138.593 22.6479 138.799 22.6479C139.006 22.6479 139.03 22.7751 139.151 23.0423C140.159 25.1544 140.96 26.0196 143.376 26.0196C146.083 26.0196 146.848 24.4419 147.576 22.8387L149.008 19.7087C149.64 18.3346 149.882 17.5457 150.587 16.5533C151.011 15.968 151.521 15.2428 151.521 14.2122C151.521 12.6854 150.465 11.7056 148.486 11.7056" fill="#5CC1FF"/>
<path d="M159.74 21.4391V9.86075C159.74 7.20154 159.764 5.85284 157.603 5.85284C155.442 5.85284 153.379 6.53992 151.922 7.67231C151.339 8.11763 151.145 8.53751 151.145 9.12279C151.145 9.70807 151.315 9.98799 151.497 10.4079C151.68 10.7924 151.783 11.2129 151.801 11.642V21.4391C151.809 21.8204 151.712 22.196 151.521 22.5206C151.351 22.8896 151.218 23.1568 151.218 23.7039C151.218 25.5997 152.929 26.0705 155.77 26.0705C158.611 26.0705 160.322 25.5997 160.322 23.7039C160.322 23.1568 160.201 22.8896 160.019 22.5206C159.828 22.196 159.731 21.8204 159.74 21.4391Z" fill="#5CC1FF"/>
<path d="M169.087 21.4391V15.51C169.087 12.978 169.063 11.6929 166.951 11.6929C164.838 11.6929 162.702 12.24 161.294 13.347C160.711 13.7923 160.541 14.2122 160.541 14.7975C160.541 15.3828 160.711 15.7136 160.869 16.1462C161.04 16.5336 161.135 16.9534 161.148 17.3803V21.4391C161.157 21.8204 161.06 22.196 160.869 22.5206C160.699 22.8896 160.565 23.1568 160.565 23.7039C160.565 25.5997 162.277 26.0705 165.117 26.0705C167.958 26.0705 169.67 25.5997 169.67 23.7039C169.67 23.1568 169.548 22.8896 169.366 22.5206C169.175 22.196 169.078 21.8204 169.087 21.4391Z" fill="#5CC1FF"/>
<path d="M163.503 11.6675C166.04 11.6675 169.305 10.8786 169.305 8.66473C169.305 6.94705 168.225 6.27271 166.367 6.27271C163.83 6.27271 160.565 7.08701 160.565 9.37724C160.565 11.0059 161.645 11.6675 163.503 11.6675Z" fill="#5CC1FF"/>
<path d="M187.065 21.4392V16.0571C187.065 13.3216 185.936 11.6293 183.12 11.6293C180.789 11.6293 179.247 12.52 178.325 13.7669C178.227 12.3673 177.803 11.693 176.237 11.693C174.307 11.693 171.988 12.2401 170.58 13.347C169.997 13.7923 169.827 14.2122 169.827 14.7975C169.827 15.3828 169.997 15.7136 170.155 16.1462C170.326 16.5336 170.421 16.9535 170.434 17.3804V21.4392C170.443 21.8204 170.346 22.196 170.155 22.5207C169.985 22.8896 169.851 23.1568 169.851 23.704C169.851 25.5998 171.66 26.0705 174.27 26.0705C176.686 26.0705 178.616 25.6506 178.616 23.8566C178.607 23.4831 178.558 23.1118 178.47 22.7497C178.392 22.3954 178.359 22.0316 178.373 21.6682V17.6221C178.373 17.075 178.422 16.6806 178.749 16.6806C179.077 16.6806 179.126 17.075 179.126 17.6221V21.6809C179.14 22.0444 179.107 22.4081 179.029 22.7624C178.941 23.1245 178.892 23.4958 178.883 23.8694C178.883 25.6634 180.813 26.0832 183.229 26.0832C185.839 26.0832 187.648 25.6125 187.648 23.7167C187.648 23.1696 187.526 22.9024 187.344 22.5334C187.153 22.2088 187.056 21.8331 187.065 21.4519" fill="#5CC1FF"/>
<path d="M201.377 21.3247C199.495 21.3247 196.63 22.4571 193.948 22.4571C193.013 22.4571 192.819 22.3298 192.819 21.9354C192.819 21.8082 192.843 21.5155 193.025 21.5155C193.207 21.5155 193.426 21.6173 194.931 21.6173C200.527 21.6173 203.319 19.5052 203.319 16.248V15.9553C204.175 14.9151 204.649 13.5885 204.654 12.2146C204.654 10.8405 204.157 10.1916 203.271 10.1916C202.688 10.1916 202.19 10.4588 201.51 10.8787C200.612 11.4639 200.029 11.8202 198.876 11.8838C197.906 11.7134 196.923 11.6325 195.938 11.6421C190.209 11.6421 187.72 13.716 187.72 16.9351C187.72 18.5128 188.327 19.7215 189.602 20.4849C188.667 21.2738 188.048 22.3807 188.048 23.8058C188.044 24.6677 188.29 25.5105 188.752 26.2232C188.169 26.6431 187.793 27.2284 187.793 28.0172C187.793 29.913 189.978 31.1472 195.052 31.1472C201.207 31.1472 204.618 29.3278 204.618 25.1163C204.618 22.4825 203.283 21.3247 201.377 21.3247ZM194.943 14.4031C195.198 14.4031 195.392 14.6957 195.902 16.5152C196.206 17.5967 196.303 18.2201 196.303 18.4873C196.303 18.7545 196.181 18.8309 196.048 18.8309C195.914 18.8309 195.623 18.5128 195.113 16.7569C194.785 15.6245 194.688 15.0138 194.688 14.7593C194.688 14.5049 194.785 14.4158 194.943 14.4158V14.4031ZM195.623 28.6534C193.814 28.6534 192.782 28.4371 192.236 28.1572C192.03 28.0554 191.981 27.9791 191.981 27.9155C191.981 27.8518 192.03 27.8391 192.102 27.8391C192.175 27.8391 192.734 27.9663 193.863 27.9663C195.599 27.9663 198.16 27.5974 199.083 27.5974C199.459 27.5974 199.58 27.6483 199.58 27.7755C199.58 28.1699 198.403 28.6407 195.611 28.6407" fill="#5CC1FF"/>
<path d="M214.159 15.8027C212.703 15.3573 212.047 15.3573 212.047 14.8866C212.047 14.6703 212.217 14.543 212.521 14.543C213.152 14.543 214.378 15.0901 215.082 15.4846C216.017 16.0062 216.684 16.5406 217.388 16.5406C218.093 16.5406 218.967 15.8536 218.967 14.6194C218.967 12.7236 217.534 11.4639 215.798 11.4639C215.187 11.4478 214.593 11.6751 214.135 12.1001C213.152 11.7401 212.118 11.5552 211.076 11.553C207.204 11.553 204.873 13.7414 204.873 16.7188C204.873 20.3577 208.308 21.2992 209.801 21.7445C211.295 22.1899 211.914 22.2153 211.914 22.6352C211.914 22.8133 211.768 22.9533 211.416 22.9533C210.809 22.9533 209.68 22.5588 208.673 22.0372C207.665 21.5155 206.985 20.8539 206.135 20.8539C205.286 20.8539 204.509 21.5919 204.509 22.8006C204.509 24.7473 205.868 26.325 207.847 26.325C208.624 26.325 209.231 26.0578 209.632 25.6379C210.793 26.0269 212.005 26.2243 213.225 26.2232C217.243 26.2232 219.404 24.0348 219.404 21.0575C219.404 17.2659 215.616 16.2607 214.159 15.8154" fill="#5CC1FF"/>
<path d="M13.8628 22.9405C13.7778 22.966 13.4622 22.0626 13.3043 20.5485C13.2194 19.7978 13.1708 18.8944 13.1465 17.902C13.1223 16.9096 13.098 15.8153 13.098 14.6702C13.0858 12.38 13.1101 10.3061 13.1587 8.80468C13.1793 8.47847 13.1793 8.15118 13.1587 7.82497C13.1451 7.59209 13.0916 7.36368 13.0009 7.15062C12.9454 7.01856 12.8625 6.90118 12.7581 6.80709C12.6852 6.74347 12.6367 6.7053 12.6488 6.67985C12.661 6.65441 12.7217 6.64168 12.8309 6.67985C12.9976 6.73651 13.1424 6.84808 13.2437 6.99794C13.4008 7.22519 13.5085 7.48577 13.5593 7.76135C13.6248 8.1051 13.6614 8.45422 13.6685 8.80468C13.7414 10.3061 13.8021 12.38 13.8142 14.6702C13.8263 15.8153 13.8263 16.9096 13.8142 17.902C13.8021 18.8944 13.8021 19.7851 13.8142 20.523C13.8506 22.0117 13.972 22.9278 13.8749 22.9532" fill="#CAFBFF"/>
<path d="M21.1099 10.4842C21.0856 10.3824 21.3648 10.2425 21.7168 9.97527C21.9174 9.82367 22.0971 9.64385 22.251 9.44088C22.4233 9.2057 22.5398 8.93095 22.5908 8.6393C22.6447 8.36211 22.6194 8.07443 22.518 7.81227C22.4224 7.59546 22.2763 7.40732 22.0931 7.26516C21.7654 7.01069 21.474 6.99796 21.4619 6.88345C21.4498 6.76894 21.5226 6.76894 21.6804 6.73077C21.9013 6.68646 22.1297 6.71307 22.3359 6.80711C22.6561 6.9416 22.9249 7.18313 23.1007 7.49418C23.3091 7.88474 23.3779 8.34031 23.2949 8.77925C23.222 9.2007 23.0319 9.5902 22.7487 9.89893C22.5257 10.138 22.2567 10.3245 21.9596 10.446C21.7669 10.5303 21.5613 10.5777 21.3527 10.586C21.207 10.586 21.122 10.5478 21.1099 10.5097" fill="#CAFBFF"/>
<path d="M23.1615 24.7854C23.1251 24.7473 23.2464 24.5946 23.2343 24.3019C23.2267 24.1199 23.1811 23.9419 23.1008 23.7803C23.0158 23.5767 22.8701 23.3731 22.7123 23.0932C22.5404 22.7794 22.4136 22.4407 22.336 22.0881C22.2479 21.6958 22.1991 21.2949 22.1903 20.892C22.1782 20.4722 22.2025 20.0396 22.2146 19.5942L22.2874 18.2328C22.3481 17.304 22.4088 16.4134 22.4817 15.6118L22.5788 14.4794C22.6116 14.1747 22.6075 13.8669 22.5667 13.5633C22.5426 13.3561 22.4716 13.158 22.3597 12.9854C22.2478 12.8127 22.0982 12.6706 21.9233 12.5709C21.8247 12.515 21.7181 12.4763 21.6077 12.4563C21.5227 12.4436 21.4741 12.4309 21.4741 12.4055C21.4741 12.38 21.5105 12.3418 21.5955 12.3037C21.733 12.2567 21.8805 12.2523 22.0204 12.2909C22.2434 12.3433 22.4488 12.4576 22.6152 12.6218C22.7192 12.7225 22.8091 12.8382 22.8823 12.9653C22.961 13.1094 23.0222 13.2633 23.0644 13.4233C23.1502 13.7721 23.187 14.1322 23.1736 14.4921C23.1615 14.8611 23.1493 15.2428 23.1372 15.65C23.1008 16.4515 23.0644 17.3422 23.0037 18.271L22.9187 19.6324C22.8823 20.065 22.858 20.4849 22.8459 20.8666C22.8337 21.6427 22.9308 22.3171 23.1615 22.826C23.284 23.081 23.3894 23.3446 23.4771 23.6149C23.5479 23.8407 23.5604 24.0821 23.5135 24.3147C23.4841 24.4649 23.4122 24.6023 23.3071 24.7091C23.2343 24.7727 23.1736 24.7854 23.1615 24.7727" fill="#CAFBFF"/>
<path d="M32.3022 12.38C32.2051 12.38 32.1201 12.1637 32.0473 11.8202C32.0087 11.6183 31.9803 11.4145 31.9623 11.2095C31.938 10.9804 31.938 10.7133 31.9137 10.497C31.9064 10.3212 31.8562 10.1504 31.7681 10.0007C31.6753 9.87953 31.5596 9.77987 31.4282 9.70809L31.1004 9.50452C31.0154 9.4409 30.979 9.39 30.979 9.33911C30.979 9.28821 31.0397 9.25004 31.149 9.2246C31.2926 9.1921 31.4408 9.18778 31.586 9.21187C31.8318 9.24851 32.0608 9.36407 32.2415 9.54269C32.3577 9.66139 32.4487 9.80447 32.5085 9.96256C32.5658 10.1133 32.6026 10.2718 32.6178 10.4333C32.6304 10.5729 32.6344 10.7131 32.6299 10.8532C32.6299 10.9804 32.6178 11.095 32.6178 11.2222C32.6037 11.427 32.5794 11.6308 32.545 11.8329C32.4843 12.1892 32.3993 12.4055 32.3022 12.4055" fill="#CAFBFF"/>
<path d="M35.3859 16.5152C35.3252 16.4261 35.4588 16.2225 35.5316 15.8535C35.5771 15.6358 35.6056 15.4145 35.6166 15.1919C35.6335 14.9165 35.6335 14.6403 35.6166 14.3649C35.6021 14.1185 35.5445 13.8769 35.4466 13.6524C35.3627 13.4781 35.2424 13.3258 35.0946 13.207C34.9914 13.1187 34.877 13.0459 34.7547 12.9907C34.6576 12.9526 34.5847 12.9271 34.5726 12.8635C34.5605 12.7999 34.609 12.749 34.7425 12.6981C34.9303 12.6413 35.1306 12.6502 35.3131 12.7236C35.5905 12.8301 35.8285 13.0261 35.9929 13.2834C36.1782 13.5847 36.2869 13.9307 36.3085 14.2885C36.3298 14.6165 36.3094 14.946 36.2478 15.2683C36.2021 15.5412 36.1118 15.8037 35.9807 16.0444C35.8911 16.2153 35.7616 16.3598 35.6044 16.4643C35.4952 16.5279 35.4102 16.5406 35.3738 16.5024" fill="#CAFBFF"/>
<path d="M32.7395 21.0702C32.7467 21.0845 32.7494 21.1008 32.7473 21.1168C32.7451 21.1328 32.7381 21.1477 32.7273 21.1592C32.6918 21.2101 32.6402 21.2462 32.5817 21.261C32.4895 21.2863 32.3922 21.2819 32.3025 21.2483L32.1447 21.1592C32.0887 21.1167 32.0396 21.0652 31.999 21.0066C31.9219 20.8874 31.8682 20.7533 31.8412 20.6121C31.8141 20.4819 31.7938 20.3502 31.7805 20.2177C31.7493 19.9347 31.7331 19.6501 31.7319 19.3652C31.7319 18.1438 31.999 17.1768 32.1932 17.2022C32.3874 17.2277 32.436 18.1946 32.436 19.3652C32.436 19.6579 32.436 19.9378 32.4239 20.1922V20.5358C32.4204 20.6081 32.4244 20.6807 32.436 20.7521C32.4521 20.8396 32.4999 20.9172 32.5695 20.9684C32.6302 21.0193 32.6909 21.0193 32.7273 21.0702" fill="#CAFBFF"/>
<path d="M32.8121 25.0908C32.7757 24.989 33.1398 24.7981 33.6618 24.4292C34.3285 23.9624 34.9119 23.3767 35.3856 22.6988C35.5175 22.5067 35.6391 22.307 35.7498 22.1008C35.8526 21.9173 35.9419 21.7259 36.0168 21.5282C36.0737 21.3743 36.0985 21.2095 36.0897 21.0447C36.0775 20.9015 36.0361 20.7626 35.9683 20.6376C35.8634 20.4372 35.7134 20.2669 35.5313 20.1413C35.3977 20.0396 35.3006 20.0014 35.3006 19.9378C35.3006 19.8741 35.4099 19.836 35.6162 19.8614C35.9139 19.9158 36.1819 20.0834 36.3689 20.3322C36.5122 20.5077 36.6122 20.7174 36.6602 20.9429C36.7075 21.201 36.695 21.4671 36.6238 21.7191C36.5539 21.9658 36.4603 22.2045 36.3446 22.4316C35.814 23.5128 34.9497 24.3739 33.8925 24.8745C33.2612 25.1544 32.8364 25.1671 32.8121 25.0781" fill="#CAFBFF"/>
<path d="M45.0243 12.38C44.9272 12.3673 44.8665 12.151 44.83 11.8075C44.7936 11.4639 44.7693 11.0313 44.6844 10.586C44.6514 10.3924 44.5943 10.2042 44.5144 10.0262C44.4846 9.96263 44.4479 9.90286 44.4052 9.84805C44.3702 9.80397 44.3293 9.76541 44.2838 9.73353C44.2057 9.68035 44.1195 9.64161 44.0289 9.61902C43.956 9.59358 43.8832 9.59358 43.8589 9.54268C43.8346 9.49179 43.8468 9.42817 43.9439 9.3391C44.0159 9.28768 44.0972 9.25215 44.1828 9.23465C44.2683 9.21715 44.3564 9.21806 44.4416 9.23732C44.563 9.25836 44.6789 9.30606 44.7815 9.37728C44.8944 9.45591 44.9931 9.555 45.0728 9.66992C45.2325 9.90509 45.3403 10.1745 45.3884 10.4588C45.4752 10.9273 45.4586 11.4104 45.3399 11.8711C45.2428 12.2146 45.1335 12.4055 45.0364 12.3927" fill="#CAFBFF"/>
<path d="M47.9378 16.1971C47.9135 16.1462 47.95 16.0826 48.0107 15.9681C48.087 15.8272 48.1481 15.6778 48.1927 15.5227C48.2549 15.2899 48.2956 15.0513 48.3141 14.8102C48.3498 14.519 48.3538 14.2245 48.3263 13.9323C48.3079 13.697 48.2035 13.4782 48.0349 13.3216C47.866 13.1892 47.6711 13.0979 47.4644 13.0544L46.9667 12.9271C46.8453 12.889 46.7725 12.8508 46.7725 12.7999C46.7725 12.749 46.8332 12.6981 46.9545 12.6472C47.2625 12.5351 47.593 12.5088 47.9135 12.5709C48.0853 12.6024 48.2499 12.6672 48.3991 12.7617C48.5743 12.8758 48.7202 13.033 48.824 13.2198C48.9266 13.4079 48.9926 13.6155 49.0182 13.8305C49.0598 14.1962 49.0392 14.5666 48.9575 14.9247C48.9017 15.2224 48.7947 15.5069 48.6419 15.7645C48.5349 15.9509 48.379 16.1011 48.1927 16.1971C48.0592 16.2607 47.9742 16.248 47.95 16.1971" fill="#CAFBFF"/>
<path d="M45.6676 21.1465C45.6676 21.1974 45.5947 21.2483 45.4491 21.2356C45.3512 21.2173 45.2583 21.1772 45.1766 21.1179C45.0949 21.0586 45.0264 20.9816 44.9756 20.892C44.8421 20.6519 44.767 20.381 44.7571 20.1032C44.7328 19.836 44.7207 19.5433 44.7207 19.238C44.7207 18.0165 44.9635 17.0368 45.1577 17.0623C45.3519 17.0877 45.4248 18.0547 45.4248 19.2507C45.4248 19.5434 45.4126 19.836 45.4005 20.0905C45.3811 20.2811 45.3852 20.4735 45.4126 20.663C45.4353 20.7738 45.4809 20.878 45.5462 20.9684C45.5947 21.0447 45.6554 21.0829 45.6554 21.1338" fill="#CAFBFF"/>
<path d="M44.5628 25.3198C44.5506 25.2053 44.9755 25.1162 45.5582 24.8109C45.9002 24.6312 46.2254 24.4182 46.5293 24.1747C46.8988 23.8743 47.2402 23.5377 47.549 23.1695C47.8645 22.7966 48.1603 22.4058 48.4352 21.999C48.5496 21.8364 48.6473 21.6615 48.7265 21.4773C48.7571 21.4034 48.7815 21.3267 48.7993 21.2483V21.1338C48.8014 21.0999 48.8014 21.0659 48.7993 21.032C48.7957 20.9082 48.7667 20.7867 48.7144 20.6757C48.6761 20.5858 48.6227 20.5039 48.5565 20.434C48.4473 20.3195 48.338 20.2813 48.338 20.2304C48.338 20.1795 48.4594 20.1032 48.6901 20.1795C48.8476 20.2432 48.9871 20.3479 49.0954 20.4837C49.2037 20.6194 49.2773 20.7819 49.3092 20.9556C49.3214 21.0143 49.3295 21.0739 49.3335 21.1338C49.3365 21.1931 49.3365 21.2526 49.3335 21.3119C49.3252 21.4326 49.3048 21.552 49.2728 21.6682C49.2046 21.9095 49.1067 22.1405 48.9814 22.3552C48.7175 22.8169 48.4127 23.2514 48.071 23.653C47.7259 24.0629 47.3298 24.4224 46.8935 24.7218C46.5333 24.9673 46.1407 25.1559 45.7281 25.2817C45.4528 25.3697 45.1662 25.4126 44.8784 25.4089C44.672 25.3962 44.5628 25.358 44.5628 25.3071" fill="#CAFBFF"/>
<path d="M57.3696 12.7872C57.1754 12.7872 57.0297 11.1331 57.0419 9.11007C57.0611 8.66331 57.0367 8.21566 56.9691 7.7741C56.939 7.60172 56.8859 7.43466 56.8112 7.27788C56.7448 7.14575 56.6587 7.0255 56.5563 6.92162C56.4045 6.76376 56.2163 6.6498 56.01 6.59081C55.8644 6.55264 55.7551 6.53992 55.743 6.48902C55.7308 6.43813 55.8037 6.34906 56.01 6.29817C56.3078 6.24826 56.6123 6.32123 56.8598 6.50175C57.0355 6.61847 57.188 6.76969 57.309 6.94707C57.4455 7.14775 57.5482 7.37155 57.6124 7.60869C57.746 8.09219 57.7581 8.61385 57.7581 9.12279C57.746 11.1586 57.576 12.7999 57.3818 12.7999" fill="#CAFBFF"/>
<path d="M57.2849 16.5279C57.0907 16.5025 56.9935 15.9044 57.0178 15.1919C57.0421 14.4794 57.1999 13.8814 57.3941 13.8814C57.5884 13.8814 57.7583 14.4794 57.7219 15.2174C57.6855 15.9553 57.4791 16.5406 57.2849 16.5279Z" fill="#CAFBFF"/>
<path d="M57.0904 24.7473C57.0539 24.7091 57.1146 24.6073 57.2239 24.4546C57.373 24.2636 57.4994 24.0542 57.6002 23.8312C57.6544 23.6988 57.6793 23.5552 57.673 23.4113C57.6577 23.2605 57.5983 23.1183 57.5031 23.0041C57.3458 22.8069 57.2075 22.5938 57.0904 22.368C56.9845 22.0926 56.927 21.7995 56.9204 21.5028C56.8431 20.5956 56.8635 19.6823 56.9811 18.7799C57.0782 18.0929 57.2239 17.673 57.3089 17.6857C57.3938 17.6984 57.4545 19.3907 57.6245 21.4391C57.6269 21.6509 57.6596 21.8611 57.7216 22.0626C57.8189 22.2566 57.9284 22.4437 58.0494 22.6224C58.1217 22.7414 58.1788 22.8697 58.2193 23.0041C58.2559 23.1406 58.2682 23.2829 58.2557 23.424C58.2366 23.6562 58.1614 23.8795 58.0372 24.0729C57.9433 24.2177 57.8287 24.3464 57.6973 24.4546C57.6025 24.5324 57.5009 24.6005 57.3938 24.6582C57.2239 24.7473 57.1146 24.7727 57.0904 24.7345" fill="#CAFBFF"/>
<path d="M65.4788 17.1386C65.3939 17.1895 65.2239 17.0623 65.0782 16.7696C64.9966 16.5934 64.9433 16.4042 64.9204 16.2098C64.8596 15.7348 64.9491 15.2521 65.1754 14.8356C65.2688 14.6681 65.3877 14.5177 65.5274 14.3903C65.7702 14.174 65.9766 14.1358 66.0251 14.1995C66.0737 14.2631 66.013 14.4539 65.9159 14.6957C65.8188 14.9374 65.8188 14.9629 65.7581 15.1156C65.6475 15.4566 65.5821 15.8119 65.5638 16.1716C65.5517 16.337 65.5517 16.4897 65.5517 16.6297C65.5517 16.7696 65.5517 17.0877 65.4667 17.1386" fill="#CAFBFF"/>
<path d="M71.366 18.2201C71.3782 18.1692 71.5117 18.1438 71.7059 18.0674C71.9708 17.9493 72.1952 17.7497 72.3493 17.4949C72.4568 17.3284 72.5349 17.1431 72.58 16.9478C72.5921 16.8969 72.5921 16.846 72.6042 16.7951C72.6164 16.7442 72.6164 16.6933 72.6164 16.6297C72.6141 16.51 72.6019 16.3908 72.58 16.2734C72.495 15.7899 72.2158 15.281 71.8273 14.8102C71.4573 14.3647 71.0375 13.9674 70.577 13.6269C70.1937 13.3443 69.7875 13.0974 69.3631 12.889C68.6347 12.5327 68.137 12.3927 68.1491 12.291C68.1613 12.1892 68.2948 12.2146 68.5376 12.2146C68.8798 12.2338 69.2183 12.2979 69.5452 12.4055C70.0355 12.5571 70.5048 12.7752 70.9412 13.0544C71.4786 13.4034 71.9617 13.8368 72.3736 14.3394C72.8106 14.8738 73.1505 15.5227 73.2355 16.1844C73.2545 16.3447 73.2585 16.5067 73.2476 16.6679C73.2476 16.7442 73.2233 16.8333 73.2233 16.9096C73.2069 16.987 73.1867 17.0634 73.1627 17.1386C73.0777 17.4027 72.9413 17.6453 72.7621 17.8511C72.6391 18.0018 72.489 18.1255 72.3202 18.2151C72.1514 18.3046 71.9674 18.3582 71.7788 18.3728H71.6088L71.4874 18.3346C71.4267 18.3092 71.3903 18.2837 71.4025 18.2583" fill="#CAFBFF"/>
<path d="M70.3951 24.4801C70.3708 24.4419 70.5043 24.302 70.7471 24.0857C71.0984 23.7994 71.4347 23.4936 71.7547 23.1696C71.9639 22.9517 72.1474 22.7082 72.301 22.4443C72.4686 22.1551 72.5838 21.8359 72.6409 21.5028C72.6671 21.3303 72.6712 21.1548 72.653 20.9811C72.6459 20.8346 72.6086 20.6913 72.5437 20.5613H72.483L72.3495 20.6122C72.1347 20.6959 71.9159 20.7681 71.694 20.8285C71.262 20.9366 70.8242 21.0173 70.383 21.0702L69.169 21.1974C68.7891 21.2306 68.4071 21.2264 68.0279 21.1847C67.684 21.1474 67.348 21.0529 67.0325 20.9048C66.7718 20.7786 66.5337 20.6064 66.3284 20.3959C66.174 20.2375 66.0467 20.0524 65.9521 19.8487C65.8065 19.5052 65.8307 19.3016 65.8672 19.2889C65.9036 19.2762 65.9885 19.4543 66.1828 19.6961C66.4574 20.0317 66.8141 20.2824 67.2146 20.4213C67.4896 20.5137 67.7757 20.5651 68.0644 20.574C68.409 20.5858 68.7541 20.5688 69.0962 20.5231L70.2737 20.3577C70.6743 20.2941 71.0992 20.2177 71.4998 20.1159L72.0946 19.9251L72.2767 19.8615C72.3596 19.8366 72.4454 19.8238 72.5316 19.8233C72.6353 19.8233 72.7375 19.8486 72.8302 19.8972C72.9229 19.9458 73.0035 20.0163 73.0657 20.1032C73.1554 20.232 73.2176 20.3795 73.2478 20.5358C73.2727 20.6574 73.2889 20.7807 73.2964 20.9048C73.3121 21.1435 73.2957 21.3834 73.2478 21.6173C73.0699 22.3803 72.6506 23.0575 72.0582 23.5386C71.6896 23.8481 71.2859 24.1088 70.8564 24.3147C70.5529 24.4547 70.383 24.5055 70.3587 24.4674" fill="#CAFBFF"/>
<path d="M85.8361 21.9735C85.7997 22.0117 85.6783 21.9608 85.5448 21.7827C85.3646 21.527 85.244 21.2307 85.1927 20.9175C85.1563 20.7266 85.1199 20.5231 85.0956 20.3195C85.0713 20.1159 85.0349 19.8742 85.0228 19.6324C84.9742 19.1489 84.9499 18.6145 84.9621 18.042C84.9589 17.0771 85.0442 16.1142 85.217 15.1664C85.246 14.9872 85.2949 14.8121 85.3627 14.6448C85.4177 14.5088 85.5006 14.3871 85.6055 14.2885C85.6735 14.2255 85.7582 14.1856 85.8483 14.174C85.909 14.174 85.9454 14.1867 85.9575 14.2122C85.9697 14.2376 85.8847 14.3267 85.8118 14.4794C85.7309 14.72 85.6979 14.9755 85.7147 15.2301C85.7026 15.9553 85.6662 16.9477 85.6662 18.042C85.6662 18.5891 85.6662 19.1107 85.6783 19.5942L85.7026 20.8539C85.7054 21.1199 85.738 21.3847 85.7997 21.6427C85.8483 21.8209 85.8847 21.9354 85.8483 21.9735" fill="#CAFBFF"/>
<path d="M93.9696 24.4546C93.9211 24.4164 94.0668 24.2001 94.1396 23.7421C94.1777 23.4681 94.1818 23.1901 94.1517 22.9151C94.1104 22.5429 94.0496 22.1733 93.9696 21.8081C93.869 21.342 93.792 20.8705 93.739 20.3958C93.6783 19.8869 93.654 19.3398 93.6298 18.7672C93.6055 17.6221 93.6055 16.3752 93.6419 15.0519C93.6783 13.7287 93.739 12.4818 93.824 11.3494C93.8604 10.7768 93.909 10.2424 93.9575 9.73351C94.012 9.28174 94.0444 8.82734 94.0546 8.37209C94.0625 8.01907 94.0005 7.66816 93.8725 7.34149C93.7695 7.09724 93.6161 6.87997 93.4234 6.70531C93.0956 6.42539 92.8286 6.41267 92.8407 6.34905C92.8529 6.28543 92.9014 6.29816 93.0349 6.29816C93.2274 6.3041 93.4153 6.361 93.5812 6.46357C93.847 6.62721 94.0684 6.85934 94.2246 7.13791C94.4223 7.50469 94.5385 7.91352 94.5644 8.33392C94.59 8.81295 94.5859 9.2932 94.5523 9.77168L94.4795 11.3748C94.4309 12.5072 94.3945 13.7541 94.3581 15.0519C94.3217 16.3497 94.2974 17.6094 94.2974 18.729C94.2974 19.2889 94.3095 19.8233 94.3338 20.3195C94.3581 20.8157 94.4188 21.261 94.4673 21.6936C94.5235 22.0853 94.5519 22.4808 94.5523 22.8769C94.5556 23.1878 94.5105 23.4973 94.4188 23.793C94.3596 23.978 94.2691 24.1504 94.1517 24.3019C94.0668 24.4037 94.0061 24.4419 93.9939 24.4292" fill="#CAFBFF"/>
<path d="M86.5526 23.8057C86.6983 23.933 86.5404 24.391 86.1398 24.7473C85.7392 25.1035 85.2901 25.1926 85.1808 25.0272C85.0716 24.8618 85.3265 24.5055 85.6786 24.1874C86.0306 23.8693 86.3948 23.6785 86.5526 23.8057Z" fill="#CAFBFF"/>
<path d="M103.657 14.4794C103.56 14.4412 103.56 14.2249 103.499 13.945C103.45 13.5949 103.309 13.2659 103.093 12.9943C102.876 12.7226 102.593 12.5189 102.273 12.4055C102.018 12.3037 101.824 12.2528 101.799 12.151C101.775 12.0492 101.836 12.0492 101.921 11.9856C102.053 11.9175 102.198 11.8826 102.346 11.8838C102.562 11.8793 102.777 11.9226 102.977 12.011C103.23 12.1198 103.453 12.2913 103.629 12.5107C103.804 12.7301 103.926 12.9909 103.984 13.2707C104.034 13.4921 104.038 13.7218 103.997 13.945C103.971 14.0968 103.913 14.2404 103.827 14.3649C103.766 14.454 103.693 14.4794 103.657 14.4667" fill="#CAFBFF"/>
<path d="M103.802 25.2181C103.778 25.1672 103.851 25.0908 103.924 24.9381C104.015 24.727 104.048 24.4937 104.021 24.2638C104.005 24.1064 103.969 23.9522 103.911 23.8057C103.851 23.6403 103.754 23.4495 103.657 23.2586C103.539 23.0336 103.437 22.7997 103.353 22.5588C103.262 22.28 103.213 21.9882 103.207 21.6936C103.195 21.401 103.22 21.1338 103.232 20.8921C103.244 20.6503 103.268 20.3958 103.28 20.1668C103.317 19.7088 103.365 19.2889 103.414 18.9454C103.511 18.2583 103.608 17.8257 103.717 17.8257C103.827 17.8257 103.887 18.271 103.924 18.9581C103.936 19.3016 103.948 19.7215 103.948 20.1795C103.948 20.4086 103.948 20.6503 103.936 20.9048C103.924 21.1593 103.924 21.4137 103.924 21.6555C103.927 21.8796 103.96 22.1022 104.021 22.3171C104.087 22.5332 104.164 22.7456 104.251 22.9533C104.339 23.1638 104.412 23.3807 104.47 23.6022C104.527 23.8172 104.548 24.0412 104.531 24.2638C104.524 24.4278 104.486 24.5889 104.42 24.7374C104.353 24.886 104.259 25.0191 104.142 25.129C103.96 25.2689 103.827 25.2689 103.814 25.2181" fill="#CAFBFF"/>
<path d="M108.864 19.4416C108.779 19.3652 109.083 18.9581 109.338 18.2201C109.593 17.4822 109.775 16.4134 109.69 15.2046C109.662 14.6525 109.556 14.1078 109.374 13.5888C109.229 13.1831 108.991 12.8207 108.682 12.5327C108.468 12.3345 108.221 12.1793 107.954 12.0747C107.76 11.9983 107.638 11.9601 107.638 11.9092C107.638 11.8584 107.76 11.7947 108.002 11.7947C108.348 11.8019 108.685 11.9122 108.973 12.1128C109.41 12.4065 109.755 12.8263 109.969 13.3216C110.217 13.8996 110.361 14.5208 110.394 15.1537C110.42 15.4753 110.424 15.7985 110.406 16.1207C110.391 16.4201 110.355 16.7178 110.297 17.0114C110.204 17.5152 110.036 18.0005 109.799 18.4491C109.641 18.7536 109.435 19.0287 109.192 19.2634C109.022 19.4289 108.901 19.4797 108.864 19.4416Z" fill="#CAFBFF"/>
<path d="M117.204 14.2122C117.301 14.2122 117.386 14.4158 117.374 14.7593C117.368 14.9583 117.335 15.1554 117.277 15.3446C117.127 15.81 116.853 16.2206 116.488 16.5279C116.34 16.6534 116.177 16.7562 116.002 16.8333C115.698 16.9605 115.492 16.9478 115.456 16.8587C115.419 16.7696 115.541 16.6042 115.735 16.4007L116.05 16.0317C116.16 15.8917 116.281 15.739 116.39 15.5736C116.5 15.4082 116.597 15.2301 116.682 15.0774L116.9 14.6448C117.022 14.3903 117.119 14.2122 117.216 14.2122" fill="#CAFBFF"/>
<path d="M126.065 21.5028C126.041 21.5409 125.859 21.4519 125.628 21.1974C125.314 20.8209 125.089 20.3718 124.973 19.8869C124.885 19.5621 124.824 19.2301 124.791 18.8944C124.754 18.5382 124.742 18.1565 124.742 17.7621C124.73 16.9859 124.742 16.1334 124.524 15.3446C124.306 14.6013 123.879 13.9447 123.298 13.4615C122.817 13.0625 122.263 12.7722 121.671 12.609C121.253 12.4951 120.827 12.4226 120.396 12.3927C120.093 12.3673 119.911 12.3546 119.899 12.2909C119.886 12.2273 120.056 12.1637 120.384 12.1001C120.842 12.0204 121.31 12.0204 121.768 12.1001C122.471 12.2113 123.137 12.4994 123.71 12.9398C124.052 13.2004 124.355 13.5135 124.609 13.8687C124.882 14.256 125.087 14.6911 125.215 15.1537C125.334 15.606 125.399 16.0717 125.41 16.5406C125.422 16.9859 125.41 17.3931 125.398 17.7875C125.385 18.1819 125.373 18.5382 125.385 18.869C125.394 19.176 125.423 19.4821 125.47 19.7851C125.534 20.2201 125.666 20.6413 125.859 21.032C126.005 21.3119 126.102 21.4646 126.065 21.5028Z" fill="#CAFBFF"/>
<path d="M126.405 22.7243C126.322 22.6927 126.247 22.6403 126.187 22.5716C126.161 22.5502 126.141 22.5222 126.128 22.4903C126.115 22.4584 126.11 22.4236 126.114 22.3892C126.118 22.3548 126.13 22.322 126.149 22.2938C126.168 22.2656 126.193 22.243 126.223 22.228C126.294 22.1695 126.377 22.1301 126.466 22.1135C126.512 22.1057 126.559 22.1091 126.604 22.1235C126.648 22.1378 126.689 22.1627 126.723 22.1963C126.757 22.2298 126.783 22.2711 126.799 22.3169C126.815 22.3628 126.821 22.4119 126.816 22.4605C126.812 22.5091 126.796 22.5559 126.771 22.5972C126.746 22.6385 126.713 22.6733 126.673 22.6988C126.633 22.7243 126.588 22.7399 126.542 22.7443C126.496 22.7487 126.449 22.7419 126.405 22.7243Z" fill="#CAFBFF"/>
<path d="M123.54 25.3453C123.528 25.2435 123.686 25.129 123.941 24.9763C124.196 24.8236 124.524 24.6328 124.864 24.391C125.204 24.1493 125.495 23.8821 125.713 23.6912C125.932 23.5004 126.102 23.3859 126.187 23.4368C126.272 23.4877 126.26 23.704 126.102 24.0221C126.013 24.2012 125.903 24.3679 125.774 24.5183C125.464 24.8874 125.072 25.1713 124.633 25.3453C124.453 25.4161 124.266 25.4632 124.075 25.4853C123.747 25.5234 123.54 25.4598 123.528 25.358" fill="#CAFBFF"/>
<path d="M117.216 23.0805C117.143 23.1441 116.949 23.0296 116.742 22.737C116.489 22.3507 116.35 21.895 116.342 21.4264C116.337 21.1682 116.369 20.9107 116.439 20.663C116.468 20.5544 116.505 20.4481 116.548 20.3449C116.593 20.2441 116.65 20.15 116.718 20.065C116.819 19.9267 116.967 19.8353 117.131 19.8105C117.252 19.8105 117.313 19.8614 117.313 19.9123C117.313 19.9632 117.264 20.0141 117.24 20.0777C117.198 20.1581 117.165 20.2436 117.143 20.3322C117.127 20.3992 117.115 20.4672 117.107 20.5358C117.095 20.6121 117.082 20.7139 117.07 20.803C117.049 21.0058 117.041 21.2098 117.046 21.4137C117.061 21.7867 117.11 22.1573 117.192 22.5207C117.252 22.8133 117.301 23.0169 117.216 23.0805Z" fill="#CAFBFF"/>
<path d="M134.988 18.8944C134.903 18.9326 134.599 18.5 134.296 17.6857C134.223 17.4821 134.15 17.2531 134.077 17.0113C133.995 16.7308 133.95 16.4396 133.944 16.1461C133.943 15.9694 133.967 15.7935 134.016 15.6245C134.066 15.4613 134.131 15.3036 134.211 15.1537C134.356 14.8738 134.502 14.6321 134.551 14.403C134.601 14.1622 134.588 13.9117 134.514 13.6778C134.447 13.4577 134.326 13.2602 134.162 13.1052C133.847 12.7999 133.385 12.6599 133.021 12.5327C132.281 12.3036 131.783 12.2655 131.771 12.151C131.759 12.0365 131.892 12.0492 132.123 12.011C132.454 11.9676 132.789 11.9719 133.118 12.0237C133.348 12.0554 133.576 12.1064 133.798 12.1764C134.075 12.2619 134.334 12.3999 134.563 12.5836C134.837 12.818 135.044 13.1278 135.159 13.4784C135.275 13.829 135.296 14.2064 135.218 14.5684C135.177 14.7551 135.112 14.9349 135.024 15.1028C134.939 15.2555 134.866 15.3955 134.793 15.51C134.731 15.6193 134.678 15.7343 134.636 15.8535C134.601 15.9559 134.58 16.0631 134.575 16.1716C134.569 16.4065 134.59 16.6414 134.636 16.8714C134.672 17.1131 134.721 17.3294 134.757 17.533C134.927 18.3346 135.06 18.8435 134.975 18.8944" fill="#CAFBFF"/>
<path d="M144.468 18.2074C144.432 18.2329 144.323 18.1438 144.165 17.9402C143.953 17.6533 143.774 17.3416 143.631 17.0114C143.525 16.7751 143.444 16.5278 143.388 16.2734C143.322 15.9644 143.31 15.6455 143.352 15.3319C143.376 15.1626 143.417 14.9964 143.473 14.8357L143.631 14.4031C143.678 14.285 143.711 14.161 143.728 14.0341C143.739 13.9265 143.727 13.8177 143.691 13.716C143.592 13.4833 143.432 13.2848 143.23 13.1435C143.016 12.9889 142.783 12.8648 142.538 12.7745C142.101 12.6023 141.644 12.4911 141.179 12.4437C140.377 12.3673 139.855 12.4691 139.831 12.3546C139.807 12.2401 139.928 12.2146 140.159 12.1256C140.487 12.0006 140.83 11.9277 141.179 11.9093C141.704 11.8823 142.23 11.9512 142.732 12.1128C143.042 12.2065 143.337 12.348 143.607 12.5327C143.758 12.638 143.896 12.7619 144.019 12.9017C144.155 13.0578 144.262 13.239 144.335 13.4361C144.414 13.6462 144.443 13.8732 144.42 14.0977C144.396 14.2905 144.347 14.4789 144.274 14.6575L144.092 15.0901C144.045 15.2092 144.008 15.3328 143.983 15.4591C143.886 15.9426 143.971 16.4261 144.08 16.8333C144.189 17.2404 144.323 17.5712 144.396 17.8003C144.468 18.0293 144.493 18.182 144.456 18.2074" fill="#CAFBFF"/>
<path d="M146.921 22.2408C146.836 22.1899 147.078 21.4901 147.54 20.3831C147.77 19.836 148.062 19.1871 148.377 18.4619C148.547 18.1056 148.705 17.7239 148.911 17.3295C149.125 16.9151 149.381 16.5267 149.676 16.1716C149.98 15.8154 150.271 15.51 150.49 15.1919C150.695 14.9179 150.818 14.5855 150.842 14.2377C150.85 13.9212 150.774 13.6086 150.623 13.3343C150.488 13.0898 150.301 12.8809 150.077 12.7236C149.727 12.4904 149.326 12.3546 148.911 12.3291C148.608 12.3037 148.426 12.3164 148.414 12.2655C148.402 12.2146 148.559 12.1128 148.899 12.0365C149.107 11.9964 149.32 11.9878 149.531 12.011C149.814 12.0427 150.09 12.129 150.344 12.2655C150.688 12.4557 150.978 12.7388 151.182 13.0855C151.387 13.4322 151.5 13.83 151.509 14.2377C151.513 14.48 151.476 14.7211 151.4 14.9502C151.322 15.18 151.216 15.3981 151.084 15.5991C150.822 15.969 150.538 16.3217 150.235 16.6551C149.688 17.2913 149.348 18.0674 148.984 18.7672C148.62 19.467 148.292 20.0905 148.001 20.6121C147.43 21.6555 147.03 22.2789 146.945 22.228" fill="#CAFBFF"/>
<path d="M137.78 22.5461C137.865 22.5843 137.889 22.8006 137.828 23.1314C137.749 23.5716 137.579 23.9883 137.331 24.3529C137.07 24.7454 136.688 25.0327 136.25 25.1672C136.116 25.2074 135.975 25.2161 135.837 25.1926C135.74 25.1672 135.68 25.129 135.68 25.0781C135.68 25.0272 135.837 24.8745 136.056 24.6964C136.328 24.4741 136.569 24.2128 136.772 23.9203C137.015 23.564 137.209 23.195 137.379 22.9406C137.549 22.6861 137.695 22.5207 137.792 22.5589" fill="#CAFBFF"/>
<path d="M159.582 23.8948C159.558 23.9075 159.509 23.8566 159.436 23.7676C159.33 23.624 159.237 23.4707 159.157 23.3095C158.877 22.7114 158.684 22.0722 158.586 21.4137C158.449 20.4495 158.392 19.4746 158.416 18.5C158.416 17.4185 158.441 16.2225 158.465 14.9756C158.514 12.4691 158.611 10.2043 158.708 8.57569C158.743 8.23525 158.723 7.89095 158.647 7.5578C158.586 7.3249 158.454 7.11935 158.271 6.97252C158.154 6.87508 158.017 6.8095 157.87 6.78167C157.761 6.76895 157.7 6.76895 157.688 6.7435C157.676 6.71805 157.737 6.66716 157.858 6.64171C158.048 6.60274 158.246 6.63422 158.416 6.73077C158.538 6.79582 158.649 6.88183 158.744 6.98524C158.858 7.11069 158.949 7.25743 159.011 7.41785C159.147 7.79129 159.213 8.18875 159.205 8.58841C159.23 10.2297 159.23 12.4945 159.169 15.0011C159.145 16.248 159.108 17.444 159.072 18.5255C159.022 19.4708 159.03 20.4186 159.096 21.3628C159.146 21.992 159.256 22.6143 159.424 23.2205L159.57 23.7167C159.606 23.8312 159.606 23.9075 159.582 23.9203" fill="#CAFBFF"/>
<path d="M168.528 13.6778C168.431 13.716 168.31 13.6015 168.176 13.4488C168.024 13.2536 167.862 13.0667 167.691 12.889C167.527 12.7389 167.343 12.6146 167.144 12.52C166.987 12.4436 166.853 12.3928 166.817 12.291C166.812 12.259 166.817 12.2262 166.829 12.1968C166.842 12.1674 166.863 12.1426 166.89 12.1256C166.977 12.0543 167.083 12.0102 167.193 11.9983C167.369 11.9788 167.547 11.9993 167.714 12.0586C167.882 12.1179 168.036 12.2145 168.164 12.3419C168.412 12.5756 168.578 12.8889 168.638 13.2325C168.674 13.487 168.625 13.6524 168.54 13.6778" fill="#CAFBFF"/>
<path d="M167.946 10.0643C167.897 9.96255 168.079 9.79714 168.177 9.46633C168.239 9.27825 168.267 9.07993 168.262 8.88105C168.255 8.64959 168.197 8.42294 168.092 8.21943C167.861 7.78683 167.448 7.50691 167.12 7.32878C166.793 7.15065 166.562 7.06159 166.562 6.9598C166.562 6.85801 166.829 6.75622 167.266 6.83256C167.528 6.87458 167.779 6.96965 168.007 7.11248C168.3 7.29368 168.543 7.55257 168.711 7.86317C168.877 8.18608 168.945 8.55467 168.905 8.91922C168.876 9.21045 168.771 9.48767 168.601 9.7208C168.491 9.87729 168.339 9.99665 168.164 10.0643C168.043 10.1025 167.958 10.0898 167.934 10.0516" fill="#CAFBFF"/>
<path d="M168.273 24.531C168.249 24.4801 168.371 24.391 168.456 24.2002C168.566 23.9101 168.566 23.5869 168.456 23.2968C168.371 23.0745 168.274 22.8578 168.164 22.6479C168.104 22.5207 168.043 22.3934 167.994 22.2407C167.938 22.0876 167.894 21.9302 167.861 21.77C167.797 21.4423 167.753 21.1109 167.727 20.7775C167.691 20.4467 167.679 20.0905 167.654 19.7342C167.598 18.5137 167.659 17.2903 167.836 16.0826C167.982 15.1537 168.164 14.6066 168.249 14.6194C168.334 14.6321 168.225 16.9223 168.358 19.7088C168.371 20.0523 168.395 20.3958 168.407 20.7266C168.419 21.0575 168.443 21.3755 168.492 21.6427C168.512 21.7761 168.54 21.9079 168.577 22.0372C168.613 22.1644 168.662 22.2916 168.698 22.4189C168.796 22.6659 168.873 22.9213 168.929 23.1823C169.038 23.7167 168.868 24.1747 168.662 24.391C168.587 24.4766 168.49 24.5383 168.383 24.5692C168.31 24.5819 168.261 24.5819 168.261 24.5564" fill="#CAFBFF"/>
<path d="M177.366 14.1868C177.269 14.174 177.208 13.9959 177.111 13.7923L177.026 13.6269L176.929 13.4488C176.769 13.1857 176.563 12.9568 176.322 12.7744L176.152 12.6599L175.994 12.5709C175.8 12.4564 175.642 12.3927 175.63 12.291C175.618 12.1892 175.666 12.1892 175.739 12.1383L175.885 12.0746C175.952 12.0568 176.022 12.0483 176.091 12.0492L176.346 12.0746C176.442 12.0942 176.535 12.1241 176.625 12.1637C176.828 12.2571 177.01 12.3918 177.162 12.56C177.315 12.7282 177.433 12.9266 177.511 13.1434C177.545 13.2381 177.569 13.3362 177.584 13.4361C177.599 13.5243 177.603 13.614 177.596 13.7033C177.593 13.7767 177.581 13.8494 177.56 13.9196C177.548 13.9738 177.528 14.0255 177.499 14.0722C177.451 14.1486 177.402 14.1868 177.354 14.174" fill="#CAFBFF"/>
<path d="M176.807 24.9C176.795 24.8491 176.892 24.7855 177.001 24.6328C177.148 24.4258 177.233 24.1778 177.244 23.9203C177.253 23.7333 177.245 23.5458 177.22 23.3604C177.196 23.1569 177.159 22.9024 177.123 22.6606C177.062 22.1517 177.014 21.5919 176.989 21.0066C176.965 20.4213 176.965 19.8615 176.989 19.3398C177.004 18.8771 177.061 18.417 177.159 17.9657C177.225 17.6551 177.331 17.3555 177.475 17.075C177.584 16.8842 177.669 16.7951 177.718 16.8078C177.766 16.8206 177.693 17.3041 177.657 18.042C177.633 18.411 177.633 18.8436 177.645 19.3398C177.657 19.836 177.681 20.3831 177.705 20.9684L177.778 22.597C177.79 22.8515 177.803 23.0805 177.803 23.3223C177.81 23.5531 177.79 23.7839 177.742 24.0093C177.709 24.1837 177.642 24.3492 177.546 24.4957C177.45 24.6423 177.327 24.7668 177.184 24.8618C176.965 24.989 176.831 24.9509 176.819 24.9127" fill="#CAFBFF"/>
<path d="M185.645 25.1672C185.632 25.1417 185.681 25.1036 185.754 25.0399C185.859 24.9496 185.949 24.8422 186.021 24.7219C186.131 24.54 186.206 24.3366 186.239 24.1238C186.282 23.8358 186.27 23.5416 186.203 23.2587C186.142 22.9278 186.021 22.5716 185.912 22.1644C185.791 21.7123 185.721 21.2468 185.705 20.7776C185.669 19.7851 185.827 18.7418 185.936 17.6857C185.992 17.179 186.008 16.6684 185.985 16.1589C185.961 15.7 185.88 15.2464 185.742 14.8102C185.515 14.0805 185.033 13.4673 184.394 13.0926C183.938 12.8349 183.458 12.626 182.962 12.4691C182.598 12.3419 182.403 12.2655 182.416 12.2146C182.428 12.1637 182.634 12.151 183.023 12.1892C183.576 12.2466 184.117 12.3969 184.625 12.6345C185.204 12.9095 185.694 13.3562 186.033 13.9196C186.158 14.1336 186.264 14.3593 186.349 14.5939C186.701 15.5482 186.749 16.6679 186.64 17.7748C186.531 18.8818 186.361 19.8742 186.361 20.7776C186.358 21.2008 186.398 21.6232 186.482 22.0372C186.567 22.4316 186.664 22.826 186.701 23.2078C186.72 23.3894 186.725 23.5725 186.713 23.7549C186.703 23.9232 186.675 24.0898 186.628 24.2511C186.553 24.5097 186.42 24.7455 186.239 24.9382C186.126 25.0596 185.983 25.1474 185.827 25.1926C185.717 25.2181 185.657 25.2053 185.657 25.1926" fill="#CAFBFF"/>
<path d="M195.684 19.5179C195.672 19.5561 195.562 19.5942 195.417 19.5052C195.224 19.384 195.068 19.2074 194.968 18.9962C194.895 18.869 194.846 18.7418 194.773 18.6145L194.579 18.1819C194.446 17.8766 194.312 17.5203 194.178 17.164C194.045 16.8078 193.924 16.4515 193.826 16.108C193.732 15.799 193.679 15.4779 193.669 15.1537C193.662 14.9265 193.704 14.7007 193.79 14.4921C193.851 14.3394 193.924 14.2885 193.972 14.3012C194.021 14.314 194.045 14.6448 194.166 15.0901C194.24 15.3586 194.329 15.6221 194.433 15.879C194.555 16.1843 194.7 16.5279 194.822 16.8968C194.943 17.2658 195.077 17.6221 195.174 17.9402L195.307 18.3982L195.405 18.7926C195.442 18.9646 195.499 19.1312 195.574 19.2889C195.635 19.4034 195.684 19.467 195.659 19.5179" fill="#CAFBFF"/>
<path d="M198.476 20.2813C198.464 20.2305 198.61 20.1287 198.877 19.9887C199.144 19.8487 199.556 19.6452 200.018 19.378C200.548 19.0821 201.015 18.675 201.389 18.182C201.596 17.9061 201.748 17.5905 201.839 17.2531C201.88 17.0647 201.908 16.8733 201.924 16.6806C201.944 16.4323 201.997 16.1882 202.081 15.9553C202.177 15.7282 202.299 15.5145 202.446 15.3192L202.785 14.823C202.99 14.5106 203.172 14.1832 203.332 13.8432C203.604 13.2759 203.765 12.6573 203.805 12.0238C203.805 11.8965 203.817 11.7566 203.805 11.6421C203.8 11.5387 203.783 11.4363 203.757 11.3367C203.737 11.255 203.704 11.1774 203.659 11.1077C203.625 11.0519 203.579 11.0042 203.526 10.9677C203.307 10.8278 203.15 10.9296 203.125 10.8787C203.101 10.8278 203.125 10.8023 203.21 10.7514C203.274 10.712 203.344 10.6871 203.418 10.6783C203.491 10.6695 203.565 10.6771 203.635 10.7005C203.739 10.732 203.835 10.7886 203.914 10.8659C204.007 10.9557 204.081 11.0638 204.133 11.184C204.19 11.3137 204.231 11.4505 204.254 11.5912C204.278 11.7343 204.294 11.8787 204.303 12.0238C204.33 12.7457 204.197 13.4644 203.914 14.1232C203.759 14.5081 203.572 14.8785 203.356 15.2301L203.004 15.7645C202.893 15.9137 202.8 16.076 202.725 16.248C202.666 16.4204 202.63 16.6 202.615 16.7824C202.596 17.0098 202.559 17.2353 202.506 17.4567C202.384 17.8872 202.178 18.2859 201.899 18.6273C201.448 19.1764 200.878 19.604 200.236 19.8742C199.825 20.0571 199.398 20.1978 198.962 20.2941C198.658 20.3577 198.476 20.3704 198.464 20.3195" fill="#CAFBFF"/>
<path d="M198.439 12.5963C198.427 12.7999 198.027 12.9398 197.541 12.9017C197.055 12.8635 196.679 12.6726 196.691 12.4691C196.703 12.2655 197.104 12.1255 197.59 12.1637C198.075 12.2019 198.451 12.3927 198.439 12.5963Z" fill="#CAFBFF"/>
<path d="M193.972 23.2459C193.984 23.3477 193.839 23.4622 193.559 23.5386C193.397 23.5847 193.23 23.6061 193.062 23.6022C192.834 23.598 192.611 23.5415 192.406 23.4368C192.202 23.3345 192.03 23.1714 191.914 22.9677C191.797 22.7641 191.741 22.5289 191.751 22.2917C191.756 22.1445 191.812 22.0045 191.908 21.8972C191.981 21.8336 192.042 21.8209 192.091 21.8463C192.131 21.8869 192.157 21.9408 192.163 21.999C192.184 22.0823 192.213 22.1633 192.248 22.2408C192.296 22.3426 192.358 22.4368 192.43 22.5207C192.513 22.6193 192.611 22.7012 192.722 22.7624C192.987 22.8779 193.264 22.9591 193.547 23.0042C193.79 23.0551 193.972 23.1314 193.972 23.2332" fill="#CAFBFF"/>
<path d="M199.993 29.4295C199.969 29.3786 200.102 29.2768 200.333 29.1241C200.564 28.9715 200.916 28.7552 201.304 28.4753C201.767 28.1521 202.191 27.7719 202.567 27.3429C203.012 26.8355 203.336 26.2252 203.513 25.5616C203.596 25.2297 203.625 24.8856 203.598 24.5437C203.572 24.2267 203.494 23.9168 203.368 23.6276C203.162 23.1326 202.802 22.7247 202.348 22.4697C202.022 22.3034 201.667 22.2082 201.304 22.1898C201.037 22.1644 200.879 22.1644 200.867 22.1135C200.855 22.0626 200.989 21.9735 201.28 21.8972C201.455 21.8573 201.635 21.8402 201.814 21.8463C202.058 21.8513 202.3 21.8986 202.53 21.9863C203.144 22.2356 203.646 22.7168 203.938 23.3349C204.119 23.6912 204.234 24.0795 204.278 24.4801C204.32 24.9068 204.287 25.338 204.181 25.7524C203.976 26.5336 203.578 27.2445 203.028 27.8136C202.592 28.2613 202.093 28.6348 201.547 28.9206C201.19 29.1107 200.816 29.2641 200.43 29.3786C200.151 29.455 199.993 29.4677 199.981 29.4295" fill="#CAFBFF"/>
<path d="M197.177 29.0733C197.189 29.1751 196.849 29.315 196.279 29.455C195.518 29.6314 194.736 29.6872 193.96 29.6204C193.037 29.5313 192.212 29.2005 191.714 28.8315C191.217 28.4625 191.01 28.0936 191.071 28.0299C191.132 27.9663 191.447 28.1572 191.957 28.3735C192.617 28.6509 193.312 28.8225 194.021 28.8824C194.858 28.9588 195.635 28.9206 196.218 28.9333C196.801 28.946 197.165 28.9715 197.177 29.0733Z" fill="#CAFBFF"/>
<path d="M216.636 24.6201C216.599 24.5819 216.721 24.4038 216.939 24.0984C217.236 23.6743 217.489 23.2179 217.692 22.737C217.825 22.4154 217.918 22.0777 217.971 21.7318C218.03 21.347 218.018 20.9539 217.935 20.574C217.841 20.1575 217.663 19.767 217.413 19.4289C217.133 19.0564 216.802 18.7304 216.429 18.4619C215.653 17.8893 214.779 17.5458 213.965 17.2277C213.152 16.9096 212.411 16.5915 211.829 16.2098L211.416 15.9299C211.289 15.8314 211.175 15.7159 211.076 15.5864C210.982 15.4633 210.916 15.3199 210.882 15.1665C210.853 15.0362 210.857 14.9001 210.894 14.772C210.916 14.6842 210.957 14.6028 211.013 14.5343C211.07 14.4659 211.142 14.4122 211.222 14.3776C211.331 14.3394 211.392 14.3649 211.392 14.3903C211.392 14.4158 211.343 14.4412 211.295 14.5049C211.231 14.5799 211.188 14.6718 211.171 14.7705C211.154 14.8692 211.163 14.971 211.197 15.0647C211.238 15.1564 211.296 15.2387 211.367 15.3064C211.577 15.4851 211.81 15.6308 212.059 15.739C212.751 16.0594 213.46 16.3356 214.184 16.5661C214.596 16.706 215.033 16.8714 215.483 17.075C215.957 17.2821 216.409 17.5423 216.83 17.8511C217.262 18.1626 217.643 18.545 217.959 18.9835C218.111 19.2024 218.241 19.4369 218.347 19.6833C218.448 19.9195 218.521 20.1672 218.566 20.4213C218.65 20.8889 218.641 21.3695 218.542 21.8336C218.455 22.2253 218.316 22.6023 218.129 22.9533C217.871 23.4501 217.534 23.8975 217.134 24.2765C216.842 24.5437 216.66 24.6455 216.636 24.6073" fill="#CAFBFF"/>
<path d="M218.299 15.8535C218.263 15.8154 218.299 15.7263 218.311 15.5991C218.32 15.411 218.304 15.2225 218.263 15.0392C218.178 14.5303 218.02 13.8305 217.619 13.2198C217.282 12.7051 216.769 12.3455 216.187 12.2146C215.738 12.1128 215.422 12.1892 215.374 12.0874C215.325 11.9856 215.41 11.9601 215.556 11.8711C215.761 11.7552 215.99 11.694 216.223 11.6929C216.573 11.6869 216.919 11.7699 217.231 11.9347C217.419 12.0291 217.594 12.1488 217.753 12.2909C217.919 12.4451 218.065 12.6203 218.19 12.8126C218.425 13.1742 218.59 13.5805 218.675 14.0086C218.745 14.347 218.77 14.6938 218.748 15.0392C218.75 15.2931 218.678 15.5415 218.542 15.7517C218.42 15.9044 218.311 15.9171 218.287 15.879" fill="#CAFBFF"/>
<path d="M213.613 12.7999C213.553 12.889 213.37 12.8635 213.128 12.7999L212.181 12.52L211.234 12.2655C210.979 12.1892 210.809 12.1128 210.809 12.011C210.809 11.9092 210.967 11.7947 211.246 11.7438C211.62 11.682 212.001 11.702 212.367 11.8028C212.733 11.9035 213.074 12.0828 213.37 12.3291C213.589 12.5327 213.674 12.7108 213.625 12.7872" fill="#CAFBFF"/>
<path d="M212.351 23.7803C212.363 23.8821 211.987 24.0348 211.343 24.0856C210.966 24.1067 210.588 24.0854 210.215 24.022C209.752 23.9477 209.299 23.8153 208.867 23.6276C208.448 23.4358 208.046 23.2059 207.665 22.9405L206.767 22.3425C206.257 22.0117 205.905 21.8718 205.929 21.77C205.954 21.6682 206.039 21.6936 206.233 21.6936C206.49 21.7099 206.744 21.7656 206.986 21.859C207.332 21.9951 207.669 22.1566 207.993 22.3425C208.357 22.5334 208.734 22.7624 209.146 22.9278C209.859 23.2295 210.605 23.4347 211.368 23.5385C211.963 23.6276 212.351 23.653 212.363 23.7548" fill="#CAFBFF"/>
</g>
<defs>
<clipPath id="clip0_702_4457">
<rect width="225" height="37" fill="white"/>
</clipPath>
</defs>
</svg>
