<svg width="292" height="38" viewBox="0 0 292 38" fill="none" xmlns="http://www.w3.org/2000/svg">
<path d="M246.06 24.236C245.528 22.444 244.884 20.652 244.296 19.252C244.016 18.636 243.792 17.796 243.176 17.488C242.224 14.156 239.256 13.652 237.184 16.928C236.4 18.272 236.428 20.792 236.232 22.612C236.26 24.488 237.884 27.092 239.816 27.036C241.916 26.364 241.748 24.012 242.84 22.64C242.98 22.388 243.092 22.108 243.148 21.856C243.54 22.892 244.044 24.404 244.268 25.468C244.408 25.72 244.968 26.28 245.164 26.476L246.228 26.28C246.648 25.72 246.424 25.048 246.06 24.236ZM241.3 20.148C241.328 20.652 241.356 21.072 241.076 21.576C240.236 22.416 240.18 24.012 239.508 24.88C237.492 23.396 238.416 19.952 238.892 18.104C240.46 15.724 240.74 17.096 241.468 18.636C241.272 19.196 241.272 19.7 241.3 20.148ZM252.671 24.572L252.755 23.9H252.531C252.475 23.228 251.999 1.612 248.947 7.968C250.095 13.344 250.151 19.84 250.599 25.3L250.655 25.272C250.907 26.168 251.999 26.028 252.727 26.028C252.867 25.552 252.755 25.076 252.671 24.572ZM263.383 18.328C262.795 16.9 261.339 15.388 259.911 14.828V14.688C259.099 14.52 258.063 14.352 257.419 14.828L257.391 14.66H257.167C257.055 14.464 256.635 14.324 256.439 14.212C255.263 14.296 255.459 15.612 255.599 16.424L255.263 16.76L255.683 17.068C255.851 18.776 256.299 20.764 256.803 23.004C255.879 23.424 256.187 24.768 257.167 24.964C257.531 26.728 257.839 28.156 258.147 29.248L258.063 29.276C258.315 29.864 258.427 30.844 258.511 31.46C258.847 33.084 261.143 32.3 260.807 30.844C260.779 30.816 260.723 30.732 260.695 30.704V30.088H260.387C260.359 29.612 260.275 29.276 260.163 28.884H260.107C259.855 27.932 259.575 26.672 259.295 25.132C263.383 26 263.971 21.38 263.383 18.328ZM258.875 22.948C258.791 22.528 258.735 22.08 258.651 21.66L258.567 21.576C258.091 19.728 257.951 18.552 257.755 17.152C259.015 15.584 260.723 17.852 261.339 18.832C261.647 20.82 261.507 22.472 260.891 22.864C260.779 22.948 260.723 23.032 260.611 23.144C260.135 23.172 259.659 23.088 258.875 22.948ZM276.061 22.528C275.445 20.456 275.305 13.904 271.665 15.332C270.685 16.2 270.237 17.712 269.313 18.748C269.397 18.076 269.509 17.376 269.621 16.704H269.649C270.013 14.604 269.845 12.392 269.201 9.368C268.529 7.548 267.913 6.68 268.193 4.972C264.469 4.3 266.541 7.688 267.185 9.956C268.697 15.78 266.597 19.056 266.905 24.628C268.949 27.288 269.397 24.684 269.061 22.64C269.985 20.82 271.693 19.28 272.617 17.376C273.485 19.112 273.793 21.576 274.157 23.48H274.185C274.465 24.796 274.997 26.42 276.453 26.896C278.133 25.72 275.949 23.9 276.061 22.528ZM289.4 24.236C288.868 22.444 288.224 20.652 287.636 19.252C287.356 18.636 287.132 17.796 286.516 17.488C285.564 14.156 282.596 13.652 280.524 16.928C279.74 18.272 279.768 20.792 279.572 22.612C279.6 24.488 281.224 27.092 283.156 27.036C285.256 26.364 285.088 24.012 286.18 22.64C286.32 22.388 286.432 22.108 286.488 21.856C286.88 22.892 287.384 24.404 287.608 25.468C287.748 25.72 288.308 26.28 288.504 26.476L289.568 26.28C289.988 25.72 289.764 25.048 289.4 24.236ZM284.64 20.148C284.668 20.652 284.696 21.072 284.416 21.576C283.576 22.416 283.52 24.012 282.848 24.88C280.832 23.396 281.756 19.952 282.232 18.104C283.8 15.724 284.08 17.096 284.808 18.636C284.612 19.196 284.612 19.7 284.64 20.148Z" fill="#EF8AA9"/>
<path d="M195.065 37.0127C191.799 37.0127 189.25 36.5674 187.283 35.664C185.317 34.7607 184.079 33.5265 183.205 31.936C181.408 31.936 179.951 31.7325 178.713 31.3126C177.438 31.7197 175.957 31.936 174.294 31.936C172.631 31.936 171.029 31.7452 169.779 31.3253C168.516 31.7452 167.035 31.936 165.129 31.936C163.223 31.936 161.718 31.7452 160.456 31.3253C159.193 31.7452 157.7 31.936 155.782 31.936C153.391 31.936 151.679 31.6434 150.222 30.9818C149.769 30.7775 149.334 30.5305 148.923 30.2438C147.37 31.3253 145.512 31.8852 143.4 31.8852C141.64 31.8852 140.11 31.5543 138.799 30.8927C137.44 31.5543 135.886 31.8852 134.138 31.8852C131.953 31.8852 130.011 31.2999 128.42 30.1547C126.637 31.2832 124.591 31.8732 122.509 31.8597C121.282 31.8692 120.062 31.6804 118.891 31.2999C117.511 31.7661 116.068 31.998 114.618 31.9869C112.081 31.9869 109.823 31.1854 108.099 29.7603C107.319 30.4064 106.435 30.9018 105.489 31.2235C103.45 31.936 101.326 31.936 100.185 31.936C98.1332 31.936 96.4216 31.6434 94.9771 31.0581C93.0946 31.6794 91.1358 32.0095 89.1624 32.0378C88.1364 32.0503 87.1167 31.8693 86.1519 31.5034C85.1521 31.8214 84.1133 31.9843 83.0685 31.9869C80.1915 31.9869 77.618 30.8673 75.7364 28.8188C73.3693 30.8927 70.0189 32.0887 66.2193 32.0887C63.9735 32.0887 61.8735 31.6561 60.0526 30.8291L59.737 30.9818C58.2803 31.6434 56.5686 31.936 54.1772 31.936C51.7858 31.936 50.0742 31.6434 48.6175 30.9818H48.5932C46.9301 31.6816 45.0607 32.0251 43.0213 32.0251C40.29 32.0251 38.2749 31.3126 36.8303 30.4219C35.2279 31.2999 33.0307 32.0251 30.1173 32.0251C28.2358 32.0251 26.5363 31.6943 25.0553 31.0199C23.6107 31.6561 21.9234 31.9488 19.5684 31.9488C17.6504 31.9488 16.1573 31.7579 14.8948 31.338C13.6323 31.7579 12.1392 31.9488 10.2212 31.9488C7.82978 31.9488 6.11816 31.6561 4.66145 30.9945C1.78446 29.6713 0.0849742 26.9611 0.0849742 23.7166C0.0733284 22.6521 0.267406 21.596 0.655516 20.6121V12.3545C0.233111 11.334 0.010212 10.2351 0 9.12277C0 6.64168 1.05611 4.51686 3.04694 2.96459C5.43836 1.10695 8.80092 0 12.0421 0C13.7901 0 15.1254 0.470773 16.1208 1.06878C17.6455 0.620615 19.2232 0.402124 20.8066 0.419878C24.2298 0.419878 26.4756 1.81947 27.7987 3.67711C28.7838 3.28485 29.8284 3.08226 30.8821 3.0791C33.3221 3.0791 35.495 4.17332 36.8667 5.96734C38.809 4.5423 40.994 3.0791 43.7861 3.0791C44.6604 3.07889 45.5292 3.22493 46.3596 3.5117C46.5619 3.32509 46.7723 3.14272 46.9908 2.96459C49.3822 1.10695 52.7448 0 55.986 0C60.6353 0 62.4319 3.16816 62.9903 4.52958C63.1898 5.01769 63.3442 5.52471 63.4516 6.04368C64.5578 5.80423 65.6846 5.68484 66.8141 5.68742C71.0264 5.68742 74.0491 7.16335 76.0399 9.16094C77.4224 7.73408 79.1457 6.7233 81.0291 6.23453C81.5147 4.89856 82.3887 3.74072 83.6026 2.79918L83.639 2.77373C87.0502 0.203578 91.5052 0 92.792 0C97.4413 0 99.2379 3.16816 99.7963 4.52958C99.9828 4.98977 100.129 5.46673 100.233 5.95461C100.842 5.88593 101.454 5.85194 102.066 5.85282C102.941 5.84497 103.813 5.97362 104.652 6.23453C105.631 5.87553 106.661 5.6948 107.699 5.70014C108.585 5.70014 110.515 5.85283 112.372 6.98522C114.363 6.19636 116.694 5.80193 119.328 5.80193C121.635 5.80193 123.674 6.15819 125.386 6.84526C126.927 6.15819 128.809 5.82738 131.2 5.82738C132.912 5.82738 134.441 6.0564 135.752 6.51445C137.076 6.04368 138.629 5.82738 140.596 5.82738C142.271 5.82738 143.776 6.04368 145.075 6.489C145.425 6.35235 145.781 6.23764 146.144 6.14547C146.681 4.87825 147.532 3.78451 148.608 2.97731C150.999 1.11968 154.362 0.0127243 157.603 0.0127243C159.351 0.0127243 160.686 0.483493 161.682 1.0815C163.206 0.633335 164.784 0.414849 166.367 0.432602C170.932 0.432602 173.542 2.92642 174.476 5.95461C175.061 5.88859 175.649 5.85461 176.237 5.85282C177.259 5.84161 178.274 6.02261 179.235 6.38721C180.495 5.9897 181.804 5.79241 183.12 5.80193C185.086 5.80193 186.858 6.28543 188.327 7.22697C190.403 6.28543 192.952 5.80193 195.926 5.80193C196.798 5.80014 197.669 5.84686 198.536 5.94189L198.646 5.87827C199.447 5.38206 201.086 4.36417 203.271 4.36417C204.922 4.34941 206.523 4.96438 207.774 6.09457C209.691 5.63471 211.676 5.57849 213.613 5.92917C214.333 5.72317 215.076 5.62045 215.823 5.6238C220.727 5.6238 224.563 9.58082 224.563 14.6321C224.565 15.4335 224.454 16.2308 224.235 16.9986C224.747 18.2796 225.007 19.6558 225 21.0447C225 23.9711 223.932 26.6812 222.014 28.6788C220.52 30.2184 217.789 32.0506 213.249 32.0506C212.265 32.0516 211.282 31.9664 210.311 31.7961C209.538 32.0317 208.737 32.1517 207.932 32.1523C207.099 33.2148 206.087 34.1076 204.946 34.7861C202.482 36.2748 199.24 37 195.065 37" fill="#FFC2D2"/>
<path d="M221.176 17.1386C221.58 16.3716 221.789 15.5083 221.783 14.632C221.783 11.2221 219.173 8.55018 215.823 8.55018C215.128 8.54742 214.44 8.68569 213.795 8.95734C212.912 8.74133 212.008 8.63036 211.1 8.62653C209.637 8.60667 208.185 8.89213 206.827 9.46628C206.063 7.97763 204.655 7.27783 203.259 7.27783C201.863 7.27783 200.928 7.83767 200.078 8.37206L200.042 8.3975C199.41 8.80465 199.228 8.90644 198.986 8.94461C197.972 8.79192 196.95 8.71961 195.926 8.72831C192.175 8.72831 189.687 9.55534 188.048 10.7005C186.883 9.42811 185.195 8.72831 183.12 8.72831C181.481 8.72831 180.158 9.05912 179.089 9.56807C178.325 9.05912 177.366 8.79193 176.237 8.79193C174.814 8.79813 173.4 9.01662 172.037 9.44083C172.074 9.19248 172.094 8.94159 172.097 8.69014C172.097 6.11999 170.592 3.37171 166.368 3.37171C164.34 3.37171 162.592 3.72797 161.208 4.38959C160.516 3.62618 159.4 2.95184 157.603 2.95184C154.981 2.95184 152.165 3.86793 150.271 5.34386C149.093 6.24723 148.474 7.41779 148.377 8.80465C147.252 8.81216 146.146 9.11392 145.16 9.68258C144.092 9.13547 142.623 8.76649 140.608 8.76649C138.593 8.76649 136.942 9.05912 135.777 9.6953C134.721 9.13547 133.252 8.76649 131.212 8.76649C128.7 8.76649 126.939 9.16091 125.665 10.0007L125.483 10.1279C123.674 9.05912 121.404 8.74104 119.328 8.74104C116.172 8.74104 113.756 9.37721 112.02 10.3824C110.551 8.81738 108.549 8.63925 107.699 8.63925C106.648 8.63283 105.613 8.90414 104.688 9.42811C104.021 9.03368 103.171 8.80465 102.066 8.80465C100.593 8.81205 99.1283 9.04787 97.7206 9.50445C97.7206 8.07941 97.6841 6.84523 97.235 5.71284C96.7858 4.58045 95.6812 2.96456 92.8042 2.96456C90.5948 2.96456 87.4629 3.54984 85.3022 5.17845L85.2779 5.2039C84.064 6.14544 83.4206 7.3669 83.372 8.8301C79.7788 9.19909 77.2417 11.2349 76.0642 14.5557C75.1174 11.3748 71.9855 8.6647 66.8263 8.6647C64.5927 8.6647 62.5897 9.18636 60.9267 10.1406V9.82254C60.9267 8.28299 60.9267 6.94702 60.429 5.73829C59.9312 4.52955 58.8751 2.99001 55.9981 2.99001C53.3761 2.99001 50.5598 3.9061 48.6661 5.38203C47.9984 5.87824 47.4668 6.54953 47.1244 7.32873C46.2868 6.53987 45.1214 6.0691 43.7983 6.0691C41.6496 6.0691 39.8894 7.37962 37.9957 8.77921C37.6073 9.07185 37.1581 9.41538 36.6847 9.80981C36.305 9.64603 35.904 9.54309 35.495 9.50445C34.9731 7.45596 33.1886 6.0691 30.8822 6.0691C29.2676 6.0691 27.8716 6.80706 26.4635 7.77405C26.1236 5.52199 24.5091 3.40989 20.8066 3.40989C18.7794 3.40989 17.0313 3.76614 15.6475 4.42777C14.9555 3.66436 13.8387 2.99001 12.0421 2.99001C9.42006 2.99001 6.60377 3.9061 4.71006 5.38203C3.44758 6.36174 2.8042 7.64681 2.8042 9.18636C2.8042 10.2424 3.15624 11.0949 3.38688 11.6293L3.45972 11.8201V21.3119C3.07036 22.0656 2.86987 22.9105 2.87704 23.7675C2.87704 25.8415 3.93315 27.5082 5.76617 28.348C6.85869 28.8442 8.23042 29.0605 10.2091 29.0605C12.1878 29.0605 13.5717 28.8442 14.652 28.348L14.8706 28.2335L15.0891 28.348C16.1816 28.8442 17.5533 29.0605 19.532 29.0605C21.5107 29.0605 22.8946 28.8442 23.9749 28.348C24.3313 28.184 24.6692 27.9792 24.9825 27.7373C26.075 28.4879 27.7017 29.1368 30.0688 29.1368C33.5042 29.1368 35.665 27.9536 36.9032 26.9102C37.8986 27.9408 39.7559 29.1368 42.9849 29.1368C45.5342 29.1368 47.3672 28.4879 48.6661 27.7245C48.9864 27.9726 49.3326 28.1817 49.6979 28.348C50.7904 28.8442 52.1622 29.0605 54.1408 29.0605C56.1195 29.0605 57.5034 28.8442 58.5838 28.348C59.0499 28.1362 59.4835 27.8532 59.8705 27.5082C61.5458 28.6152 63.6823 29.2132 66.1586 29.2132C70.8808 29.2132 74.5833 27.0629 75.9428 23.8057C76.2449 24.7217 76.6922 25.5777 77.266 26.3377C78.6377 28.1317 80.6771 29.1114 83.02 29.1114C84.1379 29.107 85.2423 28.8555 86.2612 28.3734C87.0259 28.8824 87.9849 29.1623 89.126 29.1623C90.8376 29.1623 93.2776 28.7297 95.0864 27.9408C96.191 28.6152 97.8055 29.0605 100.16 29.0605C102.175 29.0605 107.371 29.0605 107.82 24.5564C108.731 27.3301 111.268 29.1114 114.606 29.1114C116.074 29.1309 117.53 28.8275 118.879 28.2207C119.802 28.6661 120.991 28.9842 122.496 28.9842C124.73 28.9842 127.073 28.1317 128.505 26.3122C129.513 27.6736 131.176 29.0096 134.126 29.0096C136.323 29.0096 137.792 28.3607 138.824 27.4955C139.904 28.4498 141.336 29.0096 143.4 29.0096C146.386 29.0096 148.025 27.6227 149.008 26.1977C149.529 27.1672 150.346 27.9247 151.327 28.348C152.42 28.8442 153.791 29.0605 155.77 29.0605C157.749 29.0605 159.133 28.8442 160.213 28.348L160.431 28.2335L160.65 28.348C161.742 28.8442 163.114 29.0605 165.093 29.0605C167.072 29.0605 168.455 28.8442 169.536 28.348L169.742 28.2462L169.949 28.348C171.041 28.8442 172.364 29.0605 174.258 29.0605C176.152 29.0605 177.657 28.7424 178.701 28.2335L179.089 28.4116C180.133 28.8569 181.444 29.0605 183.205 29.0605C183.825 29.0649 184.445 29.0351 185.062 28.9714C185.353 30.7273 186.531 32.1778 188.376 33.043C189.978 33.7809 192.163 34.1499 195.04 34.1499C198.718 34.1499 201.498 33.5519 203.526 32.3304C204.861 31.5161 205.868 30.4474 206.512 29.1623C206.951 29.2627 207.398 29.3139 207.847 29.315C208.61 29.3211 209.365 29.1653 210.069 28.8569C211.106 29.0933 212.164 29.2127 213.225 29.2132C219.416 29.2132 222.196 25.1544 222.196 21.1337C222.212 19.7497 221.85 18.3897 221.152 17.2149" fill="#025563"/>
<path d="M14.1785 21.4519V9.87345C14.1785 7.21424 14.2028 5.86554 12.042 5.86554C9.88126 5.86554 7.8176 6.53989 6.3609 7.67229C5.77821 8.11761 5.58399 8.53748 5.58399 9.12277C5.58399 9.70805 5.75394 9.98797 5.93602 10.4078C6.11854 10.7924 6.22193 11.2129 6.2395 11.642V21.4391C6.24815 21.8203 6.15117 22.196 5.9603 22.5206C5.79035 22.8896 5.65682 23.1568 5.65682 23.7039C5.65682 25.5997 7.36845 26.0705 10.209 26.0705C13.0496 26.0705 14.7612 25.5997 14.7612 23.7039C14.7612 23.1568 14.6398 22.8896 14.4577 22.5206C14.2669 22.196 14.1699 21.8203 14.1785 21.4391" fill="#5CC1FF"/>
<path d="M23.526 21.4518V15.5227C23.526 12.9907 23.5017 11.7056 21.3895 11.7056C19.2773 11.7056 17.1408 12.2527 15.7326 13.3597C15.1499 13.805 14.98 14.2249 14.98 14.8102C14.98 15.3955 15.1499 15.7263 15.3077 16.1589C15.4792 16.5463 15.5742 16.9661 15.5869 17.393V21.4518C15.5956 21.8331 15.4986 22.2087 15.3077 22.5333C15.1378 22.9023 15.0043 23.1695 15.0043 23.7166C15.0043 25.6124 16.7159 26.0832 19.5565 26.0832C22.397 26.0832 24.1087 25.6124 24.1087 23.7166C24.1087 23.1695 23.9873 22.9023 23.8052 22.5333C23.6143 22.2087 23.5173 21.8331 23.526 21.4518Z" fill="#5CC1FF"/>
<path d="M17.9416 11.6802C20.4787 11.6802 23.7441 10.8913 23.7441 8.67742C23.7441 6.95974 22.6637 6.2854 20.8064 6.2854C18.2693 6.2854 15.0039 7.0997 15.0039 9.38993C15.0039 11.0186 16.0843 11.6802 17.9416 11.6802Z" fill="#5CC1FF"/>
<path d="M35.3493 19.6324C34.2931 19.6324 33.844 20.6884 33.3342 20.6884C32.8243 20.6884 32.8607 20.4467 32.8607 20.0523V17.0495C32.8607 16.9223 32.9336 16.8714 33.0914 16.8714H35.1308C35.9562 16.8714 36.4661 16.1589 36.4661 14.6066C36.4661 13.0543 36.0291 12.3673 35.1308 12.3673H33.0914C32.9457 12.3673 32.8607 12.3164 32.8607 12.1891V10.7641C32.8607 9.52992 31.9867 8.94464 30.882 8.94464C29.7774 8.94464 28.3449 9.88618 26.7183 11.1076C25.0916 12.3291 23.7563 13.4742 23.7563 15.0519C23.7478 15.4751 23.8539 15.8922 24.0623 16.2547C24.2707 16.6173 24.5729 16.9105 24.9338 17.1004V21.8081C24.9095 24.6455 26.864 26.1468 30.1051 26.1468C34.9244 26.1468 36.8424 23.3349 36.8424 21.2992C36.8424 20.3195 36.3204 19.6197 35.3614 19.6197" fill="#5CC1FF"/>
<path d="M48.2652 19.6324C47.2091 19.6324 46.7599 20.6884 46.2501 20.6884C45.7403 20.6884 45.7767 20.4467 45.7767 20.0523V17.0495C45.7767 16.9223 45.8495 16.8714 46.0073 16.8714H48.0467C48.8722 16.8714 49.382 16.1589 49.382 14.6066C49.382 13.0543 48.9571 12.3673 48.0467 12.3673H45.9952C45.8495 12.3673 45.7645 12.3164 45.7645 12.1891V10.7641C45.7645 9.52992 44.8905 8.94464 43.7858 8.94464C42.6812 8.94464 41.2487 9.88618 39.6221 11.1076C37.9954 12.3291 36.6601 13.4742 36.6601 15.0519C36.6516 15.4751 36.7577 15.8922 36.9661 16.2547C37.1745 16.6173 37.4767 16.9105 37.8376 17.1004V21.8081C37.8134 24.6455 39.7678 26.1468 43.0089 26.1468C47.8282 26.1468 49.7462 23.3349 49.7462 21.2992C49.7462 20.3195 49.2242 19.6197 48.2652 19.6197" fill="#5CC1FF"/>
<path d="M58.1346 21.4518V9.87345C58.1346 7.21424 58.1589 5.86554 55.9981 5.86554C53.8373 5.86554 51.7736 6.55262 50.3169 7.68501C49.7343 8.13033 49.54 8.55021 49.54 9.13549C49.54 9.72077 49.71 10.0007 49.8921 10.4206C50.0746 10.8051 50.178 11.2256 50.1955 11.6547V21.4518C50.2042 21.8331 50.1072 22.2087 49.9163 22.5333C49.7464 22.9023 49.6129 23.1695 49.6129 23.7166C49.6129 25.6124 51.3245 26.0832 54.1651 26.0832C57.0056 26.0832 58.7173 25.6124 58.7173 23.7166C58.7173 23.1695 58.5959 22.9023 58.4138 22.5333C58.2229 22.2087 58.1259 21.8331 58.1346 21.4518Z" fill="#5CC1FF"/>
<path d="M72.5437 19.238C71.7183 19.238 70.5651 19.7851 68.4528 19.7851C67.3482 19.7851 66.3406 19.3907 66.3406 19.0726C66.3406 18.9708 66.4135 18.9453 66.547 18.9453H70.9899C72.568 18.9453 73.5756 18.2837 73.5756 16.6042C73.5756 14.2631 71.4876 11.553 66.814 11.553C61.9462 11.553 58.6201 14.5303 58.6201 19.2889C58.6201 23.653 61.4121 26.2359 66.1828 26.2359C70.65 26.2359 73.7455 23.9711 73.7455 20.892C73.7455 19.7342 73.3206 19.238 72.5437 19.238ZM66.0857 16.5279C66.0857 15.6627 66.2556 14.5303 66.7169 14.5303C67.1782 14.5303 67.1661 14.9502 67.1661 15.37C67.1661 16.1843 66.8141 16.9986 66.3163 16.9986C66.1343 16.9986 66.0857 16.8205 66.0857 16.5279Z" fill="#5CC1FF"/>
<path d="M94.9526 20.7394V9.86075C94.9526 7.20153 94.9769 5.85284 92.8161 5.85284C90.6553 5.85284 88.3732 6.43812 86.9408 7.5069C86.3581 7.95222 86.1639 8.3721 86.1639 8.95738C86.1639 9.54266 86.4188 9.84802 86.6373 10.3061C86.898 10.7768 87.0283 11.3143 87.0136 11.8584V12.1255C86.2852 11.782 85.4841 11.6548 84.5979 11.6548C80.3492 11.6548 78.0913 14.2885 78.0913 19.2889C78.0913 23.9203 80.1064 26.1341 83.0441 26.1341C83.8119 26.1258 84.5687 25.9429 85.2625 25.598C85.9562 25.2531 86.5702 24.7545 87.0621 24.1366C87.1593 25.5107 87.5841 26.185 89.1501 26.185C91.0802 26.185 93.593 25.5489 94.6734 24.8363C95.3532 24.391 95.5474 23.8948 95.5474 23.3095C95.5474 22.7242 95.3653 22.3934 95.2197 21.9608C95.0482 21.5734 94.9532 21.1536 94.9405 20.7266L94.9526 20.7394ZM86.6494 21.8845C86.3217 21.8845 86.2245 21.541 86.2245 18.1438C86.2245 14.7466 86.3217 14.4031 86.6494 14.4031C86.9772 14.4031 87.0743 14.7466 87.0743 18.1438C87.0743 21.541 86.9772 21.8845 86.6494 21.8845Z" fill="#5CC1FF"/>
<path d="M107.711 11.553C106.084 11.553 104.943 12.609 104.19 14.0341C104.093 12.4818 103.717 11.7184 102.078 11.7184C100.148 11.7184 97.8297 12.2655 96.4216 13.3724C95.8389 13.8178 95.6689 14.2376 95.6689 14.8229C95.6689 15.4082 95.8389 15.739 95.9967 16.1716C96.1682 16.5591 96.2632 16.9789 96.2759 17.4058V21.4646C96.2845 21.8458 96.1876 22.2215 95.9967 22.5461C95.8267 22.9151 95.6932 23.1823 95.6932 23.7294C95.6932 25.6252 97.502 26.096 100.16 26.096C103.401 26.096 105.052 25.7015 105.052 23.8821C105.052 23.2459 104.822 22.9405 104.579 22.5334C104.336 22.1262 104.203 22.0372 104.203 21.4519V17.7875C104.203 17.5203 104.3 17.444 104.433 17.444C104.992 17.444 104.834 20.4976 107.553 20.4976C109.884 20.4976 110.964 18.6782 110.964 15.7645C110.964 12.8508 109.738 11.553 107.699 11.553" fill="#5CC1FF"/>
<path d="M126.769 21.3373C126.32 21.0192 126.138 20.6248 126.138 19.8868V16.9477C126.138 15.2682 126.138 11.6547 119.328 11.6547C114.351 11.6547 111.292 13.576 111.292 15.8662C111.292 17.1258 112.227 17.8384 114.035 17.8384C116.148 17.8384 117.276 17.2022 117.531 15.7644C117.653 15.1283 117.653 14.7338 117.932 14.7338C118.211 14.7338 118.211 15.0519 118.211 15.3191V17.8384C118.211 18.1056 118.211 18.2328 117.908 18.2073C117.065 18.1057 116.218 18.0547 115.371 18.0547C112.409 18.0547 110.248 19.0598 110.248 22.1389C110.248 24.7981 112.202 26.1468 114.618 26.1468C116.5 26.1468 117.956 25.5615 118.964 24.7472C119.716 25.5106 120.87 26.0069 122.508 26.0069C125.628 26.0069 127.109 24.1874 127.109 21.9989C127.109 21.5791 127.061 21.5282 126.781 21.3373H126.769ZM118.017 22.9659C117.762 22.9659 117.592 22.6478 117.592 21.5663C117.592 20.4848 117.762 20.2558 118.017 20.2558C118.272 20.2558 118.418 20.9683 118.418 21.49C118.418 22.6478 118.32 22.9659 118.017 22.9659Z" fill="#5CC1FF"/>
<path d="M148.498 11.7056C146.338 11.7056 145.488 12.8635 145.488 14.2122C145.488 15.1664 145.913 15.4209 145.913 16.1843C145.913 16.6551 145.767 17.2658 145.561 18.1056C145.512 18.2837 145.464 18.4236 145.306 18.4236C145.148 18.4236 145.099 18.3219 145.051 18.1056C144.747 16.8968 144.699 16.6042 144.699 16.2861C144.699 15.4463 145.124 15.2046 145.124 14.2631C145.124 12.469 143.546 11.6802 140.608 11.6802C137.063 11.6802 135.959 12.5708 135.959 14.2631C135.959 15.1537 136.384 15.4718 136.384 16.2098C136.384 16.6551 136.262 17.2658 136.031 18.1056C135.983 18.2837 135.934 18.4236 135.777 18.4236C135.619 18.4236 135.57 18.3219 135.522 18.1056C135.242 16.9986 135.17 16.6042 135.17 16.2606C135.17 15.4463 135.594 15.2555 135.594 14.2631C135.594 12.5835 134.368 11.6802 131.2 11.6802C127.133 11.6802 126.15 12.8126 126.15 14.5557C126.15 15.6881 126.551 16.2098 126.927 16.7696C127.449 17.533 127.449 17.5584 128.408 19.7214L129.816 22.8514C130.447 24.251 131.224 26.0323 134.113 26.0323C137.003 26.0323 137.755 24.5818 138.459 23.055C138.556 22.8133 138.605 22.6606 138.811 22.6606C139.018 22.6606 139.042 22.7878 139.163 23.055C140.171 25.1671 140.972 26.0323 143.388 26.0323C146.095 26.0323 146.86 24.4546 147.588 22.8514L149.02 19.7214C149.652 18.3473 149.894 17.5584 150.599 16.566C151.023 15.9807 151.533 15.2555 151.533 14.2249C151.533 12.6981 150.477 11.7183 148.498 11.7183" fill="#5CC1FF"/>
<path d="M159.752 21.4518V9.87345C159.752 7.21424 159.776 5.86554 157.615 5.86554C155.454 5.86554 153.391 6.55262 151.934 7.68501C151.351 8.13033 151.157 8.55021 151.157 9.13549C151.157 9.72077 151.327 10.0007 151.509 10.4206C151.692 10.8051 151.795 11.2256 151.813 11.6547V21.4518C151.821 21.8331 151.724 22.2087 151.533 22.5333C151.363 22.9023 151.23 23.1695 151.23 23.7166C151.23 25.6124 152.941 26.0832 155.782 26.0832C158.623 26.0832 160.334 25.6124 160.334 23.7166C160.334 23.1695 160.213 22.9023 160.031 22.5333C159.84 22.2087 159.743 21.8331 159.752 21.4518Z" fill="#5CC1FF"/>
<path d="M169.099 21.4518V15.5227C169.099 12.9907 169.075 11.7056 166.963 11.7056C164.85 11.7056 162.714 12.2527 161.306 13.3597C160.723 13.805 160.553 14.2249 160.553 14.8102C160.553 15.3955 160.723 15.7263 160.881 16.1589C161.052 16.5463 161.147 16.9661 161.16 17.393V21.4518C161.169 21.8331 161.072 22.2087 160.881 22.5333C160.711 22.9023 160.577 23.1695 160.577 23.7166C160.577 25.6124 162.289 26.0832 165.129 26.0832C167.97 26.0832 169.682 25.6124 169.682 23.7166C169.682 23.1695 169.56 22.9023 169.378 22.5333C169.187 22.2087 169.09 21.8331 169.099 21.4518Z" fill="#5CC1FF"/>
<path d="M163.515 11.6802C166.052 11.6802 169.317 10.8913 169.317 8.67742C169.317 6.95974 168.237 6.2854 166.379 6.2854C163.842 6.2854 160.577 7.0997 160.577 9.38993C160.577 11.0186 161.657 11.6802 163.515 11.6802Z" fill="#5CC1FF"/>
<path d="M187.077 21.4519V16.0698C187.077 13.3343 185.948 11.642 183.132 11.642C180.801 11.642 179.259 12.5327 178.337 13.7796C178.239 12.38 177.815 11.7057 176.249 11.7057C174.319 11.7057 172 12.2528 170.592 13.3597C170.009 13.805 169.839 14.2249 169.839 14.8102C169.839 15.3955 170.009 15.7263 170.167 16.1589C170.338 16.5463 170.433 16.9662 170.446 17.3931V21.4519C170.455 21.8331 170.358 22.2087 170.167 22.5334C169.997 22.9023 169.863 23.1695 169.863 23.7167C169.863 25.6125 171.672 26.0832 174.282 26.0832C176.698 26.0832 178.628 25.6633 178.628 23.8693C178.619 23.4958 178.57 23.1245 178.482 22.7624C178.404 22.4081 178.371 22.0443 178.385 21.6809V17.6348C178.385 17.0877 178.434 16.6933 178.761 16.6933C179.089 16.6933 179.138 17.0877 179.138 17.6348V21.6936C179.152 22.0571 179.119 22.4208 179.041 22.7751C178.953 23.1372 178.904 23.5085 178.895 23.8821C178.895 25.6761 180.825 26.0959 183.241 26.0959C185.851 26.0959 187.66 25.6252 187.66 23.7294C187.66 23.1823 187.538 22.9151 187.356 22.5461C187.165 22.2215 187.068 21.8458 187.077 21.4646" fill="#5CC1FF"/>
<path d="M201.389 21.3374C199.507 21.3374 196.642 22.4698 193.96 22.4698C193.025 22.4698 192.831 22.3425 192.831 21.9481C192.831 21.8209 192.855 21.5282 193.037 21.5282C193.219 21.5282 193.438 21.63 194.943 21.63C200.539 21.63 203.331 19.5179 203.331 16.2607V15.968C204.187 14.9278 204.661 13.6012 204.666 12.2273C204.666 10.8532 204.169 10.2043 203.283 10.2043C202.7 10.2043 202.202 10.4715 201.522 10.8914C200.624 11.4766 200.041 11.8329 198.888 11.8965C197.918 11.7261 196.935 11.6452 195.95 11.6548C190.221 11.6548 187.732 13.7287 187.732 16.9478C187.732 18.5255 188.339 19.7342 189.614 20.4976C188.679 21.2865 188.06 22.3934 188.06 23.8185C188.056 24.6804 188.302 25.5232 188.764 26.2359C188.181 26.6558 187.805 27.2411 187.805 28.0299C187.805 29.9257 189.99 31.1599 195.064 31.1599C201.219 31.1599 204.63 29.3405 204.63 25.129C204.63 22.4952 203.295 21.3374 201.389 21.3374ZM194.955 14.4158C195.21 14.4158 195.404 14.7084 195.914 16.5279C196.218 17.6094 196.315 18.2328 196.315 18.5C196.315 18.7672 196.193 18.8436 196.06 18.8436C195.926 18.8436 195.635 18.5255 195.125 16.7696C194.797 15.6372 194.7 15.0265 194.7 14.772C194.7 14.5176 194.797 14.4285 194.955 14.4285V14.4158ZM195.635 28.6661C193.826 28.6661 192.794 28.4498 192.248 28.1699C192.042 28.0681 191.993 27.9918 191.993 27.9282C191.993 27.8645 192.042 27.8518 192.114 27.8518C192.187 27.8518 192.746 27.979 193.875 27.979C195.611 27.979 198.172 27.6101 199.095 27.6101C199.471 27.6101 199.592 27.661 199.592 27.7882C199.592 28.1826 198.415 28.6534 195.623 28.6534" fill="#5CC1FF"/>
<path d="M214.171 15.8154C212.715 15.37 212.059 15.37 212.059 14.8993C212.059 14.683 212.229 14.5557 212.533 14.5557C213.164 14.5557 214.39 15.1028 215.094 15.4973C216.029 16.0189 216.696 16.5533 217.4 16.5533C218.105 16.5533 218.979 15.8663 218.979 14.6321C218.979 12.7363 217.546 11.4766 215.81 11.4766C215.199 11.4605 214.605 11.6878 214.147 12.1128C213.164 11.7528 212.13 11.5679 211.088 11.5657C207.216 11.5657 204.885 13.7541 204.885 16.7315C204.885 20.3704 208.32 21.3119 209.813 21.7572C211.307 22.2026 211.926 22.228 211.926 22.6479C211.926 22.826 211.78 22.966 211.428 22.966C210.821 22.966 209.692 22.5715 208.685 22.0499C207.677 21.5282 206.997 20.8666 206.147 20.8666C205.298 20.8666 204.521 21.6046 204.521 22.8133C204.521 24.76 205.88 26.3377 207.859 26.3377C208.636 26.3377 209.243 26.0705 209.644 25.6506C210.805 26.0396 212.017 26.237 213.237 26.2359C217.255 26.2359 219.416 24.0475 219.416 21.0702C219.416 17.2786 215.628 16.2734 214.171 15.8281" fill="#5CC1FF"/>
<path d="M13.875 22.9532C13.79 22.9787 13.4744 22.0753 13.3165 20.5612C13.2316 19.8105 13.183 18.9071 13.1587 17.9147C13.1345 16.9223 13.1102 15.828 13.1102 14.6829C13.098 12.3927 13.1223 10.3188 13.1709 8.81737C13.1915 8.49116 13.1915 8.16387 13.1709 7.83766C13.1573 7.60478 13.1038 7.37637 13.0131 7.16331C12.9576 7.03125 12.8747 6.91387 12.7703 6.81978C12.6974 6.75616 12.6489 6.718 12.661 6.69255C12.6732 6.66711 12.7339 6.65438 12.8431 6.69255C13.0098 6.74921 13.1546 6.86077 13.2559 7.01063C13.413 7.23788 13.5207 7.49847 13.5715 7.77405C13.637 8.1178 13.6736 8.46691 13.6807 8.81737C13.7536 10.3188 13.8143 12.3927 13.8264 14.6829C13.8385 15.828 13.8385 16.9223 13.8264 17.9147C13.8143 18.9071 13.8143 19.7978 13.8264 20.5357C13.8628 22.0244 13.9842 22.9405 13.8871 22.9659" fill="#CAFBFF"/>
<path d="M21.1221 10.4969C21.0978 10.3951 21.377 10.2552 21.729 9.98797C21.9296 9.83637 22.1093 9.65655 22.2632 9.45358C22.4355 9.2184 22.552 8.94365 22.603 8.652C22.6569 8.37481 22.6316 8.08713 22.5302 7.82497C22.4346 7.60816 22.2885 7.42002 22.1053 7.27786C21.7776 7.02339 21.4862 7.01066 21.4741 6.89615C21.462 6.78164 21.5348 6.78164 21.6926 6.74347C21.9135 6.69916 22.1419 6.72577 22.3481 6.81981C22.6683 6.9543 22.9371 7.19583 23.1129 7.50688C23.3213 7.89744 23.3901 8.35301 23.3071 8.79195C23.2342 9.2134 23.0441 9.6029 22.7609 9.91163C22.5379 10.1507 22.2689 10.3372 21.9718 10.4587C21.7791 10.543 21.5735 10.5904 21.3649 10.5987C21.2192 10.5987 21.1342 10.5605 21.1221 10.5224" fill="#CAFBFF"/>
<path d="M23.1737 24.7981C23.1373 24.76 23.2586 24.6073 23.2465 24.3146C23.2389 24.1326 23.1933 23.9546 23.113 23.793C23.028 23.5894 22.8823 23.3858 22.7245 23.1059C22.5526 22.7921 22.4258 22.4534 22.3482 22.1008C22.2601 21.7085 22.2113 21.3076 22.2025 20.9047C22.1904 20.4849 22.2147 20.0523 22.2268 19.6069L22.2996 18.2455C22.3603 17.3167 22.421 16.4261 22.4939 15.6245L22.591 14.4921C22.6238 14.1874 22.6197 13.8796 22.5789 13.576C22.5548 13.3688 22.4838 13.1707 22.3719 12.9981C22.26 12.8254 22.1104 12.6833 21.9355 12.5836C21.8369 12.5277 21.7303 12.489 21.6199 12.469C21.5349 12.4563 21.4863 12.4436 21.4863 12.4182C21.4863 12.3927 21.5227 12.3545 21.6077 12.3164C21.7452 12.2694 21.8927 12.265 22.0326 12.3036C22.2556 12.356 22.461 12.4703 22.6274 12.6345C22.7314 12.7352 22.8213 12.8509 22.8945 12.978C22.9732 13.1221 23.0344 13.276 23.0766 13.436C23.1624 13.7848 23.1992 14.1449 23.1858 14.5048C23.1737 14.8738 23.1615 15.2555 23.1494 15.6627C23.113 16.4642 23.0766 17.3549 23.0159 18.2837L22.9309 19.6451C22.8945 20.0777 22.8702 20.4976 22.8581 20.8793C22.8459 21.6554 22.943 22.3298 23.1737 22.8387C23.2962 23.0937 23.4016 23.3573 23.4893 23.6276C23.5601 23.8534 23.5726 24.0948 23.5257 24.3274C23.4963 24.4776 23.4244 24.615 23.3193 24.7218C23.2465 24.7854 23.1858 24.7981 23.1737 24.7854" fill="#CAFBFF"/>
<path d="M32.3144 12.3927C32.2173 12.3927 32.1323 12.1764 32.0595 11.8329C32.0209 11.631 31.9925 11.4272 31.9745 11.2222C31.9502 10.9931 31.9502 10.726 31.9259 10.5097C31.9186 10.3339 31.8684 10.1631 31.7803 10.0134C31.6875 9.89223 31.5718 9.79257 31.4404 9.72079L31.1126 9.51722C31.0276 9.4536 30.9912 9.4027 30.9912 9.35181C30.9912 9.30091 31.0519 9.26274 31.1612 9.2373C31.3048 9.2048 31.453 9.20048 31.5982 9.22457C31.844 9.26121 32.073 9.37677 32.2537 9.55539C32.3699 9.67409 32.4609 9.81717 32.5207 9.97526C32.578 10.126 32.6148 10.2845 32.63 10.446C32.6426 10.5856 32.6466 10.7258 32.6421 10.8659C32.6421 10.9931 32.63 11.1077 32.63 11.2349C32.6159 11.4397 32.5916 11.6435 32.5572 11.8456C32.4965 12.2019 32.4115 12.4182 32.3144 12.4182" fill="#CAFBFF"/>
<path d="M35.3981 16.5279C35.3374 16.4388 35.471 16.2352 35.5438 15.8662C35.5893 15.6485 35.6178 15.4272 35.6288 15.2046C35.6457 14.9292 35.6457 14.653 35.6288 14.3776C35.6143 14.1312 35.5567 13.8896 35.4588 13.6651C35.3749 13.4908 35.2546 13.3385 35.1068 13.2197C35.0036 13.1314 34.8892 13.0586 34.7669 13.0034C34.6698 12.9653 34.5969 12.9398 34.5848 12.8762C34.5727 12.8126 34.6212 12.7617 34.7547 12.7108C34.9425 12.654 35.1428 12.6629 35.3253 12.7363C35.6027 12.8428 35.8407 13.0388 36.0051 13.2961C36.1904 13.5974 36.2991 13.9434 36.3207 14.3012C36.342 14.6292 36.3216 14.9587 36.26 15.281C36.2143 15.5539 36.124 15.8164 35.9929 16.0571C35.9033 16.228 35.7738 16.3725 35.6166 16.477C35.5074 16.5406 35.4224 16.5533 35.386 16.5151" fill="#CAFBFF"/>
<path d="M32.7517 21.0829C32.7589 21.0972 32.7616 21.1135 32.7595 21.1295C32.7573 21.1455 32.7503 21.1604 32.7395 21.1719C32.704 21.2228 32.6524 21.2589 32.5939 21.2737C32.5017 21.299 32.4044 21.2946 32.3147 21.261L32.1569 21.1719C32.1009 21.1294 32.0518 21.0779 32.0112 21.0193C31.9341 20.9001 31.8804 20.766 31.8534 20.6248C31.8263 20.4946 31.806 20.3629 31.7927 20.2304C31.7615 19.9474 31.7453 19.6628 31.7441 19.3779C31.7441 18.1565 32.0112 17.1895 32.2054 17.2149C32.3996 17.2404 32.4482 18.2073 32.4482 19.3779C32.4482 19.6706 32.4482 19.9505 32.4361 20.2049V20.5485C32.4326 20.6208 32.4366 20.6934 32.4482 20.7648C32.4643 20.8523 32.5121 20.9299 32.5817 20.9811C32.6424 21.032 32.7031 21.032 32.7395 21.0829" fill="#CAFBFF"/>
<path d="M32.8243 25.1035C32.7879 25.0017 33.152 24.8108 33.674 24.4419C34.3407 23.9751 34.9241 23.3894 35.3978 22.7115C35.5297 22.5194 35.6513 22.3197 35.762 22.1135C35.8648 21.93 35.9541 21.7386 36.029 21.5409C36.0859 21.387 36.1107 21.2222 36.1019 21.0574C36.0897 20.9142 36.0483 20.7753 35.9805 20.6503C35.8756 20.4499 35.7256 20.2796 35.5435 20.154C35.4099 20.0523 35.3128 20.0141 35.3128 19.9505C35.3128 19.8868 35.4221 19.8487 35.6284 19.8741C35.9261 19.9285 36.1941 20.0961 36.3811 20.3449C36.5244 20.5204 36.6244 20.7301 36.6724 20.9556C36.7197 21.2137 36.7072 21.4798 36.636 21.7318C36.5661 21.9785 36.4725 22.2172 36.3568 22.4443C35.8262 23.5255 34.9619 24.3866 33.9047 24.8872C33.2734 25.1671 32.8486 25.1798 32.8243 25.0908" fill="#CAFBFF"/>
<path d="M45.0365 12.3927C44.9394 12.38 44.8787 12.1637 44.8422 11.8202C44.8058 11.4766 44.7815 11.044 44.6966 10.5987C44.6636 10.4051 44.6065 10.2169 44.5266 10.0389C44.4968 9.97533 44.4601 9.91556 44.4174 9.86075C44.3824 9.81667 44.3415 9.77811 44.296 9.74623C44.2179 9.69305 44.1317 9.65431 44.0411 9.63172C43.9682 9.60628 43.8954 9.60628 43.8711 9.55538C43.8468 9.50449 43.859 9.44087 43.9561 9.3518C44.0281 9.30038 44.1094 9.26485 44.195 9.24735C44.2805 9.22985 44.3686 9.23076 44.4538 9.25002C44.5752 9.27106 44.6911 9.31876 44.7937 9.38998C44.9066 9.46861 45.0053 9.5677 45.085 9.68262C45.2447 9.91779 45.3525 10.1872 45.4006 10.4715C45.4874 10.94 45.4708 11.4231 45.3521 11.8838C45.255 12.2273 45.1457 12.4182 45.0486 12.4054" fill="#CAFBFF"/>
<path d="M47.95 16.2098C47.9257 16.1589 47.9622 16.0953 48.0229 15.9808C48.0992 15.8399 48.1603 15.6905 48.2049 15.5354C48.2671 15.3026 48.3078 15.064 48.3263 14.8229C48.362 14.5317 48.366 14.2372 48.3385 13.945C48.3201 13.7097 48.2157 13.4909 48.0471 13.3343C47.8782 13.2019 47.6833 13.1106 47.4766 13.0671L46.9789 12.9398C46.8575 12.9017 46.7847 12.8635 46.7847 12.8126C46.7847 12.7617 46.8454 12.7108 46.9667 12.6599C47.2747 12.5478 47.6052 12.5215 47.9257 12.5836C48.0975 12.6151 48.2621 12.6799 48.4113 12.7744C48.5865 12.8885 48.7324 13.0457 48.8362 13.2325C48.9388 13.4206 49.0048 13.6282 49.0304 13.8432C49.072 14.2089 49.0514 14.5793 48.9697 14.9374C48.9139 15.2351 48.8069 15.5196 48.6541 15.7772C48.5471 15.9636 48.3912 16.1138 48.2049 16.2098C48.0714 16.2734 47.9864 16.2607 47.9622 16.2098" fill="#CAFBFF"/>
<path d="M45.6798 21.1592C45.6798 21.2101 45.6069 21.261 45.4613 21.2483C45.3634 21.23 45.2705 21.1899 45.1888 21.1306C45.1071 21.0713 45.0386 20.9943 44.9878 20.9047C44.8543 20.6646 44.7792 20.3937 44.7693 20.1159C44.745 19.8487 44.7329 19.556 44.7329 19.2507C44.7329 18.0292 44.9757 17.0495 45.1699 17.075C45.3641 17.1004 45.437 18.0674 45.437 19.2634C45.437 19.5561 45.4248 19.8487 45.4127 20.1032C45.3933 20.2938 45.3974 20.4862 45.4248 20.6757C45.4475 20.7865 45.4931 20.8907 45.5584 20.9811C45.6069 21.0574 45.6676 21.0956 45.6676 21.1465" fill="#CAFBFF"/>
<path d="M44.575 25.3325C44.5628 25.218 44.9877 25.1289 45.5704 24.8236C45.9124 24.6439 46.2376 24.4309 46.5415 24.1874C46.911 23.887 47.2524 23.5504 47.5612 23.1822C47.8767 22.8093 48.1725 22.4185 48.4474 22.0117C48.5618 21.8491 48.6595 21.6742 48.7387 21.49C48.7693 21.4161 48.7937 21.3394 48.8115 21.261V21.1465C48.8136 21.1126 48.8136 21.0786 48.8115 21.0447C48.8079 20.9209 48.7789 20.7994 48.7266 20.6884C48.6883 20.5985 48.6349 20.5166 48.5687 20.4467C48.4595 20.3322 48.3502 20.294 48.3502 20.2431C48.3502 20.1922 48.4716 20.1159 48.7023 20.1922C48.8598 20.2559 48.9993 20.3606 49.1076 20.4964C49.2159 20.6321 49.2895 20.7946 49.3214 20.9683C49.3336 21.027 49.3417 21.0866 49.3457 21.1465C49.3487 21.2058 49.3487 21.2653 49.3457 21.3246C49.3374 21.4453 49.317 21.5647 49.285 21.6809C49.2168 21.9222 49.1189 22.1532 48.9936 22.3679C48.7297 22.8296 48.4249 23.2641 48.0832 23.6657C47.7381 24.0756 47.342 24.4351 46.9057 24.7345C46.5455 24.98 46.1529 25.1686 45.7403 25.2944C45.465 25.3824 45.1784 25.4253 44.8906 25.4216C44.6842 25.4089 44.575 25.3707 44.575 25.3198" fill="#CAFBFF"/>
<path d="M57.3818 12.7999C57.1876 12.7999 57.0419 11.1458 57.0541 9.12277C57.0733 8.67601 57.0489 8.22836 56.9813 7.7868C56.9512 7.61442 56.8981 7.44736 56.8234 7.29058C56.757 7.15845 56.6709 7.0382 56.5685 6.93432C56.4167 6.77646 56.2285 6.6625 56.0222 6.60351C55.8766 6.56534 55.7673 6.55262 55.7552 6.50172C55.743 6.45083 55.8159 6.36176 56.0222 6.31087C56.32 6.26096 56.6245 6.33393 56.872 6.51445C57.0477 6.63117 57.2002 6.78239 57.3212 6.95977C57.4577 7.16045 57.5604 7.38425 57.6246 7.62139C57.7582 8.10489 57.7703 8.62655 57.7703 9.13549C57.7582 11.1713 57.5882 12.8126 57.394 12.8126" fill="#CAFBFF"/>
<path d="M57.2971 16.5406C57.1029 16.5152 57.0057 15.9171 57.03 15.2046C57.0543 14.4921 57.2121 13.8941 57.4063 13.8941C57.6006 13.8941 57.7705 14.4921 57.7341 15.2301C57.6977 15.968 57.4913 16.5533 57.2971 16.5406Z" fill="#CAFBFF"/>
<path d="M57.1026 24.76C57.0661 24.7218 57.1268 24.62 57.2361 24.4673C57.3852 24.2763 57.5116 24.0669 57.6124 23.8439C57.6666 23.7115 57.6915 23.5679 57.6852 23.424C57.6699 23.2732 57.6105 23.131 57.5153 23.0168C57.358 22.8196 57.2197 22.6065 57.1026 22.3807C56.9967 22.1053 56.9392 21.8122 56.9326 21.5155C56.8553 20.6083 56.8757 19.695 56.9933 18.7926C57.0904 18.1056 57.2361 17.6857 57.3211 17.6984C57.406 17.7111 57.4667 19.4034 57.6367 21.4518C57.6391 21.6636 57.6718 21.8738 57.7338 22.0753C57.8311 22.2693 57.9406 22.4564 58.0616 22.6351C58.1339 22.7541 58.191 22.8824 58.2315 23.0168C58.2681 23.1533 58.2804 23.2956 58.2679 23.4367C58.2488 23.6689 58.1736 23.8922 58.0494 24.0856C57.9555 24.2304 57.8409 24.3591 57.7095 24.4673C57.6147 24.5451 57.5131 24.6132 57.406 24.6709C57.2361 24.76 57.1268 24.7854 57.1026 24.7472" fill="#CAFBFF"/>
<path d="M65.491 17.1513C65.4061 17.2022 65.2361 17.075 65.0904 16.7823C65.0088 16.6061 64.9555 16.4169 64.9326 16.2225C64.8718 15.7475 64.9613 15.2648 65.1876 14.8483C65.281 14.6808 65.3999 14.5304 65.5396 14.403C65.7824 14.1867 65.9888 14.1485 66.0373 14.2122C66.0859 14.2758 66.0252 14.4666 65.9281 14.7084C65.831 14.9501 65.831 14.9756 65.7703 15.1283C65.6597 15.4693 65.5943 15.8246 65.576 16.1843C65.5639 16.3497 65.5639 16.5024 65.5639 16.6424C65.5639 16.7823 65.5639 17.1004 65.4789 17.1513" fill="#CAFBFF"/>
<path d="M71.3782 18.2328C71.3904 18.1819 71.5239 18.1565 71.7181 18.0801C71.983 17.962 72.2074 17.7624 72.3615 17.5076C72.469 17.3411 72.5471 17.1558 72.5922 16.9605C72.6043 16.9096 72.6043 16.8587 72.6164 16.8078C72.6286 16.7569 72.6286 16.706 72.6286 16.6424C72.6263 16.5227 72.6141 16.4035 72.5922 16.2861C72.5072 15.8026 72.228 15.2937 71.8395 14.8229C71.4695 14.3774 71.0497 13.9801 70.5892 13.6396C70.2059 13.357 69.7997 13.1101 69.3753 12.9017C68.6469 12.5454 68.1492 12.4054 68.1613 12.3037C68.1735 12.2019 68.307 12.2273 68.5498 12.2273C68.892 12.2465 69.2305 12.3106 69.5574 12.4182C70.0477 12.5698 70.517 12.7879 70.9534 13.0671C71.4908 13.4161 71.9739 13.8495 72.3858 14.3521C72.8228 14.8865 73.1627 15.5354 73.2477 16.1971C73.2667 16.3574 73.2707 16.5194 73.2598 16.6806C73.2598 16.7569 73.2355 16.846 73.2355 16.9223C73.2191 16.9997 73.1989 17.0761 73.1749 17.1513C73.0899 17.4154 72.9535 17.658 72.7743 17.8638C72.6513 18.0145 72.5012 18.1382 72.3324 18.2278C72.1636 18.3173 71.9796 18.3709 71.791 18.3855H71.621L71.4996 18.3473C71.4389 18.3219 71.4025 18.2964 71.4147 18.271" fill="#CAFBFF"/>
<path d="M70.4073 24.4928C70.383 24.4546 70.5165 24.3147 70.7593 24.0984C71.1106 23.8121 71.4469 23.5063 71.7669 23.1823C71.9761 22.9644 72.1596 22.7209 72.3132 22.457C72.4808 22.1678 72.596 21.8486 72.6531 21.5155C72.6793 21.343 72.6834 21.1675 72.6652 20.9938C72.6581 20.8473 72.6208 20.704 72.5559 20.574H72.4952L72.3617 20.6249C72.1469 20.7086 71.9281 20.7808 71.7062 20.8412C71.2742 20.9493 70.8364 21.03 70.3952 21.0829L69.1812 21.2101C68.8013 21.2433 68.4193 21.2391 68.0401 21.1974C67.6962 21.1601 67.3602 21.0656 67.0447 20.9175C66.784 20.7913 66.5459 20.6191 66.3406 20.4086C66.1862 20.2502 66.0589 20.0651 65.9643 19.8614C65.8187 19.5179 65.8429 19.3143 65.8794 19.3016C65.9158 19.2889 66.0007 19.467 66.195 19.7088C66.4696 20.0444 66.8263 20.2951 67.2268 20.434C67.5018 20.5264 67.7879 20.5778 68.0766 20.5867C68.4212 20.5985 68.7663 20.5815 69.1084 20.5358L70.2859 20.3704C70.6865 20.3068 71.1114 20.2304 71.512 20.1286L72.1068 19.9378L72.2889 19.8742C72.3718 19.8493 72.4576 19.8365 72.5438 19.836C72.6475 19.836 72.7497 19.8613 72.8424 19.9099C72.9351 19.9585 73.0157 20.029 73.0779 20.1159C73.1676 20.2447 73.2298 20.3922 73.26 20.5485C73.2849 20.6701 73.3011 20.7934 73.3086 20.9175C73.3243 21.1562 73.3079 21.3961 73.26 21.63C73.0821 22.393 72.6628 23.0702 72.0704 23.5513C71.7018 23.8608 71.2981 24.1215 70.8686 24.3274C70.5651 24.4674 70.3952 24.5182 70.3709 24.4801" fill="#CAFBFF"/>
<path d="M85.8483 21.9862C85.8119 22.0244 85.6905 21.9735 85.557 21.7954C85.3768 21.5397 85.2562 21.2434 85.2049 20.9302C85.1685 20.7393 85.1321 20.5358 85.1078 20.3322C85.0835 20.1286 85.0471 19.8869 85.035 19.6451C84.9864 19.1616 84.9621 18.6272 84.9743 18.0547C84.9711 17.0898 85.0564 16.1269 85.2292 15.1791C85.2582 14.9999 85.3071 14.8248 85.3749 14.6575C85.4299 14.5215 85.5128 14.3998 85.6177 14.3012C85.6857 14.2382 85.7704 14.1983 85.8605 14.1867C85.9212 14.1867 85.9576 14.1994 85.9697 14.2249C85.9819 14.2503 85.8969 14.3394 85.824 14.4921C85.7431 14.7327 85.7101 14.9882 85.7269 15.2428C85.7148 15.968 85.6784 16.9604 85.6784 18.0547C85.6784 18.6018 85.6784 19.1234 85.6905 19.6069L85.7148 20.8666C85.7176 21.1326 85.7502 21.3974 85.8119 21.6554C85.8605 21.8336 85.8969 21.9481 85.8605 21.9862" fill="#CAFBFF"/>
<path d="M93.9818 24.4673C93.9333 24.4291 94.079 24.2128 94.1518 23.7548C94.1899 23.4808 94.194 23.2028 94.1639 22.9278C94.1226 22.5556 94.0618 22.186 93.9818 21.8208C93.8812 21.3547 93.8042 20.8832 93.7512 20.4085C93.6905 19.8996 93.6662 19.3525 93.642 18.7799C93.6177 17.6348 93.6177 16.3879 93.6541 15.0646C93.6905 13.7414 93.7512 12.4945 93.8362 11.3621C93.8726 10.7895 93.9212 10.2551 93.9697 9.7462C94.0242 9.29443 94.0566 8.84003 94.0668 8.38478C94.0747 8.03176 94.0127 7.68085 93.8847 7.35418C93.7817 7.10993 93.6283 6.89266 93.4356 6.718C93.1078 6.43808 92.8408 6.42536 92.8529 6.36174C92.8651 6.29812 92.9136 6.31085 93.0471 6.31085C93.2396 6.31679 93.4275 6.37369 93.5934 6.47626C93.8592 6.6399 94.0806 6.87203 94.2368 7.1506C94.4345 7.51738 94.5507 7.92621 94.5766 8.34661C94.6022 8.82564 94.5981 9.30589 94.5645 9.78437L94.4917 11.3875C94.4431 12.5199 94.4067 13.7668 94.3703 15.0646C94.3339 16.3624 94.3096 17.6221 94.3096 18.7417C94.3096 19.3016 94.3217 19.836 94.346 20.3322C94.3703 20.8284 94.431 21.2737 94.4795 21.7063C94.5357 22.098 94.5641 22.4935 94.5645 22.8896C94.5678 23.2005 94.5227 23.51 94.431 23.8057C94.3718 23.9907 94.2813 24.1631 94.1639 24.3146C94.079 24.4164 94.0183 24.4546 94.0061 24.4419" fill="#CAFBFF"/>
<path d="M86.5648 23.8184C86.7105 23.9457 86.5526 24.4037 86.152 24.76C85.7514 25.1162 85.3023 25.2053 85.193 25.0399C85.0838 24.8745 85.3387 24.5182 85.6908 24.2001C86.0428 23.882 86.407 23.6912 86.5648 23.8184Z" fill="#CAFBFF"/>
<path d="M103.669 14.4921C103.572 14.4539 103.572 14.2376 103.511 13.9577C103.462 13.6076 103.321 13.2786 103.105 13.007C102.888 12.7353 102.605 12.5316 102.285 12.4182C102.03 12.3164 101.836 12.2655 101.811 12.1637C101.787 12.0619 101.848 12.0619 101.933 11.9983C102.065 11.9302 102.21 11.8953 102.358 11.8965C102.574 11.892 102.789 11.9353 102.989 12.0237C103.242 12.1325 103.465 12.304 103.641 12.5234C103.816 12.7428 103.938 13.0036 103.996 13.2834C104.046 13.5048 104.05 13.7345 104.009 13.9577C103.983 14.1095 103.925 14.2531 103.839 14.3776C103.778 14.4667 103.705 14.4921 103.669 14.4794" fill="#CAFBFF"/>
<path d="M103.814 25.2308C103.79 25.1799 103.863 25.1035 103.936 24.9508C104.027 24.7397 104.06 24.5064 104.033 24.2765C104.017 24.1191 103.981 23.9649 103.923 23.8184C103.863 23.653 103.766 23.4622 103.669 23.2713C103.551 23.0463 103.449 22.8124 103.365 22.5715C103.274 22.2927 103.225 22.0009 103.219 21.7063C103.207 21.4137 103.232 21.1465 103.244 20.9048C103.256 20.663 103.28 20.4085 103.292 20.1795C103.329 19.7215 103.377 19.3016 103.426 18.9581C103.523 18.271 103.62 17.8384 103.729 17.8384C103.839 17.8384 103.899 18.2837 103.936 18.9708C103.948 19.3143 103.96 19.7342 103.96 20.1922C103.96 20.4213 103.96 20.663 103.948 20.9175C103.936 21.172 103.936 21.4264 103.936 21.6682C103.939 21.8923 103.972 22.1149 104.033 22.3298C104.099 22.5459 104.176 22.7583 104.263 22.966C104.351 23.1765 104.424 23.3934 104.482 23.6149C104.539 23.8299 104.56 24.0539 104.543 24.2765C104.536 24.4405 104.498 24.6016 104.432 24.7501C104.365 24.8987 104.271 25.0318 104.154 25.1417C103.972 25.2816 103.839 25.2816 103.826 25.2308" fill="#CAFBFF"/>
<path d="M108.876 19.4543C108.791 19.3779 109.095 18.9708 109.35 18.2328C109.605 17.4949 109.787 16.4261 109.702 15.2173C109.674 14.6652 109.568 14.1205 109.386 13.6015C109.241 13.1958 109.003 12.8334 108.694 12.5454C108.48 12.3472 108.233 12.192 107.966 12.0874C107.772 12.011 107.65 11.9728 107.65 11.9219C107.65 11.8711 107.772 11.8074 108.014 11.8074C108.36 11.8146 108.697 11.9249 108.985 12.1255C109.422 12.4192 109.767 12.839 109.981 13.3343C110.229 13.9123 110.373 14.5335 110.406 15.1664C110.432 15.488 110.436 15.8112 110.418 16.1334C110.403 16.4328 110.367 16.7305 110.309 17.0241C110.216 17.5279 110.048 18.0132 109.811 18.4618C109.653 18.7663 109.447 19.0414 109.204 19.2761C109.034 19.4416 108.913 19.4924 108.876 19.4543Z" fill="#CAFBFF"/>
<path d="M117.216 14.2249C117.313 14.2249 117.398 14.4285 117.386 14.772C117.38 14.971 117.347 15.1681 117.289 15.3573C117.139 15.8227 116.865 16.2333 116.5 16.5406C116.352 16.6661 116.189 16.7689 116.014 16.846C115.71 16.9732 115.504 16.9605 115.468 16.8714C115.431 16.7823 115.553 16.6169 115.747 16.4134L116.062 16.0444C116.172 15.9044 116.293 15.7517 116.402 15.5863C116.512 15.4209 116.609 15.2428 116.694 15.0901L116.912 14.6575C117.034 14.403 117.131 14.2249 117.228 14.2249" fill="#CAFBFF"/>
<path d="M126.077 21.5155C126.053 21.5536 125.871 21.4646 125.64 21.2101C125.326 20.8336 125.101 20.3845 124.985 19.8996C124.897 19.5748 124.836 19.2428 124.803 18.9071C124.766 18.5509 124.754 18.1692 124.754 17.7748C124.742 16.9986 124.754 16.1461 124.536 15.3573C124.318 14.614 123.891 13.9574 123.31 13.4742C122.829 13.0752 122.275 12.7849 121.683 12.6217C121.265 12.5078 120.839 12.4353 120.408 12.4054C120.105 12.38 119.923 12.3673 119.911 12.3036C119.898 12.24 120.068 12.1764 120.396 12.1128C120.854 12.0331 121.322 12.0331 121.78 12.1128C122.483 12.224 123.149 12.5121 123.722 12.9525C124.064 13.2131 124.367 13.5262 124.621 13.8814C124.894 14.2687 125.099 14.7038 125.227 15.1664C125.346 15.6187 125.411 16.0844 125.422 16.5533C125.434 16.9986 125.422 17.4058 125.41 17.8002C125.397 18.1946 125.385 18.5509 125.397 18.8817C125.406 19.1887 125.435 19.4948 125.482 19.7978C125.546 20.2328 125.678 20.654 125.871 21.0447C126.017 21.3246 126.114 21.4773 126.077 21.5155Z" fill="#CAFBFF"/>
<path d="M126.417 22.737C126.334 22.7054 126.259 22.653 126.199 22.5843C126.173 22.5629 126.153 22.5349 126.14 22.503C126.127 22.4711 126.122 22.4363 126.126 22.4019C126.13 22.3675 126.142 22.3347 126.161 22.3065C126.18 22.2783 126.205 22.2557 126.235 22.2407C126.306 22.1822 126.389 22.1428 126.478 22.1262C126.524 22.1184 126.571 22.1218 126.616 22.1362C126.66 22.1505 126.701 22.1754 126.735 22.209C126.769 22.2425 126.795 22.2838 126.811 22.3296C126.827 22.3755 126.833 22.4246 126.828 22.4732C126.824 22.5218 126.808 22.5686 126.783 22.6099C126.758 22.6512 126.725 22.686 126.685 22.7115C126.645 22.737 126.6 22.7526 126.554 22.757C126.508 22.7614 126.461 22.7546 126.417 22.737Z" fill="#CAFBFF"/>
<path d="M123.552 25.358C123.54 25.2562 123.698 25.1417 123.953 24.989C124.208 24.8363 124.536 24.6455 124.876 24.4037C125.216 24.162 125.507 23.8948 125.725 23.7039C125.944 23.5131 126.114 23.3986 126.199 23.4495C126.284 23.5004 126.272 23.7167 126.114 24.0348C126.025 24.2139 125.915 24.3806 125.786 24.531C125.476 24.9001 125.084 25.184 124.645 25.358C124.465 25.4288 124.278 25.4759 124.087 25.498C123.759 25.5361 123.552 25.4725 123.54 25.3707" fill="#CAFBFF"/>
<path d="M117.228 23.0932C117.155 23.1568 116.961 23.0423 116.754 22.7497C116.501 22.3634 116.362 21.9077 116.354 21.4391C116.349 21.1809 116.381 20.9234 116.451 20.6757C116.48 20.5671 116.517 20.4608 116.56 20.3576C116.605 20.2568 116.662 20.1627 116.73 20.0777C116.831 19.9394 116.979 19.848 117.143 19.8232C117.264 19.8232 117.325 19.8741 117.325 19.925C117.325 19.9759 117.276 20.0268 117.252 20.0904C117.21 20.1708 117.177 20.2563 117.155 20.3449C117.139 20.4119 117.127 20.4799 117.119 20.5485C117.107 20.6248 117.094 20.7266 117.082 20.8157C117.061 21.0185 117.053 21.2225 117.058 21.4264C117.073 21.7994 117.122 22.17 117.204 22.5334C117.264 22.826 117.313 23.0296 117.228 23.0932Z" fill="#CAFBFF"/>
<path d="M135 18.9071C134.915 18.9453 134.611 18.5127 134.308 17.6984C134.235 17.4948 134.162 17.2658 134.089 17.024C134.007 16.7435 133.962 16.4523 133.956 16.1588C133.955 15.9821 133.979 15.8062 134.028 15.6372C134.078 15.474 134.143 15.3163 134.223 15.1664C134.368 14.8865 134.514 14.6448 134.563 14.4157C134.613 14.1749 134.6 13.9244 134.526 13.6905C134.459 13.4704 134.338 13.2729 134.174 13.1179C133.859 12.8126 133.397 12.6726 133.033 12.5454C132.293 12.3163 131.795 12.2782 131.783 12.1637C131.771 12.0492 131.904 12.0619 132.135 12.0237C132.466 11.9803 132.801 11.9846 133.13 12.0364C133.36 12.0681 133.588 12.1191 133.81 12.1891C134.087 12.2746 134.346 12.4126 134.575 12.5963C134.849 12.8307 135.056 13.1405 135.171 13.4911C135.287 13.8417 135.308 14.2191 135.23 14.5811C135.189 14.7678 135.124 14.9476 135.036 15.1155C134.951 15.2682 134.878 15.4082 134.805 15.5227C134.743 15.632 134.69 15.747 134.648 15.8662C134.613 15.9686 134.592 16.0758 134.587 16.1843C134.581 16.4192 134.602 16.6541 134.648 16.8841C134.684 17.1258 134.733 17.3421 134.769 17.5457C134.939 18.3473 135.072 18.8562 134.987 18.9071" fill="#CAFBFF"/>
<path d="M144.48 18.2201C144.444 18.2456 144.335 18.1565 144.177 17.9529C143.965 17.666 143.786 17.3543 143.643 17.0241C143.537 16.7878 143.456 16.5405 143.4 16.2861C143.334 15.9771 143.322 15.6582 143.364 15.3446C143.388 15.1753 143.429 15.0091 143.485 14.8484L143.643 14.4158C143.69 14.2977 143.723 14.1737 143.74 14.0468C143.751 13.9392 143.739 13.8304 143.703 13.7287C143.604 13.496 143.444 13.2975 143.242 13.1562C143.028 13.0016 142.795 12.8775 142.55 12.7872C142.113 12.615 141.656 12.5038 141.191 12.4564C140.389 12.38 139.867 12.4818 139.843 12.3673C139.819 12.2528 139.94 12.2273 140.171 12.1383C140.499 12.0133 140.842 11.9404 141.191 11.922C141.716 11.895 142.242 11.9639 142.744 12.1255C143.054 12.2192 143.349 12.3607 143.619 12.5454C143.77 12.6507 143.908 12.7746 144.031 12.9144C144.167 13.0705 144.274 13.2517 144.347 13.4488C144.426 13.6589 144.455 13.8859 144.432 14.1104C144.408 14.3032 144.359 14.4916 144.286 14.6702L144.104 15.1028C144.057 15.2219 144.02 15.3455 143.995 15.4718C143.898 15.9553 143.983 16.4388 144.092 16.846C144.201 17.2531 144.335 17.5839 144.408 17.813C144.48 18.042 144.505 18.1947 144.468 18.2201" fill="#CAFBFF"/>
<path d="M146.933 22.2535C146.848 22.2026 147.09 21.5028 147.552 20.3958C147.782 19.8487 148.074 19.1998 148.389 18.4746C148.559 18.1183 148.717 17.7366 148.923 17.3422C149.137 16.9278 149.393 16.5394 149.688 16.1843C149.992 15.8281 150.283 15.5227 150.502 15.2046C150.707 14.9306 150.83 14.5982 150.854 14.2504C150.862 13.9339 150.786 13.6213 150.635 13.347C150.5 13.1025 150.313 12.8936 150.089 12.7363C149.739 12.5031 149.338 12.3673 148.923 12.3418C148.62 12.3164 148.438 12.3291 148.426 12.2782C148.414 12.2273 148.571 12.1255 148.911 12.0492C149.119 12.0091 149.332 12.0005 149.543 12.0237C149.826 12.0554 150.102 12.1417 150.356 12.2782C150.7 12.4684 150.99 12.7515 151.194 13.0982C151.399 13.4449 151.512 13.8427 151.521 14.2504C151.525 14.4927 151.488 14.7338 151.412 14.9629C151.334 15.1927 151.228 15.4108 151.096 15.6118C150.834 15.9817 150.55 16.3344 150.247 16.6678C149.7 17.304 149.36 18.0801 148.996 18.7799C148.632 19.4797 148.304 20.1032 148.013 20.6248C147.442 21.6682 147.042 22.2916 146.957 22.2407" fill="#CAFBFF"/>
<path d="M137.792 22.5588C137.877 22.597 137.901 22.8133 137.84 23.1441C137.761 23.5843 137.591 24.001 137.343 24.3656C137.082 24.7581 136.7 25.0454 136.262 25.1799C136.128 25.2201 135.987 25.2288 135.849 25.2053C135.752 25.1799 135.692 25.1417 135.692 25.0908C135.692 25.0399 135.849 24.8872 136.068 24.7091C136.34 24.4868 136.581 24.2255 136.784 23.933C137.027 23.5767 137.221 23.2077 137.391 22.9533C137.561 22.6988 137.707 22.5334 137.804 22.5716" fill="#CAFBFF"/>
<path d="M159.594 23.9075C159.57 23.9202 159.521 23.8693 159.448 23.7803C159.342 23.6367 159.249 23.4834 159.169 23.3222C158.889 22.7241 158.696 22.0849 158.598 21.4264C158.461 20.4622 158.404 19.4873 158.428 18.5127C158.428 17.4312 158.453 16.2352 158.477 14.9883C158.526 12.4818 158.623 10.217 158.72 8.58839C158.755 8.24795 158.735 7.90365 158.659 7.5705C158.598 7.3376 158.466 7.13205 158.283 6.98522C158.166 6.88778 158.029 6.8222 157.882 6.79437C157.773 6.78165 157.712 6.78165 157.7 6.7562C157.688 6.73075 157.749 6.67986 157.87 6.65441C158.06 6.61544 158.258 6.64692 158.428 6.74347C158.55 6.80852 158.661 6.89453 158.756 6.99794C158.87 7.12339 158.961 7.27013 159.023 7.43055C159.159 7.80399 159.225 8.20145 159.217 8.60111C159.242 10.2424 159.242 12.5072 159.181 15.0138C159.157 16.2607 159.12 17.4567 159.084 18.5382C159.034 19.4835 159.042 20.4313 159.108 21.3755C159.158 22.0047 159.268 22.627 159.436 23.2332L159.582 23.7294C159.618 23.8439 159.618 23.9202 159.594 23.933" fill="#CAFBFF"/>
<path d="M168.54 13.6905C168.443 13.7287 168.322 13.6142 168.188 13.4615C168.036 13.2663 167.874 13.0794 167.703 12.9017C167.539 12.7516 167.355 12.6273 167.156 12.5327C166.999 12.4563 166.865 12.4055 166.829 12.3037C166.824 12.2717 166.829 12.2389 166.841 12.2095C166.854 12.1801 166.875 12.1553 166.902 12.1383C166.989 12.067 167.095 12.0229 167.205 12.011C167.381 11.9915 167.559 12.012 167.726 12.0713C167.894 12.1306 168.048 12.2272 168.176 12.3546C168.424 12.5883 168.59 12.9016 168.65 13.2452C168.686 13.4997 168.637 13.6651 168.552 13.6905" fill="#CAFBFF"/>
<path d="M167.958 10.077C167.909 9.97525 168.091 9.80984 168.189 9.47903C168.251 9.29095 168.279 9.09263 168.274 8.89375C168.267 8.66229 168.209 8.43564 168.104 8.23213C167.873 7.79953 167.46 7.51961 167.132 7.34148C166.805 7.16335 166.574 7.07429 166.574 6.9725C166.574 6.87071 166.841 6.76892 167.278 6.84526C167.54 6.88728 167.791 6.98235 168.019 7.12518C168.312 7.30638 168.555 7.56527 168.723 7.87587C168.889 8.19878 168.957 8.56737 168.917 8.93192C168.888 9.22315 168.783 9.50037 168.613 9.7335C168.503 9.88999 168.351 10.0093 168.176 10.077C168.055 10.1152 167.97 10.1025 167.946 10.0643" fill="#CAFBFF"/>
<path d="M168.285 24.5437C168.261 24.4928 168.383 24.4037 168.468 24.2129C168.578 23.9228 168.578 23.5996 168.468 23.3095C168.383 23.0872 168.286 22.8705 168.176 22.6606C168.116 22.5334 168.055 22.4061 168.006 22.2534C167.95 22.1003 167.906 21.9429 167.873 21.7827C167.809 21.455 167.765 21.1236 167.739 20.7902C167.703 20.4594 167.691 20.1032 167.666 19.7469C167.61 18.5264 167.671 17.303 167.848 16.0953C167.994 15.1664 168.176 14.6193 168.261 14.6321C168.346 14.6448 168.237 16.935 168.37 19.7215C168.383 20.065 168.407 20.4085 168.419 20.7393C168.431 21.0702 168.455 21.3882 168.504 21.6554C168.524 21.7888 168.552 21.9206 168.589 22.0499C168.625 22.1771 168.674 22.3043 168.71 22.4316C168.808 22.6786 168.885 22.934 168.941 23.195C169.05 23.7294 168.88 24.1874 168.674 24.4037C168.599 24.4893 168.502 24.551 168.395 24.5819C168.322 24.5946 168.273 24.5946 168.273 24.5691" fill="#CAFBFF"/>
<path d="M177.378 14.1995C177.281 14.1867 177.22 14.0086 177.123 13.805L177.038 13.6396L176.941 13.4615C176.781 13.1984 176.575 12.9695 176.334 12.7871L176.164 12.6726L176.006 12.5836C175.812 12.4691 175.654 12.4054 175.642 12.3037C175.63 12.2019 175.678 12.2019 175.751 12.151L175.897 12.0873C175.964 12.0695 176.034 12.061 176.103 12.0619L176.358 12.0873C176.454 12.1069 176.547 12.1368 176.637 12.1764C176.84 12.2698 177.022 12.4045 177.174 12.5727C177.327 12.7409 177.445 12.9393 177.523 13.1561C177.557 13.2508 177.581 13.3489 177.596 13.4488C177.611 13.537 177.615 13.6267 177.608 13.716C177.605 13.7894 177.593 13.8621 177.572 13.9323C177.56 13.9865 177.54 14.0382 177.511 14.0849C177.463 14.1613 177.414 14.1995 177.366 14.1867" fill="#CAFBFF"/>
<path d="M176.819 24.9127C176.807 24.8618 176.904 24.7982 177.013 24.6455C177.16 24.4385 177.245 24.1905 177.256 23.933C177.265 23.746 177.257 23.5585 177.232 23.3731C177.208 23.1696 177.171 22.9151 177.135 22.6733C177.074 22.1644 177.026 21.6046 177.001 21.0193C176.977 20.434 176.977 19.8742 177.001 19.3525C177.016 18.8898 177.073 18.4297 177.171 17.9784C177.237 17.6678 177.343 17.3682 177.487 17.0877C177.596 16.8969 177.681 16.8078 177.73 16.8205C177.778 16.8333 177.705 17.3168 177.669 18.0547C177.645 18.4237 177.645 18.8563 177.657 19.3525C177.669 19.8487 177.693 20.3958 177.717 20.9811L177.79 22.6097C177.802 22.8642 177.815 23.0932 177.815 23.335C177.822 23.5658 177.802 23.7966 177.754 24.022C177.721 24.1964 177.654 24.3619 177.558 24.5084C177.462 24.655 177.339 24.7795 177.196 24.8745C176.977 25.0017 176.843 24.9636 176.831 24.9254" fill="#CAFBFF"/>
<path d="M185.657 25.1799C185.644 25.1544 185.693 25.1163 185.766 25.0526C185.871 24.9623 185.961 24.8549 186.033 24.7346C186.143 24.5527 186.218 24.3493 186.251 24.1365C186.294 23.8485 186.282 23.5543 186.215 23.2714C186.154 22.9405 186.033 22.5843 185.924 22.1771C185.803 21.725 185.733 21.2595 185.717 20.7903C185.681 19.7978 185.839 18.7545 185.948 17.6984C186.004 17.1917 186.02 16.6811 185.997 16.1716C185.973 15.7127 185.892 15.2591 185.754 14.8229C185.527 14.0932 185.045 13.48 184.406 13.1053C183.95 12.8476 183.47 12.6387 182.974 12.4818C182.61 12.3546 182.415 12.2782 182.428 12.2273C182.44 12.1764 182.646 12.1637 183.035 12.2019C183.588 12.2593 184.129 12.4096 184.637 12.6472C185.216 12.9222 185.706 13.3689 186.045 13.9323C186.17 14.1463 186.276 14.372 186.361 14.6066C186.713 15.5609 186.761 16.6806 186.652 17.7875C186.543 18.8945 186.373 19.8869 186.373 20.7903C186.37 21.2135 186.41 21.6359 186.494 22.0499C186.579 22.4443 186.676 22.8387 186.713 23.2205C186.732 23.4021 186.737 23.5852 186.725 23.7676C186.715 23.9359 186.687 24.1025 186.64 24.2638C186.565 24.5224 186.432 24.7582 186.251 24.9509C186.138 25.0723 185.995 25.1601 185.839 25.2053C185.729 25.2308 185.669 25.218 185.669 25.2053" fill="#CAFBFF"/>
<path d="M195.696 19.5306C195.684 19.5688 195.574 19.6069 195.429 19.5179C195.236 19.3967 195.08 19.2201 194.98 19.0089C194.907 18.8817 194.858 18.7545 194.785 18.6272L194.591 18.1946C194.458 17.8893 194.324 17.533 194.19 17.1767C194.057 16.8205 193.936 16.4642 193.838 16.1207C193.744 15.8117 193.691 15.4906 193.681 15.1664C193.674 14.9392 193.716 14.7134 193.802 14.5048C193.863 14.3521 193.936 14.3012 193.984 14.3139C194.033 14.3267 194.057 14.6575 194.178 15.1028C194.252 15.3713 194.341 15.6348 194.445 15.8917C194.567 16.197 194.712 16.5406 194.834 16.9095C194.955 17.2785 195.089 17.6348 195.186 17.9529L195.319 18.4109L195.417 18.8053C195.454 18.9773 195.511 19.1439 195.586 19.3016C195.647 19.4161 195.696 19.4797 195.671 19.5306" fill="#CAFBFF"/>
<path d="M198.488 20.294C198.476 20.2432 198.622 20.1414 198.889 20.0014C199.156 19.8614 199.568 19.6579 200.03 19.3907C200.56 19.0948 201.027 18.6877 201.401 18.1947C201.608 17.9188 201.76 17.6032 201.851 17.2658C201.892 17.0774 201.92 16.886 201.936 16.6933C201.956 16.445 202.009 16.2009 202.093 15.968C202.189 15.7409 202.311 15.5272 202.458 15.3319L202.797 14.8357C203.002 14.5233 203.184 14.1959 203.344 13.8559C203.616 13.2886 203.777 12.67 203.817 12.0365C203.817 11.9092 203.829 11.7693 203.817 11.6548C203.812 11.5514 203.795 11.449 203.769 11.3494C203.749 11.2677 203.716 11.1901 203.671 11.1204C203.637 11.0646 203.591 11.0169 203.538 10.9804C203.319 10.8405 203.162 10.9423 203.137 10.8914C203.113 10.8405 203.137 10.815 203.222 10.7641C203.286 10.7247 203.356 10.6998 203.43 10.691C203.503 10.6822 203.577 10.6898 203.647 10.7132C203.751 10.7447 203.847 10.8013 203.926 10.8786C204.019 10.9684 204.093 11.0765 204.145 11.1967C204.202 11.3264 204.243 11.4632 204.266 11.6039C204.29 11.747 204.306 11.8914 204.315 12.0365C204.342 12.7584 204.209 13.4771 203.926 14.1359C203.771 14.5208 203.584 14.8912 203.368 15.2428L203.016 15.7772C202.905 15.9264 202.812 16.0887 202.737 16.2607C202.678 16.4331 202.642 16.6127 202.627 16.7951C202.608 17.0225 202.571 17.248 202.518 17.4694C202.396 17.8999 202.19 18.2986 201.911 18.64C201.46 19.1891 200.89 19.6167 200.248 19.8869C199.837 20.0698 199.41 20.2105 198.974 20.3068C198.67 20.3704 198.488 20.3831 198.476 20.3322" fill="#CAFBFF"/>
<path d="M198.451 12.609C198.439 12.8126 198.039 12.9525 197.553 12.9144C197.067 12.8762 196.691 12.6853 196.703 12.4818C196.715 12.2782 197.116 12.1382 197.602 12.1764C198.087 12.2146 198.463 12.4054 198.451 12.609Z" fill="#CAFBFF"/>
<path d="M193.984 23.2586C193.996 23.3604 193.851 23.4749 193.571 23.5513C193.409 23.5974 193.242 23.6188 193.074 23.6149C192.846 23.6107 192.623 23.5542 192.418 23.4495C192.214 23.3472 192.042 23.1841 191.926 22.9804C191.809 22.7768 191.753 22.5416 191.763 22.3044C191.768 22.1572 191.824 22.0172 191.92 21.9099C191.993 21.8463 192.054 21.8336 192.103 21.859C192.143 21.8996 192.169 21.9535 192.175 22.0117C192.196 22.095 192.225 22.176 192.26 22.2535C192.308 22.3553 192.37 22.4495 192.442 22.5334C192.525 22.632 192.623 22.7139 192.734 22.7751C192.999 22.8906 193.276 22.9718 193.559 23.0169C193.802 23.0678 193.984 23.1441 193.984 23.2459" fill="#CAFBFF"/>
<path d="M200.005 29.4422C199.981 29.3913 200.114 29.2895 200.345 29.1368C200.576 28.9842 200.928 28.7679 201.316 28.488C201.779 28.1648 202.203 27.7846 202.579 27.3556C203.024 26.8482 203.348 26.2379 203.525 25.5743C203.608 25.2424 203.637 24.8983 203.61 24.5564C203.584 24.2394 203.506 23.9295 203.38 23.6403C203.174 23.1453 202.814 22.7374 202.36 22.4824C202.034 22.3161 201.679 22.2209 201.316 22.2025C201.049 22.1771 200.891 22.1771 200.879 22.1262C200.867 22.0753 201.001 21.9862 201.292 21.9099C201.467 21.87 201.647 21.8529 201.826 21.859C202.07 21.864 202.312 21.9113 202.542 21.999C203.156 22.2483 203.658 22.7295 203.95 23.3476C204.131 23.7039 204.246 24.0922 204.29 24.4928C204.332 24.9195 204.299 25.3507 204.193 25.7651C203.988 26.5463 203.59 27.2572 203.04 27.8263C202.604 28.274 202.105 28.6475 201.559 28.9333C201.202 29.1234 200.828 29.2768 200.442 29.3913C200.163 29.4677 200.005 29.4804 199.993 29.4422" fill="#CAFBFF"/>
<path d="M197.189 29.086C197.201 29.1878 196.861 29.3277 196.291 29.4677C195.53 29.6441 194.748 29.6999 193.972 29.6331C193.049 29.544 192.224 29.2132 191.726 28.8442C191.229 28.4752 191.022 28.1063 191.083 28.0426C191.144 27.979 191.459 28.1699 191.969 28.3862C192.629 28.6636 193.324 28.8352 194.033 28.8951C194.87 28.9715 195.647 28.9333 196.23 28.946C196.813 28.9587 197.177 28.9842 197.189 29.086Z" fill="#CAFBFF"/>
<path d="M216.648 24.6328C216.611 24.5946 216.733 24.4165 216.951 24.1111C217.248 23.687 217.501 23.2306 217.704 22.7497C217.837 22.4281 217.93 22.0904 217.983 21.7445C218.042 21.3597 218.03 20.9666 217.947 20.5867C217.853 20.1702 217.675 19.7797 217.425 19.4416C217.145 19.0691 216.814 18.7431 216.441 18.4746C215.665 17.902 214.791 17.5585 213.977 17.2404C213.164 16.9223 212.423 16.6042 211.841 16.2225L211.428 15.9426C211.301 15.8441 211.187 15.7286 211.088 15.5991C210.994 15.476 210.928 15.3326 210.894 15.1792C210.865 15.0489 210.869 14.9128 210.906 14.7847C210.928 14.6969 210.969 14.6155 211.025 14.547C211.082 14.4786 211.154 14.4249 211.234 14.3903C211.343 14.3521 211.404 14.3776 211.404 14.403C211.404 14.4285 211.355 14.4539 211.307 14.5176C211.243 14.5926 211.2 14.6845 211.183 14.7832C211.166 14.8819 211.175 14.9837 211.209 15.0774C211.25 15.1691 211.308 15.2514 211.379 15.3191C211.589 15.4978 211.822 15.6435 212.071 15.7517C212.763 16.0721 213.472 16.3483 214.196 16.5788C214.608 16.7187 215.045 16.8841 215.495 17.0877C215.969 17.2948 216.421 17.555 216.842 17.8638C217.274 18.1753 217.655 18.5577 217.971 18.9962C218.123 19.2151 218.253 19.4496 218.359 19.696C218.46 19.9322 218.533 20.1799 218.578 20.434C218.662 20.9016 218.653 21.3822 218.554 21.8463C218.467 22.238 218.328 22.615 218.141 22.966C217.883 23.4628 217.546 23.9102 217.146 24.2892C216.854 24.5564 216.672 24.6582 216.648 24.62" fill="#CAFBFF"/>
<path d="M218.311 15.8662C218.275 15.8281 218.311 15.739 218.323 15.6118C218.332 15.4237 218.316 15.2352 218.275 15.0519C218.19 14.543 218.032 13.8432 217.631 13.2325C217.294 12.7178 216.781 12.3582 216.199 12.2273C215.75 12.1255 215.434 12.2019 215.386 12.1001C215.337 11.9983 215.422 11.9728 215.568 11.8838C215.773 11.7679 216.002 11.7067 216.235 11.7056C216.585 11.6996 216.931 11.7826 217.243 11.9474C217.431 12.0418 217.606 12.1615 217.765 12.3036C217.931 12.4578 218.077 12.633 218.202 12.8253C218.437 13.1869 218.602 13.5932 218.687 14.0213C218.757 14.3597 218.782 14.7065 218.76 15.0519C218.762 15.3058 218.69 15.5542 218.554 15.7644C218.432 15.9171 218.323 15.9298 218.299 15.8917" fill="#CAFBFF"/>
<path d="M213.625 12.8126C213.565 12.9017 213.382 12.8762 213.14 12.8126L212.193 12.5327L211.246 12.2782C210.991 12.2019 210.821 12.1255 210.821 12.0237C210.821 11.9219 210.979 11.8074 211.258 11.7565C211.632 11.6947 212.013 11.7147 212.379 11.8155C212.745 11.9162 213.086 12.0955 213.382 12.3418C213.601 12.5454 213.686 12.7235 213.637 12.7999" fill="#CAFBFF"/>
<path d="M212.363 23.793C212.375 23.8948 211.999 24.0475 211.355 24.0983C210.978 24.1194 210.6 24.0981 210.227 24.0347C209.764 23.9604 209.311 23.828 208.879 23.6403C208.46 23.4485 208.058 23.2186 207.677 22.9532L206.779 22.3552C206.269 22.0244 205.917 21.8845 205.941 21.7827C205.966 21.6809 206.051 21.7063 206.245 21.7063C206.502 21.7226 206.756 21.7783 206.998 21.8717C207.344 22.0078 207.681 22.1693 208.005 22.3552C208.369 22.5461 208.746 22.7751 209.158 22.9405C209.871 23.2422 210.617 23.4474 211.38 23.5512C211.975 23.6403 212.363 23.6657 212.375 23.7675" fill="#CAFBFF"/>
</svg>
