<svg width="70" height="93" viewBox="0 0 70 93" fill="none" xmlns="http://www.w3.org/2000/svg">
<path d="M44.311 19C41.8287 25.1328 39.1557 26.1552 34.811 30.5C32.0137 33.2973 32.994 30.4905 34.811 31.5C36.5673 32.4757 40.0647 35.3243 41.0888 37C41.4221 37.5454 43.1594 42.5771 43.311 40C43.5015 36.7619 44.6678 35.308 46.811 33C48.4186 31.2687 54.8935 29.933 52.6999 29.0556C50.3321 28.1084 49.322 28.1293 47.311 26C46.2526 24.8793 46.311 21.4345 46.311 22" stroke="#FFC700" stroke-width="8" stroke-linecap="round" stroke-linejoin="round"/>
<path d="M43.3107 7C41.1561 18.0426 33.5057 25.0157 22.8663 28.0556C20.0126 28.8709 24.8861 30.589 25.8107 31C28.7773 32.3185 33.0662 35.2862 34.8107 38C37.5069 42.194 42.736 56.2385 41.3663 51.4444C40.2046 47.3784 48.6881 37.5301 52.0885 36.2222C54.8789 35.149 57.5126 33.4658 60.3107 32.2222C60.6008 32.0933 67.4605 30.3706 64.3107 30C51.5935 28.5039 47.3107 14.6298 47.3107 4" stroke="white" stroke-width="8" stroke-linecap="round" stroke-linejoin="round"/>
<path d="M29.3111 28C29.3111 35.4678 26.2833 43.9043 19.3111 47.7778C15.3559 49.9752 7.77134 53.7376 3.31115 54C-0.468376 54.2223 5.04831 57.7372 5.81115 58.5C8.95595 61.6448 12.6688 63.9513 14.8667 68C18.3265 74.3734 22.3111 83.0459 22.3111 90.3889C22.3111 91.1886 22.1757 88.7153 22.5334 88C23.5556 85.9555 25.2493 84.4891 26.0889 82.2222C27.7516 77.733 31.7961 73.1243 35.3667 70C38.9303 66.8818 42.7179 65.2908 47.0889 63.7778C48.0016 63.4619 53.9713 61.4029 52.7556 61.0556C46.3844 59.2352 42.391 54.0798 37.8111 49.5C32.0806 43.7694 30.3111 38.0932 30.3111 30" stroke="#FFC700" stroke-width="3" stroke-linecap="round" stroke-linejoin="round"/>
</svg>
