<svg width="45" height="36" viewBox="0 0 45 36" fill="none" xmlns="http://www.w3.org/2000/svg">
<path d="M39.5372 1.00007C25.8149 1.00007 4.90233 0.830593 1.35766 17.7579C0.972876 19.5954 0.861096 22.1856 1.2089 24.0542C1.46882 25.4505 3.25664 25.4428 3.83685 26.718C4.94239 29.1477 9.61278 28.5486 11.6711 29.7692C18.8946 34.0531 25.8053 35 34.1821 35C44.1925 35 43.9997 29.8561 43.9997 21.4872C43.9997 17.7928 43.4709 10.5898 38.1984 10.5898C32.8334 10.5898 27.4116 8.8462 22.0837 8.8462C18.5731 8.8462 16.332 9.01159 16.332 13.0114C16.332 14.1217 15.6157 20.6646 16.8278 21.0029C20.5186 22.0329 26.3141 19.858 27.9346 16.6923" stroke="#121212" stroke-width="2" stroke-linecap="round"/>
</svg>
