<svg width="25" height="25" viewBox="0 0 25 25" fill="none" xmlns="http://www.w3.org/2000/svg">
<g clip-path="url(#clip0_702_12847)">
<path d="M9.18188 16.5664H11.1819V8.56641H9.18188V16.5664ZM12.1819 2.56641C6.66188 2.56641 2.18188 7.04641 2.18188 12.5664C2.18188 18.0864 6.66188 22.5664 12.1819 22.5664C17.7019 22.5664 22.1819 18.0864 22.1819 12.5664C22.1819 7.04641 17.7019 2.56641 12.1819 2.56641ZM12.1819 20.5664C7.77188 20.5664 4.18188 16.9764 4.18188 12.5664C4.18188 8.15641 7.77188 4.56641 12.1819 4.56641C16.5919 4.56641 20.1819 8.15641 20.1819 12.5664C20.1819 16.9764 16.5919 20.5664 12.1819 20.5664ZM13.1819 16.5664H15.1819V8.56641H13.1819V16.5664Z" fill="#484649"/>
</g>
<defs>
<clipPath id="clip0_702_12847">
<path d="M0.181885 12.5664C0.181885 5.93899 5.55447 0.566406 12.1819 0.566406C18.8093 0.566406 24.1819 5.93899 24.1819 12.5664C24.1819 19.1938 18.8093 24.5664 12.1819 24.5664C5.55447 24.5664 0.181885 19.1938 0.181885 12.5664Z" fill="white"/>
</clipPath>
</defs>
</svg>
