<svg width="130" height="50" viewBox="0 0 130 50" fill="none" xmlns="http://www.w3.org/2000/svg">
<path d="M115.384 2.86049H107.073C106.094 1.72176 104.438 1.18588 102.816 2.19064C103.019 3.26239 86.9039 2.72652 86.3971 2.86049C85.5525 -1.35951 80.5524 -0.421733 78.728 2.86049H73.3225C72.0725 1.85572 70.5521 1.98969 69.2683 2.7935C68.9643 0.181119 65.721 -0.890621 63.7277 0.850964C59.6059 5.67382 56.464 0.181121 52.849 2.65953C52.8828 2.99445 49.5381 2.86049 49.3692 2.86049C48.0854 1.05192 45.4164 1.31985 43.8623 2.86049C43.6258 1.78874 42.7137 0.917948 41.2271 0.850964C38.3554 0.716996 35.8216 1.5208 33.558 2.86049C32.8823 1.78874 31.058 1.18589 29.8755 2.25763C30.1458 3.19541 16.463 2.86049 15.9563 2.92747C3.28705 2.65954 -0.192763 16.0563 1.49647 25.6351C0.955913 26.4389 1.8681 32.1325 1.49647 33.1373C0.753205 34.0081 0.854558 35.0798 1.73296 35.6827C3.55732 48.0747 19.2334 47.2709 29.1998 46.869C29.5715 51.6249 35.1459 50.4192 36.5987 46.869C36.4297 47.2039 74.9779 45.9312 72.6468 47.5388C71.9711 49.1465 74.6063 50.6201 75.7888 49.2804C76.8023 48.4096 77.2415 46.5341 78.8294 46.869C80.0456 48.2087 82.2754 48.5436 83.9646 46.869C96.1946 45.2614 130.452 53.5004 129.81 33.1373C129.945 22.2859 132.344 2.59255 115.384 2.86049ZM126.871 36.2185C126.432 35.9506 127.108 35.3477 127.175 34.9458C127.108 35.3477 127.006 35.7497 126.871 36.2185ZM8.2196 37.6922C8.28717 37.6252 8.35474 37.5582 8.42231 37.4912C8.38852 37.6252 8.38852 37.7592 8.35474 37.9601C8.32095 37.8262 8.25338 37.7592 8.2196 37.6922ZM30.7201 12.1713C30.7201 12.1713 30.7539 12.1043 30.7877 12.1043C30.7539 12.1713 30.7201 12.1713 30.7201 12.1713ZM21.9361 5.67381C21.6659 5.53985 21.3618 5.40588 21.0915 5.27192H22.4429C22.274 5.40588 22.1051 5.53985 21.9361 5.67381ZM25.0781 44.3236C25.3822 44.5915 24.3686 44.3906 24.3348 44.4576C24.5713 44.3906 24.8416 44.3236 25.0781 44.3236ZM91.0256 5.27192C88.3904 7.21445 87.1404 7.68334 85.3498 5.27192C85.3836 5.27192 91.0256 5.27192 91.0256 5.27192ZM126.533 26.5728C126.803 26.1709 127.074 25.769 127.31 25.3671C127.175 26.037 127.817 27.5106 126.533 26.5728ZM121.398 9.69286C121.161 9.22397 120.79 8.75508 120.384 8.42016C120.925 8.62112 121.364 9.09001 121.533 9.62588C121.499 9.55889 121.432 9.4919 121.398 9.69286ZM99.9447 14.5157C102.343 11.3005 107.04 9.09001 108.019 5.27192H109.776C106.465 8.2862 103.154 11.3675 99.9447 14.5157ZM50.1125 42.1801C50.2138 43.1179 50.8557 43.9217 51.6666 44.4576H47.9165C48.6597 43.6538 49.3692 42.9169 50.1125 42.1801ZM55.8896 44.1227C57.3762 41.3093 59.3695 44.2566 61.6668 44.3906H55.5856C55.6531 44.3236 55.7883 44.2566 55.8896 44.1227ZM92.377 44.3906C93.0189 44.1896 93.627 44.3236 94.3027 44.4576H92.2756C92.3094 44.3906 92.3432 44.3906 92.377 44.3906ZM123.357 8.15222C120.688 8.68809 118.155 6.47762 115.688 8.6881C116.128 7.4154 115.621 6.07572 114.675 5.20493C117.918 5.13794 121.094 6.20968 123.357 8.15222ZM95.35 7.54937C95.0122 6.47762 94.1676 5.60684 93.0865 5.27192H98.4244C97.3771 6.00874 96.3636 6.74556 95.35 7.54937ZM70.6873 11.3005C72.8833 9.42493 73.4914 4.87001 76.4645 5.20493C74.5387 7.28143 72.613 9.29096 70.6873 11.3005ZM58.1532 5.33889C58.1532 5.27191 58.187 5.27192 58.2546 5.27192C58.2208 5.27192 58.187 5.33889 58.1532 5.33889ZM48.4233 6.87953C48.9976 6.34366 49.2003 5.07096 50.1125 5.27192C49.5381 5.80779 48.9638 6.34366 48.4233 6.87953ZM3.99652 27.1757C7.44255 23.0897 11.1251 19.2716 15.1117 15.6544C11.3954 20.4103 7.71283 25.1662 3.99652 29.922V27.1757ZM68.0183 44.4576C71.363 40.5725 74.7414 36.6874 78.255 32.8693C75.4847 37.4243 73.5928 41.1084 68.0183 44.4576Z" fill="#89D6F0"/>
</svg>
