<svg width="720" height="721" viewBox="0 0 720 721" fill="none" xmlns="http://www.w3.org/2000/svg">
	<path d="M687.018 711H32.9759C20.2852 711 10 690.655 10 665.553V56.4473C10 31.3446 20.2852 11 32.9759 11H687.024C699.715 11 710 31.3446 710 56.4473V665.564C709.994 690.655 699.709 711 687.018 711Z" fill="white" />
	<path d="M715.336 44.1826V44.1526L715.335 44.1226C715.045 32.0403 714.328 23.2442 711.991 17.0462C710.796 13.8758 709.147 11.2915 706.852 9.2746C704.563 7.26298 701.773 5.93966 698.481 5.0737C692.032 3.37704 683.181 3.33331 671.344 3.65617C668.395 3.73662 665.245 3.84096 661.876 3.95253C651.575 4.29372 639.231 4.70253 624.35 4.70253C599.888 4.70253 538.261 4.9313 463.404 5.20918C295.764 5.83147 61.7726 6.70007 30.2531 5.79724C23.9664 5.61716 19.0301 8.84778 15.3165 14.4752C11.6747 19.9936 9.06431 27.9899 7.17316 37.9701C3.383 57.972 2.30737 86.9683 2.5271 122.824C2.71058 152.764 3.8005 187.633 5.00761 226.251C5.24779 233.935 5.49261 241.767 5.73585 249.739C7.20215 297.792 8.6127 350.941 8.6127 407.245C8.6127 420.048 7.97566 439.614 7.22057 462.804C7.08232 467.05 6.9401 471.418 6.79712 475.888C5.87426 504.739 4.92168 537.792 4.80662 569.727C4.69161 601.647 5.41271 632.521 7.84927 656.995C9.06701 669.227 10.7204 679.938 12.9384 688.415C15.1051 696.695 17.922 703.31 21.7878 706.95C22.4445 707.662 23.3373 708.116 24.0867 708.428C24.9631 708.793 26.0271 709.113 27.2209 709.404C29.6151 709.987 32.7931 710.51 36.6027 710.987C44.2373 711.942 54.6696 712.74 67.0095 713.409C91.7034 714.747 124.223 715.579 157.692 716.094C216.288 716.996 277.885 716.926 305.677 716.895C309.637 716.89 312.911 716.887 315.392 716.887C323.357 716.887 338.649 717.078 358.712 717.328C400.702 717.852 463.587 718.638 523.923 718.479C568.593 718.362 612.051 717.729 644.965 716.092C661.413 715.274 675.287 714.202 685.382 712.808C690.419 712.113 694.598 711.326 697.714 710.424C699.269 709.974 700.639 709.473 701.748 708.899C702.796 708.356 703.913 707.594 704.576 706.472C714.788 689.157 717.345 668.959 717.493 619.531C717.552 599.724 717.22 575.123 716.799 544.026C716.693 536.215 716.582 527.994 716.47 519.336C715.912 476.198 715.336 422.177 715.336 353.879V44.1826Z" stroke="#221856" stroke-width="5" />
</svg>
