<svg width="25" height="25" viewBox="0 0 25 25" fill="none" xmlns="http://www.w3.org/2000/svg">
<g clip-path="url(#clip0_702_13157)">
<path d="M12.1816 2.56641C6.66164 2.56641 2.18164 7.04641 2.18164 12.5664C2.18164 18.0864 6.66164 22.5664 12.1816 22.5664C17.7016 22.5664 22.1816 18.0864 22.1816 12.5664C22.1816 7.04641 17.7016 2.56641 12.1816 2.56641ZM12.1816 20.5664C7.77164 20.5664 4.18164 16.9764 4.18164 12.5664C4.18164 8.15641 7.77164 4.56641 12.1816 4.56641C16.5916 4.56641 20.1816 8.15641 20.1816 12.5664C20.1816 16.9764 16.5916 20.5664 12.1816 20.5664ZM9.68164 17.0664L16.6816 12.5664L9.68164 8.06641V17.0664Z" fill="#484649"/>
</g>
<defs>
<clipPath id="clip0_702_13157">
<path d="M0.181641 12.5664C0.181641 5.93899 5.55422 0.566406 12.1816 0.566406C18.8091 0.566406 24.1816 5.93899 24.1816 12.5664C24.1816 19.1938 18.8091 24.5664 12.1816 24.5664C5.55422 24.5664 0.181641 19.1938 0.181641 12.5664Z" fill="white"/>
</clipPath>
</defs>
</svg>
