<svg width="130" height="50" viewBox="0 0 130 50" fill="none" xmlns="http://www.w3.org/2000/svg">
<path d="M114.676 3.99258L114.692 3.99246C118.708 3.92948 121.463 5.03448 123.389 6.78732C125.337 8.55914 126.546 11.0905 127.268 14.0668C128.441 18.9051 128.269 24.6041 128.122 29.5017C128.086 30.6887 128.052 31.8286 128.038 32.8978C128.038 32.9032 128.038 32.9087 128.038 32.9141C128.038 32.9234 128.038 32.9328 128.039 32.9421C128.187 37.6247 126.347 40.5528 123.353 42.4514C120.271 44.4055 115.894 45.3109 110.955 45.647C106.037 45.9817 100.71 45.7455 95.8006 45.5196L95.5068 45.5061C90.7608 45.2875 86.3568 45.0846 83.2674 45.4877C83.0514 45.5158 82.8506 45.6137 82.6954 45.7665C81.443 46.9987 79.8753 46.7369 79.0223 45.8043C78.8808 45.6497 78.6944 45.5434 78.4893 45.5005C77.8803 45.373 77.3248 45.4518 76.8363 45.698C76.3763 45.9298 76.0366 46.2799 75.7823 46.5908C75.602 46.8113 75.4213 47.0698 75.2687 47.288C75.2156 47.3638 75.166 47.4348 75.1209 47.4976C74.9211 47.7763 74.763 47.9694 74.6084 48.1012C74.5735 48.131 74.5406 48.1632 74.51 48.1976C74.3458 48.3822 73.9646 48.4844 73.4832 48.2184C73.2659 48.0984 73.126 47.9447 73.063 47.8189C73.033 47.7589 73.019 47.7059 73.0209 47.652C73.15 47.4746 73.2584 47.2241 73.2249 46.8982C73.1924 46.582 73.0324 46.3597 72.9056 46.2319C72.7827 46.1079 72.6516 46.0307 72.5604 45.9843C72.2401 45.8213 71.7903 45.7378 71.3883 45.6803C70.503 45.5536 69.1475 45.4701 67.5112 45.4147C64.2195 45.3032 59.6269 45.3014 54.9848 45.3386C51.544 45.3662 48.0648 45.4154 45.0559 45.458C44.0029 45.4729 43.0075 45.4869 42.0915 45.499C40.322 45.5223 38.8522 45.5379 37.8311 45.5376C37.3185 45.5374 36.9303 45.5331 36.6771 45.5244C36.6066 45.5219 36.5532 45.5194 36.5144 45.517C36.0619 45.3883 35.5698 45.5942 35.3503 46.0262C35.3384 46.0496 35.3274 46.0736 35.3173 46.0981L35.3173 46.0981C34.7395 47.4997 33.3171 48.4457 32.0634 48.5613C31.4586 48.6171 30.9665 48.4751 30.6187 48.1861C30.2782 47.9031 29.9495 47.374 29.8729 46.4008C29.8307 45.8651 29.3728 45.4586 28.836 45.4801C28.7219 45.4846 28.6072 45.4892 28.4919 45.4939C23.5523 45.6924 17.4852 45.9362 12.3963 44.7206C9.8061 44.1019 7.54393 43.1203 5.83392 41.6223C4.14375 40.1416 2.94087 38.1122 2.52063 35.2789C2.47967 35.0027 2.32516 34.7563 2.09445 34.5991C1.88079 34.4536 1.8156 34.2977 1.80392 34.1736C1.79135 34.0399 1.83135 33.8215 2.05422 33.5624C2.13126 33.4728 2.19181 33.3703 2.23307 33.2595C2.33795 32.9781 2.36701 32.6458 2.37909 32.3857C2.39257 32.0954 2.38853 31.7598 2.37576 31.4085C2.35408 30.8123 2.30466 30.1119 2.25595 29.4216C2.24741 29.3005 2.23888 29.1797 2.23053 29.0598C2.17349 28.2408 2.12446 27.4631 2.12099 26.8453C2.11925 26.5353 2.12935 26.2931 2.14977 26.1203C2.15865 26.0451 2.16773 26.0001 2.17276 25.9781C2.28199 25.7789 2.32064 25.5476 2.28059 25.3222C1.46874 20.7528 1.91132 15.3041 4.02748 11.0769C6.1126 6.91167 9.80401 3.9354 15.6704 4.05855C15.7209 4.05961 15.7714 4.05684 15.8215 4.05027C15.8083 4.052 15.8003 4.05284 15.8003 4.05313C15.8004 4.05376 15.8387 4.05173 15.9444 4.05054C16.0648 4.04918 16.2314 4.04888 16.4406 4.04933C16.7399 4.04997 17.1166 4.05213 17.554 4.05464C17.7275 4.05564 17.9104 4.05669 18.1019 4.05772C19.4465 4.06496 21.1954 4.07122 22.9221 4.05042C24.6433 4.02969 26.3651 3.9819 27.6481 3.8787C28.2809 3.82779 28.8529 3.7601 29.2747 3.66333C29.4716 3.61818 29.7215 3.54848 29.9379 3.42514C30.0448 3.36429 30.2236 3.24619 30.3632 3.03905C30.3673 3.03288 30.3714 3.02667 30.3755 3.0204C30.6553 2.84355 30.9953 2.7987 31.3585 2.87764C31.8161 2.97707 32.1948 3.25193 32.3706 3.52875C32.6595 3.98352 33.2567 4.1277 33.7212 3.85481C35.8385 2.61106 38.171 1.88393 40.8034 2.00582L40.805 2.00589C41.8674 2.05341 42.3668 2.62418 42.497 3.2096C42.5758 3.56445 42.8411 3.84855 43.1897 3.95158C43.5383 4.05461 43.9154 3.96034 44.1745 3.70538C44.7733 3.11616 45.5873 2.77573 46.3477 2.751C47.0905 2.72683 47.7297 2.99765 48.1421 3.5743C48.3298 3.83681 48.6327 3.99258 48.9555 3.99258C48.9117 3.99258 49.9811 4.02507 50.7731 4.01735C51.2046 4.01315 51.6639 3.99848 52.0257 3.95865C52.1967 3.93984 52.405 3.90959 52.5907 3.85048C52.6755 3.82351 52.837 3.76607 52.9944 3.64613C53.0319 3.61755 53.0773 3.5785 53.1242 3.52905C54.2151 2.86074 55.1808 3.12827 56.6326 3.53044C56.872 3.59677 57.1247 3.66676 57.3933 3.73682C58.3058 3.97481 59.3813 4.18017 60.5433 3.92982C61.7112 3.67821 62.8391 2.99697 63.955 1.72014C65.4227 0.509218 67.5794 1.39421 67.7728 3.04285C67.8126 3.38278 68.0235 3.6787 68.3319 3.82727C68.6402 3.97583 69.0031 3.95639 69.2938 3.77574C70.3151 3.14104 71.3503 3.1136 72.1784 3.77428C72.3555 3.91561 72.5754 3.99258 72.802 3.99258H78.1835C78.5454 3.99258 78.8791 3.79699 79.056 3.48118C79.8071 2.13993 81.2125 1.30011 82.44 1.20992C83.0377 1.16601 83.5483 1.30083 83.9355 1.58426C84.315 1.86202 84.6687 2.34991 84.8381 3.19025C84.8925 3.46003 85.0557 3.69547 85.2892 3.84111C85.4954 3.96969 85.7404 4.01822 85.9781 3.97975C86.0047 3.97811 86.0483 3.97627 86.1125 3.97465C86.2451 3.97132 86.4333 3.9697 86.6744 3.96957C87.1552 3.96932 87.8172 3.97495 88.6045 3.9822L88.8885 3.98483C90.4179 3.99902 92.3485 4.01694 94.2604 4.00912C96.2878 4.00084 98.3171 3.96362 99.8347 3.85995C100.586 3.80864 101.254 3.7385 101.744 3.63694C101.977 3.58867 102.245 3.51871 102.474 3.40205C102.586 3.34521 102.762 3.24075 102.911 3.05897C103.963 2.53487 104.983 2.88223 105.647 3.64759C105.837 3.8667 106.112 3.99258 106.402 3.99258H114.676ZM85.9521 3.98184C85.9522 3.98174 85.9561 3.9813 85.9645 3.98067C85.9563 3.98164 85.9519 3.98195 85.9521 3.98184Z" stroke="#4E4B9A" stroke-width="2" stroke-miterlimit="10" stroke-linecap="round" stroke-linejoin="round"/>
</svg>
