<svg width="41" height="16" viewBox="0 0 41 16" fill="none" xmlns="http://www.w3.org/2000/svg">
<path d="M40.1799 5.71466C33.2655 6.0027 26.5531 6.62245 19.7397 7.52385C16.4826 7.95477 13.3107 8.24753 10.0153 8.24753C9.26148 8.24753 5.57198 8.70419 5.01145 8.16712C4.65143 7.82218 13.9439 5.18839 14.6651 4.99098C18.2882 3.99913 21.5587 2.77397 24.8616 1.19167C25.9781 0.656767 25.2742 0.624231 24.3659 0.890141C21.5903 1.70273 19.0923 3.20595 16.3881 4.1869C12.3915 5.63668 8.36932 7.44743 4.06733 8.16712C3.11236 8.32688 -1.06959 9.05404 1.82504 9.87581C9.62303 12.0896 18.2138 11.854 25.9237 14.2179C26.0882 14.2683 27.8842 14.8605 27.6939 14.9416C25.2431 15.9852 19.8251 14.2615 17.285 13.8962C15.4963 13.639 11.1135 13.808 11.8091 11.5041C12.7868 8.26604 17.3399 7.02093 20.4478 5.71466C21.0464 5.46307 26.2302 3.90547 23.7286 3.90547C18.2385 3.90547 12.0498 5.24304 7.34815 7.68467C6.12912 8.31773 3.69653 9.55677 3.21762 10.7804" stroke="white" stroke-width="2" stroke-linecap="round"/>
</svg>
