<svg width="38" height="43" viewBox="0 0 38 43" fill="none" xmlns="http://www.w3.org/2000/svg">
<g style="mix-blend-mode:multiply" opacity="0.55">
<path d="M28.3258 5.91827L15.6941 26.4085L16.1807 26.7059C16.7022 27.0247 17.2802 27.2499 17.8932 27.2567C19.9293 27.2789 24.9295 26.6269 28.8154 20.3236C29.9675 18.4548 32.2776 16.4839 34.3567 14.9466C36.1856 13.5949 36.2014 10.7327 34.2729 9.55383L28.3258 5.91827ZM16.5211 14.6203L17.6568 26.5543L17.6568 26.5543L16.5211 14.6203ZM12.9936 15.8631L2.51276 10.0879L12.9936 15.8631ZM13.2952 24.1098L25.0234 21.4713L13.2952 24.1098ZM17.9666 29.9634L20.5014 18.2205L17.9666 29.9634ZM23.3576 26.1409L11.9672 22.4342L23.3576 26.1409ZM24.5555 13.9583L16.915 23.2636L24.5555 13.9583ZM16.471 14.3883L28.4172 15.4807L16.471 14.3883ZM29.5394 24.0764L5.56247 23.0234L5.53337 23.5947C5.50219 24.2069 5.57995 24.8229 5.86584 25.3629C6.81582 27.1563 9.76807 31.2156 17.144 31.5396C19.3309 31.6356 22.1585 32.6957 24.4961 33.7652C26.5518 34.7063 29.0684 33.3224 29.1837 31.0584L29.5394 24.0764ZM28.3258 5.91827C25.6918 4.30809 21.2896 2.0844 15.3854 2.68626L17.6568 26.5543C17.3394 26.5866 16.9882 26.5878 16.6244 26.5477C16.2638 26.508 15.9615 26.4356 15.7359 26.3647C15.3296 26.237 15.2452 26.134 15.6941 26.4085L28.3258 5.91827ZM15.3854 2.68626C14.7342 2.75264 13.192 2.9251 11.5217 3.37768C10.6954 3.60157 9.40568 4.00637 8.02279 4.74373C6.80936 5.39074 4.25705 6.95405 2.51276 10.0879L23.4744 21.6383C21.9699 24.3414 19.8619 25.5458 19.2091 25.8938C18.3869 26.3322 17.7744 26.498 17.6534 26.5308C17.3938 26.6011 17.3756 26.583 17.6568 26.5543L15.3854 2.68626ZM2.51276 10.0879C-0.0379307 14.6707 0.406182 19.54 0.595514 21.3219C0.84524 23.6722 1.40387 26.0017 1.56711 26.7483L25.0234 21.4713C24.9894 21.3157 24.9538 21.1555 24.9221 21.0126C24.8889 20.8635 24.8583 20.7255 24.8275 20.5848C24.7661 20.3051 24.7112 20.0474 24.6615 19.7976C24.5587 19.2813 24.4986 18.8989 24.4695 18.6243C24.4628 18.562 24.4588 18.5141 24.4564 18.4797C24.454 18.4452 24.4535 18.429 24.4536 18.4299C24.4536 18.4305 24.4542 18.4543 24.4531 18.4992C24.4519 18.5438 24.4488 18.6173 24.44 18.7164C24.4234 18.9024 24.3802 19.2549 24.256 19.7239C24.132 20.1925 23.9032 20.8679 23.4744 21.6383L2.51276 10.0879ZM1.56711 26.7483C2.21767 29.7237 4.72048 39.4685 15.4318 41.7063L20.5014 18.2205C21.2874 18.3847 22.1676 18.7369 23.0003 19.3246C23.8109 19.8967 24.3467 20.5286 24.6698 21.0081C25.207 21.8053 25.1921 22.2428 25.0234 21.4713L1.56711 26.7483ZM15.4318 41.7063C20.3742 42.7389 25.349 41.5839 29.2068 38.3263C32.4915 35.5526 34.0137 32.0588 34.748 29.8477L11.9672 22.4342C11.9722 22.419 12.0515 22.1762 12.2757 21.7962C12.4993 21.4173 12.9623 20.7413 13.7864 20.0454C14.6591 19.3085 15.8234 18.6503 17.2164 18.3123C18.5918 17.9787 19.7498 18.0635 20.5014 18.2205L15.4318 41.7063ZM34.748 29.8477C34.8687 29.484 35.0233 29.1449 35.6265 27.6314C36.0908 26.4661 36.7658 24.7176 37.2617 22.7938C38.0122 19.8821 39.8027 10.8732 32.196 4.65305L16.915 23.2636C16.0821 22.5826 15.3661 21.7071 14.8483 20.703C14.3459 19.7288 14.1348 18.8397 14.052 18.1979C13.9061 17.0686 14.1309 16.5124 14.0152 16.9613C13.9204 17.3292 13.7244 17.901 13.3307 18.8889C13.2378 19.122 13.1431 19.3559 13.0377 19.6162C12.9367 19.8655 12.8217 20.1493 12.7101 20.4293C12.4971 20.9639 12.2171 21.6816 11.9672 22.4342L34.748 29.8477ZM32.196 4.65305C29.2232 2.22213 24.974 0.640616 21.1624 0.282531C19.1952 0.0977157 15.6795 0.0667923 12.1042 1.94317C7.69189 4.25891 4.99413 8.53043 4.52485 13.2959L28.4172 15.4807C28.3001 16.6703 27.8912 18.2323 26.8576 19.8005C25.8131 21.3853 24.455 22.4827 23.1505 23.1674C20.8364 24.3819 18.9728 24.1903 18.7504 24.1694C18.4896 24.1449 18.3296 24.1077 18.2699 24.0927C18.2047 24.0763 18.1651 24.0623 18.1339 24.0502C18.1066 24.0395 18.0202 24.0049 17.8716 23.9235C17.7529 23.8586 17.3949 23.6561 16.915 23.2636L32.196 4.65305ZM4.52485 13.2959C4.16398 16.9604 4.93506 20.2465 5.21833 21.5663C5.63865 23.5245 5.5439 23.3879 5.56247 23.0234L29.5394 24.0764C29.6335 22.2282 29.4621 20.5998 29.2698 19.3524C29.0868 18.1653 28.8295 17.0102 28.6939 16.3784C28.3227 14.6492 28.476 14.8843 28.4172 15.4807L4.52485 13.2959Z" fill="#FFAE4F"/>
</g>
</svg>
