<svg width="38" height="44" viewBox="0 0 38 44" fill="none" xmlns="http://www.w3.org/2000/svg">
<g style="mix-blend-mode:multiply" opacity="0.55">
<path d="M37.5507 20.333L13.5699 19.3716L13.5381 19.9428C13.5039 20.5548 13.5787 21.1702 13.8621 21.7089C14.8038 23.4979 17.7375 27.5442 25.1146 27.8399C27.3018 27.9276 30.1254 28.9764 32.4587 30.0366C34.5107 30.9695 37.0349 29.5767 37.1612 27.3132L37.5507 20.333ZM24.4875 14.0292L32.0794 4.62126L24.4875 14.0292ZM17.4707 12.258L19.3129 0.381665L17.4707 12.258ZM15.2253 13.4066L3.29502 12.2217L15.2253 13.4066ZM12.5737 23.3527L0.715519 21.6434L12.5737 23.3527ZM14.0917 30.3066L7.72573 40.5721L7.72573 40.5721L14.0917 30.3066ZM21.3268 29.3042L10.3324 24.6524L21.3268 29.3042ZM24.3246 16.9486L12.6009 14.5336L24.3246 16.9486ZM18.4144 24.565L24.3334 1.23328L23.7787 1.10108C23.1841 0.959404 22.5637 0.923923 21.9754 1.10641C20.0216 1.71298 15.4357 3.87275 13.6148 11.0502C13.075 13.1782 11.4583 15.76 9.93224 17.8592C8.58967 19.7052 9.4352 22.4253 11.6339 22.9492L18.4144 24.565ZM37.5507 20.333C37.5506 20.3349 37.5518 20.3126 37.5563 20.2545C37.561 20.1956 37.5673 20.1208 37.5769 20.0118C37.5927 19.8336 37.6266 19.4655 37.6535 19.1192C37.7081 18.4157 37.7836 17.2364 37.7039 15.8934C37.5469 13.2452 36.6624 8.28312 32.0794 4.62126L16.8956 23.4371C15.5901 22.3941 14.7412 21.1024 14.2593 19.9105C13.8199 18.8233 13.7451 17.9742 13.7279 17.683C13.7109 17.3963 13.7337 17.2989 13.7074 17.6382C13.6938 17.8133 13.6802 17.9569 13.6523 18.2726C13.6293 18.532 13.5942 18.9369 13.5699 19.3716L37.5507 20.333ZM32.0794 4.62126C28.8654 2.05322 25.2219 1.27238 23.5237 0.957663C22.4964 0.767289 21.5358 0.646178 20.8407 0.56376C19.9926 0.463207 19.6946 0.434876 19.3129 0.381665L15.6284 24.1343C16.0328 24.1907 16.4239 24.2377 16.7461 24.2753C16.9083 24.2942 17.075 24.3133 17.2199 24.33C17.3709 24.3473 17.5083 24.3632 17.6425 24.3791C18.2009 24.4453 18.5412 24.494 18.7855 24.5393C19.0387 24.5862 18.9761 24.5922 18.7266 24.5017C18.4923 24.4168 17.7625 24.1298 16.8956 23.4371L32.0794 4.62126ZM19.3129 0.381665C19.103 0.3524 18.2115 0.218287 17.3534 0.166761C16.6255 0.123052 14.1963 -0.0155796 11.4491 1.09086C7.94672 2.50144 5.703 5.14066 4.51858 7.71057C3.59595 9.71245 3.37276 11.5461 3.29502 12.2217L27.1555 14.5914C27.1457 14.6769 27.1095 14.9761 27.0139 15.3986C26.9209 15.8097 26.7238 16.5563 26.31 17.4542C25.3041 19.6367 23.3015 22.0363 20.1332 23.3124C17.7199 24.2843 15.7175 24.1163 15.5394 24.1056C15.231 24.0871 15.0123 24.0484 15.6284 24.1343L19.3129 0.381665ZM3.29502 12.2217C3.26147 12.5133 3.14204 13.0373 2.56744 14.7599C2.11856 16.1056 1.17493 18.7692 0.715519 21.6434L24.4319 25.062C24.5133 24.553 24.6994 23.947 25.3431 22.0171C25.8611 20.4642 26.7971 17.7067 27.1555 14.5914L3.29502 12.2217ZM0.715519 21.6434C0.565294 22.5832 0.0849811 25.387 0.382728 28.4169C0.686667 31.5099 2.0636 37.1263 7.72573 40.5721L20.4576 20.0411C21.9784 20.9666 23.0058 22.251 23.6017 23.4525C24.1411 24.5404 24.2566 25.4044 24.2863 25.7068C24.3178 26.0272 24.2921 26.1426 24.3085 25.9542C24.3242 25.7742 24.3567 25.5325 24.4319 25.062L0.715519 21.6434ZM7.72573 40.5721C10.7369 42.4047 14.7023 43.6418 18.9191 43.3201C23.4872 42.9716 29.4638 40.4933 32.3213 33.9561L10.3324 24.6524C11.0458 23.0203 12.282 21.5939 13.8361 20.6317C15.2822 19.7363 16.6189 19.4722 17.4613 19.408C18.964 19.2933 19.8946 19.6984 20.4576 20.0411L7.72573 40.5721ZM32.3213 33.9561C33.6721 30.8658 34.401 27.7939 34.887 25.4062C35.5399 22.1981 35.5575 21.5794 36.0483 19.3637L12.6009 14.5336C12.2036 16.3269 11.5587 19.9725 11.353 20.9832C10.9803 22.8143 10.6544 23.9156 10.3324 24.6524L32.3213 33.9561ZM36.0483 19.3637C36.4463 17.5674 37.5937 11.9346 33.728 6.85113C30.4477 2.53747 25.4975 1.51067 24.3334 1.23328L18.4144 24.565C18.8449 24.6676 18.5505 24.6312 17.972 24.3672C17.3427 24.08 15.8418 23.2845 14.5167 21.5419C11.5668 17.6627 12.7813 13.7191 12.6009 14.5336L36.0483 19.3637Z" fill="black"/>
</g>
</svg>
