<svg width="43" height="40" viewBox="0 0 43 40" fill="none" xmlns="http://www.w3.org/2000/svg">
<g style="mix-blend-mode:multiply" opacity="0.55">
<path d="M42.0512 20.6622L18.0883 19.3269L18.0654 19.8984C18.0408 20.5109 18.1251 21.1285 18.4165 21.6725C19.3847 23.4789 22.3773 27.5773 29.7489 27.9881C31.9345 28.1099 34.7705 29.2043 37.1171 30.3024C39.1807 31.2686 41.6798 29.9127 41.7707 27.6476L42.0512 20.6622ZM27.3592 12.9094L25.2458 24.6962L27.3592 12.9094ZM17.9616 12.3447L17.2946 0.345463L17.9616 12.3447ZM12.5325 20.4944L1.06741 23.8339L12.5325 20.4944ZM21.1194 12.1924L17.7569 23.666L21.1194 12.1924ZM20.0926 14.7816L31.8537 17.3043L20.0926 14.7816ZM30.4987 23.1389L7.0356 17.8062L6.91733 18.3643C6.79058 18.9624 6.7706 19.5838 6.96763 20.1676C7.62252 22.1063 9.89518 26.6381 17.113 28.2786C19.2531 28.765 21.8733 30.3169 24.0092 31.7903C25.8874 33.0865 28.5845 32.1725 29.0532 29.9605L30.4987 23.1389ZM42.0512 20.6622C42.0658 20.2977 42.4172 16.4271 41.7144 13.1706C41.2773 11.1456 40.2907 8.32464 37.9349 5.7732C35.4675 3.10087 32.3956 1.69198 29.4726 1.12261L25.2458 24.6962C23.969 24.4474 22.0745 23.6982 20.4434 21.9316C18.9238 20.2859 18.4323 18.6167 18.2769 17.8965C18.1351 17.2397 18.1763 16.9199 18.1713 17.347C18.1648 17.8993 18.1371 18.1135 18.0883 19.3269L42.0512 20.6622ZM29.4726 1.12261C25.246 0.299325 20.8264 0.203136 17.2946 0.345463L18.6287 24.3439C21.1423 24.2426 23.5305 24.362 25.2458 24.6962L29.4726 1.12261ZM17.2946 0.345463C6.30793 0.788204 -2.64376 11.6457 1.06741 23.8339L23.9977 17.1549C24.4804 18.7403 24.1609 20.6019 23.1382 22.0097C22.2545 23.2263 20.7135 24.2599 18.6287 24.3439L17.2946 0.345463ZM1.06741 23.8339C1.96818 26.7922 3.5504 30.146 6.00041 33.0439C8.39313 35.8741 12.6918 39.4545 18.8793 39.7993L19.842 15.8186C22.7337 15.9798 24.1396 17.6151 24.2029 17.69C24.3235 17.8327 24.1396 17.6209 23.9977 17.1549L1.06741 23.8339ZM18.8793 39.7993C26.3721 40.2169 30.8952 35.3103 32.8349 32.2067C34.8546 28.975 35.7929 25.3269 36.141 22.2561C36.4921 19.158 36.38 15.4379 35.2276 11.8452C34.1473 8.47742 31.2513 2.80399 24.482 0.718795L17.7569 23.666C13.6132 22.3896 12.4825 19.1101 12.4051 18.8689C12.2556 18.4028 12.384 18.5419 12.3113 19.1833C12.2355 19.8518 12.0856 19.8233 12.4509 19.2389C12.6577 18.9079 13.2502 18.0572 14.452 17.2573C15.7818 16.3722 17.6647 15.6973 19.842 15.8186L18.8793 39.7993ZM24.482 0.718795C22.9482 0.246361 20.6827 -0.144109 18.0692 0.413434C15.2965 1.00492 13.0716 2.46503 11.5034 4.21458C8.89588 7.12354 8.45875 10.4272 8.36288 11.0811C8.20605 12.1509 8.18339 13.2054 8.17961 13.307C8.15747 13.904 8.15265 13.1575 8.33153 12.259L31.8537 17.3043C32.1239 15.9469 32.1441 14.6014 32.1453 14.5695C32.1648 14.0423 32.1639 14.438 32.0918 14.9292C32.0481 15.2277 31.9365 15.8901 31.6461 16.7231C31.3666 17.5246 30.7579 18.9633 29.4599 20.4114C28.0295 22.0071 25.9744 23.361 23.4117 23.9077C21.0081 24.4205 18.9925 24.0466 17.7569 23.666L24.482 0.718795ZM8.33153 12.259C8.1995 12.9222 8.02966 13.629 7.79462 14.5814C7.57854 15.4569 7.28753 16.6173 7.0356 17.8062L30.4987 23.1389C30.6506 22.4223 30.8312 21.6969 31.0814 20.6832C31.3127 19.7463 31.6037 18.5604 31.8537 17.3043L8.33153 12.259Z" fill="#6FFFF6"/>
</g>
</svg>
