<svg width="31" height="24" viewBox="0 0 31 24" fill="none" xmlns="http://www.w3.org/2000/svg">
<path d="M11.2521 12.081C9.88229 13.5524 8.0238 14.711 6.55104 16.118C5.79211 16.843 4.80508 17.4496 4.12258 18.221C3.63827 18.7684 2.93926 19.1377 2.48629 19.7111C1.80886 20.5686 1.75625 21.5958 2.8629 22.1628C3.7714 22.6283 5.46737 22.4419 6.31729 21.9726C8.99135 20.496 10.2492 17.7118 12.9144 16.2659C13.7682 15.8027 14.3714 15.322 15.4338 15.6213C16.1089 15.8114 16.9666 15.9806 17.6804 15.9806C18.6908 15.9806 19.2187 15.2994 19.8751 14.7653C20.6345 14.1473 21.3079 13.4929 22.0958 12.9159C22.6735 12.4927 20.3086 11.5169 20.018 11.3412C18.5978 10.4827 17.1262 9.67688 15.6935 8.82605C15.1004 8.47383 14.381 7.94636 13.7066 7.71113C13.3698 7.59369 12.8807 7.15158 12.5378 7.13517C12.1297 7.11564 11.4784 7.80704 11.1937 8.03873C10.7243 8.4207 10.321 8.79056 9.96647 9.24877C9.23295 10.1968 10.404 10.4392 10.8755 11.1299C11.0885 11.4418 11.3953 11.6887 11.1872 12.0757C10.998 12.4277 10.7674 12.7608 10.434 13.0321" stroke="#545454" stroke-width="3" stroke-linecap="round" stroke-linejoin="round"/>
<path d="M9.9668 9.70312C11.1143 10.2678 12.1102 11.0236 13.2913 11.5314C14.4344 12.0228 15.648 12.4815 16.6808 13.1219C17.1772 13.4297 17.8919 13.8799 18.4404 14.0783C18.7843 14.2026 18.9965 14.4234 19.317 14.5538" stroke="#545454" stroke-width="3" stroke-linecap="round" stroke-linejoin="round"/>
<path d="M12.7715 6.94581C13.7217 5.9346 14.385 4.85049 15.2259 3.78599C15.5723 3.3475 15.9552 2 16.8038 2C17.2752 2 18.072 3.05597 18.1479 3.02509C18.6776 2.80955 19.2632 2.19022 19.901 2.19022C20.1316 2.19022 20.4937 2.60716 20.7257 2.71334C21.0717 2.87176 21.3977 2.98426 21.7126 3.18361C22.0808 3.41661 21.5674 3.95595 21.4204 4.26155C21.1781 4.76559 21.0499 5.26735 20.862 5.78334C20.689 6.25862 21.8691 5.42883 21.9918 5.32891C22.6387 4.80252 23.2172 4.14167 24.1086 4.75824C24.4758 5.0122 25.1439 5.17462 25.6021 5.30778C26.0662 5.44269 26.2736 5.8266 26.7384 5.9947C27.0708 6.11493 27.7219 6.74551 27.9656 6.99337C28.4073 7.44265 29.2604 7.73545 28.9915 8.44647C28.7872 8.98686 28.9459 9.34443 28.1993 9.56139C26.8285 9.9598 25.5233 10.5884 24.2255 11.1307C23.8397 11.2919 23.4389 11.4205 23.0567 11.5852C22.8356 11.6804 22.5328 12.0713 22.297 12.0713C21.9407 12.0713 21.1474 11.0676 21.4464 10.8243C22.8182 9.70796 24.4585 8.94353 26.0955 8.12943C26.4552 7.95057 27.5443 7.05972 27.9656 7.23115" stroke="#545454" stroke-width="3" stroke-linecap="round" stroke-linejoin="round"/>
<path d="M2.9541 21.307C3.5341 21.6503 3.89769 21.6875 4.59039 21.6875C5.15443 21.6875 5.39852 21.4485 5.87604 21.2542C6.38771 21.046 7.02334 20.4443 7.34351 20.0653C7.82581 19.4944 8.53781 19.055 9.05772 18.5065C10.643 16.8342 12.3967 14.7443 15.2003 14.7443C15.6765 14.7443 16.1526 14.7443 16.6288 14.7443C17.0962 14.7443 17.48 14.9345 17.9599 14.9345C18.472 14.9345 17.0653 14.5239 16.5898 14.3691C16.1451 14.2244 15.6749 13.9017 15.2263 13.7192C14.3327 13.3556 13.6159 13.0012 12.8303 12.5039C12.6219 12.372 11.7906 11.6447 12.0446 12.1763C12.1761 12.4516 11.5202 12.9526 11.3109 13.0851C10.2246 13.7727 9.39743 14.6565 8.44736 15.4524C7.14226 16.5457 5.97031 17.812 4.75921 18.9768C4.50595 19.2204 2.58069 20.7707 3.09695 21.1908C3.37116 21.4139 4.22539 21.1068 4.47351 21.0006C5.25847 20.6644 5.9085 19.949 6.52537 19.4471C7.75239 18.4485 8.86044 17.3672 10.0836 16.3718C10.9646 15.6549 11.9544 15.0309 12.8627 14.3427C13.3038 14.0086 13.8751 13.7176 14.499 13.6981C14.6926 13.692 15.1742 13.7125 15.3172 13.8143C15.49 13.9374 14.8701 13.724 14.6419 13.7034C13.693 13.6176 13.0316 13.2228 12.0641 13.6558C10.496 14.3577 9.28872 15.6758 8.16165 16.7628C7.08631 17.7999 5.98979 18.8149 4.94752 19.8751C4.66475 20.1627 4.16255 20.8629 3.77225 21.0217" stroke="#D27C2C" stroke-width="3" stroke-linecap="round" stroke-linejoin="round"/>
<path d="M16.862 2.75977C16.55 3.0216 15.4744 4.12221 15.5828 4.51933C15.6458 4.74983 15.9733 4.41676 16.1088 4.37667C16.5606 4.24295 16.982 4.15657 17.4464 4.0702C18.6898 3.83891 18.1351 4.87126 17.7451 5.37006C17.2594 5.9912 19.1258 5.01966 19.4918 5.18512C20.1625 5.48835 19.4919 6.39014 19.3424 6.84957C19.2319 7.18941 18.856 7.86019 19.4982 7.71087C20.1137 7.56777 20.6604 7.14087 21.1865 6.82844C21.9915 6.35037 22.8334 5.69429 23.7578 5.40176C24.1404 5.28068 25.1581 6.07278 25.5045 6.23135C25.9532 6.43677 26.975 6.82347 26.446 7.23002C25.8147 7.71521 24.7557 7.977 23.998 8.32381C23.8019 8.41357 23.2217 8.80773 23.524 8.3925C23.6983 8.15325 23.8979 7.6402 23.6929 7.37797C23.2816 6.852 22.3154 6.71087 21.654 6.96582C21.0991 7.17971 22.1976 6.64593 22.3293 6.58538C22.8254 6.35719 23.3626 6.18379 23.9331 6.18379C24.6269 6.18379 24.0834 7.08264 24.7188 6.92355C24.8659 6.88671 25.5319 6.79985 25.3356 7.08735C25.2076 7.2749 25.1217 7.30941 25.3941 7.42025" stroke="#699BF7" stroke-width="3" stroke-linecap="round" stroke-linejoin="round"/>
<path d="M24.8105 9.79817C25.3206 9.25027 26.0192 9.02981 26.739 8.70438C26.9424 8.61246 27.9344 8.12114 27.9662 8.56171C28.0009 9.0415 26.7788 9.21292 26.3884 9.45999C26.1634 9.60238 25.8745 9.63529 25.6287 9.72419C25.4861 9.77575 24.9415 9.97695 25.0443 9.89328" stroke="#699BF7" stroke-width="3" stroke-linecap="round" stroke-linejoin="round"/>
<path d="M22.9404 5.70857C22.7596 5.76597 20.2822 6.59888 20.2522 6.18413C20.2294 5.86863 20.5734 5.57754 20.6028 5.25414C20.6328 4.92483 20.7197 4.61989 20.7197 4.28189C20.7197 4.03757 20.7473 3.87337 20.9275 3.69008C21.0713 3.54384 20.4997 3.36279 20.3691 3.30964C20.2206 3.2492 19.8086 2.92428 19.6678 2.97146C19.2878 3.09881 19.0722 3.34644 18.7328 3.49986C17.8864 3.88253 17.8524 3.51259 17.3043 3.06657C17.0107 2.82768 16.8974 3.1009 16.7719 3.33077C16.5933 3.65764 17.0338 3.71997 17.3043 3.78519C17.8063 3.90624 18.2572 3.74693 18.6809 4.09167C18.868 4.24392 19.0321 4.78634 19.3172 4.56723C19.4866 4.43699 19.9283 3.91884 20.2262 4.1128C20.5053 4.29449 20.2522 4.61245 20.2522 4.85256" stroke="#699BF7" stroke-width="3" stroke-linecap="round" stroke-linejoin="round"/>
<path d="M11.3691 8.5625C12.0284 8.84716 12.5284 9.32342 13.1743 9.60873C13.6722 9.82871 14.1819 10.0089 14.6482 10.2745C15.5128 10.767 16.5751 11.0372 17.3559 11.6272C17.9697 12.0911 18.9546 12.6487 19.7259 12.8901C19.9444 12.9585 20.9698 13.4948 21.07 13.4132" stroke="#545454" stroke-width="3" stroke-linecap="round" stroke-linejoin="round"/>
<path d="M14.6416 7.61106C15.5027 6.47912 16.5024 5.40346 17.3882 4.28215C17.5668 4.05604 17.9215 3.80873 18.0311 3.56352C18.1291 3.34409 18.3659 2.957 18.6154 2.85547" stroke="#545454" stroke-width="3" stroke-linecap="round" stroke-linejoin="round"/>
<path d="M16.3945 8.94168C16.8181 8.16167 17.5224 7.46513 18.0958 6.7541C18.6465 6.07121 19.2747 5.41485 19.9009 4.77789C20.2482 4.42457 20.6177 4.07828 21.0112 3.75808C21.1617 3.6356 21.4549 3.46402 21.5372 3.33008" stroke="#545454" stroke-width="3" stroke-linecap="round" stroke-linejoin="round"/>
<path d="M18.499 10.1786C19.2902 9.78597 20.2291 9.33076 20.8885 8.79417C21.3282 8.43635 21.7209 8.08194 22.2391 7.80078" stroke="#545454" stroke-width="3" stroke-linecap="round" stroke-linejoin="round"/>
<path d="M20.7197 11.2246C21.9071 9.9492 23.9614 9.58889 25.5117 8.67774C26.0982 8.33306 26.8113 8.02334 27.4402 7.74776C27.6918 7.63749 28.2957 7.22135 28.5505 7.32504" stroke="#545454" stroke-width="3" stroke-linecap="round" stroke-linejoin="round"/>
</svg>
