<svg width="63" height="58" viewBox="0 0 63 58" fill="none" xmlns="http://www.w3.org/2000/svg">
<g style="mix-blend-mode:multiply" opacity="0.55">
<path d="M7.77165 30.6893L40.2283 7.31066L39.6712 6.53711C39.074 5.70811 38.3305 4.98664 37.3938 4.57884C34.2827 3.22529 26.1916 0.989234 16.2071 8.1811C13.2468 10.3134 8.44389 11.8525 4.27211 12.8732C0.602797 13.7703 -1.24668 18.1692 0.961636 21.235L7.77165 30.6893ZM25.6054 20.0097L30.8178 0.700858L25.6054 20.0097ZM28.4026 20.8672L24.7823 40.5368L28.4026 20.8672ZM32.1297 22.361L42.5122 5.2671L32.1297 22.361ZM36.4678 22.361L41.3113 41.7657L36.4678 22.361ZM42.5138 22.361L22.9789 26.6493L42.5138 22.361ZM42.7225 26.6073L62.7198 26.2747L42.7225 26.6073ZM42.992 37.6724L22.9946 37.3496L42.992 37.6724ZM41.4738 37.6724L40.5965 57.6532L41.4738 37.6724ZM34.0577 36.7319L42.1802 18.4555L34.0577 36.7319ZM30.7102 35.985L35.625 55.3717L30.7102 35.985ZM27.0742 36.4829L19.3218 18.0465L19.3218 18.0465L27.0742 36.4829ZM6.32518 43.0442L43.3144 27.8193L42.9516 26.9377C42.5627 25.993 42.0065 25.1189 41.1898 24.5052C38.4767 22.4678 31.1237 18.4184 19.7448 23.102C16.3711 24.4906 11.3424 24.8753 7.04759 24.902C3.27028 24.9248 0.452191 28.7756 1.89031 32.2695L6.32518 43.0442ZM7.77165 30.6893C12.4823 37.2291 18.8425 38.9 20.3931 39.3185L30.8178 0.700858C30.5336 0.624129 32.3146 1.04241 34.3147 2.12555C36.6595 3.39529 38.6952 5.18215 40.2283 7.31066L7.77165 30.6893ZM20.3931 39.3185C20.0611 39.2289 19.8568 39.158 19.8946 39.1708C20.0636 39.228 19.9432 39.1888 20.4514 39.365C21.0023 39.5559 22.7021 40.154 24.7823 40.5368L32.0229 1.19763C32.6592 1.31475 33.1286 1.44492 33.3581 1.51261C33.5759 1.57682 33.6902 1.61905 33.5523 1.57124C33.4735 1.54391 33.4233 1.52614 33.26 1.46899C33.1274 1.42257 32.9315 1.35424 32.7134 1.28044C32.286 1.13583 31.6162 0.916371 30.8178 0.700858L20.3931 39.3185ZM24.7823 40.5368C23.1522 40.2368 22.0817 39.6582 21.7471 39.455L42.5122 5.2671C39.673 3.54263 36.1912 1.96482 32.0229 1.19763L24.7823 40.5368ZM21.7471 39.455C27.0638 42.6842 32.357 43.0597 36.0202 42.7427C37.7026 42.5971 39.0851 42.305 39.8947 42.1177C40.3122 42.0212 40.6769 41.9284 40.8977 41.8718C41.193 41.796 41.2143 41.7899 41.3113 41.7657L31.6242 2.9564C31.365 3.0211 31.0278 3.10853 30.963 3.12514C30.8237 3.16085 30.8266 3.15913 30.8814 3.14648C30.9654 3.12705 31.6181 2.97412 32.5712 2.89163C34.7758 2.70083 38.6124 2.89845 42.5122 5.2671L21.7471 39.455ZM41.3113 41.7657C39.6404 42.1828 38.3521 42.2159 37.9785 42.2218C37.7985 42.2246 37.6944 42.2208 37.877 42.2243C37.9604 42.2259 38.4166 42.2366 38.8626 42.2366V2.23655C38.9097 2.23655 38.9666 2.2379 38.6506 2.23178C38.4338 2.22759 37.9302 2.21761 37.3508 2.2267C36.1784 2.24509 34.0917 2.34049 31.6242 2.9564L41.3113 41.7657ZM38.8626 42.2366C41.211 42.2366 43.1015 41.8513 44.2394 41.5671C44.8247 41.421 45.3081 41.276 45.6281 41.1759C45.9303 41.0814 46.1995 40.9909 46.2597 40.9708C46.3815 40.9301 46.29 40.9613 46.1692 40.9991C46.0295 41.0429 45.7246 41.1362 45.3175 41.2383C44.5387 41.4337 42.9899 41.7663 40.9767 41.7663V1.76628C38.6119 1.76628 36.7118 2.15763 35.5817 2.44122C34.9989 2.58746 34.5183 2.73211 34.2028 2.83101C33.9062 2.92401 33.6389 3.01397 33.5847 3.03207C33.4689 3.07076 33.562 3.03899 33.688 2.99958C33.8319 2.95458 34.1389 2.8611 34.5477 2.75901C35.3325 2.56301 36.8692 2.23655 38.8626 2.23655V42.2366ZM40.9767 41.7663C41.6561 41.7663 42.1966 41.7302 42.3011 41.7236C42.3994 41.7173 42.4794 41.7115 42.521 41.7084C42.5608 41.7055 42.6002 41.7025 42.6032 41.7023C42.6529 41.6985 42.4457 41.7152 42.1813 41.7271C41.7196 41.748 40.4702 41.7908 38.8559 41.5541C37.3718 41.3364 34.245 40.7007 30.9446 38.4453C27.1186 35.8306 24.0898 31.7097 22.9789 26.6493L62.0486 18.0727C60.8505 12.615 57.6119 8.22117 53.5136 5.42043C49.9411 2.97898 46.4798 2.24423 44.6591 1.97726C42.7082 1.6912 41.1201 1.73431 40.3781 1.7678C39.9735 1.78605 39.6407 1.81212 39.5868 1.81619C39.1046 1.85266 40.044 1.76628 40.9767 1.76628V41.7663ZM22.9789 26.6493C22.9165 26.3649 22.8708 26.1205 22.8376 25.9259C22.8042 25.73 22.7799 25.5638 22.7625 25.4331C22.7286 25.179 22.7123 24.9981 22.7055 24.915C22.6983 24.8271 22.6966 24.7856 22.6974 24.8024C22.6981 24.8171 22.7001 24.8628 22.7024 24.9466C22.7047 25.0295 22.7069 25.1334 22.7087 25.2648C22.7106 25.3968 22.712 25.5411 22.7134 25.7107C22.714 25.7958 22.7146 25.8806 22.7153 25.9744C22.7159 26.0651 22.7166 26.165 22.7174 26.2648C22.719 26.461 22.7212 26.6965 22.7253 26.9398L62.7198 26.2747C62.7165 26.0765 62.7159 25.8811 62.7121 25.3995C62.709 24.9965 62.7036 24.4387 62.6873 23.8445C62.6712 23.263 62.6409 22.4892 62.5717 21.6455C62.5098 20.8907 62.3789 19.5771 62.0486 18.0727L22.9789 26.6493ZM22.7253 26.9398C22.7535 28.6372 22.8422 30.2835 22.8973 31.4115C22.9584 32.6629 22.992 33.5094 22.992 34.2976H62.992C62.992 32.4446 62.9124 30.7436 62.8496 29.4589C62.7808 28.0508 62.7347 27.1725 62.7198 26.2747L22.7253 26.9398ZM22.992 34.2976C22.992 35.8691 23.0096 36.4222 22.9946 37.3496L62.9894 37.9952C63.0105 36.69 62.992 34.9605 62.992 34.2976H22.992ZM22.9946 37.3496C23.0436 34.3131 23.8596 29.862 27.0897 25.6721C30.3514 21.4414 34.5353 19.472 37.6615 18.6462C42.7555 17.3006 46.8367 18.4728 47.172 18.5574C47.7945 18.7144 48.2707 18.8711 48.5331 18.9616C48.8054 19.0555 48.9995 19.1314 49.0293 19.143C49.2771 19.2395 48.7964 19.0512 48.6157 18.9833C48.4784 18.9317 48.0299 18.7633 47.4554 18.5845C47.1625 18.4934 46.6414 18.3379 45.9822 18.186C45.4585 18.0653 44.1076 17.7688 42.3511 17.6917L40.5965 57.6532C38.8487 57.5764 37.5089 57.2817 36.9985 57.1641C36.3526 57.0152 35.8471 56.8641 35.5718 56.7785C35.0326 56.6107 34.6277 56.4578 34.5411 56.4253C34.4618 56.3955 34.1107 56.2592 34.5065 56.4134C34.7562 56.5107 35.9209 56.9723 37.3889 57.3425C38.0849 57.5181 42.5189 58.7351 47.8771 57.3197C51.1353 56.459 55.4291 54.4261 58.7683 50.0947C62.0761 45.8042 62.9374 41.2152 62.9894 37.9952L22.9946 37.3496ZM42.3511 17.6917C40.0154 17.5891 37.9957 17.8271 37.3986 17.8917C37.1607 17.9174 37.1006 17.9243 36.9697 17.9381C36.8743 17.9482 36.8501 17.9502 36.8625 17.9491C36.8783 17.9477 37.1734 17.9214 37.6254 17.9214V57.9214C38.7195 57.9214 39.6561 57.8569 40.3129 57.8C40.9088 57.7484 41.5327 57.6778 41.6994 57.6598C41.9882 57.6285 41.9411 57.6368 41.7983 57.646C41.6297 57.6569 41.1961 57.6795 40.5965 57.6532L42.3511 17.6917ZM37.6254 17.9214C39.1891 17.9214 40.4624 18.1395 41.3406 18.3474C42.2048 18.5521 42.8222 18.7802 43.0909 18.8847C43.3494 18.9854 43.4765 19.0484 43.2805 18.9585C43.1624 18.9044 43.1102 18.8797 42.8882 18.7772C42.7141 18.6967 42.462 18.5808 42.1802 18.4555L25.9352 55.0082C26.104 55.0832 26.0142 55.0459 26.6086 55.3185C27.006 55.5007 27.7283 55.8284 28.5829 56.161C30.1559 56.7732 33.4345 57.9214 37.6254 57.9214V17.9214ZM42.1802 18.4555C42.0806 18.4113 40.0882 17.4722 37.8821 16.8417C35.4623 16.1502 31.0425 15.268 25.7954 16.5983L35.625 55.3717C31.4772 56.4232 28.1848 55.6718 26.8908 55.302C25.8106 54.9932 24.9423 54.5669 25.9352 55.0082L42.1802 18.4555ZM25.7954 16.5983C27.0438 16.2818 28.0136 16.1972 28.394 16.1704C28.5836 16.157 28.699 16.1539 28.6417 16.1559C28.6112 16.157 28.5795 16.158 28.4869 16.1609C28.4106 16.1633 28.2841 16.1673 28.1458 16.1725C27.2135 16.2073 23.4875 16.2949 19.3218 18.0465L34.8267 54.9193C33.3049 55.5592 31.9626 55.8571 31.017 56.0023C30.5579 56.0728 30.1921 56.1072 29.9656 56.1245C29.7474 56.1413 29.6083 56.1458 29.6365 56.1447C29.6498 56.1442 29.675 56.1433 29.7504 56.141C29.8095 56.1391 29.9294 56.1354 30.0506 56.1311C30.2967 56.1224 30.7154 56.1061 31.2083 56.0713C32.1952 56.0017 33.7712 55.8417 35.625 55.3717L25.7954 16.5983ZM19.3218 18.0465C19.3759 18.0238 19.6873 17.8925 20.1235 17.7384C20.5656 17.5823 21.2883 17.3477 22.2137 17.1451C24.0656 16.7398 27.2455 16.3515 31.018 17.3486C39.5264 19.5977 42.6678 26.2482 43.3144 27.8193L6.32518 43.0442C7.63645 46.2299 11.5192 53.5683 20.7957 56.0204C24.9523 57.1191 28.523 56.7111 30.7661 56.2201C32.8539 55.7632 34.462 55.0726 34.8267 54.9193L19.3218 18.0465Z" fill="#FFEE00"/>
</g>
</svg>
