<svg width="41" height="23" viewBox="0 0 41 23" fill="none" xmlns="http://www.w3.org/2000/svg">
<path d="M25.0105 7.18539C27.6662 4.35935 33.2331 1.4328 37.7066 2.09468C42.3943 2.78827 36.3512 5.30425 34.6595 6.17101C32.7005 7.17474 28.4394 8.73133 26.0724 8.18099C23.2422 7.52296 20.0111 7.41791 16.8851 7.88043C15.1504 8.13709 9.72328 9.75024 13.284 10.6418C14.8575 11.0358 17.4311 10.8842 18.9857 10.3976C20.3391 9.974 22.5307 10.3128 23.6717 9.47715C23.8597 9.33948 25.703 8.2373 25.8416 8.35005C26.1406 8.59339 26.4003 10.5753 26.6726 11.0739C27.2317 12.0977 29.5684 15.7145 28.1268 16.653C27.2468 17.2259 26.7998 18.5544 25.6107 19.1701C24.1855 19.9082 22.212 20.3724 20.5323 20.3724C18.5883 20.3724 14.7196 20.8112 14.1843 18.8508C13.5815 16.6435 11.7143 14.1875 11.7143 11.9192C11.7143 10.8519 11.4305 10.9643 11.7374 12.0882C11.9561 12.889 12.2106 14.0005 13.0532 14.5491C14.8488 15.7181 20.9362 13.9188 22.7252 13.2717C24.9006 12.4849 27.0881 10.5023 27.0881 13.7789C27.0881 15.6026 22.5368 17.2182 20.7631 17.3292C19.1635 17.4294 17.7143 18.0055 16.0771 18.0055C15.3878 18.0055 13.2721 18.0055 13.3763 18.0055" stroke="#545454" stroke-width="3" stroke-linecap="round" stroke-linejoin="round"/>
<path d="M18.7784 10.9057C18.1986 9.69653 17.8027 8.47377 16.7009 7.52439C15.947 6.87484 14.3659 6.58624 13.7923 6.00281C12.9519 5.14793 8.90638 5.46288 8.80624 6.84813C8.73666 7.8107 10.0262 7.81533 10.8838 8.1255C11.362 8.29846 11.8334 8.31481 12.315 8.53877C12.8194 8.77336 12.0181 9.01638 11.7148 8.70783C10.8814 7.86011 5.64931 8.92169 6.40554 10.2294C7.05478 11.3521 10.1638 10.2294 11.507 10.2294C13.5035 10.2294 15.5394 10.3248 17.5319 10.2294C18.1711 10.1988 14.8514 6.75788 13.5846 6.52879C12.6504 6.35986 11.3002 6.43449 10.4683 6.77299C8.65484 7.51085 11.6153 6.9147 11.507 7.35532C11.318 8.12453 13.6436 6.44421 12.9613 7.69345C12.6463 8.27024 12.7767 8.13875 13.3768 7.93765C13.9115 7.7585 13.6647 8.48352 14.2078 8.53877C14.7758 8.59654 15.7628 8.94004 16.193 9.29017C16.7778 9.76605 15.1567 8.19642 14.4387 7.86251C12.745 7.07495 18.7829 9.69196 16.7009 9.89128C14.4457 10.1072 12.2075 10.2294 9.84501 10.2294C9.58602 10.2294 7.19038 10.958 7.19038 10.3985C7.19038 9.93709 9.62781 9.89128 10.0528 9.89128C10.7572 9.89128 16.0477 10.7484 15.0388 9.72222C14.1141 8.78158 10.0127 9.83674 8.80624 9.89128C7.0488 9.97074 12.9065 8.96607 12.9613 8.8769" stroke="#699BF7" stroke-width="3" stroke-linecap="round" stroke-linejoin="round"/>
<path d="M26.2578 6.84683C26.3076 6.83771 29.6145 5.83245 28.3353 5.83245C27.6636 5.83245 26.947 7.14739 27.3197 7.14739C27.9062 7.14739 29.3157 5.6446 29.074 5.6446C28.171 5.6446 27.2298 7.31246 26.9042 7.84243C26.4373 8.60221 31.9359 4.25495 29.1664 6.5087C26.7118 8.50615 33.6714 3.92428 30.8284 5.08105C28.9627 5.84019 30.0647 6.80302 28.9586 7.52309C28.2473 7.98617 30.1709 7.6915 30.4129 7.59823C31.4073 7.21489 32.3377 6.7587 33.3214 6.35842C34.0001 6.08228 37.6891 4.45781 37.2457 3.61583C36.6891 2.55903 33.6573 3.201 32.6982 3.63462C31.9104 3.99077 28.7509 4.66897 28.7509 5.49432C28.7509 6.63552 33.5725 5.11675 34.1524 4.8932C34.9948 4.5685 35.7925 4.18734 36.6455 3.87882C37.5121 3.5654 37.7776 3.21673 36.8532 3.63462C35.2966 4.33837 32.8816 4.42012 31.6594 5.66338C30.7013 6.63796 34.6988 4.62317 35.3066 4.06667C35.7063 3.7008 33.414 4.46439 33.1368 4.649C32.8111 4.86583 30.8888 6.08453 31.6594 5.49432C33.94 3.74761 31.9767 4.80273 30.9207 5.90759C30.5023 6.34537 32.0005 5.55489 31.821 5.70095C31.2941 6.12974 30.8284 6.58356 30.8284 7.18496" stroke="#699BF7" stroke-width="3" stroke-linecap="round" stroke-linejoin="round"/>
<path d="M13.792 14.9628C17.6353 14.9628 20.8687 13.6091 24.5952 13.2721C26.0084 13.1444 26.8153 11.9757 26.6727 13.9484C26.5889 15.1073 24.362 14.8618 23.7642 15.47C23.3121 15.9299 20.5201 16.4658 19.7938 16.6346C18.6416 16.9025 16.9925 17.7216 15.8695 17.6678C15.1745 17.6345 13.6239 15.973 14.2075 16.2401C16.0442 17.0809 17.5127 16.272 19.3783 15.9959C21.0284 15.7518 22.3732 14.9722 23.9488 14.6059C25.1112 14.3356 26.1559 13.7021 24.3643 13.9672C21.1586 14.4415 12.5037 17.514 14.8077 15.639C14.974 15.5037 18.419 15.3009 18.7781 15.3009C19.8838 15.3009 22.1758 14.8919 23.1409 14.4556C23.8101 14.153 26.8938 14.173 25.1954 14.9628C23.9168 15.5573 22.2506 15.2606 20.8556 15.639" stroke="#699BF7" stroke-width="3" stroke-linecap="round" stroke-linejoin="round"/>
<path d="M17.5322 7.86133C18.1383 8.49262 19.0571 9.8901 20.0253 9.8901C21.0083 9.8901 21.7581 9.55197 22.7261 9.55197C24.9659 9.55197 25.4353 8.19946 22.7261 8.19946C21.9619 8.19946 17.4392 8.01554 19.6098 8.80057C20.2445 9.03013 20.837 9.48557 21.064 9.3829C21.3815 9.23936 22.7994 9.21384 23.3493 9.21384" stroke="#545454" stroke-width="3" stroke-linecap="round" stroke-linejoin="round"/>
<path d="M20.4404 9.21337C21.5915 8.84783 22.545 8.53711 23.7645 8.53711" stroke="#545454" stroke-width="3" stroke-linecap="round" stroke-linejoin="round"/>
<path d="M37.4758 3.12727C36.7274 5.83383 30.7877 8.19919 27.5036 8.19919C25.0993 8.19919 25.2205 6.91291 26.7649 5.90743C28.0767 5.05344 30.279 4.90458 31.5663 4.06651C33.2145 2.99351 41.3207 1.85912 37.3834 4.74277C35.0457 6.45491 30.6498 8.87544 27.5036 8.87544C27.0802 8.87544 25.5579 8.41554 25.4492 8.72516C25.2352 9.33441 26.2113 10.234 26.2571 10.9042C26.3477 12.2318 27.4136 13.3783 27.5036 14.6236C27.607 16.0533 28.8499 16.2513 27.8268 17.6668C26.7532 19.1519 25.0305 19.0739 23.6717 19.9585C22.938 20.4362 19.3403 20.7099 18.3624 20.7099C17.0138 20.7099 14.3159 21.1964 14.2074 19.6955C14.0939 18.1261 13.3249 16.7189 12.453 15.2999C11.8102 14.2536 11.2988 10.7488 11.2988 11.9186" stroke="#545454" stroke-width="3" stroke-linecap="round" stroke-linejoin="round"/>
<path d="M12.1299 12.2578C12.7778 15.0258 15.0384 23.1906 15.0384 20.3729" stroke="#545454" stroke-width="3" stroke-linecap="round" stroke-linejoin="round"/>
<path d="M18.7782 10.2277C17.6595 8.97589 15.5619 5.49389 13.1689 5.49389C11.6975 5.49389 11.0007 5.15268 9.45242 5.51267C8.54322 5.72407 7.89652 7.89274 8.80608 7.52266" stroke="#545454" stroke-width="3" stroke-linecap="round" stroke-linejoin="round"/>
<path d="M18.7787 10.2293C17.7033 10.5708 13.6956 11.9058 12.5461 10.7365C11.2872 9.45591 8.38889 12.1061 6.82132 10.8304C4.99092 9.34088 8.23226 8.50311 9.45286 8.21931C11.0192 7.85512 12.9437 8.36232 14.2081 8.87678" stroke="#545454" stroke-width="3" stroke-linecap="round" stroke-linejoin="round"/>
<path d="M3.4043 5.49414H3.4044" stroke="#699BF7" stroke-width="3" stroke-linecap="round" stroke-linejoin="round"/>
<path d="M2.57362 5.49465C5.7499 7.29615 5.33432 4.91076 3.40464 4.81839C1.87017 4.74494 2.98924 5.72012 3.61239 6.00184C4.14495 6.24261 4.96075 5.7319 4.23565 5.41951C2.12559 4.51045 1.188 6.84716 3.40464 6.84716C5.53276 6.84716 4.75835 5.49465 2.98913 5.49465" stroke="#699BF7" stroke-width="3" stroke-linecap="round" stroke-linejoin="round"/>
<path d="M2.15775 4.48047C2.0306 5.07176 1.61881 6.78179 2.98877 6.84736C3.90952 6.89144 4.79959 7.03517 5.27406 6.34017C6.26712 4.88555 3.1122 4.8186 2.15775 4.8186" stroke="#545454" stroke-width="3" stroke-linecap="round" stroke-linejoin="round"/>
<path d="M11.7148 12.9331C15.0596 13.4642 17.2722 12.2568 20.4405 12.2568C22.4965 12.2568 24.0115 11.6491 25.8421 10.9043" stroke="#545454" stroke-width="3" stroke-linecap="round" stroke-linejoin="round"/>
</svg>
