<svg width="297" height="41" viewBox="0 0 297 41" fill="none" xmlns="http://www.w3.org/2000/svg">
<path d="M295.377 7.61914C295.336 9.91499 295.29 12.2214 295.227 14.5139C295.169 16.633 295.227 18.7209 295.227 20.8385C295.227 23.4263 295.227 26.0141 295.227 28.6019C295.227 30.8521 295.029 33.1018 295.077 35.3473C295.089 35.9097 295.715 37.4782 294.71 37.4782C293.831 37.4782 292.843 37.7229 291.983 37.8514C290.23 38.1134 288.519 38.2789 286.738 38.2789C277.346 38.2789 267.935 37.5996 258.535 37.9396C252.308 38.1648 246.07 38.3305 239.839 38.4961C232.548 38.6898 225.235 38.914 217.94 38.8897C210.107 38.8636 202.29 38.3272 194.457 38.2789C186.474 38.2297 178.485 37.9263 170.507 37.6953C163.08 37.4803 155.623 37.361 148.192 37.3017C144.74 37.2742 141.297 37.1338 137.843 37.1864C134.578 37.236 131.306 37.5454 128.044 37.6953C123.138 37.9209 118.25 37.9125 113.334 37.9125C111.8 37.9125 110.265 37.9125 108.731 37.9125C108.039 37.9125 107.352 37.9681 106.696 37.7903" stroke="#545454" stroke-width="3" stroke-linecap="round" stroke-linejoin="round"/>
<path d="M243.441 7.98438C243.935 11.467 244.466 15.05 244.492 18.5572C244.518 22.0067 245.026 25.4358 245.093 28.8857C245.132 30.9655 245.543 33.0202 245.543 35.1018C245.543 35.6744 245.668 36.2212 245.693 36.7848C245.697 36.8817 245.693 37.4504 245.693 37.0562" stroke="#545454" stroke-width="3" stroke-linecap="round" stroke-linejoin="round"/>
<path d="M198.109 5.05469C197.877 6.2106 197.959 7.34822 197.776 8.50205C197.534 10.0287 197.933 11.5822 197.959 13.1166C197.988 14.8319 198.011 16.5099 197.959 18.2198C197.907 19.953 197.755 21.6926 197.651 23.4248C197.458 26.637 197.829 29.957 197.284 33.1493C197.103 34.2076 197.209 35.3184 197.209 36.3863C197.209 36.9862 197.059 37.5506 197.059 38.1575" stroke="#545454" stroke-width="3" stroke-linecap="round" stroke-linejoin="round"/>
<path d="M100.692 5.29883C100.692 11.2085 101.143 17.1105 101.143 23.0242C101.143 25.6661 101.34 28.2766 101.56 30.9097C101.696 32.5469 101.419 34.2226 101.86 35.8365C101.988 36.306 102.043 37.0073 102.043 37.4787C102.043 37.9691 102.894 37.6984 103.252 37.6619C104.448 37.5403 105.633 37.5466 106.847 37.5466" stroke="#545454" stroke-width="3" stroke-linecap="round" stroke-linejoin="round"/>
<path d="M2.22381 2C1.72024 4.56119 2.22381 7.12119 2.22381 9.70906C2.22381 12.6 2.22381 15.4908 2.22381 18.3817C2.22381 21.3168 1.66101 24.6152 2.37391 27.5159C2.84047 29.4143 2.82423 31.8048 2.82423 33.7456C2.82423 34.7612 3.05959 35.741 3.12443 36.6908C3.22345 38.1412 4.16183 36.6045 5.22589 36.9893C6.68638 37.5176 8.98767 37.1794 10.5629 37.1794C14.8149 37.1794 18.9921 36.9351 23.2384 36.9351C29.6643 36.9351 36.0293 37.4237 42.4517 37.4237C46.6729 37.4237 50.8374 36.7306 55.0605 36.9215C58.811 37.091 62.5791 37.4237 66.3349 37.4237C69.5197 37.4237 72.7293 37.8763 75.9083 37.9123C80.5046 37.9642 85.0806 37.3908 89.5844 36.6908C93.7101 36.0495 97.9484 36.2022 102.126 36.2022C102.862 36.2022 105.74 35.868 106.096 36.4465" stroke="#545454" stroke-width="3" stroke-linecap="round" stroke-linejoin="round"/>
</svg>
