<svg width="44" height="47" viewBox="0 0 44 47" fill="none" xmlns="http://www.w3.org/2000/svg">
<g style="mix-blend-mode:multiply" opacity="0.55">
<path d="M21.8168 2.18909L27.6971 25.3929L28.2519 25.2477C28.8465 25.0922 29.4134 24.8316 29.8479 24.3952C31.2905 22.9457 34.3256 18.8993 32.5167 11.7612C31.9804 9.64486 32.1822 6.62512 32.5338 4.07028C32.8435 1.82332 30.7968 -0.159828 28.5979 0.415349L21.8168 2.18909ZM17.3522 20.2305L8.15149 12.6104L8.15149 12.6104L17.3522 20.2305ZM12.7017 28.8439L0.697523 28.7893L12.7017 28.8439ZM18.337 34.2705L14.8237 45.772L18.337 34.2705ZM31.645 29.0818L43.4115 31.3534L31.645 29.0818ZM27.3762 19.8289L36.4347 11.8743L27.3762 19.8289ZM20.7287 17.1857L8.75264 18.1324L20.7287 17.1857ZM21.6035 22.4686L9.60124 22.8491L21.6035 22.4686ZM26.6645 29.9566L21.6239 40.8888L26.6645 29.9566ZM28.1607 29.7185L39.5652 33.3601L28.1607 29.7185ZM24.4002 26.3828L28.1515 14.9546L24.4002 26.3828ZM19.0897 25.9132L9.37076 18.9616L19.0897 25.9132ZM23.3635 26.7616L14.0731 19.2505L23.3635 26.7616ZM31.9734 25.2564L7.99543 24.2281L7.96563 24.7993C7.9337 25.4115 8.01072 26.0273 8.29598 26.567C9.24386 28.3592 12.1915 32.415 19.5677 32.7314C21.7547 32.8251 24.5813 33.8822 26.9178 34.9492C28.9726 35.8881 31.4911 34.5018 31.6092 32.2379L31.9734 25.2564ZM21.8168 2.18909C17.1791 3.40218 13.9586 6.16987 12.0895 8.04982C10.3767 9.77261 8.55892 12.121 8.15149 12.6104L26.553 27.8505C26.86 27.4818 27.1605 27.1095 27.406 26.8054C27.6693 26.4792 27.8834 26.2138 28.0994 25.952C28.5332 25.4263 28.8253 25.0995 29.0465 24.8771C29.2675 24.6548 29.286 24.6719 29.1132 24.7871C28.9231 24.9138 28.4432 25.1977 27.6971 25.3929L21.8168 2.18909ZM8.15149 12.6104C7.30995 13.6212 5.55959 15.665 4.12014 17.976C2.69929 20.2572 0.762945 24.0413 0.697523 28.7893L24.7058 28.8985C24.6943 29.7344 24.5168 30.3086 24.4328 30.5372C24.3539 30.7522 24.3237 30.7549 24.473 30.5154C24.6185 30.2816 24.8521 29.948 25.2232 29.4739C25.6086 28.9813 26.0045 28.5093 26.553 27.8505L8.15149 12.6104ZM0.697523 28.7893C0.614601 34.8074 3.72671 39.1118 6.74685 41.6156C9.53251 43.925 12.646 45.1261 14.8237 45.772L21.8503 22.769C21.2526 22.5917 21.528 22.5563 22.1797 23.0966C22.5699 23.4201 23.229 24.0659 23.7909 25.1238C24.3893 26.2506 24.7242 27.565 24.7058 28.8985L0.697523 28.7893ZM14.8237 45.772C19.0776 47.0335 24.5688 47.5696 29.8961 45.969C35.8164 44.1902 41.7606 39.516 43.4115 31.3534L19.8784 26.8103C20.0314 26.0537 20.487 25.0371 21.3625 24.1631C22.1634 23.3636 22.9147 23.0796 23.1762 23.0011C23.4181 22.9284 23.3824 22.9818 23.0248 22.9692C22.6859 22.9573 22.2646 22.8919 21.8503 22.769L14.8237 45.772ZM43.4115 31.3534C44.5282 25.8323 42.9839 21.2395 41.112 17.9942C39.5146 15.2249 37.2494 12.8027 36.4347 11.8743L18.3177 27.7836C18.4808 27.9694 18.6451 28.1555 18.7898 28.3195C18.9398 28.4894 19.0745 28.6423 19.2045 28.791C19.4659 29.0901 19.6704 29.3294 19.8432 29.5404C20.205 29.982 20.2966 30.1426 20.2812 30.116C20.2523 30.0658 20.0363 29.6806 19.8949 29.0161C19.7416 28.2959 19.7348 27.5204 19.8784 26.8103L43.4115 31.3534ZM36.4347 11.8743C36.2861 11.7051 31.6221 4.79583 22.9116 4.42228L21.6614 28.3897C20.9755 28.3603 20.1602 28.2083 19.3186 27.8655C18.4966 27.5307 17.9103 27.1202 17.5708 26.8425C17.2733 26.5991 17.1607 26.4512 17.3313 26.6421C17.4122 26.7326 17.5116 26.8475 17.6863 27.0516C17.8379 27.2288 18.0742 27.5061 18.3177 27.7836L36.4347 11.8743ZM22.9116 4.42228C21.9063 4.37917 19.8372 4.38703 17.524 5.17078C16.3494 5.56876 14.1505 6.48553 12.1686 8.58931C9.84 11.0613 8.49668 14.4763 8.75264 18.1324L32.7047 16.239C32.9364 19.5476 31.7076 22.6886 29.5815 24.9455C27.8022 26.8343 25.8937 27.5952 25.0467 27.8822C23.3886 28.444 22.1227 28.4095 21.6614 28.3897L22.9116 4.42228ZM8.75264 18.1324C8.82906 19.2238 8.98739 20.1735 9.12642 20.8869C9.25617 21.5526 9.41542 22.2325 9.4877 22.5506C9.6926 23.4526 9.61074 23.2709 9.60124 22.8491L33.6057 22.0882C33.5548 19.8289 33.0967 17.8795 32.9052 17.0363C32.6318 15.833 32.6873 15.9903 32.7047 16.239L8.75264 18.1324ZM9.60124 22.8491C9.66919 25.8642 10.2395 29.7306 12.629 33.445C15.0289 37.1758 18.4098 39.4329 21.6239 40.8888L31.7052 19.0245C31.1375 18.7673 32.0276 19.0456 32.8624 20.3433C33.6866 21.6246 33.6173 22.6034 33.6057 22.0882L9.60124 22.8491ZM21.6239 40.8888C22.6425 41.3502 24.7706 42.1735 27.496 42.1479C28.9584 42.1341 31.3609 41.8662 33.8676 40.4077C36.6571 38.7846 38.6226 36.2329 39.5652 33.3601L16.7562 26.0768C17.5924 23.5284 19.3714 21.1929 21.9274 19.7056C24.2006 18.3829 26.3228 18.1705 27.4914 18.1595C29.6292 18.1394 31.1157 18.7574 31.7052 19.0245L21.6239 40.8888ZM39.5652 33.3601C41.0052 28.9716 39.95 24.9196 38.208 22.1191C36.7104 19.7115 34.777 18.2646 33.6764 17.5351C31.4257 16.0433 29.0736 15.2491 28.1515 14.9546L20.6489 37.8109C21.0084 37.9258 20.8232 37.9261 20.2756 37.5632C20.0265 37.3981 18.8288 36.5992 17.7823 34.9169C16.4915 32.8416 15.6028 29.592 16.7562 26.0768L39.5652 33.3601ZM28.1515 14.9546C27.1131 14.6229 25.2586 14.212 23.6763 13.9687C22.8598 13.8431 21.5426 13.6689 20.1336 13.6734C19.4674 13.6755 18.2312 13.7135 16.7966 14.0505C15.826 14.2785 12.0694 15.2186 9.37076 18.9616L28.8087 32.8647C27.4419 34.7605 25.8246 35.8374 24.7224 36.4145C23.6189 36.9922 22.6605 37.266 22.0876 37.4005C20.9865 37.6592 20.1728 37.6622 19.9884 37.6627C19.5429 37.6642 19.4263 37.6207 19.8106 37.6798C20.0926 37.7231 20.4318 37.789 20.7354 37.856C21.204 37.9594 21.0938 37.9531 20.6489 37.8109L28.1515 14.9546ZM9.37076 18.9616C8.06055 20.7789 4.39654 26.9597 8.42654 33.6717C11.7679 39.2368 17.5355 39.8481 19.0474 39.952C21.4224 40.1152 23.712 39.7213 25.6503 39.0568C27.4215 38.4496 30.3349 37.1248 32.6539 34.2726L14.0731 19.2505C15.7156 17.2303 17.5104 16.5568 18.0458 16.3733C18.7483 16.1324 19.6848 15.9345 20.9143 16.019C21.5399 16.062 22.6711 16.2076 24.0169 16.7812C25.3647 17.3557 27.504 18.6227 29.0466 21.192C32.6713 27.229 29.1344 32.413 28.8087 32.8647L9.37076 18.9616ZM32.6539 34.2726C36.4544 29.5982 36.2197 24.0708 34.5667 20.2841C33.1497 17.0381 30.7546 14.8684 28.6595 13.5955C26.8453 12.4933 22.9131 10.6656 18.0607 11.8514C15.264 12.5348 12.4843 14.1964 10.507 16.9524C8.64815 19.5434 8.09829 22.2562 7.99543 24.2281L31.9734 25.2564C31.9098 26.4754 31.5467 28.6231 29.9781 30.8095C28.2911 33.1609 25.9052 34.5784 23.5619 35.1511C19.6163 36.1153 16.8292 34.5992 16.0469 34.1239C14.9837 33.4779 13.5072 32.2505 12.5442 30.0444C11.3451 27.2976 11.0996 22.9076 14.0731 19.2505L32.6539 34.2726Z" fill="#979797"/>
</g>
</svg>
