<svg width="37" height="43" viewBox="0 0 37 43" fill="none" xmlns="http://www.w3.org/2000/svg">
<g style="mix-blend-mode:multiply" opacity="0.55">
<path d="M29.9981 9.1206L10.6041 23.5923L10.9418 24.048C11.3037 24.5364 11.7532 24.9583 12.3173 25.1895C14.1909 25.9566 19.0585 27.1822 25.0246 22.7303C26.7935 21.4104 29.6712 20.4199 32.1721 19.749C34.3718 19.1594 35.4644 16.4968 34.1259 14.6906L29.9981 9.1206ZM12.8519 13.0834L24.6111 15.3216L12.8519 13.0834ZM13.9411 18.7646L25.9053 17.5205L13.9411 18.7646ZM15.4859 27.8729L24.8043 20.1532L15.4859 27.8729ZM19.83 30.6297L13.503 40.926L13.503 40.926L19.83 30.6297ZM23.4691 28.4323L12.3358 24.1238L23.4691 28.4323ZM23.7856 18.8732L14.402 26.5132L14.402 26.5132L23.7856 18.8732ZM10.6282 19.4089L33.9947 13.4632L33.8621 12.9095C33.72 12.3161 33.4721 11.7507 33.0452 11.3181C31.627 9.88177 27.6453 6.86305 20.4572 8.6921C18.326 9.23439 15.3073 9.04231 12.7575 8.69908C10.5149 8.39678 8.48244 10.4472 9.00788 12.6416L10.6282 19.4089ZM29.9981 9.1206C29.1417 7.96507 27.3911 5.59636 24.6331 3.75564C21.4991 1.66397 18.1351 0.891458 14.9139 0.763991L13.5594 24.7257C13.6167 24.728 13.3092 24.7222 12.7878 24.5719C12.2204 24.4084 11.6152 24.1363 11.0532 23.7612C10.5263 23.4095 10.2305 23.0955 10.1757 23.0356C10.1544 23.0124 10.2532 23.1189 10.6041 23.5923L29.9981 9.1206ZM14.9139 0.763991C15.1895 0.774897 15.6888 0.821439 15.1031 0.768619C14.8862 0.749059 13.9582 0.659136 12.8383 0.730126C11.8188 0.794753 9.38188 1.04911 6.81591 2.64653C3.72635 4.56991 1.76371 7.60587 1.09266 10.8452L24.6111 15.3216C23.9981 18.2805 22.1744 21.1313 19.2763 22.9355C16.9018 24.4137 14.7089 24.6148 13.9579 24.6624C13.4811 24.6926 13.1088 24.6836 12.9042 24.6751C12.6972 24.6665 12.5529 24.6531 12.5432 24.6522C12.2465 24.6255 13.0308 24.7048 13.5594 24.7257L14.9139 0.763991ZM1.09266 10.8452C0.626603 13.095 0.751394 15.0613 0.964149 16.4688C1.17145 17.8402 1.51579 18.9988 1.7189 19.6525C1.82115 19.9816 1.93502 20.3293 1.99304 20.5085C2.06607 20.734 2.09868 20.8391 2.11817 20.9057C2.17054 21.0846 2.03688 20.6927 1.97695 20.0087L25.9053 17.5205C25.7656 15.9256 25.4086 14.5963 25.1827 13.8244C25.0631 13.4155 24.9428 13.0418 24.8603 12.7869C24.7627 12.4856 24.7184 12.3511 24.6708 12.198C24.5743 11.8873 24.6526 12.0812 24.7161 12.501C24.785 12.9568 24.8881 13.9844 24.6111 15.3216L1.09266 10.8452ZM1.97695 20.0087C1.97586 19.9962 1.98241 20.0686 1.9859 20.2772C1.9895 20.4925 1.9887 20.7484 1.9854 21.1434C1.97985 21.8087 1.95996 23.061 2.03499 24.3444C2.18422 26.8971 2.76959 31.4778 6.16754 35.5926L24.8043 20.1532C26.1133 21.7384 26.0519 23.1982 26.0137 22.5459C25.9951 22.2267 25.9964 21.8554 26.004 20.9395C26.0101 20.2168 26.0255 18.892 25.9053 17.5205L1.97695 20.0087ZM6.16754 35.5926C8.1554 37.9998 10.5603 39.353 11.5709 39.9095C12.1472 40.2268 12.7705 40.5425 13.0474 40.6853C13.4303 40.8828 13.513 40.9321 13.503 40.926L26.1571 20.3334C25.4455 19.9051 24.759 19.5495 24.3515 19.3394C24.0872 19.2032 23.9728 19.1452 23.7819 19.0461C23.6244 18.9644 23.5187 18.908 23.4401 18.8648C23.2624 18.7669 23.342 18.7998 23.5399 18.9429C23.7344 19.0835 24.2407 19.4707 24.8043 20.1532L6.16754 35.5926ZM13.503 40.926C15.5287 42.1454 18.3991 43.2238 21.8566 42.9601C25.3708 42.692 28.0927 41.1448 29.9088 39.5815C32.951 36.9627 34.2629 33.5845 34.6024 32.7408L12.3358 24.1238C12.2905 24.2364 12.3598 24.0403 12.56 23.6968C12.7305 23.4043 13.2872 22.4909 14.4008 21.5323C15.6314 20.473 17.6836 19.2587 20.4282 19.0494C23.116 18.8444 25.1167 19.7072 26.1571 20.3334L13.503 40.926ZM34.6024 32.7408C35.3013 31.0045 36.3387 28.096 36.7224 24.8018C37.0778 21.7506 37.1264 16.1119 33.1692 11.2332L14.402 26.5132C13.443 25.3308 13.0713 24.151 12.9375 23.4251C12.8722 23.0704 12.8586 22.8041 12.8569 22.6528C12.856 22.5744 12.8582 22.5166 12.8602 22.4812C12.8612 22.4632 12.8623 22.4498 12.863 22.4413C12.8634 22.437 12.8637 22.4338 12.8639 22.4317C12.864 22.4306 12.8641 22.4298 12.8642 22.4293C12.8642 22.4291 12.8642 22.4289 12.8643 22.4287C12.8641 22.4304 12.8645 22.4269 12.8643 22.4286C12.8641 22.4303 12.8645 22.4268 12.8643 22.4285C12.8641 22.4302 12.8645 22.4269 12.8643 22.4286C12.8641 22.4303 12.8645 22.427 12.8643 22.4287C12.8642 22.4289 12.8642 22.4291 12.8642 22.4293C12.8641 22.4298 12.864 22.4306 12.8639 22.4316C12.8636 22.4336 12.8632 22.4365 12.8627 22.4404C12.8616 22.4483 12.8598 22.4596 12.8573 22.4744C12.8523 22.5044 12.8445 22.5459 12.8331 22.5991C12.8099 22.7076 12.7753 22.8466 12.7262 23.0149C12.6256 23.3601 12.4905 23.7393 12.3358 24.1238L34.6024 32.7408ZM33.1692 11.2332C32.932 10.9407 32.8867 10.8872 32.8101 10.7897C32.7624 10.729 32.8296 10.8102 32.9403 10.9772C33.1874 11.35 33.6947 12.2102 33.9947 13.4632L10.6282 19.4089C11.607 23.4967 14.2933 26.3791 14.402 26.5132L33.1692 11.2332Z" fill="#86FA16"/>
</g>
</svg>
