<svg width="80" height="49" viewBox="0 0 80 49" fill="none" xmlns="http://www.w3.org/2000/svg">
<g style="mix-blend-mode:multiply" opacity="0.55">
<path d="M14.898 39.0464L27.102 0.953606L26.1942 0.662742C25.2212 0.35103 24.1944 0.21283 23.1988 0.441643C19.8924 1.20245 12.0567 4.21368 8.3024 15.932C7.18929 19.4064 4.24179 23.4989 1.49374 26.7995C-0.923747 29.7019 0.203669 34.3387 3.80185 35.4914L14.898 39.0464ZM24.2954 20.4783L23.0519 40.4396L24.2954 20.4783ZM30.037 20.8845L29.1882 40.8665L30.037 20.8845ZM37.6872 21.5921L40.4634 1.78568L37.6872 21.5921ZM46.5917 21.5921L45.4416 1.62517L45.4416 1.62517L46.5917 21.5921ZM59.002 21.5921L44.5111 35.3766L44.5111 35.3767L59.002 21.5921ZM59.4304 23.6034L39.4822 25.041L39.4822 25.041L59.4304 23.6034ZM59.9836 28.8448L40.0323 27.4493L40.0323 27.4494L59.9836 28.8448ZM56.8674 28.8448L57.07 8.84586L57.07 8.84586L56.8674 28.8448ZM41.6448 28.3993L43.6853 8.50368L43.6853 8.50367L41.6448 28.3993ZM34.7736 28.0455L33.6055 8.07966L33.6055 8.07966L34.7736 28.0455ZM27.3103 28.2814L25.3786 8.37488L25.3786 8.37488L27.3103 28.2814ZM12.9019 45.2287L32.4636 10.3382L31.632 9.87203C30.7409 9.37239 29.7623 9.03203 28.7411 9.05751C25.3493 9.14306 17.0703 10.5297 11.0526 21.2629C9.26842 24.4452 5.56338 27.867 2.21183 30.5527C-0.736331 32.9143 -0.557073 37.6827 2.73862 39.5305L12.9019 45.2287ZM14.898 39.0464C18.6934 40.2624 22.3733 40.3973 23.0519 40.4396L25.5389 0.516971C25.2674 0.500058 25.14 0.491414 25.0471 0.484035C24.9641 0.477438 24.9975 0.478559 25.1038 0.491842C25.2109 0.505221 25.4428 0.537116 25.7638 0.602086C26.0848 0.66706 26.5447 0.77505 27.102 0.953606L14.898 39.0464ZM23.0519 40.4396C23.3487 40.4581 27.4162 40.7912 29.1882 40.8665L30.8857 0.902499C28.8044 0.814099 29.0713 0.737024 25.5389 0.516971L23.0519 40.4396ZM29.1882 40.8665C31.0926 40.9474 32.9221 41.1197 34.911 41.3985L40.4634 1.78568C37.3113 1.34387 34.1912 1.0429 30.8857 0.902499L29.1882 40.8665ZM34.911 41.3985C40.2358 42.1448 45.6336 41.6804 47.7419 41.559L45.4416 1.62517C43.6909 1.72601 42.7426 1.79196 41.7339 1.81211C41.2981 1.82081 40.9856 1.8163 40.7625 1.8066C40.5407 1.79696 40.451 1.78395 40.4634 1.78568L34.911 41.3985ZM47.7419 41.559C48.6168 41.5086 49.2891 41.5331 51.5075 41.5331V1.5331C50.4498 1.5331 47.8367 1.48721 45.4416 1.62517L47.7419 41.559ZM51.5075 41.5331C53.1322 41.5331 54.62 41.4088 55.2198 41.3625C56.0757 41.2966 56.0252 41.3103 55.8468 41.3103V1.31035C54.2254 1.31035 52.7337 1.43551 52.145 1.4809C51.3002 1.54604 51.3398 1.5331 51.5075 1.5331V41.5331ZM55.8468 41.3103C56.1214 41.3103 56.4319 41.3041 56.4388 41.304C56.5444 41.3021 56.6107 41.301 56.6771 41.3003C56.8274 41.2988 56.8464 41.3011 56.7732 41.2986C56.7301 41.2971 56.5979 41.2922 56.3978 41.2765C56.2177 41.2624 55.8275 41.2279 55.3021 41.1451C54.8666 41.0764 53.7928 40.8926 52.4364 40.4389C51.7359 40.2045 50.6684 39.8024 49.4366 39.1397C48.2613 38.5074 46.3821 37.3435 44.5111 35.3766L73.4928 7.8075C71.5771 5.79355 69.6374 4.5863 68.3878 3.91403C67.0817 3.21134 65.9261 2.77267 65.1256 2.50492C63.5693 1.98432 62.2482 1.74615 61.5333 1.63341C60.0597 1.40102 58.7714 1.34333 58.126 1.32149C57.0697 1.28575 54.9676 1.31035 55.8468 1.31035V41.3103ZM44.5111 35.3767C42.2279 32.9765 41.0362 30.4787 40.4129 28.7249C39.8045 27.0129 39.5967 25.6135 39.5148 24.9277C39.4694 24.5477 39.4473 24.2473 39.4362 24.0675C39.4304 23.9744 39.4268 23.901 39.4248 23.8542C39.4227 23.8081 39.4218 23.7792 39.4218 23.7791C39.4125 23.5062 39.4348 24.3837 39.4822 25.041L79.3787 22.1659C79.4045 22.5239 79.4203 23.0611 79.399 22.431C79.3891 22.1371 79.3598 21.25 79.2325 20.1838C79.052 18.6726 78.3154 12.8772 73.4928 7.80748L44.5111 35.3767ZM39.4822 25.041C39.5765 26.3503 39.756 27.4437 39.8909 28.1694C39.9591 28.5364 40.0249 28.8558 40.0718 29.079C40.0954 29.1913 40.1178 29.2961 40.1342 29.3729C40.1527 29.4594 40.1634 29.5094 40.1742 29.5604C40.2226 29.7891 40.1748 29.5867 40.1244 29.2455C40.0686 28.8676 39.9836 28.1636 39.9836 27.2462H79.9836C79.9836 25.7033 79.8405 24.3849 79.6948 23.3987C79.5545 22.4494 79.385 21.6449 79.3062 21.2729C79.1907 20.7274 79.2133 20.838 79.2176 20.8613C79.2404 20.9841 79.3286 21.4713 79.3787 22.1659L39.4822 25.041ZM39.9836 27.2462C39.9836 27.4274 39.9851 27.5906 39.9871 27.7277C39.989 27.8638 39.9914 27.9854 39.9935 28.0781C39.9945 28.1249 39.9955 28.1688 39.9963 28.2048C39.9972 28.2454 39.9978 28.2693 39.9985 28.2992C39.9997 28.3546 40.0002 28.379 40.0004 28.3914C40.0006 28.4022 40.0003 28.3869 40.0001 28.3543C39.9999 28.3213 39.9999 28.2633 40.0009 28.1863C40.0028 28.036 40.0092 27.7795 40.0323 27.4493L79.9348 30.2403C80.0148 29.097 80.0021 28.1402 79.9944 27.6999C79.9912 27.5145 79.9844 27.2247 79.9841 27.2117C79.9821 27.1214 79.9836 27.1595 79.9836 27.2462H39.9836ZM40.0323 27.4494C40.5606 19.8964 44.9761 15.1439 47.9024 12.9362C50.5817 10.9148 53.1046 10.0884 54.1192 9.78472C56.2856 9.13623 58.0169 9.04681 58.3095 9.02897C58.9005 8.99295 59.32 8.99965 59.4458 9.00207C59.5341 9.00376 59.5976 9.00611 59.6317 9.00754C59.6499 9.0083 59.6633 9.00894 59.6717 9.00937C59.6801 9.0098 59.6847 9.01006 59.6852 9.01009C59.6855 9.01011 59.6747 9.00947 59.6514 9.00783C59.6284 9.00621 59.5978 9.00393 59.5588 9.00082C59.4779 8.99438 59.384 8.98627 59.2621 8.97531C59.2009 8.96981 58.9507 8.94692 58.8104 8.93475C58.7256 8.92739 58.5655 8.9137 58.3813 8.90048C58.326 8.89651 57.7596 8.85284 57.07 8.84586L56.6647 48.8438C55.7583 48.8346 54.9467 48.7498 55.3535 48.7851C55.4213 48.791 55.4373 48.7928 55.6797 48.8146C56.0206 48.8452 56.6595 48.9017 57.3608 48.9425C57.8803 48.9727 59.2262 49.0473 60.7433 48.9549C61.307 48.9205 63.2638 48.801 65.5895 48.1048C66.6838 47.7773 69.2697 46.9226 71.993 44.8681C74.9632 42.6272 79.4035 37.8368 79.9348 30.2403L40.0323 27.4494ZM57.07 8.84586C55.3592 8.82852 53.7246 8.86736 52.4173 8.89999C51.0082 8.93516 49.9799 8.96276 48.9678 8.96276V48.9628C50.5924 48.9628 52.1938 48.918 53.4153 48.8875C54.7387 48.8545 55.7355 48.8344 56.6647 48.8438L57.07 8.84586ZM48.9678 8.96276C47.8478 8.96276 46.8301 8.82621 43.6853 8.50368L39.6043 48.2949C41.2929 48.4681 45.2033 48.9628 48.9678 48.9628V8.96276ZM43.6853 8.50367C41.8662 8.31711 37.7849 7.83515 33.6055 8.07966L35.9416 48.0114C35.9313 48.012 36.001 48.0077 36.1703 48.0103C36.3396 48.013 36.5751 48.022 36.8982 48.0433C37.6144 48.0905 38.3696 48.1683 39.6043 48.2949L43.6853 8.50367ZM33.6055 8.07966C32.9948 8.11538 32.3998 8.11531 30.8676 8.12849C29.5853 8.13953 27.5718 8.16206 25.3786 8.37488L29.242 48.1879C29.5281 48.1601 30.0036 48.1374 31.2118 48.127C32.1701 48.1188 34.067 48.1211 35.9416 48.0114L33.6055 8.07966ZM25.3786 8.37488C24.5878 8.45162 25.1804 8.35596 26.1318 8.41399C27.2158 8.48011 29.6788 8.77693 32.4636 10.3382L12.9019 45.2287C20.5495 49.5164 28.5928 48.2509 29.242 48.1879L25.3786 8.37488Z" fill="#FFEE00"/>
</g>
</svg>
