<svg width="59" height="23" viewBox="0 0 59 23" fill="none" xmlns="http://www.w3.org/2000/svg">
<path d="M14.3012 16.6734C13.1128 15.3436 12.5 13.1728 12.5 11.543C12.5 11.0467 14.1018 10.1131 14.6015 9.88723C17.0803 8.76656 20.353 8.64422 22.8572 7.51208C23.997 6.99678 26.2106 6.67376 27.4937 6.41272C29.2945 6.04638 31.3778 5.45475 33.0809 4.82477C34.5258 4.29034 36.288 4.41561 37.7175 3.83399C38.8407 3.37699 40.9363 2.50391 42.2206 2.50391" stroke="#545454" stroke-width="3" stroke-linecap="round" stroke-linejoin="round"/>
<path d="M15.5029 17.4075C18.2096 16.9355 20.9609 16.2465 23.5418 15.4531C25.538 14.8394 27.6002 15.02 29.6127 14.6659C33.1063 14.0512 36.2289 12.5749 39.5863 11.7343C41.6704 11.2125 43.9722 10.1815 46.1242 10.0785C46.5842 10.0564 46.7246 9.64792 46.7246 9.34556C46.7246 8.71645 46.907 8.82574 47.2583 8.36836C47.8406 7.6102 49.2193 7.09584 50.1603 6.65825C52.2198 5.70055 50.4606 5.13179 50.0436 3.60449C49.7794 2.63726 48.4558 3.23804 47.4751 3.23804C46.3672 3.23804 45.668 2.92898 44.7566 2.50513C44.0505 2.17681 43.1181 1.48134 42.8052 2.62728C42.5278 3.64329 42.5217 4.60503 42.5217 5.68105C42.5217 7.69937 44.6326 8.61651 46.4244 9.34556" stroke="#545454" stroke-width="3" stroke-linecap="round" stroke-linejoin="round"/>
<path d="M50.0264 3.23735C50.8177 2.98604 53.2168 1.90201 53.9291 2.62659C54.068 2.76796 56.8825 3.34362 56.7977 3.48165C56.5787 3.83818 54.2526 4.45885 53.779 4.45885C52.9422 4.45885 51.5982 4.83223 51.2272 5.43606" stroke="#545454" stroke-width="3" stroke-linecap="round" stroke-linejoin="round"/>
<path d="M50.7773 3.23749C51.4513 3.1171 52.2579 2.94632 52.8788 2.72174C53.3338 2.55717 53.9423 3.03348 54.4632 3.14248C55.1117 3.27818 55.8177 3.60394 56.4813 3.60394C57.2273 3.60394 55.0926 4.06522 54.4632 4.39113C53.7676 4.75135 52.1202 5.62044 51.8197 4.52007C51.6983 4.07547 51.29 3.60394 52.1366 3.60394C52.4744 3.60394 54.1629 3.49514 54.2297 3.60394" stroke="#FFC700" stroke-width="3" stroke-linecap="round" stroke-linejoin="round"/>
<path d="M53.3291 2.26172C54.001 2.48842 55.0158 2.70816 55.5807 3.11677C55.9651 3.39488 56.5666 3.60537 57.0817 3.60537" stroke="#D27C2C" stroke-width="3" stroke-linecap="round" stroke-linejoin="round"/>
<path d="M14.3015 10.4451C11.8528 11.9547 13.4411 15.0153 15.3856 16.2812C15.7817 16.539 16.6362 16.1414 17.0784 16.0029C18.052 15.6982 19.1451 15.3933 20.1556 15.1818C21.2467 14.9535 22.0965 14.4275 23.2327 14.3471C24.2916 14.2722 25.4261 14.0305 26.46 13.8382C30.1615 13.1497 33.5449 11.5166 37.3008 10.9608C38.2113 10.8261 39.4323 10.9226 40.2779 10.6215C41.0517 10.346 41.7755 10.009 42.5211 9.73933C42.9619 9.57991 43.4911 9.61295 43.9471 9.40681C44.2811 9.2558 43.9084 9.54045 43.7553 9.44074C43.5861 9.33059 43.3346 9.17605 43.2049 9.04036C42.3418 8.13727 41.7706 7.22102 41.7706 6.04767C41.7706 5.74095 41.5726 5.42911 41.6288 5.13154C41.6889 4.81394 41.7863 4.57429 41.7706 4.24256C41.7605 4.02987 41.6369 3.83123 41.6205 3.60466C41.604 3.37644 41.1629 3.6858 41.0117 3.72681C39.1994 4.21842 37.4623 4.81537 35.608 5.19262C34.5618 5.40546 33.4931 5.65178 32.4641 5.92552C31.1937 6.2635 29.8508 6.53737 28.6281 6.9638C26.3511 7.75793 23.8739 8.12166 21.5899 8.91821C20.7054 9.2267 19.7389 9.38912 18.8046 9.56289C18.3792 9.64202 17.902 9.6308 17.4871 9.73933C17.0569 9.85186 16.6311 10.1282 16.1862 10.194C15.6075 10.2796 14.98 10.3414 14.4516 10.5944C14.005 10.8082 13.8512 12.026 13.8512 12.3927C13.8512 13.1577 14.3986 14.4017 15.052 14.9647C15.2495 15.1348 15.7221 15.8285 15.9527 15.4533" stroke="#FFC700" stroke-width="3" stroke-linecap="round" stroke-linejoin="round"/>
<path d="M15.8027 13.7433C16.6585 13.2517 17.7981 13.0146 18.8048 12.7932C19.4525 12.6507 19.9608 12.2772 20.5727 12.0603C21.2102 11.8344 21.8984 11.6859 22.5491 11.4835C25.1902 10.6617 27.9058 10.2086 30.5963 9.52906C31.9645 9.18353 33.2462 8.69528 34.499 8.12433C35.3008 7.75896 36.2958 7.63587 37.0842 7.26928C37.5536 7.05099 37.9654 6.99726 38.3934 6.72639C38.7163 6.52201 39.1392 6.27299 39.5192 6.16992" stroke="#FFC700" stroke-width="8" stroke-linecap="round" stroke-linejoin="round"/>
<path d="M15.0518 12.0327C16.7827 11.5632 18.5145 11.1904 20.222 10.6619C22.1295 10.0716 24.0457 9.21356 26.0427 8.85683C26.9451 8.69564 27.8843 8.67763 28.7946 8.54467C29.676 8.41593 30.5082 8.13731 31.4131 8.12393C32.1564 8.11293 33.5638 8.04187 34.115 8.49038" stroke="#FFC700" stroke-width="8" stroke-linecap="round" stroke-linejoin="round"/>
<path d="M20.9062 14.2322C22.4467 14.1765 23.9713 13.6327 25.4594 13.3229C26.7361 13.0571 28.0177 12.9978 29.2287 12.5221C29.9451 12.2407 30.7033 12.0209 31.4469 11.7892C32.5509 11.4451 33.6334 10.9057 34.7492 10.622C36.304 10.2266 37.7927 9.78842 39.2773 9.23082C39.7182 9.06525 40.6514 8.96916 40.8701 8.61328" stroke="#FFC700" stroke-width="8" stroke-linecap="round" stroke-linejoin="round"/>
<path d="M14.1518 9.58984C13.2534 10.1216 12.3506 10.8699 12.3506 11.8564C12.3506 12.8233 12.7534 13.6125 12.951 14.5369C13.1318 15.3829 13.8234 16.0702 14.3853 16.7696C14.7486 17.2217 15.5304 17.5745 15.803 18.0182" stroke="#545454" stroke-width="3" stroke-linecap="round" stroke-linejoin="round"/>
<path d="M15.6523 17.897C16.7633 17.0187 18.0787 16.812 19.4883 16.3769C20.7371 15.9914 22.0386 15.76 23.3077 15.454C24.3438 15.2041 25.4501 15.215 26.4682 14.9043C27.6638 14.5395 28.9267 14.3777 30.1374 14.0492C32.6461 13.3687 35.2821 13.008 37.7844 12.2781C38.9758 11.9305 40.0265 11.326 41.2451 10.9955C42.0473 10.7779 42.9076 10.6351 43.7218 10.4458C44.1481 10.3467 44.5204 10.1298 44.9227 9.98435C45.2201 9.87678 46.2071 9.83505 45.8816 9.83505C44.909 9.83505 43.928 8.54265 43.505 7.97565C42.2574 6.30345 41.735 4.02948 42.8212 2.26172" stroke="#545454" stroke-width="3" stroke-linecap="round" stroke-linejoin="round"/>
<path d="M14.1514 10.6893C15.1497 10.2137 16.1174 10.0972 17.1868 9.80711C18.2902 9.50781 19.4758 9.06141 20.6058 8.85705C21.8963 8.62368 23.1918 8.40214 24.4418 8.06307C25.0862 7.88827 25.8243 7.72938 26.4933 7.6084C27.3206 7.45877 28.0495 7.05907 28.8616 6.87549C30.1159 6.59195 31.3454 6.11723 32.6142 5.83043C33.8957 5.54075 35.373 5.21281 36.5836 4.765C37.4432 4.44702 38.4091 4.35627 39.2855 4.0321C39.8954 3.80648 40.6418 3.48242 41.3202 3.48242" stroke="white" stroke-width="3" stroke-linecap="round" stroke-linejoin="round"/>
<path d="M14.0013 11.5448C13.894 11.7686 13.2986 13.2695 14.1514 12.8613C15.2613 12.33 16.2832 11.8603 17.4537 11.4226C18.7431 10.9405 20.2956 10.8464 21.5399 10.2961C23.1588 9.58011 25.123 8.95142 26.8769 8.49101C27.9327 8.21386 28.9938 7.93354 29.9957 7.54095C30.8586 7.20285 31.8363 7.09124 32.6976 6.75376C33.9312 6.2704 35.2424 5.75221 36.5503 5.4101C37.3088 5.21169 38.2733 4.7403 39.0687 4.70434C39.6249 4.6792 40.0715 4.33789 40.5698 4.33789" stroke="white" stroke-width="3" stroke-linecap="round" stroke-linejoin="round"/>
<path d="M14.9023 11.299C16.716 10.7498 18.5642 10.2757 20.3811 9.71779C21.3732 9.41314 22.3404 9.17916 23.2748 8.76094C23.771 8.53888 24.2595 8.23489 24.8092 8.12305" stroke="white" stroke-width="3" stroke-linecap="round" stroke-linejoin="round"/>
<path d="M21.957 8.73556C23.2653 8.28991 24.4513 7.71163 25.8264 7.39191C26.7907 7.1677 27.7747 6.98638 28.7201 6.72008C30.6869 6.16605 32.6549 5.66877 34.5991 5.07105C35.2892 4.85889 36.0682 4.79682 36.784 4.60959C37.4752 4.42878 38.216 4.22094 38.9188 4.09384C39.6885 3.95465 40.547 3.32392 41.3205 3.36094C41.6253 3.37553 41.1809 5.04243 41.087 5.06426C39.9866 5.3201 38.7824 5.4863 37.6846 5.80395C34.3026 6.78251 30.4211 6.94068 27.2107 8.24696" stroke="white" stroke-width="3" stroke-linecap="round" stroke-linejoin="round"/>
<path d="M15.5029 16.5532C16.3332 16.1577 17.6913 15.6812 18.6551 15.5692C19.6624 15.4521 20.6295 15.0514 21.6572 14.9584C24.2853 14.7208 26.9251 13.7714 29.4626 13.228C31.0748 12.8827 32.5324 12.1339 34.1158 11.7825C34.8999 11.6085 35.7865 11.3052 36.5509 11.0564C37.2304 10.8352 37.9173 10.7875 38.619 10.6289C39.0519 10.531 43.2706 9.22147 43.4223 9.46844" stroke="#D27C2C" stroke-width="3" stroke-linecap="round" stroke-linejoin="round"/>
<path d="M11.7494 11.0547C9.91392 11.6376 8.08134 12.1099 6.27058 12.7648C5.98089 12.8696 4.86205 13.0176 4.84459 13.1312C4.72128 13.934 4.80246 14.6218 5.21985 15.4521C6.15111 17.3046 7.22442 18.7855 9.34772 19.7002C9.93262 19.9522 11.4536 18.7803 12.0413 18.4516C12.5945 18.1421 13.1227 17.5287 13.8508 17.5287" stroke="#FFC700" stroke-width="3" stroke-linecap="round" stroke-linejoin="round"/>
<path d="M4.69532 16.4297C4.55181 16.5009 3.31824 16.9563 3.42777 17.2237C3.65112 17.7689 3.87917 18.2027 4.31172 18.6827C4.90296 19.3388 4.79033 19.3677 5.8211 18.9948C6.41432 18.7803 5.76538 17.6813 5.29573 17.434C4.73614 17.1394 4.19582 18.0176 4.99553 18.0176" stroke="#FFC700" stroke-width="3" stroke-linecap="round" stroke-linejoin="round"/>
<path d="M11.1492 11.9102C11.1492 12.879 11.2829 14.1197 11.7829 15.0182C12.007 15.421 12.1066 15.8572 12.35 16.2533C12.5107 16.5148 12.808 16.7187 12.9504 16.9794C13.2324 17.4957 12.1137 17.8279 11.5995 18.0448C11.1725 18.225 9.83644 19.0394 9.27285 18.6827C8.1487 17.9712 7.395 16.6695 7.02129 15.5882C6.74892 14.8002 6.74352 14.2688 6.79613 13.4981C6.84011 12.8539 7.95934 13.1515 8.43894 12.8263C8.72807 12.6302 8.30601 13.6708 8.29717 13.6949C8.21236 13.9266 7.50618 15.6044 7.99697 15.7375C8.28052 15.8145 9.30422 13.6894 9.43129 13.4574C9.97127 12.4717 9.74653 13.2962 9.61475 13.9053C9.39366 14.9272 8.90322 16.3366 9.23116 17.3798C9.44303 18.0538 10.4718 15.9938 10.5321 15.8325C10.6476 15.5236 10.9049 14.5801 10.7656 14.8825C10.5136 15.4291 10.4118 16.4707 10.5821 17.0405C10.6719 17.3409 11.6427 16.7642 11.2325 16.2397C10.812 15.7019 11.0048 14.8932 10.8406 14.2921C10.714 13.8286 9.66329 13.6063 9.23116 13.4031C8.52421 13.0707 8.07032 12.8673 7.3215 13.0027C6.91559 13.0761 6.02503 13.4262 5.89551 13.7424" stroke="#FFC700" stroke-width="3" stroke-linecap="round" stroke-linejoin="round"/>
<path d="M7.69727 18.9956C8.22162 19.3188 8.70971 19.5347 9.27336 19.7895C9.62809 19.9499 11.0708 19.1298 11.4832 18.9956C11.8932 18.8621 14.3018 18.1344 14.3018 17.6519C14.3018 17.4321 13.8319 17.1749 13.6264 17.0412C13.2506 16.7965 12.718 17.2178 12.3505 17.4076C11.4962 17.8488 10.6061 18.2003 9.64028 18.4459C9.33516 18.5235 8.57774 18.5398 8.44779 18.7513" stroke="#D27C2C" stroke-width="3" stroke-linecap="round" stroke-linejoin="round"/>
<path d="M4.54492 12.7659C6.43012 12.1593 8.3398 11.9063 10.2489 11.4493C10.3987 11.4135 11.5831 11.0991 11.5831 11.2458C11.5831 11.5681 11.3232 11.9313 11.2996 12.2773C11.2698 12.7132 10.7417 12.7659 10.3239 12.7659C9.53066 12.7659 8.54581 13.0725 7.76382 13.2273C7.15971 13.3469 6.36735 13.4349 5.82081 13.682C5.5819 13.79 4.81268 13.8652 4.84513 13.8652" stroke="white" stroke-width="3" stroke-linecap="round" stroke-linejoin="round"/>
<path d="M12.9511 9.58984C12.1919 12.756 13.8627 15.8329 15.9531 18.3847" stroke="#545454" stroke-width="3" stroke-linecap="round" stroke-linejoin="round"/>
<path d="M15.0525 17.6511C13.8907 18.0431 12.8751 18.759 11.8169 19.307C11.1822 19.6356 10.4432 20.2624 9.64875 20.3384C9.43771 20.3587 9.20361 20.6276 8.98162 20.576C8.73039 20.5175 8.43025 20.2292 8.22276 20.0941C7.24709 19.459 6.5701 18.6802 6.01289 17.7733C5.33221 16.6654 4.69531 15.7458 4.69531 14.482C4.69531 14.1379 4.72973 12.9061 5.14562 12.8873C5.71947 12.8613 6.47582 12.4857 7.02193 12.3376C8.04248 12.0608 8.94699 11.5621 9.94896 11.245C10.6956 11.0087 11.7259 10.5664 12.5007 10.5664" stroke="#545454" stroke-width="3" stroke-linecap="round" stroke-linejoin="round"/>
<path d="M4.54498 15.5742C3.87841 15.8067 3.24047 16.1118 2.59363 16.375C2.44113 16.437 2.05617 16.5859 2.00155 16.7414C1.72023 17.5427 2.93925 18.5165 3.4609 19.0623C3.96577 19.5905 4.05801 19.767 4.85353 19.6052C5.39213 19.4956 5.75187 19.2973 6.19613 19.1166" stroke="#545454" stroke-width="3" stroke-linecap="round" stroke-linejoin="round"/>
<path d="M13.1006 9.834C14.293 9.81033 15.7295 9.38039 16.8449 9.04002C18.1233 8.64987 19.4667 8.39829 20.7559 8.02888C22.1752 7.62219 23.7307 7.34818 25.2006 7.08561C27.1965 6.72908 29.1261 6.11969 31.0464 5.55873C32.521 5.12795 34.0522 4.80398 35.4995 4.31008C36.6797 3.9073 37.8397 3.45458 39.0686 3.17679C40.2298 2.9143 41.3898 2.68965 42.521 2.38281" stroke="#545454" stroke-width="3" stroke-linecap="round" stroke-linejoin="round"/>
<path d="M42.9713 2.50391C42.1502 4.15467 41.6163 5.89178 42.8963 7.51208C43.591 8.39148 44.4382 9.25362 45.6732 9.58864" stroke="#545454" stroke-width="3" stroke-linecap="round" stroke-linejoin="round"/>
<path d="M43.7217 6.41365C43.8796 6.72362 45.2056 8.57197 45.9399 7.97446C46.8506 7.23337 47.9189 6.49767 49.0504 5.98612C49.5044 5.78088 49.4354 5.55859 48.9003 5.55859C48.4672 5.55859 47.6969 5.87871 47.3242 6.0472C46.2098 6.551 45.3927 6.2915 44.3221 6.2915" stroke="#FFC700" stroke-width="3" stroke-linecap="round" stroke-linejoin="round"/>
<path d="M45.9736 8.48956C46.6047 7.81163 47.7897 6.53516 48.9757 6.53516" stroke="#D27C2C" stroke-width="3" stroke-linecap="round" stroke-linejoin="round"/>
<path d="M45.6731 9.59036C44.4109 8.98908 43.5067 8.58392 43.0463 7.38487C42.632 6.30604 42.302 5.49616 42.5209 4.33789" stroke="#545454" stroke-width="3" stroke-linecap="round" stroke-linejoin="round"/>
<path d="M46.2734 9.83473C46.5565 8.58061 47.746 7.59701 49.042 6.96419C49.6638 6.66058 50.6233 6.0864 51.377 6.04806C51.5473 6.0394 51.1004 5.70085 51.0017 5.62054C50.5482 5.25144 50.2059 4.84103 49.8259 4.41939C49.5201 4.08007 49.3412 2.96758 49.8759 2.75" stroke="#545454" stroke-width="3" stroke-linecap="round" stroke-linejoin="round"/>
</svg>
