<svg width="40" height="40" viewBox="0 0 40 40" fill="none" xmlns="http://www.w3.org/2000/svg">
<g style="mix-blend-mode:multiply" opacity="0.55">
<path d="M27.2986 3.66788L26.1882 27.6422L26.7595 27.6698C27.3718 27.6993 27.9881 27.62 28.529 27.3327C30.3251 26.3783 34.3925 23.416 34.7341 16.0409C34.8354 13.8543 35.9025 11.0245 36.9779 8.68462C37.9241 6.62687 36.5459 4.11447 34.2815 4.00511L27.2986 3.66788ZM16.878 25.6413L9.57655 35.1504L16.878 25.6413ZM27.0854 22.5851L15.175 21.1073L27.0854 22.5851ZM25.1498 14.4908L32.5317 5.04407L25.1498 14.4908ZM20.9221 12.071L19.5264 23.9878L20.9221 12.071ZM19.1018 12.3318L29.5019 6.36675L19.1018 12.3318ZM20.501 17.6923L32.4996 17.8014L20.501 17.6923ZM23.4394 24.0913L22.2738 36.0333L23.4394 24.0913ZM24.7022 20.6852L12.7076 20.9834L24.7022 20.6852ZM18.9748 15.0747L22.1229 3.5002L18.9748 15.0747ZM25.6122 13.3488L2.47924 19.689L2.6314 20.2407C2.79446 20.832 3.06232 21.3935 3.5042 21.8191C4.97215 23.2324 9.05754 26.1859 16.1738 24.2355C18.2837 23.6572 21.3065 23.7988 23.8661 24.0995C26.1174 24.3643 28.0749 22.2788 27.4719 20.0922L25.6122 13.3488ZM27.2986 3.66788C26.7084 3.63938 26.105 3.56871 24.7398 3.43185C23.5895 3.31653 21.9418 3.16211 20.1832 3.16366C16.8192 3.16663 10.98 3.71673 6.08719 8.26146L22.4361 25.864C20.7644 27.4167 19.1752 27.1668 20.2514 27.1659C20.713 27.1655 21.3329 27.2081 22.3929 27.3144C23.238 27.3991 24.7875 27.5745 26.1882 27.6422L27.2986 3.66788ZM6.08719 8.26146C3.63801 10.5364 1.61852 13.6925 1.04006 17.6421C0.482114 21.4517 1.45563 24.7008 2.5578 26.9666C4.55633 31.0751 7.89425 33.8568 9.57655 35.1504L24.1794 16.1322C23.862 15.8881 23.6707 15.7082 23.5958 15.6291C23.4821 15.509 23.787 15.7884 24.1331 16.5C24.5013 17.2569 25.1116 18.9336 24.7846 21.1666C24.437 23.5396 23.2426 25.1148 22.4361 25.864L6.08719 8.26146ZM9.57655 35.1504C13.3295 38.0362 19.1911 40.6547 25.6777 39.3212C29.1617 38.605 32.506 36.7601 35.0257 33.6975C37.4674 30.7295 38.6035 27.2766 38.9959 24.0629L15.175 21.1073C15.1975 20.9227 15.3846 19.7598 16.4829 18.4248C17.6592 16.9951 19.2656 16.126 20.802 15.8101C22.1914 15.5245 23.1844 15.7454 23.5907 15.8699C23.8195 15.94 23.97 16.011 24.0508 16.0537C24.1333 16.0972 24.1725 16.1268 24.1794 16.1322L9.57655 35.1504ZM38.9959 24.0629C39.2228 22.2043 41.1327 11.7742 32.5317 5.04407L17.7679 23.9375C17.0924 23.4089 16.4629 22.6816 15.9992 21.814C15.5579 20.9884 15.402 20.2909 15.3472 19.9284C15.2969 19.5967 15.3227 19.4869 15.3106 19.7452C15.2981 20.0133 15.2618 20.3965 15.175 21.1073L38.9959 24.0629ZM32.5317 5.04407C32.452 4.98168 31.0026 3.78456 29.7446 2.9589C28.3087 2.0164 25.7455 0.562318 22.3179 0.154081L19.5264 23.9878C18.5946 23.8769 17.8706 23.632 17.3991 23.4309C16.942 23.2359 16.6656 23.0575 16.6061 23.0185C16.5501 22.9817 16.5883 23.0025 16.8048 23.1721C16.9112 23.2555 17.024 23.3457 17.1913 23.4796C17.341 23.5995 17.551 23.7678 17.7679 23.9375L32.5317 5.04407ZM22.3179 0.154081C22.0661 0.124092 20.9144 -0.00697543 19.6393 0.0123422C19.3135 0.0172786 17.4513 0.0159861 15.3904 0.711208C14.5969 0.978887 11.308 2.11477 9.02501 5.63235C5.86726 10.4978 7.12384 15.551 8.70178 18.2969L29.5019 6.36675C30.1597 7.51152 30.9551 9.35022 31.0615 11.7381C31.1754 14.2962 30.4595 16.7285 29.1613 18.7288C26.9313 22.1648 23.7488 23.2373 23.0998 23.4562C22.0217 23.8199 21.1625 23.9251 20.8567 23.959C20.4654 24.0024 20.177 24.0099 20.0498 24.0118C19.7127 24.0169 19.6104 23.9979 19.5264 23.9878L22.3179 0.154081ZM8.70178 18.2969C8.75443 18.3885 8.74574 18.384 8.71074 18.3018C8.67292 18.213 8.62329 18.078 8.57973 17.9118C8.53626 17.746 8.51486 17.6102 8.50561 17.5271C8.49716 17.4512 8.50333 17.4589 8.50244 17.5831L32.4996 17.8014C32.5295 13.6031 31.5827 9.98769 29.5019 6.36675L8.70178 18.2969ZM8.50244 17.5831C8.49523 18.5946 8.45086 21.7333 9.37846 24.9115C10.3085 28.0982 13.5875 35.1683 22.2738 36.0333L24.605 12.1493C26.985 12.3863 29.1416 13.551 30.6346 15.1884C31.8945 16.5702 32.3078 17.8644 32.4137 18.2273C32.5808 18.7996 32.4919 18.8806 32.4996 17.8014L8.50244 17.5831ZM22.2738 36.0333C28.2074 36.6242 32.2099 33.181 34.0243 30.5615C35.5436 28.3681 36.0727 26.1775 36.2743 25.23C36.7286 23.0949 36.7164 21.1193 36.6967 20.3871L12.7076 20.9834C12.7043 20.8616 12.7069 20.8262 12.708 20.8073C12.7091 20.7886 12.7125 20.7367 12.7226 20.6534C12.7321 20.5753 12.7539 20.4146 12.8018 20.1897C12.8385 20.0171 13.1249 18.5477 14.2893 16.8666C14.9391 15.9286 16.1064 14.5718 17.9993 13.519C20.0342 12.3872 22.3488 11.9246 24.605 12.1493L22.2738 36.0333ZM36.6967 20.3871C36.533 14.2774 33.0247 10.1257 30.5343 7.97985C27.9522 5.7549 24.9083 4.26313 22.1229 3.5002L15.8267 26.6492C15.4489 26.5457 15.2307 26.4436 14.8914 26.1512C14.6439 25.9379 12.7955 24.2618 12.7076 20.9834L36.6967 20.3871ZM22.1229 3.5002C21.1763 3.24094 18.0435 2.39915 14.7299 2.63313C13.2796 2.73554 9.13488 3.18458 5.72418 6.63333C1.39959 11.0062 1.59469 16.4816 2.47924 19.689L25.6122 13.3488C26.1218 15.1968 26.5353 19.7544 22.8018 23.5295C19.9822 26.3806 16.8013 26.5522 16.4666 26.5758C15.3845 26.6522 15.0911 26.4477 15.8267 26.6492L22.1229 3.5002Z" fill="#FF99F8"/>
</g>
</svg>
