<svg width="38" height="44" viewBox="0 0 38 44" fill="none" xmlns="http://www.w3.org/2000/svg">
<g style="mix-blend-mode:multiply" opacity="0.55">
<path d="M37.7628 20.5543L13.782 19.593L13.7502 20.1641C13.716 20.7761 13.7908 21.3915 14.0742 21.9303C15.0159 23.7192 17.9496 27.7655 25.3267 28.0612C27.514 28.1489 30.3376 29.1978 32.6708 30.2579C34.7228 31.1908 37.247 29.798 37.3733 27.5345L37.7628 20.5543ZM24.6996 14.2505L32.2916 4.84257L24.6996 14.2505ZM17.6828 12.4793L19.5251 0.602979L17.6828 12.4793ZM15.4374 13.6279L3.50715 12.443L15.4374 13.6279ZM12.7858 23.574L0.927646 21.8647L12.7858 23.574ZM14.3038 30.5279L7.93786 40.7934L7.93786 40.7934L14.3038 30.5279ZM21.5389 29.5255L10.5445 24.8737L21.5389 29.5255ZM24.5367 17.1699L12.813 14.7549L24.5367 17.1699ZM18.6265 24.7863L24.5456 1.4546L23.9908 1.32239C23.3963 1.18072 22.7758 1.14524 22.1875 1.32772C20.2337 1.9343 15.6478 4.09406 13.827 11.2715C13.2871 13.3995 11.6705 15.9813 10.1444 18.0805C8.8018 19.9265 9.64732 22.6466 11.846 23.1705L18.6265 24.7863ZM37.7628 20.5543C37.7627 20.5562 37.7639 20.5339 37.7685 20.4758C37.7731 20.4169 37.7794 20.3421 37.7891 20.2331C37.8048 20.0549 37.8387 19.6868 37.8656 19.3405C37.9202 18.637 37.9957 17.4577 37.9161 16.1147C37.759 13.4665 36.8745 8.50444 32.2916 4.84257L17.1077 23.6585C15.8022 22.6154 14.9533 21.3237 14.4715 20.1318C14.032 19.0446 13.9573 18.1955 13.94 17.9043C13.923 17.6176 13.9458 17.5202 13.9195 17.8595C13.9059 18.0346 13.8923 18.1783 13.8644 18.4939C13.8415 18.7533 13.8063 19.1582 13.782 19.593L37.7628 20.5543ZM32.2916 4.84257C29.0776 2.27453 25.434 1.4937 23.7358 1.17898C22.7086 0.988602 21.748 0.867491 21.0528 0.785073C20.2047 0.68452 19.9067 0.65619 19.5251 0.602979L15.8405 24.3556C16.2449 24.412 16.636 24.459 16.9582 24.4966C17.1204 24.5156 17.2872 24.5346 17.432 24.5513C17.583 24.5687 17.7204 24.5845 17.8546 24.6004C18.413 24.6666 18.7533 24.7153 18.9977 24.7606C19.2508 24.8075 19.1883 24.8135 18.9387 24.723C18.7044 24.6381 17.9746 24.3512 17.1077 23.6585L32.2916 4.84257ZM19.5251 0.602979C19.3152 0.573713 18.4237 0.4396 17.5655 0.388074C16.8376 0.344366 14.4084 0.205733 11.6612 1.31217C8.15884 2.72275 5.91512 5.36198 4.7307 7.93188C3.80808 9.93376 3.58488 11.7674 3.50715 12.443L27.3677 14.8127C27.3578 14.8982 27.3216 15.1974 27.2261 15.6199C27.1331 16.031 26.9359 16.7776 26.5221 17.6756C25.5162 19.858 23.5137 22.2577 20.3453 23.5337C17.9321 24.5057 15.9296 24.3376 15.7515 24.3269C15.4432 24.3084 15.2245 24.2697 15.8405 24.3556L19.5251 0.602979ZM3.50715 12.443C3.4736 12.7346 3.35416 13.2586 2.77957 14.9812C2.33069 16.3269 1.38706 18.9905 0.927646 21.8647L24.644 25.2833C24.7254 24.7743 24.9116 24.1683 25.5553 22.2384C26.0733 20.6855 27.0092 17.928 27.3677 14.8127L3.50715 12.443ZM0.927646 21.8647C0.777422 22.8045 0.297109 25.6083 0.594856 28.6383C0.898794 31.7312 2.27572 37.3476 7.93786 40.7934L20.6698 20.2624C22.1905 21.1879 23.2179 22.4723 23.8138 23.6739C24.3533 24.7617 24.4687 25.6257 24.4984 25.9281C24.5299 26.2486 24.5043 26.3639 24.5207 26.1755C24.5363 25.9955 24.5688 25.7539 24.644 25.2833L0.927646 21.8647ZM7.93786 40.7934C10.9491 42.626 14.9144 43.8631 19.1312 43.5414C23.6993 43.193 29.6759 40.7146 32.5334 34.1774L10.5445 24.8737C11.2579 23.2416 12.4941 21.8152 14.0482 20.853C15.4944 19.9576 16.831 19.6935 17.6734 19.6293C19.1762 19.5146 20.1067 19.9197 20.6698 20.2624L7.93786 40.7934ZM32.5334 34.1774C33.8842 31.0871 34.6131 28.0152 35.0991 25.6275C35.752 22.4194 35.7696 21.8007 36.2605 19.585L12.813 14.7549C12.4157 16.5483 11.7708 20.1938 11.5651 21.2045C11.1924 23.0356 10.8665 24.137 10.5445 24.8737L32.5334 34.1774ZM36.2605 19.585C36.6584 17.7887 37.8059 12.1559 33.9401 7.07245C30.6598 2.75879 25.7096 1.73198 24.5456 1.4546L18.6265 24.7863C19.057 24.8889 18.7626 24.8525 18.1841 24.5885C17.5549 24.3013 16.0539 23.5058 14.7288 21.7632C11.7789 17.8841 12.9934 13.9404 12.813 14.7549L36.2605 19.585Z" fill="#B38FFF"/>
</g>
</svg>
