<svg width="82" height="31" viewBox="0 0 82 31" fill="none" xmlns="http://www.w3.org/2000/svg">
<path d="M32.7671 13.6491C29.8491 14.0765 27.8009 15.2713 26.4961 17.4358C25.514 19.0649 25.9786 21.0983 27.1382 22.5661C29.168 25.1356 33.2667 25.3737 36.2195 23.6383C37.8388 22.6866 39.2101 21.5448 39.7052 19.9331C40.2148 18.2745 39.6198 16.6593 38.6212 15.2371C37.9401 14.2671 36.1276 13.4086 34.7935 13.1673C34.1644 13.0535 32.179 13.1404 31.8665 13.6491" stroke="#545454" stroke-width="3" stroke-linecap="round" stroke-linejoin="round"/>
<path d="M25.562 17.1916C24.4984 17.0227 23.4765 16.9409 22.3765 17.0966C21.1866 17.265 19.969 17.1917 18.799 17.3748C17.6584 17.5533 16.4604 17.2442 15.2882 17.3205C14.7026 17.3586 14.1596 17.4359 13.562 17.4359C13.0634 17.4359 12.6994 17.2386 12.2027 17.4087C11.7204 17.574 11.0459 17.4158 10.5516 17.5852C10.0459 17.7584 9.45546 17.9263 8.96717 18.0398C7.9377 18.2792 6.8886 17.8023 5.89837 17.8023C4.79782 17.8023 3.36328 18.3106 3.36328 19.3903C3.36328 20.0599 4.39209 20.5302 5.08114 20.605C6.4934 20.7582 7.99129 20.8561 9.41748 20.8561C12.7868 20.8561 16.1358 20.576 19.4828 20.3743C20.8885 20.2895 22.2643 20.1232 23.6774 20.1232C24.2913 20.1232 25.211 19.8513 25.7121 20.1232" stroke="#545454" stroke-width="3" stroke-linecap="round" stroke-linejoin="round"/>
<path d="M40.2719 20.3679C41.4585 20.1795 43.7863 20.0466 43.7243 18.685C43.6934 18.0057 42.905 17.1112 42.2232 16.7645C41.5928 16.4438 40.6896 16.4591 39.9717 16.4591" stroke="#545454" stroke-width="3" stroke-linecap="round" stroke-linejoin="round"/>
<path d="M65.563 6.50349C64.4226 5.82853 63.0557 6.24146 61.8703 6.71074C61.0321 7.0426 60.4052 7.55734 59.642 7.90238C59.3259 8.04529 59.1127 7.86406 58.8143 7.85057C58.3259 7.82849 58.7297 8.20333 58.6799 8.42624C58.5801 8.87302 57.8808 8.95194 57.4419 9.07099C56.877 9.22422 57.1833 9.48322 57.159 9.81937C57.128 10.2482 55.5332 9.82353 56.3667 10.6714C56.4853 10.792 56.6696 11.2196 56.6425 11.3737C56.6235 11.4823 56.6034 12.0124 56.5718 12.0587C56.3284 12.4153 55.6602 12.5794 55.6309 13.0316C55.611 13.3399 55.8275 13.4779 55.5036 13.757C55.1945 14.0233 55.2941 14.138 55.5036 14.4363C55.7629 14.8055 55.2741 14.9635 55.0721 15.2595C55.0011 15.3635 55.396 15.7343 55.2772 16.0136C55.1385 16.3398 55.2489 16.397 55.2489 16.7102C55.2489 17.0051 54.6848 18.0909 55.5319 17.8788C56.185 17.7153 56.0435 17.9853 56.3384 18.3624C56.593 18.6879 56.9043 18.7495 56.9043 19.1913C56.9043 19.6877 57.085 19.7451 57.541 19.9512C57.8978 20.1125 57.4792 20.8677 57.9796 20.9874C58.4177 21.0923 59.2192 20.8705 59.3166 21.4249C59.4046 21.9262 59.4479 21.844 60.0311 21.9661C60.5179 22.0679 60.672 22.5377 61.1063 22.7144C61.36 22.8177 61.8037 22.7965 62.0825 22.7662C62.8202 22.6862 62.7326 22.9042 63.2427 23.1865C63.618 23.3941 63.9291 23.2554 64.2897 23.4168C64.6849 23.5937 64.7106 23.9102 65.1244 23.814C65.4738 23.7327 65.8188 23.9635 66.136 23.9061C66.5047 23.8394 66.6234 23.6908 67.0627 23.7046C67.4716 23.7174 67.6523 23.9195 67.9116 23.4974C68.1442 23.1188 68.5165 23.4771 68.902 23.5779C69.3404 23.6926 69.7231 23.4974 70.1471 23.4974C70.5691 23.4974 71.1429 23.5652 71.3497 23.1807C71.6269 22.665 71.7942 22.4611 72.5381 22.4611C73.056 22.4611 73.4235 22.4499 73.3375 21.9948C73.2052 21.295 73.8945 21.4157 74.4693 21.2695C75.0422 21.1238 74.7592 20.7683 74.9858 20.3887C75.2114 20.0107 75.8735 19.6618 76.3157 19.4561C76.5914 19.3279 76.249 18.7428 76.6128 18.5235C76.8821 18.3612 77.8928 17.9303 77.4759 17.591C77.0047 17.2075 76.7677 16.9991 77.3485 16.549C77.6206 16.3381 78.4466 15.6654 77.9781 15.3689C77.5077 15.0711 77.898 14.7117 78.0135 14.2981C78.1937 13.6528 77.8047 14.0361 77.4051 13.7109C76.9565 13.3459 77.8208 12.7965 77.4476 12.4099C77.0555 12.0038 76.2034 11.8927 76.1884 11.2701C76.183 11.0466 76.6304 10.2146 76.1954 10.136C75.6392 10.0354 75.8011 9.85816 75.9337 9.46245C76.0383 9.15027 75.4 9.16595 75.2404 8.96737C74.993 8.65942 75.2016 8.11359 74.5047 8.28808C74.0211 8.40917 73.8677 8.28781 73.5214 8.006C73.0748 7.64259 72.7196 8.10333 72.2551 8.00024C71.8277 7.90537 72.0456 7.17127 71.8024 7.17127C71.435 7.17127 71.0603 7.78296 70.5998 7.47638C70.4327 7.36514 70.2982 6.44302 70.0197 6.52652C69.7864 6.59647 69.1427 7.08723 68.9727 6.68771C68.8133 6.31288 68.8879 5.89793 68.3573 6.14082C68.0521 6.28054 67.4841 6.62177 67.3528 6.14082C67.2444 5.74395 66.6986 6.09105 66.3553 6.19263C65.9908 6.3005 65.0537 5.92738 65.0537 6.19263" stroke="#545454" stroke-width="3" stroke-linecap="round" stroke-linejoin="round"/>
<path d="M40.2715 17.4375C40.426 17.8073 40.6674 18.1979 40.7135 18.5911C40.7316 18.7463 40.6751 18.9468 40.7552 19.0933C40.903 19.364 41.3189 19.0216 41.4723 18.9033C41.8612 18.6035 41.7978 17.8753 41.3222 17.6818" stroke="#545454" stroke-width="3" stroke-linecap="round" stroke-linejoin="round"/>
<path d="M41.4727 17.5586C41.7427 18.0886 42.3652 18.3516 42.2315 18.8412C42.1727 19.0564 42.2097 19.3963 42.5234 19.2687" stroke="#545454" stroke-width="3" stroke-linecap="round" stroke-linejoin="round"/>
<path d="M4.69677 18.5362C3.47123 19.8926 4.91683 18.9573 5.71414 18.4887C6.37071 18.1029 5.58748 19.1929 5.48065 19.4863C5.34379 19.8622 7.27067 18.7124 7.45702 18.6787C7.61386 18.6504 5.56386 20.7206 7.14013 19.846C8.03887 19.3473 8.87152 18.7709 9.75861 18.258C9.94659 18.1493 10.7221 17.6738 10.4841 18.2241C10.2106 18.8566 8.35965 20.605 10.3424 19.5609C10.9159 19.259 11.8543 18.4618 12.5272 18.3666C12.9544 18.3061 12.4855 19.3397 12.3187 19.4863C11.6857 20.0426 13.0294 19.2488 13.136 19.1809C13.9986 18.631 14.9483 17.8674 15.9546 17.4912C16.4612 17.3017 15.6552 18.4881 15.621 18.5362C15.5632 18.6176 14.6476 19.7442 14.8538 19.7442C15.3328 19.7442 19.0875 17.4312 19.2235 17.7355C19.419 18.1729 18.2809 19.2685 18.006 19.5949C17.6402 20.0292 17.2313 20.4463 18.1811 19.9613C19.2618 19.4095 20.2223 18.7067 21.2583 18.1019C21.6884 17.8508 20.7987 19.0028 20.7162 19.1266C20.5602 19.361 20.5991 19.587 20.9581 19.4184C21.7591 19.0423 22.4253 18.3943 23.2763 18.1019C24.0582 17.8333 21.9431 20.0921 22.4508 19.9681C23.2055 19.7838 23.9815 19.1831 24.6106 18.8077C24.9829 18.5855 25.0752 18.5693 24.9275 18.9298C24.7113 19.4576 25.0967 19.2691 25.5612 19.2691" stroke="#545454" stroke-width="3" stroke-linecap="round" stroke-linejoin="round"/>
<path d="M6.34805 4.48828C5.19513 5.23013 4.06191 5.96137 2.74555 6.49698C2.40924 6.63382 1.53685 6.94624 2.31192 7.17559C3.47395 7.51946 6.68927 8.21954 7.24868 9.13" stroke="#545454" stroke-width="3" stroke-linecap="round" stroke-linejoin="round"/>
<path d="M3.64648 7.3815C5.3446 6.82217 7.22674 6.4043 9.05023 6.4043" stroke="#545454" stroke-width="3" stroke-linecap="round" stroke-linejoin="round"/>
<path d="M39.6719 4C41.1827 5.91251 43.0012 5.70059 44.8922 6.93161C44.9893 6.99485 42.7918 8.77263 42.3737 8.88602" stroke="#545454" stroke-width="3" stroke-linecap="round" stroke-linejoin="round"/>
<path d="M38.4704 7.17631C39.4662 6.917 40.5506 6.56708 41.6226 6.70128C42.0009 6.74864 42.6581 7.13072 42.9735 6.80986C43.2388 6.54004 40.5122 6.93201 40.1049 6.93201C37.8571 6.93201 35.5691 6.98904 33.3668 7.36632C31.8437 7.62726 29.8042 7.17631 28.1966 7.17631C23.7254 7.17631 19.2955 7.25107 14.904 6.70128C13.1027 6.47576 11.3971 6.93201 9.65039 6.93201" stroke="#545454" stroke-width="3" stroke-linecap="round" stroke-linejoin="round"/>
<g style="mix-blend-mode:multiply" opacity="0.55">
<path d="M73.5317 19.8495L52.043 9.16123L51.7883 9.67338C51.5153 10.2222 51.3403 10.8187 51.3859 11.43C51.5377 13.46 52.6141 18.3803 59.2246 21.6682C61.1845 22.6431 63.345 24.7619 65.0538 26.6908C66.5564 28.3875 69.4087 28.1387 70.4183 26.1089L73.5317 19.8495ZM68.4913 13.2838L60.6722 22.3866L68.4913 13.2838ZM69.7105 3.95759L58.2659 25.0531L58.7686 25.3259C59.3074 25.6182 59.8974 25.8142 60.5098 25.7904C62.544 25.7108 67.4994 24.8097 71.02 18.3202C72.0639 16.3961 74.2581 14.3123 76.2464 12.6731C77.9954 11.2317 77.8481 8.37236 75.8554 7.29132L69.7105 3.95759ZM73.5317 19.8495C73.7202 19.4703 73.8684 19.141 73.9559 18.9445C73.9865 18.8757 74.0503 18.7314 74.0559 18.7187C74.0788 18.6671 74.0822 18.66 74.0772 18.6709C74.0721 18.6819 73.9788 18.8867 73.8171 19.1735C73.6497 19.4701 73.3643 19.9361 72.9367 20.4683C71.9763 21.6638 70.6 22.8149 68.8278 23.5545C67.2173 24.2266 65.8785 24.3066 65.2557 24.3066V0.306641C63.746 0.306641 61.7303 0.510382 59.5847 1.40581C57.2774 2.3687 55.5076 3.84282 54.227 5.4368C53.1091 6.82826 52.4902 8.17035 52.2774 8.63245C52.1756 8.85358 52.0336 9.17649 52.0307 9.18292C51.9911 9.272 52.0048 9.23807 52.043 9.16123L73.5317 19.8495ZM65.2557 24.3066C64.8325 24.3066 64.3495 24.2593 63.7713 24.0981C63.2755 23.9598 62.027 23.5505 60.6722 22.3866L76.3104 4.18104C72.3862 0.810184 67.6698 0.306641 65.2557 0.306641V24.3066ZM60.6722 22.3866C58.102 20.1789 57.2781 17.1871 57.395 14.8502C57.5077 12.595 58.5127 10.086 60.7669 8.25154L75.9154 26.8667C82.2707 21.695 83.9608 10.7526 76.3104 4.18104L60.6722 22.3866ZM60.7669 8.25154C62.8624 6.54631 65.1392 6.22095 66.6535 6.32988C68.1302 6.4361 69.5752 6.97369 70.8286 7.99367L55.6801 26.6088C60.3094 30.376 68.9763 32.5135 75.9154 26.8667L60.7669 8.25154ZM70.8286 7.99367C73.2838 9.99165 74.0473 12.3208 74.2613 13.0524C74.5557 14.0589 74.7155 15.2525 74.5592 16.6295C74.4605 17.4989 73.921 21.3487 70.0886 24.1421C65.1062 27.7737 60.0318 26.0112 58.2659 25.0531L69.7105 3.95759C67.0848 2.53311 61.3752 0.794433 55.952 4.7473C51.6788 7.86197 50.893 12.3304 50.7123 13.923C50.4739 16.0231 50.7159 18.0444 51.2265 19.7903C51.6568 21.2611 52.7706 24.2412 55.6801 26.6088L70.8286 7.99367Z" fill="#FF99F8"/>
</g>
</svg>
