<svg width="43" height="41" viewBox="0 0 43 41" fill="none" xmlns="http://www.w3.org/2000/svg">
<g opacity="0.55">
<mask id="path-1-inside-1_53740_84473" fill="white">
<path fill-rule="evenodd" clip-rule="evenodd" d="M42.1995 20.7921C42.1934 20.883 42.1892 20.9469 42.1878 20.9807L41.9074 27.9661C41.8165 30.2312 39.3174 31.5871 37.2537 30.6209C36.3954 30.2192 35.4716 29.8181 34.5381 29.4648C34.1081 30.505 33.5906 31.5347 32.9715 32.5252C31.0318 35.6288 26.5087 40.5354 19.016 40.1178C12.8284 39.7731 8.52978 36.1926 6.13705 33.3624C3.68705 30.4645 2.10482 27.1107 1.20405 24.1524C-2.50711 11.9642 6.44457 1.10672 17.4312 0.66398C17.8687 0.646348 18.3199 0.632377 18.7826 0.622995C20.4576 0.347231 21.9714 0.449853 23.2163 0.688185C25.3043 0.796422 27.4812 1.02662 29.6092 1.44113C32.5322 2.01049 35.6041 3.41939 38.0715 6.09171C40.4273 8.64316 41.414 11.4641 41.851 13.4891C42.4886 16.4436 42.2585 19.9037 42.1995 20.7921Z"/>
</mask>
<path fill-rule="evenodd" clip-rule="evenodd" d="M42.1995 20.7921C42.1934 20.883 42.1892 20.9469 42.1878 20.9807L41.9074 27.9661C41.8165 30.2312 39.3174 31.5871 37.2537 30.6209C36.3954 30.2192 35.4716 29.8181 34.5381 29.4648C34.1081 30.505 33.5906 31.5347 32.9715 32.5252C31.0318 35.6288 26.5087 40.5354 19.016 40.1178C12.8284 39.7731 8.52978 36.1926 6.13705 33.3624C3.68705 30.4645 2.10482 27.1107 1.20405 24.1524C-2.50711 11.9642 6.44457 1.10672 17.4312 0.66398C17.8687 0.646348 18.3199 0.632377 18.7826 0.622995C20.4576 0.347231 21.9714 0.449853 23.2163 0.688185C25.3043 0.796422 27.4812 1.02662 29.6092 1.44113C32.5322 2.01049 35.6041 3.41939 38.0715 6.09171C40.4273 8.64316 41.414 11.4641 41.851 13.4891C42.4886 16.4436 42.2585 19.9037 42.1995 20.7921Z" fill="white"/>
<path d="M42.1995 20.7921L43.1965 20.874L43.1965 20.874L42.1995 20.7921ZM37.2537 30.6209L37.6653 29.7155L37.6652 29.7154L37.2537 30.6209ZM34.5381 29.4648L34.8786 28.5294L33.9783 28.1887L33.614 29.0699L34.5381 29.4648ZM32.9715 32.5252L32.1222 31.9849L32.1222 31.9849L32.9715 32.5252ZM6.13705 33.3624L5.37862 34.0021L5.37862 34.0021L6.13705 33.3624ZM1.20405 24.1524L2.15948 23.8741L2.15948 23.8741L1.20405 24.1524ZM17.4312 0.66398L17.3756 -0.335955L17.3756 -0.335955L17.4312 0.66398ZM18.7826 0.622995L18.8183 1.62353L18.8894 1.62209L18.9595 1.61055L18.7826 0.622995ZM23.2163 0.688185L23.0434 1.67103L23.1113 1.68402L23.1801 1.68759L23.2163 0.688185ZM29.6092 1.44113L29.4331 2.42336L29.4331 2.42336L29.6092 1.44113ZM38.0715 6.09171L38.8004 5.41845L38.0715 6.09171ZM41.851 13.4891L40.8745 13.6861L40.8745 13.6861L41.851 13.4891ZM43.1863 21.0363C43.1869 21.0194 43.1899 20.9736 43.1965 20.874L41.2024 20.7103C41.197 20.7923 41.1914 20.8744 41.1894 20.9251L43.1863 21.0363ZM42.9058 28.0217L43.1863 21.0363L41.1894 20.9251L40.9089 27.9104L42.9058 28.0217ZM36.8421 31.5263C39.4837 32.7631 42.7835 31.0683 42.9058 28.0217L40.9089 27.9104C40.8494 29.3942 39.151 30.4111 37.6653 29.7155L36.8421 31.5263ZM34.1976 30.4003C35.1017 30.7424 36.0013 31.1328 36.8422 31.5264L37.6652 29.7154C36.7895 29.3057 35.8415 28.8938 34.8786 28.5294L34.1976 30.4003ZM33.8209 33.0656C34.4716 32.0244 35.0134 30.9455 35.4622 29.8598L33.614 29.0699C33.2028 30.0645 32.7097 31.0449 32.1222 31.9849L33.8209 33.0656ZM18.9759 41.117C26.99 41.5636 31.7956 36.3061 33.8209 33.0656L32.1222 31.9849C30.2681 34.9515 26.0274 39.5071 19.0561 39.1186L18.9759 41.117ZM5.37862 34.0021C7.871 36.9502 12.4071 40.751 18.9759 41.117L19.0561 39.1186C13.2497 38.7951 9.18855 35.4349 6.89549 32.7227L5.37862 34.0021ZM0.248623 24.4307C1.18097 27.4927 2.82142 30.9774 5.37862 34.0021L6.89549 32.7227C4.55268 29.9515 3.02868 26.7287 2.15948 23.8741L0.248623 24.4307ZM17.3756 -0.335955C5.78243 0.131229 -3.66445 11.5794 0.248623 24.4307L2.15948 23.8741C-1.34978 12.349 7.10672 2.08221 17.4868 1.66391L17.3756 -0.335955ZM18.7469 -0.377543C18.2773 -0.368021 17.8195 -0.353843 17.3756 -0.335955L17.4868 1.66391C17.918 1.64654 18.3625 1.63278 18.8183 1.62353L18.7469 -0.377543ZM23.3893 -0.294663C22.049 -0.551238 20.4151 -0.662465 18.6057 -0.364563L18.9595 1.61055C20.5 1.35693 21.8937 1.45094 23.0434 1.67103L23.3893 -0.294663ZM29.7853 0.458894C27.6012 0.0334608 25.3762 -0.20113 23.2526 -0.311218L23.1801 1.68759C25.2323 1.79398 27.3612 2.01977 29.4331 2.42336L29.7853 0.458894ZM38.8004 5.41845C36.1615 2.56046 32.8823 1.06214 29.7853 0.458894L29.4331 2.42336C32.1822 2.95885 35.0468 4.27832 37.3427 6.76498L38.8004 5.41845ZM42.8276 13.2922C42.366 11.1536 41.318 8.14519 38.8004 5.41845L37.3427 6.76498C39.5367 9.14113 40.4619 11.7747 40.8745 13.6861L42.8276 13.2922ZM43.1965 20.874C43.255 19.9949 43.4989 16.4026 42.8276 13.2922L40.8745 13.6861C41.4784 16.4845 41.2621 19.8125 41.2024 20.7103L43.1965 20.874Z" fill="black" mask="url(#path-1-inside-1_53740_84473)"/>
</g>
</svg>
