<svg width="37" height="43" viewBox="0 0 37 43" fill="none" xmlns="http://www.w3.org/2000/svg">
<g style="mix-blend-mode:multiply" opacity="0.55">
<path d="M26.3366 0.223978L24.982 24.1857L25.5536 24.2083C26.1661 24.2326 26.7838 24.148 27.328 23.8563C29.1354 22.8871 33.2364 19.8924 33.653 12.5212C33.7766 10.3357 34.8733 7.49922 35.9734 5.15223C36.9413 3.08819 35.5873 0.590048 33.3221 0.500409L26.3366 0.223978ZM15.9194 13.0182L20.8792 23.8533L15.9194 13.0182ZM13.7156 27.0543L2.3023 30.9774L13.7156 27.0543ZM18.2864 30.1573L15.5265 18.536L18.2864 30.1573ZM23.3896 23.8408L35.0032 26.6993L23.3896 23.8408ZM17.914 27.1624L22.5702 3.5618L22.0086 3.46047C21.4067 3.35187 20.7847 3.35063 20.2066 3.56506C18.2866 4.27772 13.8199 6.68468 12.3875 13.9448C11.9628 16.0974 10.4864 18.7618 9.07451 20.9399C7.83234 22.8554 8.82425 25.5222 11.05 25.9239L17.914 27.1624ZM26.3366 0.223978C25.5785 0.193978 22.6701 -0.0202482 20.5794 0.0299235C17.9744 0.0924355 14.5648 0.490618 10.9596 2.18315L20.8792 23.8533C20.3644 24.095 20.1148 24.0188 20.7523 24.0035C21.1002 23.9952 21.56 24.0061 22.3009 24.0448C22.8697 24.0745 24.0501 24.1488 24.982 24.1857L26.3366 0.223978ZM10.9596 2.18315C2.05838 6.36203 0.703993 15.2933 0.563708 19.3233C0.402956 23.941 1.43039 28.3344 2.3023 30.9774L25.1288 23.1312C25.0125 22.7788 24.8439 22.1609 24.7192 21.438C24.592 20.6996 24.5561 20.1138 24.5687 19.7529C24.5838 19.3174 24.6489 19.6992 24.2747 20.5126C24.0649 20.9687 23.6987 21.596 23.0917 22.2428C22.4664 22.9091 21.7074 23.4645 20.8792 23.8533L10.9596 2.18315ZM2.3023 30.9774C2.99504 33.0773 4.44112 36.2085 7.41202 38.7203C10.8943 41.6644 15.7901 43.1059 21.0462 41.7786L15.5265 18.536C16.6271 18.258 18.047 18.1664 19.5885 18.5392C21.1048 18.9059 22.2854 19.6114 23.1131 20.3111C24.5846 21.5552 25.0236 22.8122 25.1288 23.1312L2.3023 30.9774ZM21.0462 41.7786C25.9339 40.5443 29.5486 37.6748 31.8841 34.1369C33.864 31.1378 34.6646 27.9882 35.0032 26.6993L11.776 20.9822C11.6232 21.5642 11.5544 21.7746 11.5246 21.8559C11.5018 21.918 11.6 21.6254 11.896 21.1769C12.2183 20.6887 12.7402 20.0692 13.5022 19.5155C14.2712 18.9567 15.0068 18.6672 15.5265 18.536L21.0462 41.7786ZM35.0032 26.6993C35.1476 26.1496 35.5714 24.6414 35.8419 23.2574C36.1193 21.8382 36.4837 19.4431 36.0895 16.7226C35.6511 13.6969 34.2741 10.3397 31.2986 7.65028C28.5271 5.14534 25.2826 4.05122 22.5702 3.5618L17.914 27.1624C17.881 27.1564 17.549 27.0951 17.0374 26.8734C16.5094 26.6445 15.7756 26.2377 15.0141 25.5494C13.2839 23.9856 12.5297 22.0197 12.3162 20.5463C12.147 19.3781 12.3384 18.6966 12.2698 19.0476C12.1943 19.4339 12.099 19.7527 11.776 20.9822L35.0032 26.6993Z" fill="#FFEE00"/>
</g>
</svg>
