<svg preserveAspectRatio="none" width="1920" height="1154" viewBox="0 0 1920 1154" fill="none" xmlns="http://www.w3.org/2000/svg">
<path d="M-75 355.5L2006 0V1154H-75V355.5Z" fill="#F8F2EE"/>
<path d="M-54 443.5L2006 194V1088H-75L-54 443.5Z" fill="#FDB827"/>
<mask id="mask0_53617_83324" style="mask-type:alpha" maskUnits="userSpaceOnUse" x="-75" y="194" width="2081" height="894">
<path d="M-54 443.5L2006 194V1088H-75L-54 443.5Z" fill="#FDB827"/>
</mask>
<g mask="url(#mask0_53617_83324)">
<path d="M1182.48 270.046C1181.29 260.136 1171.92 256.322 1163.41 254.27C1183.82 220.92 1129.55 197.324 1103.79 191.242C1108.87 177.271 1099.25 161.021 1087.34 153.058C1094.93 76.308 936.897 62.953 922.788 137.334C903.754 129.947 879.971 135.478 864.36 148.951C839.682 141.982 811.981 159.365 806.37 184.095C792.2 180.15 773.884 180.032 761.896 189.74C753.036 197.415 750.841 211.476 759.408 220.373C771.111 231.334 802.699 235.716 820.809 234.291C851.277 266.041 900.463 265.341 939.38 251.288C952.63 260.155 969.737 259.15 984.986 256.696C991.912 255.711 998.436 249.604 998.436 249.604C998.436 249.604 1065.37 281.083 1098.16 277.879C1114.14 286.979 1184.03 299.92 1182.48 270.046H1182.48Z" fill="white"/>
<path d="M683.211 319.802C682.204 319.39 681.043 318.97 679.779 318.556C677.935 308.388 669.045 299.434 658.88 298.628C650.513 272.121 614.758 262.087 601.151 288.425C589.969 286.113 575.799 281.165 566.343 290.13C553.106 305.635 572.952 321.272 588.055 323.804C596.552 347.541 643.486 352.053 661.016 345.66C662.305 345.568 662.704 345.461 662.214 345.342C673.768 348.439 694.145 356.781 700.074 341.322C703.108 330.276 691.849 323.339 683.212 319.802H683.211Z" fill="white"/>
<path d="M1430.62 242.107C1425.47 236.228 1417.63 233.779 1410.45 231.425C1410.59 207.552 1379.61 213.839 1366.63 224.415C1356.61 218.534 1318.54 220.523 1327.3 238.266C1328.62 244.428 1334.02 248.507 1339.83 250.436C1353.71 254.227 1368.82 253.91 1383.1 254.07C1395.37 256.839 1445.84 269.204 1430.62 242.107Z" fill="white"/>
</g>
</svg>
