<svg width="360" height="417" viewBox="0 0 360 417" fill="none" xmlns="http://www.w3.org/2000/svg">
<path d="M-72 78.555L413 0V255H-72V78.555Z" fill="#F8F2EE"/>
<path d="M-273.827 135.121L626 26V417H-283L-273.827 135.121Z" fill="#FDB827"/>
<mask id="mask0_53638_83324" style="mask-type:alpha" maskUnits="userSpaceOnUse" x="-283" y="26" width="909" height="391">
<path d="M-273.827 135.121L626 26V417H-283L-273.827 135.121Z" fill="#FDB827"/>
</mask>
<g mask="url(#mask0_53638_83324)">
<path d="M266.28 59.2594C265.761 54.9252 261.665 53.2571 257.95 52.3596C266.865 37.7737 243.158 27.4537 231.905 24.7937C234.127 18.6833 229.922 11.5762 224.721 8.09354C228.034 -25.4739 159.006 -31.3148 152.843 1.21649C144.529 -2.01429 134.14 0.404752 127.321 6.29731C116.541 3.24934 104.441 10.852 101.99 21.6679C95.8008 19.9425 87.8002 19.8909 82.5637 24.1368C78.6936 27.4935 77.7348 33.6433 81.477 37.5344C86.5889 42.3284 100.387 44.2449 108.297 43.6216C121.606 57.5078 143.091 57.2017 160.09 51.0554C165.878 54.9335 173.351 54.494 180.012 53.4207C183.037 52.9899 185.887 50.3189 185.887 50.3189C185.887 50.3189 215.123 64.0866 229.447 62.6853C236.426 66.6653 266.954 72.3251 266.28 59.2594H266.28Z" fill="white"/>
<path d="M48.1939 81.021C47.754 80.8408 47.2469 80.6571 46.6947 80.476C45.8893 76.029 42.006 72.1128 37.5659 71.7603C33.9111 60.1672 18.293 55.7787 12.3489 67.2979C7.46446 66.2868 1.27531 64.1227 -2.85516 68.0436C-8.6372 74.8249 0.0317108 81.6639 6.62884 82.7713C10.3404 93.1529 30.8416 95.1263 38.4989 92.3303C39.0619 92.29 39.2362 92.2432 39.0222 92.1912C44.0691 93.5457 52.9695 97.1941 55.5598 90.433C56.885 85.6019 51.967 82.5679 48.1943 81.021H48.1939Z" fill="white"/>
<path d="M374.67 47.04C372.42 44.4688 368.993 43.3977 365.857 42.3681C365.921 31.927 352.388 34.6767 346.717 39.3022C342.342 36.7301 325.711 37.6 329.537 45.3601C330.116 48.0551 332.474 49.8391 335.009 50.6828C341.075 52.3408 347.673 52.2022 353.912 52.2721C359.271 53.4832 381.318 58.8912 374.67 47.04Z" fill="white"/>
</g>
</svg>
