<svg width="391" height="80" viewBox="0 0 391 80" fill="none" xmlns="http://www.w3.org/2000/svg">
<path d="M346.813 4.57678H321.687C318.725 2.75481 313.72 1.89741 308.817 3.50503C309.43 5.21982 260.709 4.36243 259.177 4.57678C256.624 -2.17522 241.507 -0.674773 235.992 4.57678H219.649C215.87 2.96916 211.274 3.1835 207.393 4.4696C206.473 0.289791 196.668 -1.42499 190.642 1.36154C178.181 9.0781 168.682 0.289794 157.753 4.25525C157.855 4.79112 147.743 4.57678 147.233 4.57678C143.351 1.68307 135.282 2.11176 130.584 4.57678C129.869 2.86199 127.111 1.46872 122.617 1.36154C113.935 1.14719 106.275 2.43329 99.4313 4.57678C97.3885 2.86199 91.873 1.89742 88.2981 3.61221C89.1152 5.11266 47.7487 4.57678 46.2166 4.68396C7.91434 4.25526 -2.60603 25.6901 2.50094 41.0161C0.866712 42.3022 3.62448 51.412 2.50094 53.0196C0.253876 54.4129 0.560291 56.1277 3.21592 57.0923C8.73145 76.9195 56.1242 75.6335 86.2553 74.9904C87.3788 82.5998 104.232 80.6707 108.624 74.9904C108.113 75.5263 224.654 73.49 217.607 76.0622C215.564 78.6343 223.531 80.9922 227.106 78.8487C230.17 77.4554 231.498 74.4545 236.298 74.9904C239.975 77.1339 246.716 77.6698 251.823 74.9904C288.798 72.4182 392.367 85.6007 390.427 53.0196C390.835 35.6574 398.087 4.14808 346.813 4.57678ZM381.54 57.9497C380.213 57.521 382.255 56.5564 382.46 55.9133C382.255 56.5564 381.949 57.1994 381.54 57.9497ZM22.8267 60.3075C23.031 60.2003 23.2353 60.0932 23.4395 59.986C23.3374 60.2003 23.3374 60.4147 23.2353 60.7362C23.1331 60.5218 22.9288 60.4147 22.8267 60.3075ZM90.8516 19.474C90.8516 19.474 90.9537 19.3669 91.0558 19.3669C90.9537 19.474 90.8516 19.474 90.8516 19.474ZM64.2953 9.0781C63.4782 8.86375 62.5589 8.64941 61.7418 8.43507H65.8274C65.3167 8.64941 64.806 8.86375 64.2953 9.0781ZM73.7943 70.9178C74.7135 71.3465 71.6493 71.025 71.5472 71.1321C72.2622 71.025 73.0793 70.9178 73.7943 70.9178ZM273.17 8.43507C265.204 11.5431 261.424 12.2933 256.011 8.43507C256.113 8.43507 273.17 8.43507 273.17 8.43507ZM380.519 42.5165C381.336 41.8735 382.153 41.2305 382.868 40.5874C382.46 41.6592 384.4 44.017 380.519 42.5165ZM364.994 15.5086C364.279 14.7583 363.155 14.0081 361.93 13.4723C363.564 13.7938 364.892 14.544 365.402 15.4014C365.3 15.2942 365.096 15.187 364.994 15.5086ZM300.135 23.2251C307.387 18.0808 321.585 14.544 324.547 8.43507H329.858C319.848 13.2579 309.839 18.1879 300.135 23.2251ZM149.48 67.4882C149.786 68.9886 151.727 70.2747 154.178 71.1321H142.841C145.088 69.846 147.233 68.6671 149.48 67.4882ZM166.945 70.5963C171.44 66.0949 177.466 70.8106 184.411 71.025H166.026C166.23 70.9178 166.639 70.8106 166.945 70.5963ZM277.256 71.025C279.197 70.7034 281.035 70.9178 283.078 71.1321H276.95C277.052 71.025 277.154 71.025 277.256 71.025ZM370.918 13.0436C362.849 13.901 355.188 10.3642 347.732 13.901C349.06 11.8646 347.528 9.72115 344.668 8.32788C354.473 8.22071 364.075 9.93549 370.918 13.0436ZM286.244 12.079C285.223 10.3642 282.669 8.97094 279.401 8.43507H295.539C292.373 9.61398 289.309 10.7929 286.244 12.079ZM211.683 18.0808C218.322 15.0799 220.16 7.79201 229.148 8.32788C223.326 11.6503 217.504 14.8655 211.683 18.0808ZM173.789 8.54223C173.789 8.43505 173.891 8.43507 174.095 8.43507C173.993 8.43507 173.891 8.54223 173.789 8.54223ZM144.373 11.0072C146.109 10.1498 146.722 8.11354 149.48 8.43507C147.743 9.29246 146.007 10.1498 144.373 11.0072ZM10.0593 43.4811C20.4775 36.9435 31.6107 30.8345 43.6631 25.0471C32.4278 32.6565 21.2946 40.2659 10.0593 47.8753V43.4811ZM203.614 71.1321C213.725 64.916 223.939 58.6999 234.562 52.5909C226.186 59.8788 220.467 65.7734 203.614 71.1321Z" fill="#89D6F0"/>
</svg>
