<svg width="391" height="80" viewBox="0 0 391 80" fill="none" xmlns="http://www.w3.org/2000/svg">
	<path d="M106.066 80C99.0814 80 94.3915 78.3024 91.8969 76.0055C87.8058 76.1054 83.4153 76.1054 78.925 76.1054C64.1569 76.1054 20.1522 76.1054 12.6684 59.5284C11.3712 58.8294 10.5729 57.9307 10.1738 57.0319C9.67485 55.7337 10.2736 54.4355 11.6705 53.2372C11.6705 52.5381 11.471 51.2399 11.3712 50.2413C10.9721 47.5451 10.7725 45.7476 11.2714 44.4494C8.7768 36.9598 10.7725 26.0749 24.2433 18.785C32.8248 14.0915 44.8986 11.6949 58.9682 11.6949C59.3673 11.6949 59.7664 11.6949 60.0658 11.6949C60.2654 11.6949 60.3652 11.6949 60.6645 11.6949C61.2632 11.6949 62.2611 11.6949 63.5582 11.6949C65.9531 11.6949 69.4455 11.6949 73.2373 11.6949C87.4066 11.6949 93.0943 11.4952 95.1898 11.3953C97.5846 10.4965 100.578 10.0971 103.671 10.0971C106.166 10.0971 108.661 10.3967 110.856 10.896C116.943 9.59779 123.329 8.99861 129.715 8.99861C130.414 8.99861 131.212 8.99861 131.91 8.99861C135.503 9.09847 138.696 9.59778 141.19 10.4965C143.186 10.1969 145.381 9.99723 147.477 9.99723C151.468 9.99723 155.06 10.5964 157.954 11.6949C158.154 11.6949 158.253 11.6949 158.453 11.6949C159.85 11.6949 160.748 11.6949 161.347 11.6949C164.141 10.9958 167.234 10.5964 170.527 10.5964C173.919 10.5964 176.913 10.9958 179.507 11.2954C181.403 11.4951 183.1 11.7947 184.497 11.7947C185.195 11.7947 186.692 11.7947 189.386 10.3967L189.785 10.1969L190.184 9.99723C193.377 8.69903 197.468 8 201.759 8C207.147 8 211.937 9.09848 215.03 10.7961C215.629 10.7961 216.228 10.7961 216.827 10.7961C219.62 10.7961 222.315 11.0957 224.809 11.6949H233.89C238.18 9.49792 244.467 8 250.653 8C256.74 8 261.929 9.39806 264.922 11.595C265.721 11.595 266.519 11.595 267.317 11.595C271.109 11.595 275.899 11.595 280.888 11.595C294.658 11.595 299.947 11.3953 301.942 11.2954C304.836 10.3967 308.029 9.99723 311.222 9.99723C314.814 9.99723 318.307 10.5964 321.3 11.595H341.756C342.056 11.595 342.455 11.595 342.754 11.595C356.424 11.595 367.301 13.4924 375.284 17.1872C392.247 25.1761 391.349 39.5562 390.75 50.0416C390.65 51.5395 390.551 52.9376 390.551 54.3357C390.95 60.0277 387.258 64.7212 379.674 68.2164C364.707 75.2067 337.665 76.1054 315.812 76.1054C306.034 76.1054 296.354 75.9057 286.975 75.706C278.992 75.5062 271.508 75.4064 265.122 75.4064C261.53 75.4064 258.436 75.5062 255.942 75.6061C252.849 76.6047 249.157 77.2039 245.365 77.2039C242.671 77.2039 240.076 76.9043 237.781 76.405C237.083 76.9043 236.185 77.4036 234.987 77.9029C232.692 79.0014 229.499 79.6005 226.106 79.6005C221.516 79.6005 217.126 78.5021 214.631 76.8044C214.132 76.5049 213.733 76.1054 213.434 75.8058C209.143 75.706 217.126 75.5062 201.26 75.5062C187.29 75.5062 155.459 75.6061 142.887 75.706C134.505 75.8058 127.22 75.8058 122.83 75.8058C118.938 78.4022 112.552 80 106.066 80Z" fill="#F4EFF4" />
	<path d="M339.4 4.49989H314.8C311.9 2.79989 307 1.99989 302.2 3.49989C302.8 5.09989 255.1 4.29989 253.6 4.49989C251.1 -1.80011 236.3 -0.40011 230.9 4.49989H214.9C211.2 2.99989 206.7 3.19988 202.9 4.39988C202 0.499884 192.4 -1.10011 186.5 1.49989C174.3 8.69989 165 0.499887 154.3 4.19989C154.4 4.69989 144.5 4.49989 144 4.49989C140.2 1.79989 132.3 2.19989 127.7 4.49989C127 2.89989 124.3 1.59989 119.9 1.49989C111.4 1.29989 103.9 2.49989 97.2001 4.49989C95.2001 2.89989 89.8001 1.9999 86.3001 3.5999C87.1001 4.9999 46.6001 4.4999 45.1001 4.5999C7.60007 4.1999 -2.69993 24.1999 2.30007 38.4999C0.700071 39.6999 3.40007 48.1999 2.30007 49.6999C0.100071 50.9999 0.400068 52.5999 3.00007 53.4999C8.40007 71.9999 54.8001 70.7999 84.3001 70.1999C85.4001 77.2999 101.9 75.4999 106.2 70.1999C105.7 70.6999 219.8 68.7999 212.9 71.1999C210.9 73.5999 218.7 75.7999 222.2 73.7999C225.2 72.4999 226.5 69.6999 231.2 70.1999C234.8 72.1999 241.4 72.6999 246.4 70.1999C282.6 67.7999 384 80.0999 382.1 49.6999C382.5 33.4999 389.6 4.09989 339.4 4.49989ZM373.4 54.2999C372.1 53.8999 374.1 52.9999 374.3 52.3999C374.1 52.9999 373.8 53.5999 373.4 54.2999ZM22.2001 56.4999C22.4001 56.3999 22.6001 56.2999 22.8001 56.1999C22.7001 56.3999 22.7001 56.5999 22.6001 56.8999C22.5001 56.6999 22.3001 56.5999 22.2001 56.4999ZM88.8001 18.3999C88.8001 18.3999 88.9001 18.2999 89.0001 18.2999C88.9001 18.3999 88.8001 18.3999 88.8001 18.3999ZM62.8001 8.69989C62.0001 8.49989 61.1001 8.2999 60.3001 8.0999H64.3001C63.8001 8.2999 63.3001 8.49989 62.8001 8.69989ZM72.1001 66.3999C73.0001 66.7999 70.0001 66.4999 69.9001 66.5999C70.6001 66.4999 71.4001 66.3999 72.1001 66.3999ZM267.3 8.0999C259.5 10.9999 255.8 11.6999 250.5 8.0999C250.6 8.0999 267.3 8.0999 267.3 8.0999ZM372.4 39.8999C373.2 39.2999 374 38.6999 374.7 38.0999C374.3 39.0999 376.2 41.2999 372.4 39.8999ZM357.2 14.6999C356.5 13.9999 355.4 13.2999 354.2 12.7999C355.8 13.0999 357.1 13.7999 357.6 14.5999C357.5 14.4999 357.3 14.3999 357.2 14.6999ZM293.7 21.8999C300.8 17.0999 314.7 13.7999 317.6 8.0999H322.8C313 12.5999 303.2 17.1999 293.7 21.8999ZM146.2 63.1999C146.5 64.5999 148.4 65.7999 150.8 66.5999H139.7C141.9 65.3999 144 64.2999 146.2 63.1999ZM163.3 66.0999C167.7 61.8999 173.6 66.2999 180.4 66.4999H162.4C162.6 66.3999 163 66.2999 163.3 66.0999ZM271.3 66.4999C273.2 66.1999 275 66.3999 277 66.5999H271C271.1 66.4999 271.2 66.4999 271.3 66.4999ZM363 12.3999C355.1 13.1999 347.6 9.89989 340.3 13.1999C341.6 11.2999 340.1 9.29989 337.3 7.99989C346.9 7.89989 356.3 9.49988 363 12.3999ZM280.1 11.4999C279.1 9.89989 276.6 8.5999 273.4 8.0999H289.2C286.1 9.1999 283.1 10.2999 280.1 11.4999ZM207.1 17.0999C213.6 14.2999 215.4 7.49989 224.2 7.99989C218.5 11.0999 212.8 14.0999 207.1 17.0999ZM170 8.19989C170 8.09989 170.1 8.0999 170.3 8.0999C170.2 8.0999 170.1 8.19989 170 8.19989ZM141.2 10.4999C142.9 9.69989 143.5 7.7999 146.2 8.0999C144.5 8.8999 142.8 9.69989 141.2 10.4999ZM9.70006 40.7999C19.9001 34.6999 30.8001 28.9999 42.6001 23.5999C31.6001 30.6999 20.7001 37.7999 9.70006 44.8999V40.7999ZM199.2 66.5999C209.1 60.7999 219.1 54.9999 229.5 49.2999C221.3 56.0999 215.7 61.5999 199.2 66.5999Z" fill="#F4EFF4" />
</svg>
