<svg width="390" height="80" viewBox="0 0 390 80" fill="none" xmlns="http://www.w3.org/2000/svg">
	<path d="M345.813 4.57678H320.687C317.725 2.75481 312.72 1.89741 307.817 3.50503C308.43 5.21982 259.709 4.36243 258.177 4.57678C255.624 -2.17522 240.507 -0.674773 234.992 4.57678H218.649C214.87 2.96916 210.274 3.1835 206.393 4.4696C205.473 0.289791 195.668 -1.42499 189.642 1.36154C177.181 9.0781 167.682 0.289794 156.753 4.25525C156.855 4.79112 146.743 4.57678 146.233 4.57678C142.351 1.68307 134.282 2.11176 129.584 4.57678C128.869 2.86199 126.111 1.46872 121.617 1.36154C112.935 1.14719 105.275 2.43329 98.4313 4.57678C96.3885 2.86199 90.873 1.89742 87.2981 3.61221C88.1152 5.11266 46.7487 4.57678 45.2166 4.68396C6.91434 4.25526 -3.60603 25.6901 1.50094 41.0161C-0.133288 42.3022 2.62448 51.412 1.50094 53.0196C-0.746124 54.4129 -0.439709 56.1277 2.21592 57.0923C7.73145 76.9195 55.1242 75.6335 85.2553 74.9904C86.3788 82.5998 103.232 80.6707 107.624 74.9904C107.113 75.5263 223.654 73.49 216.607 76.0622C214.564 78.6343 222.531 80.9922 226.106 78.8487C229.17 77.4554 230.498 74.4545 235.298 74.9904C238.975 77.1339 245.716 77.6698 250.823 74.9904C287.798 72.4182 391.367 85.6007 389.427 53.0196C389.835 35.6574 397.087 4.14808 345.813 4.57678ZM380.54 57.9497C379.213 57.521 381.255 56.5564 381.46 55.9133C381.255 56.5564 380.949 57.1994 380.54 57.9497ZM21.8267 60.3075C22.031 60.2003 22.2353 60.0932 22.4395 59.986C22.3374 60.2003 22.3374 60.4147 22.2353 60.7362C22.1331 60.5218 21.9288 60.4147 21.8267 60.3075ZM89.8516 19.474C89.8516 19.474 89.9537 19.3669 90.0558 19.3669C89.9537 19.474 89.8516 19.474 89.8516 19.474ZM63.2953 9.0781C62.4782 8.86375 61.5589 8.64941 60.7418 8.43506H64.8274C64.3167 8.64941 63.806 8.86375 63.2953 9.0781ZM72.7943 70.9178C73.7135 71.3465 70.6493 71.025 70.5472 71.1321C71.2622 71.025 72.0793 70.9178 72.7943 70.9178ZM272.17 8.43506C264.204 11.5431 260.424 12.2933 255.011 8.43506C255.113 8.43506 272.17 8.43506 272.17 8.43506ZM379.519 42.5165C380.336 41.8735 381.153 41.2305 381.868 40.5874C381.46 41.6592 383.4 44.017 379.519 42.5165ZM363.994 15.5086C363.279 14.7583 362.155 14.0081 360.93 13.4723C362.564 13.7938 363.892 14.544 364.402 15.4014C364.3 15.2942 364.096 15.187 363.994 15.5086ZM299.135 23.2251C306.387 18.0808 320.585 14.544 323.547 8.43506H328.858C318.848 13.2579 308.839 18.1879 299.135 23.2251ZM148.48 67.4882C148.786 68.9886 150.727 70.2747 153.178 71.1321H141.841C144.088 69.846 146.233 68.6671 148.48 67.4882ZM165.945 70.5963C170.44 66.0949 176.466 70.8106 183.411 71.025H165.026C165.23 70.9178 165.639 70.8106 165.945 70.5963ZM276.256 71.025C278.197 70.7034 280.035 70.9178 282.078 71.1321H275.95C276.052 71.025 276.154 71.025 276.256 71.025ZM369.918 13.0436C361.849 13.901 354.188 10.3642 346.732 13.901C348.06 11.8646 346.528 9.72115 343.668 8.32788C353.473 8.22071 363.075 9.93549 369.918 13.0436ZM285.244 12.079C284.223 10.3642 281.669 8.97094 278.401 8.43506H294.539C291.373 9.61398 288.309 10.7929 285.244 12.079ZM210.683 18.0808C217.322 15.0799 219.16 7.79201 228.148 8.32788C222.326 11.6503 216.504 14.8655 210.683 18.0808ZM172.789 8.54223C172.789 8.43506 172.891 8.43506 173.095 8.43506C172.993 8.43506 172.891 8.54223 172.789 8.54223ZM143.373 11.0072C145.109 10.1498 145.722 8.11354 148.48 8.43506C146.743 9.29246 145.007 10.1498 143.373 11.0072ZM9.05926 43.4811C19.4775 36.9435 30.6107 30.8345 42.6631 25.0471C31.4278 32.6565 20.2946 40.2659 9.05926 47.8753V43.4811ZM202.614 71.1321C212.725 64.916 222.939 58.6999 233.562 52.5909C225.186 59.8788 219.467 65.7734 202.614 71.1321Z" fill="#B6E6F6" />
</svg>
