<svg width="243" height="50" viewBox="0 0 243 50" fill="none" xmlns="http://www.w3.org/2000/svg">
	<path d="M215.468 2.86049H199.812C197.967 1.72176 194.849 1.18588 191.794 2.19064C192.176 3.26239 161.819 2.72652 160.864 2.86049C159.273 -1.35951 149.855 -0.421733 146.418 2.86049H136.235C133.881 1.85572 131.017 1.98969 128.598 2.7935C128.026 0.181119 121.916 -0.890621 118.161 0.850964C110.397 5.67382 104.479 0.181121 97.6691 2.65953C97.7327 2.99445 91.4323 2.86049 91.1141 2.86049C88.6958 1.05192 83.6682 1.31985 80.7407 2.86049C80.2952 1.78874 78.5769 0.917948 75.7767 0.850964C70.3672 0.716996 65.5942 1.5208 61.3303 2.86049C60.0574 1.78874 56.6208 1.18589 54.3934 2.25763C54.9025 3.19541 29.128 2.86049 28.1734 2.92747C4.30816 2.65954 -2.24683 16.0563 0.935203 25.6351C-0.0830484 26.4389 1.63525 32.1325 0.935203 33.1373C-0.464893 34.0081 -0.273972 35.0798 1.38069 35.6827C4.81729 48.0747 34.3466 47.2709 53.1206 46.869C53.8207 51.6249 64.3214 50.4192 67.0579 46.869C66.7397 47.2039 139.354 45.9312 134.963 47.5388C133.69 49.1465 138.654 50.6201 140.881 49.2804C142.79 48.4096 143.618 46.5341 146.609 46.869C148.9 48.2087 153.1 48.5436 156.282 46.869C179.32 45.2614 243.852 53.5004 242.643 33.1373C242.897 22.2859 247.416 2.59255 215.468 2.86049ZM237.106 36.2185C236.279 35.9506 237.551 35.3477 237.679 34.9458C237.551 35.3477 237.361 35.7497 237.106 36.2185ZM13.5997 37.6922C13.727 37.6252 13.8543 37.5582 13.9816 37.4912C13.9179 37.6252 13.9179 37.7592 13.8543 37.9601C13.7906 37.8262 13.6633 37.7592 13.5997 37.6922ZM55.9844 12.1713C55.9844 12.1713 56.0481 12.1043 56.1117 12.1043C56.0481 12.1713 55.9844 12.1713 55.9844 12.1713ZM39.4378 5.67381C38.9287 5.53984 38.356 5.40588 37.8468 5.27191H40.3925C40.0743 5.40588 39.7561 5.53984 39.4378 5.67381ZM45.3564 44.3236C45.9292 44.5915 44.02 44.3906 43.9563 44.4576C44.4018 44.3906 44.9109 44.3236 45.3564 44.3236ZM169.583 5.27191C164.619 7.21445 162.264 7.68334 158.891 5.27191C158.955 5.27191 169.583 5.27191 169.583 5.27191ZM236.47 26.5728C236.979 26.1709 237.488 25.769 237.933 25.3671C237.679 26.037 238.888 27.5106 236.47 26.5728ZM226.796 9.69286C226.351 9.22397 225.651 8.75508 224.887 8.42016C225.905 8.62112 226.732 9.09001 227.051 9.62588C226.987 9.55889 226.86 9.4919 226.796 9.69286ZM186.384 14.5157C190.903 11.3005 199.749 9.09001 201.594 5.27191H204.904C198.667 8.2862 192.43 11.3675 186.384 14.5157ZM92.5142 42.1801C92.7051 43.1179 93.9143 43.9217 95.4417 44.4576H88.3776C89.7777 43.6538 91.1141 42.9169 92.5142 42.1801ZM103.397 44.1227C106.197 41.3093 109.952 44.2566 114.279 44.3906H102.824C102.951 44.3236 103.206 44.2566 103.397 44.1227ZM172.129 44.3906C173.338 44.1896 174.483 44.3236 175.756 44.4576H171.938C172.001 44.3906 172.065 44.3906 172.129 44.3906ZM230.487 8.15222C225.46 8.68809 220.687 6.47762 216.041 8.6881C216.868 7.4154 215.914 6.07572 214.132 5.20493C220.241 5.13794 226.223 6.20968 230.487 8.15222ZM177.729 7.54937C177.093 6.47762 175.502 5.60684 173.465 5.27191H183.52C181.548 6.00874 179.638 6.74556 177.729 7.54937ZM131.271 11.3005C135.408 9.42493 136.554 4.87001 142.154 5.20493C138.526 7.28143 134.899 9.29096 131.271 11.3005ZM107.661 5.33889C107.661 5.27191 107.724 5.27191 107.852 5.27191C107.788 5.27191 107.724 5.33889 107.661 5.33889ZM89.3322 6.87953C90.4141 6.34366 90.7959 5.07096 92.5142 5.27191C91.4323 5.80779 90.3504 6.34366 89.3322 6.87953ZM5.64461 27.1757C12.136 23.0897 19.0728 19.2716 26.5824 15.6544C19.5819 20.4103 12.6451 25.1662 5.64461 29.922V27.1757ZM126.244 44.4576C132.544 40.5725 138.908 36.6874 145.527 32.8693C140.308 37.4243 136.745 41.1084 126.244 44.4576Z" fill="#B6E6F6" />
</svg>
