<svg width="180" height="180" viewBox="0 0 180 180" fill="none" xmlns="http://www.w3.org/2000/svg">
	<path d="M64.2242 89.0007C55.9739 99.7283 44.7805 108.175 35.9103 118.432C31.3393 123.718 25.3946 128.14 21.284 133.764C18.3671 137.755 14.157 140.447 11.4289 144.628C7.34881 150.88 7.03193 158.368 13.6971 162.502C19.1689 165.896 29.3835 164.537 34.5024 161.115C50.6079 150.35 58.1837 130.052 74.2358 119.511C79.3784 116.134 83.0113 112.629 89.4095 114.811C93.4757 116.197 98.6416 117.431 102.941 117.431C109.026 117.431 112.206 112.464 116.159 108.57C120.733 104.065 124.789 99.2941 129.534 95.0873C133.013 92.0027 118.77 84.8884 117.02 83.6075C108.466 77.3487 99.6032 71.4736 90.9738 65.2707C87.4016 62.7029 83.0691 58.8573 79.0069 57.1424C76.9788 56.2862 74.0326 53.063 71.9675 52.9434C69.5097 52.801 65.587 57.8416 63.8722 59.5308C61.0452 62.3155 58.6161 65.012 56.4809 68.3525C52.063 75.2642 59.116 77.0311 61.956 82.0666C63.2385 84.3406 65.0864 86.1405 63.8331 88.9622C62.6935 91.5282 61.3048 93.9568 59.2966 95.9348" stroke="#545454" stroke-width="3" stroke-linecap="round" stroke-linejoin="round" />
	<path d="M56.4814 71.667C63.3929 75.7835 69.3909 81.2939 76.5046 84.9959C83.3889 88.5785 90.6983 91.9227 96.9188 96.5913C99.9088 98.8353 104.213 102.117 107.517 103.564C109.588 104.47 110.866 106.08 112.796 107.031" stroke="#545454" stroke-width="3" stroke-linecap="round" stroke-linejoin="round" />
	<path d="M73.376 51.5574C79.0992 44.1851 83.0939 36.2815 88.1587 28.5207C90.245 25.3239 92.551 15.5 97.6618 15.5C100.501 15.5 105.3 23.1985 105.757 22.9734C108.948 21.402 112.475 16.8868 116.316 16.8868C117.705 16.8868 119.886 19.9265 121.283 20.7006C123.367 21.8555 125.33 22.6758 127.227 24.1291C129.444 25.8278 126.352 29.7598 125.467 31.9878C124.008 35.6625 123.236 39.3205 122.104 43.0823C121.062 46.5474 128.169 40.4978 128.909 39.7694C132.805 35.9317 136.289 31.1138 141.658 35.6089C143.869 37.4604 147.893 38.6445 150.653 39.6153C153.448 40.5988 154.697 43.3978 157.497 44.6232C159.499 45.4998 163.42 50.097 164.888 51.9041C167.548 55.1796 172.686 57.3142 171.067 62.4978C169.836 66.4376 170.792 69.0444 166.296 70.6262C158.039 73.5307 150.178 78.1136 142.362 82.0674C140.039 83.2427 137.624 84.18 135.322 85.3804C133.991 86.0748 132.167 88.9245 130.747 88.9245C128.601 88.9245 123.823 81.6071 125.624 79.8331C133.886 71.6947 143.765 66.1216 153.625 60.1865C155.791 58.8825 162.35 52.3878 164.888 53.6376" stroke="#545454" stroke-width="3" stroke-linecap="round" stroke-linejoin="round" />
	<path d="M14.2451 156.262C17.7384 158.764 19.9282 159.035 24.1002 159.035C27.4973 159.035 28.9675 157.293 31.8436 155.876C34.9253 154.358 38.7536 149.972 40.6819 147.209C43.5867 143.047 47.875 139.843 51.0063 135.844C60.5545 123.652 71.1164 108.416 88.0022 108.416C90.87 108.416 93.7379 108.416 96.6058 108.416C99.4209 108.416 101.732 109.803 104.623 109.803C107.707 109.803 99.2346 106.809 96.3712 105.681C93.6927 104.626 90.8605 102.274 88.1586 100.943C82.7768 98.2921 78.4598 95.7078 73.7279 92.0825C72.4731 91.1212 67.4659 85.8187 68.9958 89.6941C69.7881 91.701 65.8374 95.3541 64.5767 96.32C58.0342 101.332 53.0523 107.776 47.3302 113.578C39.4698 121.549 32.4113 130.781 25.117 139.273C23.5917 141.049 11.9961 152.351 15.1055 155.414C16.757 157.041 21.9019 154.802 23.3963 154.027C28.124 151.576 32.0391 146.361 35.7543 142.701C43.1445 135.422 49.8182 127.538 57.1853 120.281C62.4911 115.055 68.4528 110.506 73.9234 105.488C76.5798 103.052 80.0208 100.931 83.7785 100.789C84.9441 100.744 87.8448 100.894 88.7061 101.636C89.747 102.533 86.0135 100.978 84.6389 100.827C78.9241 100.202 74.9406 97.3233 69.1132 100.48C59.6686 105.597 52.3976 115.207 45.6095 123.132C39.1328 130.693 32.5286 138.092 26.2512 145.822C24.5481 147.919 21.5234 153.023 19.1727 154.181" stroke="#D27C2C" stroke-width="3" stroke-linecap="round" stroke-linejoin="round" />
	<path d="M98.0135 21.0488C96.1343 22.9578 89.6561 30.9817 90.3092 33.8769C90.6883 35.5573 92.661 33.1291 93.477 32.8368C96.1984 31.862 98.7363 31.2322 101.533 30.6025C109.022 28.9163 105.681 36.4426 103.332 40.0791C100.407 44.6075 111.648 37.5245 113.852 38.7308C117.892 40.9415 113.853 47.516 112.953 50.8655C112.287 53.343 110.023 58.2334 113.891 57.1447C117.598 56.1015 120.89 52.9892 124.059 50.7114C128.908 47.2261 133.978 42.4429 139.546 40.3102C141.85 39.4275 147.979 45.2023 150.066 46.3583C152.769 47.856 158.922 50.6751 155.736 53.6391C151.934 57.1764 145.556 59.0849 140.993 61.6133C139.812 62.2678 136.317 65.1413 138.138 62.1141C139.187 60.3699 140.39 56.6295 139.155 54.7178C136.677 50.8832 130.858 49.8543 126.875 51.713C123.533 53.2724 130.149 49.3808 130.942 48.9393C133.93 47.2758 137.166 46.0116 140.602 46.0116C144.78 46.0116 141.507 52.5646 145.334 51.4048C146.22 51.1362 150.231 50.5029 149.049 52.599C148.278 53.9663 147.76 54.2179 149.401 55.0259" stroke="#699BF7" stroke-width="3" stroke-linecap="round" stroke-linejoin="round" />
	<path d="M145.881 72.3603C148.953 68.3658 153.16 66.7586 157.496 64.3861C158.72 63.7159 164.695 60.1339 164.887 63.3459C165.096 66.8438 157.735 68.0936 155.384 69.8948C154.029 70.9329 152.289 71.1728 150.808 71.821C149.95 72.1969 146.669 73.6637 147.289 73.0537" stroke="#699BF7" stroke-width="3" stroke-linecap="round" stroke-linejoin="round" />
	<path d="M134.618 42.5425C133.53 42.961 118.608 49.0333 118.428 46.0096C118.29 43.7094 120.362 41.5873 120.54 39.2296C120.72 36.8287 121.243 34.6056 121.243 32.1414C121.243 30.3602 121.41 29.1631 122.495 27.8268C123.361 26.7606 119.918 25.4407 119.132 25.0532C118.237 24.6126 115.756 22.2438 114.908 22.5877C112.619 23.5162 111.32 25.3215 109.277 26.44C104.179 29.2299 103.974 26.5328 100.673 23.2811C98.9048 21.5394 98.2222 23.5314 97.4661 25.2073C96.3908 27.5903 99.0437 28.0447 100.673 28.5202C103.696 29.4027 106.412 28.2412 108.964 30.7545C110.091 31.8646 111.079 35.819 112.796 34.2216C113.817 33.2721 116.477 29.4946 118.271 30.9086C119.952 32.2332 118.428 34.5513 118.428 36.3018" stroke="#699BF7" stroke-width="3" stroke-linecap="round" stroke-linejoin="round" />
	<path d="M64.9287 63.3467C68.8992 65.422 71.9108 68.8941 75.8006 70.9742C78.7997 72.5779 81.8693 73.8913 84.6781 75.8281C89.8855 79.4188 96.2833 81.3885 100.986 85.6899C104.683 89.0717 110.615 93.1368 115.26 94.8969C116.576 95.3954 122.752 99.3053 123.356 98.7106" stroke="#545454" stroke-width="3" stroke-linecap="round" stroke-linejoin="round" />
	<path d="M84.6387 56.4098C89.8249 48.1574 95.8461 40.3153 101.181 32.1404C102.257 30.492 104.393 28.689 105.053 26.9013C105.643 25.3016 107.07 22.4795 108.573 21.7393" stroke="#545454" stroke-width="3" stroke-linecap="round" stroke-linejoin="round" />
	<path d="M95.1973 66.1202C97.7481 60.4336 101.99 55.3555 105.443 50.1718C108.76 45.1932 112.544 40.408 116.315 35.7642C118.407 33.1884 120.633 30.6637 123.003 28.3293C123.909 27.4364 125.675 26.1855 126.171 25.209" stroke="#545454" stroke-width="3" stroke-linecap="round" stroke-linejoin="round" />
	<path d="M107.868 75.1321C112.634 72.2699 118.288 68.9511 122.26 65.0392C124.908 62.4305 127.273 59.8467 130.394 57.7969" stroke="#545454" stroke-width="3" stroke-linecap="round" stroke-linejoin="round" />
	<path d="M121.244 82.7597C128.395 73.4613 140.768 70.8344 150.105 64.1917C153.637 61.6788 157.932 59.4208 161.72 57.4117C163.236 56.6078 166.873 53.5739 168.407 54.3299" stroke="#545454" stroke-width="3" stroke-linecap="round" stroke-linejoin="round" />
</svg>
