<svg width="280" height="50" viewBox="0 0 280 50" fill="none" xmlns="http://www.w3.org/2000/svg">
	<path d="M274.621 34.2742C275.771 31.4516 284.583 19.7158 276.861 16.9355C274.621 16.129 271.634 14.9194 266.407 13.7097C262.674 12.8456 260.267 11.6935 256.265 10.2482C242.92 5.42829 235.07 5.82995 234.285 5.82995C233.5 5.82995 222.511 4.62463 208.381 7.83787C212.872 5.28436 225.93 0.514895 243.47 0.914112C244.383 0.946456 245.249 0.978518 246.06 1.00985C245.187 0.96515 244.323 0.933522 243.47 0.914112C228.782 0.393571 201.938 -0.200215 194.251 1.00985C187.71 1.67917 167.876 2.61622 140.872 1.00985C107.118 -0.998126 90.6337 0.608496 85.9238 0.608496C81.2139 0.608496 10.9406 0.947075 4.3168 2.82258C1.4686 3.62903 -0.362305 8.33333 0.0605774 14.1026C0.68927 22.6799 -0.362305 28.8462 0.906311 33.3333C1.95004 37.0251 10.7253 49.6107 32.545 49.6107C72.8407 49.0752 153.135 50 161.68 50C170.769 50 200.209 49.995 219.367 49.5968C239.512 49.178 257.153 45.5628 263.42 43.1452C268.647 41.129 273.963 35.8871 274.621 34.2742Z" fill="#F4EFF4" />
</svg>
