<svg width="180" height="180" viewBox="0 0 180 180" fill="none" xmlns="http://www.w3.org/2000/svg">
	<path d="M119.191 54.4545C119.42 54.3764 134.57 45.7691 128.71 45.7691C125.632 45.7691 122.349 57.0279 124.056 57.0279C126.744 57.0279 133.201 44.1607 132.094 44.1607C127.957 44.1607 123.645 58.4413 122.153 62.979C120.014 69.4844 145.206 32.2622 132.517 51.5593C121.271 68.6619 153.157 29.4309 140.132 39.3355C131.584 45.8354 136.633 54.0794 131.565 60.2447C128.306 64.2097 137.119 61.6867 138.228 60.8881C142.784 57.6059 147.047 53.6999 151.554 50.2726C154.663 47.9082 171.564 33.9991 169.533 26.7899C166.983 17.7413 153.093 23.238 148.698 26.9507C145.089 30.0002 130.613 35.8071 130.613 42.8739C130.613 52.6452 152.704 39.6411 155.361 37.727C159.22 34.9469 162.875 31.6833 166.783 29.0417C170.753 26.3581 171.97 23.3727 167.735 26.9507C160.603 32.9764 149.539 33.6764 143.939 44.3215C139.55 52.666 157.864 35.415 160.649 30.6501C162.48 27.5174 151.978 34.0555 150.708 35.6361C149.216 37.4927 140.409 47.9274 143.939 42.8739C154.388 27.9182 145.393 36.9524 140.555 46.4124C138.638 50.1609 145.502 43.3925 144.679 44.6432C142.265 48.3145 140.132 52.2002 140.132 57.3496" stroke="#699BF7" stroke-width="3" stroke-linecap="round" stroke-linejoin="round" />
	<path d="M50.4209 101.992C65.7449 106.539 75.8823 96.2016 90.3979 96.2016C99.8177 96.2016 106.759 90.9985 115.146 84.6211" stroke="#545454" stroke-width="3" stroke-linecap="round" stroke-linejoin="round" />
	<path d="M60.5264 123.949C78.1349 123.949 92.9487 112.359 110.022 109.474C116.496 108.379 120.193 98.3735 119.54 115.264C119.156 125.187 108.954 123.085 106.214 128.292C104.143 132.23 91.3515 136.818 88.0238 138.264C82.7451 140.558 75.1895 147.571 70.0447 147.11C66.8606 146.825 59.7564 132.599 62.43 134.886C70.8448 142.085 77.573 135.159 86.1201 132.795C93.6804 130.705 99.8415 124.03 107.06 120.893C112.386 118.579 117.172 113.155 108.964 115.425C94.2767 119.486 54.6239 145.793 65.1798 129.739C65.9416 128.581 81.7254 126.844 83.3704 126.844C88.4363 126.844 98.9374 123.342 103.359 119.607C106.425 117.016 120.553 117.187 112.771 123.949C106.914 129.04 99.2801 126.499 92.8887 129.739" stroke="#699BF7" stroke-width="3" stroke-linecap="round" stroke-linejoin="round" />
	<path d="M83.371 81.899C80.7144 71.5461 78.9008 61.0766 73.8527 52.9477C70.3988 47.3861 63.1548 44.9151 60.527 39.9196C56.6766 32.6 38.1417 35.2966 37.683 47.1575C37.3642 55.3992 43.2721 55.4388 47.2013 58.0946C49.3923 59.5756 51.5519 59.7156 53.7584 61.6331C56.0697 63.6417 52.3983 65.7225 51.0087 63.0807C47.1905 55.8223 23.2193 64.9118 26.684 76.1088C29.6586 85.7217 43.9026 76.1088 50.0568 76.1088C59.2037 76.1088 68.5311 76.9254 77.66 76.1088C80.5887 75.8468 65.3793 46.3847 59.5752 44.4232C55.2953 42.9767 49.1092 43.6158 45.2976 46.5141C36.9893 52.8318 50.553 47.7274 50.0568 51.5002C49.1907 58.0863 59.8455 43.699 56.7197 54.3953C55.2764 59.3339 55.8737 58.2081 58.6233 56.4862C61.0729 54.9522 59.9422 61.16 62.4307 61.6331C65.0327 62.1278 69.5548 65.0689 71.526 68.0667C74.2052 72.1414 66.778 58.7018 63.4882 55.8429C55.7288 49.0996 83.3914 71.507 73.8527 73.2136C63.5205 75.0623 53.2658 76.1088 42.4421 76.1088C41.2556 76.1088 30.2798 82.3468 30.2798 77.5563C30.2798 73.6058 41.447 73.2136 43.394 73.2136C46.6213 73.2136 70.86 80.5526 66.238 71.7661C62.0013 63.7121 43.2106 72.7466 37.683 73.2136C29.6312 73.8939 56.4686 65.2918 56.7197 64.5282" stroke="#699BF7" stroke-width="3" stroke-linecap="round" stroke-linejoin="round" />
	<path d="M77.6592 55.8429C80.4359 61.2482 84.6453 73.2137 89.0812 73.2137C93.5851 73.2137 97.0204 70.3186 101.455 70.3186C111.717 70.3186 113.868 58.7381 101.455 58.7381C97.9542 58.7381 77.2331 57.1633 87.1775 63.885C90.0854 65.8505 92.8 69.7501 93.8404 68.871C95.295 67.642 101.791 67.4235 104.311 67.4235" stroke="#545454" stroke-width="3" stroke-linecap="round" stroke-linejoin="round" />
	<path d="M169.035 15.3088C165.606 38.483 138.393 58.7358 123.347 58.7358C112.331 58.7358 112.886 47.7223 119.962 39.1132C125.972 31.8011 136.062 30.5265 141.96 23.3508C149.511 14.1635 186.65 4.45058 168.612 29.1411C157.901 43.8008 137.761 64.526 123.347 64.526C121.407 64.526 114.432 60.5882 113.934 63.2393C112.954 68.4558 117.426 76.1579 117.636 81.8968C118.051 93.2643 122.934 103.08 123.347 113.743C123.82 125.985 129.515 127.68 124.827 139.799C119.909 152.515 112.016 151.848 105.791 159.422C102.429 163.512 85.9459 165.856 81.4659 165.856C75.287 165.856 62.9262 170.021 62.4292 157.17C61.9094 143.733 58.3862 131.684 54.3915 119.534C51.4462 110.575 49.1035 80.5664 49.1035 90.5822" stroke="#545454" stroke-width="3" stroke-linecap="round" stroke-linejoin="round" />
	<path d="M83.3696 76.1094C78.4426 79.0335 60.0812 90.464 54.8146 80.4521C49.0469 69.4875 35.7682 92.1787 28.5863 81.2563C20.2002 68.5026 35.0506 61.3294 40.6429 58.8995C47.8192 55.7812 56.6364 60.1239 62.4293 64.5289" stroke="#545454" stroke-width="3" stroke-linecap="round" stroke-linejoin="round" />
	<path d="M7.22276 26.8915C6.64019 31.9543 4.75355 46.5959 11.0301 47.1574C15.2486 47.5348 19.3265 48.7654 21.5003 42.8147C26.05 30.3599 11.5956 29.7866 7.22276 29.7866" stroke="#545454" stroke-width="3" stroke-linecap="round" stroke-linejoin="round" />
	<path d="M83.3697 72.0183C78.2442 61.3001 68.634 31.4864 57.6702 31.4864C50.9287 31.4864 47.7366 28.5649 40.643 31.6473C36.4774 33.4573 33.5145 52.026 37.6817 48.8572" stroke="#545454" stroke-width="3" stroke-linecap="round" stroke-linejoin="round" />
</svg>
