<svg width="1040" height="407" viewBox="0 0 1040 407" fill="none" xmlns="http://www.w3.org/2000/svg">
	<path d="M115.001 318C111.911 325.338 108.585 326.561 103.177 331.76C99.6959 335.107 100.916 331.748 103.177 332.956C105.363 334.124 109.716 337.532 110.99 339.537C111.405 340.19 113.568 346.21 113.756 343.127C113.993 339.252 115.445 337.513 118.112 334.751C120.113 332.68 128.171 331.081 125.441 330.031C122.494 328.898 121.237 328.923 118.734 326.376C117.417 325.035 117.49 320.913 117.49 321.59" stroke="#FFC700" stroke-width="8" stroke-linecap="round" stroke-linejoin="round" />
	<path d="M113.702 303.593C111.105 316.818 101.887 325.169 89.0674 328.809C85.6288 329.786 91.5011 331.844 92.6152 332.336C96.1898 333.915 101.358 337.469 103.46 340.719C106.708 345.742 113.009 362.562 111.359 356.821C109.959 351.951 120.181 340.156 124.278 338.59C127.641 337.305 130.814 335.289 134.186 333.8C134.535 333.645 142.801 331.582 139.005 331.138C123.682 329.346 118.521 312.731 118.521 300" stroke="white" stroke-width="8" stroke-linecap="round" stroke-linejoin="round" />
	<path d="M103.846 338C103.846 343.373 101.646 349.443 96.5792 352.229C93.7051 353.81 88.1938 356.517 84.9528 356.706C82.2063 356.866 86.2151 359.395 86.7694 359.944C89.0546 362.206 91.7526 363.866 93.3497 366.779C95.8638 371.364 98.7592 377.604 98.7592 382.887C98.7592 383.462 98.6608 381.683 98.9207 381.168C99.6635 379.697 100.894 378.642 101.504 377.011C102.713 373.781 105.651 370.465 108.246 368.218C110.836 365.974 113.588 364.83 116.764 363.741C117.427 363.514 121.765 362.032 120.882 361.782C116.252 360.473 113.35 356.764 110.022 353.469C105.858 349.346 104.572 345.262 104.572 339.439" stroke="#FFC700" stroke-width="3" stroke-linecap="round" stroke-linejoin="round" />
	<path d="M1001.47 91.6645C1001.85 100.761 996.318 104.087 988.72 107.65C984.489 109.634 990.699 107.772 992.818 107.912C995.825 108.11 1000.19 112.656 1001.02 115.356C1001.93 118.314 1001.91 121.469 1002.66 124.272C1002.9 125.18 1002.98 122.379 1003.44 121.549C1004.31 119.966 1005.53 118.626 1006.39 117.05C1008.61 112.929 1012.87 111.604 1017.09 110.474C1020.5 109.561 1020.68 109.98 1017.22 109.698C1010.32 109.137 1003.39 101.289 1004.36 94.6001C1004.93 90.6204 1003.64 95.4232 1003.19 96.8093C1002.82 97.9488 997.418 105.094 997.768 105.555C998.082 105.97 1004.04 101.162 1003.24 104.541C1002.26 108.723 999.368 110.334 1004.65 106.966C1009.8 103.68 1002.93 111.16 1004.85 112.104C1005.67 112.508 1006.95 110.305 1007.6 110.133C1008.75 109.823 1008.12 111.657 1009.15 111.859" stroke="#FFC700" stroke-width="8" stroke-linecap="round" stroke-linejoin="round" />
	<path d="M1000.74 84.4605C998.566 91.6337 991.911 97.5074 985.682 101.572C983.337 103.102 981.09 104.023 978.608 105.143C975.003 106.771 979.756 106.054 981.383 105.871C990.144 104.887 997.898 115.795 999.777 122.808C1000.48 125.433 1000.29 127.895 1000.39 130.531C1000.48 132.87 1002.38 128.604 1003.2 127.203C1007.59 119.752 1016.91 114.702 1025.1 112.507C1026.06 112.251 1026.7 111.108 1027.69 111.12C1028.72 111.132 1028.74 112.117 1027.66 111.657C1025.59 110.769 1023.8 109.202 1021.87 108.059C1018.69 106.176 1015.63 103.662 1013.05 101.065C1010.07 98.062 1008.96 94.6924 1006.68 91.2858C1005.03 88.8081 1006.6 84.4056 1004.16 82.6438C1003.16 81.9203 1004.55 80.5033 1003.9 79.6487C1003.7 79.3855 1001.42 83.3013 1001.25 83.5869" stroke="#FFC700" stroke-width="3" stroke-linecap="round" stroke-linejoin="round" />
	<path d="M254.764 12.3627C255.257 18.8881 251.372 21.403 246.015 24.136C243.033 25.6576 247.436 24.1783 248.957 24.2303C251.115 24.304 254.354 27.4695 255.013 29.3896C255.736 31.4936 255.793 33.7604 256.399 35.7565C256.595 36.403 256.584 34.3895 256.892 33.7829C257.48 32.6261 258.324 31.6357 258.896 30.4842C260.392 27.4732 263.409 26.4243 266.402 25.5164C268.821 24.7824 268.96 25.0793 266.475 24.9561C261.523 24.7108 256.372 19.232 256.901 14.4054C257.217 11.5338 256.404 15.0131 256.116 16.0189C255.879 16.8458 252.184 22.1014 252.445 22.4246C252.681 22.7155 256.83 19.1259 256.344 21.571C255.743 24.5969 253.707 25.8203 257.409 23.2811C261.021 20.803 256.274 26.3325 257.677 26.967C258.276 27.2377 259.138 25.6268 259.596 25.4881C260.417 25.239 260.009 26.5707 260.75 26.6926" stroke="#FFC700" stroke-width="8" stroke-linecap="round" stroke-linejoin="round" />
	<path d="M254.006 7.23296C252.665 12.4867 248.095 16.8804 243.778 19.9518C242.153 21.1077 240.58 21.8191 238.846 22.68C236.326 23.9307 239.688 23.3201 240.841 23.1567C247.047 22.2769 252.872 30.0574 254.407 35.1184C254.982 37.0129 254.913 38.8056 255.062 40.7196C255.193 42.4174 256.42 39.2817 256.968 38.2482C259.882 32.7504 266.37 28.9054 272.136 27.156C272.808 26.9522 273.231 26.1098 273.935 26.0996C274.669 26.089 274.712 26.8043 273.934 26.4905C272.431 25.884 271.118 24.7787 269.712 23.9849C267.394 22.6762 265.145 20.9068 263.237 19.0676C261.03 16.9418 260.147 14.5139 258.431 12.081C257.184 10.3116 258.177 7.08269 256.391 5.84828C255.658 5.34134 256.606 4.2855 256.121 3.67663C255.971 3.48911 254.459 6.37772 254.348 6.58841" stroke="#FFC700" stroke-width="3" stroke-linecap="round" stroke-linejoin="round" />
	<path d="M853.687 7.37557C849.682 5.43559 842.993 9.02103 841.227 13.0263C840.953 13.6493 842.03 15.255 842.248 15.8709C842.751 17.2933 844.494 18.9508 845.779 19.6102C848.739 21.1278 854.006 22.9132 854.628 17.9703C854.831 16.3484 850.758 12.9563 852.213 13.7022" stroke="#121212" stroke-width="2" stroke-linecap="round" />
	<path d="M27.7272 46.2272C34.4466 50.8349 39.2051 58.4241 37.1073 67.012C35.61 73.1418 34.7256 81.5257 31.5677 87.0338C27.2169 94.6225 12.0975 82.0345 8.91548 79.5654C5.99011 77.2954 2.25982 74.2999 3.21521 70.1699C4.06169 66.5107 5.16072 62.3714 8.30248 59.9932C11.7104 57.4135 16.3462 54.9798 20.7391 56.1569C22.8038 56.7101 22.414 62.2533 22.919 64.1719C23.5252 66.4755 22.8788 68.6092 20.8232 70.036C14.8393 74.1892 11.9165 66.115 14.6819 65.5492" stroke="#121212" stroke-width="2" stroke-linecap="round" />
	<path d="M969.839 352C947.819 352 914.262 351.731 908.574 378.615C907.956 381.534 907.777 385.648 908.335 388.615C908.752 390.833 911.621 390.821 912.552 392.846C914.326 396.705 921.821 395.754 925.123 397.692C936.715 404.496 947.804 406 961.246 406C977.309 406 977 397.83 977 384.539C977 378.671 976.151 367.231 967.691 367.231C959.082 367.231 950.381 364.462 941.832 364.462C936.199 364.462 932.602 364.724 932.602 371.077C932.602 372.84 931.453 383.232 933.398 383.769C939.321 385.405 948.62 381.951 951.221 376.923" stroke="#121212" stroke-width="2" stroke-linecap="round" />
</svg>
