<svg width="1044" height="399" viewBox="0 0 1044 399" fill="none" xmlns="http://www.w3.org/2000/svg">
	<path d="M121.311 322C118.829 328.133 116.156 329.155 111.811 333.5C109.014 336.297 109.994 333.491 111.811 334.5C113.567 335.476 117.065 338.324 118.089 340C118.422 340.545 120.159 345.577 120.311 343C120.501 339.762 121.668 338.308 123.811 336C125.419 334.269 131.894 332.933 129.7 332.056C127.332 331.108 126.322 331.129 124.311 329C123.253 327.879 123.311 324.434 123.311 325" stroke="#FFC700" stroke-width="8" stroke-linecap="round" stroke-linejoin="round" />
	<path d="M120.311 310C118.156 321.043 110.506 328.016 99.8663 331.056C97.0126 331.871 101.886 333.589 102.811 334C105.777 335.318 110.066 338.286 111.811 341C114.507 345.194 119.736 359.238 118.366 354.444C117.205 350.378 125.688 340.53 129.089 339.222C131.879 338.149 134.513 336.466 137.311 335.222C137.601 335.093 144.461 333.371 141.311 333C128.594 331.504 124.311 317.63 124.311 307" stroke="white" stroke-width="8" stroke-linecap="round" stroke-linejoin="round" />
	<path d="M106.311 331C106.311 338.468 103.283 346.904 96.3111 350.778C92.3559 352.975 84.7713 356.738 80.3111 357C76.5316 357.222 82.0483 360.737 82.8111 361.5C85.9559 364.645 89.6688 366.951 91.8667 371C95.3265 377.373 99.3111 386.046 99.3111 393.389C99.3111 394.189 99.1757 391.715 99.5334 391C100.556 388.955 102.249 387.489 103.089 385.222C104.752 380.733 108.796 376.124 112.367 373C115.93 369.882 119.718 368.291 124.089 366.778C125.002 366.462 130.971 364.403 129.756 364.056C123.384 362.235 119.391 357.08 114.811 352.5C109.081 346.769 107.311 341.093 107.311 333" stroke="#FFC700" stroke-width="3" stroke-linecap="round" stroke-linejoin="round" />
	<path d="M1009.57 86C1006.43 100.162 996.613 102.997 983.554 105.348C976.283 106.657 986.526 106.352 989.704 107.441C994.213 108.987 999.024 117.787 999.186 122.285C999.364 127.214 998.033 132.061 998.033 136.685C998.033 138.183 999.301 133.905 1000.34 132.816C1002.32 130.739 1004.74 129.181 1006.68 127.107C1011.77 121.682 1018.81 121.397 1025.71 121.397C1031.29 121.397 1031.39 122.116 1026.22 120.256C1015.93 116.548 1008.56 101.609 1012.77 91.7093C1015.27 85.8195 1011.33 92.6786 1010.08 94.6273C1009.05 96.2292 997.88 105.001 998.225 105.856C998.536 106.624 1009.59 101.678 1007 106.553C1003.8 112.587 998.714 113.872 1008.16 110.867C1017.37 107.934 1003.81 116.611 1006.36 118.86C1007.45 119.82 1010.3 116.957 1011.36 116.957C1013.25 116.957 1011.54 119.52 1013.02 120.256" stroke="#FFC700" stroke-width="8" stroke-linecap="round" stroke-linejoin="round" />
	<path d="M1010.69 74.2069C1004.43 84.4723 991.845 90.8423 980.653 94.5736C976.44 95.978 972.626 96.4739 968.371 97.1831C962.19 98.2134 969.753 99.08 972.316 99.4744C986.119 101.598 993.507 121.82 993.507 133.525C993.507 137.907 992.202 141.659 991.28 145.809C990.462 149.489 995.107 143.636 996.944 141.799C1006.71 132.027 1023.03 128.051 1036.46 128.051C1038.03 128.051 1039.47 126.538 1040.98 126.969C1042.55 127.419 1042.18 128.961 1040.73 127.797C1037.91 125.547 1035.83 122.362 1033.34 119.777C1029.25 115.517 1025.6 110.324 1022.72 105.203C1019.39 99.2826 1019.07 93.5729 1016.99 87.318C1015.47 82.7688 1019.68 76.5683 1016.67 72.8067C1015.44 71.2619 1018.14 69.6344 1017.5 68.0333C1017.3 67.5401 1012.21 72.6868 1011.83 73.0613" stroke="#FFC700" stroke-width="3" stroke-linecap="round" stroke-linejoin="round" />
	<path d="M260.323 12C258.529 20.0526 252.922 21.665 245.459 23.0018C241.304 23.7461 247.158 23.5727 248.974 24.1922C251.55 25.071 254.299 30.0752 254.392 32.6329C254.494 35.4356 253.733 38.1914 253.733 40.8211C253.733 41.6728 254.458 39.2399 255.051 38.6208C256.183 37.44 257.564 36.5541 258.675 35.3743C261.583 32.2895 265.606 32.1279 269.549 32.1279C272.737 32.1279 272.795 32.5367 269.842 31.4786C263.958 29.3705 259.748 20.8755 262.153 15.2464C263.585 11.8974 261.332 15.7976 260.616 16.9057C260.028 17.8166 253.646 22.8047 253.843 23.2904C254.02 23.7274 260.339 20.9151 258.859 23.6872C257.026 27.1178 254.122 27.8487 259.518 26.14C264.783 24.4725 257.032 29.4062 258.492 30.685C259.116 31.2308 260.746 29.6029 261.348 29.6029C262.43 29.6029 261.451 31.0605 262.3 31.4786" stroke="#FFC700" stroke-width="8" stroke-linecap="round" stroke-linejoin="round" />
	<path d="M261.285 5.53559C257.744 11.383 250.623 15.0114 244.29 17.1369C241.907 17.9368 239.749 18.2193 237.341 18.6233C233.844 19.2102 238.124 19.7038 239.574 19.9284C247.383 21.1382 251.563 32.6567 251.563 39.3244C251.563 41.8203 250.825 43.9579 250.303 46.3214C249.84 48.4178 252.468 45.0838 253.508 44.0374C259.035 38.4712 268.269 36.2065 275.866 36.2065C276.752 36.2065 277.569 35.3447 278.423 35.5902C279.313 35.8462 279.102 36.7247 278.279 36.0615C276.688 34.7797 275.508 32.9658 274.102 31.4935C271.784 29.0664 269.719 26.1088 268.089 23.1913C266.206 19.8192 266.028 16.5668 264.849 13.0039C263.991 10.4126 266.371 6.88066 264.669 4.738C263.97 3.85805 265.499 2.931 265.137 2.01895C265.025 1.73805 262.144 4.66971 261.933 4.88302" stroke="#FFC700" stroke-width="3" stroke-linecap="round" stroke-linejoin="round" />
	<path d="M852.519 8C848.07 8.1011 843.754 14.3441 844.011 18.7135C844.051 19.3931 845.742 20.3306 846.217 20.7792C847.314 21.8152 849.621 22.4947 851.066 22.4947C854.392 22.4947 859.893 21.6798 858.191 16.9979C857.632 15.4617 852.46 14.3021 854.094 14.3021" stroke="#121212" stroke-width="2" stroke-linecap="round" />
	<path d="M24.6703 41C34.609 44.5078 43.0958 52.3974 43.3498 63.8306C43.5312 71.9912 45.2331 82.7631 43.1314 90.7029C40.2358 101.642 17.1291 90.9749 12.3265 88.9551C7.91117 87.0982 2.24716 84.6042 2.05818 79.1238C1.89074 74.2681 1.87815 68.728 5.00759 64.7045C8.4021 60.3401 13.3799 55.747 19.263 55.747C22.0281 55.747 23.397 62.8039 24.6703 65.0322C26.1991 67.7076 26.1057 70.5901 24.0149 73.0611C17.9284 80.2542 11.573 71.1439 14.8389 69.5109" stroke="#121212" stroke-width="2" stroke-linecap="round" />
	<path d="M961.537 364C947.815 364 926.902 363.831 923.358 380.758C922.973 382.595 922.861 385.186 923.209 387.054C923.469 388.45 925.257 388.443 925.837 389.718C926.942 392.148 931.613 391.549 933.671 392.769C940.895 397.053 947.805 398 956.182 398C966.192 398 966 392.856 966 384.487C966 380.793 965.471 373.59 960.198 373.59C954.833 373.59 949.412 371.846 944.084 371.846C940.573 371.846 938.332 372.012 938.332 376.011C938.332 377.122 937.616 383.665 938.828 384.003C942.519 385.033 948.314 382.858 949.935 379.692" stroke="#121212" stroke-width="2" stroke-linecap="round" />
</svg>
