<svg width="120" height="35" viewBox="0 0 120 35" fill="none" xmlns="http://www.w3.org/2000/svg">
	<path d="M117.695 23.9919C118.188 22.0161 121.964 13.8011 118.655 11.8548C117.695 11.2903 116.415 10.4435 114.175 9.59677C112.574 8.99191 111.543 8.18548 109.828 7.17371C104.109 3.7998 100.744 4.08096 100.408 4.08096C100.072 4.08096 95.3617 3.23724 89.3061 5.48651C91.2311 3.69905 96.8274 0.360425 104.344 0.639879C104.736 0.662519 105.107 0.684962 105.454 0.706892C105.08 0.675605 104.71 0.653466 104.344 0.639879C98.0495 0.2755 86.5446 -0.14015 83.2505 0.706892C80.447 1.17542 71.9468 1.83136 60.3739 0.706892C45.9078 -0.698688 38.843 0.425947 36.8245 0.425947C34.8059 0.425947 4.68885 0.662952 1.85006 1.97581C0.629402 2.54032 -0.155266 5.83333 0.0259628 9.87179C0.295403 15.8759 -0.155266 20.1923 0.38842 23.3333C0.835739 25.9176 4.59653 34.7275 13.9479 34.7275C31.2175 34.3526 65.6294 35 69.2913 35C73.1866 35 85.8041 34.9965 94.0144 34.7177C102.648 34.4246 110.208 31.894 112.894 30.2016C115.135 28.7903 117.413 25.121 117.695 23.9919Z" fill="#F5EEFA" />
</svg>
