<svg width="100" height="92" viewBox="0 0 100 92" fill="none" xmlns="http://www.w3.org/2000/svg">
	<path d="M23.546 70.3823C21.4609 64.3671 20.3857 54.5475 20.3857 47.1754C20.3857 44.9303 23.1961 40.7071 24.0727 39.6853C28.4217 34.616 34.1635 34.0626 38.557 28.9414C40.5567 26.6104 44.4405 25.1493 46.6916 23.9685C49.8509 22.3113 53.5061 19.6351 56.4942 16.7854C59.029 14.3679 62.1209 14.9346 64.6288 12.3036C66.5993 10.2364 70.2761 6.28702 72.5293 6.28702" stroke="#545454" stroke-width="3.16022" stroke-linecap="round" stroke-linejoin="round" />
	<path d="M25.6533 73.6935C30.402 71.5585 35.2291 68.4419 39.7573 64.8528C43.2594 62.0769 46.8775 62.8937 50.4084 61.2919C56.5377 58.5114 62.0162 51.8336 67.9066 48.0308C71.563 45.6704 75.6014 41.0068 79.377 40.5408C80.1842 40.4412 80.4304 38.5932 80.4304 37.2255C80.4304 34.3797 80.7505 34.8741 81.3668 32.8051C82.3884 29.3756 84.8073 27.0489 86.4583 25.0695C90.0716 20.7374 86.9852 18.1646 86.2534 11.2559C85.79 6.88066 83.4678 9.59823 81.7472 9.59823C79.8034 9.59823 78.5768 8.20021 76.9776 6.28296C75.7389 4.79782 74.1031 1.65186 73.554 6.8355C73.0673 11.4314 73.0566 15.7818 73.0566 20.6491C73.0566 29.779 76.7601 33.9277 79.9037 37.2255" stroke="#545454" stroke-width="3.16022" stroke-linecap="round" stroke-linejoin="round" />
	<path d="M86.2236 9.59775C87.612 8.46097 91.821 3.55737 93.0708 6.83502C93.3146 7.47448 98.2525 10.0785 98.1037 10.7028C97.7194 12.3156 93.6384 15.1232 92.8074 15.1232C91.3393 15.1232 88.9814 16.8122 88.3304 19.5436" stroke="#545454" stroke-width="3.16022" stroke-linecap="round" stroke-linejoin="round" />
	<path d="M23.5459 42.196C19.2498 49.0247 22.0364 62.8693 25.4479 68.5954C26.1428 69.7618 27.6419 67.9631 28.4179 67.3369C30.1259 65.9586 32.0437 64.579 33.8166 63.6225C35.7309 62.5897 37.222 60.2105 39.2153 59.8468C41.0731 59.5079 43.0636 58.4144 44.8774 57.5445C51.3716 54.4301 57.3076 47.0428 63.8972 44.529C65.4947 43.9196 67.6369 44.3559 69.1204 42.9942C70.478 41.7479 71.7479 40.2234 73.056 39.0035C73.8293 38.2824 74.7579 38.4318 75.5579 37.4994C76.1439 36.8163 75.4901 38.1039 75.2213 37.6529C74.9245 37.1546 74.4833 36.4555 74.2557 35.8418C72.7414 31.7566 71.7393 27.612 71.7393 22.3044C71.7393 20.9169 71.3918 19.5064 71.4905 18.1603C71.5959 16.7236 71.7668 15.6396 71.7393 14.139C71.7216 13.1769 71.5046 12.2783 71.4759 11.2535C71.447 10.2211 70.6731 11.6205 70.4079 11.806C67.2282 14.0298 64.1805 16.7301 60.9272 18.4366C59.0917 19.3993 57.2167 20.5136 55.4115 21.7518C53.1826 23.2807 50.8265 24.5195 48.6814 26.4485C44.6864 30.0407 40.3402 31.686 36.3331 35.2892C34.7812 36.6847 33.0855 37.4194 31.4465 38.2054C30.7001 38.5634 29.8628 38.5126 29.1348 39.0035C28.3801 39.5125 27.6331 40.7624 26.8524 41.0602C25.8372 41.4476 24.7364 41.7272 23.8093 42.8714C23.0256 43.8385 22.7559 49.3473 22.7559 51.0061C22.7559 54.4666 23.7163 60.0935 24.8627 62.6402C25.209 63.4096 26.0383 66.5479 26.4428 64.8504" stroke="#FFC700" stroke-width="3.16022" stroke-linecap="round" stroke-linejoin="round" />
	<path d="M26.1797 57.119C27.681 54.8954 29.6806 53.8229 31.4467 52.8214C32.583 52.177 33.4748 50.4871 34.5484 49.5061C35.6669 48.4842 36.8743 47.8126 38.0159 46.8969C42.6495 43.1796 47.414 41.1298 52.1344 38.0561C54.5349 36.4931 56.7835 34.2845 58.9816 31.7019C60.3882 30.0491 62.134 29.4923 63.5171 27.8341C64.3407 26.8466 65.0632 26.6036 65.8141 25.3783C66.3806 24.4538 67.1226 23.3274 67.7892 22.8611" stroke="#FFC700" stroke-width="8.42725" stroke-linecap="round" stroke-linejoin="round" />
	<path d="M24.8633 49.3791C27.9001 47.2552 30.9385 45.5686 33.9343 43.1783C37.2809 40.5081 40.6428 36.6266 44.1465 35.0129C45.7297 34.2838 47.3774 34.2023 48.9746 33.6009C50.521 33.0185 51.981 31.7582 53.5686 31.6977C54.8727 31.6479 57.342 31.3265 58.3089 33.3553" stroke="#FFC700" stroke-width="8.42725" stroke-linecap="round" stroke-linejoin="round" />
	<path d="M35.1338 59.329C37.8365 59.077 40.5112 56.617 43.1221 55.2156C45.3621 54.0134 47.6105 53.7454 49.7352 51.5934C50.9921 50.3203 52.3223 49.3264 53.6269 48.2781C55.5639 46.7217 57.4631 44.2817 59.4207 42.9982C62.1485 41.2097 64.7604 39.2277 67.3651 36.7054C68.1385 35.9564 69.7759 35.5218 70.1595 33.9119" stroke="#FFC700" stroke-width="8.42725" stroke-linecap="round" stroke-linejoin="round" />
	<path d="M23.2828 38.3326C21.7065 40.7379 20.1226 44.1228 20.1226 48.5854C20.1226 52.9593 20.8293 56.5289 21.176 60.7107C21.4932 64.5375 22.7065 67.6463 23.6924 70.81C24.3297 72.8551 25.7014 74.4513 26.1796 76.4583" stroke="#545454" stroke-width="3.16022" stroke-linecap="round" stroke-linejoin="round" />
	<path d="M25.9165 75.9082C27.8657 71.9355 30.1735 71.0003 32.6466 69.0321C34.8375 67.2885 37.121 66.2414 39.3474 64.8573C41.1653 63.7272 43.1062 63.7762 44.8924 62.3708C46.99 60.7204 49.2058 59.9886 51.3299 58.503C55.7314 55.4247 60.3561 53.7932 64.7462 50.4911C66.8366 48.9188 68.68 46.1846 70.8179 44.6894C72.2255 43.705 73.7347 43.0592 75.1632 42.2029C75.9111 41.7546 76.5643 40.7736 77.2701 40.1155C77.7919 39.6289 79.5236 39.4402 78.9526 39.4402C77.2462 39.4402 75.525 33.594 74.7828 31.0292C72.594 23.4651 71.6775 13.1788 73.5831 5.18234" stroke="#545454" stroke-width="3.16022" stroke-linecap="round" stroke-linejoin="round" />
	<path d="M23.2827 43.3038C25.0343 41.1526 26.7321 40.6254 28.6083 39.3132C30.5441 37.9594 32.6242 35.9401 34.6068 35.0157C36.8709 33.96 39.1439 32.9579 41.3369 31.4241C42.4675 30.6334 43.7623 29.9147 44.9361 29.3674C46.3877 28.6906 47.6663 26.8825 49.0912 26.0521C51.2919 24.7695 53.4489 22.6222 55.675 21.3248C57.9233 20.0144 60.5152 18.531 62.6391 16.5054C64.1473 15.067 65.8419 14.6565 67.3795 13.1901C68.4496 12.1695 69.759 10.7036 70.9493 10.7036" stroke="white" stroke-width="3.16022" stroke-linecap="round" stroke-linejoin="round" />
	<path d="M23.0198 47.1732C22.8315 48.1857 21.7868 54.9752 23.2831 53.1285C25.2304 50.7251 27.0232 48.6004 29.0769 46.6207C31.339 44.44 34.0628 44.0143 36.2459 41.525C39.0863 38.2861 42.5324 35.4423 45.6095 33.3596C47.4618 32.1059 49.3234 30.8379 51.0813 29.062C52.5953 27.5327 54.3105 27.0278 55.8217 25.5012C57.986 23.3147 60.2864 20.9707 62.581 19.4232C63.9119 18.5257 65.604 16.3934 66.9995 16.2307C67.9753 16.1169 68.7589 14.5731 69.633 14.5731" stroke="white" stroke-width="3.16022" stroke-linecap="round" stroke-linejoin="round" />
	<path d="M24.5996 46.0688C27.7815 43.5847 31.0242 41.4403 34.2119 38.9164C35.9525 37.5383 37.6494 36.4799 39.2888 34.5881C40.1592 33.5836 41.0163 32.2085 41.9808 31.7026" stroke="white" stroke-width="3.16022" stroke-linecap="round" stroke-linejoin="round" />
	<path d="M36.9771 34.4633C39.2723 32.4473 41.3531 29.8315 43.7657 28.3853C45.4575 27.3711 47.1839 26.5508 48.8425 25.3463C52.2932 22.8401 55.746 20.5906 59.1571 17.8869C60.3679 16.9272 61.7345 16.6464 62.9903 15.7995C64.2031 14.9816 65.5027 14.0414 66.7358 13.4665C68.0862 12.8369 69.5925 9.98377 70.9494 10.1512C71.4842 10.2173 70.7045 17.7574 70.5397 17.8562C68.6092 19.0135 66.4965 19.7653 64.5704 21.2022C58.6368 25.6287 51.8269 26.3441 46.1944 32.2531" stroke="white" stroke-width="3.16022" stroke-linecap="round" stroke-linejoin="round" />
	<path d="M25.6533 69.824C27.11 68.035 29.4926 65.8798 31.1837 65.3729C32.951 64.8432 34.6478 63.0305 36.4507 62.6102C41.0616 61.5353 45.6931 57.2406 50.145 54.7825C52.9735 53.2208 55.5308 49.8337 58.3089 48.244C59.6845 47.4569 61.2401 46.0848 62.5811 44.9594C63.7733 43.9588 64.9784 43.743 66.2095 43.0255C66.969 42.5828 74.3705 36.6591 74.6367 37.7763" stroke="#D27C2C" stroke-width="3.16022" stroke-linecap="round" stroke-linejoin="round" />
	<path d="M19.0688 44.9648C15.8485 47.6015 12.6333 49.7379 9.45643 52.7004C8.94817 53.1744 6.98522 53.8439 6.95459 54.3581C6.73825 57.9893 6.88066 61.1006 7.61297 64.8564C9.24683 73.2361 11.1299 79.9348 14.8551 84.0727C15.8813 85.2126 18.5499 79.9116 19.5808 78.4245C20.5515 77.0244 21.4781 74.2497 22.7557 74.2497" stroke="#FFC700" stroke-width="3.16022" stroke-linecap="round" stroke-linejoin="round" />
	<path d="M6.691 69.2756C6.43922 69.5977 4.27498 71.6576 4.46714 72.8672C4.859 75.3337 5.2591 77.2958 6.01799 79.467C7.05529 82.4348 6.85769 82.5655 8.66613 80.8791C9.70691 79.9086 8.56838 74.9374 7.7444 73.8188C6.76261 72.4859 5.81464 76.4587 7.2177 76.4587" stroke="#FFC700" stroke-width="3.16022" stroke-linecap="round" stroke-linejoin="round" />
	<path d="M18.0161 48.8301C18.0161 53.2124 18.2508 58.8247 19.1281 62.8893C19.5213 64.7112 19.696 66.6844 20.1229 68.4761C20.4049 69.6592 20.9266 70.5815 21.1764 71.7607C21.6711 74.0962 19.7083 75.5987 18.8062 76.5801C18.0571 77.395 15.713 81.0793 14.7242 79.4657C12.752 76.2472 11.4296 70.359 10.774 65.4678C10.2961 61.9029 10.2866 59.4993 10.3789 56.0132C10.4561 53.0991 12.4197 54.4454 13.2612 52.9742C13.7684 52.0872 13.0279 56.7942 13.0125 56.9034C12.8637 57.9515 11.6247 65.541 12.4857 66.1432C12.9832 66.4911 14.7793 56.8783 15.0022 55.829C15.9496 51.3701 15.5553 55.0998 15.3241 57.855C14.9362 62.4777 14.0757 68.853 14.6511 73.5718C15.0228 76.6207 16.8277 67.3022 16.9335 66.5729C17.1362 65.1753 17.5876 60.9075 17.3431 62.2754C16.9012 64.7482 16.7224 69.4595 17.0212 72.037C17.1788 73.396 18.882 70.7871 18.1624 68.4147C17.4246 65.9822 17.7628 62.3238 17.4748 59.6047C17.2527 57.5081 15.4092 56.5025 14.6511 55.5834C13.4108 54.0798 12.6144 53.1597 11.3007 53.7723C10.5885 54.1043 9.02608 55.6879 8.79883 57.1183" stroke="#FFC700" stroke-width="3.16022" stroke-linecap="round" stroke-linejoin="round" />
	<path d="M11.959 80.8785C12.8789 82.3408 13.7353 83.3174 14.7242 84.47C15.3465 85.1955 17.8777 81.4858 18.6013 80.8785C19.3206 80.2748 23.5465 76.9829 23.5465 74.8005C23.5465 73.8061 22.7219 72.6429 22.3614 72.0378C21.7021 70.9312 20.7677 72.8368 20.1229 73.6954C18.624 75.6912 17.0624 77.281 15.3679 78.392C14.8326 78.743 13.5037 78.8167 13.2757 79.7734" stroke="#D27C2C" stroke-width="3.16022" stroke-linecap="round" stroke-linejoin="round" />
	<path d="M6.42822 52.6961C9.73573 49.9525 13.0862 48.8077 16.4356 46.7408C16.6985 46.5786 18.7765 45.1567 18.7765 45.8199C18.7765 47.2781 18.3205 48.9209 18.279 50.4859C18.2268 52.4578 17.3002 52.6961 16.5673 52.6961C15.1755 52.6961 13.4476 54.0833 12.0757 54.7834C11.0158 55.3244 9.6256 55.7224 8.66671 56.8401C8.24757 57.3287 6.898 57.669 6.95493 57.669" stroke="white" stroke-width="3.16022" stroke-linecap="round" stroke-linejoin="round" />
	<path d="M21.1757 38.3326C19.8438 52.6546 22.775 66.5731 26.4427 78.1159" stroke="#545454" stroke-width="3.16022" stroke-linecap="round" stroke-linejoin="round" />
	<path d="M24.8627 74.801C22.8244 76.5742 21.0425 79.8123 19.186 82.2911C18.0724 83.7779 16.7758 86.613 15.382 86.957C15.0117 87.0484 14.601 88.2649 14.2116 88.0314C13.7708 87.7672 13.2442 86.463 12.8802 85.8519C11.1684 82.9787 9.98065 79.4558 9.00305 75.3536C7.80881 70.3422 6.69141 66.1823 6.69141 60.4655C6.69141 58.9088 6.75179 53.3368 7.48146 53.2517C8.48826 53.1344 9.81523 51.4354 10.7734 50.7653C12.5639 49.513 14.1508 47.2574 15.9087 45.8231C17.2187 44.7542 19.0263 42.7534 20.3857 42.7534" stroke="#545454" stroke-width="3.16022" stroke-linecap="round" stroke-linejoin="round" />
	<path d="M6.42789 65.4083C5.25842 66.4599 4.13918 67.84 3.00432 69.0305C2.73677 69.3112 2.06137 69.9845 1.96555 70.6881C1.47197 74.3127 3.6107 78.7176 4.52591 81.1865C5.41169 83.576 5.57351 84.3744 6.96923 83.6423C7.91418 83.1466 8.54533 82.2498 9.32476 81.4321" stroke="#545454" stroke-width="3.16022" stroke-linecap="round" stroke-linejoin="round" />
	<path d="M21.4395 39.439C23.5315 39.3319 26.0518 37.3871 28.0086 35.8474C30.2516 34.0826 32.6085 32.9446 34.8704 31.2736C37.3605 29.4339 40.0896 28.1944 42.6685 27.0067C46.1702 25.3939 49.5555 22.6374 52.9246 20.0999C55.5118 18.1513 58.1981 16.6858 60.7374 14.4516C62.8081 12.6297 64.8432 10.5818 66.9993 9.32522C69.0366 8.13783 71.0717 7.12167 73.0564 5.73367" stroke="#545454" stroke-width="3.16022" stroke-linecap="round" stroke-linejoin="round" />
	<path d="M73.8464 6.28702C72.4058 13.7542 71.469 21.612 73.7147 28.9414C74.9335 32.9193 76.4199 36.8192 78.5867 38.3347" stroke="#545454" stroke-width="3.16022" stroke-linecap="round" stroke-linejoin="round" />
	<path d="M75.1631 23.9663C75.4402 25.3684 77.7666 33.7294 79.0548 31.0266C80.6526 27.6743 82.5269 24.3463 84.5121 22.0324C85.3086 21.104 85.1876 20.0984 84.2487 20.0984C83.4889 20.0984 82.1374 21.5465 81.4835 22.3086C79.5284 24.5876 78.0948 23.4137 76.2165 23.4137" stroke="#FFC700" stroke-width="3.16022" stroke-linecap="round" stroke-linejoin="round" />
	<path d="M79.1133 33.3599C80.2205 30.2933 82.2995 24.5192 84.3803 24.5192" stroke="#D27C2C" stroke-width="3.16022" stroke-linecap="round" stroke-linejoin="round" />
	<path d="M78.5864 38.3325C76.3718 35.6126 74.7856 33.7799 73.9777 28.356C73.2509 23.476 72.6718 19.8125 73.056 14.5731" stroke="#545454" stroke-width="3.16022" stroke-linecap="round" stroke-linejoin="round" />
	<path d="M79.6406 39.4373C80.1372 33.7643 82.2241 29.315 84.498 26.4525C85.5889 25.0791 87.2723 22.4818 88.5946 22.3084C88.8933 22.2692 88.1093 20.7378 87.9362 20.3745C87.1404 18.7049 86.5399 16.8484 85.8733 14.9411C85.3368 13.4062 85.0229 8.37386 85.9611 7.38965" stroke="#545454" stroke-width="3.16022" stroke-linecap="round" stroke-linejoin="round" />
</svg>
