<svg width="74" height="24" viewBox="0 0 74 24" fill="none" xmlns="http://www.w3.org/2000/svg">
	<path d="M1.48047 8.57196C13.9601 9.00402 26.0753 9.93365 38.3725 11.2857C44.2513 11.9321 49.9761 12.3713 55.924 12.3713C57.2845 12.3713 63.9436 13.0563 64.9553 12.2507C65.6051 11.7332 48.8332 7.78256 47.5317 7.48644C40.9923 5.99866 35.0895 4.16092 29.1282 1.78748C27.113 0.985117 28.3835 0.936314 30.0228 1.33518C35.0324 2.55407 39.5411 4.8089 44.4218 6.28031C51.6353 8.45499 58.8947 11.1711 66.6593 12.2507C68.3829 12.4903 75.9308 13.581 70.7064 14.8137C56.632 18.1344 41.1266 17.781 27.2112 21.3268C26.9143 21.4024 23.6727 22.2908 24.0162 22.4123C28.4397 23.9778 38.2185 21.3922 42.803 20.8443C46.0314 20.4585 53.9418 20.712 52.6863 17.2561C50.9218 12.399 42.7039 10.5314 37.0945 8.57196C36.0142 8.19457 26.658 5.85817 31.1731 5.85817C41.082 5.85817 52.252 7.86453 60.7378 11.527C62.938 12.4766 67.3286 14.3351 68.1929 16.1706" stroke="#49454F" stroke-width="2" stroke-linecap="round" />
</svg>
