<svg width="296" height="39" viewBox="0 0 296 39" fill="none" xmlns="http://www.w3.org/2000/svg">
	<path d="M290.31 26.7339C291.523 24.5323 300.809 15.3783 292.671 13.2097C290.311 12.5806 287.163 11.6371 281.656 10.6935C277.721 10.0196 275.185 9.12097 270.968 7.99356C256.906 4.23407 248.634 4.54736 247.807 4.54736C246.98 4.54736 235.399 3.60721 220.51 6.11354C225.243 4.1218 239.003 0.401618 257.486 0.713007C258.447 0.738236 259.36 0.763244 260.215 0.78768C259.294 0.752817 258.384 0.728147 257.486 0.713007C242.008 0.306985 213.72 -0.156167 205.621 0.78768C198.727 1.30975 177.827 2.04065 149.372 0.78768C113.804 -0.778538 96.4328 0.474627 91.4698 0.474627C86.5067 0.474627 12.4557 0.738718 5.47583 2.20161C2.47452 2.83065 0.545197 6.5 0.990784 11C1.65329 17.6903 0.545197 22.5 1.88199 26C2.98184 28.8796 12.2288 38.6964 35.2215 38.6964C77.6834 38.2786 162.294 39 171.298 39C180.876 39 211.899 38.9961 232.087 38.6855C253.315 38.3589 271.904 35.539 278.508 33.6532C284.016 32.0806 289.618 27.9919 290.31 26.7339Z" fill="#F5EEFA" />
</svg>
