<svg width="74" height="24" viewBox="0 0 74 24" fill="none" xmlns="http://www.w3.org/2000/svg">
	<path d="M72.52 8.57196C60.0404 9.00402 47.9252 9.93364 35.6279 11.2857C29.7492 11.9321 24.0244 12.3713 18.0765 12.3713C16.716 12.3713 10.0569 13.0563 9.04518 12.2507C8.3954 11.7332 25.1673 7.78256 26.4688 7.48644C33.0082 5.99866 38.911 4.16091 44.8723 1.78748C46.8875 0.985117 45.617 0.936313 43.9776 1.33518C38.968 2.55407 34.4593 4.8089 29.5787 6.28031C22.3652 8.45499 15.1057 11.1711 7.34117 12.2507C5.61756 12.4903 -1.93034 13.581 3.29411 14.8137C17.3685 18.1344 32.8739 17.781 46.7893 21.3268C47.0862 21.4024 50.3278 22.2907 49.9843 22.4123C45.5608 23.9778 35.782 21.3922 31.1975 20.8443C27.9691 20.4585 20.0586 20.712 21.3142 17.2561C23.0787 12.399 31.2966 10.5314 36.906 8.57196C37.9863 8.19457 47.3425 5.85816 42.8274 5.85816C32.9185 5.85816 21.7485 7.86453 13.2626 11.527C11.0624 12.4766 6.67192 14.3351 5.80755 16.1706" stroke="#49454F" stroke-width="2" stroke-linecap="round" />
</svg>
