<svg width="60" height="60" viewBox="0 0 60 60" fill="none" xmlns="http://www.w3.org/2000/svg">
	<path d="M59.8195 49.9526C60.0566 47.068 60.1349 43.4286 56.5894 43.0055C53.7104 42.0992 54.2392 42.181 52.8306 42.1738C52.8306 33.1473 53.006 21.2915 52.8614 12.5367C52.8234 9.41174 52.7404 9.29396 51.5736 7.80838C50.5515 6.30357 49.7428 5.11366 48.2274 5.11366C48.0305 5.11366 23.8361 5.11366 23.6345 5.11366C21.844 5.08241 20.3831 6.97184 20.7886 8.8252C20.855 9.64732 20.829 12.6882 20.7886 16.2771C-1.32361 16.5031 4.89932 12.693 4.12383 42.1569C-0.0571973 41.9166 -0.109373 45.2122 0.179955 49.7892C0.12541 52.3228 0.179955 54.7819 3.26296 54.9815H56.7388C59.6558 54.8492 59.9618 52.4214 59.8195 49.9526ZM10.2543 22.0872H20.689C20.5942 28.6257 20.4851 35.0896 20.5847 41.0776H10.2519L10.2543 22.0872ZM6.37205 48.7363V48.431H21.2748C21.3199 48.5391 21.3673 48.6425 21.4171 48.7363H6.37205ZM42.3104 41.0824H26.5444V22.092H42.3104V41.0824ZM45.2796 16.2411C44.9813 16.1968 44.6797 16.1799 44.3784 16.1906L26.5444 16.2675V11.3805H45.2796V16.2411Z" fill="white" />
	<path d="M48.1611 8.21094L49.9256 10.5883V45.2614H48.1611" fill="#FFFBE3" />
	<path d="M48.1589 8.20898H23.604V46.9638H48.1589V8.20898Z" fill="#FFFBE3" />
	<path d="M50.336 10.1174C50.0538 9.98519 48.5906 7.37222 48.2017 7.52606H23.6349C23.336 7.52606 23.0965 7.85058 23.0965 8.24722C23.5993 8.96837 22.1123 47.6174 23.6325 47.7256H48.1898C48.887 47.7256 48.7115 46.5068 48.7281 46.0213C49.3068 45.9275 50.5424 46.3482 50.4926 45.3001C50.336 44.6895 50.7961 10.6487 50.336 10.1174ZM47.6515 46.2785H24.1732V8.97558H47.6515V46.2785ZM49.4159 44.5765H48.7281V10.002L49.4159 10.9299V44.5765Z" fill="#868686" />
	<path d="M47.1584 16.209C47.9007 32.1345 46.5015 30.2739 40.0438 43.7234H30.8066C34.7458 33.81 40.4967 24.3075 47.1584 16.209Z" fill="white" />
	<path d="M46.8665 9.96484C38.789 17.4552 31.4183 26.2461 24.8989 36.1211V22.9889C27.6428 18.4216 30.7306 13.924 34.0958 9.96484H46.8665Z" fill="white" />
	<path d="M53.6112 45.2617H3.30371V51.8242H53.6112H56.8958V46.2882L53.6112 45.2617Z" fill="#987756" />
	<path d="M56.9552 45.6365C56.7488 45.6005 53.6635 44.5452 53.4595 44.5764H3.27295C1.7433 44.336 2.88402 51.2519 2.54726 51.8649C2.54724 51.9608 2.5661 52.0558 2.60274 52.1442C2.63938 52.2327 2.69306 52.3128 2.76064 52.38C2.82822 52.4472 2.90835 52.5 2.99632 52.5353C3.08429 52.5707 3.17833 52.588 3.27295 52.5861H56.737C56.8318 52.5883 56.9261 52.5713 57.0143 52.5361C57.1026 52.5008 57.183 52.4481 57.2508 52.3809C57.3187 52.3137 57.3726 52.2334 57.4093 52.1448C57.4461 52.0562 57.4651 51.961 57.465 51.8649C57.1544 51.2832 58.0508 45.7014 56.9552 45.6365ZM4.00101 46.0259H52.7338V51.1389H4.00101V46.0259ZM56.0113 51.1389H54.1876V46.2904L56.0113 46.8625V51.1389Z" fill="#715442" />
	<path d="M32.6986 9.96484C29.6879 13.3401 27.0714 17.0562 24.901 21.0394C24.4267 16.6187 25.4109 13.3471 28.1666 9.96484H32.6986Z" fill="#DBD8C6" />
	<path d="M47.3645 33.7637C45.0458 37.5861 42.2891 41.1171 39.1519 44.2829H43.276C44.7602 42.9358 46.128 41.4625 47.3645 39.8791V33.7637Z" fill="#DBD8C6" />
	<path d="M51.842 50.8915C34.4348 49.93 18.5503 48.7882 4.49414 47.5117V49.2088C16.5463 50.9564 39.2514 51.079 51.842 50.8915Z" fill="#7A5E48" />
	<path d="M45.3581 19.418H7.12646V43.9733H45.3581V19.418Z" fill="#FFFBE3" />
	<path d="M7.12402 19.1699L45.358 44.0593H7.12402V19.1699Z" fill="#FFFBE3" />
	<path d="M14.3169 20.3123C31.9706 19.5599 29.1865 20.894 44.1699 28.1272V38.2522C33.4386 33.9397 23.1201 27.6344 14.3169 20.3123Z" fill="white" />
	<path d="M8.85547 20.4805C16.2452 28.668 24.9179 36.1391 34.6602 42.7497H21.7045C17.1986 39.9684 12.7614 36.8386 8.85547 33.4252V20.4805Z" fill="white" />
	<path d="M8.85547 34.8438C12.1869 37.8915 15.8529 40.5411 19.7811 42.7404C15.4199 43.2211 12.2041 42.2211 8.85547 39.4279V34.8438Z" fill="#DBD8C6" />
	<path d="M33.792 19.9766C37.4858 21.8364 40.9661 24.1033 44.1699 26.7362V23.3444C42.8155 22.1033 41.3623 20.9777 39.8252 19.979L33.792 19.9766Z" fill="#DBD8C6" />
	<path d="M45.1802 19.1699L46.8592 19.8983L46.8663 44.0954L45.358 44.0978L45.1802 19.1699Z" fill="#FFFBE2" />
	<path d="M47.3333 19.9044C47.3334 19.8103 47.3063 19.7183 47.2553 19.6396C47.2043 19.561 47.1316 19.4993 47.0463 19.4621L45.3673 18.741C45.0685 18.6373 44.753 18.5924 44.4376 18.6088L7.31828 18.765C7.1169 18.7655 6.92304 18.8426 6.77505 18.9811C6.62705 19.1195 6.53571 19.3092 6.51907 19.5126C6.21077 23.2169 6.54516 39.6015 6.49062 43.3107C6.49062 43.8564 6.59022 44.902 7.13094 44.9117C13.3349 45.0102 43.4772 44.6184 45.3317 44.5967H46.8732C46.999 44.5967 47.1197 44.5461 47.2086 44.4559C47.2976 44.3658 47.3475 44.2435 47.3475 44.116L47.3333 19.9044ZM44.6819 43.4862H7.88034V19.6881H44.6819V43.4862ZM46.1048 43.6184C46.1048 43.5751 45.6543 43.5318 45.6543 43.4862V19.9044L46.3799 20.2193V43.6184H46.1048Z" fill="#868686" />
</svg>
