<svg width="60" height="50" viewBox="0 0 60 50" fill="none" xmlns="http://www.w3.org/2000/svg">
	<path d="M59.3277 13.8579C57.4071 8.76093 53.4423 4.7973 47.994 2.42761C46.795 1.90699 45.5608 1.47256 44.3006 1.12759C37.4292 -0.760284 29.5267 -0.226947 22.0071 2.6276C17.6236 4.26918 13.5699 6.69065 10.0403 9.77609C9.85937 9.93367 9.67847 10.0973 9.5036 10.2609C7.52914 12.0661 5.78699 14.1123 4.31766 16.3519C2.75832 18.703 1.59784 21.2978 0.883488 24.0306C-0.170698 27.9194 0.0191121 32.043 1.42603 35.8173C2.83295 39.5917 5.38567 42.8256 8.72268 45.0609C10.6661 46.3924 12.7891 47.4373 15.0272 48.164C15.4976 48.3185 15.98 48.467 16.4684 48.6003C17.0714 48.767 18.0755 49.0124 19.3569 49.2397C22.8202 49.8564 26.3537 49.9707 29.8493 49.5791C30.579 49.4943 31.3237 49.3821 32.0744 49.2397C33.4597 48.9782 34.8249 48.6187 36.1599 48.164C36.4553 48.063 36.7508 47.9569 37.0463 47.8458C37.7548 47.5731 38.4423 47.2791 39.1086 46.9549C42.1237 45.5094 44.1347 44.2821 45.4734 43.1003C46.8121 41.9185 47.6684 40.5579 47.9217 39.1367C47.9811 38.8118 48.0103 38.4821 48.0091 38.1519C47.979 34.3367 44.5237 32.7397 42.0031 31.5731C41.0715 31.1722 40.1715 30.7012 39.3106 30.164L39.3377 30.1155C39.3967 30.0456 39.4612 29.9808 39.5307 29.9215C40.9146 28.7094 44.4182 27.3458 47.5177 26.1458C49.4292 25.4034 51.2865 24.6852 52.9448 23.9034C54.4804 23.2283 55.9152 22.3421 57.2081 21.27C60.5307 18.3246 59.792 15.1094 59.3277 13.8579ZM33.9197 23.5549C33.2692 24.1203 32.699 24.7729 32.2252 25.4943L32.1408 25.6246L31.987 25.8912L31.8785 25.8488C31.5515 25.7237 31.2159 25.6224 30.8745 25.5458C29.17 25.2016 27.4031 25.3584 25.785 25.9973C24.722 26.3936 23.7385 26.9786 22.8815 27.7246C20.7046 29.6488 19.9086 32.3155 20.8041 34.6943C20.8342 34.7761 20.8674 34.8549 20.9036 34.9337C22.2785 38.1519 26.2553 39.4215 30.2805 37.8943C31.3472 37.4932 32.3337 36.903 33.193 36.1518L33.2533 36.0973C34.3659 37.0806 35.6139 37.8971 36.9589 38.5215C36.5217 38.7488 36.0242 39.0003 35.4513 39.273C29.8795 41.9579 22.9478 41.5488 18.7056 40.3821C17.6435 40.0939 16.6092 39.7105 15.6151 39.2367C12.5579 37.7761 10.375 35.57 9.34982 32.8397C8.00209 29.2609 8.71967 25.0458 11.385 20.9549C12.5689 19.1555 13.9887 17.5246 15.6061 16.1064C18.3803 13.6991 21.5585 11.807 24.992 10.5185C30.8413 8.29125 36.9016 7.85185 42.0694 9.267C43.8101 9.72558 45.4678 10.4578 46.981 11.4367C48.5527 12.4432 49.8591 13.8165 50.789 15.4397C49.3026 16.3125 46.6584 17.3337 44.4574 18.1852C41.7739 19.2246 39.0302 20.2852 36.7478 21.5731C35.7374 22.135 34.7894 22.8034 33.9197 23.567V23.5549Z" fill="white" />
	<path d="M55.375 15.3523C54.1237 12.0402 51.7569 9.38565 48.6243 7.50989C46.927 6.50453 45.1011 5.73682 43.1971 5.22806C37.4383 3.65533 30.4222 3.96746 23.5087 6.6008C16.5951 9.23413 11.1258 13.6372 7.83932 18.6765C4.55289 23.7159 3.49159 29.3311 5.3941 34.3765C6.63631 37.6765 9.01218 40.3129 12.0936 42.1887C13.8088 43.2097 15.6551 43.9897 17.581 44.5068C23.3519 46.0917 31.0825 46.1099 37.2574 43.1281C55.0464 34.5765 30.0906 37.2675 35.7499 27.8129C39.0393 22.7856 57.2866 20.3977 55.375 15.3523ZM25.1187 31.5159C25.5254 30.9966 26.0399 30.5726 26.6263 30.2735C26.8318 30.1592 27.0442 30.0579 27.2624 29.9705C29.0715 29.2826 30.8805 29.6159 31.3026 30.7069C31.7248 31.7978 30.5851 33.2462 28.764 33.9432C26.9429 34.6402 25.1459 34.3038 24.7268 33.2069C24.5338 32.6856 24.6966 32.0765 25.1187 31.5159Z" fill="#C6C389" />
	<path d="M7.26007 18.485C10.5767 18.0941 13.8932 17.7426 17.2098 17.2729C18.7351 17.1004 20.2165 16.6507 21.5817 15.9456C22.8601 15.2608 23.9937 14.3911 25.2902 13.7487C25.9079 13.4334 26.5714 13.2187 27.2561 13.1123C27.9184 13.0331 28.5866 13.0158 29.252 13.0608C29.9877 13.0941 30.7264 13.1426 31.4651 13.1123C32.2264 13.0771 32.9848 12.9931 33.7354 12.8608C35.243 12.5972 36.7505 12.2184 38.2581 11.9517C39.8681 11.679 41.4842 11.4729 43.1003 11.2578L48.6601 10.5123C50.3153 10.2881 51.9767 10.0214 53.65 10.3002C53.8516 10.3119 54.0496 10.2434 54.2013 10.1096C54.3531 9.97581 54.4464 9.78739 54.4611 9.58504C54.4696 9.38357 54.4003 9.1866 54.2677 9.03526C54.1351 8.88393 53.9494 8.78994 53.7495 8.77292C52.242 8.51838 50.7043 8.69413 49.2028 8.89716L44.2008 9.56686C42.5696 9.7911 40.9354 9.99716 39.3043 10.2426C37.7515 10.4729 36.2199 10.7941 34.6852 11.1184C33.265 11.4487 31.81 11.6034 30.3525 11.579C28.9023 11.5275 27.4128 11.3911 26.0018 11.8305C24.5907 12.2699 23.3214 13.1153 22.052 13.9123C21.4622 14.2933 20.8477 14.6345 20.2128 14.9335C19.5362 15.2272 18.828 15.4407 18.1023 15.5699C16.3324 15.9153 14.5113 16.0578 12.7204 16.2699L6.99173 16.9517C6.89274 16.9702 6.79835 17.0081 6.71394 17.0633C6.62953 17.1185 6.55676 17.1898 6.49979 17.2732C6.38472 17.4417 6.34098 17.6493 6.37817 17.8502C6.41535 18.0511 6.53043 18.229 6.69808 18.3446C6.86573 18.4602 7.07221 18.5042 7.27213 18.4669L7.26007 18.485Z" fill="#9E8F63" />
	<path d="M6.3946 20.6064C9.7564 21.0124 13.1453 20.5215 16.483 20.0488C18.2921 19.7943 20.1011 19.5458 21.9102 19.2821C22.7707 19.1778 23.6165 18.9745 24.4308 18.6761C25.2599 18.3427 25.9805 17.8034 26.7795 17.3943C28.0941 16.7306 29.6107 16.5579 31.082 16.4215C31.8569 16.3488 32.6348 16.2912 33.4006 16.1852C34.2353 16.0555 35.0626 15.8815 35.879 15.664C37.483 15.2579 39.066 14.8761 40.7273 14.8397C42.4368 14.8003 44.1403 14.967 45.8529 15.0488C49.7904 15.2297 53.7356 15.1345 57.6599 14.764C57.8598 14.7237 58.0356 14.6054 58.1487 14.4349C58.2618 14.2644 58.3029 14.0558 58.2629 13.8549C58.2194 13.6559 58.1008 13.4817 57.9322 13.3687C57.7635 13.2557 57.5579 13.2127 57.3584 13.2488C53.9271 13.5694 50.4789 13.6707 47.0348 13.5518C45.3132 13.4912 43.6036 13.3367 41.882 13.3003C40.1847 13.2575 38.4891 13.4368 36.8378 13.8337C35.2637 14.2649 33.6619 14.5869 32.0438 14.7973C30.5092 14.9518 28.9383 15.0034 27.4609 15.4761C26.6763 15.7268 25.9243 16.0706 25.2207 16.5003C24.5221 16.9559 23.7572 17.2994 22.9534 17.5185C22.1122 17.7185 21.2469 17.8215 20.3936 17.9397L17.7162 18.3185C14.0107 18.8428 10.2509 19.5306 6.50313 19.0609C6.29962 19.0481 6.09937 19.117 5.94642 19.2525C5.79347 19.3881 5.70035 19.5791 5.68755 19.7836C5.67476 19.9882 5.74333 20.1895 5.87818 20.3432C6.01304 20.4969 6.20314 20.5905 6.40665 20.6034L6.3946 20.6064Z" fill="#9E8F63" />
	<path d="M2.99085 32.1223C5.64573 33.2226 8.46839 33.858 11.3366 34.0011C12.7326 34.0708 14.1376 34.0011 15.5215 34.186C16.821 34.3708 17.9818 34.9314 19.1094 35.5435C20.2371 36.1557 21.4401 36.8678 22.7094 37.2829C23.9454 37.668 25.2494 37.7806 26.5326 37.6132C29.0532 37.3102 31.3567 36.192 33.7687 35.5405C36.9617 34.6799 40.2813 34.5223 43.5677 34.3829C43.7678 34.39 43.963 34.3198 44.1132 34.1868C44.2635 34.0539 44.3574 33.8681 44.3758 33.6678C44.3882 33.4658 44.3207 33.2671 44.188 33.115C44.0552 32.9629 43.8681 32.8697 43.6672 32.8557C40.6944 32.9829 37.6974 33.1072 34.7818 33.7254C32.225 34.2708 29.9155 35.3769 27.3798 35.9193C26.2812 36.1882 25.14 36.2325 24.024 36.0496C22.7667 35.8072 21.6512 35.1981 20.5416 34.592C19.3778 33.9526 18.1989 33.2829 16.9084 32.9284C15.5245 32.5314 14.0984 32.5254 12.6873 32.5011C9.53841 32.4812 6.42226 31.8569 3.50643 30.6617C3.31372 30.5962 3.10301 30.6103 2.92066 30.701C2.73831 30.7916 2.59925 30.9514 2.53408 31.1451C2.46891 31.3388 2.48296 31.5505 2.57315 31.7338C2.66333 31.9171 2.82226 32.0568 3.01497 32.1223H2.99085Z" fill="#9E8F63" />
	<path d="M4.93225 23.8759C7.6602 23.7674 10.3789 23.4901 13.0729 23.0456C14.3996 22.8243 15.7262 22.5365 17.0709 22.3668C18.3874 22.2183 19.7163 22.2183 21.0328 22.3668C26.5262 22.8728 32.0106 23.6668 37.5403 23.694C40.1152 23.694 42.9825 23.294 45.3554 24.5395C45.6991 24.7213 46.0368 24.2122 45.69 24.0304C43.6006 22.9304 41.2187 23.0304 38.9302 23.0728C36.1683 23.1046 33.4067 22.9893 30.6569 22.7274C27.8529 22.4789 25.0549 22.1698 22.2569 21.8819C20.9416 21.7083 19.6155 21.6313 18.289 21.6516C16.9384 21.7585 15.596 21.9518 14.2699 22.2304C11.1986 22.7976 8.09149 23.148 4.97144 23.2789C4.59154 23.285 4.5433 23.891 4.93225 23.8759Z" fill="#9E8F63" />
	<path d="M46.4803 21.6674C41.1647 20.9704 35.4029 22.0916 30.4039 19.6734C30.2441 19.5977 29.9124 19.4735 29.8642 19.2674C29.816 19.0613 30.3858 18.8522 30.5516 18.7795C31.1814 18.4946 31.8366 18.2704 32.5084 18.1098C33.8173 17.814 35.1486 17.6295 36.4883 17.5583C42.1761 17.1672 47.89 17.6433 53.4361 18.9704C53.816 19.0613 54.0119 18.4825 53.629 18.3886C48.0823 17.0583 42.3688 16.5701 36.6783 16.9401C35.2576 17.0078 33.8453 17.1984 32.4572 17.5098C31.7855 17.6662 31.1288 17.8811 30.4944 18.1522C30.0089 18.3583 29.1496 18.6583 29.2733 19.3432C29.3637 19.8977 30.0059 20.1613 30.4612 20.3674C31.0798 20.65 31.7188 20.8851 32.3727 21.0704C33.716 21.4465 35.0922 21.691 36.4823 21.8007C39.7989 22.1038 43.1516 21.8522 46.4622 22.2856C46.8511 22.3371 46.8903 21.725 46.5014 21.6795L46.4803 21.6674Z" fill="#9E8F63" />
	<path d="M5.28553 34.4584C7.44131 35.5129 9.82924 35.7705 12.1659 36.125C13.323 36.2803 14.4656 36.5307 15.582 36.8735C16.8694 37.2947 18.0272 37.9796 19.2001 38.6341C20.3186 39.3039 21.5283 39.8062 22.7911 40.125C23.932 40.3732 25.1069 40.4224 26.2644 40.2705C27.5226 40.0831 28.7406 39.6846 29.8674 39.0917C31.1308 38.4614 32.3549 37.7796 33.7117 37.3523C36.5639 36.4584 39.579 36.3765 42.5398 36.3038C42.9287 36.3038 42.9709 35.6977 42.579 35.6977C39.9679 35.7614 37.3267 35.825 34.77 36.4341C33.4968 36.7369 32.2633 37.1885 31.0946 37.7796C29.8674 38.3856 28.6825 39.0947 27.3348 39.4432C24.9586 40.0382 22.4468 39.7137 20.2976 38.5341C19.0916 37.9038 17.9428 37.1584 16.6976 36.6402C15.606 36.2063 14.4707 35.8934 13.3117 35.7068C10.7247 35.2311 8.01719 35.1008 5.6202 33.9402C5.27347 33.7765 4.93277 34.2856 5.28553 34.4584Z" fill="#9E8F63" />
	<path d="M33.6513 43.7452C33.0242 43.5846 32.3941 43.4422 31.7669 43.2604C31.5348 43.1937 31.2574 43.1179 31.1639 42.8664C31.1039 42.6196 31.1305 42.3595 31.2393 42.1301C31.6493 41.0452 32.6051 40.2088 33.579 39.6391C35.5207 38.4997 37.8905 38.0058 40.1127 37.8543C41.3887 37.7703 42.67 37.8201 43.9358 38.0028C44.3247 38.0573 44.3609 37.4452 43.975 37.3967C41.4731 37.0412 38.9258 37.1916 36.4825 37.8391C35.2023 38.1425 33.9802 38.6543 32.8644 39.3543C31.8875 40.0058 30.8684 40.9937 30.573 42.1755C30.4222 42.7816 30.573 43.3876 31.1368 43.6725C31.4846 43.8217 31.8475 43.9324 32.2192 44.0028L33.4463 44.324C33.8262 44.421 34.0192 43.8422 33.6393 43.7422L33.6513 43.7452Z" fill="#9E8F63" />
	<path d="M37.5404 42.6813C37.0435 42.6155 36.5545 42.4987 36.0811 42.3328C35.8717 42.2826 35.6824 42.1695 35.5384 42.0086C35.4088 41.8055 35.6259 41.5782 35.7615 41.4328C36.4943 40.7113 37.438 40.245 38.454 40.1025C39.4314 39.9013 40.4311 39.831 41.4269 39.8934C41.6625 39.9119 41.8958 39.9535 42.1234 40.0176C42.1706 40.0296 42.2169 40.0448 42.262 40.0631C42.2017 40.0328 42.3796 39.8722 42.2078 40.0631C42.1248 40.1688 42.0362 40.27 41.9424 40.3661C41.5742 40.6841 41.1361 40.9095 40.6641 41.0237C40.1389 41.1702 39.6023 41.2716 39.06 41.3267C38.5489 41.4126 38.0239 41.343 37.5525 41.1267L37.5193 41.657C38.0705 41.4657 38.6335 41.3109 39.2048 41.1934C39.6661 41.1055 40.2329 40.9479 40.6641 41.1934C40.9987 41.3934 41.3394 40.8904 40.9987 40.6782C40.4741 40.3752 39.8802 40.4298 39.2982 40.5419C38.603 40.6695 37.9185 40.8508 37.251 41.0843C37.2145 41.1017 37.1819 41.1263 37.1551 41.1567C37.1283 41.187 37.1078 41.2224 37.0949 41.2609C37.0819 41.2993 37.0768 41.34 37.0798 41.3804C37.0828 41.4209 37.0939 41.4603 37.1123 41.4964C37.1372 41.5431 37.1722 41.5835 37.2148 41.6146C38.2791 42.1813 39.663 41.9177 40.7696 41.6146C41.3784 41.4731 41.9404 41.1756 42.4007 40.751C42.7837 40.3601 43.1485 39.7146 42.443 39.4449C41.8359 39.25 41.1963 39.1789 40.5616 39.2358C39.8971 39.2601 39.2346 39.3238 38.5776 39.4267C37.3023 39.6328 35.9817 40.1207 35.1465 41.1631C35.0596 41.2526 34.9912 41.3586 34.9452 41.4748C34.8992 41.591 34.8766 41.7152 34.8785 41.8402C34.8805 41.9653 34.907 42.0887 34.9566 42.2034C35.0062 42.3181 35.0779 42.4218 35.1676 42.5086C35.2414 42.5813 35.327 42.6407 35.4208 42.6843C36.0639 43.0083 36.7631 43.2049 37.4801 43.2631C37.8721 43.3146 37.9083 42.7055 37.5224 42.657L37.5404 42.6813Z" fill="#9E8F63" />
	<path d="M5.03213 26.2338C7.07092 26.6987 9.15562 26.9295 11.2462 26.9217C12.284 26.9167 13.3208 26.8539 14.3517 26.7338C15.4191 26.6096 16.4804 26.4066 17.5477 26.2399C18.6057 26.0521 19.6784 25.9608 20.7527 25.9672C21.8655 26.0287 22.9733 26.1613 24.0693 26.3641C26.2266 26.6931 28.4012 26.8955 30.5819 26.9702C32.7569 27.0465 34.9346 26.9938 37.1035 26.8126C37.3658 26.7944 37.6311 26.7702 37.8965 26.7459C38.0653 26.7459 38.0472 26.4429 37.8784 26.4429C35.5206 26.4065 33.2171 26.949 30.9165 27.3974C29.7678 27.6407 28.6061 27.8178 27.4372 27.9278C26.1812 27.9945 24.922 27.9611 23.6713 27.8278C22.5224 27.7288 21.3668 27.7359 20.2191 27.849C19.1578 27.9641 18.1085 28.152 17.0532 28.3459C14.9728 28.7187 12.8532 29.1217 10.7216 28.8853C9.62828 28.7303 8.55863 28.4381 7.53766 28.0156C6.48579 27.5677 5.39598 27.2158 4.28138 26.9641C4.00203 26.9145 3.72021 26.8801 3.43717 26.8611C3.41736 26.8599 3.3975 26.8626 3.37874 26.8691C3.35998 26.8756 3.34268 26.8857 3.32784 26.899C3.31299 26.9122 3.30089 26.9282 3.29223 26.9462C3.28356 26.9641 3.27851 26.9836 3.27736 27.0035C3.27572 27.0237 3.27811 27.0439 3.28439 27.0631C3.29066 27.0823 3.30068 27.1001 3.31389 27.1154C3.32709 27.1306 3.34321 27.143 3.36127 27.1519C3.37934 27.1608 3.39899 27.166 3.41908 27.1672C5.71958 27.3126 7.72157 28.652 9.96177 29.0762C12.0452 29.4762 14.1829 29.1732 16.2542 28.8065C18.3859 28.4278 20.5236 27.9763 22.7095 28.0763C23.9939 28.1338 25.2753 28.3156 26.5688 28.2823C27.738 28.2361 28.9021 28.1014 30.0512 27.8793C32.3578 27.4672 34.6462 26.8641 36.9859 26.7641C37.2874 26.7459 37.5739 26.749 37.8663 26.7641L37.8482 26.4611C33.5354 26.8759 29.1891 26.7803 24.8985 26.1762C23.798 26.0247 22.6914 25.8156 21.5819 25.7096C20.508 25.6272 19.4283 25.6617 18.3618 25.8126C17.2914 25.952 16.2512 26.155 15.1929 26.3126C14.1621 26.4711 13.1233 26.5722 12.0814 26.6156C9.99281 26.689 7.90275 26.5212 5.85223 26.1156C5.60197 26.0702 5.35475 26.0156 5.10751 25.9581C4.93867 25.9005 4.8452 26.1944 5.03213 26.2338Z" fill="#9E8F63" />
	<path d="M13.2178 12.1035C15.5183 12.4066 17.9214 12.3853 20.1073 11.4975C22.2932 10.6096 24.0992 8.99746 26.3696 8.36413C27.5275 8.09269 28.7249 8.03519 29.9033 8.19443C30.5063 8.24897 31.0882 8.31564 31.6791 8.34594C32.342 8.38077 33.0062 8.38077 33.6691 8.34594C35.0259 8.30049 36.3827 8.20353 37.7394 8.12474L41.9937 7.87322L50.4058 7.38838L51.452 7.32777L51.4339 7.02474C49.1545 7.48231 46.8148 7.40352 44.4993 7.17625C42.1837 6.94898 39.8771 6.60959 37.5465 6.5399C36.3458 6.50749 35.1444 6.56623 33.9525 6.71564C33.2681 6.80352 32.5837 6.90049 31.8992 6.94595C31.3013 6.97627 30.702 6.96717 30.1053 6.91868C28.9445 6.8399 27.7897 6.67625 26.6289 6.64292C25.4554 6.58497 24.2823 6.76533 23.1796 7.17322C21.9344 7.65807 20.8249 8.41869 19.6008 8.94899C18.6028 9.38232 17.448 9.67928 16.3626 9.44291C16.0947 9.38584 15.8352 9.29418 15.5907 9.1702C15.4158 9.08535 15.247 9.33686 15.4249 9.42777C16.4357 9.88612 17.5796 9.95197 18.6359 9.61261C19.8631 9.27625 20.9485 8.60352 22.0671 8.0217C22.6583 7.70001 23.2793 7.43716 23.9214 7.23686C24.4928 7.07661 25.0805 6.98206 25.6731 6.95505C26.838 6.93518 28.0027 6.99898 29.1585 7.14596C30.3848 7.27927 31.6215 7.28536 32.849 7.16414C33.5334 7.08838 34.2148 6.98232 34.8992 6.92172C35.4812 6.86717 36.0601 6.84596 36.642 6.84293C39.0058 6.84293 41.3455 7.17323 43.6972 7.41262C46.049 7.65202 48.3495 7.81868 50.659 7.47928C50.9425 7.43989 51.2289 7.38534 51.5093 7.32777C51.6751 7.29443 51.6691 7.02474 51.4942 7.02474L43.052 7.51261C40.254 7.67928 37.456 7.85504 34.649 8.00959C33.365 8.08638 32.0772 8.06917 30.7957 7.95808C29.6168 7.84595 28.4289 7.69747 27.2409 7.8611C24.8952 8.16413 22.9867 9.71868 20.9455 10.7641C19.9051 11.2988 18.7848 11.6591 17.6289 11.8308C16.4599 11.9848 15.277 12.0011 14.1043 11.8793C13.8148 11.853 13.5254 11.8197 13.2359 11.7793C13.04 11.7732 13.0219 12.0763 13.2178 12.1035Z" fill="#9E8F63" />
	<path d="M8.04693 30.0617C8.07135 30.3131 8.1939 30.5445 8.38774 30.7052C8.58158 30.8659 8.8309 30.9429 9.08109 30.9193H9.19567C9.79868 30.7314 10.0369 29.9829 10.4921 29.5132C10.7454 29.2526 11.068 29.092 11.3484 28.8405C11.4959 28.7305 11.6121 28.5838 11.6856 28.4147C11.7591 28.2457 11.7874 28.0603 11.7675 27.8768C11.7251 27.7389 11.6491 27.6138 11.5464 27.5127C11.4438 27.4117 11.3177 27.3379 11.1796 27.2981C10.9034 27.2225 10.6139 27.2101 10.3324 27.2617C9.81177 27.3344 9.30415 27.4813 8.82482 27.6981C8.53374 27.8073 8.2789 27.9962 8.08914 28.2435C7.75145 28.7556 7.95648 29.4556 8.21879 30.0011" fill="#911A1D" />
	<path d="M7.59478 30.0309C7.60124 30.2515 7.65987 30.4674 7.76581 30.6608C7.87175 30.8542 8.02197 31.0194 8.20403 31.1429C8.3861 31.2664 8.59478 31.3445 8.81284 31.3709C9.03091 31.3973 9.25209 31.3711 9.45809 31.2945C9.95256 31.0975 10.242 30.6248 10.5224 30.2006C10.6296 30.0318 10.7572 29.8771 10.9023 29.74C11.1164 29.549 11.3697 29.4066 11.5898 29.2248C11.7742 29.0829 11.9262 28.9029 12.0354 28.697C12.1446 28.491 12.2086 28.2638 12.2229 28.0309C12.2136 27.7637 12.1214 27.5061 11.9592 27.2942C11.797 27.0823 11.573 26.9266 11.3184 26.849C10.8439 26.7248 10.3456 26.7248 9.87116 26.849C9.33622 26.9488 8.82031 27.1329 8.34251 27.3945C8.0861 27.5231 7.86768 27.7169 7.70898 27.9566C7.55029 28.1964 7.45684 28.4738 7.43799 28.7612C7.4426 29.252 7.56244 29.7348 7.78775 30.1703C7.84132 30.2792 7.93574 30.3622 8.05024 30.4011C8.16474 30.4401 8.28994 30.4317 8.39829 30.3778C8.50664 30.324 8.58928 30.2291 8.62801 30.114C8.66674 29.9989 8.6584 29.8731 8.60482 29.7642C8.39678 29.3157 8.15859 28.6854 8.57166 28.3248C8.85529 28.115 9.17685 27.9626 9.5184 27.8763C9.86811 27.7617 10.2307 27.6914 10.5978 27.6672C10.8239 27.6672 11.2008 27.6672 11.2852 27.9309C11.3606 28.1096 11.1918 28.3309 11.0561 28.449C10.7341 28.6815 10.4242 28.9303 10.1274 29.1945C9.89236 29.4855 9.67294 29.789 9.47015 30.1036C9.38381 30.2285 9.27042 30.3321 9.1385 30.4066C9.06021 30.4524 8.96788 30.4675 8.8792 30.449C8.77679 30.4192 8.68347 30.364 8.60784 30.2884C8.54906 30.2299 8.50915 30.1549 8.49326 30.0733C8.49622 29.9532 8.45416 29.8364 8.37541 29.746C8.29666 29.6556 8.18699 29.5983 8.06815 29.5854C7.94753 29.5779 7.82884 29.6186 7.73793 29.6986C7.64702 29.7786 7.59124 29.8915 7.58272 30.0127L7.59478 30.0309Z" fill="#911A1D" />
	<path d="M9.54242 23.6378C9.84393 24.2075 10.5977 24.3832 11.2067 24.2014C11.8026 23.9708 12.338 23.6059 12.7716 23.1348C13.0339 22.9045 13.3082 22.5529 13.1695 22.2257C13.1143 22.1247 13.037 22.0377 12.9434 21.9711C12.5637 21.6672 12.1015 21.4855 11.6174 21.4499C11.1332 21.4142 10.6497 21.5261 10.2299 21.7711C9.91343 21.951 9.66532 22.2313 9.52433 22.5681C9.45636 22.7363 9.43365 22.9195 9.45853 23.0993C9.4834 23.2791 9.55498 23.4491 9.66603 23.5923" fill="#E02836" />
	<path d="M9.13255 23.8331C9.35742 24.2002 9.70034 24.479 10.1045 24.6234C10.5086 24.7678 10.9497 24.7691 11.3547 24.6271C11.8114 24.47 12.2333 24.225 12.5969 23.9058C12.9286 23.6573 13.2213 23.36 13.4652 23.024C13.5906 22.8456 13.6554 22.6313 13.65 22.4129C13.6445 22.1946 13.5692 21.9838 13.4351 21.8119C13.1603 21.5089 12.8108 21.2842 12.422 21.1604C12.0486 21.0258 11.6515 20.9701 11.2557 20.9967C10.8599 21.0233 10.4738 21.1316 10.1215 21.3149C9.65518 21.5509 9.2891 21.9479 9.09035 22.4331C8.99943 22.6779 8.97301 22.9421 9.01369 23.2002C9.05437 23.4582 9.16075 23.7013 9.3225 23.9058C9.3606 23.9561 9.40858 23.9978 9.46343 24.0286C9.51828 24.0594 9.57883 24.0785 9.64134 24.0848C9.70386 24.0911 9.76698 24.0844 9.8268 24.0651C9.88663 24.0458 9.94187 24.0144 9.9891 23.9727C10.0363 23.9311 10.0745 23.8802 10.1014 23.8231C10.1282 23.766 10.143 23.7039 10.1449 23.6408C10.1469 23.5777 10.1359 23.5149 10.1127 23.4562C10.0895 23.3975 10.0545 23.3443 10.0099 23.2998C9.97934 23.2631 9.95581 23.2209 9.94059 23.1755C9.94059 23.1755 9.91044 23.0574 9.90743 23.0271C9.90101 22.9237 9.91749 22.8202 9.95568 22.724C10.0648 22.488 10.2466 22.2936 10.4743 22.1695C10.6933 22.0401 10.9366 21.9576 11.1888 21.9271C11.4189 21.8966 11.6524 21.9059 11.8793 21.9543C12.1278 22.0065 12.3628 22.1096 12.5697 22.2574C12.6073 22.2897 12.6466 22.3201 12.6873 22.3483C12.6873 22.3483 12.7718 22.4664 12.7446 22.4149V22.4361C12.7324 22.4653 12.7183 22.4937 12.7024 22.521C12.6486 22.5998 12.587 22.6729 12.5185 22.7392L12.1326 23.0846C11.8987 23.3032 11.6372 23.4896 11.3547 23.6392C11.0969 23.7765 10.8018 23.8265 10.5135 23.7816C10.3989 23.7681 10.2887 23.729 10.1912 23.6671C10.0936 23.6053 10.0111 23.5222 9.94964 23.424C9.89314 23.3199 9.80018 23.2405 9.68877 23.2013C9.57735 23.1621 9.45543 23.1659 9.34663 23.2119C9.24095 23.2666 9.16016 23.3599 9.1209 23.4726C9.08164 23.5854 9.08688 23.709 9.13557 23.818L9.13255 23.8331Z" fill="#E02836" />
	<path d="M12.965 18.5976C13.1688 18.9153 13.4235 19.1969 13.7188 19.4309C13.8657 19.5483 14.0385 19.6286 14.2226 19.665C14.4068 19.7014 14.5969 19.6928 14.7771 19.64C15.0614 19.4944 15.3201 19.303 15.5429 19.0733C15.7781 18.9274 15.9829 18.737 16.1459 18.5127C16.2114 18.3608 16.2403 18.1954 16.2304 18.0301C16.2204 17.8648 16.1719 17.7042 16.0887 17.5612C15.9528 17.2978 15.7579 17.0698 15.5193 16.8952C15.2807 16.7206 15.0049 16.6042 14.7138 16.5552C14.4195 16.5117 14.1191 16.5393 13.8375 16.6357C13.556 16.7322 13.3013 16.8947 13.0947 17.1097C12.8686 17.3317 12.7349 17.6317 12.7208 17.9491C12.718 18.1068 12.7633 18.2617 12.8506 18.3927C12.938 18.5238 13.0631 18.6249 13.2093 18.6824" fill="#6C4FA0" />
	<path d="M12.6359 18.9012C13.1364 19.5951 13.8841 20.3709 14.8339 20.1133C15.2982 19.9799 15.6057 19.6103 15.9766 19.3284C16.1735 19.2126 16.3402 19.0514 16.4629 18.858C16.5856 18.6646 16.6608 18.4446 16.6821 18.2163C16.7213 17.3345 16.0309 16.5709 15.2711 16.2436C14.884 16.0924 14.4635 16.0489 14.0538 16.1177C13.6442 16.1865 13.2606 16.365 12.9434 16.6345C12.7566 16.7813 12.6009 16.9642 12.4855 17.1723C12.37 17.3805 12.2971 17.6097 12.2711 17.8466C12.2542 18.1124 12.3227 18.3767 12.4665 18.6004C12.6104 18.8241 12.822 18.9954 13.0701 19.089C13.1267 19.1158 13.1881 19.1306 13.2507 19.1326C13.3132 19.1346 13.3754 19.1236 13.4336 19.1005C13.4918 19.0774 13.5446 19.0426 13.5889 18.9981C13.6331 18.9537 13.6679 18.9006 13.691 18.8422C13.7141 18.7838 13.725 18.7212 13.7231 18.6584C13.7213 18.5955 13.7066 18.5338 13.6801 18.4768C13.6535 18.4199 13.6157 18.369 13.5689 18.3274C13.522 18.2857 13.4672 18.2541 13.4077 18.2345L13.3595 18.2193C13.2329 18.1739 13.3867 18.2496 13.3264 18.2193C13.3264 18.2193 13.2419 18.1587 13.2841 18.1951C13.3264 18.2315 13.2359 18.1375 13.2389 18.1406C13.2419 18.1436 13.2721 18.2163 13.2389 18.1406C13.2223 18.1162 13.2091 18.0897 13.1997 18.0618C13.2269 18.1224 13.1997 18.0618 13.1997 18.0618C13.1997 18.0618 13.1816 17.9284 13.1846 17.986C13.1877 18.0436 13.1846 17.9042 13.1846 17.886C13.1846 17.8072 13.1696 17.9375 13.1846 17.8618L13.2208 17.7497C13.2208 17.7497 13.254 17.6709 13.2208 17.7284L13.266 17.6466L13.3203 17.5678C13.3203 17.5678 13.4047 17.4527 13.3656 17.5012C13.3264 17.5496 13.4349 17.4406 13.4259 17.4466L13.5163 17.3678L13.6037 17.289C13.6037 17.289 13.6731 17.2315 13.6218 17.289C13.6737 17.2537 13.7281 17.2223 13.7846 17.1951C13.8542 17.1576 13.9268 17.1262 14.0017 17.1012C13.9867 17.1012 13.9414 17.1163 14.0259 17.1012C14.1103 17.086 14.1193 17.0739 14.1645 17.0678C14.401 17.0173 14.647 17.0363 14.8731 17.1224C15.0978 17.2039 15.2988 17.3403 15.458 17.5193C15.5421 17.608 15.6104 17.7105 15.66 17.8224C15.6875 17.876 15.7107 17.9317 15.7294 17.989C15.7083 17.9163 15.7294 18.0042 15.7294 18.0284C15.7294 18.0527 15.7475 18.1193 15.7535 18.1648C15.7595 18.2103 15.7535 18.1072 15.7535 18.1648C15.7565 18.2011 15.7565 18.2376 15.7535 18.2739C15.7535 18.183 15.7052 18.389 15.7535 18.3042C15.6728 18.4285 15.5644 18.5322 15.4369 18.6072C15.1806 18.7981 14.9243 19.0587 14.6922 19.2133C14.5944 19.2545 14.488 19.2703 14.3826 19.2591C14.2771 19.248 14.1762 19.2104 14.0892 19.1496C13.7832 18.9362 13.522 18.6643 13.3203 18.3496C13.2394 18.2597 13.1267 18.2049 13.0063 18.197C12.8858 18.1891 12.767 18.2286 12.6751 18.3072C12.6033 18.3875 12.5604 18.4897 12.5533 18.5974C12.5462 18.7051 12.5753 18.8121 12.6359 18.9012Z" fill="#6C4FA0" />
	<path d="M16.6733 14.7013C16.9025 15.0831 17.1678 15.4922 17.5779 15.6285C18.0603 15.7831 18.5668 15.5255 19.01 15.277L20.0532 14.6922C20.0865 14.683 20.1177 14.6674 20.1449 14.6462C20.1722 14.625 20.195 14.5985 20.2121 14.5684C20.2292 14.5383 20.2402 14.5051 20.2445 14.4707C20.2488 14.4363 20.2463 14.4014 20.2372 14.3679C20.2274 14.3367 20.2132 14.3071 20.1949 14.2801C20.008 13.8134 19.7095 13.2588 19.206 13.2528C18.8532 13.2528 18.4975 13.5285 18.1749 13.3982C18.078 13.3504 17.9853 13.2946 17.8975 13.2316C17.7027 13.1046 17.4658 13.0606 17.2388 13.1091C17.0118 13.1577 16.8132 13.295 16.6869 13.4907C16.5606 13.6864 16.5168 13.9245 16.5651 14.1527C16.6134 14.3808 16.75 14.5804 16.9447 14.7073" fill="#4172B8" />
	<path d="M16.251 14.9057C16.4642 15.3344 16.788 15.6975 17.1887 15.9572C17.3774 16.0539 17.5833 16.1119 17.7944 16.1281C18.0056 16.1442 18.2178 16.118 18.4189 16.0512C18.8055 15.9119 19.1763 15.7322 19.5254 15.5148L20.1616 15.1572C20.436 15.0027 20.6983 14.8239 20.7073 14.4693C20.6939 14.2565 20.6331 14.0494 20.5294 13.8633C20.4368 13.6602 20.3204 13.469 20.1827 13.2936C20.0526 13.1189 19.88 12.9809 19.6814 12.8928C19.4829 12.8047 19.2651 12.7695 19.049 12.7906C18.8908 12.8145 18.7352 12.8541 18.5847 12.9087C18.5094 12.9305 18.4329 12.9478 18.3556 12.9603C18.4581 12.9603 18.3556 12.9603 18.3224 12.9603C18.4008 12.9603 18.3224 12.9602 18.2953 12.9269C18.1264 12.8017 17.9312 12.7172 17.7247 12.6799C17.5182 12.6426 17.3059 12.6535 17.1043 12.7118C16.8609 12.7793 16.6423 12.9162 16.4748 13.1061C16.3073 13.296 16.1981 13.5305 16.1606 13.7815C16.1248 14.027 16.1552 14.2776 16.2485 14.5073C16.3418 14.737 16.4947 14.9374 16.6912 15.0875C16.7414 15.1251 16.7987 15.1519 16.8595 15.1663C16.9204 15.1808 16.9836 15.1825 17.0452 15.1715C17.1067 15.1605 17.1654 15.137 17.2176 15.1023C17.2697 15.0677 17.3143 15.0226 17.3485 14.97C17.3827 14.9174 17.4059 14.8583 17.4165 14.7964C17.4272 14.7344 17.4251 14.671 17.4104 14.6099C17.3957 14.5488 17.3687 14.4913 17.3311 14.4411C17.2935 14.3909 17.2461 14.3489 17.1917 14.3178C17.0892 14.239 17.2279 14.3603 17.1917 14.3178L17.1254 14.2421C17.1857 14.3118 17.0953 14.1754 17.0832 14.1421C17.0711 14.1087 17.0832 14.239 17.0832 14.1178C17.0832 14.0875 17.0832 14.0603 17.0681 14.036C17.047 13.9087 17.0681 14.0815 17.0681 14.0057C17.0697 13.9774 17.0697 13.9491 17.0681 13.9209C17.0681 13.9663 17.0862 13.8542 17.0832 13.8572C17.0914 13.8313 17.1015 13.8059 17.1134 13.7815C17.0711 13.8693 17.237 13.6724 17.1495 13.7481L17.2129 13.6936C17.3063 13.6118 17.1646 13.7148 17.2279 13.6936L17.3214 13.6481C17.3998 13.6057 17.2701 13.6481 17.3666 13.6481L17.448 13.6299C17.5686 13.6087 17.3998 13.6299 17.4752 13.6299H17.5777C17.5566 13.6299 17.4993 13.6057 17.5777 13.6299L17.6561 13.6542C17.7646 13.6906 17.6018 13.5905 17.7073 13.6845C17.8004 13.7534 17.9017 13.8104 18.0088 13.8542C18.2959 13.9565 18.6104 13.9489 18.8922 13.833C18.9556 13.8118 19.0189 13.7906 19.0852 13.7754L19.1636 13.7572C19.1636 13.7572 19.2842 13.7572 19.2209 13.7572C19.1576 13.7572 19.2902 13.7572 19.2872 13.7572C19.4078 13.7997 19.254 13.7178 19.3113 13.7572C19.3686 13.7966 19.3807 13.8027 19.4139 13.8269C19.447 13.8512 19.3445 13.7451 19.4289 13.8451L19.4862 13.9087L19.5586 13.9936C19.6128 14.0542 19.5073 13.8966 19.5797 14.0178C19.657 14.1484 19.7255 14.2841 19.7847 14.4239L19.8179 14.5057C19.848 14.5784 19.8179 14.5057 19.839 14.4299L19.8601 14.3421C19.9445 14.2663 19.9566 14.2572 19.8872 14.3027L19.7847 14.3603L19.2601 14.6633C18.9797 14.8209 18.7053 14.9905 18.4038 15.1269L18.2802 15.1784C18.241 15.1784 18.1445 15.2208 18.2289 15.1996C18.1606 15.2201 18.0912 15.2363 18.0209 15.2481C18.0209 15.2481 17.8882 15.2481 17.9515 15.2481C18.0148 15.2481 17.8762 15.2481 17.8641 15.2481C17.852 15.2481 17.7525 15.233 17.8309 15.2481C17.787 15.2388 17.7437 15.2267 17.7013 15.2118C17.6078 15.1754 17.653 15.1906 17.6711 15.1966L17.5475 15.1178C17.436 15.039 17.5807 15.1572 17.4933 15.0572L17.3938 14.9421C17.2799 14.8151 17.1789 14.677 17.0922 14.53C17.0689 14.4712 17.0338 14.4179 16.9892 14.3734C16.9445 14.3289 16.8911 14.2941 16.8325 14.2712C16.7738 14.2483 16.7111 14.2378 16.6482 14.2404C16.5854 14.2429 16.5237 14.2584 16.4671 14.2859C16.4104 14.3134 16.36 14.3524 16.319 14.4004C16.278 14.4483 16.2473 14.5042 16.2287 14.5647C16.2101 14.6251 16.2041 14.6887 16.2111 14.7515C16.218 14.8144 16.2378 14.8751 16.2691 14.93L16.251 14.9057Z" fill="#4172B8" />
	<path d="M21.8713 11.2681C21.9738 11.7136 22.3899 12.0015 22.7758 12.2287C23.2582 12.5015 23.81 12.7439 24.3527 12.6227C24.6978 12.5173 24.9931 12.2897 25.1838 11.9821C25.3746 11.6745 25.4478 11.3077 25.3899 10.95C25.3126 10.5967 25.1436 10.2704 24.8999 10.0042C24.6563 9.73804 24.3468 9.54157 24.0029 9.4348C23.6868 9.319 23.3465 9.28605 23.0142 9.33907C22.6818 9.39209 22.3684 9.52933 22.1035 9.73783C21.8513 9.95942 21.6854 10.2636 21.6352 10.5964C21.5849 10.9293 21.6537 11.2692 21.8291 11.556" fill="#00AF6C" />
	<path d="M21.4222 11.3555C21.5025 11.6118 21.633 11.8495 21.8059 12.0546C21.9788 12.2596 22.1908 12.4278 22.4293 12.5494C22.8182 12.8009 23.2493 12.9796 23.7016 13.0767C24.1379 13.1592 24.5892 13.0775 24.9694 12.8473C25.3497 12.6171 25.6325 12.2544 25.7639 11.8282C26.0896 10.8737 25.6192 9.87971 24.8323 9.31911C24.4496 9.04677 24.0002 8.88474 23.5325 8.85056C23.0649 8.81638 22.5969 8.91134 22.179 9.12516C21.7363 9.3641 21.406 9.76991 21.2607 10.2534C21.1154 10.7369 21.167 11.2586 21.4041 11.704C21.4313 11.7555 21.4614 11.807 21.4916 11.8555C21.5716 11.9475 21.6846 12.0038 21.8059 12.0121C21.9272 12.0203 22.0468 11.9798 22.1383 11.8994C22.2299 11.819 22.2859 11.7054 22.2941 11.5835C22.3023 11.4616 22.262 11.3414 22.182 11.2494C22.2242 11.3009 22.1579 11.2221 22.1579 11.2039L22.1187 11.113C22.0886 11.0312 22.1368 11.207 22.1036 11.0615C22.095 11.0298 22.089 10.9973 22.0856 10.9646C22.0796 10.9203 22.0796 10.8755 22.0856 10.8312V10.707C22.0813 10.6799 22.0813 10.6523 22.0856 10.6252C22.1098 10.496 22.1597 10.3732 22.2322 10.2638C22.3047 10.1545 22.3984 10.061 22.5077 9.98881C22.736 9.84336 23.0001 9.76466 23.2705 9.76154C23.5655 9.75552 23.8571 9.8254 24.1177 9.96456C24.3853 10.1037 24.6104 10.3132 24.769 10.5706C24.9201 10.8122 24.976 11.1019 24.9257 11.3827C24.8956 11.6155 24.7785 11.8279 24.5982 11.9771C24.4179 12.1262 24.1879 12.2008 23.9549 12.1858C23.6345 12.1427 23.3265 12.0334 23.0504 11.8646C22.7489 11.7009 22.372 11.4918 22.2876 11.1737C22.2757 11.1152 22.2525 11.0596 22.2192 11.0101C22.186 10.9606 22.1434 10.9182 22.0938 10.8853C22.0442 10.8524 21.9887 10.8296 21.9304 10.8182C21.8721 10.8069 21.8121 10.8072 21.7539 10.8191C21.6957 10.831 21.6404 10.8544 21.5912 10.8878C21.5419 10.9212 21.4997 10.9641 21.467 11.0139C21.4342 11.0637 21.4116 11.1195 21.4003 11.1781C21.389 11.2367 21.3892 11.297 21.4011 11.3555H21.4222Z" fill="#00AF6C" />
	<path d="M27.9253 8.24943C27.7051 8.61631 27.5549 9.02119 27.4821 9.44337C27.4492 9.65421 27.4732 9.8701 27.5517 10.0684C27.6302 10.2667 27.7603 10.4402 27.9284 10.5707C28.1132 10.6802 28.3184 10.7503 28.5314 10.7767C29.1344 10.8858 29.7887 10.9646 30.3073 10.6403C30.5802 10.4583 30.7867 10.1918 30.8955 9.88121C31.0043 9.57065 31.0095 9.23292 30.9103 8.91913C30.7978 8.61101 30.6059 8.33842 30.3543 8.12919C30.1027 7.91996 29.8003 7.7816 29.4781 7.72823C29.1557 7.68104 28.827 7.70052 28.5123 7.78545C28.1976 7.87038 27.9035 8.01899 27.648 8.22217" fill="#F1E912" />
	<path d="M27.5334 8.00004C27.2921 8.41873 27.1239 8.87582 27.0359 9.35154C26.9664 9.81129 27.0814 10.28 27.3555 10.6546C27.657 11.0546 28.1183 11.1697 28.5827 11.2606C28.994 11.3484 29.4174 11.3638 29.8339 11.3061C30.2628 11.2357 30.6547 11.0195 30.944 10.6935C31.2332 10.3675 31.4023 9.9515 31.4228 9.51519C31.4353 9.0783 31.3157 8.64786 31.08 8.28058C30.8443 7.91329 30.5034 7.62638 30.1023 7.4576C29.1797 7.0273 28.1244 7.30305 27.3254 7.89093C27.2352 7.97189 27.1802 8.08522 27.1723 8.2065C27.1644 8.32779 27.2042 8.44734 27.2832 8.53942C27.3662 8.62439 27.4779 8.67494 27.5963 8.68112C27.7146 8.68729 27.831 8.64862 27.9224 8.57275C28.1392 8.40424 28.3894 8.28434 28.6562 8.2211C28.923 8.15785 29.2002 8.15274 29.4691 8.2061C29.7248 8.26092 29.9586 8.3906 30.141 8.57882C30.3235 8.76703 30.4464 9.00534 30.4942 9.26367C30.4987 9.31104 30.4987 9.35872 30.4942 9.40608C30.4918 9.47517 30.4848 9.54401 30.4731 9.61214C30.4446 9.71618 30.4073 9.81756 30.3616 9.91517C30.3114 10.0159 30.2405 10.1047 30.1535 10.1758C30.0628 10.2484 29.961 10.3057 29.852 10.3455C29.5781 10.4216 29.2909 10.4361 29.0108 10.3879C28.7264 10.3782 28.4463 10.3155 28.1847 10.2031C28.0729 10.1355 27.9917 10.0268 27.9585 9.90003C27.9171 9.76898 27.9037 9.63059 27.9193 9.49398C27.9794 9.13973 28.1063 8.80031 28.2932 8.49398C28.3588 8.39111 28.381 8.26625 28.355 8.14691C28.329 8.02757 28.2569 7.92351 28.1545 7.8576C28.0522 7.7917 27.928 7.76937 27.8092 7.79551C27.6905 7.82166 27.5869 7.89413 27.5214 7.997L27.5334 8.00004Z" fill="#F1E912" />
	<path d="M11.8705 35.5942C11.6714 35.7552 11.5116 35.9599 11.4034 36.1926C11.2953 36.4253 11.2415 36.6798 11.2464 36.9366C11.2592 37.1914 11.3545 37.435 11.5178 37.6303C11.6811 37.8256 11.9034 37.9619 12.1509 38.0184C12.5851 38.0881 13.0072 37.8608 13.3961 37.6366C13.61 37.5277 13.8054 37.3856 13.975 37.2154C14.1754 36.9608 14.3054 36.6577 14.3519 36.3366C14.4454 35.9093 14.4755 35.3911 14.1439 35.1245C13.8122 34.8578 13.363 34.9093 12.965 34.9942C12.4735 35.1123 11.9127 35.2972 11.7017 35.7578" fill="white" />
	<path d="M11.5687 35.2489C11.2434 35.5098 11.0052 35.8644 10.8861 36.2652C10.7671 36.666 10.7727 37.0938 10.9023 37.4913C11.0415 37.8715 11.3251 38.1807 11.6907 38.3511C12.0564 38.5215 12.4744 38.5392 12.8531 38.4004L12.9737 38.3489C13.3647 38.203 13.7317 37.9987 14.0621 37.7428C14.412 37.449 14.6513 37.0437 14.7405 36.5944C14.8615 36.194 14.876 35.7688 14.7827 35.361C14.7246 35.1479 14.6097 34.9547 14.4502 34.8025C14.2908 34.6503 14.093 34.5448 13.8782 34.4974C13.422 34.4221 12.9543 34.4638 12.5184 34.6186C12.266 34.6725 12.0271 34.7778 11.8166 34.9279C11.6061 35.0779 11.4284 35.2697 11.2943 35.4913C11.2304 35.5954 11.2089 35.7202 11.2342 35.8398C11.2594 35.9594 11.3295 36.0647 11.43 36.1337C11.48 36.1666 11.5361 36.1892 11.5949 36.2002C11.6536 36.2113 11.714 36.2107 11.7725 36.1983C11.831 36.1859 11.8866 36.162 11.9359 36.1281C11.9852 36.0941 12.0275 36.0508 12.0601 36.0004C12.1209 35.8833 12.2063 35.7808 12.3104 35.7002C12.4146 35.6196 12.5349 35.5628 12.6631 35.5337C12.9053 35.448 13.1578 35.395 13.4139 35.3762C13.4691 35.3716 13.5245 35.3716 13.5797 35.3762C13.5797 35.3762 13.6852 35.3762 13.643 35.3762C13.6008 35.3762 13.6913 35.3913 13.7003 35.3943C13.7094 35.3974 13.7968 35.4337 13.7546 35.4125C13.7124 35.3913 13.7968 35.4428 13.8058 35.4489C13.8058 35.4489 13.8842 35.561 13.8571 35.5065C13.8957 35.5881 13.9173 35.6768 13.9204 35.7671C13.924 35.9116 13.9108 36.056 13.8812 36.1974C13.8409 36.458 13.7374 36.7047 13.5797 36.9156C13.3664 37.1124 13.1205 37.2704 12.8531 37.3822C12.6537 37.5067 12.4212 37.567 12.1867 37.555C12.1867 37.555 12.1053 37.5337 12.1566 37.555L12.0662 37.5247C12.1174 37.5459 11.9968 37.4883 11.9817 37.4731C11.9666 37.458 11.8943 37.4095 11.9335 37.4398C11.9727 37.4701 11.9003 37.4034 11.8943 37.3944L11.828 37.3216C11.828 37.3034 11.7646 37.2277 11.7948 37.2853C11.7322 37.1875 11.691 37.0776 11.6738 36.9627C11.6567 36.8477 11.664 36.7305 11.6953 36.6186C11.7286 36.4831 11.788 36.3554 11.8702 36.2428C11.9432 36.1254 12.0372 36.0227 12.1475 35.9398C12.2294 35.857 12.277 35.7461 12.2806 35.6294C12.2842 35.5128 12.2436 35.3991 12.167 35.3114C12.0904 35.2236 11.9836 35.1684 11.868 35.1568C11.7525 35.1452 11.6369 35.1781 11.5445 35.2489H11.5687Z" fill="white" />
	<path d="M16.2393 37.8001C16.3146 38.5062 16.4081 39.2062 16.5227 39.9213C16.5351 40.2424 16.6739 40.5454 16.9086 40.7637C17.0287 40.8363 17.164 40.8798 17.3037 40.8909C17.4434 40.9019 17.5837 40.8802 17.7136 40.8274C18.1193 40.6475 18.4451 40.3242 18.6291 39.9188C18.8132 39.5135 18.8428 39.0543 18.7122 38.6284C18.5817 38.2026 18.3001 37.8398 17.9209 37.6089C17.5417 37.378 17.0913 37.295 16.6553 37.3759C16.4805 37.4274 16.2785 37.6031 16.378 37.7577" fill="black" />
	<path d="M15.79 37.8796C15.8442 38.3736 15.9076 38.8705 15.9799 39.3675C16.0553 39.813 16.0734 40.3402 16.3116 40.7402C16.8302 41.6039 17.9578 41.3766 18.6061 40.8069C18.8952 40.5483 19.1171 40.2227 19.2527 39.8583C19.3883 39.4939 19.4333 39.1018 19.3839 38.716C19.2707 38.1271 18.9357 37.6048 18.4486 37.2581C17.9616 36.9115 17.3602 36.7672 16.7699 36.8554C16.5352 36.8837 16.314 36.9806 16.1337 37.1342C16.0221 37.2283 15.9442 37.3566 15.9121 37.4995C15.88 37.6423 15.8953 37.7918 15.9558 37.9251C16.0143 38.0256 16.1085 38.1 16.2195 38.1335C16.3305 38.167 16.4499 38.157 16.5538 38.1056C16.6578 38.0541 16.7385 37.965 16.7797 37.8562C16.8209 37.7474 16.8195 37.6269 16.7759 37.519L16.794 37.6554C16.7337 37.7857 16.7246 37.8251 16.7578 37.7705H16.7397C16.7126 37.7948 16.7186 37.7918 16.7397 37.7705C16.803 37.7524 16.8664 37.7433 16.9267 37.7311C16.9267 37.7311 17.0412 37.7311 16.9598 37.7311H17.0684C17.1326 37.7266 17.1971 37.7266 17.2613 37.7311H17.3427H17.3759L17.5598 37.7887L17.6382 37.819C17.6653 37.819 17.7679 37.8857 17.6895 37.8433C17.8028 37.9047 17.9107 37.9757 18.0121 38.0554L18.0694 38.119C18.1236 38.1766 18.1779 38.2372 18.2262 38.2978L18.2563 38.3342C18.2171 38.2887 18.2925 38.3948 18.2895 38.3918C18.3176 38.4407 18.3427 38.4913 18.3648 38.5433C18.3648 38.5433 18.4131 38.6675 18.392 38.6099C18.3709 38.5523 18.392 38.6433 18.392 38.6554C18.4121 38.7319 18.4262 38.81 18.4342 38.8887V38.9736C18.4342 39.0402 18.4342 39.1039 18.4342 39.1675C18.4342 39.2311 18.4161 39.2796 18.4342 39.2008L18.4131 39.2827C18.395 39.3524 18.3739 39.4221 18.3498 39.4887L18.3075 39.5887C18.2804 39.6554 18.3377 39.5342 18.3075 39.5887C18.2788 39.6462 18.2466 39.7019 18.2111 39.7554C18.1749 39.8099 18.1387 39.8615 18.0995 39.9099C18.0603 39.9584 18.1478 39.8675 18.0995 39.9099L18.003 39.9948L17.8583 40.1221C17.8101 40.1645 17.8372 40.1433 17.8583 40.1221L17.7648 40.1796C17.71 40.2127 17.6525 40.2411 17.593 40.2645L17.5116 40.2948C17.593 40.2705 17.4513 40.2948 17.4483 40.2948C17.4452 40.2948 17.2734 40.316 17.3307 40.313C17.2926 40.3175 17.2542 40.3175 17.2161 40.313C17.1437 40.313 17.2885 40.3493 17.1739 40.313C17.1739 40.313 17.0985 40.2736 17.1739 40.313C17.1166 40.2827 17.1256 40.2796 17.1407 40.2978C17.0923 40.249 17.0552 40.19 17.0322 40.1251C16.9807 39.9498 16.9444 39.7703 16.9236 39.5887C16.8875 39.3736 16.8603 39.1554 16.8272 38.9402C16.7638 38.5099 16.7126 38.0887 16.6613 37.6372C16.638 37.5182 16.5688 37.4132 16.4689 37.3451C16.369 37.277 16.2463 37.2513 16.1277 37.2736C16.0102 37.3012 15.9076 37.3725 15.8405 37.4732C15.7733 37.5738 15.7466 37.6963 15.7658 37.816L15.79 37.8796Z" fill="black" />
	<path d="M31.8877 30.4845C31.4264 29.2723 29.8254 28.736 28.0254 29.1117C27.6968 29.1808 27.3742 29.2761 27.0606 29.3966C25.4113 30.0239 24.2807 31.1966 24.0757 32.3602C24.0107 32.717 24.044 33.0848 24.1721 33.4239C24.7179 34.8663 26.8314 35.336 28.9963 34.5148C31.1611 33.6936 32.4274 31.9208 31.8877 30.4845ZM25.3088 32.9905C25.0586 32.3208 25.8938 31.1511 27.4917 30.542C29.0897 29.9329 30.5068 30.239 30.745 30.9208C30.9832 31.6026 30.1631 32.7602 28.5591 33.3723C26.9551 33.9845 25.5591 33.6572 25.3088 32.9905ZM31.8877 30.4845C31.4264 29.2723 29.8254 28.736 28.0254 29.1117C27.6968 29.1808 27.3742 29.2761 27.0606 29.3966C25.4113 30.0239 24.2807 31.1966 24.0757 32.3602C24.0107 32.717 24.044 33.0848 24.1721 33.4239C24.7179 34.8663 26.8314 35.336 28.9963 34.5148C31.1611 33.6936 32.4274 31.9208 31.8877 30.4845ZM25.3088 32.9905C25.0586 32.3208 25.8938 31.1511 27.4917 30.542C29.0897 29.9329 30.5068 30.239 30.745 30.9208C30.9832 31.6026 30.1631 32.7602 28.5591 33.3723C26.9551 33.9845 25.5591 33.6572 25.3088 32.9905ZM31.8877 30.4845C31.4264 29.2723 29.8254 28.736 28.0254 29.1117C27.6968 29.1808 27.3742 29.2761 27.0606 29.3966C25.4113 30.0239 24.2807 31.1966 24.0757 32.3602C24.0107 32.717 24.044 33.0848 24.1721 33.4239C24.7179 34.8663 26.8314 35.336 28.9963 34.5148C31.1611 33.6936 32.4274 31.9208 31.8877 30.4845ZM25.3088 32.9905C25.0586 32.3208 25.8938 31.1511 27.4917 30.542C29.0897 29.9329 30.5068 30.239 30.745 30.9208C30.9832 31.6026 30.1631 32.7602 28.5591 33.3723C26.9551 33.9845 25.5591 33.6572 25.3088 32.9905ZM31.8877 30.4845C31.4264 29.2723 29.8254 28.736 28.0254 29.1117C27.6968 29.1808 27.3742 29.2761 27.0606 29.3966C25.4113 30.0239 24.2807 31.1966 24.0757 32.3602C24.0107 32.717 24.044 33.0848 24.1721 33.4239C24.7179 34.8663 26.8314 35.336 28.9963 34.5148C31.1611 33.6936 32.4274 31.9208 31.8877 30.4845ZM25.3088 32.9905C25.0586 32.3208 25.8938 31.1511 27.4917 30.542C29.0897 29.9329 30.5068 30.239 30.745 30.9208C30.9832 31.6026 30.1631 32.7602 28.5591 33.3723C26.9551 33.9845 25.5591 33.6572 25.3088 32.9905ZM31.8877 30.4845C31.4264 29.2723 29.8254 28.736 28.0254 29.1117C27.6968 29.1808 27.3742 29.2761 27.0606 29.3966C25.4113 30.0239 24.2807 31.1966 24.0757 32.3602C24.0107 32.717 24.044 33.0848 24.1721 33.4239C24.7179 34.8663 26.8314 35.336 28.9963 34.5148C31.1611 33.6936 32.4274 31.9208 31.8877 30.4845ZM25.3088 32.9905C25.0586 32.3208 25.8938 31.1511 27.4917 30.542C29.0897 29.9329 30.5068 30.239 30.745 30.9208C30.9832 31.6026 30.1631 32.7602 28.5591 33.3723C26.9551 33.9845 25.5591 33.6572 25.3088 32.9905ZM31.8877 30.4845C31.4264 29.2723 29.8254 28.736 28.0254 29.1117C27.6968 29.1808 27.3742 29.2761 27.0606 29.3966C25.4113 30.0239 24.2807 31.1966 24.0757 32.3602C24.0107 32.717 24.044 33.0848 24.1721 33.4239C24.7179 34.8663 26.8314 35.336 28.9963 34.5148C31.1611 33.6936 32.4274 31.9208 31.8877 30.4845ZM25.3088 32.9905C25.0586 32.3208 25.8938 31.1511 27.4917 30.542C29.0897 29.9329 30.5068 30.239 30.745 30.9208C30.9832 31.6026 30.1631 32.7602 28.5591 33.3723C26.9551 33.9845 25.5591 33.6572 25.3088 32.9905ZM31.8877 30.4845C31.4264 29.2723 29.8254 28.736 28.0254 29.1117C27.6968 29.1808 27.3742 29.2761 27.0606 29.3966C25.4113 30.0239 24.2807 31.1966 24.0757 32.3602C24.0107 32.717 24.044 33.0848 24.1721 33.4239C24.7179 34.8663 26.8314 35.336 28.9963 34.5148C31.1611 33.6936 32.4274 31.9208 31.8877 30.4845ZM25.3088 32.9905C25.0586 32.3208 25.8938 31.1511 27.4917 30.542C29.0897 29.9329 30.5068 30.239 30.745 30.9208C30.9832 31.6026 30.1631 32.7602 28.5591 33.3723C26.9551 33.9845 25.5591 33.6572 25.3088 32.9905ZM31.8877 30.4845C31.4264 29.2723 29.8254 28.736 28.0254 29.1117C27.6968 29.1808 27.3742 29.2761 27.0606 29.3966C25.4113 30.0239 24.2807 31.1966 24.0757 32.3602C24.0107 32.717 24.044 33.0848 24.1721 33.4239C24.7179 34.8663 26.8314 35.336 28.9963 34.5148C31.1611 33.6936 32.4274 31.9208 31.8877 30.4845ZM25.3088 32.9905C25.0586 32.3208 25.8938 31.1511 27.4917 30.542C29.0897 29.9329 30.5068 30.239 30.745 30.9208C30.9832 31.6026 30.1631 32.7602 28.5591 33.3723C26.9551 33.9845 25.5591 33.6572 25.3088 32.9905ZM31.8877 30.4845C31.4264 29.2723 29.8254 28.736 28.0254 29.1117C27.6968 29.1808 27.3742 29.2761 27.0606 29.3966C25.4113 30.0239 24.2807 31.1966 24.0757 32.3602C24.0107 32.717 24.044 33.0848 24.1721 33.4239C24.7179 34.8663 26.8314 35.336 28.9963 34.5148C31.1611 33.6936 32.4274 31.9208 31.8877 30.4845ZM25.3088 32.9905C25.0586 32.3208 25.8938 31.1511 27.4917 30.542C29.0897 29.9329 30.5068 30.239 30.745 30.9208C30.9832 31.6026 30.1631 32.7602 28.5591 33.3723C26.9551 33.9845 25.5591 33.6572 25.3088 32.9905ZM31.8877 30.4845C31.4264 29.2723 29.8254 28.736 28.0254 29.1117C27.6968 29.1808 27.3742 29.2761 27.0606 29.3966C25.4113 30.0239 24.2807 31.1966 24.0757 32.3602C24.0107 32.717 24.044 33.0848 24.1721 33.4239C24.7179 34.8663 26.8314 35.336 28.9963 34.5148C31.1611 33.6936 32.4274 31.9208 31.8877 30.4845ZM25.3088 32.9905C25.0586 32.3208 25.8938 31.1511 27.4917 30.542C29.0897 29.9329 30.5068 30.239 30.745 30.9208C30.9832 31.6026 30.1631 32.7602 28.5591 33.3723C26.9551 33.9845 25.5591 33.6572 25.3088 32.9905ZM31.8877 30.4845C31.4264 29.2723 29.8254 28.736 28.0254 29.1117C27.6968 29.1808 27.3742 29.2761 27.0606 29.3966C25.4113 30.0239 24.2807 31.1966 24.0757 32.3602C24.0107 32.717 24.044 33.0848 24.1721 33.4239C24.7179 34.8663 26.8314 35.336 28.9963 34.5148C31.1611 33.6936 32.4274 31.9208 31.8877 30.4845ZM25.3088 32.9905C25.0586 32.3208 25.8938 31.1511 27.4917 30.542C29.0897 29.9329 30.5068 30.239 30.745 30.9208C30.9832 31.6026 30.1631 32.7602 28.5591 33.3723C26.9551 33.9845 25.5591 33.6572 25.3088 32.9905ZM31.8877 30.4845C31.4264 29.2723 29.8254 28.736 28.0254 29.1117C27.6968 29.1808 27.3742 29.2761 27.0606 29.3966C25.4113 30.0239 24.2807 31.1966 24.0757 32.3602C24.0107 32.717 24.044 33.0848 24.1721 33.4239C24.7179 34.8663 26.8314 35.336 28.9963 34.5148C31.1611 33.6936 32.4274 31.9208 31.8877 30.4845ZM25.3088 32.9905C25.0586 32.3208 25.8938 31.1511 27.4917 30.542C29.0897 29.9329 30.5068 30.239 30.745 30.9208C30.9832 31.6026 30.1631 32.7602 28.5591 33.3723C26.9551 33.9845 25.5591 33.6572 25.3088 32.9905ZM55.942 15.1511C54.6244 11.6602 52.0978 8.80567 48.6214 6.8087C46.9615 5.86456 45.1883 5.13747 43.345 4.64507C37.2063 2.9572 30.0787 3.45719 23.2827 6.03597C16.4867 8.61476 10.8274 13.0057 7.34199 18.3511C3.82038 23.7663 2.92492 29.539 4.83346 34.6057C6.07869 37.9026 8.40331 40.636 11.5933 42.6148C13.4106 43.7218 15.3762 44.5617 17.4304 45.1087C22.2546 46.4329 29.4003 46.8754 35.7591 44.4542C36.3621 44.2178 36.9651 43.9602 37.5289 43.6905C42.353 41.3663 44.3943 39.6845 44.3822 38.1723C44.3701 36.6602 42.5732 35.8178 40.4626 34.8632C38.4304 33.9208 36.133 32.8542 35.6144 31.1814C35.343 30.3208 35.5631 29.3178 36.2716 28.1511C37.6375 26.0693 41.9792 24.3936 46.1852 22.7845C51.8596 20.5845 57.2083 18.5148 55.942 15.1511ZM45.7601 21.6148C41.3701 23.3117 36.8264 25.0663 35.2586 27.4784H35.2405C34.3541 28.9572 34.0887 30.3178 34.4566 31.5239C35.132 33.7269 37.6978 34.9117 39.9621 35.9572C41.4696 36.6481 43.149 37.436 43.1551 38.1663C43.1551 38.7057 42.3681 39.9845 37.0073 42.5602C30.546 45.6723 22.8365 45.2875 17.747 43.8935C15.9436 43.4104 14.2112 42.6911 12.5943 41.7542C9.44653 39.9057 7.16713 37.2996 5.9611 34.139C4.19125 29.4481 5.05657 24.0632 8.35205 18.9875C11.6988 13.836 17.1531 9.64205 23.7078 7.14811C30.2626 4.65417 37.1249 4.16628 43.0194 5.79659C44.9703 6.31929 46.8358 7.12253 48.5581 8.18143C51.5129 9.99961 53.6656 12.536 54.8113 15.5693C55.6465 17.7966 50.6234 19.739 45.7601 21.6178V21.6148ZM28.0405 29.1117C27.7119 29.1808 27.3892 29.2761 27.0757 29.3966C25.4264 30.0239 24.2958 31.1966 24.0907 32.3602C24.0258 32.717 24.0591 33.0848 24.1872 33.4239C24.7329 34.8663 26.8465 35.336 29.0113 34.5148C31.1762 33.6936 32.4485 31.9208 31.9088 30.4845C31.4264 29.2663 29.8254 28.736 28.0405 29.1117ZM25.3269 32.9905C25.0767 32.3208 25.9118 31.1511 27.5098 30.542C29.1078 29.9329 30.5249 30.239 30.7631 30.9208C31.0013 31.6026 30.1812 32.7602 28.5772 33.3723C26.9732 33.9845 25.5591 33.6572 25.3088 32.9905H25.3269ZM31.9058 30.4845C31.4445 29.2723 29.8435 28.736 28.0435 29.1117C27.7149 29.1808 27.3923 29.2761 27.0787 29.3966C25.4294 30.0239 24.2988 31.1966 24.0938 32.3602C24.0288 32.717 24.0621 33.0848 24.1902 33.4239C24.736 34.8663 26.8495 35.336 29.0144 34.5148C31.1792 33.6936 32.4274 31.9208 31.8877 30.4845H31.9058ZM25.3269 32.9905C25.0767 32.3208 25.9118 31.1511 27.5098 30.542C29.1078 29.9329 30.5249 30.239 30.7631 30.9208C31.0013 31.6026 30.1812 32.7602 28.5772 33.3723C26.9732 33.9845 25.5591 33.6572 25.3088 32.9905H25.3269ZM31.9058 30.4845C31.4445 29.2723 29.8435 28.736 28.0435 29.1117C27.7149 29.1808 27.3923 29.2761 27.0787 29.3966C25.4294 30.0239 24.2988 31.1966 24.0938 32.3602C24.0288 32.717 24.0621 33.0848 24.1902 33.4239C24.736 34.8663 26.8495 35.336 29.0144 34.5148C31.1792 33.6936 32.4274 31.9208 31.8877 30.4845H31.9058ZM25.3269 32.9905C25.0767 32.3208 25.9118 31.1511 27.5098 30.542C29.1078 29.9329 30.5249 30.239 30.7631 30.9208C31.0013 31.6026 30.1812 32.7602 28.5772 33.3723C26.9732 33.9845 25.5591 33.6572 25.3088 32.9905H25.3269ZM31.9058 30.4845C31.4445 29.2723 29.8435 28.736 28.0435 29.1117C27.7149 29.1808 27.3923 29.2761 27.0787 29.3966C25.4294 30.0239 24.2988 31.1966 24.0938 32.3602C24.0288 32.717 24.0621 33.0848 24.1902 33.4239C24.736 34.8663 26.8495 35.336 29.0144 34.5148C31.1792 33.6936 32.4274 31.9208 31.8877 30.4845H31.9058ZM25.3269 32.9905C25.0767 32.3208 25.9118 31.1511 27.5098 30.542C29.1078 29.9329 30.5249 30.239 30.7631 30.9208C31.0013 31.6026 30.1812 32.7602 28.5772 33.3723C26.9732 33.9845 25.5591 33.6572 25.3088 32.9905H25.3269ZM31.9058 30.4845C31.4445 29.2723 29.8435 28.736 28.0435 29.1117C27.7149 29.1808 27.3923 29.2761 27.0787 29.3966C25.4294 30.0239 24.2988 31.1966 24.0938 32.3602C24.0288 32.717 24.0621 33.0848 24.1902 33.4239C24.736 34.8663 26.8495 35.336 29.0144 34.5148C31.1792 33.6936 32.4274 31.9208 31.8877 30.4845H31.9058ZM25.3269 32.9905C25.0767 32.3208 25.9118 31.1511 27.5098 30.542C29.1078 29.9329 30.5249 30.239 30.7631 30.9208C31.0013 31.6026 30.1812 32.7602 28.5772 33.3723C26.9732 33.9845 25.5591 33.6572 25.3088 32.9905H25.3269ZM31.9058 30.4845C31.4445 29.2723 29.8435 28.736 28.0435 29.1117C27.7149 29.1808 27.3923 29.2761 27.0787 29.3966C25.4294 30.0239 24.2988 31.1966 24.0938 32.3602C24.0288 32.717 24.0621 33.0848 24.1902 33.4239C24.736 34.8663 26.8495 35.336 29.0144 34.5148C31.1792 33.6936 32.4274 31.9208 31.8877 30.4845H31.9058ZM25.3269 32.9905C25.0767 32.3208 25.9118 31.1511 27.5098 30.542C29.1078 29.9329 30.5249 30.239 30.7631 30.9208C31.0013 31.6026 30.1812 32.7602 28.5772 33.3723C26.9732 33.9845 25.5591 33.6572 25.3088 32.9905H25.3269ZM31.9058 30.4845C31.4445 29.2723 29.8435 28.736 28.0435 29.1117C27.7149 29.1808 27.3923 29.2761 27.0787 29.3966C25.4294 30.0239 24.2988 31.1966 24.0938 32.3602C24.0288 32.717 24.0621 33.0848 24.1902 33.4239C24.736 34.8663 26.8495 35.336 29.0144 34.5148C31.1792 33.6936 32.4274 31.9208 31.8877 30.4845H31.9058ZM25.3269 32.9905C25.0767 32.3208 25.9118 31.1511 27.5098 30.542C29.1078 29.9329 30.5249 30.239 30.7631 30.9208C31.0013 31.6026 30.1812 32.7602 28.5772 33.3723C26.9732 33.9845 25.5591 33.6572 25.3088 32.9905H25.3269ZM31.9058 30.4845C31.4445 29.2723 29.8435 28.736 28.0435 29.1117C27.7149 29.1808 27.3923 29.2761 27.0787 29.3966C25.4294 30.0239 24.2988 31.1966 24.0938 32.3602C24.0288 32.717 24.0621 33.0848 24.1902 33.4239C24.736 34.8663 26.8495 35.336 29.0144 34.5148C31.1792 33.6936 32.4274 31.9208 31.8877 30.4845H31.9058ZM25.3269 32.9905C25.0767 32.3208 25.9118 31.1511 27.5098 30.542C29.1078 29.9329 30.5249 30.239 30.7631 30.9208C31.0013 31.6026 30.1812 32.7602 28.5772 33.3723C26.9732 33.9845 25.5591 33.6572 25.3088 32.9905H25.3269ZM31.9058 30.4845C31.4445 29.2723 29.8435 28.736 28.0435 29.1117C27.7149 29.1808 27.3923 29.2761 27.0787 29.3966C25.4294 30.0239 24.2988 31.1966 24.0938 32.3602C24.0288 32.717 24.0621 33.0848 24.1902 33.4239C24.736 34.8663 26.8495 35.336 29.0144 34.5148C31.1792 33.6936 32.4274 31.9208 31.8877 30.4845H31.9058ZM25.3269 32.9905C25.0767 32.3208 25.9118 31.1511 27.5098 30.542C29.1078 29.9329 30.5249 30.239 30.7631 30.9208C31.0013 31.6026 30.1812 32.7602 28.5772 33.3723C26.9732 33.9845 25.5591 33.6572 25.3088 32.9905H25.3269ZM31.9058 30.4845C31.4445 29.2723 29.8435 28.736 28.0435 29.1117C27.7149 29.1808 27.3923 29.2761 27.0787 29.3966C25.4294 30.0239 24.2988 31.1966 24.0938 32.3602C24.0288 32.717 24.0621 33.0848 24.1902 33.4239C24.736 34.8663 26.8495 35.336 29.0144 34.5148C31.1792 33.6936 32.4274 31.9208 31.8877 30.4845H31.9058ZM25.3269 32.9905C25.0767 32.3208 25.9118 31.1511 27.5098 30.542C29.1078 29.9329 30.5249 30.239 30.7631 30.9208C31.0013 31.6026 30.1812 32.7602 28.5772 33.3723C26.9732 33.9845 25.5591 33.6572 25.3088 32.9905H25.3269ZM31.9058 30.4845C31.4445 29.2723 29.8435 28.736 28.0435 29.1117C27.7149 29.1808 27.3923 29.2761 27.0787 29.3966C25.4294 30.0239 24.2988 31.1966 24.0938 32.3602C24.0288 32.717 24.0621 33.0848 24.1902 33.4239C24.736 34.8663 26.8495 35.336 29.0144 34.5148C31.1792 33.6936 32.4274 31.9208 31.8877 30.4845H31.9058ZM25.3269 32.9905C25.0767 32.3208 25.9118 31.1511 27.5098 30.542C29.1078 29.9329 30.5249 30.239 30.7631 30.9208C31.0013 31.6026 30.1812 32.7602 28.5772 33.3723C26.9732 33.9845 25.5591 33.6572 25.3088 32.9905H25.3269Z" fill="#383838" />
</svg>
