<svg width="61" height="60" viewBox="0 0 61 60" fill="none" xmlns="http://www.w3.org/2000/svg">
	<g clip-path="url(#clip0_1655_36954)">
		<path d="M32.1096 54.2799C32.2655 53.3101 32.2931 52.3247 32.1919 51.348C32.1919 51.2119 32.1739 51.0782 32.1713 50.9547C31.9939 47.5816 31.8808 44.148 31.8216 40.732C33.1931 39.5875 34.5645 38.4539 35.9359 37.3312C36.1238 37.18 36.296 37.0112 36.4502 36.827C37.1814 36.3276 37.8641 35.763 38.4893 35.1405L38.6951 34.9463C39.4665 34.2228 40.1762 33.5421 40.8551 32.8741C42.2265 31.5195 43.5851 30.111 44.9308 28.6489C46.5074 27.9726 47.8928 26.931 48.9678 25.6135C50.0429 24.2961 50.7753 22.7423 51.1022 21.0859C51.1511 20.8161 51.1871 20.5615 51.2153 20.3296C51.2385 20.1783 51.2616 19.9791 51.2925 19.8254L51.4391 19.7472C51.7322 19.5884 52.0691 19.4069 52.4085 19.1926C54.5788 17.8388 56.1808 15.9455 56.9239 13.8254C57.8933 11.1077 57.3353 8.21865 55.5199 6.46655C54.8981 5.86084 54.0565 5.52174 53.1799 5.52368C52.3328 5.54163 51.5186 5.84888 50.8778 6.39242C50.237 6.93595 49.8098 7.68168 49.6699 8.50099C49.61 8.49311 49.5508 8.48133 49.4925 8.4657C48.8985 8.31444 48.2453 7.82033 47.4893 7.25058C46.7112 6.62946 45.8702 6.08798 44.9796 5.63461C43.7677 5.05415 42.4353 4.75649 41.0865 4.76487C37.4299 4.76487 33.9045 6.8447 31.8859 10.1825C31.4683 10.8785 31.1237 11.6142 30.8573 12.3783C30.616 11.8339 30.3196 11.3145 29.9728 10.8279C29.8571 10.6665 29.7285 10.5027 29.5948 10.3237L29.4508 10.1396C29.4996 9.88754 29.5562 9.63545 29.5999 9.33041C29.8992 7.39801 29.585 5.42212 28.6999 3.67075C28.4481 3.19336 28.1437 2.74447 27.7922 2.3321C26.6119 0.943022 24.9893 0.101 23.3616 0.103521H23.2999C22.6989 0.108321 22.1121 0.283421 21.6102 0.607707C21.1083 0.931993 20.7128 1.39163 20.4713 1.93125C20.2717 2.38799 20.1735 2.88116 20.1832 3.37798C20.193 3.8748 20.3105 4.3639 20.5279 4.81277C20.2965 4.86067 20.0136 4.89848 19.7796 4.93377C18.9903 5.02109 18.2137 5.19704 17.4653 5.45815C13.7265 6.87243 11.8596 11.4405 13.2148 15.88C13.5323 16.9194 14.0092 17.9054 14.6291 18.8043C14.9954 19.3366 15.4112 19.8345 15.8711 20.2917C16.1025 22.0741 16.3853 23.8438 16.6733 25.5858C16.7093 25.7951 16.7428 26.0018 16.7762 26.2136C16.9032 27.0856 17.0835 27.9493 17.3162 28.8001C17.5078 29.4779 17.8184 30.1177 18.2342 30.6909C18.3268 31.1825 18.4245 31.669 18.5119 32.1606C15.1871 36.5774 11.9625 41.1102 8.86906 45.7161C8.68392 45.9883 8.50134 46.2631 8.31877 46.5379C7.51134 47.748 6.7142 48.9606 5.92735 50.1757C5.83649 50.3169 5.73621 50.4682 5.62649 50.6295C4.92774 51.5898 4.35496 52.6324 3.92164 53.7329C2.89307 56.7026 4.48221 58.3967 5.20735 58.9841C6.03005 59.647 7.0636 60.0065 8.12849 60.0001C10.4839 60.0001 12.2556 58.2656 13.5439 57.0177L13.9142 56.6572C14.5639 56.0404 15.2179 55.4236 15.8762 54.8068L16.5808 54.1513C18.4751 52.3816 20.3985 50.6236 22.3511 48.8774C22.6339 49.9598 22.9245 51.0396 23.2228 52.1169C23.2588 52.2404 23.2922 52.3866 23.3308 52.5253C23.7345 54.0833 24.6782 57.7387 28.0751 57.7337C28.2263 57.7321 28.3774 57.7228 28.5276 57.706C30.3765 57.5119 31.7136 56.2186 32.1096 54.2799ZM20.5022 41.4077L19.6999 42.1009L20.4302 41.0925C20.4559 41.1984 20.4713 41.3043 20.5022 41.4077ZM32.8451 23.7178C32.8631 23.6926 32.8862 23.6674 32.9068 23.6422C33.0173 23.7783 33.1279 23.9169 33.2411 24.0531C34.1863 25.1817 35.2973 26.1664 36.5376 26.9749C36.6533 27.0505 36.7716 27.1262 36.8925 27.1993L36.7459 27.3405L36.6791 27.4085L36.5634 27.522C36.4913 27.5951 36.4219 27.6682 36.3499 27.7388C36.0696 28.0186 35.7893 28.301 35.5065 28.5783C34.8971 29.1808 34.2799 29.7732 33.6602 30.3279C33.5188 30.4589 33.3748 30.58 33.2333 30.706C33.1768 30.7589 33.1202 30.8094 33.0585 30.8598C32.9891 30.9171 32.9161 30.9702 32.8399 31.0186C32.8012 31.0462 32.7609 31.0714 32.7191 31.0942L32.6702 31.1245H32.6239C32.5308 31.1224 32.4384 31.1088 32.3488 31.0842C32.2831 31.0665 32.2187 31.0446 32.1559 31.0186C32.0388 30.9739 31.9267 30.9173 31.8216 30.8497C31.8216 30.6909 31.8216 30.532 31.8216 30.3732C31.8216 30.2144 31.8216 30.1211 31.8216 30.0102C31.8216 29.7304 31.8216 29.4531 31.8396 29.1757C31.8576 28.8984 31.8396 28.5783 31.8602 28.2783C31.8652 28.0895 31.8549 27.9007 31.8293 27.7136C31.8962 27.0289 31.904 26.3399 31.8525 25.6539V25.4346C31.8525 25.2556 31.8371 25.0842 31.8293 24.9153L31.9374 24.7816C32.2374 24.4287 32.5374 24.0741 32.8374 23.7178H32.8451ZM40.4668 14.7531C40.5319 14.8119 40.5962 14.8674 40.6596 14.9195C40.8523 15.0743 41.0569 15.2142 41.2716 15.338C41.0963 16.3343 41.2406 17.3594 41.6846 18.2719C42.1286 19.1845 42.8504 19.9395 43.7505 20.4329C43.8636 20.4959 43.9845 20.5564 44.1053 20.6119C43.9863 20.8672 43.8351 21.1069 43.6553 21.3254C43.4005 21.6515 43.0846 21.927 42.7245 22.1371C42.5959 22.1018 42.4673 22.064 42.3439 22.0237C40.2944 21.376 38.5897 19.9594 37.6022 18.0833C37.4756 17.8467 37.3623 17.6035 37.2628 17.3548C37.2628 17.3094 37.2628 17.264 37.2628 17.2186C37.2491 17.0831 37.2276 16.9484 37.1985 16.8153C37.0255 15.7944 37.2008 14.7461 37.6973 13.8329C37.7436 13.7447 37.7925 13.6615 37.8439 13.5808C38.1805 13.031 38.6459 12.5678 39.2016 12.2296C39.2016 12.3052 39.2222 12.3833 39.2351 12.459C39.3233 12.9629 39.5055 13.4466 39.7725 13.8859C39.9604 14.204 40.1913 14.4957 40.4591 14.7531H40.4668ZM20.9239 16.0388C20.8772 16.0023 20.8282 15.9687 20.7773 15.938C20.4912 15.7235 20.239 15.4686 20.0291 15.1817C19.7636 14.826 19.5659 14.4263 19.4453 14.0018C19.4402 13.9669 19.4298 13.9329 19.4145 13.901C19.5537 13.9418 19.6954 13.9738 19.8388 13.9968C20.0264 14.0291 20.2166 14.0451 20.4071 14.0447H20.5279C20.6128 14.0447 20.6951 14.0447 20.7851 14.027L20.9368 14.0069C21.3516 14.4807 21.8638 14.8633 22.4399 15.1296C23.0159 15.3959 23.6429 15.5399 24.2796 15.5522H24.4673C24.6781 15.5421 24.8878 15.5168 25.0948 15.4766C25.092 15.5096 25.0982 15.5426 25.1128 15.5724C25.1406 15.7391 25.1536 15.9078 25.1514 16.0766C24.5278 16.4068 23.8285 16.5752 23.1199 16.5657C22.4266 16.56 21.741 16.4221 21.1013 16.1598C21.0448 16.1144 20.9908 16.0691 20.9316 16.0287L20.9239 16.0388ZM22.8782 23.1934H23.2999C23.6856 23.1943 24.071 23.1749 24.4545 23.1354C24.2333 23.4077 24.0173 23.6825 23.8116 23.9648C23.6059 24.2472 23.3693 24.5875 23.1636 24.9077C23.1148 24.6379 23.0685 24.3682 23.0171 24.0732C23.0171 23.9976 22.9913 23.922 22.9811 23.8464L22.8782 23.1934Z" fill="white" />
		<path d="M25.915 29.2154C20.3401 36.8843 14.815 44.5902 9.33955 52.3331L8.13098 54.0448C7.90726 54.3574 7.67327 54.7154 7.70155 55.0809C7.73755 55.5851 8.30583 55.8373 8.78926 55.7036C9.27269 55.57 9.67898 55.1742 10.0595 54.7961C17.1515 47.7625 24.4955 41.049 32.0915 34.6558C29.3787 33.97 27.1904 31.7642 26.3855 28.918L25.915 29.2154Z" fill="#710F11" />
		<path d="M25.27 28.8482C20.0345 36.0465 14.8471 43.2734 9.70768 50.5288L7.78424 53.2338C7.21338 54.0431 6.47281 55.1498 7.3831 56.0221C8.15453 56.7632 9.25253 56.4254 9.98796 55.8406C10.8134 55.1901 11.5308 54.3683 12.2688 53.6347C15.3545 50.6095 18.5002 47.633 21.706 44.7053C25.2785 41.4582 28.9162 38.2734 32.6191 35.1507C33.0511 34.7851 32.7991 34.0692 32.2874 33.9305C29.716 33.2751 27.8157 31.1977 27.0957 28.712C26.818 27.812 25.396 28.2078 25.6582 29.1053C26.5222 32.0725 28.8211 34.5507 31.8965 35.3498L31.5648 34.1322C25.222 39.47 19.0668 45.0162 13.0994 50.7708C12.376 51.4683 11.6542 52.1708 10.9342 52.8784C10.5691 53.2313 10.21 53.5851 9.85681 53.9397C9.55043 54.2982 9.19776 54.616 8.80768 54.8851C8.70933 54.9446 8.5986 54.9816 8.48368 54.9935C8.42968 54.9935 8.38596 54.9128 8.45025 55.0112C8.47339 55.0515 8.37568 55.1775 8.45025 54.9532C8.46981 54.8964 8.49477 54.8415 8.52481 54.7893C8.64425 54.5761 8.78007 54.3722 8.9311 54.1792L10.7671 51.5801C13.2305 48.0994 15.706 44.6204 18.1934 41.1431C20.9705 37.2776 23.7588 33.412 26.5582 29.5465C26.6578 29.3767 26.6845 29.175 26.6324 28.9859C26.5803 28.7968 26.4537 28.6357 26.2805 28.5381C26.1063 28.4451 25.9022 28.4215 25.7106 28.4722C25.519 28.5229 25.3548 28.644 25.252 28.8104L25.27 28.8482Z" fill="#710F11" />
		<path d="M25.828 29.011C25.6737 29.4446 25.9823 29.8454 26.3089 30.09C26.6355 30.3345 27.0237 30.5286 27.1369 30.9446C27.2809 31.5118 26.818 32.1143 26.3989 32.5656L12.1352 48.2765L10.8237 49.721C11.0089 48.8412 11.5154 48.0421 12.0117 47.2883C16.2083 40.8248 20.7337 34.5724 25.5709 28.5547L25.828 29.011Z" fill="#461213" />
		<path d="M25.3982 28.8952C25.3471 29.0689 25.3346 29.2513 25.3617 29.43C25.3888 29.6088 25.4547 29.7798 25.5551 29.9314C25.7826 30.2259 26.0632 30.4771 26.3831 30.6725C26.517 30.7422 26.6197 30.8582 26.6711 30.9981C26.7224 31.1379 26.7188 31.2915 26.6608 31.4288C26.4979 31.7778 26.2703 32.0941 25.9897 32.3616C24.7262 33.7583 23.462 35.1515 22.1968 36.5415L14.6959 44.7977L10.5071 49.4112L11.2554 49.8372C11.4627 49.0719 11.8056 48.3483 12.2685 47.6994C12.7082 47.0137 13.1582 46.3456 13.6057 45.6574C14.5365 44.2557 15.4794 42.8658 16.4342 41.4877C18.3491 38.7297 20.3274 36.0162 22.3691 33.3473C23.5194 31.8347 24.6894 30.3406 25.8791 28.865C26.234 28.4263 25.6014 27.8036 25.2465 28.2448C20.9608 33.5826 16.9159 39.0961 13.1119 44.7851C12.5874 45.5717 12.0671 46.3624 11.5511 47.1574C11.0215 47.8958 10.6273 48.719 10.3862 49.5902C10.2937 49.991 10.8208 50.3616 11.1319 50.0137L26.4268 33.1633C26.9771 32.5532 27.7382 31.8095 27.5737 30.8944C27.4847 30.506 27.2461 30.1664 26.9077 29.9465C26.6325 29.7448 26.1362 29.5104 26.2545 29.102C26.2855 28.9896 26.2698 28.8698 26.2107 28.7689C26.1517 28.6679 26.0541 28.5941 25.9395 28.5637C25.8249 28.5333 25.7027 28.5488 25.5998 28.6067C25.4968 28.6646 25.4215 28.7602 25.3905 28.8726L25.3982 28.8952Z" fill="#461213" />
		<path d="M33.3643 18.502L27.6712 25.6389C27.1569 26.2767 26.6246 26.9725 26.5089 27.7692C26.4465 28.4501 26.6049 29.1329 26.9615 29.7204C27.9388 31.6171 29.6414 33.058 31.698 33.7288C32.292 33.9429 32.9316 34.0062 33.5572 33.9129C34.4289 33.749 35.2081 33.1566 35.9538 32.5591C38.3382 30.6106 40.4711 28.384 42.3052 25.9288C38.7542 24.4547 35.7545 21.9409 33.7166 18.7314L33.3643 18.502Z" fill="#C7872A" />
		<path d="M32.8376 17.9858L27.9724 24.0765C27.2318 25.0042 26.3395 25.9219 25.9153 27.0488C25.491 28.1757 25.8793 29.3555 26.4733 30.369C27.5154 32.1846 29.1757 33.583 31.1636 34.3194C32.3567 34.7555 33.5627 34.8236 34.743 34.279C35.7921 33.7748 36.6921 32.9479 37.551 32.1916C39.5517 30.4158 41.3611 28.4432 42.951 26.3051C43.0019 26.2217 43.0352 26.1291 43.049 26.0328C43.0629 25.9365 43.0569 25.8385 43.0315 25.7446C43.0061 25.6506 42.9618 25.5625 42.9011 25.4856C42.8405 25.4087 42.7648 25.3445 42.6784 25.2967C39.2489 23.8735 36.3454 21.4562 34.3573 18.369C33.843 17.5748 32.5573 18.3135 33.0716 19.1076C35.1802 22.4197 38.2686 25.0228 41.925 26.5698L41.6473 25.5614C40.3744 27.2586 38.9567 28.8466 37.4096 30.3084C36.6567 31.0348 35.8635 31.7199 35.0336 32.3605C34.2313 32.9631 33.3981 33.3866 32.3696 33.1521C30.6473 32.7286 29.1454 31.6961 28.1524 30.253C27.6793 29.5698 27.0904 28.6698 27.2576 27.8051C27.4427 26.8622 28.2861 26.0404 28.8724 25.3219L33.9021 19.0194C34.0359 18.8793 34.1103 18.6945 34.1103 18.5026C34.1103 18.3107 34.0359 18.1259 33.9021 17.9858C33.645 17.7337 33.0973 17.6782 32.8504 17.9858H32.8376Z" fill="#C7872A" />
		<path d="M28.9212 23.5844C28.8882 25.2727 29.3218 26.9383 30.176 28.4046C30.577 29.0843 31.0807 29.7006 31.67 30.2323C32.3335 30.8222 33.0843 31.3088 34.0178 31.155C34.568 31.0542 34.3418 30.2122 33.776 30.3105C33.0998 30.4315 32.444 29.7735 32.012 29.3374C31.5306 28.8503 31.1235 28.2975 30.8035 27.6962C30.1275 26.4276 29.7871 25.013 29.8135 23.5819C29.8046 23.4717 29.7536 23.3688 29.6707 23.2938C29.5877 23.2189 29.4789 23.1774 29.3661 23.1777C29.2533 23.1781 29.1448 23.2201 29.0623 23.2956C28.9798 23.371 28.9294 23.4741 28.9212 23.5844Z" fill="#FFE5BB" />
		<path d="M31.7856 20.2179C31.8719 21.7395 32.4031 23.2045 33.3156 24.4381C34.2973 25.6905 35.5205 26.7416 36.9156 27.5314C37.4068 27.8289 37.8542 27.07 37.3656 26.7751C34.9382 25.3028 32.8682 23.1474 32.7088 20.2205C32.6779 19.6583 31.7805 19.6583 31.8139 20.2205L31.7856 20.2179Z" fill="#FFE5BB" />
		<path d="M42.5061 25.7904L40.0144 25.1829C39.8319 25.1205 39.6358 25.1066 39.4461 25.1425C39.2448 25.2165 39.063 25.3337 38.9138 25.4854C36.3424 27.6988 33.8387 29.9913 31.4027 32.3627C31.18 32.5462 31.0113 32.7846 30.9141 33.0535C30.8781 33.2129 30.892 33.3792 30.9539 33.5308C31.0158 33.6824 31.123 33.8121 31.2613 33.903C31.5405 34.0531 31.8603 34.1147 32.1767 34.0795C33.501 34.019 34.8201 33.3585 35.9592 32.4711C37.0826 31.5333 38.1155 30.4962 39.045 29.3728L42.0715 25.9467L42.5061 25.7904Z" fill="#FFE5BB" />
		<path d="M42.6241 25.3657L41.0426 24.9799C40.5463 24.8564 39.9395 24.6094 39.4329 24.6925C38.9675 24.7732 38.628 25.1337 38.2886 25.4287C37.8566 25.8018 37.4246 26.185 37.0029 26.5581C35.3863 27.99 33.7955 29.4514 32.2303 30.9421C31.8446 31.3102 31.4589 31.6732 31.0835 32.0463C30.7466 32.3766 30.4329 32.7572 30.4381 33.2514C30.4381 34.2825 31.5438 34.5774 32.3975 34.4942C34.398 34.3026 36.1003 33.0572 37.4812 31.7035C38.3298 30.869 39.1038 29.9614 39.8906 29.069L42.372 26.2556C42.7449 25.832 42.1149 25.2094 41.7369 25.6379C40.4666 27.0774 39.2143 28.532 37.926 29.964C36.7406 31.2698 35.4215 32.6161 33.7346 33.2866C33.3743 33.4305 32.9993 33.5361 32.616 33.6018C32.2946 33.6547 31.7572 33.748 31.4769 33.5312C31.1246 33.2614 31.4975 32.8909 31.7135 32.6766C32.0606 32.3362 32.4129 32.0035 32.7626 31.6682C34.134 30.3572 35.5278 29.069 36.9438 27.8035C37.7152 27.1102 38.4866 26.3665 39.3043 25.7287C39.3814 25.6595 39.476 25.6121 39.5783 25.5912C39.6806 25.5704 39.7867 25.5769 39.8855 25.6102C40.1606 25.6707 40.4152 25.7388 40.6775 25.8068L42.39 26.2228C42.9429 26.3615 43.1846 25.5144 42.6266 25.3783L42.6241 25.3657Z" fill="#FFE5BB" />
		<path d="M43.6478 9.59281C41.7192 8.42306 38.9652 8.7281 36.9621 10.3491C34.9589 11.9701 33.8429 14.7659 34.2158 17.2062C34.7069 20.4835 37.4532 22.4449 40.0606 23.9878C40.8038 24.4289 41.5855 24.8701 42.4726 24.9104C43.9101 24.9709 45.3809 23.9272 46.2578 22.5659C47.1347 21.2046 47.5049 19.5936 47.6515 18.0079C46.8081 17.9701 45.9235 17.9147 45.2575 17.4331C44.8987 17.1653 44.6495 16.7803 44.5552 16.3479C44.4608 15.9155 44.5275 15.4643 44.7432 15.076C45.0569 14.5718 45.6921 13.9945 45.4041 13.5256C45.3281 13.4204 45.2227 13.3389 45.1007 13.2911C44.3935 12.9558 43.5578 12.8247 42.9921 12.2651C42.4264 11.7054 42.3749 10.4525 43.1361 10.0264L43.6478 9.59281Z" fill="#4F4037" />
		<path d="M44.023 8.97141C41.7782 7.62771 38.8159 8.04618 36.769 9.57139C35.7484 10.3537 34.9171 11.3479 34.3347 12.4824C33.7523 13.617 33.4333 14.8638 33.4004 16.1336C33.3567 18.6546 34.7093 20.8605 36.6122 22.4764C37.5496 23.2514 38.5517 23.948 39.6079 24.5588C40.8473 25.2949 42.1793 25.9025 43.6347 25.4865C45.0902 25.0705 46.2782 23.9739 47.0419 22.726C47.9007 21.2916 48.253 19.6403 48.4073 18.0016C48.4484 17.5957 48.0319 17.2932 47.6616 17.2731C46.849 17.2353 45.6893 17.21 45.3473 16.3579C44.9513 15.3823 46.1907 14.7924 46.2293 13.8218C46.2807 12.5159 44.6144 12.4731 43.771 11.9361C43.709 11.8992 43.6505 11.8571 43.5961 11.81C43.551 11.7712 43.5088 11.7291 43.4702 11.684C43.5087 11.7395 43.5062 11.7294 43.4547 11.6563C43.414 11.6043 43.3858 11.544 43.3724 11.4798C43.3724 11.447 43.3107 11.1949 43.321 11.2832C43.2954 11.1405 43.3078 10.9937 43.357 10.8571C43.366 10.8128 43.3849 10.771 43.4125 10.7348C43.4401 10.6985 43.4756 10.6689 43.5164 10.6479C44.3419 10.1437 43.5781 8.88316 42.7604 9.38736C41.9427 9.89156 41.6856 10.8647 41.9041 11.7521C42.1459 12.7378 42.9893 13.247 43.897 13.5924C44.1053 13.6705 44.3213 13.7411 44.5296 13.8243C44.6105 13.8711 44.6968 13.9083 44.7867 13.9353C44.7096 13.9353 44.8279 13.9655 44.8356 13.9554C44.7996 13.9907 44.7379 13.6857 44.7636 13.7033C44.7893 13.721 44.131 14.6563 44.0667 14.7848C43.8319 15.2427 43.7399 15.7583 43.8021 16.2671C43.8643 16.776 44.078 17.2556 44.4164 17.6462C45.1879 18.5739 46.5224 18.6873 47.6642 18.7453L46.9184 18.0142C46.7024 20.2201 45.9644 22.7764 43.807 23.8781C43.4 24.0928 42.9422 24.1981 42.4802 24.1831C41.8749 24.1102 41.296 23.8977 40.7907 23.563C39.8764 23.0547 38.9984 22.4862 38.1627 21.8613C36.5659 20.6336 35.167 19 34.9279 16.963C34.8293 15.9391 34.9585 14.9065 35.3066 13.9363C35.6547 12.9662 36.2133 12.0816 36.9439 11.3437C38.5536 9.72014 41.2099 8.99661 43.2747 10.2143C44.1027 10.6983 44.8459 9.43275 44.0256 8.95376L44.023 8.97141Z" fill="#4F4037" />
		<path d="M43.0282 10.177C41.3748 9.42071 39.2122 10.0736 37.6514 11.4375C36.0905 12.8014 35.0388 14.7325 34.2931 16.7014C33.7119 16.0434 33.9048 14.9014 34.2545 13.9686C35.0259 11.9241 36.4505 10.0333 38.3045 9.06776C40.1585 8.10222 42.4342 8.20306 43.7662 9.57196L43.0282 10.177Z" fill="#333333" />
		<path d="M43.2517 9.7985C41.2743 8.91363 39.0346 9.70775 37.4711 11.0136C35.7328 12.4531 34.658 14.5304 33.8711 16.58L34.6143 16.3859C34.0614 15.7355 34.4806 14.6212 34.7454 13.9304C35.0919 13.0447 35.5683 12.2132 36.1597 11.4624C37.2834 10.0355 38.9266 8.87581 40.8346 8.86573C41.3192 8.85233 41.8017 8.93472 42.2532 9.10796C42.7046 9.28121 43.1159 9.54176 43.4626 9.87413C43.5474 9.95279 43.6603 9.9958 43.7771 9.99396C43.8939 9.99212 44.0053 9.94558 44.0876 9.86428C44.1698 9.78298 44.2164 9.67336 44.2173 9.55885C44.2183 9.44434 44.1735 9.33402 44.0926 9.25145C42.5163 7.69599 40.0349 7.69598 38.1397 8.66153C36.1494 9.66993 34.7403 11.5909 33.9328 13.5977C33.5008 14.6766 33.1794 16.0279 33.9894 17.0035C34.2209 17.2733 34.6323 17.0842 34.7351 16.8094C35.4346 14.9892 36.3808 13.1842 37.8543 11.8506C39.1117 10.7136 41.1251 9.80102 42.8094 10.5548C43.3237 10.7867 43.7814 10.0304 43.2594 9.7985H43.2517Z" fill="#333333" />
		<path d="M43.1435 12.0195C41.1724 12.6193 39.4562 13.8361 38.2578 15.4834C37.0128 17.1737 36.3254 19.1971 36.2881 21.2817C36.7647 19.069 37.9744 17.0729 39.7287 15.6044C41.3693 14.2328 43.3956 13.3811 45.5401 13.1616L43.1435 12.0195Z" fill="#333333" />
		<path d="M46.1855 17.9175C45.9129 19.5007 45.5246 21.1141 44.3238 22.2763C43.7557 22.8026 43.1183 23.252 42.4286 23.6124C41.706 24.0108 40.9089 24.5049 40.0526 24.4746C39.4766 24.452 39.4792 25.3293 40.0526 25.3494C41.0246 25.3847 41.9118 24.8931 42.7372 24.4444C43.5112 24.0446 44.2301 23.5499 44.8766 22.9721C46.2369 21.6814 46.7358 19.9167 47.034 18.152C47.124 17.5973 46.2652 17.3604 46.1855 17.9175Z" fill="#333333" />
		<path d="M45.0082 17.3413C44.463 20.2581 42.3004 22.9001 39.2713 23.5631C38.721 23.6841 38.9473 24.5287 39.5104 24.4077C42.8122 23.6816 45.2859 20.7673 45.8722 17.5682C45.975 17.0287 45.1136 16.7816 45.0082 17.3388V17.3413Z" fill="#333333" />
		<path d="M42.5572 10.6327C40.3972 10.3806 38.3529 11.6966 37.0107 13.247C36.319 14.0586 35.7269 14.947 35.2467 15.894C34.7324 16.9024 34.2181 17.9991 34.2181 19.1713C34.2134 19.2316 34.2215 19.2921 34.2418 19.3491C34.2621 19.4062 34.2942 19.4585 34.3361 19.5028C34.378 19.5471 34.4287 19.5824 34.4852 19.6066C34.5417 19.6307 34.6026 19.6432 34.6642 19.6432C34.7258 19.6432 34.7868 19.6307 34.8433 19.6066C34.8997 19.5824 34.9505 19.5471 34.9924 19.5028C35.0343 19.4585 35.0664 19.4062 35.0867 19.3491C35.107 19.2921 35.115 19.2316 35.1104 19.1713C35.1104 18.1629 35.5938 17.1848 36.0541 16.2999C36.4888 15.436 37.0247 14.6246 37.6509 13.8823C38.8595 12.4882 40.6158 11.3008 42.5675 11.5251C42.6862 11.5251 42.8 11.4789 42.8839 11.3967C42.9678 11.3144 43.0149 11.2028 43.0149 11.0865C43.011 10.9709 42.9623 10.8612 42.8787 10.7796C42.7951 10.6981 42.6828 10.651 42.5649 10.6478L42.5572 10.6327Z" fill="#333333" />
		<path d="M44.8766 10.5004C44.5456 10.4905 44.22 10.5841 43.9468 10.7676C43.6736 10.9511 43.467 11.2151 43.3569 11.5214C43.8298 11.9648 44.4105 12.2825 45.0438 12.444C45.4654 12.5116 45.8767 12.631 46.2678 12.7995C46.4658 12.9042 46.6254 13.0669 46.7245 13.2648C46.8237 13.4628 46.8572 13.6861 46.8206 13.9037C46.6792 14.5793 45.8384 15.0054 45.7921 15.6835C45.7458 16.3138 46.4118 16.6188 46.9878 16.6692C47.7596 16.7088 48.5316 16.5953 49.2576 16.3354C49.9835 16.0755 50.6485 15.6745 51.2126 15.1566C52.4424 14.0418 53.2395 12.5431 53.4678 10.9163C52.6547 11.7035 51.6174 12.2309 50.4926 12.4289C48.4689 12.7466 46.5944 11.7583 45.1724 10.4121L44.8766 10.5004Z" fill="#ED2024" />
		<path d="M44.8743 9.83242C43.8663 9.76183 43.0743 10.4929 42.7015 11.345C42.6689 11.4611 42.6692 11.5836 42.7022 11.6995C42.7353 11.8155 42.7999 11.9204 42.8892 12.003C43.4234 12.4995 44.0677 12.8679 44.7715 13.0795C45.1315 13.1854 46.0572 13.1929 46.1678 13.6644C46.2475 14.0122 45.6689 14.4761 45.4761 14.7459C45.2808 14.995 45.1635 15.2944 45.1384 15.6077C45.1133 15.9209 45.1815 16.2345 45.3346 16.5106C46.0263 17.6097 47.7312 17.4685 48.8189 17.2013C50.1554 16.8557 51.3544 16.123 52.2595 15.0988C53.2758 13.9727 53.9352 12.5807 54.1572 11.0929C54.191 10.9503 54.1787 10.8008 54.1221 10.6653C54.0654 10.5298 53.9672 10.4149 53.8409 10.3366C53.7091 10.2666 53.5581 10.2391 53.4094 10.2581C53.2608 10.2771 53.122 10.3417 53.0129 10.4425C52.5191 10.929 51.9207 11.3012 51.2613 11.5319C50.602 11.7626 49.8985 11.8461 49.2021 11.7761C47.8521 11.6047 46.6589 10.8333 45.6946 9.93074C45.0518 9.33074 44.0798 10.2862 44.7226 10.8887C45.9646 12.0484 47.4818 12.9408 49.2046 13.1274C50.9841 13.319 52.7095 12.5803 53.9901 11.398L52.8381 10.7425C52.5218 12.9938 51.0123 15.1391 48.7238 15.8173C48.2051 15.9755 47.6613 16.0396 47.1192 16.0064C46.9662 15.996 46.8159 15.9611 46.6743 15.903C46.5226 15.8324 46.4892 15.7971 46.5123 15.6887C46.5715 15.419 47.0472 15.003 47.2401 14.7181C47.4218 14.4627 47.5297 14.1638 47.5524 13.8531C47.575 13.5425 47.5115 13.2316 47.3686 12.9534C47.0241 12.3005 46.3401 12.0333 45.6561 11.877C44.9937 11.7621 44.3763 11.4708 43.8715 11.0349L44.0489 11.6904C44.1182 11.5286 44.2365 11.3916 44.3878 11.2978C44.5391 11.204 44.7161 11.158 44.8949 11.166C44.9888 11.1717 45.0828 11.1584 45.1713 11.1271C45.2597 11.0957 45.3407 11.0469 45.4092 10.9838C45.4777 10.9206 45.5323 10.8444 45.5696 10.7597C45.6069 10.6751 45.6261 10.5839 45.6261 10.4917C45.6261 10.3995 45.6069 10.3082 45.5696 10.2236C45.5323 10.139 45.4777 10.0627 45.4092 9.99955C45.3407 9.93638 45.2597 9.88762 45.1713 9.85627C45.0828 9.82493 44.9888 9.81167 44.8949 9.8173L44.8743 9.83242Z" fill="#ED2024" />
		<path d="M27.7488 24.8083C28.2271 27.062 29.0705 29.4141 30.7908 31.0452C32.5111 32.6763 35.0285 33.3141 37.2605 32.4494C37.4465 32.3911 37.603 32.2658 37.6984 32.0987C37.7939 31.9317 37.8212 31.7354 37.7748 31.5494C37.7185 31.3644 37.5909 31.2082 37.4189 31.114C37.247 31.0198 37.0444 30.9952 36.8542 31.0452C35.0285 31.7562 33.0433 31.2293 31.6856 29.8654C30.2379 28.4108 29.5771 26.3587 29.1631 24.42C29.1413 24.323 29.0996 24.2312 29.0405 24.1505C28.9814 24.0698 28.9061 24.0017 28.8193 23.9504C28.7324 23.8992 28.6358 23.8658 28.5354 23.8524C28.4349 23.839 28.3328 23.8458 28.2351 23.8724C28.1374 23.899 28.0463 23.9448 27.9673 24.0071C27.8883 24.0694 27.8231 24.1468 27.7757 24.2346C27.7282 24.3225 27.6996 24.4189 27.6914 24.5179C27.6832 24.617 27.6957 24.7166 27.7282 24.8108L27.7488 24.8083Z" fill="#985925" />
		<path d="M30.6158 20.8814C31.1044 23.1755 31.9684 25.4847 33.7015 27.1536C35.337 28.7192 37.7798 30.252 40.1301 29.3444C40.3155 29.2861 40.4716 29.1611 40.567 28.9947C40.6624 28.8282 40.69 28.6325 40.6444 28.4469C40.5905 28.261 40.4636 28.1035 40.2915 28.009C40.1195 27.9145 39.9163 27.8907 39.7264 27.9427C37.7978 28.6763 35.8692 27.2545 34.5835 25.9763C33.1101 24.5091 32.4415 22.4696 32.0121 20.4906C31.9521 20.312 31.8241 20.1628 31.6548 20.0743C31.4854 19.9858 31.2878 19.9646 31.103 20.0153C30.9182 20.0659 30.7605 20.1845 30.6625 20.3463C30.5646 20.508 30.5341 20.7006 30.5772 20.8839L30.6158 20.8814Z" fill="#985925" />
		<path d="M29.6849 34.4102C22.6855 41.2639 15.8429 48.3026 9.15723 55.5261C17.3112 49.2916 23.9404 40.6875 32.4647 35.106L30.1504 34.4707L29.6849 34.4102Z" fill="#C02026" />
		<path d="M29.1627 33.8957C23.6993 39.2469 18.3404 44.6999 13.0861 50.2545C11.5947 51.8326 10.1127 53.4183 8.64014 55.0116C8.56469 55.078 8.50385 55.1588 8.46133 55.249C8.41881 55.3392 8.3955 55.437 8.39284 55.5364C8.39017 55.6358 8.4082 55.7346 8.44582 55.8269C8.48344 55.9192 8.53986 56.003 8.61164 56.0732C8.68341 56.1434 8.76905 56.1985 8.86329 56.2352C8.95752 56.2719 9.0584 56.2893 9.15974 56.2864C9.26109 56.2836 9.36077 56.2605 9.4527 56.2186C9.54464 56.1767 9.62689 56.1168 9.69443 56.0427C12.8881 53.6074 15.8119 50.8293 18.6944 48.036C21.577 45.2427 24.4647 42.3662 27.5504 39.7469C29.2304 38.3057 31.0004 36.9687 32.8501 35.7436C32.9767 35.6692 33.0782 35.5601 33.1423 35.4299C33.2064 35.2996 33.2302 35.1538 33.2108 35.0104C33.1914 34.867 33.1296 34.7323 33.0331 34.623C32.9366 34.5136 32.8095 34.4343 32.6676 34.3948L30.3533 33.7621C29.425 33.4923 29.0341 34.9167 29.9573 35.1688L32.2716 35.8041L32.089 34.4705C28.6973 36.6965 25.6296 39.3436 22.6879 42.1167C19.7461 44.8898 16.8713 47.8167 13.8601 50.5746C12.181 52.1175 10.4504 53.5998 8.63756 54.9965L9.69186 56.0301C14.8861 50.4234 20.1867 44.9108 25.5936 39.4923C27.1261 37.9595 28.669 36.436 30.2221 34.9217C30.901 34.2562 29.8467 33.2276 29.1679 33.8931L29.1627 33.8957Z" fill="#C02026" />
		<path d="M14.0582 52.8027C13.3768 53.438 12.6979 54.0809 12.0191 54.7212H12.0062C10.6588 56.0145 8.68134 58.2632 6.99962 56.8893C5.34362 55.5733 7.38791 53.0044 8.28534 51.6204C8.93505 50.617 9.58905 49.6162 10.2473 48.6179C10.4325 48.3431 10.6151 48.0683 10.7976 47.7935C14.2091 42.6843 17.7653 37.6927 21.4665 32.8187L21.4999 32.7734L21.7571 32.4305L21.8265 32.3372L22.1556 31.9087L22.2585 31.775C22.2688 31.7574 22.2842 31.7398 22.2971 31.7221L22.8422 31.0087L23.3282 30.3759C23.3353 30.3631 23.3439 30.3513 23.3539 30.3406C23.3593 30.3318 23.3653 30.3234 23.3719 30.3154L23.6085 30.0103L23.6702 29.9297C23.7191 29.8717 23.7653 29.8087 23.8142 29.7482L23.8913 29.6549L24.0919 29.4028L24.2231 29.2339C24.2591 29.1885 24.2925 29.1431 24.3285 29.1028C24.3928 29.0221 24.4622 28.9364 24.5316 28.8507C24.673 28.6868 24.7965 28.5179 24.9302 28.3465C24.9237 28.1407 24.9366 27.9348 24.9688 27.7314C25.0145 27.4211 25.1054 27.1188 25.2388 26.8339C25.271 26.7594 25.3079 26.687 25.3493 26.6171C25.3978 26.5249 25.4519 26.4356 25.5113 26.3498C25.5756 26.2566 25.6399 26.1608 25.7068 26.0675C25.8148 25.9087 25.9253 25.7524 26.0385 25.5961L26.347 25.1801C26.8202 24.5498 27.3139 23.9389 27.8282 23.3473C27.8371 23.3329 27.8474 23.3194 27.8591 23.307L27.9131 23.2414C27.9339 23.2134 27.9562 23.1865 27.9799 23.1608L28.2371 22.8356C28.2782 22.7835 28.3219 22.7305 28.3682 22.6767L28.5071 22.5053L28.8773 22.0591L28.9031 22.0288C30.2351 20.4238 31.5962 18.8499 32.9865 17.307C32.7512 15.3061 33.193 13.2848 34.2439 11.5541C36.3653 8.065 40.5748 6.53474 43.7582 8.06499C45.5145 8.90701 46.8542 10.586 48.7828 11.0902C49.1654 11.2067 49.5685 11.2445 49.9668 11.2011C50.365 11.1578 50.7498 11.0342 51.0971 10.8381C51.7091 10.4776 52.3005 9.83222 52.3519 9.09104C52.4033 8.44566 53.1131 7.94651 53.5785 8.39021C54.6816 9.45912 54.8925 11.3196 54.3216 12.9406C53.7225 14.6373 52.3982 15.9961 50.9376 16.9062C50.5545 17.1431 50.1688 17.3423 49.7831 17.5541C49.4768 17.7042 49.2121 17.9247 49.0116 18.1969C48.5591 18.8826 48.5591 19.8356 48.4151 20.5919C47.8931 23.2767 45.7768 25.6011 43.3571 26.3574C41.9205 27.9456 40.4488 29.4902 38.9419 30.991C38.2425 31.6633 37.5379 32.3355 36.8282 33.0078C36.2077 33.6452 35.5178 34.2142 34.7711 34.7044C34.6862 34.7523 34.6013 34.7902 34.5139 34.8355C34.4602 34.9995 34.3582 35.1443 34.2208 35.2515C32.4945 36.6498 30.7742 38.0658 29.0599 39.4994L28.7848 39.7288L28.6099 39.8775L28.1213 40.2885L28.0468 40.3515L27.9568 40.4296C27.9467 40.4364 27.9373 40.444 27.9285 40.4523L27.4579 40.8507C27.4149 40.8905 27.3719 40.9259 27.3269 40.9631L27.3165 40.9717L27.2651 41.017C27.0671 41.1834 26.8691 41.3498 26.6736 41.5212L25.6759 42.3733L25.4831 42.5397L25.2979 42.7011L24.9328 43.0162L24.8993 43.049C24.853 43.0868 24.8068 43.1246 24.7631 43.1649L24.6988 43.2204L24.3439 43.5255L24.3131 43.5532L23.9968 43.833L23.9376 43.8834C23.3959 44.3523 22.8551 44.8254 22.3151 45.3028C19.7693 47.5465 17.2519 49.8271 14.7628 52.1448L14.7438 52.1623C14.5137 52.3757 14.2859 52.5868 14.0582 52.8027Z" fill="black" />
		<path d="M21.7778 29.4073C23.4047 36.6931 25.0795 43.9636 26.8024 51.2191L27.183 52.8224C27.2233 53.1232 27.355 53.4052 27.561 53.6317C27.6303 53.6867 27.7122 53.7243 27.7997 53.7413C27.8872 53.7584 27.9776 53.7543 28.0631 53.7295C28.1486 53.7047 28.2267 53.6599 28.2906 53.5989C28.3546 53.538 28.4024 53.4627 28.4301 53.3796C28.5582 52.9953 28.5926 52.5868 28.5304 52.1871C27.9801 44.4258 27.729 36.7082 27.777 29.0342C26.0901 30.1384 23.8118 30.1233 21.8241 28.9863L21.7778 29.4073Z" fill="#494EA1" />
		<path d="M21.1143 29.5886C22.6263 36.3398 24.1777 43.0869 25.7686 49.8297L26.36 52.3306C26.5298 53.044 26.6378 53.9516 27.3732 54.3171C28.1086 54.6827 28.9649 54.118 29.1732 53.3692C29.3815 52.6205 29.1963 51.7507 29.1449 50.9768C28.9152 47.5348 28.7437 44.0894 28.6306 40.6407C28.5072 36.7751 28.4592 32.9054 28.4866 29.0314C28.4859 28.9421 28.4673 28.8537 28.4318 28.7714C28.3963 28.689 28.3446 28.6144 28.2796 28.5516C28.2147 28.4889 28.1378 28.4393 28.0533 28.4057C27.9688 28.3721 27.8784 28.3551 27.7872 28.3558C27.6669 28.3551 27.5487 28.3865 27.4452 28.4466C25.82 29.4802 23.8246 29.3113 22.1866 28.3987C21.4152 27.9676 20.7235 29.1348 21.4923 29.5659C23.5366 30.7054 26.1209 30.9071 28.1395 29.6113L27.1109 29.0314C27.0646 35.5407 27.236 42.0466 27.6252 48.5491C27.674 49.3558 27.7255 50.1675 27.7795 50.9793C27.8052 51.3625 27.8309 51.7356 27.8592 52.1239C27.8592 52.2978 27.8849 52.4718 27.8849 52.6457C27.8849 52.7062 27.8077 53.0793 27.8257 53.1121C27.8257 53.097 27.8258 53.1348 27.8052 53.1272C27.7383 53.0541 27.9492 53.097 27.9569 53.097C28.0623 53.097 28.016 53.1978 28.0238 53.097C28.0238 53.097 27.9286 52.8852 27.9492 52.9356C27.8417 52.5949 27.7559 52.248 27.692 51.897C27.5095 51.128 27.3295 50.3591 27.1366 49.5877C26.3823 46.3944 25.6418 43.2012 24.9149 40.0079C24.0886 36.4214 23.2709 32.8298 22.4617 29.2331C22.2535 28.3785 20.9266 28.739 21.1143 29.5886Z" fill="#494EA1" />
		<path d="M21.6236 29.3414C21.7071 29.4763 21.8328 29.5811 21.982 29.6402C22.1313 29.6993 22.296 29.7094 22.4516 29.6691C22.7267 29.6187 23.043 29.5179 23.3233 29.6918C23.7142 29.9263 23.8376 30.5011 23.8787 30.9952C24.5405 36.4792 25.2005 41.9674 25.8587 47.4599L26.0413 48.9725C25.6658 48.3539 25.3957 47.6796 25.2416 46.9758C23.6405 41.0935 22.3085 35.1784 21.2456 29.2305L21.6236 29.3414Z" fill="#2C3059" />
		<path d="M21.2659 29.5396C21.5667 30.0236 22.0784 30.1371 22.6159 30.0438C22.909 29.9934 23.1301 29.9505 23.2818 30.2379C23.3905 30.477 23.4549 30.733 23.4721 30.9942C23.6701 32.4413 23.8218 33.8934 23.9864 35.3429L25.0433 44.116L25.627 48.974L26.3984 48.7698C25.7298 47.7614 25.5267 46.4656 25.2207 45.3261C24.8778 44.0152 24.5427 42.7034 24.2153 41.3908C23.5827 38.7892 23.0007 36.1841 22.4693 33.5757C22.1761 32.1085 21.8984 30.6362 21.6361 29.1589C21.5461 28.6547 20.7464 28.8614 20.839 29.3732C21.7938 34.6774 22.957 39.9421 24.3284 45.1673C24.5238 45.9009 24.7167 46.6396 24.925 47.3732C25.0857 48.0142 25.3458 48.6273 25.6964 49.1908C25.8996 49.4959 26.5244 49.4127 26.4678 48.9841C25.7496 43.0513 25.0364 37.106 24.3284 31.148C24.259 30.5631 24.1818 29.8875 23.701 29.474C23.5759 29.3715 23.4302 29.2961 23.2733 29.2526C23.1164 29.2092 22.952 29.1987 22.7907 29.2219C22.5336 29.2497 22.1581 29.4211 21.991 29.1539C21.7158 28.7077 21.0036 29.1161 21.2787 29.5623L21.2659 29.5396Z" fill="#494EA1" />
		<path d="M19.3374 19.4252L20.6102 26.484C20.7234 27.1167 20.8674 27.7898 21.248 28.294C21.5869 28.697 22.0452 28.9869 22.5594 29.1235C23.2962 29.3774 24.0798 29.4745 24.8579 29.4085C25.6361 29.3424 26.3909 29.1146 27.0722 28.7403C27.4828 28.5307 27.8263 28.214 28.0648 27.8251C28.3914 27.2604 28.4428 26.5041 28.4583 25.7756C28.5054 23.3851 28.2786 20.997 27.782 18.6562C25.2251 19.7835 22.3558 20.0348 19.6357 19.3697L19.3374 19.4252Z" fill="#C7872A" />
		<path d="M18.7974 19.5722L19.826 25.3176C19.9777 26.1621 20.0548 27.0823 20.3814 27.8814C20.5361 28.2614 20.7705 28.6053 21.0695 28.8906C21.3686 29.176 21.7255 29.3964 22.1171 29.5377C22.9241 29.8525 23.79 29.9955 24.6576 29.9572C25.5252 29.919 26.3745 29.7004 27.1494 29.3159C27.9022 28.9712 28.4855 28.3486 28.772 27.584C29.0471 26.7747 29.0291 25.8445 29.0291 24.9974C29.0133 22.8111 28.7773 20.6316 28.3245 18.4907C28.2811 18.3487 28.182 18.2294 28.0489 18.159C27.9159 18.0886 27.7598 18.0728 27.6148 18.1151C27.574 18.1273 27.5343 18.1434 27.4965 18.163C25.0696 19.2106 22.3573 19.442 19.7823 18.8209C19.0777 18.6621 18.7794 19.726 19.4865 19.8873C22.3543 20.5675 25.3711 20.2962 28.0648 19.1159L27.2368 18.7882C27.5914 20.4785 27.8056 22.1942 27.8771 23.9184C27.9221 24.7271 27.9221 25.5375 27.8771 26.3462C27.8283 27.0369 27.6611 27.6798 27.0568 28.0932C25.8328 28.9352 24.2283 29.0361 22.8294 28.6125C22.1531 28.4058 21.6363 28.0554 21.4023 27.3747C21.189 26.6205 21.0317 25.8521 20.9317 25.0756L19.8723 19.2773C19.856 19.2037 19.8245 19.1342 19.7798 19.073C19.7351 19.0118 19.6782 18.9602 19.6124 18.9214C19.5466 18.8825 19.4734 18.8573 19.3973 18.8472C19.3213 18.8372 19.2439 18.8424 19.1699 18.8628C19.096 18.8831 19.0271 18.918 18.9675 18.9654C18.9078 19.0127 18.8587 19.0716 18.823 19.1383C18.7874 19.2049 18.7661 19.2781 18.7604 19.3531C18.7546 19.4282 18.7646 19.5036 18.7897 19.5747L18.7974 19.5722Z" fill="#C7872A" />
		<path d="M20.0367 24.6456C20.9586 25.6011 22.1298 26.2908 23.4233 26.6397C24.4159 26.8918 26.1285 27.0859 26.743 26.0548C26.7865 25.9787 26.7977 25.8889 26.7742 25.8048C26.7508 25.7206 26.6946 25.6489 26.6178 25.6049C26.541 25.561 26.4496 25.5484 26.3634 25.5698C26.2771 25.5912 26.2029 25.645 26.1567 25.7195C25.8996 26.1456 25.2799 26.1556 24.835 26.1582C24.3257 26.1561 23.8196 26.0796 23.3333 25.9313C22.2555 25.5827 21.2833 24.9762 20.5047 24.1666C20.2142 23.8741 19.7333 24.343 20.0367 24.6456Z" fill="#FFE5BB" />
		<path d="M19.5199 21.2265C20.3394 21.9631 21.3471 22.4684 22.4359 22.6887C23.6486 22.8888 24.8919 22.8164 26.0719 22.4769C26.1582 22.4535 26.2314 22.3975 26.2756 22.3211C26.3197 22.2448 26.3311 22.1544 26.3072 22.0698C26.2833 21.9852 26.2262 21.9134 26.1483 21.8702C26.0704 21.8269 25.9782 21.8157 25.8919 21.8391C24.8291 22.1499 23.7083 22.2215 22.6133 22.0484C21.6374 21.8593 20.7324 21.4131 19.9956 20.7576C19.6742 20.4854 19.1856 20.9391 19.5199 21.2265Z" fill="#FFE5BB" />
		<path d="M27.7976 18.457L26.2547 19.4856C26.1321 19.5534 26.0307 19.6528 25.9616 19.773C25.9066 19.9257 25.8856 20.0881 25.8998 20.2495C25.8998 22.873 25.9856 25.5058 26.157 28.1478C26.1523 28.3738 26.2054 28.5974 26.3113 28.7982C26.3772 28.9024 26.4743 28.9842 26.5893 29.0324C26.7043 29.0807 26.8317 29.0931 26.9541 29.0679C27.178 28.9994 27.3712 28.858 27.5019 28.6671C28.101 27.9108 28.3633 26.8242 28.4121 25.71C28.4256 24.5729 28.3396 23.4368 28.155 22.3142L27.6793 18.7848L27.7976 18.457Z" fill="#FFE5BB" />
		<path d="M27.6276 18.1713L26.527 18.9075C26.2338 19.1016 25.843 19.2882 25.6733 19.6083C25.5627 19.8995 25.5222 20.2118 25.555 20.5209V21.8545C25.5859 23.5974 25.6476 25.3377 25.7401 27.0755C25.7607 27.489 25.771 27.9075 25.8147 28.3184C25.8165 28.4863 25.8532 28.652 25.9226 28.8054C25.992 28.9589 26.0927 29.0968 26.2184 29.2108C26.7687 29.652 27.391 29.3243 27.7613 28.8453C28.6844 27.6503 28.7898 25.9991 28.6998 24.5596C28.5841 22.631 28.237 20.705 27.9799 18.789C27.9259 18.3755 27.247 18.3705 27.3061 18.789C27.499 20.231 27.7021 21.673 27.8847 23.1075C28.0519 24.4587 28.1881 25.8604 27.8179 27.1865C27.741 27.4761 27.6323 27.7567 27.4938 28.0234C27.3807 28.3007 27.1899 28.541 26.9436 28.7167C26.347 28.989 26.4293 27.368 26.4293 27.0654C26.3521 25.5932 26.2973 24.1201 26.2647 22.6461C26.2467 21.8369 26.2236 21.0453 26.2287 20.2436C26.2135 20.1537 26.2234 20.0615 26.2574 19.9767C26.2913 19.892 26.3481 19.8178 26.4216 19.7621C26.5707 19.6411 26.7533 19.5402 26.9153 19.4318L27.9593 18.736C28.3193 18.4991 27.9773 17.9268 27.6173 18.1638L27.6276 18.1713Z" fill="#FFE5BB" />
		<path d="M19.2655 8.89062C17.6815 9.30407 16.5423 10.9654 16.4883 12.9444C16.4343 14.9234 17.4758 17.099 19.0212 18.2385C21.0783 19.7713 23.5058 19.3603 25.6169 18.7906C26.2212 18.6267 26.8435 18.4452 27.2909 17.9763C28.0135 17.22 28.1318 15.8435 27.7872 14.6133C27.4043 13.4016 26.7617 12.2842 25.9023 11.336C25.4729 11.7797 25.0203 12.2435 24.4366 12.3444C24.0965 12.3806 23.7541 12.2998 23.4679 12.1159C23.1818 11.932 22.9698 11.6563 22.868 11.336C22.7266 10.8772 22.7086 10.2116 22.3152 10.1158C22.2206 10.1025 22.1241 10.1165 22.0375 10.1562C21.5103 10.3553 21.0346 10.7436 20.4535 10.741C19.8723 10.7385 19.142 10.078 19.2655 9.42508V8.89062Z" fill="#4F4037" />
		<path d="M19.1161 8.35914C17.3161 8.86335 16.2283 10.5398 15.9866 12.2692C15.8763 13.2534 15.9729 14.2493 16.2705 15.1954C16.5682 16.1416 17.0605 17.0178 17.7172 17.7701C19.0672 19.3533 21.1012 20.0062 23.1609 19.8196C24.1589 19.7238 25.1444 19.5295 26.1026 19.2398C27.1312 18.9373 27.9155 18.3953 28.3012 17.3995C29.1883 15.1306 27.7406 12.665 26.3109 10.9608C26.2051 10.8584 26.0623 10.801 25.9136 10.801C25.7649 10.801 25.6222 10.8584 25.5163 10.9608C25.1152 11.3743 24.5572 12.0146 23.9143 11.7171C23.2715 11.4196 23.3795 10.681 23.1275 10.144C23.0595 9.98071 22.947 9.83884 22.8023 9.73393C22.6577 9.62901 22.4864 9.56507 22.3072 9.54907C21.8958 9.52134 21.5178 9.76083 21.1655 9.9373C20.8903 10.0684 20.5663 10.2575 20.2655 10.1314C20.0803 10.0507 19.7718 9.78605 19.8001 9.55411C19.8348 9.41322 19.8134 9.26466 19.7403 9.13866C19.6672 9.01267 19.5479 8.91873 19.4066 8.87596C19.2625 8.83945 19.1094 8.8596 18.9802 8.93213C18.851 9.00465 18.7558 9.12382 18.7149 9.26419C18.6862 9.49859 18.7048 9.73625 18.7698 9.96358C18.8348 10.1909 18.9448 10.4035 19.0935 10.5891C19.2423 10.7747 19.4269 10.9298 19.6368 11.0455C19.8467 11.1612 20.0778 11.2352 20.3169 11.2633H20.3709C20.857 11.261 21.3333 11.1294 21.7492 10.8827C21.8752 10.8171 22.0064 10.7465 22.1324 10.6886L22.1941 10.6608C22.3483 10.628 22.3149 10.6028 22.0912 10.5726C22.0912 10.5726 22.2044 10.923 22.2146 10.9583C22.2763 11.3769 22.4385 11.7753 22.6878 12.1205C22.9594 12.4584 23.3329 12.7036 23.7549 12.8213C24.7964 13.1112 25.6398 12.4129 26.3264 11.7373H25.5163C26.6195 13.0281 27.6661 14.7322 27.3858 16.4894C27.3469 16.8442 27.2051 17.1808 26.9773 17.4591C26.7494 17.7374 26.445 17.9459 26.1001 18.06C25.2865 18.3403 24.4467 18.5413 23.5929 18.66C21.9421 18.8995 20.2141 18.6348 18.9643 17.46C17.7771 16.3201 17.0914 14.7703 17.0538 13.1415C17.0538 11.6112 17.7995 9.86419 19.4195 9.41797C20.1163 9.22637 19.8181 8.15747 19.1186 8.35411L19.1161 8.35914Z" fill="#4F4037" />
		<path d="M19.2962 9.56319C18.0748 10.0447 17.4139 11.58 17.4268 13.1934C17.4396 14.8069 18.0259 16.4329 18.7717 17.9329C18.1237 17.885 17.5785 17.1514 17.2288 16.4455C16.4574 14.8976 16.0742 13.0724 16.4188 11.5271C16.7634 9.98167 17.8999 8.80185 19.3065 8.82454L19.2962 9.56319Z" fill="#333333" />
		<path d="M19.1857 9.23425C17.7714 9.82164 17.1748 11.3418 17.0822 12.7485C16.9562 14.5989 17.6402 16.4393 18.4708 18.0804L18.7614 17.5762C18.3191 17.5258 17.9899 17.072 17.7739 16.7292C17.5247 16.3305 17.317 15.9082 17.1542 15.4687C16.7917 14.556 16.6085 13.5843 16.6142 12.6048C16.6502 11.0796 17.4834 9.15105 19.3014 9.14097C19.3906 9.13266 19.4728 9.09009 19.5302 9.02255C19.5875 8.95502 19.6152 8.86799 19.6074 8.78047C19.6003 8.7028 19.5655 8.63007 19.509 8.57516C19.4526 8.52025 19.3781 8.48671 19.2988 8.48047C17.0977 8.48047 15.9817 10.709 15.9405 12.6074C15.9352 13.7971 16.1849 14.9746 16.6734 16.0636C17.0668 16.9712 17.6531 18.1183 18.7665 18.2494C19.0417 18.2847 19.1548 17.9494 19.0417 17.7452C18.3525 16.3158 17.7559 14.6947 17.7714 13.0763C17.7714 11.9141 18.1879 10.3737 19.3965 9.87205C19.7899 9.71071 19.6151 9.06282 19.2165 9.23677L19.1857 9.23425Z" fill="#333333" />
		<path d="M20.3865 10.5085C19.7777 11.9567 19.6403 13.554 19.9931 15.0816C20.3406 16.6911 21.1363 18.1746 22.2919 19.3674C21.2814 17.8858 20.7491 16.1403 20.7645 14.3581C20.7624 12.7413 21.2541 11.1608 22.1762 9.82031L20.3865 10.5085Z" fill="#333333" />
		<path d="M25.1205 12.1014C25.861 13.0946 26.5733 14.1761 26.6633 15.4366C26.6996 16.0871 26.6451 16.7393 26.5013 17.3753C26.3856 17.9476 26.293 18.6358 25.8765 19.077C25.5833 19.3896 26.0616 19.8585 26.3548 19.5459C26.8073 19.0619 26.9642 18.4215 27.1005 17.7938C27.2862 17.0645 27.3727 16.3142 27.3576 15.5627C27.283 14.1232 26.5502 12.9005 25.6965 11.761C25.4393 11.4232 24.871 11.761 25.1153 12.0988L25.1205 12.1014Z" fill="#333333" />
		<path d="M24.2463 12.4259C25.5834 14.2889 26.1183 16.9057 25.0023 19.0006C24.8043 19.3763 25.3854 19.7116 25.586 19.3334C26.7997 17.0368 26.2983 14.1528 24.8146 12.0906C24.5574 11.7452 23.9866 12.0906 24.2334 12.4259H24.2463Z" fill="#333333" />
		<path d="M19.3374 10.084C18.1314 11.1579 17.9205 12.9453 18.1057 14.4377C18.2306 15.3421 18.4636 16.2288 18.7999 17.0798C19.1137 17.889 19.4557 18.6982 20.0857 19.3209C20.3891 19.626 20.8571 19.1571 20.5614 18.852C20.0085 18.3151 19.7051 17.5537 19.4325 16.8352C19.1257 16.0603 18.9109 15.2533 18.7922 14.4302C18.6122 13.1066 18.7434 11.4957 19.8208 10.5377C20.1422 10.2529 19.6665 9.78145 19.3451 10.0714L19.3374 10.084Z" fill="#333333" />
		<path d="M20.3633 8.722C20.0393 9.01948 19.9724 9.62453 20.2116 10.101C20.684 10.0862 21.1431 9.944 21.5385 9.69007C21.7755 9.49627 22.0396 9.33667 22.3227 9.21613C22.4842 9.16716 22.6574 9.17011 22.817 9.22454C22.9766 9.27897 23.1143 9.38203 23.2099 9.51865C23.521 9.96991 23.359 10.6632 23.7242 11.0665C24.0893 11.4699 24.5522 11.2455 24.8479 10.9581C25.6193 10.2321 26.0436 9.06487 26.0205 7.81445C25.9836 6.52115 25.5339 5.27176 24.7347 4.24219C24.7884 5.09864 24.5865 5.95188 24.1536 6.69764C23.3616 7.97831 21.9113 8.46234 20.4765 8.49007L20.3633 8.722Z" fill="#35AFE5" />
		<path d="M19.9572 8.33203C19.4069 8.89674 19.4069 9.71103 19.7207 10.3892C19.7697 10.4725 19.8407 10.5412 19.9262 10.5883C20.0117 10.6353 20.1086 10.6588 20.2066 10.6564C20.7584 10.6388 21.296 10.4816 21.7675 10.2001C21.9758 10.0741 22.4515 9.56229 22.7189 9.80683C22.8372 9.91775 22.8501 10.1749 22.8732 10.3262C22.8985 10.5397 22.9432 10.7507 23.0069 10.9564C23.0794 11.194 23.2236 11.4045 23.4205 11.5602C23.6175 11.7159 23.8579 11.8095 24.1101 11.8287C25.0667 11.869 25.7609 10.8631 26.1004 10.1093C26.5087 9.1865 26.651 8.17153 26.5118 7.1749C26.3646 6.01224 25.9079 4.90803 25.1875 3.97322C25.1217 3.87149 25.0251 3.79247 24.9112 3.74726C24.7973 3.70206 24.6718 3.69292 24.5524 3.72112C24.4335 3.75569 24.3291 3.82678 24.2546 3.92391C24.1801 4.02104 24.1393 4.13908 24.1384 4.26062C24.1769 5.3144 23.8967 6.37322 23.0738 7.0917C22.3641 7.71439 21.3715 7.92868 20.4458 7.95641C19.7232 7.97657 19.7232 9.08077 20.4458 9.05808C21.6852 9.02027 22.9221 8.69505 23.8684 7.87069C24.8969 6.97069 25.3084 5.5791 25.2621 4.2581L24.2258 4.53792C25.4729 6.13624 26.0952 8.85388 24.5395 10.4774C24.4829 10.5379 24.2824 10.7648 24.1744 10.7497C24.0664 10.7346 24.0201 10.3841 23.9995 10.2783C23.9146 9.77406 23.8324 9.28749 23.4004 8.94716C23.1785 8.77871 22.9102 8.67932 22.6302 8.66179C22.3501 8.64427 22.0711 8.70941 21.8292 8.84884C21.5541 8.99505 21.3278 9.20934 21.0578 9.35304C20.8019 9.48347 20.5204 9.55828 20.2324 9.57236L20.7184 9.8396C20.6605 9.72566 20.6359 9.59826 20.6473 9.47147C20.6586 9.34469 20.7055 9.22344 20.7827 9.12111C21.2969 8.61691 20.5049 7.83541 19.9855 8.34213L19.9572 8.33203Z" fill="#35AFE5" />
		<path d="M20.1371 25.9504C21.68 26.9588 23.5854 27.9218 25.5063 27.6949C26.3173 27.6088 27.0859 27.2952 27.7198 26.7917C28.3538 26.2883 28.8262 25.6163 29.0805 24.8563C29.3145 24.1807 28.2243 23.8958 27.9954 24.5639C27.7974 25.1393 27.4274 25.643 26.9335 26.0094C26.4396 26.3759 25.8446 26.5881 25.226 26.6185C23.5751 26.7092 22.0245 25.8622 20.7028 25.005C20.0985 24.6118 19.538 25.5672 20.1371 25.9605V25.9504Z" fill="#985925" />
		<path d="M19.309 22.2175C20.9881 23.3192 22.8679 24.1486 24.9301 23.9595C26.5347 23.8133 28.1547 23.183 28.7153 21.5746C28.9518 20.9015 27.8641 20.6167 27.6301 21.2847C27.2187 22.4646 25.7993 22.8099 24.6704 22.878C22.891 22.9814 21.3276 22.2099 19.8747 21.2671C19.273 20.8713 18.7098 21.8267 19.309 22.22V22.2175Z" fill="#985925" />
		<path d="M26.4961 30.2134C26.9881 37.8201 27.6592 45.4419 28.5095 53.0789C28.9107 45.1831 27.2675 36.8159 28.219 29.084L26.7532 29.9991L26.4961 30.2134Z" fill="#7481BF" />
		<path d="M25.8069 30.2163C26.1857 36.1558 26.676 42.081 27.2777 47.9919C27.4492 49.6894 27.6317 51.386 27.8254 53.0818C27.9206 53.9314 29.1575 53.9616 29.2037 53.0818C29.5175 46.807 28.5892 40.5625 28.6123 34.2928C28.6122 32.5533 28.7126 30.8152 28.9132 29.0869C28.9749 28.5827 28.2806 28.2524 27.8846 28.5045L26.406 29.4196C25.6629 29.886 26.352 31.0407 27.1029 30.5843L28.5686 29.6692L27.54 29.0894C26.7892 35.3012 27.6377 41.5658 27.8537 47.7877C27.9129 49.5524 27.9232 51.3171 27.8357 53.0818H29.2114C28.5532 47.1574 28.0003 41.2263 27.5529 35.2885C27.4243 33.5961 27.306 31.9053 27.198 30.2163C27.126 29.3516 25.7503 29.3465 25.8069 30.2163Z" fill="#7481BF" />
		<path d="M26.8178 29.4732L26.7869 29.4153C26.7715 29.385 26.7587 29.3522 26.7458 29.322L26.7072 29.2287L26.9644 29.0623C26.9309 28.9917 26.9026 28.9212 26.8692 28.848H26.8924L27.0569 28.7623L27.0827 28.7472L27.0518 28.7699C26.9927 28.8077 26.9335 28.8455 26.8718 28.8783L26.8384 28.8985L26.8024 28.9161C26.7456 28.9469 26.6872 28.9746 26.6275 28.9993L26.5555 29.0296L26.4321 29.0749L26.3704 29.0976L26.2804 29.1254L26.1595 29.1581C26.1805 29.1812 26.2028 29.2031 26.2264 29.2237L26.2495 29.2413C26.2481 29.2522 26.2481 29.2632 26.2495 29.2741C26.2481 29.2841 26.2481 29.2943 26.2495 29.3043C26.2483 29.327 26.2483 29.3497 26.2495 29.3724C26.2495 29.3901 26.2649 29.4127 26.2752 29.4329C26.2845 29.4519 26.2948 29.4704 26.3061 29.4884C26.3131 29.5019 26.3217 29.5146 26.3318 29.5262L26.3626 29.5665L26.3806 29.5842L26.4269 29.6296L26.4501 29.6497L26.4732 29.6724L26.5015 29.6346L26.5812 29.6119H26.6121L26.7149 29.5766L26.8152 29.5388C26.8112 29.517 26.812 29.4946 26.8178 29.4732ZM27.1881 19.4649C27.1109 19.4951 27.0312 19.5203 26.9541 19.5481L26.8564 19.5808L26.5684 19.6691L26.5144 19.6867L26.4707 19.717L26.4115 19.7623L26.3858 19.7825L26.3421 19.8279C26.3344 19.8365 26.3275 19.8458 26.3215 19.8556C26.3123 19.8655 26.3046 19.8765 26.2984 19.8884C26.2897 19.9013 26.2819 19.9148 26.2752 19.9287C26.6159 19.7891 26.9459 19.6256 27.2626 19.4397L27.1881 19.4649ZM27.7744 29.68C27.7281 29.6043 27.6818 29.5262 27.6381 29.448L27.4735 29.5514L27.4066 29.5917C27.4081 29.5851 27.4081 29.5782 27.4066 29.5716C27.3784 29.5035 27.3501 29.4329 27.3244 29.3623L27.3038 29.3119L27.1418 29.3901C27.1418 29.3749 27.1418 29.3623 27.1238 29.3497V29.3623L27.0518 29.3875L26.8461 29.4783C26.8508 29.4927 26.8578 29.5063 26.8666 29.5186L26.7664 29.5564L26.6635 29.5917H26.6327L26.5529 29.6144L26.5246 29.6522L26.2932 29.9699C26.3112 30.0077 26.3318 30.043 26.3498 30.0783C26.3493 30.085 26.3493 30.0918 26.3498 30.0985C26.4012 30.1388 26.4578 30.1766 26.5118 30.2144C26.5118 30.2447 26.5118 30.2774 26.5118 30.3077H26.4655L26.4784 30.3304H26.5144L26.6249 30.2976C26.7098 30.2724 26.7921 30.2422 26.8821 30.2119C26.9721 30.1817 26.9978 30.1665 27.0518 30.1413L27.1032 30.1186H27.1289L27.1726 30.101L27.3038 30.0354L27.4375 29.9623L27.5404 29.8993C27.6226 29.8514 27.6998 29.7985 27.7769 29.743L27.8001 29.7253L27.7744 29.68ZM23.7732 30.3934L23.5804 30.3531L23.3798 30.3077C23.3732 30.3157 23.3672 30.3241 23.3618 30.3329L23.5624 30.3783L23.7809 30.4211L23.7732 30.3934ZM26.8178 29.4732L26.7869 29.4153C26.7715 29.385 26.7587 29.3522 26.7458 29.322L26.7072 29.2287L26.9644 29.0623C26.9309 28.9917 26.9026 28.9212 26.8692 28.848H26.8924L27.0569 28.7623L27.0827 28.7472L27.0518 28.7699C26.9927 28.8077 26.9335 28.8455 26.8718 28.8783L26.8384 28.8985L26.8024 28.9161C26.7456 28.9469 26.6872 28.9746 26.6275 28.9993L26.5555 29.0296L26.4321 29.0749L26.3704 29.0976L26.2804 29.1254L26.1595 29.1581C26.1805 29.1812 26.2028 29.2031 26.2264 29.2237L26.2495 29.2413C26.2481 29.2522 26.2481 29.2632 26.2495 29.2741C26.2481 29.2841 26.2481 29.2943 26.2495 29.3043C26.2483 29.327 26.2483 29.3497 26.2495 29.3724C26.2495 29.3901 26.2649 29.4127 26.2752 29.4329C26.2845 29.4519 26.2948 29.4704 26.3061 29.4884C26.3131 29.5019 26.3217 29.5146 26.3318 29.5262L26.3626 29.5665L26.3806 29.5842L26.4269 29.6296L26.4501 29.6497L26.4732 29.6724L26.5015 29.6346L26.5812 29.6119H26.6121L26.7149 29.5766L26.8152 29.5388C26.8112 29.517 26.812 29.4946 26.8178 29.4732ZM27.1881 19.4649C27.1109 19.4951 27.0312 19.5203 26.9541 19.5481L26.8564 19.5808L26.5684 19.6691L26.5144 19.6867L26.4707 19.717L26.4115 19.7623L26.3858 19.7825L26.3421 19.8279C26.3344 19.8365 26.3275 19.8458 26.3215 19.8556C26.3123 19.8655 26.3046 19.8765 26.2984 19.8884C26.2897 19.9013 26.2819 19.9148 26.2752 19.9287C26.6159 19.7891 26.9459 19.6256 27.2626 19.4397L27.1881 19.4649ZM27.7744 29.68C27.7281 29.6043 27.6818 29.5262 27.6381 29.448L27.4735 29.5514L27.4066 29.5917C27.4081 29.5851 27.4081 29.5782 27.4066 29.5716C27.3784 29.5035 27.3501 29.4329 27.3244 29.3623L27.3038 29.3119L27.1418 29.3901C27.1418 29.3749 27.1418 29.3623 27.1238 29.3497V29.3623L27.0518 29.3875L26.8461 29.4783C26.8508 29.4927 26.8578 29.5063 26.8666 29.5186L26.7664 29.5564L26.6635 29.5917H26.6327L26.5529 29.6144L26.5246 29.6522L26.2932 29.9699C26.3112 30.0077 26.3318 30.043 26.3498 30.0783C26.3493 30.085 26.3493 30.0918 26.3498 30.0985C26.4012 30.1388 26.4578 30.1766 26.5118 30.2144C26.5118 30.2447 26.5118 30.2774 26.5118 30.3077H26.4655L26.4784 30.3304H26.5144L26.6249 30.2976C26.7098 30.2724 26.7921 30.2422 26.8821 30.2119C26.9721 30.1817 26.9978 30.1665 27.0518 30.1413L27.1032 30.1186H27.1289L27.1726 30.101L27.3038 30.0354L27.4375 29.9623L27.5404 29.8993C27.6226 29.8514 27.6998 29.7985 27.7769 29.743L27.8001 29.7253L27.7744 29.68ZM23.7732 30.3934L23.5804 30.3531L23.3798 30.3077C23.3732 30.3157 23.3672 30.3241 23.3618 30.3329L23.5624 30.3783L23.7809 30.4211L23.7732 30.3934ZM26.8178 29.4732L26.7869 29.4153C26.7715 29.385 26.7587 29.3522 26.7458 29.322L26.7072 29.2287L26.9644 29.0623C26.9309 28.9917 26.9026 28.9212 26.8692 28.848H26.8924L27.0569 28.7623L27.0827 28.7472L27.0518 28.7699C26.9927 28.8077 26.9335 28.8455 26.8718 28.8783L26.8384 28.8985L26.8024 28.9161C26.7456 28.9469 26.6872 28.9746 26.6275 28.9993L26.5555 29.0296L26.4321 29.0749L26.3704 29.0976L26.2804 29.1254L26.1595 29.1581C26.1805 29.1812 26.2028 29.2031 26.2264 29.2237L26.2495 29.2413C26.2481 29.2522 26.2481 29.2632 26.2495 29.2741C26.2481 29.2841 26.2481 29.2943 26.2495 29.3043C26.2483 29.327 26.2483 29.3497 26.2495 29.3724C26.2495 29.3901 26.2649 29.4127 26.2752 29.4329C26.2845 29.4519 26.2948 29.4704 26.3061 29.4884C26.3131 29.5019 26.3217 29.5146 26.3318 29.5262L26.3626 29.5665L26.3806 29.5842L26.4269 29.6296L26.4501 29.6497L26.4732 29.6724L26.5015 29.6346L26.5812 29.6119H26.6121L26.7149 29.5766L26.8152 29.5388C26.8112 29.517 26.812 29.4946 26.8178 29.4732ZM27.1881 19.4649C27.1109 19.4951 27.0312 19.5203 26.9541 19.5481L26.8564 19.5808L26.5684 19.6691L26.5144 19.6867L26.4707 19.717L26.4115 19.7623L26.3858 19.7825L26.3421 19.8279C26.3344 19.8365 26.3275 19.8458 26.3215 19.8556C26.3123 19.8655 26.3046 19.8765 26.2984 19.8884C26.2897 19.9013 26.2819 19.9148 26.2752 19.9287C26.6159 19.7891 26.9459 19.6256 27.2626 19.4397L27.1881 19.4649ZM27.7744 29.68C27.7281 29.6043 27.6818 29.5262 27.6381 29.448L27.4735 29.5514L27.4066 29.5917C27.4081 29.5851 27.4081 29.5782 27.4066 29.5716C27.3784 29.5035 27.3501 29.4329 27.3244 29.3623L27.3038 29.3119L27.1418 29.3901C27.1418 29.3749 27.1418 29.3623 27.1238 29.3497V29.3623L27.0518 29.3875L26.8461 29.4783C26.8508 29.4927 26.8578 29.5063 26.8666 29.5186L26.7664 29.5564L26.6635 29.5917H26.6327L26.5529 29.6144L26.5246 29.6522L26.2932 29.9699C26.3112 30.0077 26.3318 30.043 26.3498 30.0783C26.3493 30.085 26.3493 30.0918 26.3498 30.0985C26.4012 30.1388 26.4578 30.1766 26.5118 30.2144C26.5118 30.2447 26.5118 30.2774 26.5118 30.3077H26.4655L26.4784 30.3304H26.5144L26.6249 30.2976C26.7098 30.2724 26.7921 30.2422 26.8821 30.2119C26.9721 30.1817 26.9978 30.1665 27.0518 30.1413L27.1032 30.1186H27.1289L27.1726 30.101L27.3038 30.0354L27.4375 29.9623L27.5404 29.8993C27.6226 29.8514 27.6998 29.7985 27.7769 29.743L27.8001 29.7253L27.7744 29.68ZM23.7732 30.3934L23.5804 30.3531L23.3798 30.3077C23.3732 30.3157 23.3672 30.3241 23.3618 30.3329L23.5624 30.3783L23.7809 30.4211L23.7732 30.3934ZM26.8178 29.4732L26.7869 29.4153C26.7715 29.385 26.7587 29.3522 26.7458 29.322L26.7072 29.2287L26.9644 29.0623C26.9309 28.9917 26.9026 28.9212 26.8692 28.848H26.8924L27.0569 28.7623L27.0827 28.7472L27.0518 28.7699C26.9927 28.8077 26.9335 28.8455 26.8718 28.8783L26.8384 28.8985L26.8024 28.9161C26.7456 28.9469 26.6872 28.9746 26.6275 28.9993L26.5555 29.0296L26.4321 29.0749L26.3704 29.0976L26.2804 29.1254L26.1595 29.1581C26.1805 29.1812 26.2028 29.2031 26.2264 29.2237L26.2495 29.2413C26.2481 29.2522 26.2481 29.2632 26.2495 29.2741C26.2481 29.2841 26.2481 29.2943 26.2495 29.3043C26.2483 29.327 26.2483 29.3497 26.2495 29.3724C26.2495 29.3901 26.2649 29.4127 26.2752 29.4329C26.2845 29.4519 26.2948 29.4704 26.3061 29.4884C26.3131 29.5019 26.3217 29.5146 26.3318 29.5262L26.3626 29.5665L26.3806 29.5842L26.4269 29.6296L26.4501 29.6497L26.4732 29.6724L26.5015 29.6346L26.5812 29.6119H26.6121L26.7149 29.5766L26.8152 29.5388C26.8112 29.517 26.812 29.4946 26.8178 29.4732ZM27.1881 19.4649C27.1109 19.4951 27.0312 19.5203 26.9541 19.5481L26.8564 19.5808L26.5684 19.6691L26.5144 19.6867L26.4707 19.717L26.4115 19.7623L26.3858 19.7825L26.3421 19.8279C26.3344 19.8365 26.3275 19.8458 26.3215 19.8556C26.3123 19.8655 26.3046 19.8765 26.2984 19.8884C26.2897 19.9013 26.2819 19.9148 26.2752 19.9287C26.6159 19.7891 26.9459 19.6256 27.2626 19.4397L27.1881 19.4649ZM27.7744 29.68C27.7281 29.6043 27.6818 29.5262 27.6381 29.448L27.4735 29.5514L27.4066 29.5917C27.4081 29.5851 27.4081 29.5782 27.4066 29.5716C27.3784 29.5035 27.3501 29.4329 27.3244 29.3623L27.3038 29.3119L27.1418 29.3901C27.1418 29.3749 27.1418 29.3623 27.1238 29.3497V29.3623L27.0518 29.3875L26.8461 29.4783C26.8508 29.4927 26.8578 29.5063 26.8666 29.5186L26.7664 29.5564L26.6635 29.5917H26.6327L26.5529 29.6144L26.5246 29.6522L26.2932 29.9699C26.3112 30.0077 26.3318 30.043 26.3498 30.0783C26.3493 30.085 26.3493 30.0918 26.3498 30.0985C26.4012 30.1388 26.4578 30.1766 26.5118 30.2144C26.5118 30.2447 26.5118 30.2774 26.5118 30.3077H26.4655L26.4784 30.3304H26.5144L26.6249 30.2976C26.7098 30.2724 26.7921 30.2422 26.8821 30.2119C26.9721 30.1817 26.9978 30.1665 27.0518 30.1413L27.1032 30.1186H27.1289L27.1726 30.101L27.3038 30.0354L27.4375 29.9623L27.5404 29.8993C27.6226 29.8514 27.6998 29.7985 27.7769 29.743L27.8001 29.7253L27.7744 29.68ZM23.7732 30.3934L23.5804 30.3531L23.3798 30.3077C23.3732 30.3157 23.3672 30.3241 23.3618 30.3329L23.5624 30.3783L23.7809 30.4211L23.7732 30.3934ZM26.8178 29.4732L26.7869 29.4153C26.7715 29.385 26.7587 29.3522 26.7458 29.322L26.7072 29.2287L26.9644 29.0623C26.9309 28.9917 26.9026 28.9212 26.8692 28.848H26.8924L27.0569 28.7623L27.0827 28.7472L27.0518 28.7699C26.9927 28.8077 26.9335 28.8455 26.8718 28.8783L26.8384 28.8985L26.8024 28.9161C26.7456 28.9469 26.6872 28.9746 26.6275 28.9993L26.5555 29.0296L26.4321 29.0749L26.3704 29.0976L26.2804 29.1254L26.1595 29.1581C26.1805 29.1812 26.2028 29.2031 26.2264 29.2237L26.2495 29.2413C26.2481 29.2522 26.2481 29.2632 26.2495 29.2741C26.2481 29.2841 26.2481 29.2943 26.2495 29.3043C26.2483 29.327 26.2483 29.3497 26.2495 29.3724C26.2495 29.3901 26.2649 29.4127 26.2752 29.4329C26.2845 29.4519 26.2948 29.4704 26.3061 29.4884C26.3131 29.5019 26.3217 29.5146 26.3318 29.5262L26.3626 29.5665L26.3806 29.5842L26.4269 29.6296L26.4501 29.6497L26.4732 29.6724L26.5015 29.6346L26.5812 29.6119H26.6121L26.7149 29.5766L26.8152 29.5388C26.8112 29.517 26.812 29.4946 26.8178 29.4732ZM27.1881 19.4649C27.1109 19.4951 27.0312 19.5203 26.9541 19.5481L26.8564 19.5808L26.5684 19.6691L26.5144 19.6867L26.4707 19.717L26.4115 19.7623L26.3858 19.7825L26.3421 19.8279C26.3344 19.8365 26.3275 19.8458 26.3215 19.8556C26.3123 19.8655 26.3046 19.8765 26.2984 19.8884C26.2897 19.9013 26.2819 19.9148 26.2752 19.9287C26.6159 19.7891 26.9459 19.6256 27.2626 19.4397L27.1881 19.4649ZM27.7744 29.68C27.7281 29.6043 27.6818 29.5262 27.6381 29.448L27.4735 29.5514L27.4066 29.5917C27.4081 29.5851 27.4081 29.5782 27.4066 29.5716C27.3784 29.5035 27.3501 29.4329 27.3244 29.3623L27.3038 29.3119L27.1418 29.3901C27.1418 29.3749 27.1418 29.3623 27.1238 29.3497V29.3623L27.0518 29.3875L26.8461 29.4783C26.8508 29.4927 26.8578 29.5063 26.8666 29.5186L26.7664 29.5564L26.6635 29.5917H26.6327L26.5529 29.6144L26.5246 29.6522L26.2932 29.9699C26.3112 30.0077 26.3318 30.043 26.3498 30.0783C26.3493 30.085 26.3493 30.0918 26.3498 30.0985C26.4012 30.1388 26.4578 30.1766 26.5118 30.2144C26.5118 30.2447 26.5118 30.2774 26.5118 30.3077H26.4655L26.4784 30.3304H26.5144L26.6249 30.2976C26.7098 30.2724 26.7921 30.2422 26.8821 30.2119C26.9721 30.1817 26.9978 30.1665 27.0518 30.1413L27.1032 30.1186H27.1289L27.1726 30.101L27.3038 30.0354L27.4375 29.9623L27.5404 29.8993C27.6226 29.8514 27.6998 29.7985 27.7769 29.743L27.8001 29.7253L27.7744 29.68ZM23.7732 30.3934L23.5804 30.3531L23.3798 30.3077C23.3732 30.3157 23.3672 30.3241 23.3618 30.3329L23.5624 30.3783L23.7809 30.4211L23.7732 30.3934ZM26.8178 29.4732L26.7869 29.4153C26.7715 29.385 26.7587 29.3522 26.7458 29.322L26.7072 29.2287L26.9644 29.0623C26.9309 28.9917 26.9026 28.9212 26.8692 28.848H26.8924L27.0569 28.7623L27.0827 28.7472L27.0518 28.7699C26.9927 28.8077 26.9335 28.8455 26.8718 28.8783L26.8384 28.8985L26.8024 28.9161C26.7456 28.9469 26.6872 28.9746 26.6275 28.9993L26.5555 29.0296L26.4321 29.0749L26.3704 29.0976L26.2804 29.1254L26.1595 29.1581C26.1805 29.1812 26.2028 29.2031 26.2264 29.2237L26.2495 29.2413C26.2481 29.2522 26.2481 29.2632 26.2495 29.2741C26.2481 29.2841 26.2481 29.2943 26.2495 29.3043C26.2483 29.327 26.2483 29.3497 26.2495 29.3724C26.2495 29.3901 26.2649 29.4127 26.2752 29.4329C26.2845 29.4519 26.2948 29.4704 26.3061 29.4884C26.3131 29.5019 26.3217 29.5146 26.3318 29.5262L26.3626 29.5665L26.3806 29.5842L26.4269 29.6296L26.4501 29.6497L26.4732 29.6724L26.5015 29.6346L26.5812 29.6119H26.6121L26.7149 29.5766L26.8152 29.5388C26.8112 29.517 26.812 29.4946 26.8178 29.4732ZM26.9541 19.5481L26.8564 19.5808L26.5684 19.6691L26.5144 19.6867L26.4707 19.717L26.4115 19.7623L26.3858 19.7825L26.3421 19.8279C26.3344 19.8365 26.3275 19.8458 26.3215 19.8556C26.3123 19.8655 26.3046 19.8765 26.2984 19.8884C26.2897 19.9013 26.2819 19.9148 26.2752 19.9287C26.6159 19.7891 26.9459 19.6256 27.2626 19.4397L27.1881 19.4649C27.1109 19.4951 27.0312 19.5203 26.9541 19.5481ZM27.7744 29.68C27.7281 29.6043 27.6818 29.5262 27.6381 29.448L27.4735 29.5514L27.4066 29.5917C27.4081 29.5851 27.4081 29.5782 27.4066 29.5716C27.3784 29.5035 27.3501 29.4329 27.3244 29.3623L27.3038 29.3119L27.1418 29.3901C27.1418 29.3749 27.1418 29.3623 27.1238 29.3497V29.3623L27.0518 29.3875L26.8461 29.4783C26.8508 29.4927 26.8578 29.5063 26.8666 29.5186L26.7664 29.5564L26.6635 29.5917H26.6327L26.5529 29.6144L26.5246 29.6522L26.2932 29.9699C26.3112 30.0077 26.3318 30.043 26.3498 30.0783C26.3493 30.085 26.3493 30.0918 26.3498 30.0985C26.4012 30.1388 26.4578 30.1766 26.5118 30.2144C26.5118 30.2447 26.5118 30.2774 26.5118 30.3077H26.4655L26.4784 30.3304H26.5144L26.6249 30.2976C26.7098 30.2724 26.7921 30.2422 26.8821 30.2119C26.9721 30.1817 26.9978 30.1665 27.0518 30.1413L27.1032 30.1186H27.1289L27.1726 30.101L27.3038 30.0354L27.4375 29.9623L27.5404 29.8993C27.6226 29.8514 27.6998 29.7985 27.7769 29.743L27.8001 29.7253L27.7744 29.68ZM23.5804 30.3531L23.3798 30.3077C23.3732 30.3157 23.3672 30.3241 23.3618 30.3329L23.5624 30.3783L23.7809 30.4211V30.3934L23.5804 30.3531ZM29.4252 51.0757C29.2349 47.4589 29.1149 43.8514 29.0652 40.2531C29.0652 40.001 29.0652 39.7489 29.0652 39.4968C29.0652 39.169 29.0652 38.8388 29.0652 38.5111C29.0652 38.4127 29.0652 38.3144 29.0652 38.2136C29.0652 38.0472 29.0652 37.8758 29.0652 37.7094C29.0652 37.6665 29.0652 37.6262 29.0652 37.5859V37.2632C29.0652 37.059 29.0652 36.8548 29.0652 36.6531V35.0422C29.0652 34.7573 29.0652 34.4774 29.0652 34.1926V33.9859C29.0652 33.7186 29.0652 33.4539 29.0652 33.1867C29.0652 33.1489 29.0652 33.1111 29.0652 33.0707V32.2867C29.0652 32.2136 29.0652 32.138 29.0652 32.0648C29.0652 31.8127 29.0652 31.5606 29.0652 31.3287C29.0781 30.4817 29.0935 29.6371 29.1166 28.7926C29.1166 28.5934 29.1166 28.3917 29.1166 28.1926C29.121 28.0567 29.0891 27.922 29.0241 27.8018C29.0348 27.7303 29.0503 27.6596 29.0704 27.5901C29.1453 26.9642 29.1599 26.3329 29.1141 25.7044C29.1141 25.6489 29.1141 25.5909 29.1141 25.5354L29.0909 25.0464C29.0909 24.9833 29.0909 24.9178 29.0909 24.8548C29.0909 24.7237 29.0909 24.6027 29.0729 24.4691C29.0729 24.3733 29.0729 24.28 29.0549 24.1842C29.0549 24.1287 29.0549 24.0733 29.0549 24.0178C29.0575 23.9893 29.0575 23.9606 29.0549 23.9321C29.0549 23.7354 29.0344 23.5413 29.0215 23.3472C29.0228 23.3229 29.0228 23.2985 29.0215 23.2741L28.9906 22.843C28.9726 22.5733 28.9521 22.2985 28.9315 22.0262C28.8304 20.7859 28.7035 19.5447 28.5509 18.3027C29.2915 16.5632 28.9984 14.1203 27.7358 12.3657C27.3758 11.8615 26.8487 11.3397 26.6815 10.717C26.627 10.4611 26.6331 10.1963 26.6995 9.94303C26.7638 9.61278 26.8384 9.2901 26.8872 8.9548C27.1174 7.57561 26.9063 6.16038 26.2829 4.90355C26.0219 4.41548 25.6735 3.97742 25.2544 3.61027C24.7449 3.12639 24.0729 2.84135 23.3644 2.80859C22.8938 2.80859 22.8501 3.48422 23.1741 3.86237C23.5128 4.318 23.6535 4.88669 23.5653 5.44383C23.4771 6.00097 23.1672 6.5011 22.7035 6.83463L22.5827 6.9153C21.9269 7.34135 21.1555 7.47496 20.3764 7.58841C19.7309 7.6532 19.0946 7.78677 18.4786 7.98673C16.0975 8.88421 14.9378 12.0203 15.8815 15.1111C15.9124 15.2195 15.9484 15.3279 15.9869 15.4363C16.4749 16.8194 17.3467 18.0417 18.5044 18.9657C18.7546 21.0178 19.0581 23.0699 19.4146 25.122C19.551 26.1074 19.7433 27.0845 19.9906 28.0489C20.1239 28.5906 20.412 29.0839 20.8212 29.4707C21.0304 30.5884 21.2472 31.7052 21.4718 32.8211L21.5181 33.0506L21.6338 33.6279C21.6492 33.6959 21.6621 33.764 21.6749 33.8321L21.7521 34.1976C21.7804 34.3413 21.8112 34.485 21.8421 34.6287L21.8781 34.8127C21.9475 35.1354 22.0144 35.4581 22.0838 35.7783C22.1352 36.0304 22.1866 36.2674 22.2406 36.5144C22.2792 36.6909 22.3152 36.8648 22.3564 37.0413C22.3975 37.2178 22.4309 37.3867 22.4669 37.5581C22.6469 38.3774 22.8346 39.1968 23.0224 40.0161C23.0866 40.2984 23.1535 40.5783 23.2178 40.8581C23.2512 41.0069 23.2872 41.1531 23.3232 41.3018C23.3232 41.3674 23.3515 41.4354 23.3695 41.501C23.3875 41.5665 23.4004 41.6371 23.4184 41.7052L23.5161 42.1211C23.5341 42.1917 23.5495 42.2623 23.5675 42.3329V42.3581C23.6112 42.5472 23.6549 42.7337 23.7012 42.9228C23.7218 43.001 23.7398 43.0816 23.7604 43.1598C23.8169 43.4119 23.8786 43.6413 23.9378 43.8833C24.5412 46.3926 25.1935 48.8984 25.8947 51.401C26.2418 52.6615 26.7021 55.1824 28.2269 55.0161C29.8135 54.8421 29.4998 52.5228 29.4252 51.0757ZM27.7692 53.7379C27.7163 53.6974 27.6703 53.6489 27.6329 53.5942C27.4779 53.3429 27.3626 53.0701 27.2909 52.785C27.1675 52.3766 27.0544 51.9732 26.9412 51.5522L26.5324 50.0749C26.4629 49.8228 26.3935 49.5707 26.3267 49.3186C26.2829 49.1598 26.2392 48.9984 26.1981 48.8396C26.1081 48.5119 26.0232 48.1842 25.9409 47.8564L25.8715 47.6472C25.6144 46.6589 25.3615 45.6699 25.1129 44.6799C24.9895 44.1757 24.8558 43.6842 24.7452 43.1875L24.5601 42.4186C24.5447 42.348 24.5266 42.2774 24.5086 42.2068C24.4649 42.0253 24.4212 41.8438 24.3801 41.6623L24.3646 41.5942C24.3492 41.5312 24.3338 41.4682 24.3209 41.4052C24.2926 41.2942 24.2669 41.1833 24.2412 41.0699L24.2026 40.9085C24.2026 40.8606 24.1795 40.8127 24.1692 40.7648C24.1589 40.7169 24.1409 40.6438 24.1281 40.5833C24.0869 40.4094 24.0458 40.2379 24.0072 40.064C23.9404 39.7816 23.8786 39.4993 23.8144 39.2169C23.6224 38.3766 23.4355 37.5363 23.2538 36.6959C23.2152 36.5245 23.1792 36.3531 23.1432 36.1917C23.1072 36.0304 23.0661 35.8363 23.0301 35.6598L22.8372 34.7422C22.7704 34.4195 22.7035 34.0968 22.6392 33.7741C22.6392 33.7262 22.6186 33.6758 22.6109 33.6279C22.5801 33.4842 22.5518 33.3405 22.5235 33.1968C22.4978 33.0632 22.4695 32.927 22.4438 32.7909C22.4438 32.738 22.4206 32.6825 22.4104 32.627C22.3718 32.4354 22.3332 32.2413 22.2972 32.0497C22.2818 31.9741 22.2664 31.8959 22.2535 31.8178C22.1429 31.2657 22.0375 30.7111 21.9321 30.1564C21.933 30.143 21.933 30.1295 21.9321 30.1161C21.9308 30.1078 21.9308 30.0993 21.9321 30.0909C21.9321 30.0329 21.9089 29.98 21.8986 29.922C22.0812 29.9976 22.2612 30.0632 22.4464 30.1312L22.6495 30.1993C22.8732 30.2724 23.0944 30.3329 23.3181 30.3859H23.3644L23.5649 30.4312L23.7835 30.4741L24.0586 30.5169H24.0972C24.1379 30.5248 24.1792 30.5298 24.2207 30.5321C24.3389 30.5497 24.4546 30.5598 24.5729 30.5674C24.6912 30.5749 24.8301 30.5825 24.9586 30.585C25.245 30.5891 25.5313 30.5714 25.8149 30.5321H25.8947H25.9358L26.0489 30.5119L26.1415 30.4943L26.2212 30.4766C26.3009 30.459 26.3781 30.4413 26.4578 30.4186H26.4938L26.6044 30.3859C26.6892 30.3607 26.7715 30.3304 26.8615 30.3001C26.9515 30.2699 26.9772 30.2548 27.0312 30.2295L27.0827 30.2069H27.1084L27.1521 30.1892L27.2832 30.1237L27.4169 30.0506L27.5198 29.9875C27.6021 29.9396 27.6792 29.8867 27.7564 29.8312L27.7795 29.8136C27.8541 29.7581 27.9235 29.7001 27.9929 29.6396L28.0366 29.6018V29.6623C28.0366 29.6951 28.0366 29.7253 28.0366 29.7581C28.0366 29.869 28.0366 29.9775 28.0366 30.0859C28.0366 30.1237 28.0366 30.159 28.0366 30.1943L28.0238 30.8875C28.0238 30.9153 28.0238 30.9405 28.0238 30.9657C28.0238 31.0489 28.0238 31.1321 28.0238 31.2178V31.2329C28.0238 31.2859 28.0238 31.3413 28.0238 31.3968V32.138C28.0238 32.2363 28.0238 32.3346 28.0238 32.4329V33.2018V33.4338C28.0238 33.9985 28.0238 34.5682 28.0238 35.1329C28.0238 35.4758 28.0238 35.8186 28.0238 36.1615C28.0238 36.5043 28.0238 36.8472 28.0238 37.1901C28.0238 37.2153 28.0238 37.2405 28.0238 37.2657C28.0238 37.3615 28.0238 37.4548 28.0238 37.548C28.0238 37.7774 28.0238 38.0068 28.0238 38.2363C28.0238 38.2968 28.0238 38.3573 28.0238 38.4178C28.0225 38.4421 28.0225 38.4665 28.0238 38.4909C28.0238 38.5438 28.0238 38.5968 28.0238 38.6472C28.0238 38.8287 28.0238 39.0077 28.0238 39.1867C28.0238 39.2699 28.0238 39.3505 28.0238 39.4388L28.0392 40.4472C28.0392 40.9186 28.0572 41.3976 28.0649 41.8716C28.1112 44.0564 28.1824 46.2514 28.2784 48.4564V48.4035V48.4791C28.3178 49.3514 28.3589 50.2228 28.4018 51.0934C28.4663 51.6794 28.4903 52.2689 28.4738 52.8581C28.4738 52.9337 28.4584 53.0043 28.4481 53.0749C28.4378 53.1455 28.4224 53.211 28.4044 53.2791C28.3724 53.4117 28.311 53.5356 28.2244 53.6421C28.2024 53.6794 28.1728 53.7117 28.1373 53.737C28.1019 53.7623 28.0614 53.7801 28.0185 53.7891C27.9756 53.7981 27.9312 53.7982 27.8883 53.7894C27.8454 53.7806 27.8048 53.7631 27.7692 53.7379ZM21.0938 28.2354C20.9868 28.0027 20.9057 27.7592 20.8521 27.5094C20.8521 27.4741 20.8392 27.4388 20.8315 27.401C20.7544 27.0153 20.6824 26.6321 20.6104 26.2464C20.5384 25.8607 20.4612 25.4069 20.3892 24.9859C20.3878 24.9624 20.3878 24.9388 20.3892 24.9153L20.3198 24.5144C20.2966 24.3707 20.2709 24.227 20.2478 24.0859C20.1681 23.6069 20.0935 23.1304 20.0215 22.6514C19.9598 22.2657 19.9032 21.8775 19.8492 21.4918C19.8338 21.401 19.8235 21.3128 19.8106 21.222C19.7849 21.043 19.7592 20.859 19.7361 20.6775C19.7001 20.4254 19.6666 20.1733 19.6358 19.9212C19.6358 19.8531 19.6178 19.785 19.6101 19.717C19.7412 19.7724 19.8672 19.8279 20.0035 19.8758C20.2452 19.9691 20.4921 20.0523 20.7364 20.1279C22.3034 20.6121 23.9812 20.6331 25.5604 20.1884C25.6786 20.1531 25.7944 20.1153 25.9126 20.075C26.0309 20.0346 26.1698 19.9867 26.2829 19.9363C26.6236 19.7967 26.9536 19.6332 27.2704 19.4472L27.3655 19.3918L27.3912 19.3741C27.4658 19.3312 27.5404 19.2833 27.6124 19.2329V19.3161C27.6741 19.8926 27.7324 20.4716 27.7872 21.0531C27.8309 21.4892 27.8695 21.9279 27.9029 22.364C27.9029 22.5077 27.9261 22.6514 27.9364 22.7951C27.9467 22.9388 27.9544 23.0472 27.9647 23.1632C27.9852 23.4455 28.0058 23.7304 28.0238 24.0128C28.0238 24.1539 28.0418 24.2951 28.0495 24.4338C28.0495 24.6556 28.0752 24.8749 28.0855 25.0968V25.1724C28.1009 25.5203 28.1112 25.8682 28.1138 26.2161C28.1138 26.2464 28.1138 26.2766 28.1138 26.3044V26.3422C28.1138 26.3649 28.1138 26.3901 28.1138 26.4128C28.1281 26.8908 28.0405 27.3664 27.8566 27.8094C27.7333 28.0593 27.5642 28.2849 27.3578 28.4749L27.2575 28.5606C27.196 28.6113 27.1317 28.6584 27.0646 28.7018L27.0338 28.7245C26.9747 28.7623 26.9155 28.8001 26.8538 28.8329L26.8204 28.8531L26.7844 28.8707C26.7276 28.9015 26.6692 28.9292 26.6095 28.9539L26.5375 28.9842L26.4141 29.0296L26.3524 29.0522L26.2624 29.08L26.1415 29.1127L25.9821 29.1531H25.9332L25.7892 29.1808H25.6941C25.6593 29.1883 25.6241 29.1934 25.5887 29.1959L25.3495 29.2186C25.2338 29.2186 25.1129 29.2363 24.9947 29.2363H24.9561H24.6244H24.4418L24.2078 29.2186C23.2498 29.1201 22.3201 28.8419 21.4692 28.3993L21.2918 28.306C21.2379 28.2809 21.1809 28.2631 21.1221 28.2531C21.1134 28.2461 21.1039 28.2402 21.0938 28.2354ZM24.4906 4.4548C24.4906 4.41194 24.4701 4.36909 24.4598 4.32875L24.5909 4.42707L24.7195 4.53548C24.9143 4.71035 25.087 4.90757 25.2338 5.12287C25.3082 5.2354 25.3769 5.35151 25.4395 5.47077C25.9898 6.52707 25.9795 7.79766 25.8021 8.83883C25.7481 9.14892 25.6735 9.45143 25.6272 9.76151C25.5226 9.81384 25.4432 9.90438 25.4061 10.0136C25.3495 10.1699 25.2878 10.3388 25.2184 10.5027C25.0075 11.0069 24.7246 11.5111 24.2309 11.6094C24.1116 11.6307 23.9885 11.6183 23.8761 11.5737C23.7636 11.529 23.6664 11.454 23.5958 11.3573C23.4029 11.1229 23.4698 10.9086 23.5084 10.6338C23.5084 10.6338 23.5084 10.6111 23.5084 10.5985C23.6164 9.70353 22.9529 8.95479 22.2226 9.08589C21.8682 9.17184 21.5362 9.32988 21.2481 9.54976C20.9498 9.72875 20.6592 9.92034 20.3507 10.0817L20.2966 10.1094L20.2581 10.1271C20.1989 10.1472 20.1732 10.1271 20.1372 10.0766C20.1278 10.0646 20.1192 10.052 20.1115 10.0388C20.0538 9.94334 20.0228 9.83467 20.0215 9.72371C20.0296 9.63872 20.0442 9.55444 20.0652 9.47161C20.1035 9.31295 20.166 9.16084 20.2504 9.02035C20.2973 8.94008 20.3515 8.86413 20.4124 8.79346C20.5847 8.7632 20.7595 8.73799 20.9267 8.71026C21.9887 8.53127 23.0404 8.29429 23.8015 7.44976C24.2352 6.92357 24.5032 6.28499 24.5729 5.61195C24.5897 5.42323 24.5897 5.23344 24.5729 5.04472C24.5655 4.84839 24.5379 4.65329 24.4906 4.46237V4.4548ZM27.6509 17.4581C27.6201 17.5464 27.5841 17.6346 27.5481 17.7102L27.4246 17.8086C27.3029 17.9076 27.1759 18.0002 27.0441 18.0859C26.7755 18.2682 26.4936 18.4308 26.2007 18.5724C26.1184 18.6128 26.0387 18.6481 25.9589 18.6834C25.9488 18.6919 25.9362 18.6972 25.9229 18.6985L25.8715 18.7212C25.5881 18.8394 25.2968 18.9388 24.9998 19.0186C24.3727 19.1892 23.7246 19.2741 23.0738 19.2708H23.0429C22.7636 19.2681 22.4846 19.2504 22.2072 19.2178H22.1661C21.9089 19.185 21.6518 19.1422 21.3947 19.0867C21.1235 19.0286 20.8556 18.9562 20.5924 18.8699C20.2132 18.7436 19.843 18.5928 19.4841 18.4186C19.4413 18.3486 19.3855 18.287 19.3195 18.2371C19.3035 18.2223 19.2863 18.2088 19.2681 18.1968C19.1961 18.1489 19.1292 18.0985 19.0598 18.0455C18.9312 17.9472 18.8026 17.8464 18.6844 17.7355C18.516 17.5872 18.3564 17.4298 18.2061 17.264C18.1341 17.1834 18.0621 17.1027 17.9952 17.0119L17.9798 16.9943L17.9566 16.964C17.4419 16.3241 17.0594 15.592 16.8304 14.8086C16.5695 13.9938 16.5052 13.1308 16.6426 12.2876C16.7162 11.8351 16.8484 11.3937 17.0361 10.9741C17.2835 10.4514 17.6473 9.98966 18.1007 9.62286C18.2995 9.47182 18.5152 9.34329 18.7435 9.23968C18.7987 9.21312 18.8554 9.18955 18.9132 9.16908L19.0855 9.10606V9.1464C19.0855 9.19934 19.0675 9.25227 19.0598 9.30521C19.0598 9.30521 19.0598 9.32539 19.0598 9.33295C19.0528 9.41685 19.0528 9.50116 19.0598 9.58505C19.0598 9.62287 19.0598 9.6632 19.0598 9.70101C19.0688 9.81649 19.0868 9.93112 19.1138 10.0439C19.1344 10.117 19.1549 10.1901 19.1806 10.2632C19.2323 10.4052 19.2995 10.5413 19.3812 10.6691C19.4764 10.8449 19.6098 10.9981 19.7721 11.1178C19.883 11.1993 20.0074 11.2616 20.1398 11.3019C20.251 11.3394 20.3669 11.3614 20.4844 11.3674C20.6691 11.3548 20.8489 11.3032 21.0115 11.2161C21.2226 11.102 21.4262 10.9749 21.6209 10.8355C21.6775 10.7951 21.7366 10.7598 21.7932 10.7245C21.9578 10.6237 22.1789 10.4724 22.3075 10.4119C22.3725 10.3788 22.4405 10.3518 22.5106 10.3313H22.5441V10.3363C22.4993 10.574 22.4838 10.816 22.4978 11.0573C22.6161 12.1061 23.5598 12.9077 24.3878 12.8674C24.4456 12.8654 24.5031 12.8595 24.5601 12.8497C24.7854 12.8142 24.9993 12.7279 25.1849 12.5976C25.2598 12.548 25.3303 12.4923 25.3958 12.4313C25.5332 12.3073 25.6549 12.1677 25.7584 12.0153C25.7866 11.98 25.8098 11.9422 25.8355 11.9044C25.8612 11.8666 25.8998 11.801 25.9306 11.7456C25.9615 11.6901 25.9898 11.6447 26.0155 11.5943C26.0438 11.6447 26.0721 11.6951 26.1029 11.7456C26.1338 11.796 26.1595 11.8464 26.1904 11.8968C26.2855 12.0582 26.3935 12.2119 26.5041 12.3632C26.8622 12.7957 27.1774 13.2609 27.4452 13.7523C27.6406 14.1866 27.7764 14.6443 27.8489 15.1136C28.0064 15.895 27.9487 16.7034 27.6818 17.4556L27.6509 17.4657V17.4581ZM23.7732 30.3859L23.5804 30.3455L23.3798 30.3001C23.3732 30.3081 23.3672 30.3165 23.3618 30.3253L23.5624 30.3707L23.7809 30.4136L23.7732 30.3859ZM27.7744 29.6724C27.7281 29.5968 27.6818 29.5186 27.6381 29.4405L27.4735 29.5438L27.4066 29.5842C27.4081 29.5775 27.4081 29.5707 27.4066 29.564C27.3784 29.4959 27.3501 29.4254 27.3244 29.3548L27.3038 29.3043L27.1418 29.3825C27.1418 29.3674 27.1418 29.3548 27.1238 29.3422V29.3548L27.0518 29.38L26.8461 29.4707C26.8508 29.4851 26.8578 29.4987 26.8666 29.5111L26.7664 29.5489L26.6635 29.5842H26.6327L26.5529 29.6069L26.5246 29.6447L26.2932 29.9623C26.3112 30.0001 26.3318 30.0354 26.3498 30.0707C26.3493 30.0775 26.3493 30.0842 26.3498 30.0909C26.4012 30.1312 26.4578 30.1691 26.5118 30.2069C26.5118 30.2371 26.5118 30.2699 26.5118 30.3001H26.4655L26.4784 30.3228H26.5144L26.6249 30.2901C26.7098 30.2649 26.7921 30.2346 26.8821 30.2043C26.9721 30.1741 26.9978 30.159 27.0518 30.1338L27.1032 30.1111H27.1289L27.1726 30.0934L27.3038 30.0279L27.4375 29.9548L27.5404 29.8917C27.6226 29.8438 27.6998 29.7909 27.7769 29.7354L27.8001 29.7178L27.7744 29.6724ZM27.1881 19.4573C27.1109 19.4876 27.0312 19.5128 26.9541 19.5405L26.8564 19.5733L26.5684 19.6615L26.5144 19.6792L26.4707 19.7094L26.4115 19.7548L26.3858 19.775L26.3421 19.8203C26.3344 19.8289 26.3275 19.8382 26.3215 19.8481C26.3123 19.8579 26.3046 19.8689 26.2984 19.8808C26.2897 19.8937 26.2819 19.9072 26.2752 19.9212C26.6159 19.7815 26.9459 19.6181 27.2626 19.4321L27.1881 19.4573ZM26.8178 29.4657L26.7869 29.4077C26.7715 29.3775 26.7587 29.3447 26.7458 29.3144L26.7072 29.2211L26.9644 29.0548C26.9309 28.9842 26.9026 28.9136 26.8692 28.8405H26.8924L27.0569 28.7548L27.0827 28.7396L27.0518 28.7623C26.9927 28.8002 26.9335 28.838 26.8718 28.8707L26.8384 28.8909L26.8024 28.9085C26.7456 28.9393 26.6872 28.9671 26.6275 28.9917L26.5555 29.022L26.4321 29.0674L26.3704 29.0901L26.2804 29.1178L26.1595 29.1506C26.1805 29.1737 26.2028 29.1955 26.2264 29.2161L26.2495 29.2338C26.2481 29.2446 26.2481 29.2557 26.2495 29.2665C26.2481 29.2766 26.2481 29.2868 26.2495 29.2968C26.2483 29.3195 26.2483 29.3422 26.2495 29.3648C26.2495 29.3825 26.2649 29.4052 26.2752 29.4253C26.2845 29.4444 26.2948 29.4629 26.3061 29.4808C26.3131 29.4944 26.3217 29.507 26.3318 29.5186L26.3626 29.559L26.3806 29.5766L26.4269 29.622L26.4501 29.6422L26.4732 29.6648L26.5015 29.627L26.5812 29.6043H26.6121L26.7149 29.569L26.8152 29.5312C26.8122 29.5119 26.8131 29.4922 26.8178 29.4732V29.4657ZM23.7732 30.3859L23.5804 30.3455L23.3798 30.3001C23.3732 30.3081 23.3672 30.3165 23.3618 30.3253L23.5624 30.3707L23.7809 30.4136L23.7732 30.3859ZM27.7744 29.6724C27.7281 29.5968 27.6818 29.5186 27.6381 29.4405L27.4735 29.5438L27.4066 29.5842C27.4081 29.5775 27.4081 29.5707 27.4066 29.564C27.3784 29.4959 27.3501 29.4254 27.3244 29.3548L27.3038 29.3043L27.1418 29.3825C27.1418 29.3674 27.1418 29.3548 27.1238 29.3422V29.3548L27.0518 29.38L26.8461 29.4707C26.8508 29.4851 26.8578 29.4987 26.8666 29.5111L26.7664 29.5489L26.6635 29.5842H26.6327L26.5529 29.6069L26.5246 29.6447L26.2932 29.9623C26.3112 30.0001 26.3318 30.0354 26.3498 30.0707C26.3493 30.0775 26.3493 30.0842 26.3498 30.0909C26.4012 30.1312 26.4578 30.1691 26.5118 30.2069C26.5118 30.2371 26.5118 30.2699 26.5118 30.3001H26.4655L26.4784 30.3228H26.5144L26.6249 30.2901C26.7098 30.2649 26.7921 30.2346 26.8821 30.2043C26.9721 30.1741 26.9978 30.159 27.0518 30.1338L27.1032 30.1111H27.1289L27.1726 30.0934L27.3038 30.0279L27.4375 29.9548L27.5404 29.8917C27.6226 29.8438 27.6998 29.7909 27.7769 29.7354L27.8001 29.7178L27.7744 29.6724ZM27.1881 19.4573C27.1109 19.4876 27.0312 19.5128 26.9541 19.5405L26.8564 19.5733L26.5684 19.6615L26.5144 19.6792L26.4707 19.7094L26.4115 19.7548L26.3858 19.775L26.3421 19.8203C26.3344 19.8289 26.3275 19.8382 26.3215 19.8481C26.3123 19.8579 26.3046 19.8689 26.2984 19.8808C26.2897 19.8937 26.2819 19.9072 26.2752 19.9212C26.6159 19.7815 26.9459 19.6181 27.2626 19.4321L27.1881 19.4573ZM26.8178 29.4657L26.7869 29.4077C26.7715 29.3775 26.7587 29.3447 26.7458 29.3144L26.7072 29.2211L26.9644 29.0548C26.9309 28.9842 26.9026 28.9136 26.8692 28.8405H26.8924L27.0569 28.7548L27.0827 28.7396L27.0518 28.7623C26.9927 28.8002 26.9335 28.838 26.8718 28.8707L26.8384 28.8909L26.8024 28.9085C26.7456 28.9393 26.6872 28.9671 26.6275 28.9917L26.5555 29.022L26.4321 29.0674L26.3704 29.0901L26.2804 29.1178L26.1595 29.1506C26.1805 29.1737 26.2028 29.1955 26.2264 29.2161L26.2495 29.2338C26.2481 29.2446 26.2481 29.2557 26.2495 29.2665C26.2481 29.2766 26.2481 29.2868 26.2495 29.2968C26.2483 29.3195 26.2483 29.3422 26.2495 29.3648C26.2495 29.3825 26.2649 29.4052 26.2752 29.4253C26.2845 29.4444 26.2948 29.4629 26.3061 29.4808C26.3131 29.4944 26.3217 29.507 26.3318 29.5186L26.3626 29.559L26.3806 29.5766L26.4269 29.622L26.4501 29.6422L26.4732 29.6648L26.5015 29.627L26.5812 29.6043H26.6121L26.7149 29.569L26.8152 29.5312C26.8122 29.5119 26.8131 29.4922 26.8178 29.4732V29.4657ZM23.7732 30.3859L23.5804 30.3455L23.3798 30.3001C23.3732 30.3081 23.3672 30.3165 23.3618 30.3253L23.5624 30.3707L23.7809 30.4136L23.7732 30.3859ZM27.7744 29.6724C27.7281 29.5968 27.6818 29.5186 27.6381 29.4405L27.4735 29.5438L27.4066 29.5842C27.4081 29.5775 27.4081 29.5707 27.4066 29.564C27.3784 29.4959 27.3501 29.4254 27.3244 29.3548L27.3038 29.3043L27.1418 29.3825C27.1418 29.3674 27.1418 29.3548 27.1238 29.3422V29.3548L27.0518 29.38L26.8461 29.4707C26.8508 29.4851 26.8578 29.4987 26.8666 29.5111L26.7664 29.5489L26.6635 29.5842H26.6327L26.5529 29.6069L26.5246 29.6447L26.2932 29.9623C26.3112 30.0001 26.3318 30.0354 26.3498 30.0707C26.3493 30.0775 26.3493 30.0842 26.3498 30.0909C26.4012 30.1312 26.4578 30.1691 26.5118 30.2069C26.5118 30.2371 26.5118 30.2699 26.5118 30.3001H26.4655L26.4784 30.3228H26.5144L26.6249 30.2901C26.7098 30.2649 26.7921 30.2346 26.8821 30.2043C26.9721 30.1741 26.9978 30.159 27.0518 30.1338L27.1032 30.1111H27.1289L27.1726 30.0934L27.3038 30.0279L27.4375 29.9548L27.5404 29.8917C27.6226 29.8438 27.6998 29.7909 27.7769 29.7354L27.8001 29.7178L27.7744 29.6724ZM27.1881 19.4573C27.1109 19.4876 27.0312 19.5128 26.9541 19.5405L26.8564 19.5733L26.5684 19.6615L26.5144 19.6792L26.4707 19.7094L26.4115 19.7548L26.3858 19.775L26.3421 19.8203C26.3344 19.8289 26.3275 19.8382 26.3215 19.8481C26.3123 19.8579 26.3046 19.8689 26.2984 19.8808C26.2897 19.8937 26.2819 19.9072 26.2752 19.9212C26.6159 19.7815 26.9459 19.6181 27.2626 19.4321L27.1881 19.4573ZM26.8178 29.4657L26.7869 29.4077C26.7715 29.3775 26.7587 29.3447 26.7458 29.3144L26.7072 29.2211L26.9644 29.0548C26.9309 28.9842 26.9026 28.9136 26.8692 28.8405H26.8924L27.0569 28.7548L27.0827 28.7396L27.0518 28.7623C26.9927 28.8002 26.9335 28.838 26.8718 28.8707L26.8384 28.8909L26.8024 28.9085C26.7456 28.9393 26.6872 28.9671 26.6275 28.9917L26.5555 29.022L26.4321 29.0674L26.3704 29.0901L26.2804 29.1178L26.1595 29.1506C26.1805 29.1737 26.2028 29.1955 26.2264 29.2161L26.2495 29.2338C26.2481 29.2446 26.2481 29.2557 26.2495 29.2665C26.2481 29.2766 26.2481 29.2868 26.2495 29.2968C26.2483 29.3195 26.2483 29.3422 26.2495 29.3648C26.2495 29.3825 26.2649 29.4052 26.2752 29.4253C26.2845 29.4444 26.2948 29.4629 26.3061 29.4808C26.3131 29.4944 26.3217 29.507 26.3318 29.5186L26.3626 29.559L26.3806 29.5766L26.4269 29.622L26.4501 29.6422L26.4732 29.6648L26.5015 29.627L26.5812 29.6043H26.6121L26.7149 29.569L26.8152 29.5312C26.8122 29.5119 26.8131 29.4922 26.8178 29.4732V29.4657ZM23.7732 30.3859L23.5804 30.3455L23.3798 30.3001C23.3732 30.3081 23.3672 30.3165 23.3618 30.3253L23.5624 30.3707L23.7809 30.4136L23.7732 30.3859ZM27.7744 29.6724C27.7281 29.5968 27.6818 29.5186 27.6381 29.4405L27.4735 29.5438L27.4066 29.5842C27.4081 29.5775 27.4081 29.5707 27.4066 29.564C27.3784 29.4959 27.3501 29.4254 27.3244 29.3548L27.3038 29.3043L27.1418 29.3825C27.1418 29.3674 27.1418 29.3548 27.1238 29.3422V29.3548L27.0518 29.38L26.8461 29.4707C26.8508 29.4851 26.8578 29.4987 26.8666 29.5111L26.7664 29.5489L26.6635 29.5842H26.6327L26.5529 29.6069L26.5246 29.6447L26.2932 29.9623C26.3112 30.0001 26.3318 30.0354 26.3498 30.0707C26.3493 30.0775 26.3493 30.0842 26.3498 30.0909C26.4012 30.1312 26.4578 30.1691 26.5118 30.2069C26.5118 30.2371 26.5118 30.2699 26.5118 30.3001H26.4655L26.4784 30.3228H26.5144L26.6249 30.2901C26.7098 30.2649 26.7921 30.2346 26.8821 30.2043C26.9721 30.1741 26.9978 30.159 27.0518 30.1338L27.1032 30.1111H27.1289L27.1726 30.0934L27.3038 30.0279L27.4375 29.9548L27.5404 29.8917C27.6226 29.8438 27.6998 29.7909 27.7769 29.7354L27.8001 29.7178L27.7744 29.6724ZM27.1881 19.4573C27.1109 19.4876 27.0312 19.5128 26.9541 19.5405L26.8564 19.5733L26.5684 19.6615L26.5144 19.6792L26.4707 19.7094L26.4115 19.7548L26.3858 19.775L26.3421 19.8203C26.3344 19.8289 26.3275 19.8382 26.3215 19.8481C26.3123 19.8579 26.3046 19.8689 26.2984 19.8808C26.2897 19.8937 26.2819 19.9072 26.2752 19.9212C26.6159 19.7815 26.9459 19.6181 27.2626 19.4321L27.1881 19.4573ZM26.8178 29.4657L26.7869 29.4077C26.7715 29.3775 26.7587 29.3447 26.7458 29.3144L26.7072 29.2211L26.9644 29.0548C26.9309 28.9842 26.9026 28.9136 26.8692 28.8405H26.8924L27.0569 28.7548L27.0827 28.7396L27.0518 28.7623C26.9927 28.8002 26.9335 28.838 26.8718 28.8707L26.8384 28.8909L26.8024 28.9085C26.7456 28.9393 26.6872 28.9671 26.6275 28.9917L26.5555 29.022L26.4321 29.0674L26.3704 29.0901L26.2804 29.1178L26.1595 29.1506C26.1805 29.1737 26.2028 29.1955 26.2264 29.2161L26.2495 29.2338C26.2481 29.2446 26.2481 29.2557 26.2495 29.2665C26.2481 29.2766 26.2481 29.2868 26.2495 29.2968C26.2483 29.3195 26.2483 29.3422 26.2495 29.3648C26.2495 29.3825 26.2649 29.4052 26.2752 29.4253C26.2845 29.4444 26.2948 29.4629 26.3061 29.4808C26.3131 29.4944 26.3217 29.507 26.3318 29.5186L26.3626 29.559L26.3806 29.5766L26.4269 29.622L26.4501 29.6422L26.4732 29.6648L26.5015 29.627L26.5812 29.6043H26.6121L26.7149 29.569L26.8152 29.5312C26.8122 29.5119 26.8131 29.4922 26.8178 29.4732V29.4657ZM23.7732 30.3859L23.5804 30.3455L23.3798 30.3001C23.3732 30.3081 23.3672 30.3165 23.3618 30.3253L23.5624 30.3707L23.7809 30.4136L23.7732 30.3859ZM27.7744 29.6724C27.7281 29.5968 27.6818 29.5186 27.6381 29.4405L27.4735 29.5438L27.4066 29.5842C27.4081 29.5775 27.4081 29.5707 27.4066 29.564C27.3784 29.4959 27.3501 29.4254 27.3244 29.3548L27.3038 29.3043L27.1418 29.3825C27.1418 29.3674 27.1418 29.3548 27.1238 29.3422V29.3548L27.0518 29.38L26.8461 29.4707C26.8508 29.4851 26.8578 29.4987 26.8666 29.5111L26.7664 29.5489L26.6635 29.5842H26.6327L26.5529 29.6069L26.5246 29.6447L26.2932 29.9623C26.3112 30.0001 26.3318 30.0354 26.3498 30.0707C26.3493 30.0775 26.3493 30.0842 26.3498 30.0909C26.4012 30.1312 26.4578 30.1691 26.5118 30.2069C26.5118 30.2371 26.5118 30.2699 26.5118 30.3001H26.4655L26.4784 30.3228H26.5144L26.6249 30.2901C26.7098 30.2649 26.7921 30.2346 26.8821 30.2043C26.9721 30.1741 26.9978 30.159 27.0518 30.1338L27.1032 30.1111H27.1289L27.1726 30.0934L27.3038 30.0279L27.4375 29.9548L27.5404 29.8917C27.6226 29.8438 27.6998 29.7909 27.7769 29.7354L27.8001 29.7178L27.7744 29.6724ZM27.1881 19.4573C27.1109 19.4876 27.0312 19.5128 26.9541 19.5405L26.8564 19.5733L26.5684 19.6615L26.5144 19.6792L26.4707 19.7094L26.4115 19.7548L26.3858 19.775L26.3421 19.8203C26.3344 19.8289 26.3275 19.8382 26.3215 19.8481C26.3123 19.8579 26.3046 19.8689 26.2984 19.8808C26.2897 19.8937 26.2819 19.9072 26.2752 19.9212C26.6159 19.7815 26.9459 19.6181 27.2626 19.4321L27.1881 19.4573ZM26.8178 29.4657L26.7869 29.4077C26.7715 29.3775 26.7587 29.3447 26.7458 29.3144L26.7072 29.2211L26.9644 29.0548C26.9309 28.9842 26.9026 28.9136 26.8692 28.8405H26.8924L27.0569 28.7548L27.0827 28.7396L27.0518 28.7623C26.9927 28.8002 26.9335 28.838 26.8718 28.8707L26.8384 28.8909L26.8024 28.9085C26.7456 28.9393 26.6872 28.9671 26.6275 28.9917L26.5555 29.022L26.4321 29.0674L26.3704 29.0901L26.2804 29.1178L26.1595 29.1506C26.1805 29.1737 26.2028 29.1955 26.2264 29.2161L26.2495 29.2338C26.2481 29.2446 26.2481 29.2557 26.2495 29.2665C26.2481 29.2766 26.2481 29.2868 26.2495 29.2968C26.2483 29.3195 26.2483 29.3422 26.2495 29.3648C26.2495 29.3825 26.2649 29.4052 26.2752 29.4253C26.2845 29.4444 26.2948 29.4629 26.3061 29.4808C26.3131 29.4944 26.3217 29.507 26.3318 29.5186L26.3626 29.559L26.3806 29.5766L26.4269 29.622L26.4501 29.6422L26.4732 29.6648L26.5015 29.627L26.5812 29.6043H26.6121L26.7149 29.569L26.8152 29.5312C26.8122 29.5119 26.8131 29.4922 26.8178 29.4732V29.4657Z" fill="black" />
	</g>
	<defs>
		<clipPath id="clip0_1655_36954">
			<rect width="54" height="60" fill="white" transform="translate(3.5)" />
		</clipPath>
	</defs>
</svg>
