<svg width="376" height="269" viewBox="0 0 376 269" fill="none" xmlns="http://www.w3.org/2000/svg">
	<path d="M215.051 96.1078L203.206 89.2371L192.873 93.2716C188.398 95.0189 185.836 91.5379 185.114 89.5791L182.784 78.3771L180.942 71.3983L182.242 69.1971C184.408 65.5285 181.754 64.974 179.966 62.952C178.178 60.93 176.571 61.968 172.058 66.2452C168.447 69.667 171.372 70.7726 173.286 70.8978L175.633 70.2892C176.313 69.6986 177.583 71.0263 177.223 81.0617C176.862 91.0971 172.294 87.7249 170.055 84.7843L167.905 76.6424C161 69.485 157.734 79.2796 156.964 85.0716L159.601 97.4367C156.484 103.837 148.299 115.901 140.498 112.953C132.698 110.005 127.775 115.423 126.288 118.501C113.301 114.909 110.007 118.58 109.983 120.864C104.077 140.291 115.035 143.167 121.252 142.176C125.095 149.133 121.613 148.296 119.392 147.008C109.154 139.099 110.672 156.725 113.507 160.34C116.342 163.954 120.603 163.471 121.217 165.797C121.832 168.123 119.287 177.483 116.885 173.135C114.483 168.786 105.275 174.281 110.457 177.287C114.603 179.691 112.137 182.858 110.385 184.14C102.123 192.745 107.304 193.845 110.927 193.32L117.355 189.168C121.905 185.503 124.475 190.015 125.192 192.729L127.467 198.973C126.721 202.481 126.655 205.398 123.134 206.311C119.423 207.273 111.398 209.354 118.801 213.648C126.204 217.942 123.929 211.697 125.969 209.925C127.601 208.508 130.152 206.769 131.223 206.077C132.09 204.61 137.706 206.882 138.013 208.045C138.32 209.208 137.76 211.839 140.288 214.29C142.816 216.742 146.897 213.198 147.204 214.361C147.511 215.525 146.139 224.579 148.306 220.911C150.039 217.976 153.964 222.551 155.709 225.205C157.069 224.024 158.194 223.691 151.809 231.809C145.425 239.926 149.884 239.557 152.911 238.358C154.771 233.526 159.118 224.818 161.632 228.64C164.146 232.463 167.615 233.096 169.035 232.935L181.331 227.261C183.968 226.163 189.634 224.984 191.208 229.05C192.783 233.115 195.319 232.748 196.391 232.056C197.215 231.221 199.323 228.437 201.157 223.985C203.45 218.42 206.664 216.343 209.932 219.224C213.201 222.105 223.855 241.091 223.023 218.937C222.357 201.214 226.597 196.055 228.799 195.691C244.704 197.036 242.973 186.838 240.12 181.572C249.526 167.327 242.863 163.462 244.289 159.364C245.715 155.266 253.245 157.663 254.852 156.625C256.459 155.587 260.287 155.837 244.613 148.716C228.94 141.595 241.11 137.819 243.331 139.107C245.552 140.395 249.199 137.585 250.625 133.487C252.051 129.389 238.67 116.703 232.802 118.225C228.108 119.442 223.852 115.988 222.311 114.109L215.972 99.5973L227.671 79.7869L225.45 78.4986L215.051 96.1078Z" fill="#FFFCFE" />
	<ellipse rx="5.13522" ry="7.66898" transform="matrix(0.86502 0.501737 -0.508502 0.861061 231.824 69.3909)" fill="#FFFCFE" />
	<ellipse rx="5.1047" ry="7.71468" transform="matrix(0.290659 0.956827 -0.958258 0.285906 299.431 116.485)" fill="#FFFCFE" />
	<ellipse rx="2.82523" ry="4.26973" transform="matrix(0.290659 0.956827 -0.958258 0.285906 269.874 125.847)" fill="#FFFCFE" />
	<ellipse rx="2.82523" ry="4.26973" transform="matrix(0.290659 0.956827 -0.958258 0.285906 256.402 131.825)" fill="#FFFCFE" />
	<ellipse rx="5.78874" ry="8.74845" transform="matrix(0.290659 0.956827 -0.958258 0.285906 355.057 139.991)" fill="#FFFCFE" />
	<ellipse rx="5.78805" ry="8.74947" transform="matrix(-0.26675 0.963766 -0.964979 -0.262326 366.013 184.866)" fill="#FFFCFE" />
	<ellipse rx="5.78805" ry="8.74947" transform="matrix(-0.26675 0.963766 -0.964979 -0.262326 285.083 210.819)" fill="#FFFCFE" />
	<ellipse rx="4.96759" ry="7.41728" transform="matrix(-0.870871 0.491511 -0.49823 -0.867045 233.928 249.986)" fill="#FFFCFE" />
	<ellipse rx="4.97582" ry="7.40486" transform="matrix(-0.97022 0.242226 -0.246357 -0.969179 200.836 260.618)" fill="#FFFCFE" />
	<ellipse rx="5.13522" ry="5.11265" transform="matrix(-0.86502 -0.501737 0.508502 -0.861061 135.345 219.301)" fill="#FFFCFE" />
	<ellipse rx="5.13522" ry="9.3732" transform="matrix(-0.86502 -0.501737 0.508502 -0.861061 111.762 255.862)" fill="#FFFCFE" />
	<ellipse rx="5.1124" ry="8.10176" transform="matrix(-0.503055 -0.864254 0.868144 -0.496313 87.4382 235.186)" fill="#FFFCFE" />
	<ellipse rx="5.1124" ry="8.10176" transform="matrix(-0.503055 -0.864254 0.868144 -0.496313 91.0515 206.611)" fill="#FFFCFE" />
	<ellipse rx="5.1124" ry="8.10176" transform="matrix(-0.503055 -0.864254 0.868144 -0.496313 56.7117 214.273)" fill="#FFFCFE" />
	<ellipse rx="8.08714" ry="12.8159" transform="matrix(-0.503055 -0.864254 0.868144 -0.496313 15.1945 238.67)" fill="#FFFCFE" />
	<ellipse rx="5.11265" ry="8.55869" transform="matrix(0.508502 -0.861061 0.865021 0.501737 74.2689 97.1927)" fill="#FFFCFE" />
	<ellipse rx="6.00474" ry="10.2017" transform="matrix(0.999853 -0.0171169 0.0174274 0.999848 155.615 10.3025)" fill="#FFFCFE" />
	<ellipse rx="5.11265" ry="8.55869" transform="matrix(0.508502 -0.861061 0.865021 0.501737 100.917 112.652)" fill="#FFFCFE" />
</svg>
