<svg width="1400" height="900" viewBox="0 0 1400 900" fill="none" xmlns="http://www.w3.org/2000/svg">
	<path d="M1297.98 800H102.013C78.8072 800 60 779.074 60 753.254V126.746C60 100.926 78.8072 80 102.013 80H1297.99C1321.19 80 1340 100.926 1340 126.746V753.266C1339.99 779.074 1321.18 800 1297.98 800Z" fill="white" />
	<path d="M1339.57 115.258V115.205L1339.57 115.152C1339.04 102.713 1337.73 93.43 1333.36 86.8781C1328.85 80.1085 1321.45 76.7362 1310.2 75.0607C1298.99 73.3912 1283.37 73.3265 1261.77 73.6599C1256.43 73.7422 1250.73 73.8492 1244.62 73.9637C1225.89 74.3147 1203.39 74.7364 1176.3 74.7364C1131.9 74.7364 1020.02 74.9714 884.094 75.2569C579.486 75.8968 154.113 76.7903 96.7929 75.8612C86.795 75.6992 78.5449 78.5405 71.9077 84.2319C65.3253 89.8763 60.5224 98.1574 57.0406 108.555C50.0985 129.287 48.15 159.254 48.5493 196.126C48.8829 226.934 50.8648 262.814 53.0581 302.52C53.4944 310.419 53.939 318.469 54.3807 326.661C57.0446 376.064 59.6062 430.687 59.6062 488.548C59.6062 501.679 58.451 521.757 57.0789 545.604C56.8277 549.971 56.5691 554.465 56.3091 559.065C54.6323 588.73 52.9002 622.737 52.6909 655.6C52.4818 688.439 53.7914 720.256 58.2346 745.511C60.4557 758.137 63.4781 769.233 67.5485 778.036C71.586 786.768 76.7744 793.499 83.4926 797.058C84.3838 797.616 85.6234 797.986 86.8505 798.275C88.2488 798.604 90.018 798.91 92.1065 799.197C96.29 799.774 101.93 800.302 108.806 800.789C122.568 801.763 141.436 802.581 163.834 803.268C208.639 804.642 267.676 805.497 328.475 806.027C434.909 806.953 546.797 806.882 597.296 806.849C604.492 806.845 610.442 806.841 614.952 806.841C629.549 806.841 657.424 807.038 693.957 807.297C770.204 807.836 884.164 808.642 993.824 808.479C1074.97 808.358 1153.87 807.708 1213.6 806.026C1243.46 805.186 1268.56 804.087 1286.76 802.665C1295.85 801.954 1303.28 801.159 1308.73 800.265C1311.46 799.819 1313.75 799.34 1315.54 798.816C1317.19 798.331 1318.84 797.693 1319.88 796.701C1338.54 778.799 1343.22 757.736 1343.49 706.819C1343.6 686.44 1342.99 661.13 1342.23 629.162C1342.03 621.128 1341.83 612.674 1341.63 603.773C1340.61 559.424 1339.57 503.889 1339.57 433.678V115.258Z" stroke="#221856" stroke-width="5" />
</svg>
