<svg width="362" height="224" viewBox="0 0 362 224" fill="none" xmlns="http://www.w3.org/2000/svg">
	<mask id="path-1-inside-1_1655_36673" fill="white">
		<path fill-rule="evenodd" clip-rule="evenodd" d="M237.184 183.41C227.286 187.46 216.581 190.215 205.344 191.43C205.344 191.508 205.344 191.587 205.344 191.665C205.344 209.523 188.972 224 168.776 224C154.648 224 142.391 216.916 136.301 206.545C129.889 215.885 118.278 222.125 105.018 222.125C85.2008 222.125 69.0653 208.187 68.4665 190.793C29.4723 184.136 0 153.488 0 116.686C0 75.0177 37.7824 41.2387 84.3894 41.2387C90.5554 41.2387 96.567 41.8299 102.357 42.9524C121.675 17.0632 154.711 0 192.221 0C228.943 0 261.378 16.3536 280.85 41.332C325.488 43.3058 361.001 76.2881 361.001 116.686C361.001 158.355 323.219 192.134 276.612 192.134C262.37 192.134 248.952 188.98 237.184 183.41Z" />
	</mask>
	<path fill-rule="evenodd" clip-rule="evenodd" d="M237.184 183.41C227.286 187.46 216.581 190.215 205.344 191.43C205.344 191.508 205.344 191.587 205.344 191.665C205.344 209.523 188.972 224 168.776 224C154.648 224 142.391 216.916 136.301 206.545C129.889 215.885 118.278 222.125 105.018 222.125C85.2008 222.125 69.0653 208.187 68.4665 190.793C29.4723 184.136 0 153.488 0 116.686C0 75.0177 37.7824 41.2387 84.3894 41.2387C90.5554 41.2387 96.567 41.8299 102.357 42.9524C121.675 17.0632 154.711 0 192.221 0C228.943 0 261.378 16.3536 280.85 41.332C325.488 43.3058 361.001 76.2881 361.001 116.686C361.001 158.355 323.219 192.134 276.612 192.134C262.37 192.134 248.952 188.98 237.184 183.41Z" fill="#FBFEFF" />
	<path d="M205.344 191.43L204.806 186.459L200.307 186.945L200.344 191.47L205.344 191.43ZM237.184 183.41L239.323 178.89L237.33 177.947L235.29 178.782L237.184 183.41ZM136.301 206.545L140.612 204.013L136.63 197.232L132.179 203.716L136.301 206.545ZM68.4665 190.793L73.4635 190.621L73.3233 186.55L69.3079 185.864L68.4665 190.793ZM102.357 42.9524L101.405 47.861L104.487 48.4585L106.364 45.9426L102.357 42.9524ZM280.85 41.332L276.907 44.4061L278.325 46.2252L280.629 46.3271L280.85 41.332ZM205.881 196.401C217.584 195.136 228.746 192.265 239.078 188.037L235.29 178.782C225.826 182.655 215.578 185.294 204.806 186.459L205.881 196.401ZM210.344 191.665C210.344 191.574 210.344 191.482 210.343 191.389L200.344 191.47C200.344 191.535 200.344 191.6 200.344 191.665H210.344ZM168.776 229C191.138 229 210.344 212.845 210.344 191.665H200.344C200.344 206.201 186.807 219 168.776 219V229ZM131.989 209.077C139.047 221.095 153.016 229 168.776 229V219C156.279 219 145.735 212.736 140.612 204.013L131.989 209.077ZM132.179 203.716C126.758 211.611 116.737 217.125 105.018 217.125V227.125C119.818 227.125 133.019 220.16 140.423 209.375L132.179 203.716ZM105.018 217.125C87.3382 217.125 73.9516 204.798 73.4635 190.621L63.4694 190.965C64.179 211.576 83.0633 227.125 105.018 227.125V217.125ZM-5 116.686C-5 156.356 26.6798 188.732 67.625 195.722L69.3079 185.864C32.2648 179.54 5 150.621 5 116.686H-5ZM84.3894 36.2387C35.5623 36.2387 -5 71.7444 -5 116.686H5C5 78.2911 40.0025 46.2387 84.3894 46.2387V36.2387ZM103.309 38.0438C97.2056 36.8606 90.8754 36.2387 84.3894 36.2387V46.2387C90.2354 46.2387 95.9284 46.7992 101.405 47.861L103.309 38.0438ZM192.221 -5C153.213 -5 118.658 12.7455 98.3497 39.9623L106.364 45.9426C124.691 21.381 156.209 5 192.221 5V-5ZM284.793 38.2579C264.33 12.0082 230.412 -5 192.221 -5V5C227.475 5 258.426 20.699 276.907 44.4061L284.793 38.2579ZM366.001 116.686C366.001 73.1217 327.862 38.4059 281.071 36.3369L280.629 46.3271C323.113 48.2057 356.001 79.4545 356.001 116.686H366.001ZM276.612 197.134C325.439 197.134 366.001 161.628 366.001 116.686H356.001C356.001 155.081 320.999 187.134 276.612 187.134V197.134ZM235.045 187.929C247.481 193.815 261.63 197.134 276.612 197.134V187.134C263.11 187.134 250.422 184.144 239.323 178.89L235.045 187.929Z" fill="#221856" mask="url(#path-1-inside-1_1655_36673)" />
</svg>
