<svg width="306" height="50" viewBox="0 0 306 50" fill="none" xmlns="http://www.w3.org/2000/svg">
	<g clip-path="url(#clip0_1701_37076)">
		<path d="M264.554 49.9996C260.125 49.9996 256.667 49.3978 254 48.1771C251.333 46.9563 249.653 45.2885 248.468 43.1392C246.031 43.1392 244.055 42.8641 242.376 42.2967C240.647 42.8469 238.639 43.1392 236.383 43.1392C234.127 43.1392 231.954 42.8813 230.258 42.3139C228.546 42.8813 226.537 43.1392 223.952 43.1392C221.367 43.1392 219.326 42.8813 217.613 42.3139C215.901 42.8813 213.876 43.1392 211.274 43.1392C208.031 43.1392 205.709 42.7438 203.734 41.8497C203.119 41.5736 202.529 41.2398 201.972 40.8524C199.864 42.3139 197.345 43.0705 194.48 43.0705C192.093 43.0705 190.018 42.6234 188.24 41.7293C186.396 42.6234 184.289 43.0705 181.918 43.0705C178.954 43.0705 176.32 42.2795 174.163 40.7321C171.745 42.257 168.97 43.0544 166.145 43.0361C164.482 43.0489 162.827 42.7937 161.238 42.2795C159.366 42.9095 157.41 43.223 155.443 43.208C152.002 43.208 148.939 42.1248 146.601 40.1991C145.543 41.0721 144.344 41.7416 143.061 42.1764C140.295 43.1392 137.414 43.1392 135.866 43.1392C133.084 43.1392 130.762 42.7438 128.803 41.9529C126.25 42.7925 123.593 43.2385 120.916 43.2768C119.525 43.2936 118.142 43.049 116.833 42.5546C115.477 42.9843 114.068 43.2045 112.651 43.208C108.749 43.208 105.258 41.6949 102.706 38.9267C99.4958 41.7293 94.9515 43.3456 89.7981 43.3456C86.7521 43.3456 83.9037 42.761 81.4341 41.6434L81.006 41.8497C79.0302 42.7438 76.7087 43.1392 73.4652 43.1392C70.2216 43.1392 67.9001 42.7438 65.9243 41.8497H65.8914C63.6358 42.7954 61.1002 43.2596 58.3341 43.2596C54.6296 43.2596 51.8965 42.2967 49.9372 41.0932C47.7638 42.2795 44.7837 43.2596 40.8322 43.2596C38.2802 43.2596 35.9751 42.8125 33.9664 41.9013C32.0072 42.761 29.7186 43.1564 26.5244 43.1564C23.923 43.1564 21.8979 42.8985 20.1855 42.3311C18.4732 42.8985 16.4481 43.1564 13.8466 43.1564C10.6031 43.1564 8.28159 42.761 6.30583 41.8669C2.4037 40.0787 0.0986508 36.4164 0.0986508 32.0319C0.0828554 30.5933 0.346088 29.1662 0.87249 27.8366V16.6777C0.299571 15.2987 -0.00275082 13.8137 -0.0166016 12.3105C-0.0166016 8.95766 1.41582 6.08628 4.11603 3.98862C7.35956 1.4783 11.9203 -0.0175781 16.3163 -0.0175781C18.6872 -0.0175781 20.4984 0.618602 21.8485 1.42672C23.9164 0.821091 26.0563 0.525834 28.2038 0.549825C32.8469 0.549825 35.8928 2.44116 37.6875 4.95148C39.0235 4.4214 40.4403 4.14763 41.8695 4.14336C45.1789 4.14336 48.1261 5.62204 49.9866 8.04639C52.6209 6.12067 55.5845 4.14336 59.3714 4.14336C60.5573 4.14308 61.7356 4.34043 62.8619 4.72795C63.1363 4.47577 63.4217 4.22933 63.7181 3.98862C66.9616 1.4783 71.5223 -0.0175781 75.9184 -0.0175781C82.2244 -0.0175781 84.6611 4.26372 85.4185 6.10347C85.6891 6.76308 85.8986 7.44824 86.0442 8.14955C87.5445 7.82596 89.0728 7.66464 90.6049 7.66812C96.3181 7.66812 100.418 9.66261 103.118 12.3621C104.993 10.4339 107.33 9.06796 109.885 8.40746C110.544 6.60209 111.729 5.03744 113.375 3.76509L113.425 3.73071C118.051 0.257528 124.094 -0.0175781 125.839 -0.0175781C132.145 -0.0175781 134.582 4.26372 135.339 6.10347C135.592 6.72535 135.791 7.36989 135.932 8.02919C136.758 7.93637 137.588 7.89045 138.418 7.89164C139.605 7.88103 140.787 8.05487 141.925 8.40746C143.253 7.92232 144.651 7.67809 146.058 7.68531C147.26 7.68531 149.878 7.89164 152.397 9.4219C155.097 8.35588 158.258 7.82286 161.831 7.82286C164.959 7.82286 167.725 8.3043 170.047 9.23277C172.138 8.3043 174.69 7.85725 177.933 7.85725C180.255 7.85725 182.329 8.16674 184.108 8.78573C185.902 8.14955 188.01 7.85725 190.677 7.85725C192.949 7.85725 194.991 8.14955 196.753 8.75134C197.226 8.56667 197.71 8.41165 198.201 8.2871C198.931 6.57465 200.084 5.09662 201.544 4.00581C204.787 1.49549 209.348 -0.000383127 213.744 -0.000383127C216.115 -0.000383127 217.926 0.635792 219.276 1.44391C221.344 0.838281 223.484 0.543029 225.632 0.56702C231.822 0.56702 235.362 3.93703 236.63 8.02919C237.423 7.93996 238.22 7.89405 239.017 7.89164C240.403 7.87649 241.781 8.12108 243.084 8.61379C244.793 8.0766 246.569 7.81 248.353 7.82286C251.02 7.82286 253.424 8.47624 255.416 9.74859C258.232 8.47624 261.689 7.82286 265.723 7.82286C266.905 7.82045 268.087 7.88358 269.263 8.012L269.411 7.92603C270.498 7.25546 272.72 5.87995 275.684 5.87995C277.924 5.85999 280.095 6.69104 281.792 8.21833C284.392 7.5969 287.084 7.52092 289.712 7.9948C290.688 7.71644 291.696 7.57762 292.709 7.58215C299.36 7.58215 304.563 12.9295 304.563 19.7555C304.565 20.8385 304.416 21.916 304.119 22.9535C304.813 24.6846 305.166 26.5443 305.156 28.4212C305.156 32.3758 303.707 36.0381 301.105 38.7376C299.08 40.8181 295.376 43.294 289.218 43.294C287.883 43.2953 286.55 43.1803 285.234 42.9501C284.185 43.2685 283.099 43.4306 282.007 43.4315C280.877 44.8673 279.504 46.0738 277.956 46.9907C274.614 49.0024 270.218 49.9824 264.554 49.9824" fill="#FFC2D2" />
		<path d="M299.969 23.1419C300.518 22.1054 300.801 20.9389 300.793 19.7547C300.793 15.1468 297.253 11.536 292.708 11.536C291.766 11.5323 290.833 11.7192 289.959 12.0862C288.76 11.7943 287.534 11.6444 286.304 11.6392C284.319 11.6124 282.349 11.9981 280.508 12.774C279.471 10.7623 277.561 9.81664 275.668 9.81664C273.774 9.81664 272.506 10.5732 271.354 11.2953L271.304 11.3297C270.448 11.8799 270.201 12.0175 269.872 12.069C268.498 11.8627 267.111 11.765 265.723 11.7768C260.635 11.7768 257.26 12.8944 255.037 14.4418C253.457 12.7224 251.168 11.7768 248.353 11.7768C246.13 11.7768 244.335 12.2238 242.886 12.9116C241.849 12.2238 240.548 11.8627 239.017 11.8627C237.088 11.8711 235.17 12.1664 233.32 12.7396C233.371 12.404 233.399 12.065 233.403 11.7252C233.403 8.25199 231.361 4.5381 225.631 4.5381C222.882 4.5381 220.511 5.01953 218.634 5.91362C217.695 4.88198 216.181 3.9707 213.744 3.9707C210.188 3.9707 206.368 5.20866 203.799 7.20316C202.202 8.42393 201.363 10.0058 201.231 11.8799C199.705 11.8901 198.205 12.2978 196.868 13.0663C195.419 12.327 193.427 11.8283 190.693 11.8283C187.96 11.8283 185.721 12.2238 184.14 13.0835C182.708 12.327 180.716 11.8283 177.95 11.8283C174.542 11.8283 172.154 12.3613 170.425 13.4961L170.178 13.6681C167.725 12.2238 164.646 11.7939 161.831 11.7939C157.55 11.7939 154.274 12.6536 151.919 14.012C149.927 11.8971 147.21 11.6564 146.058 11.6564C144.632 11.6477 143.228 12.0144 141.974 12.7224C141.069 12.1894 139.916 11.8799 138.418 11.8799C136.419 11.8899 134.433 12.2086 132.524 12.8256C132.524 10.8999 132.474 9.23205 131.865 7.70179C131.256 6.17153 129.758 3.9879 125.856 3.9879C122.859 3.9879 118.611 4.77882 115.68 6.97964L115.647 7.01403C114.001 8.28638 113.128 9.937 113.063 11.9143C108.189 12.4129 104.748 15.164 103.151 19.6516C101.867 15.3531 97.6187 11.6908 90.6212 11.6908C87.5917 11.6908 84.8751 12.3957 82.6194 13.6853V13.2554C82.6194 11.175 82.6194 9.3696 81.9444 7.73617C81.2693 6.10275 79.8369 4.02228 75.9347 4.02228C72.3784 4.02228 68.5586 5.26025 65.9901 7.25475C65.0845 7.9253 64.3635 8.83245 63.8991 9.88542C62.763 8.81939 61.1824 8.18322 59.3878 8.18322C56.4735 8.18322 54.0861 9.95419 51.5177 11.8455C50.9908 12.241 50.3816 12.7052 49.7395 13.2382C49.2245 13.0169 48.6806 12.8778 48.1259 12.8256C47.418 10.0574 44.9977 8.18322 41.8694 8.18322C39.6796 8.18322 37.7861 9.18047 35.8762 10.4872C35.4152 7.44388 33.2254 4.58969 28.2037 4.58969C25.4541 4.58969 23.0832 5.07112 21.2062 5.9652C20.2677 4.93356 18.753 4.02228 16.3162 4.02228C12.7599 4.02228 8.94006 5.26025 6.37157 7.25475C4.65925 8.57868 3.78662 10.3153 3.78662 12.3957C3.78662 13.8228 4.2641 14.9748 4.57692 15.697L4.67571 15.9549V28.7816C4.14761 29.8 3.87569 30.9418 3.88541 32.1C3.88541 34.9026 5.31783 37.155 7.804 38.2898C9.28582 38.9604 11.1463 39.2527 13.8301 39.2527C16.5138 39.2527 18.3908 38.9604 19.8561 38.2898L20.1525 38.1351L20.4489 38.2898C21.9307 38.9604 23.7912 39.2527 26.4749 39.2527C29.1587 39.2527 31.0356 38.9604 32.501 38.2898C32.9843 38.0683 33.4426 37.7915 33.8675 37.4645C35.3494 38.4789 37.5556 39.3558 40.7662 39.3558C45.4257 39.3558 48.3564 37.7568 50.0358 36.3469C51.3859 37.7396 53.905 39.3558 58.2846 39.3558C61.7422 39.3558 64.2284 38.4789 65.9901 37.4473C66.4246 37.7825 66.8941 38.0651 67.3896 38.2898C68.8714 38.9604 70.7319 39.2527 73.4156 39.2527C76.0994 39.2527 77.9764 38.9604 79.4417 38.2898C80.0739 38.0036 80.662 37.6211 81.187 37.155C83.4591 38.6509 86.3569 39.459 89.7157 39.459C96.1204 39.459 101.142 36.5532 102.986 32.1516C103.396 33.3894 104.003 34.5462 104.781 35.5732C106.641 37.9975 109.407 39.3214 112.585 39.3214C114.101 39.3154 115.599 38.9756 116.981 38.3242C118.018 39.0119 119.319 39.3902 120.867 39.3902C123.188 39.3902 126.498 38.8056 128.951 37.7396C130.449 38.6509 132.639 39.2527 135.833 39.2527C138.566 39.2527 145.613 39.2527 146.222 33.166C147.457 36.9143 150.898 39.3214 155.426 39.3214C157.417 39.3478 159.392 38.9378 161.222 38.1179C162.473 38.7197 164.087 39.1495 166.128 39.1495C169.158 39.1495 172.335 37.9975 174.278 35.5388C175.645 37.3785 177.9 39.1839 181.901 39.1839C184.881 39.1839 186.874 38.307 188.273 37.1378C189.738 38.4274 191.681 39.1839 194.48 39.1839C198.531 39.1839 200.753 37.3098 202.087 35.384C202.793 36.6941 203.901 37.7178 205.232 38.2898C206.714 38.9604 208.574 39.2527 211.258 39.2527C213.942 39.2527 215.818 38.9604 217.284 38.2898L217.58 38.1351L217.877 38.2898C219.358 38.9604 221.219 39.2527 223.903 39.2527C226.586 39.2527 228.463 38.9604 229.929 38.2898L230.209 38.1523L230.488 38.2898C231.97 38.9604 233.765 39.2527 236.333 39.2527C238.902 39.2527 240.944 38.8228 242.359 38.1351L242.886 38.3758C244.302 38.9776 246.081 39.2527 248.468 39.2527C249.309 39.2586 250.15 39.2184 250.987 39.1323C251.382 41.5051 252.979 43.4652 255.482 44.6344C257.655 45.6316 260.619 46.1302 264.521 46.1302C269.51 46.1302 273.28 45.3221 276.03 43.6715C277.841 42.5711 279.207 41.1268 280.08 39.3902C280.675 39.5259 281.282 39.5951 281.891 39.5965C282.925 39.6048 283.95 39.3943 284.904 38.9776C286.311 39.297 287.746 39.4584 289.185 39.459C297.582 39.459 301.352 33.9741 301.352 28.5408C301.375 26.6705 300.883 24.8327 299.936 23.2451" fill="#025563" />
		<path d="M19.2141 28.9708V13.3243C19.2141 9.73076 19.247 7.9082 16.3163 7.9082C13.3856 7.9082 10.5866 8.81948 8.61087 10.3497C7.82056 10.9515 7.55713 11.5189 7.55713 12.3099C7.55713 13.1008 7.78763 13.479 8.0346 14.0464C8.28215 14.5661 8.42239 15.1343 8.44622 15.7143V28.9536C8.45794 29.4687 8.3264 29.9764 8.06753 30.4151C7.83703 30.9137 7.65592 31.2748 7.65592 32.0141C7.65592 34.576 9.97743 35.2122 13.8302 35.2122C17.6829 35.2122 20.0044 34.576 20.0044 32.0141C20.0044 31.2748 19.8398 30.9137 19.5928 30.4151C19.3339 29.9764 19.2024 29.4687 19.2141 28.9536" fill="#5CC1FF" />
		<path d="M31.8919 28.9713V20.959C31.8919 17.5374 31.859 15.8008 28.9941 15.8008C26.1293 15.8008 23.2315 16.5401 21.3216 18.036C20.5313 18.6378 20.3008 19.2052 20.3008 19.9961C20.3008 20.787 20.5313 21.2341 20.7453 21.8187C20.9779 22.3423 21.1067 22.9096 21.124 23.4865V28.9713C21.1357 29.4865 21.0042 29.9941 20.7453 30.4328C20.5148 30.9314 20.3337 31.2925 20.3337 32.0319C20.3337 34.5938 22.6552 35.2299 26.508 35.2299C30.3607 35.2299 32.6822 34.5938 32.6822 32.0319C32.6822 31.2925 32.5176 30.9314 32.2706 30.4328C32.0117 29.9941 31.8802 29.4865 31.8919 28.9713Z" fill="#5CC1FF" />
		<path d="M24.3179 15.7668C27.7591 15.7668 32.1881 14.7008 32.1881 11.709C32.1881 9.38784 30.7227 8.47656 28.2036 8.47656C24.7625 8.47656 20.3335 9.57697 20.3335 12.6719C20.3335 14.8727 21.7989 15.7668 24.3179 15.7668Z" fill="#5CC1FF" />
		<path d="M47.9285 26.5132C46.4961 26.5132 45.8869 27.9403 45.1954 27.9403C44.5038 27.9403 44.5532 27.6136 44.5532 27.0806V23.0228C44.5532 22.8509 44.652 22.7821 44.8661 22.7821H47.6321C48.7517 22.7821 49.4432 21.8193 49.4432 19.7216C49.4432 17.624 48.8505 16.6955 47.6321 16.6955H44.8661C44.6685 16.6955 44.5532 16.6267 44.5532 16.4548V14.529C44.5532 12.8612 43.3678 12.0703 41.8695 12.0703C40.3712 12.0703 38.4284 13.3427 36.2221 14.9933C34.0159 16.6439 32.2047 18.1914 32.2047 20.3234C32.1932 20.8953 32.3371 21.4589 32.6198 21.9488C32.9024 22.4387 33.3123 22.835 33.8018 23.0916V29.4534C33.7689 33.2876 36.4197 35.3165 40.8158 35.3165C47.3522 35.3165 49.9536 31.5167 49.9536 28.7656C49.9536 27.4417 49.2457 26.496 47.945 26.496" fill="#5CC1FF" />
		<path d="M65.4469 26.5132C64.0145 26.5132 63.4053 27.9403 62.7138 27.9403C62.0223 27.9403 62.0717 27.6136 62.0717 27.0806V23.0228C62.0717 22.8509 62.1704 22.7821 62.3845 22.7821H65.1505C66.2701 22.7821 66.9617 21.8193 66.9617 19.7216C66.9617 17.624 66.3854 16.6955 65.1505 16.6955H62.368C62.1704 16.6955 62.0552 16.6267 62.0552 16.4548V14.529C62.0552 12.8612 60.8697 12.0703 59.3714 12.0703C57.8732 12.0703 55.9303 13.3427 53.7241 14.9933C51.5178 16.6439 49.7067 18.1914 49.7067 20.3234C49.6952 20.8953 49.8391 21.4589 50.1217 21.9488C50.4044 22.4387 50.8142 22.835 51.3038 23.0916V29.4534C51.2708 33.2876 53.9216 35.3165 58.3177 35.3165C64.8542 35.3165 67.4556 31.5167 67.4556 28.7656C67.4556 27.4417 66.7476 26.496 65.4469 26.496" fill="#5CC1FF" />
		<path d="M78.8328 28.9708V13.3243C78.8328 9.73076 78.8657 7.9082 75.935 7.9082C73.0043 7.9082 70.2053 8.83668 68.2295 10.3669C67.4392 10.9687 67.1758 11.5361 67.1758 12.327C67.1758 13.118 67.4063 13.4962 67.6533 14.0636C67.9008 14.5833 68.041 15.1515 68.0649 15.7314V28.9708C68.0766 29.4859 67.9451 29.9936 67.6862 30.4323C67.4557 30.9309 67.2746 31.292 67.2746 32.0313C67.2746 34.5932 69.5961 35.2294 73.4488 35.2294C77.3015 35.2294 79.6231 34.5932 79.6231 32.0313C79.6231 31.292 79.4584 30.9309 79.2114 30.4323C78.9526 29.9936 78.821 29.4859 78.8328 28.9708Z" fill="#5CC1FF" />
		<path d="M98.3761 25.9789C97.2565 25.9789 95.6924 26.7182 92.8276 26.7182C91.3293 26.7182 89.9627 26.1852 89.9627 25.7554C89.9627 25.6178 90.0615 25.5834 90.2426 25.5834H96.2687C98.4091 25.5834 99.7756 24.6893 99.7756 22.4197C99.7756 19.2561 96.9437 15.5938 90.6048 15.5938C84.0025 15.5938 79.4912 19.6171 79.4912 26.0477C79.4912 31.9452 83.2781 35.4356 89.7487 35.4356C95.8076 35.4356 100.006 32.375 100.006 28.2141C100.006 26.6495 99.4299 25.9789 98.3761 25.9789ZM89.617 22.3166C89.617 21.1474 89.8475 19.6171 90.4731 19.6171C91.0988 19.6171 91.0823 20.1845 91.0823 20.7519C91.0823 21.8523 90.6048 22.9528 89.9298 22.9528C89.6828 22.9528 89.617 22.712 89.617 22.3166Z" fill="#5CC1FF" />
		<path d="M128.77 28.0095V13.3087C128.77 9.71514 128.803 7.89258 125.872 7.89258C122.941 7.89258 119.846 8.6835 117.903 10.1278C117.113 10.7296 116.849 11.297 116.849 12.0879C116.849 12.8788 117.195 13.2915 117.491 13.9105C117.845 14.5465 118.022 15.2729 118.002 16.0081V16.3692C117.014 15.905 115.927 15.733 114.725 15.733C108.963 15.733 105.9 19.2922 105.9 26.0494C105.9 32.308 108.634 35.2997 112.618 35.2997C113.659 35.2885 114.686 35.0412 115.627 34.5752C116.568 34.1091 117.401 33.4353 118.068 32.6003C118.199 34.4572 118.776 35.3685 120.9 35.3685C123.518 35.3685 126.926 34.5088 128.391 33.546C129.313 32.9442 129.577 32.2736 129.577 31.4827C129.577 30.6918 129.33 30.2447 129.132 29.6601C128.899 29.1365 128.771 28.5692 128.753 27.9923L128.77 28.0095ZM117.508 29.557C117.063 29.557 116.932 29.0927 116.932 24.5019C116.932 19.9111 117.063 19.4469 117.508 19.4469C117.952 19.4469 118.084 19.9111 118.084 24.5019C118.084 29.0927 117.952 29.557 117.508 29.557Z" fill="#5CC1FF" />
		<path d="M146.074 15.5938C143.868 15.5938 142.32 17.0208 141.299 18.9466C141.168 16.8489 140.657 15.8173 138.435 15.8173C135.817 15.8173 132.672 16.5566 130.762 18.0525C129.972 18.6543 129.741 19.2217 129.741 20.0126C129.741 20.8035 129.972 21.2506 130.186 21.8351C130.418 22.3587 130.547 22.9261 130.564 23.503V28.9878C130.576 29.503 130.445 30.0106 130.186 30.4493C129.955 30.9479 129.774 31.309 129.774 32.0484C129.774 34.6102 132.227 35.2464 135.833 35.2464C140.229 35.2464 142.468 34.7134 142.468 32.2547C142.468 31.395 142.156 30.9823 141.826 30.4321C141.497 29.8819 141.316 29.7616 141.316 28.9706V24.0188C141.316 23.6577 141.448 23.5545 141.629 23.5545C142.386 23.5545 142.172 27.6811 145.86 27.6811C149.021 27.6811 150.487 25.2224 150.487 21.2849C150.487 17.3475 148.824 15.5938 146.058 15.5938" fill="#5CC1FF" />
		<path d="M171.924 28.817C171.314 28.3872 171.067 27.8542 171.067 26.8569V22.8851C171.067 20.6155 171.067 15.7324 161.831 15.7324C155.08 15.7324 150.931 18.3287 150.931 21.4236C150.931 23.1258 152.199 24.0887 154.652 24.0887C157.517 24.0887 159.048 23.229 159.394 21.2861C159.559 20.4264 159.559 19.8934 159.937 19.8934C160.316 19.8934 160.316 20.3232 160.316 20.6843V24.0887C160.316 24.4498 160.316 24.6217 159.904 24.5873C158.762 24.4499 157.613 24.381 156.463 24.381C152.446 24.381 149.515 25.7393 149.515 29.9002C149.515 33.4938 152.166 35.3163 155.442 35.3163C157.994 35.3163 159.97 34.5254 161.337 33.425C162.358 34.4566 163.922 35.1272 166.145 35.1272C170.376 35.1272 172.385 32.6685 172.385 29.7111C172.385 29.1437 172.319 29.0749 171.94 28.817H171.924ZM160.053 31.0178C159.707 31.0178 159.476 30.588 159.476 29.1265C159.476 27.665 159.707 27.3555 160.053 27.3555C160.398 27.3555 160.596 28.3184 160.596 29.0233C160.596 30.588 160.464 31.0178 160.053 31.0178Z" fill="#5CC1FF" />
		<path d="M201.395 15.8C198.465 15.8 197.312 17.3647 197.312 19.1872C197.312 20.4768 197.888 20.8206 197.888 21.8523C197.888 22.4885 197.691 23.3138 197.411 24.4486C197.345 24.6893 197.279 24.8784 197.065 24.8784C196.851 24.8784 196.785 24.7409 196.719 24.4486C196.308 22.8151 196.242 22.4197 196.242 21.9898C196.242 20.855 196.818 20.5283 196.818 19.256C196.818 16.8316 194.678 15.7656 190.693 15.7656C185.886 15.7656 184.387 16.9692 184.387 19.256C184.387 20.4596 184.964 20.8894 184.964 21.8867C184.964 22.4885 184.799 23.3138 184.486 24.4486C184.42 24.6893 184.354 24.8784 184.14 24.8784C183.926 24.8784 183.861 24.7409 183.795 24.4486C183.416 22.9527 183.317 22.4197 183.317 21.9554C183.317 20.855 183.893 20.5971 183.893 19.256C183.893 16.9864 182.231 15.7656 177.933 15.7656C172.418 15.7656 171.084 17.2959 171.084 19.6515C171.084 21.1817 171.627 21.8867 172.138 22.6432C172.846 23.6748 172.846 23.7092 174.146 26.6322L176.056 30.8619C176.912 32.7532 177.966 35.1604 181.885 35.1604C185.803 35.1604 186.824 33.2003 187.779 31.137C187.911 30.8103 187.977 30.604 188.257 30.604C188.537 30.604 188.569 30.7759 188.734 31.137C190.101 33.9912 191.187 35.1604 194.464 35.1604C198.135 35.1604 199.173 33.0283 200.161 30.8619L202.103 26.6322C202.96 24.7752 203.289 23.7092 204.244 22.3681C204.82 21.5772 205.512 20.5971 205.512 19.2044C205.512 17.1411 204.079 15.8172 201.395 15.8172" fill="#5CC1FF" />
		<path d="M216.658 28.9708V13.3243C216.658 9.73076 216.691 7.9082 213.761 7.9082C210.83 7.9082 208.031 8.83668 206.055 10.3669C205.265 10.9687 205.001 11.5361 205.001 12.327C205.001 13.118 205.232 13.4962 205.479 14.0636C205.726 14.5833 205.867 15.1515 205.891 15.7314V28.9708C205.902 29.4859 205.771 29.9936 205.512 30.4323C205.281 30.9309 205.1 31.292 205.1 32.0313C205.1 34.5932 207.422 35.2294 211.274 35.2294C215.127 35.2294 217.449 34.5932 217.449 32.0313C217.449 31.292 217.284 30.9309 217.037 30.4323C216.778 29.9936 216.647 29.4859 216.658 28.9708Z" fill="#5CC1FF" />
		<path d="M229.336 28.9713V20.959C229.336 17.5374 229.303 15.8008 226.438 15.8008C223.574 15.8008 220.676 16.5401 218.766 18.036C217.976 18.6378 217.745 19.2052 217.745 19.9961C217.745 20.787 217.976 21.2341 218.19 21.8187C218.422 22.3423 218.551 22.9096 218.568 23.4865V28.9713C218.58 29.4865 218.449 29.9941 218.19 30.4328C217.959 30.9314 217.778 31.2925 217.778 32.0319C217.778 34.5938 220.1 35.2299 223.952 35.2299C227.805 35.2299 230.127 34.5938 230.127 32.0319C230.127 31.2925 229.962 30.9314 229.715 30.4328C229.456 29.9941 229.325 29.4865 229.336 28.9713Z" fill="#5CC1FF" />
		<path d="M221.762 15.7668C225.203 15.7668 229.632 14.7008 229.632 11.709C229.632 9.38784 228.167 8.47656 225.648 8.47656C222.207 8.47656 217.778 9.57697 217.778 12.6719C217.778 14.8727 219.243 15.7668 221.762 15.7668Z" fill="#5CC1FF" />
		<path d="M253.72 28.9714V21.6983C253.72 18.0016 252.189 15.7148 248.369 15.7148C245.208 15.7148 243.117 16.9184 241.866 18.6034C241.734 16.7121 241.158 15.8008 239.034 15.8008C236.416 15.8008 233.271 16.5402 231.361 18.036C230.571 18.6378 230.34 19.2052 230.34 19.9961C230.34 20.7871 230.571 21.2341 230.785 21.8187C231.017 22.3423 231.146 22.9096 231.164 23.4865V28.9714C231.175 29.4865 231.044 29.9942 230.785 30.4329C230.554 30.9315 230.373 31.2926 230.373 32.0319C230.373 34.5938 232.827 35.23 236.366 35.23C239.643 35.23 242.261 34.6626 242.261 32.2382C242.249 31.7335 242.182 31.2317 242.063 30.7424C241.956 30.2636 241.912 29.772 241.931 29.2809V23.8132C241.931 23.0739 241.997 22.5408 242.442 22.5408C242.886 22.5408 242.952 23.0739 242.952 23.8132V29.2981C242.972 29.7892 242.927 30.2808 242.821 30.7595C242.702 31.2489 242.635 31.7507 242.623 32.2554C242.623 34.6798 245.241 35.2472 248.517 35.2472C252.057 35.2472 254.511 34.611 254.511 32.0491C254.511 31.3097 254.346 30.9487 254.099 30.4501C253.84 30.0114 253.709 29.5037 253.72 28.9886" fill="#5CC1FF" />
		<path d="M273.132 28.8162C270.58 28.8162 266.694 30.3464 263.056 30.3464C261.788 30.3464 261.525 30.1745 261.525 29.6415C261.525 29.4696 261.557 29.0741 261.804 29.0741C262.051 29.0741 262.348 29.2116 264.389 29.2116C271.98 29.2116 275.766 26.3575 275.766 21.9558V21.5603C276.928 20.1546 277.57 18.3619 277.578 16.5053C277.578 14.6484 276.903 13.7715 275.701 13.7715C274.91 13.7715 274.235 14.1326 273.313 14.7C272.095 15.4909 271.305 15.9723 269.74 16.0583C268.424 15.828 267.091 15.7187 265.756 15.7316C257.985 15.7316 254.609 18.5342 254.609 22.8843C254.609 25.0163 255.433 26.6497 257.161 27.6814C255.894 28.7474 255.054 30.2433 255.054 32.169C255.049 33.3337 255.382 34.4728 256.009 35.4359C255.219 36.0033 254.708 36.7942 254.708 37.8602C254.708 40.4221 257.672 42.0899 264.554 42.0899C272.902 42.0899 277.528 39.6312 277.528 33.94C277.528 30.3808 275.717 28.8162 273.132 28.8162ZM264.406 19.4627C264.752 19.4627 265.015 19.8581 265.707 22.3169C266.118 23.7784 266.25 24.6209 266.25 24.9819C266.25 25.343 266.085 25.4462 265.904 25.4462C265.723 25.4462 265.328 25.0163 264.636 22.6436C264.192 21.1133 264.06 20.288 264.06 19.9441C264.06 19.6002 264.192 19.4799 264.406 19.4799V19.4627ZM265.328 38.7199C262.875 38.7199 261.475 38.4276 260.734 38.0493C260.454 37.9118 260.388 37.8086 260.388 37.7226C260.388 37.6367 260.454 37.6195 260.553 37.6195C260.652 37.6195 261.409 37.7914 262.94 37.7914C265.295 37.7914 268.769 37.2928 270.02 37.2928C270.531 37.2928 270.695 37.3616 270.695 37.5335C270.695 38.0665 269.098 38.7027 265.311 38.7027" fill="#5CC1FF" />
		<path d="M290.469 21.3545C288.494 20.7527 287.604 20.7527 287.604 20.1165C287.604 19.8242 287.835 19.6523 288.247 19.6523C289.103 19.6523 290.766 20.3916 291.721 20.9246C292.988 21.6296 293.894 22.3517 294.849 22.3517C295.804 22.3517 296.989 21.4232 296.989 19.7554C296.989 17.1935 295.046 15.4913 292.692 15.4913C291.863 15.4695 291.057 15.7767 290.436 16.351C289.103 15.8646 287.7 15.6147 286.287 15.6117C281.035 15.6117 277.874 18.569 277.874 22.5924C277.874 27.5099 282.533 28.7822 284.558 29.384C286.584 29.9858 287.423 30.0202 287.423 30.5876C287.423 30.8283 287.226 31.0175 286.748 31.0175C285.925 31.0175 284.394 30.4844 283.027 29.7795C281.661 29.0745 280.739 28.1805 279.586 28.1805C278.434 28.1805 277.38 29.1777 277.38 30.8111C277.38 33.4418 279.224 35.5738 281.908 35.5738C282.961 35.5738 283.785 35.2128 284.328 34.6454C285.903 35.171 287.548 35.4378 289.202 35.4363C294.651 35.4363 297.582 32.4789 297.582 28.4556C297.582 23.3318 292.445 21.9734 290.469 21.3717" fill="#5CC1FF" />
		<path d="M18.8023 31.0006C18.6871 31.0349 18.259 29.8142 18.0449 27.7681C17.9297 26.7537 17.8638 25.5329 17.8309 24.1918C17.798 22.8506 17.765 21.372 17.765 19.8245C17.7486 16.7296 17.7815 13.927 17.8474 11.8981C17.8753 11.4573 17.8753 11.015 17.8474 10.5742C17.8289 10.2595 17.7564 9.95078 17.6333 9.66287C17.5581 9.48441 17.4456 9.32579 17.304 9.19863C17.2052 9.11267 17.1394 9.06108 17.1558 9.0267C17.1723 8.99231 17.2546 8.97511 17.4028 9.0267C17.6289 9.10326 17.8252 9.25403 17.9626 9.45654C18.1757 9.76364 18.3219 10.1158 18.3907 10.4882C18.4796 10.9527 18.5291 11.4245 18.5389 11.8981C18.6377 13.927 18.72 16.7296 18.7364 19.8245C18.7529 21.372 18.7529 22.8506 18.7364 24.1918C18.72 25.5329 18.72 26.7365 18.7364 27.7337C18.7858 29.7454 18.9505 30.9834 18.8188 31.0177" fill="#CAFBFF" />
		<path d="M28.6319 14.1668C28.5989 14.0293 28.9776 13.8401 29.4551 13.4791C29.7272 13.2742 29.9709 13.0312 30.1796 12.7569C30.4133 12.4391 30.5713 12.0678 30.6406 11.6737C30.7136 11.2991 30.6793 10.9104 30.5418 10.5561C30.4121 10.2631 30.2139 10.0089 29.9655 9.81675C29.521 9.47287 29.1258 9.45568 29.1094 9.30093C29.0929 9.14619 29.1917 9.14619 29.4057 9.0946C29.7053 9.03474 30.0151 9.07069 30.2948 9.19777C30.729 9.37952 31.0937 9.7059 31.3321 10.1262C31.6147 10.654 31.7081 11.2697 31.5955 11.8628C31.4965 12.4324 31.2388 12.9587 30.8546 13.3759C30.5522 13.6989 30.1874 13.951 29.7844 14.1152C29.523 14.2291 29.2442 14.2932 28.9612 14.3044C28.7636 14.3044 28.6483 14.2528 28.6319 14.2012" fill="#CAFBFF" />
		<path d="M31.4146 33.4939C31.3652 33.4423 31.5298 33.236 31.5134 32.8405C31.503 32.5945 31.4412 32.3539 31.3322 32.1356C31.217 31.8605 31.0194 31.5853 30.8054 31.2071C30.5722 30.783 30.4002 30.3253 30.295 29.8488C30.1755 29.3186 30.1093 28.777 30.0974 28.2325C30.0809 27.6651 30.1139 27.0805 30.1303 26.4787L30.2291 24.639C30.3114 23.3838 30.3938 22.1803 30.4925 21.097L30.6243 19.5668C30.6687 19.1551 30.6632 18.7391 30.6078 18.3288C30.5751 18.0489 30.4789 17.7811 30.3271 17.5478C30.1753 17.3146 29.9724 17.1225 29.7352 16.9877C29.6015 16.9122 29.4569 16.8599 29.3071 16.8329C29.1918 16.8157 29.126 16.7986 29.126 16.7642C29.126 16.7298 29.1754 16.6782 29.2906 16.6266C29.4771 16.5632 29.6772 16.5572 29.8669 16.6094C30.1693 16.6802 30.448 16.8346 30.6737 17.0565C30.8147 17.1926 30.9367 17.3489 31.0359 17.5207C31.1427 17.7154 31.2256 17.9234 31.2828 18.1397C31.3993 18.611 31.4492 19.0976 31.431 19.584C31.4146 20.0826 31.3981 20.5984 31.3816 21.1486C31.3322 22.2318 31.2828 23.4354 31.2005 24.6906L31.0853 26.5303C31.0359 27.1149 31.0029 27.6823 30.9865 28.1981C30.97 29.247 31.1017 30.1583 31.4146 30.846C31.5807 31.1906 31.7237 31.5468 31.8426 31.912C31.9386 32.2172 31.9557 32.5434 31.892 32.8577C31.8521 33.0607 31.7546 33.2464 31.6121 33.3907C31.5134 33.4767 31.431 33.4939 31.4146 33.4767" fill="#CAFBFF" />
		<path d="M43.8122 16.7298C43.6805 16.7298 43.5653 16.4375 43.4665 15.9732C43.4142 15.7004 43.3757 15.4249 43.3512 15.1479C43.3183 14.8384 43.3183 14.4774 43.2854 14.1851C43.2754 13.9476 43.2074 13.7167 43.0878 13.5145C42.962 13.3507 42.805 13.216 42.6268 13.119L42.1822 12.8439C42.067 12.758 42.0176 12.6892 42.0176 12.6204C42.0176 12.5516 42.0999 12.5 42.2481 12.4657C42.4429 12.4217 42.6439 12.4159 42.8408 12.4485C43.1743 12.498 43.4849 12.6541 43.7299 12.8955C43.8875 13.0559 44.011 13.2493 44.0921 13.4629C44.1698 13.6667 44.2197 13.8808 44.2403 14.0991C44.2574 14.2877 44.2629 14.4772 44.2568 14.6665C44.2568 14.8384 44.2403 14.9932 44.2403 15.1651C44.2212 15.4418 44.1883 15.7173 44.1415 15.9904C44.0592 16.4719 43.9439 16.7641 43.8122 16.7641" fill="#CAFBFF" />
		<path d="M47.9942 22.3174C47.9119 22.1971 48.093 21.922 48.1918 21.4233C48.2536 21.1291 48.2921 20.8301 48.3071 20.5293C48.33 20.1571 48.33 19.7838 48.3071 19.4117C48.2875 19.0786 48.2094 18.7523 48.0766 18.4488C47.9628 18.2133 47.7996 18.0076 47.5991 17.847C47.4592 17.7277 47.304 17.6293 47.1381 17.5547C47.0064 17.5031 46.9076 17.4687 46.8911 17.3828C46.8746 17.2968 46.9405 17.228 47.1216 17.1593C47.3763 17.0825 47.648 17.0946 47.8954 17.1936C48.2717 17.3376 48.5945 17.6025 48.8175 17.9502C49.0689 18.3573 49.2162 18.825 49.2455 19.3085C49.2745 19.7517 49.2468 20.1969 49.1632 20.6324C49.1012 21.0012 48.9787 21.3561 48.801 21.6813C48.6794 21.9123 48.5038 22.1074 48.2906 22.2487C48.1424 22.3346 48.0272 22.3518 47.9778 22.3002" fill="#CAFBFF" />
		<path d="M44.4051 28.4737C44.415 28.493 44.4186 28.5151 44.4157 28.5367C44.4127 28.5583 44.4033 28.5784 44.3887 28.5941C44.3404 28.6629 44.2704 28.7116 44.1911 28.7316C44.0661 28.7658 43.9341 28.7598 43.8124 28.7144L43.5984 28.5941C43.5225 28.5366 43.4558 28.467 43.4008 28.3878C43.2962 28.2267 43.2234 28.0455 43.1868 27.8547C43.15 27.6788 43.1225 27.5008 43.1044 27.3217C43.0621 26.9393 43.0401 26.5547 43.0386 26.1697C43.0386 24.5191 43.4008 23.2124 43.6642 23.2468C43.9277 23.2811 43.9935 24.5879 43.9935 26.1697C43.9935 26.5652 43.9935 26.9435 43.9771 27.2873V27.7516C43.9723 27.8493 43.9778 27.9474 43.9935 28.0439C44.0153 28.1622 44.0802 28.267 44.1746 28.3362C44.257 28.405 44.3393 28.405 44.3887 28.4737" fill="#CAFBFF" />
		<path d="M44.5039 33.9056C44.4545 33.7681 44.9484 33.5101 45.6564 33.0115C46.5606 32.3808 47.3519 31.5893 47.9944 30.6731C48.1733 30.4136 48.3382 30.1438 48.4883 29.865C48.6278 29.6171 48.7489 29.3585 48.8506 29.0913C48.9277 28.8834 48.9614 28.6606 48.9494 28.4379C48.9328 28.2443 48.8767 28.0567 48.7847 27.8877C48.6425 27.617 48.439 27.3868 48.192 27.2172C48.0109 27.0796 47.8792 27.028 47.8792 26.9421C47.8792 26.8561 48.0273 26.8045 48.3072 26.8389C48.7109 26.9124 49.0745 27.1389 49.328 27.4751C49.5224 27.7123 49.6581 27.9957 49.7232 28.3004C49.7874 28.6491 49.7704 29.0088 49.6738 29.3492C49.579 29.6827 49.4521 30.0053 49.2951 30.3121C48.5754 31.7732 47.4031 32.9368 45.9692 33.6133C45.1131 33.9916 44.5368 34.0088 44.5039 33.8884" fill="#CAFBFF" />
		<path d="M61.0674 16.7303C60.9357 16.7131 60.8533 16.4208 60.8039 15.9565C60.7545 15.4923 60.7216 14.9077 60.6064 14.3059C60.5617 14.0443 60.4842 13.7899 60.3759 13.5494C60.3354 13.4635 60.2857 13.3827 60.2277 13.3087C60.1802 13.2491 60.1247 13.197 60.063 13.1539C59.9571 13.0821 59.8402 13.0297 59.7173 12.9992C59.6185 12.9648 59.5197 12.9648 59.4868 12.896C59.4538 12.8272 59.4703 12.7413 59.602 12.6209C59.6997 12.5514 59.81 12.5034 59.926 12.4798C60.0421 12.4561 60.1615 12.4573 60.2771 12.4834C60.4418 12.5118 60.5989 12.5763 60.7381 12.6725C60.8912 12.7788 61.0251 12.9127 61.1332 13.068C61.3498 13.3858 61.4961 13.7499 61.5613 14.134C61.679 14.7671 61.6564 15.4199 61.4955 16.0425C61.3637 16.5067 61.2156 16.7647 61.0838 16.7475" fill="#CAFBFF" />
		<path d="M65.0186 21.888C64.9857 21.8192 65.0351 21.7332 65.1174 21.5785C65.2209 21.3881 65.3037 21.1862 65.3644 20.9767C65.4487 20.662 65.5038 20.3395 65.529 20.0138C65.5773 19.6203 65.5828 19.2223 65.5455 18.8274C65.5205 18.5094 65.379 18.2138 65.1503 18.0021C64.9212 17.8233 64.6569 17.6999 64.3765 17.6411L63.7014 17.4691C63.5368 17.4175 63.438 17.366 63.438 17.2972C63.438 17.2284 63.5203 17.1596 63.685 17.0908C64.1026 16.9394 64.5509 16.9038 64.9857 16.9877C65.2186 17.0303 65.4419 17.1178 65.6443 17.2456C65.8819 17.3997 66.0797 17.6122 66.2205 17.8646C66.3596 18.1188 66.4492 18.3993 66.484 18.6899C66.5404 19.184 66.5125 19.6846 66.4016 20.1686C66.3259 20.5708 66.1808 20.9553 65.9735 21.3034C65.8285 21.5553 65.617 21.7582 65.3644 21.888C65.1832 21.9739 65.068 21.9567 65.0351 21.888" fill="#CAFBFF" />
		<path d="M61.94 28.5766C61.94 28.6454 61.8412 28.7141 61.6436 28.6969C61.511 28.6722 61.3849 28.618 61.2741 28.5379C61.1633 28.4578 61.0704 28.3537 61.0015 28.2327C60.8204 27.9082 60.7186 27.542 60.7052 27.1667C60.6722 26.8056 60.6558 26.4101 60.6558 25.9975C60.6558 24.3468 60.9851 23.0229 61.2485 23.0573C61.5119 23.0917 61.6107 24.3984 61.6107 26.0147C61.6107 26.4101 61.5942 26.8056 61.5778 27.1495C61.5515 27.4071 61.5571 27.6671 61.5942 27.9232C61.625 28.0729 61.6869 28.2138 61.7753 28.3359C61.8412 28.439 61.9235 28.4906 61.9235 28.5594" fill="#CAFBFF" />
		<path d="M60.4418 34.2146C60.4253 34.0599 61.0015 33.9395 61.7919 33.5269C62.2558 33.2841 62.6968 32.9963 63.109 32.6672C63.6102 32.2612 64.0733 31.8063 64.492 31.3088C64.92 30.8048 65.3212 30.2767 65.694 29.727C65.8492 29.5073 65.9817 29.271 66.0891 29.022C66.1307 28.9221 66.1637 28.8185 66.1879 28.7125V28.5578C66.1907 28.512 66.1907 28.4661 66.1879 28.4203C66.1829 28.253 66.1436 28.0888 66.0727 27.9388C66.0208 27.8173 65.9483 27.7066 65.8586 27.6121C65.7104 27.4574 65.5622 27.4058 65.5622 27.337C65.5622 27.2683 65.7269 27.1651 66.0397 27.2683C66.2534 27.3544 66.4425 27.4958 66.5894 27.6793C66.7363 27.8628 66.8361 28.0822 66.8794 28.3171C66.896 28.3964 66.9071 28.4768 66.9123 28.5578C66.9165 28.638 66.9165 28.7183 66.9123 28.7985C66.9011 28.9616 66.8735 29.1229 66.83 29.2799C66.7376 29.6061 66.6048 29.9182 66.4349 30.2084C66.0769 30.8322 65.6635 31.4194 65.2 31.9622C64.732 32.5161 64.1948 33.0019 63.603 33.4065C63.1145 33.7382 62.5819 33.9931 62.0224 34.163C61.649 34.282 61.2602 34.34 60.8698 34.335C60.5899 34.3178 60.4418 34.2662 60.4418 34.1974" fill="#CAFBFF" />
		<path d="M77.812 17.2799C77.5486 17.2799 77.351 15.0447 77.3675 12.3108C77.3935 11.7071 77.3604 11.1022 77.2687 10.5055C77.228 10.2725 77.1559 10.0468 77.0546 9.83489C76.9645 9.65633 76.8478 9.49383 76.7089 9.35346C76.503 9.14013 76.2478 8.98613 75.968 8.90642C75.7704 8.85484 75.6222 8.83764 75.6057 8.76886C75.5893 8.70009 75.6881 8.57973 75.968 8.51095C76.3718 8.44351 76.7849 8.54212 77.1205 8.78606C77.3588 8.9438 77.5657 9.14814 77.7297 9.38785C77.915 9.65903 78.0542 9.96147 78.1413 10.2819C78.3224 10.9353 78.3389 11.6403 78.3389 12.328C78.3224 15.079 78.0919 17.2971 77.8285 17.2971" fill="#CAFBFF" />
		<path d="M77.6968 22.3342C77.4334 22.2998 77.3016 21.4916 77.3346 20.5288C77.3675 19.5659 77.5815 18.7578 77.845 18.7578C78.1084 18.7578 78.3389 19.5659 78.2895 20.5632C78.2401 21.5604 77.9602 22.3513 77.6968 22.3342Z" fill="#CAFBFF" />
		<path d="M77.4329 33.4415C77.3835 33.3899 77.4658 33.2523 77.614 33.046C77.8163 32.7878 77.9877 32.5049 78.1244 32.2035C78.198 32.0246 78.2317 31.8306 78.2232 31.6361C78.2023 31.4323 78.1219 31.2402 77.9927 31.0859C77.7793 30.8194 77.5918 30.5314 77.4329 30.2262C77.2894 29.8541 77.2113 29.458 77.2024 29.057C77.0976 27.8312 77.1252 26.5969 77.2847 25.3775C77.4164 24.449 77.614 23.8816 77.7293 23.8988C77.8445 23.916 77.9268 26.2028 78.1574 28.971C78.1606 29.2572 78.205 29.5412 78.2891 29.8135C78.421 30.0757 78.5695 30.3285 78.7336 30.5701C78.8317 30.7308 78.9092 30.9042 78.9641 31.0859C79.0137 31.2703 79.0305 31.4626 79.0135 31.6533C78.9876 31.9671 78.8856 32.2689 78.7172 32.5302C78.5898 32.7258 78.4343 32.8998 78.2561 33.046C78.1276 33.1511 77.9897 33.2432 77.8445 33.3211C77.614 33.4415 77.4658 33.4759 77.4329 33.4243" fill="#CAFBFF" />
		<path d="M88.8104 23.1598C88.6952 23.2286 88.4647 23.0566 88.2671 22.6612C88.1564 22.423 88.0841 22.1674 88.053 21.9046C87.9705 21.2628 88.092 20.6104 88.3988 20.0477C88.5255 19.8213 88.6868 19.618 88.8763 19.4459C89.2056 19.1536 89.4855 19.102 89.5513 19.188C89.6172 19.274 89.5349 19.5319 89.4032 19.8586C89.2714 20.1852 89.2714 20.2196 89.1891 20.426C89.0391 20.8868 88.9505 21.367 88.9257 21.8531C88.9092 22.0766 88.9092 22.2829 88.9092 22.472C88.9092 22.6612 88.9092 23.091 88.794 23.1598" fill="#CAFBFF" />
		<path d="M96.7956 24.6213C96.812 24.5525 96.9932 24.5182 97.2566 24.415C97.6158 24.2554 97.9201 23.9856 98.1292 23.6413C98.275 23.4163 98.381 23.1659 98.442 22.9019C98.4585 22.8331 98.4585 22.7644 98.475 22.6956C98.4914 22.6268 98.4914 22.558 98.4914 22.4721C98.4884 22.3104 98.4719 22.1493 98.442 21.9906C98.3268 21.3373 97.9481 20.6495 97.4212 20.0133C96.9194 19.4113 96.35 18.8744 95.7254 18.4143C95.2054 18.0324 94.6545 17.6987 94.0789 17.4171C93.091 16.9356 92.416 16.7465 92.4324 16.6089C92.4489 16.4714 92.63 16.5058 92.9593 16.5058C93.4234 16.5316 93.8825 16.6183 94.3259 16.7637C94.9909 16.9685 95.6275 17.2633 96.2193 17.6406C96.9482 18.1122 97.6034 18.6979 98.1621 19.3772C98.7549 20.0993 99.2159 20.9762 99.3311 21.8703C99.3569 22.087 99.3624 22.3058 99.3476 22.5237C99.3476 22.6268 99.3147 22.7472 99.3147 22.8503C99.2924 22.9549 99.2649 23.0582 99.2324 23.1598C99.1171 23.5166 98.9321 23.8445 98.689 24.1227C98.5223 24.3263 98.3186 24.4935 98.0897 24.6145C97.8608 24.7355 97.6112 24.8079 97.3554 24.8276H97.1249L96.9602 24.7761C96.8779 24.7417 96.8285 24.7073 96.845 24.6729" fill="#CAFBFF" />
		<path d="M95.4784 33.0804C95.4454 33.0289 95.6265 32.8397 95.9558 32.5474C96.4322 32.1606 96.8884 31.7473 97.3224 31.3095C97.6062 31.0151 97.855 30.686 98.0633 30.3294C98.2907 29.9386 98.447 29.5072 98.5243 29.0571C98.5599 28.8239 98.5654 28.5868 98.5408 28.3521C98.5312 28.154 98.4806 27.9605 98.3926 27.7847H98.3103L98.1292 27.8535C97.8378 27.9667 97.541 28.0643 97.2401 28.1458C96.6542 28.2919 96.0604 28.401 95.4619 28.4725L93.8154 28.6444C93.3002 28.6892 92.782 28.6835 92.2677 28.6272C91.8013 28.5768 91.3456 28.4491 90.9176 28.2489C90.564 28.0784 90.241 27.8457 89.9627 27.5612C89.7531 27.3472 89.5805 27.0971 89.4523 26.8219C89.2547 26.3576 89.2876 26.0825 89.337 26.0653C89.3864 26.0481 89.5017 26.2888 89.7651 26.6155C90.1375 27.0691 90.6214 27.4079 91.1646 27.5956C91.5376 27.7204 91.9256 27.7898 92.3171 27.8019C92.7846 27.8179 93.2526 27.7949 93.7166 27.7331L95.3137 27.5096C95.857 27.4236 96.4333 27.3205 96.9767 27.1829L97.7834 26.925L98.0304 26.839C98.1429 26.8055 98.2592 26.7881 98.3762 26.7875C98.5167 26.7875 98.6554 26.8216 98.7811 26.8873C98.9069 26.953 99.0162 27.0483 99.1006 27.1657C99.2223 27.3397 99.3065 27.5392 99.3476 27.7503C99.3813 27.9146 99.4034 28.0813 99.4134 28.2489C99.4347 28.5715 99.4125 28.8956 99.3476 29.2118C99.1063 30.2428 98.5375 31.1581 97.734 31.8081C97.2341 32.2264 96.6866 32.5786 96.104 32.8569C95.6924 33.046 95.4619 33.1148 95.429 33.0632" fill="#CAFBFF" />
		<path d="M116.422 29.6942C116.372 29.7458 116.208 29.677 116.026 29.4363C115.782 29.0908 115.619 28.6904 115.549 28.2671C115.5 28.0092 115.45 27.7341 115.417 27.459C115.384 27.1839 115.335 26.8572 115.318 26.5305C115.253 25.8771 115.22 25.155 115.236 24.3813C115.232 23.0774 115.348 21.7761 115.582 20.4954C115.621 20.2532 115.687 20.0166 115.779 19.7905C115.854 19.6067 115.966 19.4423 116.109 19.309C116.201 19.2239 116.316 19.1699 116.438 19.1543C116.52 19.1543 116.57 19.1715 116.586 19.2059C116.603 19.2403 116.487 19.3606 116.389 19.567C116.279 19.8922 116.234 20.2374 116.257 20.5814C116.24 21.5615 116.191 22.9026 116.191 24.3813C116.191 25.1206 116.191 25.8256 116.208 26.4789L116.24 28.1811C116.244 28.5406 116.288 28.8984 116.372 29.2472C116.438 29.4879 116.487 29.6426 116.438 29.6942" fill="#CAFBFF" />
		<path d="M127.453 33.0469C127.387 32.9953 127.584 32.703 127.683 32.0841C127.735 31.7138 127.74 31.3382 127.7 30.9665C127.644 30.4635 127.561 29.9641 127.453 29.4706C127.316 28.8406 127.212 28.2036 127.14 27.5621C127.057 26.8743 127.025 26.135 126.992 25.3612C126.959 23.8138 126.959 22.1288 127.008 20.3406C127.057 18.5524 127.14 16.8674 127.255 15.3372C127.304 14.5634 127.37 13.8413 127.436 13.1535C127.51 12.543 127.554 11.929 127.568 11.3138C127.578 10.8367 127.494 10.3625 127.321 9.92107C127.181 9.59101 126.973 9.29741 126.712 9.06138C126.267 8.68311 125.905 8.66591 125.921 8.57994C125.938 8.49397 126.004 8.51117 126.185 8.51117C126.446 8.5192 126.701 8.59609 126.926 8.73469C127.286 8.95584 127.587 9.26952 127.798 9.64597C128.067 10.1416 128.224 10.6941 128.259 11.2622C128.294 11.9095 128.289 12.5585 128.243 13.2051L128.144 15.3716C128.078 16.9018 128.029 18.5868 127.979 20.3406C127.93 22.0944 127.897 23.7966 127.897 25.3097C127.897 26.0662 127.914 26.7883 127.947 27.4589C127.979 28.1295 128.062 28.7312 128.128 29.3158C128.204 29.8451 128.242 30.3796 128.243 30.9149C128.247 31.3351 128.186 31.7532 128.062 32.1528C127.981 32.4029 127.859 32.6359 127.7 32.8406C127.584 32.9781 127.502 33.0297 127.486 33.0125" fill="#CAFBFF" />
		<path d="M117.393 32.1691C117.59 32.341 117.376 32.96 116.833 33.4414C116.29 33.9229 115.68 34.0432 115.532 33.8197C115.384 33.5962 115.73 33.1148 116.207 32.6849C116.685 32.2551 117.179 31.9972 117.393 32.1691Z" fill="#CAFBFF" />
		<path d="M140.591 19.5666C140.46 19.515 140.46 19.2227 140.377 18.8444C140.31 18.3714 140.12 17.9268 139.826 17.5597C139.533 17.1926 139.148 16.9172 138.714 16.764C138.369 16.6264 138.105 16.5577 138.072 16.4201C138.039 16.2826 138.122 16.2826 138.237 16.1966C138.416 16.1046 138.613 16.0575 138.813 16.059C139.107 16.0529 139.399 16.1115 139.669 16.231C140.012 16.378 140.315 16.6097 140.554 16.9062C140.792 17.2027 140.957 17.5551 141.036 17.9332C141.103 18.2323 141.108 18.5429 141.052 18.8444C141.018 19.0495 140.939 19.2437 140.822 19.4118C140.74 19.5322 140.641 19.5666 140.591 19.5494" fill="#CAFBFF" />
		<path d="M140.789 34.0776C140.756 34.0088 140.855 33.9056 140.954 33.6993C141.077 33.414 141.123 33.0987 141.086 32.788C141.065 32.5754 141.015 32.3669 140.937 32.169C140.855 31.9455 140.723 31.6876 140.592 31.4297C140.432 31.1257 140.295 30.8096 140.18 30.484C140.057 30.1073 139.99 29.7129 139.983 29.3149C139.966 28.9194 139.999 28.5583 140.015 28.2316C140.032 27.9049 140.065 27.5611 140.081 27.2516C140.131 26.6326 140.197 26.0652 140.262 25.601C140.394 24.6725 140.526 24.0879 140.674 24.0879C140.822 24.0879 140.905 24.6897 140.954 25.6182C140.97 26.0824 140.987 26.6498 140.987 27.2688C140.987 27.5783 140.987 27.905 140.97 28.2488C140.954 28.5927 140.954 28.9366 140.954 29.2633C140.959 29.5661 141.003 29.8669 141.086 30.1574C141.175 30.4494 141.28 30.7364 141.399 31.0171C141.517 31.3016 141.616 31.5946 141.695 31.8939C141.773 32.1845 141.801 32.4873 141.777 32.788C141.768 33.0097 141.717 33.2273 141.627 33.4281C141.536 33.6288 141.408 33.8087 141.25 33.9572C141.003 34.1464 140.822 34.1464 140.806 34.0776" fill="#CAFBFF" />
		<path d="M147.655 26.2711C147.54 26.1679 147.951 25.6177 148.297 24.6204C148.643 23.6232 148.89 22.1789 148.775 20.5455C148.737 19.7993 148.593 19.0632 148.347 18.3618C148.149 17.8137 147.827 17.3239 147.408 16.9347C147.118 16.667 146.783 16.4572 146.42 16.3158C146.157 16.2126 145.992 16.161 145.992 16.0922C145.992 16.0235 146.157 15.9375 146.486 15.9375C146.955 15.9472 147.412 16.0963 147.803 16.3673C148.395 16.7641 148.864 17.3315 149.153 18.0008C149.49 18.7819 149.685 19.6213 149.73 20.4767C149.765 20.9113 149.771 21.348 149.746 21.7834C149.726 22.188 149.676 22.5903 149.598 22.987C149.473 23.6679 149.245 24.3237 148.923 24.9299C148.708 25.3413 148.43 25.7131 148.1 26.0303C147.869 26.2539 147.704 26.3226 147.655 26.2711Z" fill="#CAFBFF" />
		<path d="M158.966 19.2051C159.098 19.2051 159.213 19.4802 159.197 19.9444C159.189 20.2133 159.145 20.4796 159.065 20.7353C158.862 21.3642 158.49 21.9191 157.995 22.3344C157.795 22.504 157.573 22.6429 157.336 22.747C156.924 22.919 156.645 22.9018 156.595 22.7814C156.546 22.6611 156.71 22.4375 156.974 22.1624L157.402 21.6638C157.55 21.4747 157.715 21.2683 157.863 21.0448C158.011 20.8213 158.143 20.5806 158.258 20.3743L158.554 19.7897C158.719 19.4458 158.851 19.2051 158.983 19.2051" fill="#CAFBFF" />
		<path d="M170.985 29.0567C170.953 29.1083 170.706 28.9879 170.393 28.644C169.967 28.1353 169.662 27.5284 169.504 26.873C169.385 26.4342 169.302 25.9855 169.257 25.5319C169.207 25.0505 169.191 24.5347 169.191 24.0017C169.174 22.9528 169.191 21.8008 168.894 20.7348C168.599 19.7304 168.02 18.8431 167.232 18.1901C166.58 17.6509 165.829 17.2587 165.025 17.0381C164.459 16.8841 163.88 16.7862 163.296 16.7458C162.885 16.7114 162.638 16.6942 162.621 16.6082C162.605 16.5223 162.835 16.4363 163.28 16.3503C163.901 16.2426 164.536 16.2426 165.157 16.3503C166.11 16.5006 167.014 16.89 167.791 17.4851C168.255 17.8373 168.666 18.2604 169.01 18.7403C169.38 19.2637 169.659 19.8517 169.833 20.4769C169.994 21.088 170.082 21.7174 170.096 22.351C170.113 22.9528 170.096 23.503 170.08 24.036C170.063 24.5691 170.047 25.0505 170.063 25.4975C170.075 25.9124 170.114 26.326 170.179 26.7355C170.265 27.3234 170.443 27.8925 170.706 28.4205C170.903 28.7988 171.035 29.0051 170.985 29.0567Z" fill="#CAFBFF" />
		<path d="M171.447 30.7078C171.333 30.6652 171.231 30.5944 171.15 30.5015C171.115 30.4725 171.088 30.4347 171.07 30.3916C171.053 30.3485 171.046 30.3015 171.051 30.255C171.056 30.2086 171.073 30.1642 171.098 30.1261C171.124 30.088 171.159 30.0574 171.2 30.0372C171.295 29.9581 171.409 29.9049 171.529 29.8825C171.591 29.8719 171.655 29.8765 171.716 29.8959C171.776 29.9153 171.831 29.949 171.877 29.9943C171.923 30.0396 171.959 30.0954 171.981 30.1574C172.003 30.2193 172.011 30.2856 172.004 30.3513C171.998 30.417 171.977 30.4802 171.943 30.5361C171.909 30.5919 171.864 30.6389 171.81 30.6734C171.756 30.7079 171.695 30.7289 171.632 30.7349C171.569 30.7408 171.506 30.7316 171.447 30.7078Z" fill="#CAFBFF" />
		<path d="M167.561 34.2497C167.544 34.1122 167.758 33.9574 168.104 33.7511C168.45 33.5448 168.895 33.2869 169.356 32.9602C169.817 32.6335 170.212 32.2724 170.508 32.0145C170.804 31.7566 171.035 31.6019 171.15 31.6706C171.265 31.7394 171.249 32.0317 171.035 32.4616C170.914 32.7036 170.765 32.9289 170.59 33.1321C170.169 33.6309 169.638 34.0146 169.043 34.2497C168.799 34.3455 168.544 34.409 168.285 34.4389C167.841 34.4904 167.561 34.4045 167.544 34.2669" fill="#CAFBFF" />
		<path d="M158.983 31.1903C158.884 31.2763 158.62 31.1216 158.34 30.7261C157.997 30.2041 157.808 29.5883 157.797 28.9551C157.79 28.6062 157.834 28.2582 157.929 27.9235C157.968 27.7767 158.018 27.633 158.077 27.4936C158.137 27.3574 158.215 27.2302 158.308 27.1154C158.444 26.9284 158.645 26.8049 158.867 26.7715C159.032 26.7715 159.114 26.8403 159.114 26.909C159.114 26.9778 159.048 27.0466 159.016 27.1326C158.958 27.2412 158.914 27.3567 158.884 27.4764C158.862 27.567 158.846 27.6589 158.834 27.7515C158.818 27.8547 158.801 27.9923 158.785 28.1126C158.757 28.3867 158.746 28.6624 158.752 28.9379C158.772 29.442 158.839 29.9428 158.95 30.4338C159.032 30.8293 159.098 31.1044 158.983 31.1903Z" fill="#CAFBFF" />
		<path d="M183.087 25.5334C182.971 25.5849 182.56 25.0003 182.148 23.8999C182.049 23.6248 181.951 23.3153 181.852 22.9887C181.74 22.6096 181.679 22.2161 181.671 21.8195C181.67 21.5806 181.703 21.343 181.77 21.1145C181.837 20.8939 181.925 20.6808 182.033 20.4783C182.231 20.1001 182.428 19.7734 182.494 19.4639C182.562 19.1385 182.545 18.8 182.445 18.4838C182.354 18.1865 182.189 17.9196 181.967 17.7101C181.539 17.2975 180.913 17.1083 180.42 16.9364C179.415 16.6269 178.74 16.5753 178.724 16.4206C178.707 16.2658 178.888 16.283 179.201 16.2314C179.65 16.1728 180.104 16.1786 180.551 16.2486C180.863 16.2914 181.172 16.3604 181.473 16.455C181.848 16.5705 182.2 16.757 182.51 17.0052C182.883 17.3219 183.163 17.7407 183.32 18.2144C183.477 18.6882 183.504 19.1982 183.4 19.6874C183.344 19.9397 183.255 20.1827 183.136 20.4096C183.021 20.6159 182.922 20.805 182.823 20.9598C182.739 21.1075 182.667 21.2629 182.609 21.424C182.562 21.5624 182.535 21.7072 182.527 21.8539C182.519 22.1713 182.547 22.4887 182.609 22.7995C182.659 23.1262 182.725 23.4185 182.774 23.6936C183.004 24.7768 183.186 25.4646 183.07 25.5334" fill="#CAFBFF" />
		<path d="M195.946 24.6046C195.896 24.639 195.748 24.5187 195.534 24.2436C195.247 23.8558 195.004 23.4346 194.809 22.9884C194.666 22.6691 194.556 22.3348 194.48 21.9912C194.391 21.5736 194.374 21.1426 194.431 20.7188C194.464 20.4901 194.519 20.2654 194.595 20.0483L194.809 19.4637C194.874 19.3041 194.918 19.1365 194.941 18.965C194.957 18.8197 194.94 18.6726 194.892 18.5352C194.757 18.2207 194.541 17.9525 194.266 17.7615C193.976 17.5526 193.66 17.385 193.328 17.2628C192.734 17.0302 192.114 16.8799 191.484 16.8158C190.397 16.7126 189.689 16.8502 189.656 16.6954C189.623 16.5407 189.788 16.5063 190.101 16.3859C190.545 16.217 191.011 16.1185 191.484 16.0936C192.196 16.0572 192.909 16.1503 193.591 16.3687C194.011 16.4953 194.411 16.6865 194.777 16.9361C194.982 17.0784 195.17 17.2458 195.336 17.4348C195.521 17.6457 195.666 17.8906 195.764 18.1569C195.871 18.4409 195.911 18.7476 195.88 19.051C195.848 19.3115 195.781 19.5661 195.682 19.8075L195.435 20.3921C195.371 20.553 195.321 20.72 195.287 20.8908C195.155 21.5441 195.27 22.1975 195.419 22.7477C195.567 23.2979 195.748 23.7449 195.847 24.0544C195.946 24.3639 195.978 24.5703 195.929 24.6046" fill="#CAFBFF" />
		<path d="M199.272 30.0541C199.157 29.9853 199.486 29.0396 200.111 27.5437C200.424 26.8044 200.819 25.9275 201.248 24.9475C201.478 24.466 201.692 23.9502 201.972 23.4172C202.261 22.8572 202.609 22.3324 203.009 21.8525C203.421 21.3711 203.816 20.9585 204.112 20.5286C204.392 20.1583 204.558 19.7091 204.59 19.2391C204.601 18.8114 204.498 18.3889 204.294 18.0183C204.11 17.6879 203.857 17.4056 203.553 17.193C203.078 16.8779 202.534 16.6944 201.972 16.66C201.56 16.6256 201.313 16.6428 201.297 16.574C201.28 16.5052 201.495 16.3677 201.956 16.2645C202.238 16.2103 202.526 16.1987 202.812 16.2301C203.197 16.2729 203.571 16.3895 203.915 16.574C204.382 16.831 204.774 17.2136 205.052 17.6821C205.33 18.1506 205.483 18.6881 205.496 19.2391C205.5 19.5666 205.45 19.8924 205.347 20.2019C205.242 20.5124 205.098 20.8072 204.919 21.0788C204.563 21.5787 204.178 22.0553 203.767 22.5059C203.026 23.3656 202.565 24.4144 202.071 25.3601C201.577 26.3058 201.132 27.1483 200.737 27.8532C199.963 29.2631 199.42 30.1056 199.305 30.0369" fill="#CAFBFF" />
		<path d="M186.874 30.4668C186.989 30.5184 187.022 30.8107 186.94 31.2577C186.832 31.8525 186.601 32.4157 186.265 32.9083C185.91 33.4388 185.393 33.8271 184.799 34.0087C184.617 34.0631 184.426 34.0749 184.239 34.0431C184.108 34.0087 184.025 33.9572 184.025 33.8884C184.025 33.8196 184.239 33.6133 184.536 33.3726C184.905 33.0721 185.232 32.7191 185.507 32.3237C185.837 31.8423 186.1 31.3437 186.33 30.9998C186.561 30.6559 186.759 30.4324 186.89 30.484" fill="#CAFBFF" />
		<path d="M216.444 32.2901C216.411 32.3073 216.345 32.2386 216.247 32.1182C216.103 31.9241 215.976 31.717 215.868 31.4992C215.488 30.6909 215.227 29.8272 215.094 28.9373C214.908 27.6343 214.831 26.3169 214.864 24.9999C214.864 23.5384 214.896 21.9222 214.929 20.2372C214.995 16.85 215.127 13.7894 215.259 11.5886C215.307 11.1286 215.279 10.6633 215.176 10.2131C215.093 9.89836 214.914 9.62059 214.666 9.42217C214.508 9.29049 214.321 9.20187 214.123 9.16427C213.974 9.14707 213.892 9.14707 213.876 9.11268C213.859 9.07829 213.941 9.00952 214.106 8.97513C214.364 8.92247 214.632 8.965 214.864 9.09549C215.029 9.18339 215.179 9.29962 215.308 9.43936C215.463 9.60889 215.586 9.80718 215.67 10.024C215.855 10.5286 215.944 11.0657 215.934 11.6058C215.967 13.8238 215.967 16.8843 215.884 20.2716C215.851 21.9566 215.802 23.5728 215.753 25.0343C215.685 26.3118 215.696 27.5925 215.786 28.8685C215.853 29.7187 216.002 30.5597 216.23 31.3789L216.428 32.0494C216.477 32.2042 216.477 32.3073 216.444 32.3245" fill="#CAFBFF" />
		<path d="M228.579 18.4824C228.447 18.534 228.282 18.3793 228.101 18.1729C227.894 17.9091 227.675 17.6566 227.443 17.4164C227.22 17.2136 226.971 17.0456 226.702 16.9178C226.488 16.8146 226.307 16.7458 226.257 16.6083C226.251 16.565 226.257 16.5208 226.275 16.481C226.292 16.4413 226.32 16.4078 226.356 16.3848C226.475 16.2884 226.618 16.2289 226.768 16.2128C227.006 16.1864 227.248 16.2142 227.475 16.2943C227.702 16.3744 227.91 16.505 228.085 16.6771C228.421 16.993 228.646 17.4163 228.727 17.8806C228.776 18.2245 228.71 18.448 228.595 18.4824" fill="#CAFBFF" />
		<path d="M227.789 13.6005C227.723 13.463 227.97 13.2395 228.101 12.7924C228.185 12.5383 228.225 12.2703 228.217 12.0015C228.208 11.6887 228.129 11.3824 227.986 11.1074C227.673 10.5228 227.114 10.1446 226.669 9.90385C226.224 9.66313 225.912 9.54278 225.912 9.40522C225.912 9.26767 226.274 9.13012 226.867 9.23328C227.222 9.29006 227.563 9.41854 227.871 9.61155C228.269 9.85642 228.598 10.2063 228.826 10.626C229.051 11.0624 229.143 11.5605 229.089 12.0531C229.049 12.4466 228.907 12.8213 228.678 13.1363C228.527 13.3478 228.322 13.5091 228.085 13.6005C227.92 13.6521 227.805 13.6349 227.772 13.5834" fill="#CAFBFF" />
		<path d="M228.233 33.1502C228.2 33.0815 228.365 32.9611 228.48 32.7032C228.63 32.3112 228.63 31.8744 228.48 31.4824C228.366 31.182 228.234 30.8891 228.085 30.6055C228.003 30.4336 227.92 30.2617 227.854 30.0553C227.779 29.8484 227.718 29.6357 227.673 29.4192C227.587 28.9763 227.527 28.5284 227.492 28.078C227.443 27.631 227.426 27.1496 227.393 26.6681C227.318 25.0187 227.4 23.3656 227.64 21.7335C227.838 20.4783 228.085 19.739 228.2 19.7562C228.315 19.7733 228.167 22.8683 228.348 26.6337C228.365 27.098 228.398 27.5622 228.414 28.0092C228.431 28.4563 228.464 28.8861 228.53 29.2472C228.556 29.4275 228.595 29.6056 228.645 29.7802C228.694 29.9522 228.76 30.1241 228.809 30.296C228.942 30.6299 229.047 30.975 229.122 31.3277C229.27 32.0498 229.04 32.6688 228.76 32.9611C228.658 33.0767 228.527 33.1601 228.381 33.2018C228.283 33.219 228.217 33.219 228.217 33.1846" fill="#CAFBFF" />
		<path d="M240.565 19.1699C240.433 19.1527 240.351 18.912 240.219 18.6369L240.104 18.4134L239.972 18.1727C239.756 17.8171 239.476 17.5078 239.149 17.2614L238.919 17.1067L238.704 16.9863C238.441 16.8316 238.227 16.7456 238.211 16.608C238.194 16.4705 238.26 16.4705 238.359 16.4017L238.556 16.3157C238.648 16.2916 238.742 16.2801 238.836 16.2813L239.182 16.3157C239.312 16.3422 239.439 16.3825 239.561 16.4361C239.835 16.5622 240.083 16.7443 240.289 16.9716C240.496 17.1989 240.657 17.467 240.763 17.76C240.808 17.888 240.841 18.0205 240.861 18.1555C240.881 18.2747 240.886 18.396 240.878 18.5166C240.874 18.6158 240.857 18.7141 240.828 18.8089C240.813 18.8822 240.785 18.952 240.746 19.0152C240.68 19.1184 240.614 19.1699 240.549 19.1527" fill="#CAFBFF" />
		<path d="M239.808 33.6479C239.791 33.5791 239.923 33.4931 240.071 33.2868C240.27 33.0071 240.385 32.6719 240.4 32.324C240.412 32.0713 240.401 31.8179 240.367 31.5674C240.334 31.2923 240.285 30.9484 240.236 30.6218C240.153 29.934 240.087 29.1775 240.055 28.3865C240.022 27.5956 240.022 26.8391 240.055 26.1341C240.075 25.5089 240.152 24.8871 240.285 24.2772C240.375 23.8575 240.519 23.4526 240.713 23.0736C240.861 22.8157 240.977 22.6954 241.042 22.7125C241.108 22.7297 241.009 23.3831 240.96 24.3804C240.927 24.879 240.927 25.4636 240.944 26.1341C240.96 26.8047 240.993 27.544 241.026 28.335L241.125 30.5358C241.141 30.8797 241.158 31.1892 241.158 31.5158C241.168 31.8277 241.14 32.1397 241.075 32.4443C241.031 32.6799 240.94 32.9036 240.81 33.1016C240.68 33.2997 240.512 33.468 240.318 33.5963C240.022 33.7682 239.84 33.7167 239.824 33.6651" fill="#CAFBFF" />
		<path d="M251.794 34.0092C251.777 33.9748 251.843 33.9233 251.942 33.8373C252.084 33.7153 252.206 33.5701 252.304 33.4074C252.454 33.1616 252.555 32.8868 252.601 32.5993C252.659 32.21 252.642 31.8125 252.551 31.4301C252.469 30.9831 252.304 30.5017 252.156 29.9515C251.992 29.3405 251.898 28.7114 251.876 28.0773C251.827 26.7362 252.041 25.3263 252.189 23.8992C252.264 23.2144 252.286 22.5244 252.255 21.8359C252.224 21.2157 252.113 20.6028 251.926 20.0133C251.617 19.0272 250.965 18.1985 250.098 17.6922C249.479 17.3439 248.828 17.0617 248.155 16.8497C247.661 16.6777 247.398 16.5746 247.414 16.5058C247.431 16.437 247.711 16.4198 248.238 16.4714C248.988 16.5489 249.722 16.7521 250.411 17.0732C251.196 17.4447 251.86 18.0485 252.321 18.8098C252.49 19.099 252.634 19.4041 252.749 19.7211C253.226 21.0106 253.292 22.5237 253.144 24.0195C252.996 25.5154 252.765 26.8565 252.765 28.0773C252.761 28.6493 252.816 29.22 252.93 29.7795C253.045 30.3125 253.177 30.8455 253.226 31.3614C253.253 31.6068 253.259 31.8542 253.243 32.1007C253.23 32.3282 253.191 32.5533 253.128 32.7713C253.027 33.1208 252.846 33.4394 252.601 33.6997C252.446 33.8638 252.253 33.9824 252.041 34.0436C251.893 34.078 251.81 34.0608 251.81 34.0436" fill="#CAFBFF" />
		<path d="M265.41 26.3743C265.394 26.4259 265.246 26.4775 265.048 26.3571C264.786 26.1934 264.575 25.9547 264.439 25.6694C264.34 25.4974 264.274 25.3255 264.175 25.1535L263.912 24.5689C263.731 24.1563 263.55 23.6749 263.369 23.1934C263.188 22.712 263.023 22.2306 262.891 21.7663C262.764 21.3487 262.692 20.9148 262.677 20.4768C262.669 20.1698 262.725 19.8645 262.842 19.5827C262.924 19.3764 263.023 19.3076 263.089 19.3248C263.155 19.342 263.188 19.789 263.352 20.3908C263.452 20.7537 263.573 21.1097 263.714 21.4568C263.879 21.8695 264.077 22.3337 264.241 22.8324C264.406 23.331 264.587 23.8124 264.719 24.2423L264.9 24.8612L265.032 25.3943C265.082 25.6267 265.16 25.8518 265.262 26.0648C265.344 26.2196 265.41 26.3055 265.377 26.3743" fill="#CAFBFF" />
		<path d="M269.197 27.4077C269.181 27.3389 269.378 27.2014 269.74 27.0122C270.103 26.8231 270.662 26.548 271.288 26.1869C272.008 25.7871 272.641 25.237 273.149 24.5707C273.428 24.1978 273.635 23.7714 273.758 23.3155C273.814 23.0608 273.852 22.8022 273.873 22.5418C273.901 22.2063 273.973 21.8765 274.087 21.5617C274.217 21.2548 274.383 20.966 274.581 20.702L275.042 20.0315C275.319 19.6094 275.567 19.1669 275.783 18.7075C276.152 17.9409 276.37 17.1049 276.425 16.2488C276.425 16.0769 276.442 15.8877 276.425 15.733C276.418 15.5933 276.395 15.455 276.359 15.3203C276.333 15.2098 276.289 15.1051 276.228 15.0108C276.18 14.9354 276.119 14.871 276.046 14.8217C275.75 14.6326 275.536 14.7701 275.503 14.7013C275.47 14.6326 275.503 14.5982 275.618 14.5294C275.704 14.4761 275.8 14.4424 275.899 14.4306C275.999 14.4187 276.099 14.429 276.195 14.4606C276.336 14.5031 276.466 14.5797 276.573 14.6841C276.698 14.8054 276.799 14.9516 276.87 15.114C276.947 15.2892 277.002 15.4742 277.034 15.6642C277.067 15.8576 277.089 16.0528 277.1 16.2488C277.138 17.2243 276.957 18.1956 276.573 19.0858C276.362 19.606 276.109 20.1065 275.816 20.5817L275.338 21.3038C275.188 21.5055 275.061 21.7248 274.96 21.9572C274.88 22.1901 274.831 22.4329 274.812 22.6793C274.785 22.9867 274.735 23.2913 274.663 23.5906C274.498 24.1723 274.218 24.7112 273.84 25.1725C273.228 25.9145 272.455 26.4923 271.584 26.8575C271.027 27.1047 270.448 27.2947 269.856 27.4249C269.444 27.5108 269.197 27.528 269.181 27.4593" fill="#CAFBFF" />
		<path d="M269.148 17.0208C269.131 17.2959 268.588 17.4851 267.929 17.4335C267.271 17.3819 266.76 17.124 266.777 16.8489C266.793 16.5738 267.337 16.3846 267.995 16.4362C268.654 16.4878 269.164 16.7457 269.148 17.0208Z" fill="#CAFBFF" />
		<path d="M263.089 31.4138C263.105 31.5513 262.908 31.7061 262.529 31.8093C262.309 31.8716 262.082 31.9006 261.854 31.8952C261.546 31.8896 261.242 31.8133 260.965 31.6717C260.687 31.5335 260.455 31.313 260.297 31.0378C260.139 30.7626 260.062 30.4449 260.076 30.1243C260.083 29.9254 260.159 29.7362 260.29 29.5912C260.389 29.5053 260.471 29.4881 260.537 29.5225C260.591 29.5773 260.626 29.6502 260.636 29.7288C260.664 29.8413 260.702 29.9508 260.751 30.0555C260.816 30.193 260.899 30.3204 260.998 30.4337C261.109 30.567 261.243 30.6777 261.393 30.7604C261.752 30.9165 262.128 31.0262 262.513 31.0871C262.842 31.1559 263.089 31.2591 263.089 31.3966" fill="#CAFBFF" />
		<path d="M271.255 39.7688C271.222 39.7 271.403 39.5624 271.716 39.3561C272.029 39.1498 272.507 38.8575 273.033 38.4792C273.661 38.0425 274.236 37.5288 274.746 36.9489C275.349 36.2633 275.789 35.4386 276.03 34.5418C276.142 34.0933 276.181 33.6283 276.145 33.1663C276.11 32.7379 276.004 32.3192 275.832 31.9283C275.553 31.2594 275.066 30.7082 274.449 30.3637C274.007 30.1389 273.525 30.0102 273.033 29.9854C272.671 29.951 272.457 29.951 272.441 29.8822C272.424 29.8135 272.605 29.6931 273 29.5899C273.238 29.536 273.482 29.5129 273.725 29.5212C274.056 29.5279 274.385 29.5918 274.696 29.7103C275.529 30.0473 276.21 30.6975 276.606 31.5328C276.851 32.0143 277.007 32.539 277.067 33.0803C277.124 33.657 277.079 34.2397 276.936 34.7997C276.657 35.8554 276.118 36.816 275.371 37.5851C274.781 38.19 274.103 38.6948 273.363 39.081C272.878 39.3379 272.371 39.5452 271.848 39.7C271.469 39.8031 271.255 39.8203 271.239 39.7688" fill="#CAFBFF" />
		<path d="M267.435 39.288C267.452 39.4256 266.991 39.6147 266.217 39.8038C265.185 40.0423 264.125 40.1177 263.072 40.0274C261.821 39.907 260.701 39.46 260.026 38.9613C259.351 38.4627 259.071 37.9641 259.154 37.8781C259.236 37.7921 259.664 38.05 260.356 38.3423C261.25 38.7173 262.194 38.9492 263.155 39.0301C264.291 39.1333 265.344 39.0817 266.135 39.0989C266.925 39.1161 267.419 39.1505 267.435 39.288Z" fill="#CAFBFF" />
		<path d="M293.828 33.2698C293.779 33.2182 293.943 32.9775 294.24 32.5648C294.643 31.9917 294.985 31.3749 295.261 30.7251C295.44 30.2905 295.568 29.8342 295.639 29.3668C295.719 28.8467 295.702 28.3155 295.59 27.8021C295.463 27.2393 295.221 26.7116 294.882 26.2546C294.503 25.7513 294.053 25.3107 293.548 24.9479C292.495 24.1742 291.309 23.7099 290.206 23.2801C289.103 22.8502 288.098 22.4204 287.308 21.9046L286.748 21.5263C286.576 21.3933 286.421 21.2372 286.287 21.0621C286.16 20.8958 286.07 20.702 286.024 20.4947C285.985 20.3186 285.99 20.1348 286.04 19.9617C286.07 19.8429 286.125 19.7329 286.202 19.6404C286.28 19.5479 286.376 19.4754 286.485 19.4286C286.633 19.3771 286.715 19.4115 286.715 19.4458C286.715 19.4802 286.65 19.5146 286.584 19.6006C286.497 19.7019 286.439 19.8261 286.416 19.9596C286.393 20.093 286.405 20.2305 286.452 20.3571C286.507 20.4811 286.585 20.5922 286.682 20.6838C286.966 20.9252 287.283 21.1222 287.621 21.2684C288.559 21.7013 289.521 22.0745 290.502 22.386C291.062 22.5751 291.655 22.7987 292.264 23.0738C292.908 23.3536 293.52 23.7053 294.092 24.1226C294.677 24.5435 295.194 25.0602 295.623 25.6529C295.829 25.9486 296.005 26.2655 296.15 26.5985C296.286 26.9177 296.385 27.2524 296.446 27.5958C296.559 28.2277 296.548 28.8771 296.413 29.5043C296.296 30.0336 296.107 30.543 295.853 31.0174C295.503 31.6887 295.047 32.2933 294.503 32.8055C294.108 33.1666 293.861 33.3042 293.828 33.2526" fill="#CAFBFF" />
		<path d="M296.084 21.4236C296.034 21.372 296.084 21.2517 296.1 21.0797C296.112 20.8256 296.09 20.5709 296.034 20.3232C295.919 19.6354 295.705 18.6898 295.162 17.8645C294.704 17.169 294.009 16.683 293.219 16.5061C292.61 16.3686 292.182 16.4718 292.116 16.3342C292.05 16.1967 292.165 16.1623 292.363 16.0419C292.641 15.8853 292.952 15.8026 293.268 15.8012C293.742 15.793 294.211 15.9051 294.635 16.1279C294.89 16.2554 295.128 16.4173 295.343 16.6093C295.568 16.8176 295.767 17.0544 295.936 17.3143C296.254 17.8029 296.478 18.352 296.594 18.9305C296.689 19.3877 296.722 19.8564 296.693 20.3232C296.695 20.6663 296.597 21.0019 296.413 21.2861C296.248 21.4924 296.1 21.5096 296.067 21.458" fill="#CAFBFF" />
		<path d="M289.729 17.2968C289.646 17.4172 289.399 17.3828 289.07 17.2968L287.786 16.9185L286.502 16.5747C286.156 16.4715 285.925 16.3683 285.925 16.2308C285.925 16.0932 286.139 15.9385 286.518 15.8697C287.025 15.7861 287.542 15.8132 288.038 15.9494C288.534 16.0855 288.998 16.3277 289.399 16.6606C289.696 16.9357 289.811 17.1764 289.745 17.2796" fill="#CAFBFF" />
		<path d="M288.016 32.1342C288.033 32.2717 287.522 32.4781 286.649 32.5468C286.138 32.5753 285.624 32.5465 285.118 32.4609C284.491 32.3605 283.877 32.1815 283.291 31.9278C282.722 31.6687 282.177 31.358 281.661 30.9994L280.442 30.1913C279.751 29.7442 279.273 29.5551 279.306 29.4175C279.339 29.28 279.454 29.3144 279.718 29.3144C280.067 29.3363 280.411 29.4116 280.739 29.5379C281.208 29.7217 281.665 29.94 282.105 30.1913C282.599 30.4492 283.11 30.7587 283.669 30.9822C284.636 31.3899 285.649 31.6672 286.682 31.8075C287.489 31.9278 288.016 31.9622 288.033 32.0998" fill="#CAFBFF" />
	</g>
	<defs>
		<clipPath id="clip0_1701_37076">
			<rect width="305.172" height="50" fill="white" />
		</clipPath>
	</defs>
</svg>
