<svg width="921" height="1409" viewBox="0 0 921 1409" fill="none" xmlns="http://www.w3.org/2000/svg">
	<ellipse rx="259.339" ry="254.015" transform="matrix(-1 0 0 1 457.868 665.335)" fill="white" />
	<ellipse rx="258.891" ry="254.015" transform="matrix(-1 0 0 1 661.312 437.599)" fill="white" />
	<ellipse rx="259.339" ry="253.577" transform="matrix(-1 0 0 1 457.868 254.094)" fill="white" />
	<ellipse rx="175.277" ry="171.679" transform="matrix(-1 0 0 1 281.696 1014.83)" fill="white" />
	<ellipse rx="157.392" ry="133.139" transform="matrix(-1 0 0 1 559.815 1168.99)" fill="white" />
	<ellipse cx="249.053" cy="254.532" rx="228.486" ry="212.847" fill="white" />
	<ellipse cx="230.275" cy="651.321" rx="228.486" ry="212.847" fill="white" />
	<ellipse cx="228.486" cy="771.321" rx="228.486" ry="212.847" fill="white" />
	<ellipse cx="701.557" cy="1231.61" rx="94.3456" ry="88.0292" fill="white" />
	<ellipse rx="84.5086" ry="69.635" transform="matrix(-1 0 0 1 635.378 918.912)" fill="white" />
	<ellipse rx="107.313" ry="90.6569" transform="matrix(-1 0 0 1 370.227 1318.33)" fill="white" />
</svg>
