<?xml version="1.0" encoding="UTF-8"?>
<svg xmlns="http://www.w3.org/2000/svg" width="809.702" height="388.734" viewBox="0 0 809.702 388.734">
  <g id="a" data-name="Layer 1"/>
  <g id="b" data-name="Layer 2">
    <g id="c" data-name="Layer 1">
      <g>
        <path d="M797.195,157.256c-15.175-18.475-45.985-26.489-68.967-19.358-7.862-2.758-16.499-3.287-24.762-4.455-16.028-10.212-37.898-10.662-55.609-6.898,22.211-13.845,13.646-51.5-12.068-54.582,7.056-11.22-2.206-27.358-15.574-27.022-18.873-.027-24.579,25.96-7.883,34.124-10.432,9.583-14.82,27.17-7.306,39.785-.931-.125-1.87-.232-2.818-.317-4.26-.445-8.694-.466-12.87-.024-5.943-2.338-12.348-3.823-18.862-4.311-9.483-.7-19.379,.58-28.334,3.85-4.607-.663-8.93-1.686-13.171-3.772-8.621-41.013-65.675-44.64-78.249-4.185-12.916-3.211-26.941-2.229-39.438,2.412-7.47-2.961-15.741-4.502-24.053-4.434-7.933-.484-15.621,3.528-23.404,1.144,7.674-19.247,7.806-43.133-3.97-60.861,22.187-5.304,21.296-29.427,7.093-43.197-15.003-14.231-36.008,3.695-34.401,21.205-57.026-22.083-130.455,24.88-103.276,88.98-7.121,1.223-14.616,3.491-20.91,6.616-8.45,.763-16.887,1.12-25.264,2.515-9.656-1.718-19.559-3.809-30.308-2.209-8.594,.917-17.829,1.888-25.655,5.156-5.003-.58-10.152-.567-15.322,.126-6.452,.683-14.078,3.667-20.897,4.972-12.606-.192-26.757,1.932-38.921,3.584C8.388,143.873-7.516,177.849,3.252,206.547c1.163,22.289,17.575,40.634,39.716,46.133-14.982,27.93-1.098,48.803,15.59,70.517-18.874,6.332-13.732,34.906,5.973,34.881,9.347,0,18.293-8.162,17.996-17.792,15.976,5.622,29.897,2.294,45.192-.669,6.877,.009,14.118-1.234,20.523-3.506,8.26,.975,16.628-1.301,24.883-1.751,50.567-6.416,100.99-10.359,151.865-11.936-28.119,43.946,22.69,82.771,61.672,54.251,5.789,19.033,35.256,14.328,34.905-5.648-.405-10.028-8.511-18.585-18.895-17.95,2.968-10.882,1.895-22.726-3.462-32.362,6.83,.343,13.349-.8,20.149,.151,7.019,3.121,14.631,4.822,22.466,4.966,5.253,1.246,21.303-4.338,30.873-4.477,10.264,2.157,18.986-.184,30.217,1.462,6.858,38.51,62.922,36.133,78.601,5.289,2.227-.097,4.697-.333,7.356-.811,14.438,4.871,30.037,4.339,45.14,6.353,26.854,3.749,53.418,6.346,80.169,11.276,51.612,8.851,85.413-55.401,46.901-91.482,42.661-5.263,63.848-64.324,36.113-96.184Z" fill="#fff"/>
        <g>
          <path d="M107.401,284.32c-.189-.285-.548-1.115-1.011-1.047-.55,.081-.647,.835-1.136,2.73-.381,1.489-.761,2.979-1.141,4.468-.392,1.539-.525,2.612-2.399,2.892-1.615,.242-2.194-.666-2.907-1.869-2.455-4.139-4.922-8.275-7.401-12.406-1.122-1.88-2.126-.668-2.389-2.367-.298-1.921,3.623-2.584,4.961-2.785,4.251-.646,5.075-.109,5.246,1.031,.125,.836-.526,1.048-.397,1.911,.121,.808,1.326,2.706,1.492,3.023,.212,.424,1.142,2.279,1.809,2.18,.752-.111,1.064-2.209,1.148-2.648,.062-.18,.245-.948,.217-1.142-.037-.251-.903-1.889-1.846-2.233-.623-.192-1.175-.508-1.279-1.205-.025-.165-.682-1.783,5.404-2.678,5.652-.823,5.717,.454,5.784,.927,.131,.919-1.141,1.359-1.041,2.056,.109,.753,1.347,2.339,1.724,2.911,.267,.416,1.154,2.054,1.849,1.955,.986-.141,1.562-5.06,1.508-5.45-.171-1.199-1.974-.316-2.193-1.85-.243-1.701,2.742-2.04,3.937-2.207,1.194-.169,3.4-.333,3.618,1.23,.189,1.367-1.085,1.174-1.597,3.237-1.082,4.418-2.153,8.836-3.214,13.255-.392,1.592-.849,3.136-2.494,3.373-1.442,.208-2.011-.477-2.701-1.573-1.181-1.907-2.364-3.812-3.55-5.717Z" fill="#8e0000"/>
          <path d="M127.649,282.795c-.319,.044-.794,.022-.729,.498,.192,1.396,2.232,2.31,3.591,2.127,2.169-.293,3.071-1.692,3.68-1.773,.609-.081,1.242,.717,1.313,1.247,.284,2.15-3.58,4.254-6.177,4.609-5.193,.707-8.385-2.539-8.891-6.139-.605-4.296,2.767-7.954,7.13-8.546,4.947-.671,7.611,2.703,7.887,4.797,.243,1.842-.591,2.21-1.519,2.333-2.096,.279-4.191,.562-6.286,.847Zm2.045-3.859c-.135-1.005-.881-1.7-1.954-1.555-.959,.13-1.613,1.186-1.491,2.079,.138,1.006,1.094,.647,1.848,.544,.783-.107,1.733-.065,1.597-1.069Z" fill="#8e0000"/>
          <path d="M153.284,271.489c4.368-.537,6.948,1.512,7.182,3.469,.187,1.566-.889,2.914-2.514,3.111-3.133,.381-2.105-3.262-4.401-2.98-1.279,.157-1.819,1.502-1.681,2.621,.258,2.068,2.111,3.966,4.398,3.686,1.825-.223,2.347-1.023,2.956-1.097,.782-.095,1.405,.683,1.485,1.354,.197,1.65-2.149,4.086-6.196,4.585-4.361,.537-8.28-2.114-8.828-6.388-.515-4.022,2.705-7.758,7.6-8.36Z" fill="#8e0000"/>
          <path d="M176.417,276.484c.551,4.927,1.989,2.046,2.159,3.557,.177,1.596-1.887,3.583-3.998,3.822-2.285,.259-2.506-1.16-3.23-1.077-.347,.04-.682,.447-1.28,.856-.594,.437-1.421,.902-2.75,1.057-2.4,.28-4.946-.664-5.278-3.433-.238-1.984,1.441-4.686,6.554-5.28,.901-.104,1.314-.095,1.197-1.103-.105-.924-.358-2.852-1.696-2.696-1.746,.204-1.568,3.244-4.154,3.549-.929,.11-1.702-.451-1.808-1.345-.285-2.379,4.455-4.499,7.224-4.815,1.661-.194,6.278-.091,6.746,4.11,.104,.933,.209,1.866,.314,2.799Zm-8.422,3.457c.085,.727,.581,1.463,1.421,1.366,1.1-.127,1.057-1.284,.959-2.124-.071-.615-.124-1.318-.935-1.224-.986,.114-1.55,1.087-1.445,1.982Z" fill="#8e0000"/>
          <path d="M187.432,277.32c.29,2.717,1.224,2.136,1.337,3.201,.183,1.735-3.671,2.09-4.857,2.221-1.158,.125-4.11,.451-4.296-1.228-.149-1.345,1.317-.288,1.103-3.041-.116-1.404-.231-2.808-.347-4.213-.17-2.078-1.869-1.211-2.034-2.694-.167-1.486,6.383-3.62,6.968-3.678,.641-.069,1.105,.42,1.166,.98,.018,.168,.008,.339,.026,.507,.036,.337,.224,.713,.659,.666,.467-.049,.666-.665,1.186-1.315,.523-.622,1.337-1.302,2.998-1.476,6.038-.625,5.595,5.175,6.319,9.402,.37,2.2,1.508,1.574,1.63,2.78,.051,.505,.284,1.665-5.158,2.226-1.042,.107-3.816,.455-3.982-1.112-.107-1.009,.901-.633,.854-2.469-.065-2.003,.282-6.573-2.454-6.284-1.862,.197-1.481,2.112-1.347,3.372,.077,.719,.153,1.438,.23,2.157Z" fill="#8e0000"/>
          <path d="M201.723,267.439c-.102-1.038-2.363-.983-2.62-3.533-.188-1.877,1.074-3.42,3.035-3.613,2.108-.208,3.655,1.455,3.84,3.36,.315,3.281-2.465,7.938-4.439,8.135-.495,.05-1.431-.198-1.489-.786-.059-.589,1.848-1.798,1.674-3.564Z" fill="#8e0000"/>
          <path d="M217.669,272.935c.172,1.879,1.026,2.254,1.81,2.182,.9-.082,1.364-.774,1.887-.822,.581-.052,1.058,.697,1.104,1.202,.164,1.852-2.993,3.775-5.919,4.046-1.478,.135-5.245-.132-5.67-4.589-.183-1.926-.366-3.851-.549-5.777-.048-.504-.066-.701-.22-.771-.154-.071-.468,.016-1.138,.08-.757,.072-1.135,.137-1.294,.01-.223-.176-.191-.463-.254-1.107-.038-.392-.154-.693,.174-.951,2.086-1.569,4.177-3.134,6.272-4.697,.635-.454,.615-.369,1.492-.449,1.17-.107,1.218-.224,1.337,1.066,.08,.87,.1,1.744,.277,2.067,.108,.217,.312,.198,1.071,.129,.682-.062,1.363-.124,2.044-.185,1.255-.113,1.263-.028,1.375,1.234,.144,1.599-.052,1.73-1.188,1.832-.671,.06-1.341,.121-2.012,.182-1.019,.093-1.074,.127-.982,1.136,.128,1.393,.255,2.786,.383,4.18Z" fill="#8e0000"/>
          <path d="M247.696,271.393c-.228-.293-.595-.887-1.032-.853-.612,.047-.953,.894-1.182,1.363-.615,1.244-1.228,2.489-1.841,3.734-.356,.677-.781,1.558-1.68,1.63-1.073,.086-1.802-.985-2.359-1.731-2.073-2.743-4.153-5.483-6.241-8.219-1.059-1.41-2.415-.418-2.535-1.849-.154-1.798,4.303-2.314,5.647-2.423,1.14-.094,4.675-.351,4.807,1.307,.051,.646-.484,.943-.453,1.308,.039,.477,1.58,2.869,2.306,2.811,.524-.041,1.225-1.565,1.194-1.958-.105-1.349-1.914-1.206-1.996-2.245-.044-.56,.012-1.701,5.739-2.142,1.11-.085,4.233-.375,4.347,1.17,.075,1.011-.852,1.165-.803,1.811,.042,.562,1.313,2.67,1.953,2.623,.873-.065,1.795-2.702,1.781-2.899-.052-.702-.881-.811-.949-1.738-.103-1.405,2.495-1.622,3.459-1.691,.995-.072,3.566-.252,3.664,1.154,.111,1.573-1.751,.573-2.896,3.028-1.077,2.439-2.149,4.88-3.217,7.321-.428,.935-1.528,3.445-2.803,3.54-1.131,.084-2.668-2.087-3.253-2.862-.552-.73-1.105-1.46-1.659-2.189Z" fill="#8e0000"/>
          <path d="M276.943,267.717c.309,4.948,1.887,2.141,1.98,3.659,.098,1.602-2.059,3.485-4.177,3.621-2.292,.147-2.444-1.281-3.171-1.235-.348,.023-.701,.413-1.318,.792-.615,.408-1.461,.83-2.796,.92-2.407,.162-4.903-.906-5.097-3.688-.14-1.994,1.668-4.61,6.799-4.951,.904-.06,1.316-.03,1.249-1.042-.062-.927-.216-2.865-1.561-2.776-1.751,.117-1.722,3.163-4.317,3.34-.933,.064-1.679-.533-1.74-1.433-.168-2.39,4.666-4.275,7.444-4.454,1.667-.111,6.268,.218,6.53,4.437,.059,.937,.117,1.874,.176,2.811Zm-8.572,3.039c.049,.731,.509,1.49,1.351,1.434,1.105-.073,1.116-1.23,1.06-2.074-.041-.618-.056-1.322-.872-1.269-.99,.065-1.599,1.01-1.539,1.909Z" fill="#8e0000"/>
          <path d="M288.067,268.576c.19,3.318,1.836,2.011,1.919,3.503,.107,1.911-3.578,2.121-4.885,2.199-4.994,.296-5.264-.784-5.306-1.459-.062-1.012,1.126-1.141,1.423-2.034,.318-1.007,.132-5.087-.253-6.108-.321-.969-1.791-.568-1.869-1.833-.124-2,7.252-3.287,7.544-3.299,.878-.05,.945,.595,.978,1.186,.149,2.615,.299,5.231,.448,7.846Zm-6.362-9.645c-1.23,.073-2.578-.38-2.662-1.757-.114-1.856,3.71-2.849,5.206-2.935,1.172-.069,2.864,.2,2.944,1.607,.125,2.192-3.822,2.985-5.488,3.086Z" fill="#8e0000"/>
          <path d="M299.491,267.081c.097,1.885,.935,2.292,1.721,2.253,.902-.046,1.392-.719,1.917-.746,.581-.029,1.027,.739,1.053,1.245,.09,1.857-3.14,3.652-6.072,3.806-1.481,.076-5.23-.342-5.477-4.812-.106-1.931-.212-3.863-.318-5.794-.029-.506-.038-.703-.189-.779-.151-.077-.47-.002-1.14,.035-.759,.043-1.138,.092-1.291-.041-.215-.184-.173-.47-.209-1.116-.021-.394-.127-.698,.21-.943,2.146-1.484,4.296-2.965,6.451-4.442,.652-.429,.627-.343,1.507-.389,1.171-.061,1.224-.176,1.291,1.118,.044,.872,.03,1.746,.195,2.077,.099,.221,.304,.21,1.064,.171,.683-.035,1.365-.069,2.048-.103,1.258-.062,1.262,.022,1.324,1.288,.079,1.604-.12,1.727-1.259,1.783-.672,.034-1.343,.067-2.015,.102-1.022,.051-1.079,.084-1.027,1.096,.072,1.397,.144,2.794,.216,4.192Z" fill="#8e0000"/>
          <path d="M322.855,266.012c.075,1.885,.91,2.304,1.694,2.272,.902-.036,1.402-.703,1.926-.724,.583-.022,1.021,.751,1.039,1.257,.07,1.858-3.181,3.615-6.115,3.737-1.481,.059-5.225-.401-5.421-4.875-.084-1.932-.168-3.865-.252-5.797-.021-.506-.031-.703-.18-.781-.151-.079-.468-.008-1.141,.022-.76,.034-1.139,.079-1.29-.056-.213-.187-.169-.471-.197-1.118-.018-.394-.118-.7,.222-.941,2.162-1.46,4.328-2.916,6.499-4.368,.659-.422,.632-.336,1.511-.372,1.173-.046,1.228-.162,1.279,1.133,.036,.872,.011,1.747,.171,2.079,.097,.222,.302,.214,1.063,.184,.683-.027,1.366-.054,2.048-.08,1.258-.048,1.262,.036,1.309,1.303,.06,1.605-.14,1.725-1.278,1.769-.672,.026-1.345,.052-2.017,.079-1.023,.041-1.08,.071-1.039,1.084,.056,1.398,.112,2.796,.168,4.194Z" fill="#8e0000"/>
          <path d="M328.111,265.385c-.193-5.038,4.296-8.055,9.129-8.213,5.125-.168,8.163,3.608,8.262,7.099,.13,4.617-4.902,7.582-9.171,7.727-4.298,.144-8.05-2.166-8.22-6.613Zm7.981-4.85c-.964,.032-1.46,.924-1.374,1.738,.178,1.77,.85,6.086,2.862,6.132,1.107,.021,1.312-.888,1.283-1.789-.04-1.266-.782-6.148-2.771-6.081Z" fill="#8e0000"/>
          <path d="M374.329,266.482c.036,2.394,1.451,1.782,1.468,2.88,.024,1.633-3.698,1.66-4.772,1.679-.901,.014-4.418,.077-4.446-1.358-.016-.816,.8-.803,1.007-2.244,.158-.904,.169-1.891,.153-2.821-.025-1.408-.103-4.056-2.178-4.016-1.781,.034-1.694,1.498-1.668,2.766,.022,1.089,.044,2.177,.065,3.266,.047,2.337,1.201,1.836,1.22,2.85,.031,1.633-3.282,1.728-4.385,1.753-4.156,.091-5.135-.726-5.156-1.6-.026-1.127,1.119-.647,1.572-2.489,.319-1.332,.234-5.049,.198-6.597-.029-1.268-.147-2.561-.207-3.827-.105-1.998-1.847-1.252-1.878-2.575-.056-2.257,7.562-3.019,7.592-3.014,.88-.018,.945,.234,.96,1.051-.023,1.785-.046,3.569-.069,5.354-.019,.535-.03,1.437,.73,1.422,.878-.017,1.208-2.532,4.489-2.591,5.388-.092,5.079,4.792,5.121,5.579,.062,1.511,.124,3.022,.185,4.533Z" fill="#8e0000"/>
          <path d="M391.233,263.763c.034,4.958,1.763,2.242,1.773,3.763,.008,1.605-2.249,3.366-4.37,3.383-2.295,.019-2.366-1.416-3.095-1.409-.349,.003-.723,.373-1.359,.718-.637,.372-1.505,.748-2.842,.763-2.413,.027-4.841-1.177-4.881-3.966-.03-1.998,1.922-4.509,7.06-4.565,.906-.009,1.313,.044,1.304-.971-.009-.929-.057-2.873-1.403-2.859-1.755,.019-1.895,3.062-4.493,3.094-.935,.012-1.645-.626-1.657-1.527-.034-2.395,4.894-4.008,7.677-4.033,1.669-.019,6.244,.567,6.269,4.793,.006,.939,.013,1.878,.019,2.816Zm-8.724,2.557c.009,.732,.424,1.516,1.268,1.507,1.106-.012,1.182-1.166,1.173-2.012-.006-.619,.017-1.323-.799-1.315-.992,.01-1.652,.919-1.642,1.82Z" fill="#8e0000"/>
          <path d="M395.647,260.049c-.856-1.546-2.489-.663-2.497-2.184-.005-.702,.37-1.697,5.875-1.716,1.024-.004,4.949-.065,4.949,1.428,0,.93-1.111,1.128-1.11,1.86,.001,.648,1.083,2.761,1.813,2.76,.991,0,2.015-2.394,2.016-2.957,0-.704-.993-.986-.993-1.803,0-1.409,3.219-1.294,4.099-1.291,.849,.001,3.046,.009,3.041,1.25-.005,1.351-1.906,.725-2.757,2.301-1.605,2.991-3.203,5.984-4.794,8.979-.962,1.774-1.744,2.17-2.413,2.17-1.133,.002-1.863-1.208-2.331-2.053-1.626-2.916-3.259-5.831-4.899-8.743Z" fill="#8e0000"/>
          <path d="M420.306,264.028c-.322-.003-.787-.091-.791,.389-.009,1.408,1.875,2.605,3.244,2.616,2.184,.019,3.274-1.237,3.887-1.23,.613,.006,1.125,.886,1.12,1.421-.026,2.168-4.14,3.702-6.756,3.682-5.229-.04-7.919-3.707-7.907-7.342,.014-4.338,3.86-7.479,8.256-7.443,4.98,.04,7.133,3.76,7.108,5.872-.022,1.859-.898,2.102-1.832,2.092-2.11-.022-4.219-.041-6.329-.057Zm2.568-3.528c.01-1.014-.628-1.809-1.709-1.817-.966-.007-1.762,.945-1.768,1.845-.007,1.015,.988,.797,1.747,.802,.787,.006,1.721,.183,1.729-.83Z" fill="#8e0000"/>
          <path d="M450.918,268.597c-1.511,3.715-3.445,7.332-8.17,7.243-2.087-.039-4.535-1.121-4.499-3.458,.023-1.408,1.147-2.573,2.632-2.548,2.704,.048,1.893,3.021,3.084,3.043,.785,.016,1.147-.71,1.16-1.359,.014-.788-.545-1.869-.881-2.581-1.306-2.776-2.617-5.552-3.933-8.326-.536-1.135-2.208-.825-2.187-2.121,.014-.843,.561-2.082,6.738-1.966,1.112,.021,3.745,.189,3.711,1.794-.015,.76-.694,.972-.708,1.648-.021,1.07,1.222,3.068,1.717,3.079,.875,.019,1.531-1.91,1.547-2.587,.028-1.267-.909-1.203-.888-2.161,.032-1.493,2.789-1.601,3.842-1.575,.966,.022,3.128,.218,3.095,1.513-.042,1.661-1.78,.885-2.841,2.523-.667,.971-1.164,2.198-1.597,3.287-.609,1.517-1.217,3.033-1.824,4.55Z" fill="#8e0000"/>
          <path d="M457.539,264.614c.125-5.041,4.796-7.768,9.627-7.622,5.125,.156,7.921,4.115,7.799,7.606-.163,4.615-5.37,7.259-9.64,7.134-4.299-.127-7.897-2.669-7.786-7.118Zm8.271-4.337c-.965-.029-1.516,.83-1.481,1.648,.066,1.777,.466,6.129,2.47,6.3,1.104,.09,1.366-.803,1.393-1.704,.04-1.267-.395-6.184-2.381-6.244Z" fill="#8e0000"/>
          <path d="M484.226,265.893c-.044,1.125-.023,2.875,1.548,2.936,2.095,.083,1.91-2.573,1.965-3.925,.037-.929,.115-2.138,.006-3.044-.178-1.417-1.628-.995-1.581-2.177,.065-1.663,5.957-1.706,7.07-1.655,1.053,.045,1.467,.656,1.423,1.641-.04,.9-.136,1.77-.175,2.671-.082,1.885-.164,3.77-.246,5.656-.073,1.688,1.562,.971,1.501,2.322-.086,1.912-5.25,2.224-6.848,2.16-2.237-.092-.687-1.718-1.85-1.766-.319-.013-.803,.39-1.516,.785-.713,.395-1.661,.781-2.939,.732-5.518-.206-4.906-4.405-4.756-8.63,.153-4.307-1.931-2.491-1.867-4.349,.06-1.805,7.44-1.624,7.674-1.61,.818,.031,.893,.401,.866,1.104-.092,2.383-.184,4.767-.276,7.15Z" fill="#8e0000"/>
          <path d="M523.359,269.103c-.113,1.969,1.467,1.411,1.38,2.874-.126,2.134-6.493,1.912-6.811,1.898-1.482-.082-.351-1.571-1.31-1.623-.26-.014-.719,.355-1.409,.741-.691,.358-1.613,.732-2.89,.665-3.802-.2-6.573-4.254-6.405-7.715,.181-3.742,3.521-7.245,7.56-7.033,2.019,.107,3.113,1.012,3.434,1.03,.44,.024,.52-.903,.536-1.212,.095-1.744-2.092-.931-2.011-2.45,.109-2.086,7.616-2.206,7.706-2.196,.88,.05,1.051,.652,.997,1.58-.259,4.48-.518,8.961-.776,13.441Zm-7.769-7.006c-1.958-.105-2.478,3.112-2.547,4.433-.07,1.323,.159,3.647,1.961,3.743,1.948,.105,2.023-3.36,2.09-4.598,.06-1.096,.191-3.488-1.503-3.579Z" fill="#8e0000"/>
          <path d="M527.684,265.576c.164-2.756-1.737-1.316-1.636-3.031,.129-2.224,7.009-2.43,7.273-2.41,1.111,.069,1.122,.354,1.179,1.317,.007,.339-.062,.983,.434,1.015,.7,.045,1.281-2.15,3.795-1.987,1.959,.127,3.149,1.62,3.027,3.474-.126,1.883-1.885,3.263-3.808,3.138-1.893-.123-2.318-1.758-3.075-1.807-.818-.052-.791,1.842-.822,2.347-.054,.843-.04,2.03,.038,3.107,.096,1.247,2.355,.629,2.246,2.316-.114,1.771-2.676,1.747-5.87,1.55-1.335-.083-5.288-.262-5.174-2.201,.069-1.182,1.408-1.102,1.786-2.067,.273-.688,.458-2.286,.505-3.074,.034-.562,.067-1.125,.101-1.687Z" fill="#8e0000"/>
          <path d="M556.868,269.336c-.367,4.944,1.578,2.377,1.465,3.894-.121,1.601-2.515,3.173-4.631,3.019-2.293-.166-2.249-1.603-2.974-1.654-.348-.025-.752,.314-1.414,.605-.665,.32-1.561,.624-2.896,.532-2.408-.168-4.733-1.564-4.548-4.347,.132-1.994,2.279-4.34,7.409-3.981,.902,.063,1.308,.149,1.379-.863,.066-.927,.175-2.869-1.169-2.963-1.752-.123-2.139,2.899-4.732,2.722-.933-.063-1.589-.757-1.528-1.656,.159-2.39,5.204-3.6,7.981-3.401,1.667,.116,6.18,1.069,5.865,5.283-.069,.936-.139,1.872-.208,2.809Zm-8.907,1.845c-.051,.731,.302,1.545,1.144,1.605,1.103,.078,1.273-1.067,1.333-1.911,.044-.618,.123-1.318-.692-1.376-.988-.07-1.722,.782-1.785,1.682Z" fill="#8e0000"/>
          <path d="M574.949,272.396c-.177-.325-.446-.97-.883-1.006-.611-.051-1.085,.731-1.383,1.158-.805,1.131-1.609,2.262-2.411,3.394-.458,.613-1.019,1.414-1.918,1.343-1.072-.086-1.622-1.258-2.053-2.084-1.611-3.038-3.229-6.073-4.855-9.107-.821-1.56-2.316-.796-2.208-2.229,.134-1.799,4.615-1.6,5.959-1.494,1.139,.088,4.672,.397,4.538,2.055-.052,.645-.626,.854-.655,1.219-.039,.477,1.103,3.083,1.83,3.142,.524,.043,1.46-1.35,1.491-1.743,.111-1.348-1.698-1.495-1.615-2.534,.045-.559,.283-1.678,6.007-1.203,1.109,.093,4.239,.302,4.106,1.846-.087,1.01-1.026,1.015-1.082,1.66-.047,.562,.872,2.845,1.513,2.9,.872,.075,2.202-2.383,2.219-2.579,.061-.701-.74-.941-.66-1.867,.122-1.404,2.722-1.205,3.686-1.119,.992,.087,3.562,.318,3.435,1.721-.141,1.571-1.821,.288-3.341,2.529-1.451,2.237-2.898,4.476-4.341,6.717-.572,.854-2.055,3.158-3.331,3.049-1.129-.096-2.302-2.485-2.757-3.343-.429-.809-.859-1.617-1.29-2.425Z" fill="#8e0000"/>
          <path d="M614.277,276.045c-.171-.329-.428-.979-.864-1.023-.61-.062-1.1,.71-1.406,1.131-.827,1.115-1.653,2.23-2.477,3.346-.471,.603-1.046,1.395-1.944,1.305-1.071-.106-1.599-1.29-2.014-2.123-1.552-3.068-3.113-6.134-4.681-9.199-.79-1.576-2.301-.841-2.165-2.271,.169-1.796,4.647-1.511,5.99-1.379,1.136,.11,4.667,.487,4.5,2.142-.065,.644-.643,.842-.679,1.206-.047,.476,1.044,3.104,1.77,3.177,.522,.053,1.485-1.322,1.525-1.714,.135-1.345-1.671-1.528-1.567-2.564,.057-.559,.316-1.672,6.031-1.086,1.109,.113,4.234,.384,4.072,1.925-.107,1.008-1.047,.994-1.114,1.639-.059,.56,.818,2.861,1.458,2.929,.872,.092,2.248-2.34,2.269-2.536,.073-.7-.722-.954-.624-1.879,.148-1.4,2.747-1.152,3.708-1.048,.991,.106,3.556,.387,3.403,1.787-.171,1.568-1.827,.253-3.391,2.464-1.495,2.209-2.985,4.419-4.471,6.632-.588,.844-2.118,3.118-3.39,2.984-1.128-.119-2.254-2.529-2.693-3.395-.414-.817-.828-1.633-1.243-2.45Z" fill="#8e0000"/>
          <path d="M637.265,278.42c-.376,3.301,1.471,2.294,1.301,3.778-.22,1.902-3.892,1.483-5.194,1.338-4.976-.557-5.06-1.665-4.986-2.339,.111-1.008,1.305-.933,1.749-1.763,.484-.938,.991-4.992,.787-6.063-.155-1.01-1.671-.864-1.533-2.124,.216-1.993,7.713-2.007,8.004-1.971,.875,.099,.831,.747,.763,1.335-.297,2.603-.593,5.205-.889,7.808Zm-4.641-10.585c-1.224-.136-2.478-.812-2.327-2.184,.202-1.849,4.142-2.178,5.633-2.009,1.17,.131,2.794,.683,2.633,2.084-.249,2.181-4.278,2.293-5.939,2.109Z" fill="#8e0000"/>
          <path d="M648.793,278.886c-.223,1.874,.533,2.418,1.317,2.513,.897,.108,1.497-.472,2.018-.409,.58,.07,.891,.904,.829,1.406-.226,1.845-3.719,3.066-6.638,2.72-1.475-.177-5.103-1.225-4.589-5.672,.223-1.921,.446-3.843,.669-5.764,.058-.503,.08-.699-.055-.8-.135-.101-.462-.082-1.131-.159-.757-.088-1.137-.102-1.267-.26-.181-.218-.091-.492-.017-1.135,.046-.392-.007-.709,.369-.893,2.369-1.098,4.742-2.193,7.118-3.283,.716-.311,.678-.231,1.554-.128,1.167,.139,1.239,.035,1.084,1.321-.103,.867-.265,1.727-.16,2.08,.06,.234,.265,.259,1.021,.35,.679,.082,1.359,.164,2.038,.246,1.253,.152,1.243,.235,1.089,1.494-.193,1.593-.411,1.681-1.545,1.544-.669-.081-1.337-.162-2.006-.242-1.018-.123-1.081-.101-1.2,.906-.166,1.389-.332,2.778-.498,4.168Z" fill="#8e0000"/>
          <path d="M672.23,283.729c-.311,2.374,1.182,1.974,1.038,3.063-.214,1.619-3.908,1.105-4.976,.968-.896-.117-4.391-.566-4.21-1.99,.103-.809,.908-.679,1.323-2.074,.288-.871,.442-1.847,.561-2.769,.178-1.397,.488-4.027-1.576-4.29-1.772-.225-1.897,1.236-2.056,2.494-.136,1.08-.273,2.161-.409,3.241-.292,2.319,.926,1.991,.797,2.997-.206,1.62-3.502,1.233-4.602,1.097-4.134-.514-4.985-1.465-4.88-2.333,.136-1.118,1.204-.478,1.92-2.234,.507-1.271,.964-4.962,1.152-6.499,.156-1.258,.224-2.555,.351-3.817,.186-1.992-1.648-1.508-1.487-2.821,.271-2.242,7.933-1.888,7.963-1.879,.876,.111,.904,.368,.8,1.18-.282,1.762-.564,3.525-.845,5.287-.095,.527-.237,1.418,.518,1.513,.872,.111,1.565-2.329,4.825-1.911,5.357,.693,4.342,5.48,4.267,6.264-.158,1.504-.316,3.008-.474,4.512Z" fill="#8e0000"/>
          <path d="M692.017,284.521c-.157,1.115-.314,2.857,1.246,3.078,2.081,.296,2.166-2.365,2.358-3.705,.131-.92,.331-2.114,.315-3.028-.033-1.427-1.522-1.156-1.356-2.327,.233-1.648,6.114-1.091,7.218-.927,1.046,.152,1.395,.802,1.253,1.778-.131,.892-.315,1.747-.445,2.639-.273,1.867-.546,3.734-.819,5.602-.245,1.673,1.458,1.125,1.262,2.463-.28,1.893-5.461,1.677-7.047,1.452-2.221-.318-.511-1.78-1.666-1.945-.317-.046-.84,.306-1.591,.627-.752,.32-1.735,.607-3.005,.429-5.482-.767-4.444-4.882-3.866-9.07,.589-4.269-1.673-2.675-1.42-4.517,.245-1.791,7.583-.857,7.815-.821,.814,.115,.849,.489,.751,1.187-.333,2.362-.667,4.723-1,7.085Z" fill="#8e0000"/>
          <path d="M713.482,279.433c.51,.162,.957,.344,1.16,.375,.291,.044,.536-.004,.813-.076,.275-.044,.548-.088,.81-.047,1.336,.205,2.276,2.971,2.1,4.112-.116,.751-.868,1.206-1.621,1.091-1.65-.252-2.241-2.594-3.518-2.787-.522-.078-1.107,.26-1.186,.789-.269,1.779,6.051,3.085,5.383,7.403-.404,2.616-3.304,4.021-6.301,3.568-.576-.087-1.401-.296-2.104-.517-.708-.192-1.329-.371-1.502-.396-.203-.03-.378-.028-.585-.03-.177,.002-.353,.003-.556-.026-.577-.086-.854-.211-1.19-.718-.605-.886-1.093-2.582-.938-3.641,.107-.724,.454-1.271,1.292-1.147,1.275,.188,2.018,3.118,3.634,3.361,.576,.086,1.168-.109,1.26-.722,.249-1.646-5.388-2.686-4.71-7.282,.411-2.786,3.051-4.19,6.043-3.74,.582,.087,1.182,.236,1.717,.43Z" fill="#8e0000"/>
          <path d="M721.922,295.525c-1.929-.302-3.253-2.047-2.964-3.911,.289-1.866,2.082-3.126,4.019-2.823,1.938,.303,3.261,2.053,2.964,3.917-.296,1.864-2.091,3.118-4.02,2.817Z" fill="#8e0000"/>
        </g>
        <path d="M59.911,204.245c-.89,.146-2.302,.429-2.496-.752-.262-1.593,2.131-.613,1.727-3.607-.251-1.884-.519-3.528-.767-5.044-.252-1.543-.626-2.957-.918-4.387-.408-2.149-2.69-.614-2.931-2.078-.31-1.876,4.081-2.7,5.457-2.921,5.617-.906,6.037-.071,6.175,.801,.237,1.491-2.159,.714-1.772,3.13,.436,2.725,.873,5.449,1.309,8.174,.296,1.851,.775,2.696,2.755,2.381,4.739-.75,2.56-4.068,4.348-4.349,1.258-.197,1.924,.963,2.077,1.941,.312,2.006-.848,4.822-2.127,5.023-.502,.079-.907,.038-1.421,.04-.545-.02-1.17,0-2.117,.15-3.1,.492-6.199,.992-9.297,1.498Z" fill="#8e0000"/>
        <path d="M83.108,195.715c.46,3.036,1.94,1.681,2.146,3.045,.264,1.75-3.275,2.286-4.528,2.479-4.792,.736-5.143-.231-5.239-.85-.145-.927,.993-1.156,1.204-2.004,.222-.956-.299-4.696-.754-5.6-.391-.862-1.776-.357-1.955-1.514-.287-1.829,6.715-3.698,6.997-3.737,.842-.128,.958,.46,1.041,1.001,.363,2.393,.726,4.787,1.09,7.18Zm-6.94-8.286c-1.178,.182-2.515-.111-2.711-1.371-.264-1.698,3.336-2.967,4.769-3.186,1.125-.172,2.777-.082,2.973,1.205,.303,2.007-3.431,3.104-5.03,3.352Z" fill="#8e0000"/>
        <path d="M93.998,193.275c.254,1.725,1.095,2.023,1.849,1.914,.865-.126,1.283-.791,1.786-.864,.559-.081,1.054,.584,1.121,1.048,.244,1.7-2.719,3.653-5.533,4.068-1.421,.209-5.072,.173-5.686-3.92-.264-1.768-.529-3.535-.794-5.303-.069-.464-.097-.643-.249-.699-.151-.057-.452,.041-1.097,.138-.728,.109-1.087,.191-1.247,.083-.223-.15-.207-.418-.296-1.009-.054-.36-.181-.63,.124-.887,1.943-1.566,3.89-3.129,5.841-4.689,.592-.456,.577-.374,1.419-.498,1.123-.165,1.166-.276,1.339,.909,.117,.799,.177,1.606,.363,1.893,.114,.194,.31,.166,1.04,.059,.655-.096,1.31-.191,1.964-.286,1.208-.175,1.219-.097,1.386,1.062,.212,1.469,.03,1.6-1.063,1.758-.645,.094-1.289,.187-1.933,.281-.981,.143-1.032,.178-.897,1.104,.187,1.279,.375,2.559,.562,3.838Z" fill="#8e0000"/>
        <path d="M107.616,191.326c.242,1.727,1.081,2.031,1.837,1.926,.867-.12,1.287-.783,1.791-.853,.559-.077,1.05,.591,1.114,1.055,.233,1.702-2.741,3.636-5.558,4.033-1.422,.199-5.072,.141-5.66-3.956-.253-1.769-.506-3.539-.76-5.308-.066-.464-.092-.644-.244-.701-.151-.057-.451,.038-1.097,.131-.729,.105-1.089,.183-1.247,.075-.222-.153-.205-.418-.29-1.011-.052-.36-.177-.632,.13-.886,1.953-1.553,3.909-3.103,5.87-4.651,.596-.452,.578-.371,1.422-.489,1.125-.158,1.167-.268,1.333,.918,.111,.798,.167,1.607,.351,1.895,.113,.195,.31,.168,1.039,.066,.655-.091,1.31-.182,1.966-.273,1.208-.167,1.22-.089,1.379,1.07,.203,1.471,.02,1.6-1.074,1.751-.645,.089-1.29,.179-1.935,.269-.981,.136-1.034,.171-.904,1.098,.179,1.281,.358,2.561,.537,3.841Z" fill="#8e0000"/>
        <path d="M121.063,190.46c.062,.464,.148,1.319,.343,1.713,.432,.888,1.631,.282,1.775,1.367,.228,1.728-3.193,2.053-4.394,2.216-1.257,.169-5.147,.831-5.398-.999-.124-.903,1.122-.732,1.328-1.732,.218-1.107-.221-4.331-.394-5.595-.136-1.006-.345-2.948-.756-4.074-.682-1.852-2.247-.953-2.45-2.423-.311-2.248,6.935-3.783,7.331-3.832,.957-.128,1.257,.409,1.361,1.184,.079,.593,.091,3.48,.585,7.17,.223,1.669,.446,3.338,.668,5.006Z" fill="#8e0000"/>
        <path d="M130.268,187.912c-.308,.04-.766,.02-.71,.459,.167,1.291,2.127,2.14,3.44,1.973,2.098-.268,2.987-1.561,3.576-1.635,.588-.074,1.193,.663,1.254,1.154,.249,1.988-3.51,3.93-6.021,4.255-5.025,.647-8.066-2.358-8.509-5.689-.528-3.974,2.769-7.352,6.989-7.894,4.78-.613,7.313,2.511,7.554,4.446,.215,1.704-.598,2.043-1.495,2.155-2.027,.256-4.053,.514-6.079,.776Zm2.021-3.567c-.118-.929-.828-1.573-1.868-1.44-.927,.119-1.57,1.096-1.463,1.922,.121,.929,1.046,.6,1.776,.505,.757-.098,1.675-.057,1.556-.987Z" fill="#8e0000"/>
        <path d="M149.268,177.498c-.263-2.67-2.219-1.124-2.422-2.804-.143-1.189,1.47-1.567,2.457-1.684,3.064-.366,6.129-.724,9.194-1.077,7.847-.897,10.903,3.282,11.413,7.937,.527,4.815-2.028,9.67-9.099,10.479-1.202,.138-2.213,.23-3.085,.278-.869,.076-1.629,.138-2.41,.23-.782,.092-1.592,.214-2.371,.332-.776,.145-1.556,.264-2.367,.361-.95,.113-2.205-.18-2.33-1.214-.224-1.861,2.234-.059,1.867-3.843-.283-2.998-.566-5.997-.848-8.995Zm7.855,8.667c.154,1.319,.442,1.836,1.953,1.66,3.528-.406,3.766-3.811,3.472-6.398-.686-6.053-3.275-6.728-5.444-6.477-1.183,.137-1.218,.586-1.103,1.569,.374,3.215,.748,6.43,1.122,9.645Z" fill="#8e0000"/>
        <path d="M172.924,180.929c-.275-2.536-1.864-.923-2.036-2.501-.224-2.047,6.301-3.328,6.556-3.351,1.071-.114,1.126,.142,1.331,1.011,.062,.307,.095,.905,.575,.854,.675-.071,.882-2.161,3.305-2.413,1.888-.196,3.258,.972,3.433,2.682,.177,1.735-1.282,3.271-3.136,3.464-1.825,.19-2.487-1.233-3.217-1.156-.787,.083-.462,1.803-.413,2.269,.082,.777,.28,1.855,.524,2.824,.289,1.121,2.345,.199,2.508,1.753,.17,1.632-2.28,2.017-5.357,2.346-1.287,.137-5.085,.603-5.282-1.182-.119-1.086,1.169-1.228,1.379-2.166,.155-.672,.079-2.156,0-2.88-.056-.518-.112-1.036-.169-1.553Z" fill="#8e0000"/>
        <path d="M201.349,179.705c.434,4.561,1.882,1.914,2.014,3.313,.139,1.477-1.895,3.29-3.938,3.488-2.213,.214-2.397-1.1-3.097-1.032-.337,.033-.668,.405-1.253,.777-.583,.397-1.389,.817-2.677,.946-2.323,.232-4.764-.67-5.026-3.234-.189-1.837,1.491-4.316,6.437-4.806,.871-.086,1.269-.073,1.178-1.005-.085-.856-.287-2.64-1.582-2.512-1.69,.168-1.58,2.982-4.081,3.233-.899,.09-1.635-.436-1.719-1.265-.227-2.202,4.392-4.108,7.07-4.369,1.606-.159,6.059-.012,6.428,3.877,.082,.864,.165,1.727,.247,2.591Zm-8.201,3.1c.067,.674,.531,1.359,1.345,1.279,1.064-.105,1.044-1.176,.968-1.952-.055-.57-.091-1.221-.878-1.143-.955,.094-1.518,.987-1.435,1.816Z" fill="#8e0000"/>
        <path d="M219.069,179.606c-.222-.268-.581-.811-1.002-.774-.59,.051-.917,.839-1.134,1.275-.587,1.158-1.172,2.316-1.757,3.474-.34,.632-.746,1.453-1.614,1.53-1.036,.093-1.747-.887-2.29-1.57-2.019-2.509-4.043-5.015-6.075-7.519-1.029-1.29-2.334-.357-2.458-1.678-.157-1.66,4.144-2.192,5.44-2.31,1.1-.102,4.514-.385,4.651,1.146,.053,.597-.461,.878-.431,1.215,.04,.441,1.542,2.632,2.244,2.569,.507-.045,1.174-1.463,1.142-1.826-.11-1.245-1.857-1.09-1.942-2.049-.046-.517,0-1.572,5.529-2.053,1.072-.093,4.084-.404,4.205,1.024,.079,.934-.816,1.089-.765,1.685,.045,.519,1.286,2.451,1.904,2.399,.844-.072,1.716-2.52,1.702-2.702-.054-.648-.856-.738-.927-1.594-.108-1.298,2.399-1.532,3.331-1.608,.959-.079,3.441-.281,3.546,1.017,.118,1.453-1.687,.554-2.776,2.837-1.024,2.269-2.044,4.539-3.06,6.81-.409,.871-1.455,3.204-2.688,3.309-1.092,.093-2.59-1.895-3.161-2.603-.538-.668-1.077-1.335-1.616-2.003Z" fill="#8e0000"/>
        <path d="M241.548,177.823c.036,.466,.072,1.325,.244,1.73,.381,.911,1.612,.374,1.694,1.465,.13,1.738-3.301,1.869-4.506,1.964-1.262,.096-5.176,.538-5.324-1.302-.074-.908,1.161-.668,1.421-1.655,.281-1.093,.022-4.336-.078-5.608-.08-1.013-.178-2.963-.524-4.11-.576-1.888-2.187-1.079-2.307-2.558-.183-2.261,7.126-3.385,7.524-3.412,.961-.074,1.231,.48,1.29,1.259,.045,.597-.104,3.48,.18,7.192,.128,1.679,.257,3.357,.385,5.036Z" fill="#8e0000"/>
        <path d="M252.105,176.885c.219,3.063,1.796,1.829,1.894,3.206,.124,1.765-3.439,2.018-4.7,2.112-4.823,.354-5.095-.638-5.143-1.263-.07-.935,1.075-1.073,1.353-1.902,.298-.935,.074-4.705-.307-5.642-.32-.89-1.737-.497-1.824-1.664-.141-1.847,6.97-3.153,7.253-3.17,.846-.06,.917,.534,.956,1.08,.173,2.415,.345,4.83,.518,7.244Zm-6.249-8.811c-1.185,.088-2.493-.31-2.589-1.582-.129-1.714,3.551-2.694,4.995-2.797,1.131-.082,2.769,.139,2.862,1.437,.144,2.024-3.66,2.822-5.268,2.942Z" fill="#8e0000"/>
        <path d="M262.483,176.638c.167,2.519,1.093,2.015,1.158,3.002,.106,1.61-3.629,1.807-4.778,1.887-1.122,.076-3.984,.276-4.094-1.281-.087-1.247,1.281-.22,1.189-2.771-.053-1.301-.105-2.602-.157-3.903-.08-1.926-1.754-1.182-1.851-2.559-.1-1.38,6.304-3.124,6.869-3.159,.621-.042,1.049,.425,1.084,.944,.01,.156-.007,.313,.004,.47,.021,.312,.186,.666,.608,.638,.451-.03,.669-.592,1.198-1.174,.531-.558,1.343-1.158,2.951-1.262,5.847-.372,5.185,4.969,5.712,8.899,.267,2.043,1.39,1.505,1.459,2.622,.029,.469,.207,1.548-5.067,1.882-1.011,.064-3.701,.292-3.797-1.163-.061-.936,.894-.555,.926-2.252,.02-1.854,.541-6.062-2.109-5.888-1.803,.119-1.516,1.9-1.437,3.069,.044,.667,.089,1.333,.133,2Z" fill="#8e0000"/>
        <path d="M282.045,185.073c-5.178,.301-7.25-1.393-7.352-3.058-.093-1.507,1.452-1.626,1.427-2.016-.02-.339-1.582-.974-1.651-2.117-.113-1.845,2.134-2.529,2.111-2.892-.018-.311-2.004-1.391-2.122-3.314-.193-3.145,3.984-4.857,6.838-5.02,1.441-.083,3.417,.301,4.406,.246,2.146-.118,3.145-1.554,3.568-1.577,.65-.035,.974,.73,1.001,1.224,.078,1.456-1.446,2.58-1.431,2.867,.015,.26,.114,.54,.128,.801,.187,3.509-4.164,4.945-7.257,5.124-.48,.028-.96-.024-1.467,.007-.48,.028-.744,.33-.719,.746,.047,.805,1.292,.889,1.94,.852,.87-.051,4.107-.678,5.232-.739,2.926-.161,4.243,1.307,4.328,2.867,.124,2.342-2.119,5.606-8.978,5.999Zm.152-2.251c.925-.054,3.02-.302,2.953-1.498-.031-.545-.604-.747-1.139-.717-.421,.024-1.506,.242-2.404,.294-.645,.038-2.172-.083-2.482-.065-.253,.014-.321,.254-.312,.436,.082,1.377,2.29,1.612,3.383,1.55Zm-.652-14.278c-1.1,.064-1.525,1.053-1.471,1.963,.058,.988,.465,3.127,1.9,3.045,1.267-.072,1.632-1.109,1.575-2.123-.06-1.066-.424-2.975-2.004-2.885Z" fill="#8e0000"/>
        <path d="M298.695,165.725c.513,.053,.97,.134,1.167,.124,.282-.014,.506-.103,.754-.219,.249-.09,.5-.18,.755-.193,1.3-.063,2.713,2.268,2.763,3.334,.033,.702-.591,1.253-1.325,1.288-1.605,.076-2.609-1.933-3.85-1.872-.508,.025-.997,.44-.972,.934,.084,1.661,6.301,1.673,6.488,5.707,.114,2.445-2.363,4.253-5.281,4.398-.561,.028-1.38-.01-2.086-.078-.706-.043-1.328-.089-1.496-.08-.197,.01-.364,.044-.559,.081-.167,.035-.335,.069-.53,.079-.563,.029-.847-.034-1.262-.429-.739-.692-1.521-2.136-1.573-3.124-.035-.676,.188-1.236,1.004-1.278,1.24-.065,2.498,2.45,4.07,2.371,.563-.029,1.084-.315,1.055-.887-.076-1.536-5.599-1.435-5.827-5.721-.139-2.6,2.091-4.36,5.003-4.506,.565-.029,1.161-.006,1.703,.072Z" fill="#8e0000"/>
        <path d="M322.523,173.016c.118,3.069,1.735,1.888,1.787,3.266,.066,1.767-3.502,1.905-4.765,1.956-4.831,.195-5.07-.806-5.096-1.431-.039-.937,1.11-1.037,1.414-1.857,.328-.925,.228-4.7-.122-5.649-.292-.9-1.719-.553-1.768-1.723-.08-1.851,7.066-2.922,7.35-2.93,.847-.032,.899,.564,.92,1.111,.093,2.419,.186,4.838,.279,7.257Zm-5.954-9.012c-1.187,.049-2.48-.392-2.534-1.666-.074-1.717,3.637-2.575,5.082-2.631,1.133-.046,2.761,.23,2.812,1.531,.076,2.027-3.748,2.7-5.359,2.767Z" fill="#8e0000"/>
        <path d="M332.35,164.325c.512,.061,.968,.149,1.164,.143,.283-.009,.507-.095,.758-.207,.252-.086,.504-.172,.759-.181,1.301-.042,2.675,2.31,2.709,3.377,.022,.703-.609,1.244-1.344,1.267-1.608,.051-2.578-1.974-3.821-1.932-.509,.017-1.003,.426-.986,.919,.058,1.662,6.273,1.772,6.397,5.808,.075,2.446-2.428,4.216-5.348,4.315-.562,.019-1.379-.032-2.085-.11-.704-.053-1.325-.11-1.495-.104-.196,.007-.364,.039-.56,.072-.167,.032-.334,.064-.531,.071-.562,.02-.846-.048-1.254-.449-.729-.703-1.487-2.159-1.524-3.148-.025-.677,.208-1.232,1.024-1.262,1.239-.045,2.456,2.489,4.032,2.434,.562-.02,1.089-.297,1.069-.871-.052-1.537-5.576-1.522-5.737-5.812-.097-2.601,2.159-4.326,5.072-4.427,.567-.019,1.16,.012,1.702,.098Z" fill="#8e0000"/>
        <path d="M355.524,164.709c.003,.13-.018,.417,.207,.411,.142-.004,.584-.429,1.311-.836,.724-.434,1.706-.844,2.95-.871,3-.063,5.586,2.207,5.648,5.643,.078,4.451-3.454,7.976-8.284,8.083-3.539,.079-5.239-1.568-5.69-1.558-.449,.011-.89,.412-1.817,.436-.394,.011-.846-.082-.857-.498-.012-.417,.53-1.263,.442-4.647-.06-2.307-.12-4.614-.179-6.922-.039-1.51-2.142-.777-2.182-2.261-.049-1.744,5.418-3.059,7.772-3.111,.766-.018,.748,.529,.734,1.103-.018,1.676-.036,3.351-.054,5.027Zm1.505,2.778c-1.243,.028-1.361,.968-1.341,1.853,.116,5.049,.434,5.457,1.56,5.432,1.855-.041,2.125-1.999,2.097-3.326-.026-1.224-.452-4-2.315-3.959Z" fill="#8e0000"/>
        <path d="M368.34,168.669c-.044-2.551-1.77-1.088-1.798-2.676-.038-2.06,6.569-2.74,6.824-2.741,1.076-.015,1.106,.244,1.232,1.128,.034,.311,.013,.91,.494,.903,.678-.01,1.075-2.071,3.506-2.102,1.895-.023,3.152,1.264,3.171,2.983,.018,1.744-1.573,3.141-3.434,3.164-1.832,.023-2.36-1.454-3.095-1.444-.79,.011-.624,1.753-.617,2.222,.01,.781,.111,1.873,.265,2.86,.185,1.142,2.315,.411,2.335,1.974,.021,1.64-2.451,1.801-5.541,1.849-1.292,.019-5.113,.138-5.145-1.658-.021-1.093,1.275-1.115,1.568-2.032,.215-.655,.274-2.14,.261-2.868-.009-.521-.018-1.042-.027-1.562Z" fill="#8e0000"/>
        <path d="M390.615,171.477c.021,3.072,1.673,1.941,1.681,3.321,.011,1.769-3.557,1.792-4.822,1.804-4.835,.042-5.042-.967-5.048-1.592-.01-.938,1.143-1.001,1.473-1.811,.358-.915,.378-4.69,.057-5.65-.263-.908-1.701-.608-1.713-1.779-.022-1.852,7.154-2.697,7.439-2.695,.847-.006,.88,.592,.884,1.139,.016,2.421,.033,4.842,.049,7.263Zm-5.664-9.196c-1.188,.011-2.468-.471-2.481-1.746-.02-1.718,3.717-2.458,5.162-2.469,1.135-.01,2.752,.317,2.761,1.619,.014,2.03-3.83,2.58-5.442,2.596Z" fill="#8e0000"/>
        <path d="M400.981,171.9c.005,2.526,.96,2.081,.962,3.071,.002,1.613-3.736,1.569-4.888,1.574-1.124,.005-3.99,.018-3.999-1.543-.007-1.25,1.292-.137,1.365-2.689,.031-1.302,.062-2.603,.094-3.905,.046-1.927-1.672-1.293-1.68-2.673-.01-1.383,6.487-2.711,7.055-2.709,.623-.001,1.02,.491,1.021,1.012,0,.156-.028,.312-.028,.469,0,.313,.143,.677,.566,.676,.452,0,.705-.548,1.271-1.095,.564-.522,1.414-1.069,3.025-1.068,5.856,.006,4.85,5.293,5.121,9.249,.135,2.056,1.29,1.591,1.286,2.711-.002,.47,.108,1.558-5.175,1.551-1.012-.002-3.709,.052-3.711-1.405,0-.938,.928-.496,1.068-2.187,.141-1.848,.931-6.014-1.724-6.012-1.807,.002-1.634,1.798-1.632,2.97,.001,.668,.002,1.336,.004,2.004Z" fill="#8e0000"/>
        <path d="M419.95,181.58c-5.186-.034-7.141-1.859-7.136-3.526,.006-1.51,1.551-1.529,1.553-1.92,.001-.339-1.514-1.074-1.51-2.219,.006-1.849,2.291-2.385,2.293-2.75,.001-.312-1.911-1.518-1.903-3.444,.009-3.151,4.286-4.59,7.143-4.568,1.443,.01,3.389,.521,4.379,.53,2.148,.02,3.237-1.348,3.661-1.343,.65,.007,.926,.792,.92,1.286-.017,1.458-1.609,2.482-1.612,2.769-.003,.259,.079,.547,.076,.808-.039,3.514-4.473,4.666-7.571,4.645-.479-.003-.956-.084-1.464-.088-.478-.003-.763,.282-.765,.698-.003,.807,1.233,.97,1.88,.975,.872,.005,4.142-.411,5.267-.399,2.929,.027,4.149,1.578,4.131,3.141-.028,2.345-2.476,5.457-9.342,5.407Zm.297-2.236c.926,.007,3.031-.107,3.042-1.304,.004-.546-.553-.785-1.089-.789-.421-.004-1.517,.145-2.418,.138-.645-.005-2.161-.223-2.471-.225-.253-.001-.337,.232-.339,.415-.008,1.38,2.179,1.756,3.274,1.765Zm.271-14.29c-1.103-.008-1.589,.953-1.595,1.864-.006,.989,.262,3.151,1.699,3.161,1.267,.009,1.698-1.001,1.707-2.017,.008-1.067-.23-2.997-1.812-3.008Z" fill="#8e0000"/>
        <path d="M438.131,171.683c-.047,3.071,1.631,1.978,1.608,3.358-.03,1.768-3.598,1.713-4.862,1.696-4.833-.066-5.018-1.077-5.011-1.704,.01-.937,1.164-.976,1.512-1.778,.378-.907,.481-4.681,.183-5.648-.243-.915-1.686-.646-1.672-1.816,.02-1.852,7.213-2.538,7.496-2.53,.848,.012,.868,.612,.859,1.159-.037,2.421-.075,4.841-.112,7.262Zm-5.459-9.319c-1.187-.016-2.455-.525-2.44-1.801,.02-1.718,3.77-2.375,5.215-2.354,1.134,.016,2.745,.378,2.725,1.68-.032,2.029-3.888,2.495-5.5,2.475Z" fill="#8e0000"/>
        <path d="M448.486,172.336c-.051,2.524,.914,2.102,.894,3.091-.032,1.613-3.77,1.486-4.922,1.466-1.124-.021-3.99-.07-3.965-1.631,.02-1.251,1.296-.108,1.424-2.658,.061-1.301,.121-2.601,.181-3.902,.089-1.926-1.645-1.33-1.621-2.709,.021-1.383,6.548-2.567,7.113-2.552,.622,.012,1.008,.514,.998,1.035-.003,.156-.034,.312-.037,.468-.006,.313,.127,.68,.55,.688,.454,.009,.718-.532,1.295-1.066,.577-.509,1.437-1.037,3.048-1.001,5.854,.135,4.732,5.399,4.917,9.36,.09,2.059,1.254,1.62,1.226,2.739-.012,.47,.073,1.56-5.209,1.436-1.011-.023-3.711-.03-3.681-1.487,.019-.937,.939-.475,1.117-2.163,.18-1.845,1.062-5.993-1.591-6.049-1.807-.038-1.674,1.762-1.697,2.933-.014,.668-.027,1.336-.041,2.004Z" fill="#8e0000"/>
        <path d="M467.238,182.433c-5.185-.15-7.101-2.017-7.058-3.683,.038-1.509,1.585-1.494,1.595-1.885,.009-.339-1.489-1.106-1.46-2.252,.047-1.849,2.343-2.334,2.353-2.699,.01-.312-1.876-1.561-1.827-3.485,.079-3.15,4.386-4.495,7.245-4.409,1.442,.042,3.376,.595,4.365,.627,2.148,.067,3.267-1.275,3.692-1.262,.65,.021,.909,.812,.891,1.306-.048,1.457-1.666,2.445-1.674,2.732-.009,.26,.066,.549,.058,.809-.117,3.512-4.575,4.566-7.671,4.476-.479-.015-.956-.106-1.462-.12-.48-.014-.769,.265-.78,.681-.023,.806,1.211,.998,1.858,1.016,.872,.024,4.149-.319,5.275-.283,2.926,.093,4.114,1.67,4.061,3.231-.079,2.344-2.597,5.402-9.461,5.199Zm.345-2.229c.925,.027,3.034-.039,3.071-1.237,.016-.546-.538-.797-1.072-.813-.42-.013-1.521,.111-2.419,.085-.646-.019-2.157-.271-2.466-.279-.253-.007-.344,.225-.349,.407-.039,1.379,2.141,1.805,3.235,1.837Zm.588-14.281c-1.102-.032-1.61,.918-1.636,1.828-.027,.989,.192,3.156,1.629,3.198,1.27,.038,1.722-.963,1.753-1.979,.032-1.067-.164-3.001-1.746-3.047Z" fill="#8e0000"/>
        <path d="M495.071,172.509c-.073,1.742,.698,2.193,1.457,2.225,.872,.038,1.405-.539,1.911-.517,.562,.025,.925,.77,.904,1.238-.076,1.715-3.345,3.083-6.18,2.967-1.432-.06-5.003-.774-4.845-4.91,.069-1.786,.139-3.572,.208-5.358,.019-.468,.026-.65-.113-.733-.137-.083-.45-.044-1.099-.069-.733-.028-1.102-.015-1.238-.151-.192-.19-.126-.448-.103-1.047,.014-.364-.06-.653,.287-.848,2.195-1.176,4.394-2.35,6.596-3.519,.665-.337,.634-.261,1.484-.225,1.132,.047,1.194-.054,1.143,1.142-.035,.806-.125,1.61,.004,1.928,.076,.212,.274,.221,1.008,.252,.659,.028,1.319,.056,1.978,.085,1.215,.053,1.212,.131,1.16,1.301-.064,1.483-.267,1.578-1.368,1.53-.649-.028-1.298-.056-1.947-.084-.988-.042-1.046-.018-1.084,.918-.054,1.292-.109,2.584-.163,3.875Z" fill="#8e0000"/>
        <path d="M517.981,175.339c-.117,2.21,1.29,1.737,1.235,2.751-.081,1.508-3.672,1.291-4.711,1.239-.87-.046-4.267-.215-4.203-1.54,.038-.755,.824-.69,1.114-2.004,.21-.824,.283-1.732,.327-2.59,.065-1.3,.158-3.745-1.845-3.844-1.721-.083-1.729,1.272-1.785,2.441-.048,1.006-.097,2.011-.145,3.017-.104,2.158,1.042,1.77,.996,2.706-.074,1.508-3.275,1.38-4.343,1.331-4.016-.185-4.907-1.003-4.872-1.811,.046-1.04,1.12-.523,1.675-2.192,.393-1.207,.547-4.64,.612-6.069,.053-1.171,.021-2.37,.047-3.542,.027-1.848-1.7-1.275-1.645-2.497,.092-2.084,7.481-2.291,7.509-2.286,.85,.041,.895,.278,.859,1.031-.136,1.644-.271,3.288-.407,4.932-.052,.493-.119,1.323,.614,1.358,.847,.042,1.326-2.256,4.492-2.097,5.2,.265,4.594,4.747,4.584,5.476-.036,1.397-.072,2.794-.109,4.19Z" fill="#8e0000"/>
        <path d="M527.183,173.733c-.31-.018-.755-.121-.78,.32-.074,1.3,1.692,2.495,3.013,2.572,2.109,.123,3.217-.985,3.809-.949,.592,.035,1.049,.872,1.019,1.365-.122,2-4.167,3.217-6.692,3.074-5.049-.289-7.48-3.803-7.301-7.158,.213-4.003,4.07-6.717,8.31-6.473,4.803,.277,6.713,3.813,6.594,5.761-.104,1.715-.961,1.898-1.863,1.844-2.036-.122-4.073-.241-6.109-.357Zm2.639-3.134c.054-.935-.523-1.7-1.567-1.759-.932-.053-1.744,.788-1.791,1.62-.053,.935,.918,.782,1.651,.824,.76,.044,1.653,.252,1.707-.684Z" fill="#8e0000"/>
        <path d="M546.613,173.024c.169-2.545-1.674-1.231-1.57-2.816,.132-2.055,6.777-2.186,7.032-2.165,1.072,.074,1.084,.335,1.135,1.226,.006,.313-.062,.908,.417,.941,.678,.047,1.243-1.975,3.671-1.804,1.891,.134,3.039,1.522,2.915,3.236-.126,1.739-1.83,3-3.686,2.868-1.829-.129-2.234-1.645-2.966-1.695-.789-.055-.768,1.695-.8,2.163-.054,.779-.045,1.875,.028,2.872,.089,1.153,2.274,.602,2.164,2.16-.114,1.636-2.593,1.591-5.678,1.383-1.29-.088-5.109-.287-4.993-2.079,.07-1.091,1.363-1.006,1.732-1.895,.267-.635,.45-2.11,.498-2.837,.034-.52,.069-1.039,.103-1.559Z" fill="#8e0000"/>
        <path d="M568.593,177.669c-.233,3.062,1.509,2.074,1.402,3.45-.136,1.764-3.697,1.491-4.96,1.397-4.823-.359-4.947-1.381-4.901-2.006,.069-.935,1.222-.903,1.618-1.683,.432-.882,.765-4.643,.526-5.626-.187-.927-1.644-.747-1.56-1.914,.132-1.847,7.357-2.094,7.641-2.069,.845,.064,.829,.663,.787,1.209-.185,2.414-.369,4.828-.554,7.242Zm-4.886-9.634c-1.185-.088-2.42-.674-2.328-1.946,.124-1.714,3.91-2.142,5.352-2.032,1.131,.085,2.718,.545,2.619,1.843-.154,2.024-4.035,2.253-5.643,2.135Z" fill="#8e0000"/>
        <path d="M571.158,176.665c.356-4.646,4.991-6.924,9.648-6.542,4.94,.405,7.456,4.204,7.179,7.418-.368,4.253-5.522,6.426-9.639,6.092-4.148-.337-7.505-2.868-7.189-6.969Zm8.187-3.58c-.931-.076-1.502,.688-1.506,1.445-.019,1.645,.163,5.68,2.092,5.942,1.063,.14,1.357-.672,1.425-1.502,.096-1.168-.095-5.729-2.011-5.885Z" fill="#8e0000"/>
        <path d="M597.518,179.266c-.156,1.737,.592,2.223,1.35,2.292,.87,.079,1.43-.471,1.935-.425,.562,.051,.887,.813,.844,1.28-.159,1.71-3.489,2.92-6.319,2.668-1.429-.129-4.966-1.012-4.608-5.136,.155-1.781,.309-3.562,.464-5.342,.039-.467,.055-.648-.077-.738-.133-.09-.448-.065-1.096-.121-.732-.062-1.101-.068-1.231-.21-.182-.2-.103-.454-.053-1.05,.031-.363-.029-.655,.327-.834,2.25-1.07,4.504-2.137,6.762-3.2,.682-.305,.646-.23,1.494-.154,1.129,.101,1.196,.003,1.088,1.196-.072,.803-.202,1.603-.088,1.926,.065,.216,.263,.233,.996,.3,.658,.06,1.316,.119,1.974,.18,1.212,.111,1.205,.189,1.098,1.355-.136,1.478-.341,1.563-1.441,1.462-.648-.059-1.295-.118-1.943-.177-.985-.089-1.044-.067-1.128,.865-.116,1.288-.232,2.576-.348,3.863Z" fill="#8e0000"/>
        <path d="M602.637,179.341c.425-4.64,5.094-6.85,9.747-6.399,4.935,.478,7.395,4.313,7.072,7.523-.43,4.247-5.617,6.343-9.73,5.95-4.143-.398-7.465-2.978-7.088-7.074Zm8.241-3.459c-.929-.089-1.514,.665-1.527,1.422-.043,1.644,.081,5.682,2.005,5.972,1.061,.156,1.367-.652,1.447-1.48,.114-1.166-.011-5.73-1.925-5.914Z" fill="#8e0000"/>
        <path d="M628.318,182.263c-.109,1.035-.192,2.649,1.321,2.808,2.017,.213,1.996-2.249,2.128-3.492,.09-.855,.237-1.965,.184-2.808-.088-1.319-1.512-1.024-1.397-2.111,.159-1.529,5.848-1.185,6.917-1.066,1.014,.11,1.377,.699,1.278,1.605-.09,.828-.234,1.625-.324,2.453-.189,1.734-.379,3.468-.568,5.202-.17,1.552,1.452,.997,1.314,2.238-.195,1.758-5.2,1.71-6.74,1.548-2.155-.229-.562-1.63-1.682-1.749-.307-.032-.798,.309-1.51,.626-.713,.317-1.649,.611-2.881,.483-5.318-.549-4.476-4.383-4.081-8.27,.403-3.962-1.715-2.424-1.542-4.132,.165-1.661,7.274-1.012,7.498-.985,.789,.083,.839,.427,.771,1.075-.229,2.192-.458,4.384-.688,6.576Z" fill="#8e0000"/>
        <path d="M648.806,176.933c.497,.135,.936,.29,1.133,.312,.28,.032,.515-.019,.78-.094,.263-.048,.525-.097,.778-.068,1.294,.149,2.312,2.678,2.188,3.738-.08,.698-.787,1.14-1.517,1.056-1.6-.185-2.264-2.331-3.502-2.472-.506-.058-1.056,.273-1.112,.764-.186,1.653,5.954,2.674,5.487,6.684-.284,2.431-3.024,3.814-5.931,3.483-.559-.063-1.362-.233-2.05-.415-.69-.156-1.297-.304-1.465-.322-.196-.022-.366-.015-.565-.011-.171,.008-.341,.013-.537-.008-.56-.062-.831-.171-1.176-.628-.619-.803-1.157-2.354-1.048-3.338,.074-.673,.387-1.189,1.2-1.098,1.234,.137,2.069,2.823,3.637,3,.559,.063,1.12-.135,1.185-.704,.173-1.528-5.3-2.324-4.829-6.591,.285-2.588,2.774-3.963,5.674-3.635,.563,.064,1.149,.182,1.672,.347Z" fill="#8e0000"/>
        <path d="M665.412,185.34c.154-.794-.078-1.243-.975-1.351-.336-.041-1.222-.017-1.166-.482,.247-2.042,.107-2.295,.956-2.244,.341,.015,.792,.043,.846-.396,.059-.49-.892-1.577-.695-3.205,.371-3.076,3.966-3.688,6.785-3.337,4.596,.572,5.382,2.932,5.242,4.042-.137,1.085-1.209,1.867-2.389,1.719-2.445-.307-2.465-2.67-4.07-2.869-.563-.07-1.008,.294-1.071,.811-.2,1.628,2.655,2.532,3.019,3.732,.059,.218,.076,.299,.357,.334,1.179,.147,2.816,.065,2.662,.833-.127,.623-.253,1.245-.379,1.868-.077,.384-.392,.397-.785,.347-1.654-.208-1.931-.268-2.145,1.436-.09,.723-.118,1.638-.007,2.333,.309,1.613,2.4,1.037,2.197,2.638-.078,.623-.294,1.872-6.581,1.093-1.34-.167-4.944-.631-4.724-2.439,.176-1.448,2.053-.538,2.356-2.1,.188-.921,.377-1.842,.566-2.763Z" fill="#8e0000"/>
        <path d="M683.651,188.776c-.135,1.032-.261,2.644,1.249,2.842,2.013,.266,2.055-2.196,2.22-3.435,.112-.852,.287-1.958,.257-2.802-.054-1.32-1.486-1.063-1.343-2.147,.2-1.525,5.882-1.032,6.948-.886,1.01,.136,1.36,.735,1.237,1.638-.112,.825-.276,1.618-.388,2.444-.234,1.728-.469,3.457-.703,5.185-.21,1.548,1.426,1.035,1.257,2.272-.24,1.752-5.246,1.574-6.783,1.371-2.149-.285-.519-1.645-1.638-1.793-.307-.04-.805,.287-1.526,.587-.721,.298-1.666,.568-2.895,.408-5.305-.688-4.365-4.498-3.868-8.374,.505-3.95-1.651-2.467-1.436-4.171,.209-1.656,7.302-.822,7.527-.79,.788,.103,.828,.449,.743,1.095-.286,2.185-.572,4.37-.858,6.555Z" fill="#8e0000"/>
        <path d="M703.315,192.73c-.352,2.501,.659,2.197,.522,3.176-.225,1.598-3.929,1.026-5.072,.868-1.118-.155-3.961-.546-3.751-2.092,.17-1.239,1.302,.048,1.733-2.469,.214-1.284,.428-2.568,.642-3.853,.319-1.901-1.475-1.517-1.289-2.883,.184-1.37,6.821-1.768,7.383-1.686,.616,.086,.941,.631,.869,1.146-.021,.155-.071,.306-.093,.46-.043,.31,.045,.689,.467,.749,.448,.063,.776-.443,1.414-.904,.634-.437,1.553-.859,3.152-.631,5.811,.833,4.068,5.926,3.781,9.88-.156,2.055,1.056,1.758,.895,2.866-.068,.465-.115,1.558-5.356,.804-1.003-.144-3.687-.473-3.484-1.915,.131-.929,.99-.36,1.368-2.015,.398-1.811,1.77-5.824-.864-6.196-1.793-.253-1.874,1.55-2.038,2.71-.093,.661-.185,1.323-.279,1.984Z" fill="#8e0000"/>
        <path d="M724.236,194.087c.69-4.608,5.485-6.547,10.111-5.83,4.907,.76,7.153,4.73,6.645,7.917-.672,4.216-5.978,6.011-10.07,5.382-4.122-.635-7.295-3.401-6.686-7.469Zm8.439-2.981c-.925-.142-1.552,.578-1.609,1.333-.138,1.638-.242,5.679,1.666,6.077,1.053,.216,1.403-.572,1.531-1.395,.18-1.158,.316-5.721-1.589-6.015Z" fill="#8e0000"/>
        <path d="M744.071,196.426c.183-.787-.032-1.244-.926-1.387-.334-.053-1.222-.063-1.148-.525,.321-2.031,.191-2.289,1.039-2.207,.34,.028,.791,.072,.861-.364,.078-.488-.835-1.609-.578-3.229,.485-3.06,4.103-3.538,6.912-3.083,4.577,.743,5.279,3.131,5.097,4.234-.177,1.079-1.278,1.821-2.454,1.629-2.436-.398-2.368-2.759-3.967-3.018-.561-.09-1.018,.257-1.102,.771-.261,1.619,2.564,2.63,2.884,3.842,.051,.22,.064,.302,.345,.347,1.175,.191,2.816,.17,2.633,.931-.149,.617-.299,1.235-.448,1.852-.09,.381-.406,.382-.798,.318-1.647-.27-1.922-.34-2.199,1.356-.116,.719-.181,1.632-.093,2.332,.25,1.623,2.363,1.125,2.101,2.718-.102,.619-.363,1.861-6.625,.848-1.336-.216-4.922-.814-4.638-2.613,.229-1.44,2.074-.462,2.435-2.011,.223-.914,.445-1.827,.668-2.741Z" fill="#8e0000"/>
        <path d="M110.904,221.274c-.058-.806-.39-1.181-1.274-1.057-.331,.047-1.168,.296-1.234-.167-.288-2.037-.487-2.245,.334-2.413,.329-.073,.767-.161,.705-.599-.068-.489-1.254-1.296-1.484-2.919-.434-3.067,2.83-4.579,5.606-4.962,4.523-.624,5.877,1.455,6.028,2.563,.147,1.083-.671,2.114-1.834,2.273-2.407,.329-3.032-1.949-4.611-1.73-.554,.076-.883,.543-.812,1.058,.227,1.624,3.178,1.768,3.832,2.834,.111,.195,.151,.269,.427,.231,1.159-.16,2.698-.658,2.748,.123,.039,.634,.079,1.268,.118,1.902,.024,.391-.273,.483-.658,.536-1.63,.222-1.908,.236-1.674,1.937,.099,.722,.305,1.613,.59,2.257,.709,1.479,2.55,.387,2.768,1.987,.084,.621,.2,1.885-5.985,2.741-1.32,.182-4.869,.656-5.125-1.147-.203-1.444,1.817-1.045,1.706-2.633-.057-.938-.114-1.877-.171-2.815Z" fill="#8e0000"/>
        <path d="M135.174,218.536c.584,4.544,1.919,1.854,2.098,3.248,.187,1.471-1.755,3.347-3.763,3.608-2.173,.283-2.402-1.025-3.09-.935-.331,.044-.644,.425-1.208,.815-.562,.416-1.342,.86-2.608,1.028-2.283,.304-4.719-.522-5.066-3.076-.25-1.83,1.321-4.359,6.182-5.002,.856-.113,1.25-.112,1.128-1.041-.112-.852-.374-2.629-1.646-2.461-1.659,.22-1.455,3.028-3.912,3.357-.885,.119-1.628-.385-1.74-1.21-.298-2.194,4.191-4.242,6.823-4.586,1.578-.209,5.975-.201,6.471,3.674,.111,.86,.221,1.721,.332,2.581Zm-7.981,3.353c.089,.671,.571,1.341,1.37,1.236,1.047-.138,.99-1.207,.889-1.981-.075-.569-.132-1.216-.905-1.115-.937,.123-1.464,1.033-1.354,1.86Z" fill="#8e0000"/>
        <path d="M139.017,216.996c-.209-1.653-.627-2.073-.934-2.27-.395-.238-.78-.163-.865-.834-.246-1.915,6.535-3.501,6.591-3.504,.693-.087,.819,.475,.886,1.018,.039,.31,.036,1.202,.617,1.13,.276-.034,.649-.656,1.353-1.346,.706-.664,1.744-1.369,3.38-1.566,3.3-.398,3.601,1.901,4.183,1.831,.221-.026,.651-.654,1.385-1.344,.764-.667,1.806-1.367,3.22-1.532,2.635-.307,4.426,.85,4.716,3.385,.209,1.819,.417,3.638,.626,5.457,.172,1.5,1.206,1.512,1.293,2.262,.186,1.628-2.945,2.067-4.021,2.193-.909,.105-4.127,.3-4.286-1.044-.113-.956,.855-1.044,.679-2.543-.091-.776-.183-1.551-.274-2.327-.128-1.086-.245-3.274-1.823-3.088-1.55,.184-1.2,1.926-1.088,2.882,.064,.534,.127,1.069,.191,1.603,.379,3.178,1.307,2.519,1.42,3.475,.189,1.602-3.112,2.022-4.105,2.143-4.157,.503-4.467-.189-4.528-.917-.141-1.372,1.37-.457,.912-3.521-.06-.491-.12-.982-.18-1.472-.115-.93-.259-3.274-1.836-3.08-1.549,.19-1.193,1.931-1.075,2.887,.086,.698,.172,1.395,.259,2.092,.294,2.377,1.019,2.131,1.133,3.06,.082,.672-.438,1.652-4.21,2.123-1.075,.134-4.32,.572-4.494-.796-.148-1.162,1.584-.753,1.176-3.981-.1-.792-.201-1.584-.301-2.376Z" fill="#8e0000"/>
        <path d="M173.812,215.343c.335,3.053,1.843,1.762,1.993,3.134,.192,1.758-3.309,2.143-4.55,2.282-4.74,.531-5.048-.45-5.12-1.073-.107-.932,1.02-1.112,1.261-1.951,.256-.946-.113-4.704-.525-5.626-.351-.878-1.733-.432-1.865-1.596-.211-1.84,6.747-3.406,7.026-3.434,.833-.092,.926,.5,.985,1.044,.265,2.406,.53,4.813,.794,7.219Zm-6.506-8.574c-1.166,.131-2.47-.219-2.614-1.486-.195-1.707,3.396-2.821,4.814-2.978,1.113-.124,2.735,.037,2.877,1.331,.221,2.017-3.496,2.954-5.078,3.133Z" fill="#8e0000"/>
        <path d="M184.413,214.361c.049,.465,.111,1.323,.293,1.722,.401,.9,1.599,.331,1.712,1.419,.181,1.733-3.199,1.957-4.383,2.083-1.242,.13-5.087,.677-5.287-1.159-.098-.906,1.125-.698,1.352-1.692,.243-1.1-.105-4.335-.242-5.603-.109-1.009-.262-2.956-.637-4.094-.623-1.871-2.188-1.02-2.348-2.495-.247-2.255,6.927-3.574,7.318-3.612,.945-.1,1.228,.446,1.309,1.224,.062,.596-.002,3.481,.388,7.183,.176,1.674,.351,3.349,.527,5.023Z" fill="#8e0000"/>
        <path d="M198.922,215.374c-1.017,3.579-2.446,7.117-6.932,7.572-1.981,.201-4.42-.513-4.643-2.662-.135-1.295,.8-2.492,2.208-2.636,2.566-.263,2.129,2.557,3.258,2.442,.746-.076,1.007-.782,.948-1.378-.073-.726-.723-1.654-1.121-2.268-1.544-2.399-3.093-4.797-4.646-7.193-.634-.982-2.182-.507-2.305-1.698-.08-.775,.3-1.971,6.158-2.567,1.054-.107,3.565-.253,3.711,1.224,.069,.698-.549,.97-.487,1.591,.099,.984,1.499,2.677,1.968,2.63,.831-.082,1.238-1.926,1.177-2.548-.114-1.166-.994-1-1.081-1.882-.136-1.372,2.46-1.784,3.459-1.88,.917-.089,2.984-.156,3.098,1.036,.146,1.529-1.582,1.014-2.406,2.636-.522,.966-.854,2.149-1.144,3.198-.407,1.461-.813,2.921-1.218,4.382Z" fill="#8e0000"/>
        <path d="M221.365,211.125c.219,2.516,1.12,1.993,1.206,2.979,.139,1.607-3.539,1.876-4.67,1.978-1.105,.098-3.921,.353-4.063-1.202-.114-1.245,1.259-.245,1.112-2.793-.08-1.3-.159-2.599-.239-3.899-.119-1.924-1.755-1.148-1.88-2.522-.127-1.377,6.148-3.245,6.704-3.291,.612-.053,1.044,.405,1.089,.923,.013,.156,0,.313,.014,.469,.027,.311,.197,.662,.613,.626,.445-.038,.647-.605,1.156-1.197,.51-.567,1.299-1.183,2.882-1.318,5.755-.486,5.218,4.867,5.82,8.786,.307,2.037,1.403,1.477,1.494,2.593,.038,.468,.237,1.543-4.954,1.979-.995,.083-3.642,.363-3.768-1.089-.081-.934,.87-.572,.865-2.269-.021-1.853,.403-6.071-2.205-5.846-1.776,.154-1.453,1.929-1.351,3.096,.058,.665,.116,1.331,.174,1.996Z" fill="#8e0000"/>
        <path d="M241.036,209.032c.239,3.062,1.785,1.82,1.89,3.196,.135,1.764-3.373,2.036-4.617,2.136-4.752,.379-5.028-.612-5.079-1.236-.076-.935,1.054-1.079,1.322-1.909,.285-.936,.037-4.705-.346-5.64-.324-.888-1.716-.488-1.811-1.655-.153-1.846,6.848-3.189,7.127-3.207,.835-.065,.908,.53,.951,1.075,.188,2.414,.375,4.827,.563,7.241Zm-6.224-8.778c-1.168,.093-2.46-.298-2.563-1.569-.141-1.713,3.481-2.711,4.903-2.823,1.116-.089,2.729,.125,2.831,1.422,.156,2.023-3.586,2.841-5.171,2.969Z" fill="#8e0000"/>
        <path d="M251.164,218.396c-5.099,.375-7.169-1.289-7.298-2.951-.116-1.506,1.402-1.647,1.373-2.036-.026-.338-1.573-.951-1.661-2.093-.142-1.843,2.06-2.559,2.033-2.922-.022-.311-1.998-1.363-2.145-3.282-.242-3.142,3.845-4.914,6.656-5.118,1.418-.104,3.374,.25,4.346,.182,2.114-.15,3.075-1.6,3.492-1.629,.64-.044,.974,.716,1.007,1.209,.1,1.455-1.384,2.601-1.364,2.887,.018,.259,.122,.539,.14,.799,.243,3.506-4.024,5.004-7.069,5.229-.471,.034-.948-.008-1.447,.028-.471,.035-.726,.341-.695,.757,.06,.804,1.29,.869,1.926,.823,.858-.064,4.037-.737,5.145-.815,2.879-.203,4.204,1.245,4.311,2.804,.16,2.34-1.998,5.636-8.749,6.128Zm.112-2.253c.912-.067,2.971-.346,2.886-1.541-.039-.544-.609-.739-1.133-.701-.415,.03-1.48,.264-2.365,.329-.634,.047-2.144-.051-2.447-.029-.249,.019-.313,.258-.3,.441,.101,1.376,2.283,1.578,3.358,1.501Zm-.876-14.266c-1.084,.079-1.485,1.075-1.417,1.984,.073,.986,.508,3.12,1.923,3.017,1.248-.091,1.589-1.133,1.516-2.146-.077-1.064-.464-2.969-2.021-2.855Z" fill="#8e0000"/>
        <path d="M277.971,207.422c.133,2.209,1.458,1.582,1.518,2.596,.09,1.506-3.452,1.693-4.476,1.758-.858,.052-4.203,.264-4.287-1.061-.048-.753,.728-.777,.866-2.116,.114-.841,.084-1.753,.03-2.611-.082-1.298-.265-3.74-2.236-3.613-1.695,.109-1.551,1.457-1.476,2.625,.065,1.005,.13,2.009,.196,3.014,.14,2.156,1.219,1.642,1.279,2.577,.097,1.507-3.055,1.737-4.104,1.808-3.954,.264-4.919-.449-4.975-1.255-.071-1.039,1.04-.645,1.396-2.365,.248-1.243,.015-4.671-.081-6.099-.079-1.169-.244-2.358-.35-3.525-.18-1.839-1.807-1.077-1.89-2.297-.145-2.08,7.069-3.112,7.098-3.11,.837-.054,.909,.176,.958,.929,.051,1.649,.102,3.298,.153,4.947,.004,.495,.03,1.328,.753,1.281,.833-.053,1.046-2.39,4.163-2.586,5.123-.318,5.031,4.204,5.102,4.929,.121,1.392,.242,2.784,.362,4.176Z" fill="#8e0000"/>
        <path d="M288.487,205.068c.095,1.742,.895,2.115,1.643,2.074,.859-.047,1.325-.671,1.825-.698,.554-.029,.981,.678,1.006,1.145,.09,1.715-2.984,3.39-5.776,3.547-1.41,.078-4.983-.289-5.225-4.421-.104-1.784-.208-3.569-.312-5.353-.027-.468-.039-.649-.182-.719-.143-.07-.446,0-1.086,.037-.722,.043-1.082,.091-1.228-.031-.206-.171-.166-.434-.202-1.032-.021-.364-.123-.644,.199-.872,2.04-1.382,4.084-2.761,6.132-4.137,.621-.399,.597-.32,1.434-.367,1.115-.063,1.166-.168,1.232,1.027,.044,.805,.033,1.616,.19,1.918,.095,.204,.289,.193,1.013,.154,.65-.035,1.299-.071,1.949-.106,1.197-.064,1.202,.015,1.264,1.183,.079,1.482-.11,1.596-1.196,1.654-.639,.034-1.279,.069-1.918,.104-.972,.053-1.027,.083-.975,1.018,.071,1.291,.143,2.582,.214,3.873Z" fill="#8e0000"/>
        <path d="M310.244,204.789c.138,3.068,1.724,1.877,1.785,3.256,.078,1.767-3.437,1.925-4.683,1.983-4.759,.223-5.001-.777-5.032-1.402-.046-.936,1.088-1.043,1.382-1.865,.316-.927,.193-4.701-.161-5.648-.293-.898-1.697-.544-1.754-1.713-.092-1.85,6.944-2.963,7.224-2.971,.836-.038,.89,.559,.914,1.105,.109,2.418,.217,4.837,.326,7.255Zm-5.93-8.977c-1.169,.056-2.447-.378-2.508-1.652-.084-1.717,3.565-2.596,4.99-2.66,1.117-.052,2.723,.214,2.782,1.515,.09,2.027-3.676,2.721-5.264,2.798Z" fill="#8e0000"/>
        <path d="M320.875,204.495c.019,.467,.024,1.328,.181,1.737,.342,.925,1.57,.433,1.614,1.527,.067,1.741-3.314,1.745-4.503,1.795-1.247,.05-5.114,.346-5.195-1.499-.039-.91,1.166-.625,1.457-1.601,.315-1.082,.177-4.333,.122-5.607-.043-1.015-.071-2.967-.372-4.127-.5-1.907-2.115-1.16-2.18-2.642-.101-2.266,7.134-3.119,7.527-3.13,.95-.038,1.196,.525,1.227,1.306,.023,.598-.226,3.473-.077,7.193,.067,1.682,.134,3.365,.201,5.047Z" fill="#8e0000"/>
        <path d="M331.527,204.097c.016,.468,.018,1.327,.171,1.738,.337,.927,1.569,.442,1.607,1.535,.059,1.742-3.323,1.729-4.513,1.773-1.245,.044-5.115,.32-5.186-1.525-.035-.91,1.171-.619,1.465-1.593,.32-1.081,.198-4.332,.15-5.606-.038-1.015-.057-2.967-.351-4.128-.489-1.909-2.11-1.17-2.167-2.652-.09-2.267,7.151-3.082,7.542-3.092,.949-.033,1.193,.531,1.22,1.312,.021,.599-.242,3.473-.112,7.193,.059,1.683,.117,3.365,.176,5.048Z" fill="#8e0000"/>
        <path d="M341.818,202.8c.031,1.041,.162,2.651,1.66,2.607,1.995-.058,1.649-2.494,1.614-3.744-.024-.859-.029-1.979-.19-2.807-.26-1.295-1.611-.814-1.643-1.906-.047-1.537,5.547-1.954,6.607-1.979,1.002-.026,1.435,.51,1.458,1.42,.021,.832-.014,1.641,.007,2.474,.044,1.744,.088,3.487,.133,5.231,.039,1.561,1.547,.794,1.577,2.043,.042,1.768-4.845,2.388-6.367,2.432-2.132,.06-.764-1.541-1.871-1.509-.306,.008-.738,.412-1.391,.822-.654,.409-1.527,.826-2.746,.863-5.258,.163-4.945-3.748-5.073-7.653-.131-3.98-1.992-2.174-2.05-3.89-.057-1.669,6.962-1.971,7.185-1.975,.781-.023,.873,.312,.893,.963,.066,2.203,.132,4.406,.198,6.608Z" fill="#8e0000"/>
        <path d="M361.094,194.787c.503,.068,.952,.162,1.147,.158,.279-.007,.5-.088,.749-.197,.248-.083,.498-.167,.748-.171,1.282-.025,2.609,2.346,2.628,3.413,.013,.703-.619,1.235-1.341,1.249-1.584,.03-2.515-2.008-3.74-1.983-.501,.011-.995,.411-.984,.906,.036,1.662,6.158,1.855,6.23,5.892,.044,2.446-2.445,4.183-5.324,4.243-.553,.012-1.358-.05-2.052-.138-.694-.063-1.304-.127-1.47-.124-.194,.005-.359,.033-.554,.064-.166,.03-.329,.059-.524,.064-.555,.013-.834-.059-1.23-.466-.71-.713-1.439-2.179-1.463-3.168-.016-.676,.221-1.229,1.025-1.249,1.222-.029,2.391,2.522,3.942,2.488,.554-.013,1.075-.283,1.063-.856-.032-1.538-5.474-1.597-5.579-5.888-.063-2.602,2.184-4.297,5.054-4.359,.557-.012,1.144,.027,1.674,.121Z" fill="#8e0000"/>
        <path d="M376.131,202.052c.024,1.744,.807,2.15,1.555,2.141,.859-.011,1.352-.616,1.851-.622,.556-.006,.953,.717,.958,1.186,.02,1.718-3.12,3.264-5.916,3.305-1.412,.019-4.965-.496-5.036-4.634-.03-1.787-.06-3.574-.09-5.362-.008-.468-.01-.651-.151-.726-.14-.075-.446-.019-1.085-.008-.724,.012-1.086,.046-1.228-.082-.198-.179-.146-.441-.157-1.039-.007-.365-.096-.649,.235-.863,2.094-1.296,4.193-2.589,6.295-3.879,.636-.373,.609-.296,1.447-.307,1.119-.016,1.17-.12,1.187,1.077,.011,.807-.032,1.615,.11,1.924,.087,.208,.282,.206,1.006,.195,.65-.009,1.301-.017,1.951-.025,1.199-.015,1.2,.064,1.213,1.235,.017,1.484-.175,1.59-1.262,1.603-.64,.008-1.28,.016-1.92,.024-.974,.013-1.03,.041-1.017,.977,.018,1.293,.035,2.586,.053,3.879Z" fill="#8e0000"/>
        <path d="M382.798,199.707c-.027-2.551-1.736-1.101-1.755-2.688-.025-2.059,6.492-2.696,6.743-2.695,1.06-.008,1.09,.252,1.207,1.136,.031,.311,.007,.91,.481,.907,.667-.005,1.072-2.064,3.469-2.078,1.868-.011,3.098,1.286,3.105,3.004,.007,1.744-1.571,3.13-3.404,3.141-1.806,.011-2.317-1.469-3.04-1.464-.778,.005-.627,1.749-.623,2.218,.005,.781,.098,1.873,.243,2.862,.175,1.144,2.278,.427,2.288,1.989,.011,1.639-2.426,1.784-5.472,1.812-1.274,.01-5.039,.103-5.06-1.693-.013-1.092,1.264-1.107,1.559-2.021,.215-.654,.283-2.138,.275-2.866-.005-.521-.011-1.042-.016-1.562Z" fill="#8e0000"/>
        <path d="M410.76,201.264c-.013,4.582,1.658,2.088,1.654,3.493-.006,1.483-2.172,3.09-4.192,3.087-2.188-.003-2.243-1.329-2.936-1.33-.333,0-.693,.338-1.301,.651-.61,.339-1.44,.677-2.714,.68-2.298,.004-4.601-1.132-4.612-3.709-.008-1.847,1.873-4.15,6.766-4.155,.861,0,1.251,.051,1.251-.885,0-.859-.029-2.656-1.309-2.655-1.671,.002-1.833,2.813-4.307,2.819-.89,.003-1.561-.593-1.563-1.427-.01-2.214,4.698-3.659,7.346-3.658,1.589-.002,5.938,.579,5.925,4.485-.002,.868-.005,1.735-.007,2.603Zm-8.332,2.285c0,.677,.391,1.404,1.195,1.404,1.054,0,1.137-1.068,1.137-1.848,0-.573,.027-1.224-.75-1.223-.943,0-1.583,.834-1.581,1.667Z" fill="#8e0000"/>
        <path d="M421.808,201.921c-.013,1.743,.76,2.167,1.509,2.174,.862,.007,1.365-.586,1.864-.582,.556,.005,.936,.737,.932,1.206-.018,1.717-3.19,3.196-5.986,3.176-1.412-.011-4.954-.602-4.935-4.741,.009-1.787,.017-3.575,.026-5.362,.002-.469,.002-.65-.135-.729-.139-.078-.446-.029-1.085-.031-.725-.003-1.087,.022-1.225-.108-.193-.183-.136-.444-.134-1.042,0-.364-.082-.651,.254-.857,2.122-1.251,4.247-2.498,6.377-3.742,.644-.359,.616-.282,1.453-.276,1.117,.008,1.172-.094,1.163,1.103-.006,.807-.068,1.614,.068,1.926,.082,.209,.278,.212,1.002,.217,.651,.005,1.301,.011,1.951,.017,1.198,.011,1.198,.09,1.186,1.26-.015,1.484-.21,1.586-1.296,1.575-.64-.006-1.28-.012-1.92-.017-.974-.009-1.031,.018-1.038,.954l-.031,3.879Z" fill="#8e0000"/>
        <path d="M434.791,202.872c-.044,3.071,1.61,1.976,1.589,3.355-.026,1.769-3.543,1.719-4.789,1.704-4.764-.058-4.947-1.07-4.941-1.696,.009-.938,1.147-.977,1.49-1.78,.37-.907,.466-4.681,.172-5.648-.241-.914-1.663-.643-1.651-1.813,.017-1.853,7.105-2.549,7.385-2.541,.836,.012,.855,.61,.848,1.157-.034,2.421-.068,4.841-.102,7.262Zm-5.39-9.311c-1.172-.013-2.421-.521-2.407-1.797,.017-1.718,3.712-2.382,5.137-2.362,1.119,.014,2.705,.374,2.687,1.676-.029,2.029-3.827,2.5-5.417,2.483Z" fill="#8e0000"/>
        <path d="M437.251,201.709c.068-4.659,4.483-7.222,9.084-7.132,4.88,.095,7.582,3.729,7.506,6.955-.101,4.267-5.034,6.758-9.102,6.683-4.095-.077-7.549-2.393-7.489-6.506Zm7.828-4.084c-.918-.017-1.434,.781-1.392,1.536,.081,1.642,.507,5.659,2.419,5.8,1.052,.073,1.292-.755,1.308-1.588,.024-1.172-.442-5.712-2.335-5.748Z" fill="#8e0000"/>
        <path d="M462.559,203.912c-.069,2.524,.885,2.108,.858,3.097-.046,1.613-3.725,1.461-4.86,1.433-1.107-.029-3.932-.096-3.895-1.657,.029-1.25,1.277-.1,1.422-2.648,.068-1.3,.137-2.6,.206-3.9,.102-1.925-1.609-1.341-1.577-2.72,.029-1.382,6.471-2.524,7.029-2.505,.615,.016,.99,.521,.976,1.041-.005,.156-.036,.311-.041,.468-.009,.312,.121,.68,.538,.692,.446,.012,.712-.527,1.284-1.058,.572-.505,1.424-1.028,3.011-.981,5.769,.174,4.623,5.43,4.776,9.392,.075,2.058,1.226,1.628,1.189,2.747-.015,.47,.059,1.56-5.145,1.402-.996-.03-3.656-.055-3.615-1.511,.026-.938,.928-.469,1.116-2.156,.192-1.843,1.091-5.985-1.523-6.059-1.78-.049-1.662,1.751-1.694,2.922-.018,.668-.036,1.335-.054,2.003Z" fill="#8e0000"/>
        <path d="M489.661,214.464c-5.108-.204-6.974-2.091-6.913-3.757,.055-1.508,1.58-1.478,1.594-1.868,.013-.339-1.454-1.123-1.413-2.267,.067-1.848,2.336-2.309,2.349-2.674,.012-.312-1.831-1.579-1.76-3.504,.115-3.149,4.376-4.448,7.19-4.332,1.419,.057,3.32,.631,4.295,.672,2.115,.09,3.235-1.242,3.653-1.223,.64,.028,.886,.821,.863,1.315-.067,1.456-1.668,2.427-1.681,2.715-.011,.259,.059,.549,.048,.81-.156,3.51-4.562,4.517-7.612,4.396-.471-.019-.941-.116-1.439-.136-.473-.019-.761,.257-.777,.673-.031,.806,1.182,1.01,1.819,1.036,.859,.034,4.092-.275,5.202-.227,2.883,.124,4.034,1.713,3.965,3.273-.107,2.343-2.622,5.374-9.383,5.099Zm.366-2.225c.913,.037,2.99-.007,3.041-1.204,.022-.545-.52-.803-1.047-.824-.414-.018-1.5,.095-2.385,.059-.636-.026-2.122-.294-2.427-.305-.249-.01-.341,.221-.348,.404-.054,1.378,2.09,1.827,3.167,1.871Zm.744-14.274c-1.086-.044-1.598,.901-1.633,1.811-.039,.989,.152,3.158,1.568,3.215,1.249,.051,1.707-.946,1.75-1.96,.044-1.067-.126-3.002-1.686-3.066Z" fill="#8e0000"/>
        <path d="M513.991,204.062c-.236,4.575,1.555,2.166,1.482,3.57-.078,1.481-2.32,2.98-4.339,2.879-2.186-.11-2.175-1.438-2.868-1.471-.332-.016-.708,.303-1.333,.586-.624,.309-1.471,.607-2.744,.547-2.296-.108-4.542-1.355-4.426-3.93,.081-1.845,2.073-4.053,6.962-3.82,.86,.041,1.248,.112,1.293-.823,.042-.858,.101-2.654-1.178-2.715-1.67-.08-1.968,2.72-4.441,2.606-.889-.041-1.529-.669-1.49-1.501,.099-2.212,4.869-3.427,7.517-3.295,1.587,.076,5.903,.868,5.701,4.769-.044,.866-.089,1.733-.134,2.599Zm-8.435,1.876c-.033,.675,.321,1.422,1.124,1.461,1.053,.051,1.188-1.012,1.226-1.79,.03-.573,.086-1.221-.69-1.259-.943-.045-1.622,.756-1.66,1.588Z" fill="#8e0000"/>
        <path d="M518.04,203.232c.089-1.664-.248-2.151-.513-2.4-.347-.305-.737-.298-.701-.975,.1-1.927,7.044-2.279,7.1-2.273,.697,.039,.719,.613,.689,1.16-.018,.312-.178,1.189,.405,1.222,.279,.015,.755-.53,1.568-1.083,.812-.528,1.959-1.034,3.601-.938,3.314,.197,3.2,2.512,3.783,2.547,.224,.013,.757-.527,1.601-1.075,.869-.521,2.019-1.023,3.438-.933,2.644,.167,4.199,1.626,4.031,4.171-.119,1.827-.239,3.654-.358,5.482-.098,1.506,.918,1.704,.868,2.456-.108,1.635-3.264,1.508-4.343,1.44-.913-.059-4.109-.44-4.026-1.792,.06-.96,1.027-.876,1.121-2.381,.048-.78,.097-1.559,.146-2.338,.067-1.091,.343-3.266-1.241-3.363-1.556-.096-1.525,1.681-1.583,2.642-.033,.537-.066,1.074-.098,1.611-.194,3.195,.836,2.711,.777,3.672-.099,1.61-3.42,1.435-4.414,1.376-4.176-.246-4.358-.982-4.287-1.71,.107-1.375,1.428-.205,1.523-3.302,.029-.494,.057-.987,.086-1.481,.053-.935,.329-3.268-1.255-3.358-1.554-.089-1.516,1.687-1.571,2.649-.04,.702-.079,1.403-.119,2.105-.135,2.391,.621,2.279,.569,3.213-.038,.676-.727,1.547-4.516,1.338-1.08-.06-4.344-.207-4.272-1.585,.062-1.17,1.689-.458,1.863-3.707,.043-.797,.085-1.594,.128-2.391Z" fill="#8e0000"/>
        <path d="M551.473,206.563c-.304-.021-.742-.13-.773,.312-.089,1.299,1.635,2.514,2.936,2.606,2.076,.147,3.186-.948,3.766-.906,.582,.042,1.023,.883,.986,1.377-.147,1.998-4.149,3.17-6.636,2.998-4.974-.345-7.321-3.888-7.102-7.24,.261-4,4.1-6.669,8.276-6.377,4.731,.332,6.568,3.889,6.424,5.835-.125,1.713-.973,1.886-1.86,1.822-2.005-.145-4.011-.287-6.017-.426Zm2.643-3.103c.066-.935-.494-1.705-1.522-1.777-.917-.065-1.729,.768-1.786,1.599-.064,.934,.895,.792,1.616,.842,.748,.052,1.626,.271,1.692-.665Z" fill="#8e0000"/>
        <path d="M568.155,200.607c.494,.116,.932,.254,1.126,.269,.278,.022,.505-.039,.764-.123,.256-.058,.513-.117,.763-.097,1.28,.1,2.368,2.589,2.283,3.653-.056,.701-.736,1.169-1.456,1.112-1.581-.125-2.309-2.244-3.532-2.338-.5-.038-1.03,.313-1.068,.805-.126,1.659,5.954,2.447,5.631,6.472-.196,2.44-2.844,3.925-5.716,3.704-.552-.043-1.348-.182-2.031-.338-.685-.13-1.287-.254-1.453-.267-.194-.014-.362-.002-.557,.01-.168,.014-.335,.027-.528,.012-.552-.041-.825-.14-1.18-.583-.638-.779-1.22-2.309-1.148-3.296,.049-.675,.34-1.202,1.143-1.143,1.22,.091,2.135,2.743,3.683,2.86,.554,.042,1.099-.177,1.142-.748,.118-1.534-5.295-2.123-4.982-6.404,.191-2.596,2.592-4.064,5.457-3.846,.557,.043,1.137,.138,1.657,.284Z" fill="#8e0000"/>
        <path d="M591.146,210.056c-.154,1.738,.583,2.221,1.331,2.288,.858,.076,1.408-.475,1.907-.43,.554,.05,.874,.81,.833,1.277-.156,1.711-3.439,2.929-6.227,2.686-1.408-.125-4.894-.997-4.544-5.122,.152-1.781,.303-3.562,.455-5.343,.039-.467,.056-.648-.077-.738-.132-.09-.441-.064-1.08-.118-.721-.061-1.084-.065-1.213-.206-.179-.198-.103-.454-.052-1.05,.03-.363-.029-.655,.322-.834,2.217-1.077,4.438-2.15,6.663-3.219,.672-.307,.637-.232,1.472-.159,1.114,.098,1.178,0,1.073,1.192-.07,.804-.198,1.603-.086,1.926,.065,.216,.259,.232,.981,.297,.648,.058,1.297,.115,1.945,.174,1.196,.107,1.187,.186,1.082,1.352-.134,1.478-.337,1.563-1.419,1.467-.638-.057-1.276-.114-1.915-.171-.971-.086-1.03-.065-1.111,.868-.114,1.288-.228,2.576-.341,3.864Z" fill="#8e0000"/>
        <path d="M596.191,210.115c.418-4.64,5.018-6.864,9.604-6.428,4.865,.463,7.29,4.29,6.971,7.501-.423,4.248-5.534,6.359-9.588,5.979-4.083-.386-7.356-2.954-6.987-7.052Zm8.121-3.483c-.916-.086-1.491,.67-1.505,1.427-.042,1.644,.08,5.681,1.978,5.965,1.044,.152,1.347-.655,1.426-1.485,.112-1.166-.011-5.729-1.899-5.907Z" fill="#8e0000"/>
        <path d="M638.128,213.136c-.107-.3-.238-1.126-.682-1.175-.525-.058-.794,.593-1.695,2.17-.705,1.241-1.409,2.482-2.112,3.723-.726,1.283-1.105,2.209-2.898,2.016-1.545-.166-1.86-1.115-2.231-2.359-1.275-4.281-2.56-8.56-3.856-12.839-.584-1.945-1.795-1.102-1.633-2.681,.183-1.787,3.948-1.449,5.226-1.313,4.061,.43,4.693,1.103,4.579,2.164-.084,.776-.733,.811-.82,1.613-.08,.75,.575,2.732,.654,3.055,.094,.43,.509,2.307,1.145,2.376,.721,.078,1.505-1.723,1.686-2.094,.1-.146,.451-.789,.47-.97,.026-.233-.381-1.902-1.167-2.432-.526-.319-.96-.734-.89-1.38,.016-.153-.205-1.755,5.609-1.114,5.396,.602,5.151,1.757,5.101,2.195-.096,.854-1.373,.946-1.445,1.592-.078,.698,.684,2.409,.896,3.009,.146,.437,.575,2.109,1.239,2.184,.943,.108,2.638-4.151,2.681-4.513,.129-1.113-1.742-.75-1.58-2.173,.179-1.579,3.007-1.176,4.147-1.042,1.14,.132,3.209,.506,3.039,1.954-.149,1.267-1.274,.793-2.236,2.516-2.043,3.693-4.078,7.389-6.104,11.087-.739,1.33-1.527,2.602-3.097,2.424-1.377-.156-1.741-.902-2.115-2.045-.635-1.983-1.272-3.966-1.911-5.949Z" fill="#8e0000"/>
        <path d="M657.142,216.562c-.303-.036-.736-.168-.788,.272-.153,1.292,1.509,2.593,2.805,2.75,2.068,.25,3.233-.786,3.812-.715,.581,.071,.977,.933,.917,1.425-.247,1.988-4.309,2.958-6.786,2.66-4.956-.596-7.127-4.251-6.739-7.588,.462-3.982,4.432-6.455,8.594-5.953,4.714,.569,6.371,4.214,6.131,6.151-.212,1.704-1.067,1.835-1.951,1.726-1.998-.246-3.996-.488-5.995-.728Zm2.798-2.967c.113-.93-.408-1.728-1.432-1.851-.914-.11-1.767,.68-1.866,1.507-.112,.931,.854,.836,1.574,.923,.745,.09,1.612,.352,1.725-.579Z" fill="#8e0000"/>
        <path d="M674.073,212.496c-.016,.129-.082,.409,.14,.437,.139,.017,.634-.338,1.404-.633,.772-.321,1.792-.583,3.011-.424,2.938,.382,5.125,3.009,4.672,6.416-.588,4.412-4.565,7.375-9.295,6.767-3.468-.445-4.88-2.327-5.322-2.382-.441-.055-.93,.276-1.84,.162-.386-.048-.814-.206-.762-.62,.051-.413,.707-1.17,1.126-4.529,.286-2.29,.572-4.58,.858-6.87,.188-1.498-1.976-1.085-1.794-2.558,.212-1.732,5.746-2.223,8.052-1.926,.751,.095,.652,.635,.553,1.199-.268,1.654-.536,3.308-.804,4.963Zm1.053,2.97c-1.217-.156-1.473,.756-1.586,1.634-.64,5.009-.391,5.46,.712,5.602,1.819,.234,2.372-1.662,2.543-2.978,.158-1.213,.155-4.023-1.669-4.257Z" fill="#8e0000"/>
        <path d="M687.12,221.638c-.663-.089-.951-1.704-.885-2.194,.142-1.059,3.824-.431,4.154-2.855,.127-.928-.844-1.875-1.923-2.02-1.355-.182-2.417,.595-2.915,.529-.581-.077-.87-1.088-.804-1.577,.18-1.369,4.228-2.327,7.499-1.88,2.217,.301,6.67,1.577,6.287,4.31-.309,2.217-2.446,2.393-2.528,2.987-.129,.926,4.629,.724,3.995,5.211-.464,3.276-4.159,6.241-11.408,5.255-1.373-.188-6.174-1.094-5.928-2.95,.109-.826,.872-1.302,1.726-1.189,.772,.103,1.616,.689,3.351,.923,1.733,.234,3.805-.375,4.026-1.974,.205-1.495-1.193-2.37-2.626-2.565-1.02-.139-1.799,.019-2.02-.01Z" fill="#8e0000"/>
        <path d="M707.852,219.588c-.32,.454-1.526,1.989-2.216,1.89-.689-.099-1.415-1.911-1.595-2.437-.57-1.528-.933-3.55-.706-5.149,.27-1.906,1.529-3.806,3.886-3.468,2.359,.339,3.033,2.515,2.756,4.421-.232,1.597-1.147,3.437-2.125,4.743Zm-3.325,9.621c-1.675-.24-2.868-1.724-2.645-3.296,.223-1.572,1.784-2.665,3.465-2.424,1.682,.241,2.873,1.728,2.644,3.3-.228,1.572-1.789,2.66-3.465,2.42Z" fill="#8e0000"/>
      </g>
    </g>
  </g>
</svg>