<svg width="24" height="24" viewBox="0 0 24 24" fill="none" xmlns="http://www.w3.org/2000/svg">
	<path fill-rule="evenodd" clip-rule="evenodd" d="M11.9458 4.00293C12.0546 4.004 12.1512 4.00494 12.228 4.00494H13.7089C14.1892 4.00494 14.5054 4.53231 14.3254 4.98585C14.1207 5.50156 13.9227 6.12283 13.9227 6.59537C13.9227 6.99667 13.8699 7.3401 13.7851 7.63295C14.7993 7.81469 15.8355 8.18051 16.7257 8.78455C17.8846 9.57089 19 10.9361 19 12.8719C19 14.6975 18.1763 16.1894 17.2262 17.2495C16.2794 18.3059 15.0818 19.086 13.9413 19.5661C11.9531 20.403 9.97641 19.9603 8.54676 18.8282C7.18384 17.749 6.32845 16.0733 6.18657 14.3022C6.15671 13.9295 6.13071 13.5443 6.10992 13.1506C5.96497 12.6246 5.97985 12.1068 6.05981 11.6938C6.0416 10.4963 6.08227 9.26626 6.21604 8.10236C6.31657 7.22766 6.60833 6.35246 7.21315 5.6149C7.82077 4.87392 8.57437 4.47912 9.24452 4.27067C9.88282 4.07213 10.5068 4.02311 10.9734 4.00721C11.2877 3.9965 11.659 4.00013 11.9458 4.00293Z" fill="#E23D7F" />
</svg>
