<svg width="376" height="249" viewBox="0 0 376 249" fill="none" xmlns="http://www.w3.org/2000/svg">
	<path d="M247.2 1.96875C247.2 42.0479 244.859 83.3693 264.52 119.953C272.444 134.695 281.288 149.452 298.428 153.746C317.765 158.589 341.684 160.67 355.821 144.86C364.562 135.085 374.022 125.873 374.022 112.233C374.022 97.0682 357.768 84.4716 345.546 77.4202C333.837 70.6651 313.658 69.1608 300.483 72.0309C285.188 75.3626 272.95 89.3301 263.053 100.58C255.006 109.726 245.834 118.615 241.182 130.003C233.94 147.73 225.233 164.965 212.779 179.6C183.82 213.63 140.736 228.76 96.5987 228.76C75.5613 228.76 57.6136 227.928 37.8114 220.239C27.5155 216.241 15.8958 215.175 5.44531 211.718" stroke="#8487BF" stroke-width="3" stroke-linecap="round" />
	<path d="M3.66001 214.293C12.5085 204.434 22.8697 196.421 31.811 186.724C34.8598 183.417 32.8566 193.616 32.2786 195.232C29.2085 203.816 28.8925 213.416 26.7607 222.197C25.3403 228.047 24.7031 233.776 24.7031 239.771C24.7031 243.664 25.4125 251.275 22.5988 244.001C20.7867 239.317 17.2234 235.501 13.7607 231.867C8.84024 226.703 5.78117 221.641 1.97656 215.967" stroke="#8487BF" stroke-width="3" stroke-linecap="round" />
</svg>
