<svg width="376" height="374" viewBox="0 0 376 374" fill="none" xmlns="http://www.w3.org/2000/svg">
	<path d="M373.706 140.316C333.817 140.316 293.72 141.52 253.854 140.233C235.897 139.653 213.406 137.057 196.504 130.666C184.574 126.155 168.164 121.329 159.103 111.783C142.34 94.1226 145.829 64.2957 146.303 41.9897C146.681 24.2044 169.232 8.13175 184.868 4.38939C203.239 -0.00737834 225.059 1.15186 232.327 21.3594C235.969 31.4854 238.925 41.4282 239.059 52.3048C239.2 63.7141 242.074 80.376 236.815 90.9033C226.188 112.176 201.905 120.202 179.965 124.594C164.626 127.664 149.24 131.604 133.669 133.162C118.76 134.654 104.646 136.603 90.2833 141.065C65.7155 148.696 42.9819 169.614 38.9181 196.051C35.0207 221.406 42.7096 244.108 67.3435 255.28C92.2902 266.593 119.01 266.898 145.389 260.936C150.746 259.726 184.527 248.221 176.889 238.393C162.487 219.86 132.303 210.692 109.898 210.692C95.2179 210.692 84.3351 210.294 72.1642 219.925C61.9725 227.991 51.2408 238.089 44.9024 249.623C39.5748 259.318 35.7688 269.858 30.3573 279.487C26.673 286.042 22.5173 297.639 22.1289 305.025C21.0038 326.421 20.6328 347.967 20.6328 369.411" stroke="#8487BF" stroke-width="3" stroke-linecap="round" />
	<path d="M20.1969 371.706C16.4812 364.153 12.332 357.317 7.26379 350.639C6.58596 349.746 2.05022 344.276 2.30315 344.202C6.47294 342.992 12.5615 344.157 16.7864 344.157C26.4826 344.157 36.1565 342.59 45.7087 341.096C47.3261 340.844 49.9367 340.491 51.5552 340.961C51.9827 341.086 47.7796 343.984 47.3032 344.337C42.889 347.611 37.9595 350.38 33.75 353.88C30.6682 356.443 27.5715 358.159 24.9361 361.173C23.6775 362.612 19.7928 367.644 19.3996 366.844" stroke="#8487BF" stroke-width="3" stroke-linecap="round" />
</svg>
