<svg width="380" height="348" viewBox="0 0 380 348" fill="none" xmlns="http://www.w3.org/2000/svg">
	<path d="M21.4878 3.49893C33.5269 1.78648 137.218 1.23331 149.307 3.49885C160.871 5.66598 172.279 11.8309 182.098 18.1306C196.195 27.175 210.235 36.177 221.209 49.1064C239.902 71.1313 250.61 97.3312 255.31 125.807C258.744 146.615 263.945 179.872 242.517 192.856C234.168 197.915 224.644 198.74 215.12 198.771C206.348 198.799 197.175 198.446 189.188 194.374C175.292 187.288 170.477 172.862 169.652 158.105C168.467 136.895 176.705 117.606 187.3 99.7339C196.125 84.8485 206.566 70.4308 220.361 59.8468C227.76 54.1695 236.101 51.3803 245.099 54.7879C256.779 59.2115 267.551 69.3811 275.154 79.1482C285.941 93.0059 292.407 110.325 297.657 126.935C304.301 147.954 307.898 171.723 304.824 193.79C302.865 207.851 294.302 217.866 279.701 217.216C269.617 216.768 259.85 213.154 250.416 209.861C234.728 204.387 218.97 199.244 202.713 195.736C162.952 187.154 118.568 184.881 78.6388 193.634C47.3884 200.485 5.26759 220.113 2.42181 257.064C1.94032 263.316 1.45523 270.328 3.50072 276.366C5.96554 283.642 12.0264 289.529 18.1816 293.722C48.5554 314.409 91.4803 315.313 126.419 310.727C165.7 305.571 206.765 287.602 235.966 260.139C247.487 249.304 260.538 231.643 254.847 214.57C252.237 206.738 245.868 200.223 240.321 194.412C232.799 186.533 224.477 179.561 215.93 172.854C198.979 159.553 180.893 145.856 160.443 138.648C142.024 132.157 120.529 129.916 101.142 132.344C92.2174 133.462 79.439 136.32 77.3673 146.781C74.1508 163.023 80.709 177.159 90.3912 189.782C109.17 214.263 136.316 231.611 160.443 250.216C180.264 265.499 202.922 283.519 211.999 307.964C216.101 319.01 218.423 332.779 207.53 340.497C197.054 347.918 180.372 347.555 169.614 341.081C154.116 331.753 147.515 315.023 145.762 297.613C142.608 266.291 150.615 237.113 164.104 209.122C178.544 179.156 195.731 149.51 215.66 122.888C228.917 105.179 244.046 89.1866 262.669 77.2025C274.337 69.6945 287.656 64.876 300.971 61.3255C314.151 57.8107 326.237 53.7761 339.965 53.7761C345.8 53.7761 350.94 54.1611 356.611 55.3327C363.185 56.6907 371.851 57.4921 376.879 62.5708C379.698 65.4178 376.369 61.0574 375.878 59.6911C374.892 56.9531 374.798 54.1429 373.797 51.3634C372.42 47.5398 369.223 44.6639 366.784 41.4792C365.017 39.1722 363.493 36.7548 361.466 34.7081C359.949 33.1759 360.613 39.8306 360.619 40.4674C360.685 47.3281 361.855 54.0659 362.006 60.9364C362.149 67.4495 362.131 73.8415 362.006 80.3935C361.971 82.2379 361.892 84.1537 362.006 85.9972C362.047 86.6592 364.188 83.8107 364.626 83.351C366.64 81.2358 367.321 77.6377 369.096 75.646C370.322 74.2698 371.586 71.4849 373.103 70.4315C375.212 68.9673 375.102 64.6744 377.265 63.5825" stroke="#8487BF" stroke-width="3" stroke-linecap="round" stroke-linejoin="round" />
</svg>
