<svg width="360" height="224" viewBox="0 0 360 224" fill="none" xmlns="http://www.w3.org/2000/svg">
	<mask id="path-1-inside-1_1655_36681" fill="white">
		<path fill-rule="evenodd" clip-rule="evenodd" d="M203.111 191.598C204.054 191.509 204.994 191.409 205.929 191.299C209.265 192.19 212.803 192.669 216.467 192.669C225.983 192.669 234.647 189.438 241.14 184.146C253.533 192.85 268.881 198 285.5 198C326.645 198 360 166.436 360 127.5C360 90.0002 329.061 59.3387 290.02 57.1276C273.297 23.4726 235.561 0 191.688 0C165.027 0 140.633 8.6681 121.842 23.0218C115.157 15.6891 104.93 11 93.4674 11C73.327 11 57 25.4767 57 43.3347C57 43.9723 57.0208 44.6056 57.0619 45.234C23.8765 55.345 0 83.5158 0 116.686C0 158.355 37.6777 192.134 84.1556 192.134C91.4724 192.134 98.5711 191.297 105.339 189.724C110.581 209.372 130.602 224 154.5 224C177.631 224 197.131 210.296 203.111 191.598Z" />
	</mask>
	<path fill-rule="evenodd" clip-rule="evenodd" d="M203.111 191.598C204.054 191.509 204.994 191.409 205.929 191.299C209.265 192.19 212.803 192.669 216.467 192.669C225.983 192.669 234.647 189.438 241.14 184.146C253.533 192.85 268.881 198 285.5 198C326.645 198 360 166.436 360 127.5C360 90.0002 329.061 59.3387 290.02 57.1276C273.297 23.4726 235.561 0 191.688 0C165.027 0 140.633 8.6681 121.842 23.0218C115.157 15.6891 104.93 11 93.4674 11C73.327 11 57 25.4767 57 43.3347C57 43.9723 57.0208 44.6056 57.0619 45.234C23.8765 55.345 0 83.5158 0 116.686C0 158.355 37.6777 192.134 84.1556 192.134C91.4724 192.134 98.5711 191.297 105.339 189.724C110.581 209.372 130.602 224 154.5 224C177.631 224 197.131 210.296 203.111 191.598Z" fill="#FBFEFF" />
	<path d="M205.929 191.299L207.22 186.468L206.294 186.221L205.342 186.333L205.929 191.299ZM203.111 191.598L202.642 186.62L199.355 186.93L198.349 190.075L203.111 191.598ZM241.14 184.146L244.014 180.054L240.916 177.878L237.981 180.27L241.14 184.146ZM290.02 57.1276L285.543 59.3526L286.836 61.9553L289.738 62.1196L290.02 57.1276ZM121.842 23.0218L118.147 26.3905L121.235 29.7775L124.878 26.9952L121.842 23.0218ZM57.0619 45.234L58.5191 50.017L62.3095 48.8621L62.0512 44.9081L57.0619 45.234ZM105.339 189.724L110.17 188.435L108.922 183.757L104.207 184.853L105.339 189.724ZM205.342 186.333C204.446 186.439 203.545 186.535 202.642 186.62L203.581 196.576C204.563 196.483 205.542 196.379 206.516 196.264L205.342 186.333ZM216.467 187.669C213.24 187.669 210.136 187.247 207.22 186.468L204.638 196.129C208.395 197.133 212.367 197.669 216.467 197.669V187.669ZM237.981 180.27C232.396 184.822 224.853 187.669 216.467 187.669V197.669C227.113 197.669 236.898 194.054 244.299 188.021L237.981 180.27ZM285.5 193C269.923 193 255.576 188.176 244.014 180.054L238.266 188.237C251.489 197.525 267.839 203 285.5 203V193ZM355 127.5C355 163.418 324.147 193 285.5 193V203C329.143 203 365 169.454 365 127.5H355ZM289.738 62.1196C326.388 64.1954 355 92.9023 355 127.5H365C365 87.0981 331.733 54.482 290.303 52.1356L289.738 62.1196ZM191.688 5C233.822 5 269.733 27.536 285.543 59.3526L294.498 54.9027C276.861 19.4092 237.3 -5 191.688 -5V5ZM124.878 26.9952C142.786 13.3149 166.112 5 191.688 5V-5C163.943 -5 138.479 4.02127 118.807 19.0485L124.878 26.9952ZM93.4674 16C103.577 16 112.445 20.1355 118.147 26.3905L125.537 19.6532C117.869 11.2426 106.283 6 93.4674 6V16ZM62 43.3347C62 28.7865 75.5062 16 93.4674 16V6C71.1479 6 52 22.167 52 43.3347H62ZM62.0512 44.9081C62.0173 44.388 62 43.8634 62 43.3347H52C52 44.0812 52.0244 44.8232 52.0725 45.56L62.0512 44.9081ZM5 116.686C5 86.0759 27.0726 59.5981 58.5191 50.017L55.6046 40.4511C20.6805 51.0918 -5 80.9557 -5 116.686H5ZM84.1556 187.134C39.9115 187.134 5 155.094 5 116.686H-5C-5 161.616 35.444 197.134 84.1556 197.134V187.134ZM104.207 184.853C97.8094 186.341 91.0905 187.134 84.1556 187.134V197.134C91.8543 197.134 99.3329 196.253 106.471 194.594L104.207 184.853ZM154.5 219C132.525 219 114.745 205.581 110.17 188.435L100.508 191.012C106.418 213.164 128.679 229 154.5 229V219ZM198.349 190.075C193.118 206.429 175.757 219 154.5 219V229C179.506 229 201.143 214.163 207.874 193.121L198.349 190.075Z" fill="#221856" mask="url(#path-1-inside-1_1655_36681)" />
</svg>
