<svg width="331" height="210" viewBox="0 0 331 210" fill="none" xmlns="http://www.w3.org/2000/svg">
	<mask id="path-1-inside-1_1655_36690" fill="white">
		<path fill-rule="evenodd" clip-rule="evenodd" d="M331 112C331 148.242 298.247 177.662 257.701 177.997C246.74 197.003 224.568 210 199 210C179.545 210 162.056 202.475 149.977 190.504C144.274 201.798 131.461 209.669 116.569 209.669C97.6318 209.669 82.0568 196.942 80.188 180.633C75.6179 181.528 70.8706 182 66 182C29.5492 182 0 155.585 0 123C0 103.013 11.1175 85.3474 28.126 74.6752C28.0424 73.4597 28 72.2343 28 71C28 38.4152 57.5492 12 94 12C106.125 12 117.486 14.9228 127.25 20.0232C143.371 7.46756 163.572 0 185.5 0C220.183 0 250.548 18.6824 267.276 46.6313C303.281 51.0925 331 78.6592 331 112Z" />
	</mask>
	<path fill-rule="evenodd" clip-rule="evenodd" d="M331 112C331 148.242 298.247 177.662 257.701 177.997C246.74 197.003 224.568 210 199 210C179.545 210 162.056 202.475 149.977 190.504C144.274 201.798 131.461 209.669 116.569 209.669C97.6318 209.669 82.0568 196.942 80.188 180.633C75.6179 181.528 70.8706 182 66 182C29.5492 182 0 155.585 0 123C0 103.013 11.1175 85.3474 28.126 74.6752C28.0424 73.4597 28 72.2343 28 71C28 38.4152 57.5492 12 94 12C106.125 12 117.486 14.9228 127.25 20.0232C143.371 7.46756 163.572 0 185.5 0C220.183 0 250.548 18.6824 267.276 46.6313C303.281 51.0925 331 78.6592 331 112Z" fill="#FBFEFF" />
	<path d="M257.701 177.997L257.659 172.997L254.799 173.021L253.369 175.499L257.701 177.997ZM149.977 190.504L153.497 186.952L148.613 182.112L145.514 188.25L149.977 190.504ZM80.188 180.633L85.1555 180.064L84.5392 174.686L79.2271 175.727L80.188 180.633ZM28.126 74.6752L30.7835 78.9105L33.3195 77.3192L33.1142 74.3322L28.126 74.6752ZM127.25 20.0232L124.935 24.455L127.786 25.9439L130.323 23.9679L127.25 20.0232ZM267.276 46.6313L262.986 49.1991L264.239 51.2932L266.661 51.5933L267.276 46.6313ZM257.742 182.997C300.485 182.643 336 151.506 336 112H326C326 144.979 296.01 172.68 257.659 172.997L257.742 182.997ZM199 215C226.23 215 250.118 201.155 262.032 180.495L253.369 175.499C243.363 192.851 222.906 205 199 205V215ZM146.457 194.055C159.496 206.978 178.26 215 199 215V205C180.83 205 164.617 197.973 153.497 186.952L146.457 194.055ZM116.569 214.669C133.17 214.669 147.81 205.889 154.44 192.758L145.514 188.25C140.739 197.707 129.752 204.669 116.569 204.669V214.669ZM75.2205 181.203C77.4293 200.478 95.5617 214.669 116.569 214.669V204.669C99.7019 204.669 86.6844 193.406 85.1555 180.064L75.2205 181.203ZM66 187C71.1937 187 76.2628 186.497 81.1488 185.54L79.2271 175.727C74.973 176.56 70.5474 177 66 177V187ZM-5 123C-5 158.859 27.3297 187 66 187V177C31.7687 177 5 152.311 5 123H-5ZM25.4685 70.4399C7.20997 81.8965 -5 101.061 -5 123H5C5 104.965 15.025 88.7983 30.7835 78.9105L25.4685 70.4399ZM23 71C23 72.3488 23.0463 73.6886 23.1377 75.0181L33.1142 74.3322C33.0385 73.2308 33 72.1197 33 71H23ZM94 7C55.3297 7 23 35.1414 23 71H33C33 41.689 59.7687 17 94 17V7ZM129.565 15.5914C119.086 10.1175 106.931 7 94 7V17C105.319 17 115.886 19.7281 124.935 24.455L129.565 15.5914ZM185.5 -5C162.416 -5 141.142 2.86599 124.178 16.0785L130.323 23.9679C145.6 12.0691 164.729 5 185.5 5V-5ZM271.566 44.0634C253.982 14.6834 222.03 -5 185.5 -5V5C218.336 5 247.114 22.6814 262.986 49.1991L271.566 44.0634ZM336 112C336 75.6738 305.914 46.3805 267.891 41.6692L266.661 51.5933C300.649 55.8046 326 81.6446 326 112H336Z" fill="#221856" mask="url(#path-1-inside-1_1655_36690)" />
</svg>
