<svg width="1368" height="894" viewBox="0 0 1368 894" fill="none" xmlns="http://www.w3.org/2000/svg">
<path d="M696 410.655C676.571 424.214 649.288 416.939 627.213 425.455C621.426 427.687 616.134 430.994 610.512 433.64C581.493 447.612 546.686 445.049 516.261 434.466C485.836 423.884 458.552 405.943 430.938 389.242C320.813 322.522 201.18 273.412 82.2905 223.558V0C90.5582 1.32283 98.8259 5.37398 106.515 9.01176C178.774 42.9919 262.857 43.9014 336.025 75.7319C318.829 77.5508 301.715 79.3697 284.518 81.1885C280.467 81.6019 275.423 83.0901 275.093 87.1413C274.927 90.3657 278.069 92.6806 279.227 95.657C279.971 97.5585 278.4 99.8735 276.912 100.618C287.163 104.586 296.754 110.125 305.352 116.988C293.364 119.055 285.51 134.019 290.636 145.098C331.644 153.696 372.403 163.204 412.915 173.704C394.974 180.897 377.033 188.09 359.01 195.282C356.529 196.275 353.884 197.432 352.809 199.83C349.915 206.196 360.002 209.999 367.029 210.247C397.289 211.404 425.895 223.558 454.253 234.389C519.981 259.44 588.272 277.877 657.721 289.369C636.969 303.589 604.146 283.168 584.882 299.29C621.178 311.526 654.91 331.203 683.35 356.833C658.878 363.116 634.075 367.994 609.024 371.549C640.772 376.51 671.197 390.152 696 410.655Z" fill="#B2D0D8"/>
<path d="M1367.49 852.121H82.2905V27.7212C210.891 16.6212 229.491 121.321 394.791 139.821C439.391 146.921 506.091 152.921 517.191 205.121C518.291 214.021 516.491 223.621 521.491 231.621C535.791 249.021 538.791 250.921 533.591 273.821C530.391 303.321 559.291 328.921 579.191 350.621C601.391 374.121 624.291 396.421 652.091 414.021C725.091 460.521 837.691 468.221 882.991 536.021C887.991 543.521 892.391 552.021 901.091 556.521C907.891 560.121 916.291 560.721 924.291 561.521C1024.89 570.721 1099.19 635.221 1133.59 713.821C1212.99 741.321 1335.59 766.821 1367.49 852.121Z" fill="#44676B"/>
<path d="M61.9906 245.421C84.0906 269.321 118.091 277.321 149.991 284.221C205.891 296.221 261.891 308.221 317.791 320.221C344.891 326.021 376.291 335.321 385.891 361.421C388.791 369.321 389.391 378.221 394.091 385.121C405.791 402.021 434.391 397.021 448.391 412.121C455.891 420.221 457.791 432.721 466.491 439.521C472.191 443.921 479.691 444.921 486.791 446.421C504.791 450.321 521.591 458.421 538.591 465.721C614.391 498.421 695.691 516.321 776.391 533.921C783.691 535.521 790.991 537.121 798.391 538.721C824.991 544.521 851.491 550.321 878.091 555.821C930.191 566.621 986.991 578.821 1020.19 620.321C1024.99 626.321 1029.19 632.921 1034.89 638.121C1045.19 647.721 1059.19 652.221 1070.09 661.221C1080.99 670.221 1087.59 687.621 1077.99 697.921C1070.19 706.321 1054.79 706.221 1049.99 716.621C1044.99 727.421 1056.69 739.121 1068.29 741.821C1079.89 744.521 1092.59 742.821 1103.29 747.921C1114.09 753.021 1119.69 770.421 1109.29 776.221C1159.79 775.121 1210.49 779.721 1259.99 789.921C1285.19 795.121 1316.09 809.721 1313.49 835.321C1310.69 862.621 1274.09 869.021 1246.59 868.121C972.791 858.721 698.691 856.721 424.691 862.321C309.591 864.621 193.491 868.221 80.2906 847.721C59.3906 843.921 37.2906 838.621 22.2906 823.521C2.19057 803.321 0.290576 771.821 0.0905758 743.421C-1.20942 583.321 11.4906 423.021 37.7906 265.121" fill="#008965"/>
<path d="M55.7904 258.821C74.0904 268.121 95.3904 268.721 115.79 271.821C168.39 279.821 216.29 305.821 262.99 331.321C276.99 338.921 290.99 346.621 303.89 355.821C270.69 362.021 236.39 362.721 202.99 358.021C185.69 355.621 166.59 352.021 151.69 361.221C156.79 367.721 161.99 374.221 167.09 380.821C164.09 383.121 160.19 383.921 156.49 384.621C119.79 391.321 81.3904 388.321 46.1904 375.921" fill="#24D36F"/>
<path d="M687.791 516.321C729.691 526.121 771.591 535.821 813.491 545.621C824.391 548.121 836.791 552.021 840.691 562.521C829.091 566.021 817.391 569.221 805.591 572.021C807.491 574.921 809.391 577.921 811.291 580.821C761.191 584.921 710.691 583.621 660.891 577.021C663.691 572.021 666.491 567.021 669.291 562.021C660.291 556.121 652.791 548.021 647.591 538.621" fill="#24D36F"/>
<path d="M443.09 508.821C413.69 506.621 383.791 513.221 357.991 527.421C368.191 534.821 379.59 540.521 391.59 544.321C370.69 570.221 324.89 563.721 305.09 590.521C323.59 593.221 342.09 595.921 360.59 598.621C370.09 600.021 381.49 602.821 384.59 611.921C338.89 622.821 292.19 629.221 245.29 631.021C209.49 632.421 172.69 630.921 139.49 617.321C149.09 609.921 158.59 602.521 168.19 595.221C165.09 594.321 161.99 593.321 158.99 592.421C163.39 588.421 167.89 584.521 172.29 580.521C146.39 576.721 119.79 578.121 94.4905 584.621C109.99 579.121 127.99 581.521 141.49 590.921C114.29 606.121 86.9905 621.321 59.7905 636.521C54.2905 639.621 47.8905 644.821 49.9905 650.721C51.3905 654.721 55.9905 656.521 60.0905 657.621C105.99 670.621 154.19 673.121 201.79 675.521C246.19 677.821 290.59 680.021 334.99 682.321C355.89 683.421 376.69 684.421 397.59 684.721C414.99 685.021 432.39 684.721 449.79 683.421C547.79 676.121 641.39 636.821 739.49 630.921C769.09 629.121 800.69 629.921 825.79 614.021C828.69 612.221 831.59 609.921 832.59 606.621C834.89 598.921 825.89 593.021 818.39 590.221C792.69 580.721 766.09 573.221 739.19 567.921C722.49 564.621 705.19 562.021 690.99 552.621C630.49 526.921 565.291 512.121 499.491 509.321" fill="#273D30"/>
<path d="M53.8905 722.421C87.5905 747.221 132.091 750.921 173.891 752.021C287.291 754.921 400.991 744.921 512.091 722.321C527.891 719.121 543.891 715.521 558.391 708.321C568.791 703.121 578.291 696.021 588.891 691.221C604.491 684.121 622.091 682.321 639.191 683.321C700.691 686.921 754.291 725.221 813.391 742.621C863.991 757.521 921.491 758.221 962.191 791.821C977.591 804.521 989.691 821.321 1006.99 831.121C1022.39 839.721 1040.29 842.021 1057.49 846.121C1089.59 853.921 1119.99 868.921 1145.79 889.621C774.591 877.521 402.491 907.921 31.7905 884.221C41.7905 852.321 42.1905 817.521 32.9905 785.321" fill="#273D30"/>
<path d="M50.0903 769.921C102.99 771.421 155.89 772.921 208.69 774.421C226.49 774.921 244.29 775.421 261.99 776.621C273.39 777.421 286.19 779.221 293.19 788.321C300.19 797.421 293.79 814.921 282.59 812.621C303.59 816.121 322.49 834.821 342.99 829.221C350.09 827.221 356.49 822.421 363.89 822.221C371.29 822.121 377.79 826.721 384.49 829.921C399.29 837.021 416.39 837.221 432.79 836.721C476.09 835.221 519.29 828.921 561.19 817.721C556.99 812.121 552.69 806.621 548.49 801.021C565.79 799.121 583.09 797.221 600.39 795.321C592.99 790.221 594.49 777.921 601.09 771.821C607.69 765.721 617.19 764.121 626.19 763.121C667.09 758.621 708.59 759.821 749.09 766.721C764.39 769.321 781.29 773.921 788.99 787.421C791.39 791.521 792.79 796.421 796.49 799.421C805.09 806.421 822.39 800.721 825.89 811.221C829.39 821.721 811.99 827.721 809.99 838.621C837.29 842.121 864.49 845.621 891.79 849.121C906.19 851.021 923.39 855.021 927.89 868.821C928.79 871.621 928.99 874.821 927.29 877.221C925.19 880.121 921.09 880.521 917.49 880.721C898.19 881.321 878.89 879.121 859.69 877.321C714.39 863.621 567.89 872.221 422.29 863.121C295.09 855.221 168.19 833.721 41.0903 841.221C41.3903 839.721 43.9903 839.721 44.2903 841.221C44.5903 842.721 42.1903 843.721 41.3903 842.421" fill="#141615"/>
<path d="M429.491 639.421C477.891 650.121 573.391 682.021 622.791 686.121C634.191 687.121 646.291 687.721 656.291 682.121C657.691 681.321 659.091 680.321 659.791 678.921C661.991 674.121 655.291 670.321 650.191 669.221C636.391 666.321 622.491 663.621 608.491 661.221C581.391 656.521 519.591 609.421 493.491 617.921" fill="#273D30"/>
<path d="M587.091 641.721C660.891 658.021 644.291 656.021 719.591 662.321C736.891 663.821 772.191 673.821 787.391 665.321C789.491 664.121 800.491 658.921 801.491 656.721C804.791 649.421 807.591 646.321 799.791 644.721C778.691 640.321 743.091 621.621 721.891 617.921C680.691 610.721 638.191 585.821 598.391 598.821" fill="#273D30"/>
<g clip-path="url(#clip0_1053_67785)">
<path d="M528.165 554.106C527.856 552.564 527.548 551.125 527.239 549.994C527.034 550.611 527.034 551.228 527.034 551.845C527.137 551.639 527.239 551.536 527.239 551.331L528.576 559.452C528.473 557.704 528.267 555.957 528.165 554.106ZM478.717 335.035C512.436 320.848 522.716 274.587 513.258 241.69C499.277 208.28 489.203 209.513 443.764 199.336C429.269 197.074 414.26 196.046 399.456 197.485C358.747 199.439 322.869 227.606 313.514 268.316C307.757 288.774 305.392 301.316 326.364 318.072C336.747 326.194 347.747 331.642 361.831 337.091C317.626 347.988 294.187 391.782 296.14 439.996C289.663 444.93 278.972 454.697 280.822 473.407C280 477.313 286.168 507.948 308.271 502.088C310.943 503.939 316.7 504.556 316.598 499.313C325.13 499.518 319.784 487.49 316.084 482.864C327.495 484.92 324.616 479.164 316.495 473.201C317.009 473.098 322.869 471.351 323.383 471.145C322.971 454.902 324.513 443.902 333.149 429.407C363.784 479.575 396.372 532.723 427.007 583.097C440.577 602.321 438.418 615.068 479.436 632.956C495.062 640.049 526.931 644.572 546.566 648.582C570.725 663.18 599.407 659.787 599.407 625.348C599.509 619.077 602.285 612.087 605.678 608.694C605.678 608.694 605.883 607.975 606.192 606.947C608.659 597.9 607.939 583.302 594.164 589.573C594.061 589.676 592.724 591.629 592.724 591.629C589.64 592.554 583.472 594.713 582.855 599.956L579.874 600.573L579.463 600.162C578.332 598.825 574.323 593.994 573.295 592.76C581.313 554.106 598.584 487.902 592.313 442.36C561.473 447.912 457.951 466.21 489.305 401.548C496.193 404.94 479.539 335.343 478.717 335.035ZM533.202 589.573L533.408 591.012C527.753 585.358 515.417 573.125 509.866 567.573C511.922 566.648 522.819 561.303 527.239 551.331C528.884 561.405 531.66 579.293 533.202 589.573Z" fill="#FFD3B6"/>
<path d="M482.315 337.399C481.698 336.268 480.876 335.446 479.848 334.726C518.399 315.297 526.212 267.082 508.324 230.999C506.165 225.447 495.988 215.99 490.642 213.317C479.437 207.765 465.661 210.952 454.045 206.223L452.194 208.588C462.988 214.139 473.988 219.793 482.521 228.429C486.53 232.438 490.025 237.167 494.446 240.662C497.221 242.821 500.306 244.671 502.567 247.344C505.034 250.325 506.268 254.026 507.296 257.727C508.53 263.998 515.931 279.624 513.567 284.353C509.661 289.904 501.95 283.633 496.913 285.792C487.044 290.83 499.175 306.558 491.259 312.829C487.558 313.138 483.857 311.904 481.184 309.437C471.315 335.24 450.755 338.838 428.138 349.324C428.241 349.427 428.447 349.632 428.55 349.735C411.382 351.791 392.158 346.857 371.803 342.642C393.391 384.38 470.184 404.94 497.633 359.193C491.259 342.5 482.315 337.399 482.315 337.399Z" fill="#D3A288"/>
<path d="M469.67 259.989C472.343 278.699 484.166 282.811 479.642 260.092C476.558 260.914 473.371 261.12 470.287 260.811L469.67 259.989Z" fill="white"/>
<path d="M509.249 265.232C510.585 268.933 510.894 272.942 512.847 276.335C513.875 273.045 514.698 269.653 514.8 266.157C513.464 265.232 511.202 265.849 509.66 264.924L509.249 265.232Z" fill="white"/>
<path d="M472.857 297.717C478.717 306.456 492.493 324.035 494.343 302.652C487.455 302.446 480.465 300.493 474.091 298.129L472.857 297.717Z" fill="white"/>
<path d="M607.734 605.919C611.64 591.115 601.36 582.788 601.771 595.124C602.079 597.386 601.154 600.779 598.893 600.367C600.332 592.349 587.893 594.405 590.36 606.638C589.126 608.386 587.79 605.816 587.276 604.891C585.734 602.937 582.239 604.171 581.211 606.433C580.183 608.694 580.799 611.367 581.108 613.937C582.239 622.573 579.463 631.619 573.912 638.301C568.874 642.928 561.37 652.797 570.828 656.806C572.37 657.217 579.257 656.395 580.799 655.983C585.22 654.441 585.528 655.675 589.538 652.899C591.696 651.46 593.65 649.507 594.575 647.04C594.883 646.012 597.145 641.386 597.453 640.357C600.435 628.741 601.771 618.049 605.266 610.853L607.734 605.919Z" fill="#D3A288"/>
<path d="M451.988 558.219C486.838 551.639 527.24 598.825 556.641 615.479C534.024 594.919 489.408 530.976 454.353 555.648L451.988 558.219Z" fill="#D3A288"/>
<path d="M315.158 438.659C320.093 438.248 322.868 432.903 324.719 428.379C331.093 412.959 337.363 397.436 343.737 381.913C340.345 397.436 338.186 413.267 334.074 428.688C331.709 434.342 326.158 438.248 324.41 444.108C322.56 441.435 319.887 439.482 316.7 438.557L315.158 438.659Z" fill="#D3A288"/>
<path d="M593.958 470.837C596.528 456.547 587.07 441.435 572.061 450.893C550.473 476.182 540.809 509.079 528.267 539.508C525.389 546.293 528.679 553.901 528.37 561.405L528.267 566.34C543.379 548.144 545.949 520.696 558.697 500.752C562.706 528.2 537.314 590.396 562.603 604.993C574.734 610.134 572.678 600.059 577.51 597.9C570.93 593.582 574.323 586.797 575.968 580.115C583.369 543.723 590.771 507.845 593.958 470.837Z" fill="#D3A288"/>
<path d="M441.091 575.181C463.913 634.806 535.669 624.629 547.08 648.684C491.978 641.385 422.278 621.031 439.652 577.34L441.091 575.181Z" fill="#FFE3D4"/>
<path d="M296.345 441.23C296.448 394.352 308.168 350.044 360.083 339.764C346.102 374.203 321.943 356.932 308.168 427.66C307.345 434.959 305.289 441.949 300.252 447.501C289.252 462.407 287.813 483.687 296.654 500.033C275.888 489.135 278.252 455.828 294.803 441.949L296.345 441.23Z" fill="#FFE3D4"/>
<path d="M312.383 438.865C318.654 439.79 323.794 447.912 318.242 452.64C314.336 455.108 308.887 454.08 305.392 457.472C294.495 468.986 316.289 473.509 320.298 482.145C323.794 486.874 325.336 477.827 318.654 473.406C320.607 472.584 322.971 472.378 324.719 471.145C325.336 465.594 323.794 459.631 323.691 453.977C322.149 443.594 332.635 446.37 318.139 439.996L312.383 438.865Z" fill="#D3A288"/>
<path d="M299.121 502.5C297.579 498.285 296.654 493.556 296.551 489.032C298.916 494.481 302.617 500.546 308.785 501.574C306.215 496.948 304.673 491.808 303.953 486.565C307.037 490.574 310.841 494.173 315.158 496.948C313.514 491.088 312.074 485.229 310.944 479.472C314.953 483.275 318.757 488.004 321.429 492.836C322.971 495.817 320.196 500.649 316.803 498.696C316.495 505.892 304.364 501.266 299.635 502.088L299.121 502.5Z" fill="#D3A288"/>
<path d="M414.671 343.67C391.026 323.932 351.345 310.773 349.186 275.307C353.812 276.643 355.662 287.643 361.728 284.25C350.933 273.559 348.055 246.111 365.943 241.793C357.924 235.728 349.494 245.597 348.363 253.512L346.616 254.643C350.625 276.643 323.382 259.578 324.41 298.951C321.738 296.689 319.065 294.325 316.392 292.063C298.093 329.689 435.643 363.614 414.671 343.67Z" fill="#FFE3D4"/>
<path d="M479.231 549.686C484.268 552.975 489.82 555.134 495.062 557.807C500.305 560.274 504.315 565.723 510.072 566.854C516.857 565.209 529.501 554.209 527.137 546.499C523.642 552.564 517.165 555.443 510.38 553.695C500.305 552.359 490.231 550.816 480.156 549.48L479.231 549.686Z" fill="#3D302A"/>
<path d="M593.444 458.706C607.014 475.257 604.136 507.023 588.201 521.312C588.304 500.444 598.173 479.883 593.65 459.014L593.444 458.706Z" fill="#3D302A"/>
<path d="M359.98 339.969C358.541 343.259 340.55 384.997 335.41 426.529C335.41 426.632 335.307 426.734 335.307 426.94L324.616 448.117C324.513 448.323 324.513 448.529 324.513 448.631C326.055 511.032 325.233 608.592 436.156 619.386C437.287 619.489 438.829 619.592 438.418 618.563C427.521 589.059 444.483 555.34 464.119 551.331C488.586 546.396 506.473 553.695 506.679 553.798C509.249 554.62 527.65 559.247 530.426 535.705C533.407 510.827 568.257 464.668 569.491 463.024C569.491 463.024 569.491 462.921 569.594 462.921C570.519 461.893 586.453 446.37 594.986 462.51C594.986 462.51 612.36 489.752 588.407 519.051C588.304 519.154 588.201 519.359 588.201 519.462L587.79 520.799C587.481 521.827 588.612 522.546 589.435 522.135C618.528 504.556 614.004 409.566 561.781 420.155C561.575 420.155 561.37 420.155 561.164 420.155C549.959 416.454 527.959 422.52 525.08 438.557C525.08 438.865 524.875 439.071 524.669 439.276L519.735 443.594C519.221 444.005 518.501 444.005 518.193 443.491C515.314 440.51 505.137 429.921 500.202 425.912C494.548 421.389 488.791 416.454 489.202 408.024C489.202 407.819 489.305 407.613 489.511 407.408C490.025 406.894 490.333 404.221 481.903 391.37C472.548 376.875 465.249 348.605 463.913 342.848C463.81 342.231 463.193 341.82 462.577 341.923L450.24 344.081C449.521 344.184 449.11 344.904 449.315 345.418L459.595 387.567C459.801 388.286 459.287 388.903 458.465 388.903C436.054 389.623 431.222 375.128 369.232 388.286C368.513 388.389 367.896 387.978 367.896 387.258C367.382 381.81 365.84 359.707 371.083 343.362C371.288 342.745 370.98 342.128 370.363 342.025L361.214 338.427C360.391 338.119 359.672 338.736 359.672 339.558C360.083 339.661 359.98 339.867 359.98 339.969Z" fill="#965640"/>
<path d="M324.616 210.541C324.616 210.541 293.364 222.98 297.888 277.671C297.888 277.671 297.476 309.231 326.569 317.969C320.093 309.745 311.355 309.026 315.467 293.605L322.252 302.96L324.616 301.418L323.691 297.717L324.616 294.839L322.868 288.157C322.868 288.157 325.953 274.381 347.952 266.671C347.952 266.671 345.279 241.279 357.821 240.354C357.821 240.354 367.587 239.428 372.728 249.811C372.728 249.811 377.456 272.017 389.279 255.568C394.11 248.475 418.886 192.859 467.614 209.205L491.156 213.728C497.735 216.709 506.987 227.092 512.641 241.998C512.641 241.998 521.791 233.774 511.716 219.896C499.791 203.242 482.932 200.466 483.548 187.205C474.81 187.41 473.165 192.037 458.465 175.794C458.465 175.794 451.988 168.084 449.829 179.803L450.035 182.373C451.371 182.27 431.325 169.523 391.129 178.775C391.129 178.775 365.12 183.401 354.223 178.775L352.476 188.644L341.373 195.84C341.373 195.84 334.896 193.99 336.027 186.794C336.027 186.794 331.298 199.336 331.298 198.821C331.298 198.821 333.252 202.008 322.663 201.392L320.915 204.784L324.616 210.541Z" fill="#965640"/>
<path d="M298.196 274.073C295.935 263.69 298.71 252.176 305.598 243.952C306.934 246.419 307.551 249.195 307.346 252.073C308.271 250.326 309.607 248.783 311.252 247.653C312.28 248.989 312.794 250.737 312.897 252.382C313.617 251.559 314.233 250.942 314.85 250.12C315.673 251.251 316.084 252.587 316.084 254.026C318.345 240.868 321.224 226.681 331.093 217.84C330.785 225.242 329.654 232.746 327.495 239.942C328.112 238.4 329.037 236.858 330.373 235.83C330.682 238.092 330.99 240.354 331.299 242.615C332.532 239.531 334.177 236.653 336.439 234.186C336.953 235.316 337.467 236.447 337.878 237.578C337.569 234.597 342.093 233.466 342.196 236.756C349.289 229.354 341.887 216.298 352.99 203.653C355.149 208.588 356.793 213.728 357.719 218.971C359.569 214.962 365.326 213.419 369.027 215.784C370.261 209.719 374.064 202.522 380.335 200.775C384.859 203.653 388.045 208.793 391.643 212.803C390.307 208.691 390.41 203.962 392.157 199.952C394.316 200.878 396.578 201.7 398.737 202.522C396.578 199.233 400.382 195.018 403.877 196.971C399.97 189.364 411.382 186.28 414.26 194.093C414.877 193.065 415.391 192.242 415.905 191.214C418.886 192.551 421.353 194.812 422.998 197.588C423.718 195.429 423.615 192.653 424.951 190.803C430.708 190.289 436.568 194.195 440.989 197.485C438.007 197.485 434.923 196.663 432.353 195.223C433.381 197.485 431.942 201.906 429.166 199.747C425.979 208.382 414.671 204.476 410.251 198.822C411.484 203.139 413.232 208.074 412.41 212.494C410.559 215.27 406.961 211.877 404.494 212.186C406.036 215.064 405.213 220.821 401.101 218.868C402.232 223.494 398.942 227.092 395.447 229.457C394.214 232.335 394.008 235.625 393.185 238.709C389.176 234.802 385.784 230.176 383.214 225.242C384.653 231.513 384.653 237.989 383.419 244.363C380.438 241.896 378.279 238.503 377.046 234.905C377.765 237.989 377.662 241.279 376.84 244.26C372.419 238.606 369.335 231.924 367.999 224.831C373.036 257.419 355.765 223.083 346.205 257.316C344.457 256.699 343.121 255.054 342.915 253.307C341.99 257.008 341.168 260.606 340.14 264.307C338.906 260.811 338.186 257.316 337.775 253.615C337.467 259.578 336.13 265.437 333.766 270.886C328.934 264.821 326.261 257.008 326.467 249.195C326.467 255.054 326.056 260.914 325.13 266.671C323.383 264.718 322.149 262.148 321.532 259.578C321.944 260.811 321.635 262.148 320.71 263.073C319.785 261.737 318.859 260.606 317.934 259.269C317.626 262.97 316.392 266.363 314.233 269.447C313 267.699 312.28 265.746 311.869 263.69C312.28 271.092 311.972 278.493 310.944 285.998C307.448 282.605 305.392 277.774 305.187 272.942C305.804 277.054 304.981 281.475 302.925 285.175C301.589 281.372 296.346 281.577 297.991 279.933L298.196 274.073Z" fill="#B28364"/>
<path d="M360.7 338.324C361.728 339.147 362.55 339.866 363.578 340.586C356.485 358.268 351.139 376.772 347.644 395.585L353.092 395.482L343.737 467.136C350.625 462.407 358.232 457.472 366.457 457.575C363.578 459.939 343.84 480.191 354.223 480.397C355.868 480.089 357.102 482.042 355.868 483.378C341.373 499.313 385.989 476.079 393.596 480.294L374.578 499.21C373.653 500.135 374.475 501.574 375.812 501.266L379.307 500.443C374.784 507.537 364.401 510.724 362.756 519.051C360.186 529.845 383.83 552.359 391.643 537.966C387.634 541.153 383.008 546.293 385.475 550.714L389.382 548.247C387.428 563.975 406.344 575.592 419.4 566.648C413.849 573.227 415.802 584.536 423.306 588.853C426.082 586.181 427.932 582.583 428.858 578.882C429.063 582.891 431.119 588.339 435.026 587.311C435.231 598.414 436.259 609.619 438.11 620.619C293.056 608.591 323.177 435.164 359.055 339.558L360.7 338.324Z" fill="#B76846"/>
<path d="M427.727 489.855C423.923 490.78 420.942 494.173 420.531 498.079C427.933 493.659 436.054 490.266 444.484 488.313C440.577 492.322 436.568 496.743 435.129 502.191C442.016 497.154 448.904 492.117 455.792 487.182C460.11 482.967 466.381 484.818 466.381 491.191C465.25 499.621 459.082 507.743 461.343 516.583C469.773 531.284 490.745 528.406 504.315 535.808C528.987 551.742 524.053 516.172 532.688 524.499C538.753 509.799 546.258 495.612 555.099 482.248C557.772 479.575 558.594 472.481 553.248 473.407C556.333 466.93 575.557 443.902 572.884 439.482C549.959 430.127 521.483 448.323 508.324 467.752C510.586 463.229 512.744 458.5 515.006 453.977C504.212 458.809 495.268 467.238 484.474 471.556C466.483 478.752 443.25 474.332 428.138 488.621L427.727 489.855Z" fill="#B76846"/>
<path d="M377.148 398.155C375.812 403.604 375.092 409.155 374.887 414.706C376.531 414.192 378.176 413.678 379.821 413.37C370.98 442.463 370.055 460.556 406.858 448.734C412.409 448.117 418.269 449.556 423.512 447.603C421.559 443.902 399.456 443.697 393.802 442.257C388.251 442.257 384.756 438.145 385.784 432.697C386.195 425.603 387.12 418.407 388.765 411.417C382.494 410.286 377.662 404.221 377.971 397.847L377.148 398.155Z" fill="#B76846"/>
<path d="M351.139 379.137C350.522 387.361 354.737 392.398 362.961 389.52C357.102 391.781 351.345 394.146 345.588 396.408C345.588 390.651 347.027 384.894 349.906 379.856L351.139 379.137Z" fill="#B76846"/>
<path d="M489.922 402.679C488.586 426.632 508.735 425.501 518.912 442.977C508.015 456.033 494.548 471.351 476.763 473.612C490.539 471.453 488.997 456.033 479.539 448.94C468.025 440.818 461.96 428.893 470.287 415.837C472.549 412.239 475.735 408.95 475.633 404.735C475.119 400.211 469.464 391.473 476.661 389.726C467.82 375.025 462.782 358.062 462.166 340.792C464.633 341.306 465.455 344.39 465.764 346.857C468.848 366.801 477.175 385.922 489.614 401.856L489.922 402.679Z" fill="#683A2E"/>
<path d="M527.959 438.145C579.463 396.819 614.416 431.977 605.472 490.472C607.014 474.846 600.949 443.8 580.491 445.547C585.837 424.267 542.968 426.426 532.071 434.959L527.959 438.145Z" fill="#683A2E"/>
<path d="M402.129 538.172C410.147 534.471 426.185 534.574 429.372 544.443C429.063 548.349 426.904 551.742 425.671 555.443C428.241 550.816 432.764 547.835 436.67 544.546C437.39 543.209 436.568 541.77 435.745 540.536C430.708 530.05 418.372 528.714 408.811 533.854L402.129 538.172Z" fill="#683A2E"/>
<path d="M435.334 510.621C445.82 510.827 454.25 518.948 463.605 523.574C477.381 530.359 493.829 530.256 507.604 536.938C512.539 540.022 528.371 546.499 518.399 552.873C516.034 554.004 513.156 553.798 510.483 553.387C497.119 551.845 483.754 550.303 470.493 548.761C474.913 548.761 479.437 547.321 483.035 544.751C478.717 541.976 473.577 540.639 468.54 540.742C471.212 541.05 472.857 537.247 471.726 534.882C468.231 529.125 459.904 530.976 454.661 528.097C447.054 524.191 443.97 513.499 435.746 511.238L435.334 510.621Z" fill="#683A2E"/>
<path d="M435.437 484.098C437.39 471.556 452.502 469.294 463.091 469.397C473.782 469.603 488.997 465.696 488.997 452.846C506.885 481.117 452.399 473.201 438.727 482.145L435.437 484.098Z" fill="#683A2E"/>
<path d="M389.484 412.034C407.269 413.678 424.951 416.865 442.222 421.389C447.876 422.005 450.96 427.762 447.876 432.697C443.147 439.379 433.792 441.435 425.979 442.155C423.718 442.36 420.017 444.828 420.633 447.089C429.166 445.753 438.11 444.93 446.642 445.856C449.11 446.164 455.689 449.145 456.203 446.781C456.614 445.342 460.11 439.071 459.596 434.753C459.082 430.435 456.306 427.762 454.147 423.959C451.988 420.258 448.493 415.632 446.334 411.931C428.652 411.52 412.615 410.697 395.036 410.389L389.484 412.034Z" fill="#683A2E"/>
<path d="M327.701 500.032C324.822 476.079 317.318 449.248 334.28 428.79C332.429 452.743 327.598 476.696 328.317 500.649L327.701 500.032Z" fill="#683A2E"/>
<path d="M349.905 395.38C349.494 397.024 349.289 398.772 349.083 400.417C354.429 397.23 360.186 394.557 366.148 392.501C365.429 388.595 365.223 384.585 364.401 380.782C361.008 379.651 364.092 387.053 363.475 388.595C359.466 391.165 354.326 392.501 349.905 394.249V395.38Z" fill="#683A2E"/>
<path d="M466.072 389.828C465.147 395.585 473.679 395.483 477.689 396.511C475.735 387.464 475.53 392.193 468.539 389.931L466.072 389.828Z" fill="#683A2E"/>
<path d="M302.925 259.27C302.719 260.606 303.439 273.456 305.598 269.858C307.962 265.849 307.242 243.644 303.542 258.858L302.925 259.27Z" fill="#D3A288"/>
<path d="M323.074 239.223C322.046 244.363 322.149 249.812 323.383 254.952C324.719 251.97 326.57 249.092 328.523 246.419C329.757 251.045 329.654 256.391 332.224 260.606C331.504 255.363 332.224 230.485 325.028 246.316C323.691 242.821 326.056 238.709 324.411 235.316C323.897 235.728 323.588 236.344 323.691 236.858L323.074 239.223Z" fill="#D3A288"/>
<path d="M344.56 245.391C344.046 243.232 344.56 240.971 345.896 239.12C346.513 239.634 347.027 240.148 347.541 240.456C348.261 232.746 348.98 224.933 352.167 217.84C355.457 221.541 355.663 227.092 357.513 231.513C357.41 228.943 358.233 226.27 359.672 224.214C362.036 227.709 362.55 232.438 361.008 236.242C360.289 235.522 359.672 234.905 359.055 234.288C360.391 237.578 355.148 238.4 354.429 235.316C354.943 239.84 353.092 244.671 349.803 247.653C348.878 246.316 348.158 244.98 347.438 243.643C347.233 244.98 345.896 252.793 344.868 247.653L344.56 245.391Z" fill="#D3A288"/>
<path d="M373.653 220.41C373.961 224.214 375.092 227.812 377.148 230.999C378.279 228.84 378.793 226.373 378.587 224.008C380.438 225.242 380.746 219.279 381.466 218.148C384.961 222.261 388.251 226.475 391.746 230.588C394.213 229.251 389.793 214.036 387.634 212.494C387.017 213.728 386.606 214.962 386.298 216.298C377.868 200.467 376.223 203.448 376.943 219.485C376.017 219.177 375.812 218.046 375.298 217.326C374.27 215.681 371.597 217.429 373.345 218.663L373.653 220.41Z" fill="#D3A288"/>
<path d="M404.802 205.298C405.83 206.532 407.064 207.457 408.503 207.971C408.092 204.065 400.998 194.504 403.157 204.27C399.97 202.831 402.54 208.279 403.466 209.205C404.905 209.41 404.288 207.457 404.288 206.635L404.802 205.298Z" fill="#D3A288"/>
<path d="M315.57 295.353C311.766 304.811 319.99 312.624 326.467 318.278C317.318 315.708 306.626 308.717 304.673 298.643C306.112 300.287 307.551 302.035 308.991 303.68C306.626 298.745 304.364 290.727 308.477 286.204C309.607 288.774 310.533 291.446 311.458 294.016C310.841 292.577 311.252 290.727 312.28 289.493C313.205 290.521 313.925 291.549 314.85 292.577C313.514 286.306 314.131 279.727 316.804 273.97C318.14 276.026 319.271 278.288 320.196 280.652C320.093 279.316 320.299 278.185 320.71 276.951C321.532 277.979 322.252 278.905 323.074 280.035C321.944 276.437 320.299 270.475 323.28 267.699C326.878 268.008 328.626 271.914 330.99 273.867C331.504 273.867 331.71 273.148 332.018 272.736C332.635 271.914 334.177 272.12 334.486 273.148C334.794 272.325 336.028 272.222 336.439 273.045C337.261 271.4 337.775 261.634 340.551 266.568C340.859 267.391 341.065 268.419 341.887 268.727C343.532 261.223 347.13 253.924 347.13 267.082C338.803 269.241 332.224 276.951 326.364 283.017C319.785 289.082 331.504 315.399 316.29 295.353H315.57V295.353Z" fill="#66392D"/>
<path d="M377.354 259.886C375.709 256.905 375.4 253.204 376.531 250.12C378.484 252.073 380.129 254.438 381.157 257.008C380.643 254.232 380.746 251.354 381.26 248.578C382.082 250.428 384.241 251.148 385.783 252.176C385.783 248.372 385.886 243.643 388.148 240.662C389.895 241.484 391.026 243.746 392.465 244.98C393.802 242.101 398.531 230.279 402.335 234.905C404.185 234.083 405.316 231.821 406.858 230.587C400.381 240.045 391.54 248.578 387.839 259.68C387.017 263.69 381.774 261.223 378.998 260.811L377.354 259.886Z" fill="#66392D"/>
<path d="M410.045 177.644C422.895 176.308 444.278 179.598 450.755 192.037C449.007 192.345 447.054 192.242 445.409 191.728C448.287 192.654 450.549 195.121 451.269 197.999C448.596 198.205 445.923 198.719 443.353 199.541C443.661 200.878 444.689 201.906 445.82 202.523C441.914 200.672 435.129 201.597 435.437 206.943C465.558 206.429 503.903 206.326 512.128 242.513C534.23 217.737 477.997 204.681 484.577 187.513C463.502 190.597 459.596 169.42 450.96 174.458C450.035 177.13 450.652 180.214 450.343 182.99C440.166 177.85 428.035 175.074 416.727 177.233L410.045 177.644Z" fill="#66392D"/>
<path d="M330.681 474.846C329.139 484.201 329.551 494.07 332.018 503.322C334.794 498.593 338.494 494.173 342.709 490.78C340.756 496.845 339.214 503.014 338.289 509.387C345.382 504.761 353.195 501.369 361.419 499.415C354.429 507.845 347.335 516.172 340.345 524.602C333.663 533.032 349.494 543.106 355.354 547.835C356.999 548.863 357.616 550.611 356.176 552.05C352.27 557.088 352.167 564.284 357.718 567.882C365.017 575.592 390.718 610.647 376.326 599.648C334.177 567.779 329.448 532.723 328.831 492.63L330.681 474.846Z" fill="#EF835E"/>
<path d="M527.548 482.864C513.978 472.893 500.305 497.257 487.66 500.649C472.343 503.939 470.801 514.219 484.679 521.004C504.52 522.854 524.361 548.041 523.024 507.743C523.847 499.724 530.529 491.191 527.548 482.864Z" fill="#EF835E"/>
<path d="M360.289 249.606C357.616 244.774 364.915 244.466 367.279 248.783C374.578 258.55 385.989 273.559 376.326 285.073C373.961 289.082 366.765 292.474 364.401 286.82C363.167 283.222 367.69 280.755 368.924 277.774C367.999 273.353 362.653 278.596 360.289 277.671C351.859 269.652 362.242 271.914 359.466 252.998L360.289 249.606Z" fill="#D3A288"/>
<path d="M370.055 277.26C368.513 282.194 359.878 289.185 354.429 283.736C346.513 274.587 344.56 260.195 348.672 248.681C352.579 235.214 366.662 238.298 371.905 248.372C366.971 243.232 357.307 236.139 351.962 245.905C347.233 255.157 347.747 267.802 352.065 276.746C356.588 288.363 364.092 284.764 370.055 277.26Z" fill="black"/>
<path d="M359.775 248.886C362.756 254.849 361.111 267.905 356.793 272.942C356.279 272.736 358.233 267.596 359.055 261.017C359.877 254.438 359.158 248.989 359.775 248.886Z" fill="black"/>
<path d="M368.821 261.942C368.615 262.456 366.559 262.251 364.092 262.148C352.167 261.428 366.868 258.241 368.821 261.942Z" fill="black"/>
<path d="M508.118 230.587C522.099 256.082 521.791 291.035 503.183 315.399C475.53 351.689 418.886 355.801 377.765 344.801C355.662 338.633 334.999 327.838 319.579 312.418C336.13 326.502 355.971 337.605 378.176 343.259C415.802 352.717 462.474 350.249 492.8 324.138C519.426 300.287 522.099 260.914 508.118 230.587Z" fill="black"/>
<path d="M508.221 230.691C503.698 226.681 499.38 219.793 494.034 216.093C490.745 213.934 486.735 213.42 482.726 212.7C475.427 211.466 468.539 210.336 460.829 208.999C432.97 201.906 419.297 217.121 403.054 236.961C399.456 240.971 396.167 244.774 393.597 248.784C390.615 252.485 390.513 257.213 387.531 260.709C383.728 264.204 377.457 261.634 375.092 257.83C373.139 254.849 372.625 249.709 372.214 246.933C372.008 245.7 371.905 245.186 372.008 245.186C373.756 250.326 374.064 260.092 381.672 261.017C389.176 262.354 388.251 252.176 392.055 247.961C398.017 239.223 404.905 231.205 412.512 223.083C420.839 214.242 431.942 206.532 443.97 205.607C449.727 204.99 455.484 206.532 460.932 207.354C470.698 209.205 479.745 210.438 488.997 212.7C497.941 214.859 503.184 224.42 508.221 230.691Z" fill="black"/>
<path d="M324.514 317.969C296.449 308.614 293.57 271.503 298.813 246.111C301.897 231.41 311.561 218.148 324.205 209.719C322.869 208.177 321.327 206.635 319.99 205.093C321.43 203.962 322.252 202.831 322.252 200.98C325.028 200.775 327.803 200.672 330.579 200.466C331.915 194.401 334.485 188.747 337.261 183.298C337.364 187.308 336.541 195.84 342.401 195.326C346.205 194.093 347.644 189.055 351.756 188.336C352.373 184.943 352.99 181.654 353.607 178.158C353.812 178.056 355.868 178.672 356.177 178.672C386.915 185.457 420.325 165.411 449.213 181.859C447.876 176.616 453.736 170.243 458.465 174.971C463.811 181.14 469.876 187.205 478.306 187.925C480.053 187.822 481.801 187.102 483.549 186.897C483.754 186.897 483.96 186.794 484.063 186.999C485.913 188.439 483.651 190.906 484.68 192.653C493.726 205.093 513.259 213.831 516.445 229.662C517.062 234.083 516.24 238.606 513.567 241.896C515.623 238.195 516.548 234.083 515.726 229.765C513.259 218.046 501.745 211.466 493.521 203.448C489.82 199.336 481.184 195.635 483.343 188.747C483.446 187.925 482.007 188.747 481.595 188.747C480.567 188.953 479.539 189.261 478.511 189.364C470.801 188.747 464.119 184.121 459.287 178.158C456.923 174.869 453.222 173.327 451.269 177.644C450.344 180.009 451.166 182.784 451.474 185.252C422.176 165.719 387.12 187.925 355.251 180.317C354.635 183.504 354.018 186.691 353.504 189.775C348.981 189.981 347.541 195.326 343.635 196.766C338.598 198.41 336.541 194.298 335.513 190.906C333.971 194.504 332.738 198.308 331.915 202.214C329.14 202.317 326.467 202.522 323.691 202.625C323.486 203.55 322.972 204.373 322.355 205.195C323.794 206.84 325.336 208.485 326.775 210.027C308.168 220.924 297.991 242.101 298.299 263.381C296.346 285.073 303.645 309.54 324.514 317.969Z" fill="black"/>
<path d="M321.43 312.521C317.317 311.082 314.131 306.456 313.617 301.316C313.205 298.334 314.953 294.942 313.617 292.166L315.159 291.344C317.112 294.839 319.99 298.951 322.766 301.932C323.691 301.213 322.458 299.979 322.458 298.951C322.252 296.998 323.794 295.97 322.972 294.222C319.579 282.092 335.102 272.017 343.943 267.905C345.896 266.98 347.13 266.568 347.13 266.671C341.168 270.475 331.607 275.821 327.289 282.914C321.43 291.138 326.672 292.166 324.514 298.334C324.822 300.082 325.953 302.96 323.28 303.783C320.196 304.4 315.056 294.428 313.617 292.166L315.159 291.344C316.495 294.222 315.159 297.204 314.953 300.082C314.645 305.531 318.037 309.745 321.43 312.521Z" fill="black"/>
<path d="M491.361 240.457C484.576 237.373 475.016 241.176 467.82 242.513C464.222 243.438 460.007 245.186 457.025 243.849C463.913 242.41 486.118 232.849 491.361 240.457Z" fill="black"/>
<path d="M480.156 260.195C484.371 283.325 471.212 280.344 468.642 259.578C473.679 259.989 479.128 260.298 484.165 260.195C484.165 258.858 484.165 257.213 484.165 255.877C479.642 255.466 474.605 256.083 470.184 257.111C466.894 258.036 461.549 259.475 459.287 256.699C462.268 258.139 466.483 257.008 469.876 255.774C474.399 254.438 479.436 253.821 484.371 254.027C487.352 254.232 485.913 259.784 486.221 261.942C486.221 262.251 486.221 262.148 485.913 262.148C481.081 262.354 475.941 262.251 471.109 261.84C475.427 281.372 480.67 277.157 480.156 260.195Z" fill="black"/>
<path d="M497.53 283.428C501.333 284.147 507.913 285.278 512.025 283.325C511.614 273.97 506.679 264.409 504.212 255.98C500.922 246.316 501.642 246.111 505.548 255.466C507.399 261.325 516.857 279.727 512.847 284.97C508.324 286.615 500.819 286.101 497.53 283.428Z" fill="black"/>
<path d="M519.118 248.475C518.707 248.887 516.137 246.522 512.642 244.363C509.146 242.102 506.062 240.662 506.268 240.148C510.277 239.532 518.296 244.774 519.118 248.475Z" fill="black"/>
<path d="M508.941 264.821C510.174 264.204 513.875 265.026 515.52 265.232C515.829 264.101 515.726 262.456 515.623 261.223C513.67 261.017 509.66 262.662 508.221 262.559C508.941 261.12 516.24 257.522 517.371 260.606C517.885 262.97 518.193 268.213 514.389 266.877C513.053 266.466 509.558 265.746 508.941 264.821Z" fill="black"/>
<path d="M514.184 265.026C517.782 268.008 512.025 284.867 513.361 270.68C513.67 267.596 513.67 265.129 514.184 265.026Z" fill="black"/>
<path d="M500.202 303.988C489.717 303.886 471.623 301.932 465.558 291.241C479.025 302.035 486.221 299.157 500.202 303.988Z" fill="black"/>
<path d="M494.137 302.755C494.651 305.222 494.445 311.493 490.128 309.437C482.212 307.484 473.782 302.138 468.745 295.867C464.222 289.596 464.736 289.185 469.773 294.942C475.53 300.802 483.857 306.044 491.875 308.203C493.623 307.895 493.109 303.577 494.137 302.755Z" fill="black"/>
<path d="M476.866 261.531C477.894 268.727 481.39 272.428 480.67 262.045C480.259 260.606 478.1 262.662 477.175 261.737L476.866 261.531Z" fill="black"/>
<path d="M471.624 295.97C474.708 300.904 482.623 310.773 490.231 312.521C491.978 310.362 493.52 305.119 494.446 303.269C494.96 305.633 493.212 311.904 490.95 314.063C483.651 314.885 471.829 301.83 471.624 295.97Z" fill="black"/>
<path d="M368.204 389.314C363.373 379.034 367.793 353.334 371.802 343.876C372.419 343.979 370.158 354.053 368.821 366.595C367.588 374.408 367.588 384.174 368.204 389.314Z" fill="#442F1F"/>
<path d="M445.512 388.081C433.689 387.361 420.119 382.941 407.064 384.071C393.802 384.174 377.045 388.081 368.513 388.492C376.428 385.613 396.064 382.221 407.064 382.015C419.914 381.501 433.998 384.688 445.512 388.081Z" fill="#442F1F"/>
<path d="M460.212 389.006C458.876 390.445 447.362 346.343 449.315 346.96C449.829 345.726 461.24 389.828 460.212 389.006Z" fill="#442F1F"/>
<path d="M459.287 388.595C459.493 389.931 446.025 389.417 446.334 388.081C446.128 386.95 459.698 387.361 459.287 388.595Z" fill="#442F1F"/>
<path d="M600.332 473.509C595.809 453.36 582.856 449.968 568.36 464.977C557.566 475.977 552.118 488.827 543.894 504.556C539.062 514.322 534.127 525.322 531.146 536.322C529.501 544.546 525.698 554.62 515.828 555.032C492.081 554.62 465.969 541.256 447.054 563.873C433.689 580.218 435.232 602.732 439.446 622.264C429.063 622.47 418.578 620.928 408.606 617.741C380.541 608.386 351.242 583.714 339.009 556.677C316.495 505.378 332.943 412.239 350.934 362.277C354.018 354.053 357.307 346.343 360.803 339.455C348.672 367.52 340.345 395.585 335.411 428.379C329.345 477.313 319.579 540.742 357.205 580.835C377.765 603.04 405.83 620.722 437.082 620.414C430.503 592.452 435.746 554.312 469.773 549.48C476.25 548.555 483.035 549.069 489.408 549.892C502.67 551.228 523.744 560.583 528.165 541.873C532.174 525.116 539.884 509.387 547.697 494.687C553.454 483.687 559.314 472.687 567.846 464.257C582.033 449.248 597.042 452.435 600.332 473.509Z" fill="#442F1F"/>
<path d="M509.249 455.211C517.37 441.127 535.669 431.052 550.164 423.034C582.341 406.585 607.939 435.575 607.734 467.136C607.836 487.079 605.986 511.341 588.921 523.369C607.117 508.154 609.173 471.145 602.902 449.043C593.547 420.875 568.36 412.856 543.688 428.482C531.866 435.267 516.445 445.033 509.249 455.211Z" fill="#442F1F"/>
<path d="M489.511 402.781C493.006 431.669 507.399 420.155 518.912 443.388C520.146 445.958 519.838 446.164 518.193 443.799C514.081 437.323 507.707 430.949 500.408 426.94C491.67 422.93 487.866 411.005 489.511 402.781Z" fill="#442F1F"/>
<path d="M463.913 342.642C466.38 349.324 470.801 365.464 474.81 373.688C477.997 382.324 486.427 396.716 489.408 403.192C477.689 389.314 465.661 360.735 463.913 342.642Z" fill="#442F1F"/>
<path d="M380.027 395.894C400.176 391.885 424.643 391.165 447.465 392.707C451.372 393.015 451.68 403.09 453.325 406.585C453.839 408.23 454.353 410.081 454.661 411.828C446.746 414.604 438.213 412.445 430.194 411.931C411.073 410.492 391.952 411.931 374.681 415.426C374.99 409.258 375.504 402.268 376.84 397.127C376.943 399.081 375.812 409.567 375.915 413.987C392.569 410.183 411.69 408.641 430.297 409.978C437.493 410.389 444.998 412.239 452.194 410.389C451.063 406.38 450.035 402.268 448.904 398.258C448.288 396.613 448.596 394.249 446.026 394.455C423.923 392.604 400.073 394.146 380.027 395.894Z" fill="#442F1F"/>
<path d="M446.951 412.65C450.446 416.968 454.867 424.267 459.698 431.566C460.624 432.902 461.549 434.65 461.446 436.398C461.241 440.51 457.128 443.388 457.231 447.603C440.269 448.014 420.325 446.781 402.643 450.584C367.279 460.865 371.905 435.884 380.746 413.267C380.849 413.37 380.232 415.323 379.204 419.23C373.55 441.229 372.214 457.678 402.232 448.734C419.503 445.033 439.138 445.65 455.689 446.061C456.203 442.36 459.801 439.482 460.007 436.089C460.007 434.753 459.287 433.519 458.568 432.286C454.044 424.678 449.315 417.585 446.951 412.65Z" fill="#442F1F"/>
<path d="M403.568 536.424C405.419 534.677 408.4 532.209 410.662 528.508L411.279 529.125C406.652 532.518 400.484 533.34 395.344 536.321C387.223 542.078 379.821 549.891 371.803 556.573C371.803 556.573 371.597 556.676 371.7 556.676L371.803 556.779C373.756 558.938 375.401 561.508 376.531 564.181C385.27 550.302 396.886 536.835 413.232 532.004C426.596 527.686 431.633 532.209 439.035 542.901C439.241 543.209 439.858 544.237 440.063 544.34C440.166 544.443 439.96 544.443 439.96 544.546L439.344 544.957C429.475 552.05 421.353 563.256 417.652 574.461C416.624 577.545 415.905 581.143 412.615 582.788C398.017 589.984 384.55 573.433 380.746 561.508C380.129 560.069 379.821 559.143 379.924 559.143C381.26 561.097 382.391 564.386 384.344 567.676C386.709 571.994 391.129 578.059 396.475 580.629C403.774 584.638 414.877 584.022 416.007 573.947C419.606 562.742 427.521 551.33 437.39 544.032C430.297 534.06 426.288 529.742 413.643 533.957C396.578 538.994 384.961 553.798 375.915 568.19C374.578 563.975 372.419 559.863 369.335 556.676C369.232 556.471 369.027 556.471 369.335 556.265C377.971 549.274 385.784 541.05 394.522 535.088C400.484 531.901 407.166 531.181 412.409 527.172C410.251 530.976 406.241 535.191 403.568 536.424Z" fill="#442F1F"/>
<path d="M525.492 439.071C519.735 435.987 537.52 420.669 542.146 419.435C542.865 419.024 543.585 418.716 544.305 418.305L544.202 418.819C543.174 423.033 538.753 435.575 541.323 423.342C541.323 423.033 541.837 421.594 541.529 421.8C537.314 424.37 523.744 434.753 525.492 439.071Z" fill="#442F1F"/>
<path d="M563.529 420.669C563.323 421.286 558.8 419.846 552.94 419.949C547.183 420.052 542.66 421.491 542.454 421.08C546.977 417.071 558.902 416.865 563.529 420.669Z" fill="#442F1F"/>
<path d="M439.96 499.929C445.203 493.145 461.755 481.322 471.726 476.491C482.521 470.836 494.96 466.724 503.903 459.837C506.885 457.472 507.296 457.678 504.417 460.453C496.193 468.266 483.446 472.584 472.652 478.238C462.577 482.864 446.54 494.995 439.96 499.929Z" fill="#442F1F"/>
<path d="M424.54 492.733C435.848 477.416 464.222 476.799 480.464 473.201C463.502 480.603 440.886 478.444 424.54 492.733Z" fill="#442F1F"/>
<path d="M589.846 445.65C577.407 443.183 566.407 454.285 560.547 464.977C553.043 476.799 543.996 493.453 539.473 502.911C535.052 511.752 531.043 520.593 534.23 511.854C539.884 497.359 548.828 479.883 559.005 464.051C564.557 453.566 577.818 440.612 589.846 445.65Z" fill="#442F1F"/>
<path d="M477.483 540.845C467.82 541.976 452.708 542.284 444.278 550.2C432.25 561.817 428.755 580.732 429.166 596.461C429.475 602.937 430.708 606.33 431.634 611.059C431.017 610.134 430.503 609.003 430.092 607.358C424.643 589.984 428.344 567.471 439.549 552.462C448.288 541.565 465.147 539.714 477.483 540.845Z" fill="#442F1F"/>
<path d="M329.448 516.275C324.205 502.911 325.438 485.435 324.102 469.911C322.663 447.603 322.354 447.809 333.354 428.79C335.719 424.576 336.027 424.781 334.074 429.202C324.102 449.557 324.41 446.678 326.055 469.809C326.672 482.864 327.289 506.612 329.448 516.275Z" fill="#442F1F"/>
<path d="M363.064 388.183C362.756 388.183 362.242 384.894 361.625 379.548C361.522 379.137 361.625 378.211 361.214 378.109C358.027 378.725 354.429 379.137 351.139 380.062C348.569 384.174 347.541 389.725 346.719 394.66C350.522 393.426 362.653 389.109 363.887 389.417C361.831 390.959 348.98 395.688 344.457 397.333C345.074 392.809 346.307 378.726 351.653 377.903C355.046 377.286 358.233 376.669 361.419 376.567C362.447 376.669 362.756 377.697 362.756 378.417C363.167 382.838 363.475 388.595 363.064 388.183Z" fill="#442F1F"/>
<path d="M459.082 373.585C461.343 372.969 466.792 373.483 469.67 373.483C471.932 379.548 474.605 385.511 477.483 391.267C478.717 392.501 472.035 392.193 471.212 392.09C467.923 391.37 462.988 390.856 462.166 387.053C461.857 383.968 459.287 374.922 459.698 375.127C460.315 374.716 463.502 384.585 464.016 387.567C466.792 389.931 471.007 390.342 474.605 390.239C472.24 385.305 470.081 380.165 468.334 375.025C466.072 374.511 460.932 374.305 459.082 373.585Z" fill="#442F1F"/>
<path d="M296.14 439.893C294.495 424.575 298.196 404.221 303.747 388.595C309.813 364.436 333.046 345.521 355.148 340.072C361.728 338.633 361.831 338.838 355.354 340.792C334.074 347.371 311.56 365.464 305.598 389.109C299.738 404.632 296.86 424.678 296.14 439.893Z" fill="black"/>
<path d="M310.944 502.5C278.458 509.799 270.234 458.809 292.748 442.566C302.103 434.959 319.168 435.987 326.055 445.547C318.14 437.94 303.028 436.295 293.776 444.005C272.701 460.453 280 506.2 310.944 502.5Z" fill="black"/>
<path d="M316.803 499.518C318.345 500.341 317.523 502.911 315.878 503.528C308.785 506.92 298.196 497.154 296.962 491.191C297.065 489.958 298.71 493.453 299.532 494.07C302.719 497.257 309.607 504.247 315.261 502.397C316.803 501.78 316.803 500.341 316.803 499.518Z" fill="black"/>
<path d="M311.355 480.294C316.187 483.07 322.457 489.547 322.457 496.023C320.504 504.658 310.018 496.434 307.654 492.425C303.233 485.846 303.645 485.126 308.785 491.5C310.635 494.275 321.532 502.705 320.504 493.967C319.271 488.724 314.028 484.098 311.355 480.294Z" fill="black"/>
<path d="M313.616 471.659C315.878 471.659 319.27 473.921 321.429 475.154C325.541 478.752 326.672 486.976 318.756 484.509C314.85 483.481 309.504 480.706 317.214 482.556C318.859 482.762 321.224 483.687 322.766 482.659C323.177 480.911 321.635 477.724 320.401 476.593C318.242 474.949 315.055 473.304 313.616 471.659Z" fill="black"/>
<path d="M492.595 380.062C495.576 385.511 494.959 397.95 488.483 401.239C492.903 393.94 492.081 387.67 492.595 380.062Z" fill="black"/>
<path d="M574.528 582.48C578.538 563.153 585.734 527.069 589.743 503.528C592.313 489.135 594.369 478.033 593.65 464.874C592.93 457.986 593.341 457.369 594.472 464.771C595.808 477.827 593.855 489.341 591.491 503.63C587.687 527.069 580.388 563.256 575.865 582.582C572.061 597.592 571.65 594.816 574.528 582.48Z" fill="black"/>
<path d="M533.716 591.732C529.809 582.171 526.109 560.172 527.239 549.891C528.576 554.415 529.193 563.667 530.632 570.76C531.557 577.956 533.819 587.106 533.716 591.732Z" fill="black"/>
<path d="M559.005 618.049C535.772 597.592 513.875 566.237 484.473 553.078C479.539 551.022 479.642 550.714 484.782 552.359C505.445 559.863 522.922 578.368 537.828 594.405C545.23 602.629 553.454 610.75 559.005 618.049Z" fill="black"/>
<path d="M579.052 656.189C572.061 658.245 563.529 657.217 556.23 653.722C550.987 650.638 545.538 648.581 539.37 647.965C506.062 641.18 460.212 636.04 440.372 604.993C437.904 600.573 435.745 595.638 441.091 604.582C462.166 634.395 506.473 638.918 539.679 646.217C556.127 648.479 559.417 658.451 579.052 656.189Z" fill="black"/>
<path d="M592.621 592.554C596.734 580.115 616.883 590.601 606.294 610.545C597.35 623.909 603.004 644.058 589.229 653.619C587.173 654.955 583.986 656.086 581.622 655.367C585.836 654.544 588.818 653.516 592.416 648.787C598.995 640.049 596.836 628.124 600.743 618.049C603.621 610.442 609.687 602.732 607.014 594.61C605.163 587.928 595.706 585.975 592.621 592.554Z" fill="black"/>
<path d="M586.865 609.722C589.846 601.498 580.08 598.208 576.276 606.227C573.295 612.806 565.379 614.657 560.136 618.46C557.052 620.619 555.202 625.348 554.174 628.021C553.763 626.068 554.688 623.087 556.333 620.414C559.622 614.76 566.819 613.526 571.445 609.208C573.912 606.844 575.146 603.143 578.024 601.087C583.884 596.564 592.005 604.891 586.865 609.722Z" fill="black"/>
<path d="M596.323 603.863C602.182 595.536 590.874 590.601 585.117 596.872C583.472 598.517 583.369 600.264 583.061 600.162C582.444 599.134 583.061 597.386 584.089 596.05C587.584 590.601 598.893 590.601 599.509 598.414C599.715 600.573 598.379 603.76 596.323 603.863Z" fill="black"/>
<path d="M527.239 550.714C526.417 557.601 516.753 567.059 509.866 567.573C511.716 565.723 517.267 562.844 519.529 560.172C522.202 558.013 525.389 552.667 527.239 550.714Z" fill="black"/>
<path d="M323.691 471.248C323.383 473.201 318.037 474.846 316.803 473.304C316.598 472.481 323.383 470.322 323.691 471.248Z" fill="black"/>
</g>
<defs>
<clipPath id="clip0_1053_67785">
<rect width="465.694" height="484.199" fill="white" transform="translate(280 173.121)"/>
</clipPath>
</defs>
</svg>
