<svg width="273" height="87" viewBox="0 0 273 87" fill="none" xmlns="http://www.w3.org/2000/svg">
<path d="M175.473 35.878C158.922 32.3827 127.258 36.8032 127.258 36.8032C127.258 36.8032 89.1188 40.0928 78.633 45.4386C78.633 45.4386 77.1938 44.2049 74.7265 42.1489C64.2407 33.3079 52.7268 85.6342 66.9135 86.6623C73.6985 83.2698 80.5862 84.709 87.988 85.5314C89.53 85.4286 98.4738 84.8118 100.221 84.4006C114.717 79.2605 131.782 72.1672 143.912 61.4757C146.688 60.2421 150.8 58.4944 153.576 57.3636C153.781 67.3354 156.66 68.2607 159.95 58.5972C172.8 61.1673 176.912 54.8964 162.314 49.9619C161.08 47.4946 163.753 46.8778 167.763 45.8498C170.641 45.233 174.856 44.6161 181.127 44.3077C181.127 44.3077 181.846 43.9993 182.463 43.4853C185.033 42.0461 188.015 38.448 175.473 35.878Z" fill="#FFD3B6"/>
<path d="M170.024 52.3264C173.52 53.7656 171.155 56.5413 172.492 57.2609C178.146 59.317 180.099 58.2889 177.323 52.3264C176.295 50.7844 173.622 52.3264 172.08 52.1208L170.024 52.3264Z" fill="#D3A288"/>
<path d="M78.8386 45.7471C65.2687 39.0649 62.5959 64.1487 113.277 47.2891C121.913 45.7471 134.866 35.7753 141.445 36.4949C128.492 36.2893 96.4178 41.3266 78.8386 45.7471Z" fill="#D3A288"/>
<path d="M79.147 83.1671C111.221 90.1576 126.642 71.756 152.753 57.4665C154.295 59.5225 154.09 65.7935 158.099 64.1486C159.847 62.915 158.51 59.5225 160.361 58.4945C161.697 57.6721 163.959 60.4478 164.679 59.1113C160.464 57.7749 156.557 54.9992 152.445 52.532C147.716 49.7563 142.062 49.0367 136.922 50.7844C119.857 56.3357 109.371 64.5599 85.5208 65.6907C76.4742 65.7935 73.9041 66.3075 69.3808 68.4663C63.4183 77.8213 45.9419 93.9613 79.147 83.1671Z" fill="#D3A288"/>
<path d="M160.155 58.9058C161.492 66.8216 153.576 70.3169 152.959 59.9338C152.856 56.5413 153.576 56.4385 154.295 59.7282C157.071 68.7748 157.585 62.6067 160.155 58.9058Z" fill="black"/>
<path d="M176.706 51.4012C178.043 51.8124 180.51 55.102 179.996 57.0553C178.865 60.5506 172.8 59.8309 171.978 56.7469C172.492 56.4385 174.753 57.7749 175.884 57.5693C176.706 57.4665 177.837 57.1581 178.146 56.3357C178.146 55.102 176.192 52.2236 176.706 51.4012Z" fill="black"/>
<path d="M147.408 58.803C153.679 54.1769 161.286 60.1394 168.071 59.2142C170.744 58.4946 171.978 54.5881 168.585 53.6629C166.015 52.9433 157.996 50.7844 162.725 47.2891C168.791 45.1303 175.164 43.6911 181.641 43.5883C183.594 43.5883 184.622 40.7098 182.977 39.4762C181.23 38.037 178.968 37.3173 176.501 37.0089C166.015 35.3641 155.632 34.3361 144.838 36.0837C122.53 38.4482 100.016 38.7566 79.4555 46.5695L79.0443 46.6723C78.9415 46.7751 78.9415 46.6723 78.8387 46.5695C76.4742 44.5135 70.8201 38.1398 79.3527 44.6163C99.8104 36.8033 122.427 36.3921 144.529 34.0277C151.314 33.2052 158.202 32.5884 164.987 33.308C171.464 34.8501 178.762 33.6164 184.314 38.0369C186.987 40.4014 185.239 45.1303 181.641 45.2331C176.912 45.2331 172.08 46.1583 167.351 47.392C156.66 49.962 168.996 50.2704 171.464 53.4573C172.594 54.7937 172.389 56.9526 171.464 58.289C167.968 63.5319 157.996 58.5974 152.959 58.0834C144.838 60.4478 140.828 65.588 135.072 68.672C126.333 74.0177 112.044 81.8307 107.418 82.4475C106.493 82.7559 124.38 75.0458 147.408 58.803Z" fill="black"/>
<path d="M74.8296 42.0462C45.0169 15.4204 6.56885 0.514061 5.74643 0.308456C-7.41226 3.59813 4.82122 46.0555 16.3351 66.7187C23.2228 70.214 52.8299 85.5315 67.0166 86.6624C73.8015 83.2699 77.2968 44.205 74.8296 42.0462Z" fill="#FFD3B6"/>
<path d="M24.662 24.3641C67.1193 43.9994 58.6895 51.6067 80.792 52.8404C89.4274 51.2983 96.5208 41.3265 78.9416 45.747C68.8669 35.878 30.6245 6.37373 9.34442 2.67285C8.72761 1.54202 7.90518 0.719601 6.87716 -1.52588e-05C-2.16944 34.5415 24.662 24.3641 24.662 24.3641Z" fill="#D3A288"/>
<path d="M17.2604 67.4381C31.6527 73.2979 45.1198 81.6248 59.9234 85.8397C79.9698 91.2882 88.3996 68.0549 78.0166 65.9989C61.4654 62.812 37.3069 52.7374 21.1669 46.9805C21.9893 53.8682 19.7277 61.1672 15.1016 66.5129L17.2604 67.4381Z" fill="#D3A288"/>
<path d="M79.4557 46.6725L79.0445 46.7753C78.9417 46.8781 78.9417 46.7753 78.8389 46.6725C76.4745 44.6165 74.0072 42.4576 71.5399 40.4016C57.7644 28.8877 19.008 1.23394 3.07364 1.43954C0.709189 1.74795 -1.03845 2.77596 0.709186 1.74794C6.46611 -0.616516 12.8399 2.36476 18.494 4.93481C39.774 14.5982 61.0541 28.7849 79.3529 44.7193C100.839 36.4951 92.7172 43.4857 79.4557 46.6725Z" fill="black"/>
<path d="M64.4467 86.9711C50.0544 85.8403 25.3819 74.3265 14.6904 66.1023C20.4474 68.1583 30.6248 74.0181 39.2602 77.5133C46.0451 80.7002 59.2038 84.7095 64.4467 86.9711Z" fill="black"/>
<path d="M168.482 52.1212C166.426 51.2988 163.342 50.7848 162.52 48.5232C168.585 44.9251 175.884 44.5139 182.669 43.6915C184.211 43.8971 184.725 42.355 186.164 42.2522C199.22 41.6354 212.481 40.4018 225.435 40.4018C227.182 43.8971 227.388 50.2708 221.939 49.8596C203.846 51.196 185.753 52.1212 167.557 52.6353L168.482 52.1212Z" fill="#4F79A3"/>
<path d="M222.145 38.9625C228.929 36.5981 238.696 35.3645 244.144 41.0186C238.49 41.5326 232.939 42.1494 227.285 42.5606C226.565 41.1214 225.537 39.8878 224.098 38.9625H222.145Z" fill="#FFD39F"/>
<path d="M224.201 39.6821C229.238 39.7849 234.378 39.9905 239.21 38.7569C237.873 36.1868 223.892 37.7289 222.659 39.3737L224.201 39.6821Z" fill="white"/>
<path d="M226.976 44.4108C233.247 44.822 239.518 44.5136 245.789 43.4856C241.985 36.495 232.836 42.1492 226.668 41.5324C227.799 41.8408 228.518 42.8688 228.416 43.9996L226.976 44.4108Z" fill="#FF9100"/>
<path d="M226.977 43.5885C232.939 43.3829 239.519 40.9156 245.173 43.1773C246.201 50.9902 230.472 51.2987 225.023 50.2706C225.64 48.9342 226.257 47.5978 226.668 46.2613L226.977 43.5885Z" fill="#C47400"/>
<path d="M242.5 38.5511C254.013 25.9064 260.284 38.3454 270.462 33.4109C269.639 36.0838 267.48 38.3455 264.808 39.1679C270.359 38.6539 272.209 45.85 269.742 49.9621C268.817 49.1397 267.686 48.6257 266.452 48.6257C266.864 50.4761 267.378 53.5602 265.219 54.2798C262.752 52.4294 260.798 49.2425 257.611 49.0369C252.677 49.4481 247.64 50.7845 242.705 49.0369C244.556 46.7752 245.172 43.4856 244.35 40.6071L242.5 38.5511Z" fill="#303030"/>
<path d="M182.771 44.514C197.164 44.2056 211.659 44.3084 225.948 43.0747C226.668 40.8131 223.378 40.0935 221.734 40.2991C209.706 39.5795 197.678 42.7663 185.65 42.0467L182.771 44.514Z" fill="#7CB1DD"/>
<path d="M162.725 49.2426C183.799 48.8314 205.182 46.7754 226.051 47.1866C225.948 53.0463 197.781 49.7566 192.229 51.1959C182.257 52.1211 171.977 52.6351 162.005 51.093L162.725 49.2426Z" fill="#364C5B"/>
<path d="M184.93 42.1492C195.827 40.71 210.425 39.0652 223.07 39.0652C229.238 39.5792 229.649 48.6258 224.201 50.6818C216.388 52.1211 207.855 51.4014 200.042 52.0183C188.631 52.2239 176.501 53.0463 166.94 52.3267C176.398 50.9902 188.528 50.9902 199.939 50.2706C204.668 49.3454 222.248 51.093 225.126 47.7006C226.874 45.1305 226.154 41.4296 222.659 41.0184C210.322 40.5044 195.725 42.7661 184.93 42.1492Z" fill="black"/>
<path d="M221.219 39.0653C226.771 35.57 236.64 34.4392 243.322 37.8316C247.434 39.8877 248.565 45.8502 244.453 48.5231C240.238 51.4015 234.995 51.1959 230.266 51.4015C222.556 51.0931 217.107 50.0651 230.266 50.0651C234.378 49.6539 239.518 49.6539 243.219 47.0838C248.256 43.1774 242.088 38.14 237.668 37.8316C232.63 36.8036 225.64 38.2428 221.219 39.0653Z" fill="black"/>
<path d="M242.911 38.1401C243.733 35.3644 248.77 32.5888 252.163 32.3832C255.967 31.5607 260.181 33.8224 263.985 33.6168C266.144 33.2056 268.611 30.8411 270.564 33C272.621 35.57 268.611 37.3177 267.069 38.8597C269.331 39.5793 270.976 41.4298 272.107 43.5886L270.77 43.7942C272.107 45.8503 272.621 50.4764 269.022 50.168C269.022 50.168 269.022 50.168 268.92 50.168C269.536 52.8408 266.35 57.9809 263.574 55.4109C261.518 50.9904 255.967 50.0651 251.752 50.5792C249.079 50.8876 244.247 50.9904 242.705 49.1399C248.462 51.4016 256.275 47.0839 262.032 51.196C263.368 51.9156 264.191 53.4576 265.116 54.4856C268.2 52.738 267.069 49.6539 265.63 47.0839C266.761 47.3923 268.817 48.9343 269.742 48.2147C269.845 46.6727 269.125 44.925 268.303 43.6914C268.817 42.869 269.536 42.2522 270.462 42.1494L269.742 43.5886C268.097 40.5045 265.013 40.6073 261.929 40.6073C262.649 39.5793 272.004 34.1308 268.303 34.1308C258.948 38.5513 253.191 28.2711 242.911 38.1401Z" fill="black"/>
</svg>
