<svg width="1040" height="678" viewBox="0 0 1040 678" fill="none" xmlns="http://www.w3.org/2000/svg">
<g clip-path="url(#clip0_950_100143)">
<path d="M1134 762.691H-3.18701V25.0361C110.602 15.104 127.06 108.787 273.323 125.341C312.787 131.694 371.805 137.062 381.627 183.77C382.6 191.733 381.007 200.323 385.431 207.481C398.085 223.05 400.739 224.75 396.138 245.241C393.306 271.637 418.878 294.543 436.486 313.96C456.13 334.987 476.392 354.941 500.991 370.689C565.583 412.296 665.215 419.186 705.298 479.851C709.722 486.562 713.616 494.168 721.314 498.194C727.331 501.416 734.763 501.953 741.842 502.668C830.856 510.9 896.599 568.613 927.037 638.943C997.293 663.549 1105.77 686.366 1134 762.691Z" fill="#44676B"/>
<path d="M-21.1487 219.836C-1.59393 241.221 28.4904 248.379 56.7165 254.553C106.179 265.291 155.729 276.028 205.191 286.765C229.17 291.955 256.954 300.276 265.448 323.63C268.015 330.699 268.545 338.662 272.704 344.836C283.057 359.958 308.363 355.484 320.751 368.995C327.387 376.243 329.068 387.428 336.766 393.512C341.81 397.449 348.446 398.344 354.728 399.686C370.655 403.176 385.52 410.424 400.562 416.955C467.633 446.215 539.57 462.231 610.976 477.979C617.435 479.411 623.894 480.842 630.442 482.274C653.978 487.464 677.426 492.654 700.963 497.575C747.063 507.238 797.321 518.155 826.698 555.288C830.945 560.657 834.661 566.562 839.705 571.215C848.818 579.805 861.206 583.831 870.851 591.884C880.496 599.937 886.335 615.506 877.841 624.723C870.939 632.239 857.313 632.149 853.066 641.455C848.642 651.119 858.994 661.588 869.258 664.003C879.522 666.419 890.76 664.898 900.227 669.462C909.783 674.025 914.739 689.594 905.536 694.784C950.22 693.799 995.081 697.915 1038.88 707.042C1061.18 711.695 1088.52 724.759 1086.22 747.665C1083.74 772.093 1051.36 777.819 1027.02 777.014C784.757 768.603 542.224 766.813 299.78 771.824C197.936 773.882 95.2067 777.103 -4.9563 758.76C-23.4493 755.36 -43.0041 750.618 -56.2766 737.107C-74.0617 719.032 -75.7429 690.847 -75.9199 665.435C-77.0701 522.181 -65.8328 378.748 -42.5617 237.463" fill="#008965"/>
<path d="M-26.6345 231.812C-10.4421 240.134 8.40485 240.671 26.4554 243.445C72.9976 250.603 115.381 273.867 156.703 296.684C169.09 303.484 181.478 310.374 192.892 318.606C163.516 324.154 133.166 324.78 103.613 320.574C88.3052 318.427 71.4049 315.206 58.2209 323.438C62.7336 329.254 67.3347 335.07 71.8473 340.975C69.1928 343.033 65.742 343.749 62.4681 344.375C29.9948 350.37 -3.9828 347.686 -35.1289 336.591" fill="#24D36F"/>
<path d="M532.58 462.227C569.654 470.995 606.729 479.675 643.803 488.444C653.448 490.68 664.42 494.17 667.87 503.565C657.606 506.697 647.254 509.56 636.813 512.066C638.494 514.661 640.175 517.345 641.856 519.94C597.526 523.608 552.842 522.445 508.778 516.54C511.255 512.066 513.733 507.592 516.21 503.118C508.247 497.839 501.61 490.591 497.009 482.18" fill="#24D36F"/>
<path d="M316.061 455.512C290.047 453.543 263.591 459.449 240.762 472.155C249.787 478.776 259.874 483.876 270.492 487.276C251.999 510.451 211.474 504.635 193.954 528.615C210.324 531.031 226.693 533.447 243.062 535.863C251.468 537.116 261.555 539.621 264.298 547.763C223.862 557.517 182.54 563.243 141.041 564.854C109.364 566.106 76.8024 564.764 47.4259 552.595C55.9203 545.974 64.3262 539.353 72.8206 532.821C70.0776 532.015 67.3347 531.121 64.6802 530.315C68.5734 526.736 72.5552 523.247 76.4484 519.667C53.5313 516.267 29.9947 517.52 7.60848 523.336C21.3234 518.415 37.2504 520.562 49.1956 528.973C25.1282 542.574 0.972233 556.174 -23.0952 569.775C-27.9618 572.549 -33.6247 577.202 -31.7666 582.481C-30.5278 586.06 -26.4576 587.67 -22.8298 588.655C17.784 600.287 60.433 602.524 102.551 604.671C141.838 606.729 181.124 608.698 220.411 610.756C238.904 611.74 257.308 612.635 275.801 612.903C291.197 613.172 306.593 612.903 321.989 611.74C408.703 605.208 491.523 570.043 578.325 564.764C604.516 563.154 632.477 563.869 654.686 549.642C657.252 548.032 659.818 545.974 660.703 543.021C662.738 536.131 654.775 530.852 648.139 528.347C625.398 519.846 601.862 513.136 578.06 508.393C563.283 505.44 547.976 503.114 535.411 494.703C481.879 471.707 424.188 458.465 365.966 455.959" fill="#273D30"/>
<path d="M-28.3153 646.644C1.50354 668.834 40.8786 672.145 77.8646 673.129C178.205 675.724 278.81 666.776 377.115 646.554C391.095 643.691 405.253 640.47 418.083 634.027C427.285 629.375 435.691 623.022 445.07 618.727C458.873 612.374 474.447 610.763 489.577 611.658C543.994 614.879 591.421 649.149 643.715 664.718C688.487 678.05 739.365 678.677 775.378 708.741C789.004 720.105 799.711 735.137 815.019 743.906C828.645 751.601 844.483 753.659 859.703 757.328C888.106 764.307 915.005 777.729 937.833 796.251C609.383 785.424 280.137 812.625 -47.8701 791.419C-39.0218 762.875 -38.6679 731.737 -46.8083 702.925" fill="#273D30"/>
<path d="M304.027 572.376C346.853 581.95 431.355 610.494 475.065 614.162C485.153 615.057 495.859 615.594 504.707 610.583C505.946 609.867 507.185 608.973 507.804 607.72C509.751 603.425 503.822 600.025 499.31 599.041C487.099 596.446 474.8 594.03 462.412 591.882C438.433 587.677 383.751 545.533 360.657 553.138" fill="#273D30"/>
<path d="M443.477 574.44C508.777 589.025 494.089 587.235 560.717 592.872C576.024 594.215 607.259 603.162 620.708 595.557C622.567 594.483 632.3 589.83 633.185 587.862C636.105 581.33 638.582 578.556 631.68 577.124C613.01 573.187 581.51 556.455 562.752 553.144C526.297 546.702 488.691 524.422 453.475 536.054" fill="#273D30"/>
<g clip-path="url(#clip1_950_100143)">
<path d="M493.812 496.031C493.539 494.651 493.266 493.363 492.993 492.351C492.811 492.903 492.811 493.455 492.811 494.007C492.902 493.823 492.993 493.731 492.993 493.547L494.175 500.814C494.085 499.25 493.903 497.686 493.812 496.031ZM450.059 300.01C479.894 287.316 488.991 245.923 480.622 216.488C468.251 186.593 459.337 187.696 419.131 178.59C406.305 176.566 393.025 175.646 379.926 176.934C343.905 178.682 312.159 203.886 303.881 240.312C298.787 258.617 296.695 269.839 315.252 284.833C324.439 292.1 334.172 296.975 346.634 301.85C307.52 311.6 286.78 350.786 288.509 393.927C282.778 398.342 273.318 407.081 274.955 423.822C274.227 427.318 279.685 454.729 299.242 449.486C301.607 451.142 306.701 451.694 306.61 447.003C314.16 447.187 309.43 436.424 306.155 432.285C316.252 434.125 313.705 428.973 306.519 423.638C306.974 423.546 312.159 421.983 312.614 421.799C312.25 407.265 313.614 397.423 321.255 384.453C348.362 429.341 377.197 476.898 404.304 521.97C416.311 539.172 414.401 550.578 450.695 566.583C464.522 572.93 492.72 576.978 510.094 580.565C531.47 593.627 556.849 590.591 556.849 559.776C556.94 554.165 559.396 547.91 562.398 544.875C562.398 544.875 562.579 544.231 562.852 543.311C565.035 535.216 564.399 522.154 552.21 527.766C552.119 527.858 550.936 529.605 550.936 529.605C548.207 530.433 542.75 532.365 542.204 537.056L539.566 537.608L539.202 537.24C538.201 536.044 534.654 531.721 533.744 530.617C540.839 496.031 556.121 436.792 550.572 396.043C523.284 401.01 431.684 417.383 459.428 359.525C465.522 362.56 450.786 300.286 450.059 300.01ZM498.269 527.766L498.451 529.053C493.448 523.994 482.532 513.048 477.62 508.081C479.44 507.253 489.082 502.47 492.993 493.547C494.448 502.562 496.904 518.567 498.269 527.766Z" fill="#FFD3B6"/>
<path d="M591.856 289.004C576.904 289.986 550.876 301.383 550.876 301.383C550.876 301.383 519.053 313.368 511.333 320.468C511.333 320.468 509.817 319.757 507.233 318.588C496.223 313.532 498.521 361.14 510.88 358.612C515.89 354.074 522.109 353.652 528.624 352.578C529.918 352.12 537.416 349.442 538.814 348.67C550.006 340.781 562.942 330.602 570.827 318.524C572.912 316.8 576.02 314.314 578.13 312.678C580.618 321.174 583.292 321.275 583.861 312.204C595.437 311.318 597.496 304.956 583.879 304.235C582.253 302.417 584.393 301.246 587.581 299.402C589.897 298.182 593.355 296.64 598.641 294.869C598.641 294.869 599.185 294.432 599.593 293.843C601.455 291.992 603.167 288.192 591.856 289.004Z" fill="#FFD3B6"/>
<path d="M590.918 304.502C594.242 304.896 592.863 307.849 594.174 308.145C599.488 308.549 600.92 307.195 597.162 302.743C595.924 301.667 593.996 303.635 592.629 303.83L590.918 304.502Z" fill="#D3A288"/>
<path d="M511.567 320.546C498.432 318.088 501.962 340.172 541.329 313.606C548.345 310.218 557.094 298.587 562.878 297.625C551.771 300.555 525.552 312.552 511.567 320.546Z" fill="#D3A288"/>
<path d="M520.568 352.685C549.587 350.967 558.494 331.507 577.486 313C579.28 314.39 580.558 319.809 583.602 317.438C584.808 315.962 582.881 313.378 584.223 312.053C585.174 311.028 587.749 312.861 588.054 311.544C584.144 311.412 580.164 309.974 576.079 308.849C571.396 307.608 566.4 308.35 562.414 311.081C549.124 319.933 542.073 329.493 521.962 336.19C514.258 338.451 512.182 339.508 508.819 342.443C505.894 351.885 494.706 369.903 520.568 352.685Z" fill="#D3A288"/>
<path d="M584.069 312.494C587.054 318.978 581.086 323.893 578.144 315.113C577.268 312.221 577.86 311.959 579.241 314.614C583.722 321.724 582.728 316.296 584.069 312.494Z" fill="black"/>
<path d="M596.413 302.091C597.653 302.122 600.529 304.354 600.543 306.157C600.387 309.434 595.028 310.277 593.608 307.825C593.976 307.436 596.222 308.039 597.142 307.59C597.822 307.303 598.719 306.766 598.792 305.985C598.505 304.924 596.165 302.921 596.413 302.091Z" fill="black"/>
<path d="M573.174 315.394C577.459 309.922 585.343 313.204 590.926 310.78C593.043 309.52 593.191 305.875 590.078 305.898C587.715 305.899 580.362 305.976 583.592 301.843C588.275 298.535 593.387 295.769 598.897 294.124C600.567 293.654 600.777 290.94 599.086 290.278C597.259 289.465 595.159 289.391 592.98 289.72C583.638 290.831 574.527 292.446 565.709 296.539C547.195 303.928 528.029 309.604 512.272 321.244L511.945 321.431C511.881 321.544 511.857 321.455 511.745 321.392C509.248 320.198 502.938 316.094 511.731 319.594C527.4 307.98 546.631 302.19 564.969 294.851C570.576 292.515 576.318 290.33 582.283 289.316C588.175 289.081 594.125 286.269 599.894 288.723C602.726 290.107 602.33 294.581 599.279 295.534C595.238 296.671 591.324 298.625 587.569 300.819C579.03 305.592 589.642 302.891 592.49 305.03C593.766 305.903 594.091 307.803 593.61 309.171C591.839 314.505 582.174 312.673 577.751 313.443C571.359 317.422 569.125 322.792 564.921 326.819C558.694 333.501 548.296 343.633 544.486 345.274C543.767 345.761 557.264 334.852 573.174 315.394Z" fill="black"/>
<path d="M507.435 318.141C475.717 302.446 439.325 298.909 438.573 298.93C428.067 304.934 448.406 338.48 463.066 353.465C469.777 354.808 498.692 360.831 511.105 358.38C516.129 353.827 510.049 319.402 507.435 318.141Z" fill="#FFD3B6"/>
<path d="M460.307 315.016C501.165 321.638 495.721 330.195 514.907 325.93C521.934 322.528 525.687 312.264 511.68 320.29C500.777 314.249 461.234 298.145 442.179 300.094C441.389 299.272 440.495 298.765 439.449 298.395C439.723 330.209 460.307 315.016 460.307 315.016Z" fill="#D3A288"/>
<path d="M464.105 353.947C477.769 355.508 491.214 359.408 504.849 359.459C523.252 359.307 525.073 337.347 515.719 338.084C500.828 339.335 477.837 336.51 462.702 335.458C465.002 341.168 464.761 347.973 462.045 353.673L464.105 353.947Z" fill="#D3A288"/>
<path d="M512.319 320.987L511.991 321.174C511.927 321.286 511.903 321.198 511.792 321.135C509.293 319.938 506.684 318.677 504.098 317.505C489.651 310.93 450.11 296.5 436.544 300.502C434.595 301.335 433.341 302.637 434.595 301.335C438.964 297.923 445.103 298.952 450.531 299.8C470.959 302.985 492.438 310.052 511.777 319.335C528.222 307.118 522.908 315.067 512.319 320.987Z" fill="black"/>
<path d="M509.018 359.417C496.466 361.89 472.714 357.902 461.667 353.395C467.062 353.783 477.119 356.382 485.307 357.319C491.844 358.433 504.014 358.729 509.018 359.417Z" fill="black"/>
<path d="M453.242 302.127C452.696 301.115 451.969 300.379 451.059 299.735C485.17 282.35 492.083 239.209 476.256 206.922C474.345 201.955 465.34 193.492 460.61 191.101C450.695 186.134 438.506 188.985 428.227 184.754L426.59 186.87C436.141 191.837 445.874 196.896 453.424 204.623C456.971 208.21 460.064 212.441 463.976 215.569C466.432 217.501 469.16 219.156 471.162 221.548C473.345 224.216 474.436 227.527 475.346 230.838C476.438 236.45 482.987 250.431 480.895 254.663C477.438 259.63 470.616 254.019 466.159 255.95C457.426 260.458 468.16 274.531 461.156 280.142C457.881 280.418 454.606 279.315 452.241 277.107C443.509 300.195 425.316 303.415 405.305 312.797C405.396 312.889 405.578 313.073 405.668 313.165C390.478 315.005 373.468 310.59 355.457 306.818C374.559 344.164 442.508 362.561 466.795 321.628C476.256 306.818 453.242 302.127 453.242 302.127Z" fill="#D3A288"/>
<path d="M442.054 232.867C444.419 249.608 454.88 253.288 450.878 232.959C448.149 233.695 445.329 233.879 442.6 233.603L442.054 232.867Z" fill="white"/>
<path d="M477.075 237.553C478.258 240.865 478.531 244.452 480.259 247.488C481.169 244.544 481.896 241.509 481.987 238.381C480.805 237.553 478.803 238.105 477.439 237.277L477.075 237.553Z" fill="white"/>
<path d="M444.874 266.621C450.059 274.44 462.248 290.169 463.885 271.036C457.791 270.852 451.605 269.105 445.966 266.989L444.874 266.621Z" fill="white"/>
<path d="M564.217 542.395C567.673 529.149 558.577 521.699 558.941 532.737C559.214 534.76 558.395 537.796 556.394 537.428C557.668 530.253 546.661 532.093 548.844 543.039C547.753 544.603 546.57 542.303 546.115 541.475C544.751 539.728 541.658 540.831 540.748 542.855C539.839 544.879 540.385 547.27 540.657 549.57C541.658 557.297 539.202 565.392 534.29 571.371C529.833 575.51 523.193 584.34 531.561 587.928C532.926 588.296 539.02 587.56 540.385 587.192C544.296 585.812 544.569 586.916 548.116 584.432C550.027 583.145 551.755 581.397 552.574 579.189C552.846 578.269 554.848 574.13 555.121 573.21C557.758 562.816 558.941 553.249 562.034 546.81L564.217 542.395Z" fill="#D3A288"/>
<path d="M426.409 499.709C457.245 493.822 492.993 536.044 519.009 550.945C498.997 532.548 459.519 475.333 428.501 497.41L426.409 499.709Z" fill="#D3A288"/>
<path d="M305.337 392.733C309.703 392.365 312.159 387.582 313.796 383.534C319.436 369.737 324.985 355.847 330.625 341.957C327.623 355.847 325.713 370.012 322.074 383.81C319.982 388.869 315.07 392.365 313.524 397.608C311.886 395.216 309.521 393.469 306.701 392.641L305.337 392.733Z" fill="#D3A288"/>
<path d="M552.028 421.532C554.302 408.746 545.933 395.224 532.653 403.686C513.551 426.315 505 455.75 493.903 482.978C491.356 489.049 494.267 495.856 493.994 502.57L493.903 506.986C507.274 490.704 509.548 466.144 520.828 448.299C524.375 472.859 501.907 528.51 524.284 541.572C535.018 546.171 533.199 537.157 537.474 535.225C531.652 531.362 534.654 525.291 536.109 519.312C542.659 486.749 549.208 454.646 552.028 421.532Z" fill="#D3A288"/>
<path d="M416.767 514.891C436.961 568.242 500.453 559.136 510.549 580.66C461.793 574.129 400.121 555.916 415.493 516.822L416.767 514.891Z" fill="#FFE3D4"/>
<path d="M288.691 395.035C288.782 353.09 299.152 313.445 345.088 304.246C332.717 335.061 311.341 319.608 299.152 382.893C298.424 389.424 296.605 395.679 292.147 400.647C282.414 413.984 281.141 433.025 288.964 447.651C270.589 437.901 272.681 408.097 287.326 395.679L288.691 395.035Z" fill="#FFE3D4"/>
<path d="M302.881 392.922C308.43 393.75 312.978 401.017 308.066 405.248C304.609 407.456 299.788 406.536 296.696 409.571C287.054 419.874 306.338 423.921 309.885 431.648C312.978 435.879 314.342 427.784 308.43 423.829C310.158 423.093 312.25 422.909 313.797 421.805C314.342 416.838 312.978 411.503 312.887 406.444C311.523 397.153 320.801 399.637 307.975 393.934L302.881 392.922Z" fill="#D3A288"/>
<path d="M291.147 449.855C289.783 446.083 288.964 441.852 288.873 437.805C290.965 442.68 294.24 448.107 299.698 449.027C297.424 444.887 296.059 440.288 295.422 435.597C298.151 439.184 301.517 442.404 305.337 444.887C303.882 439.644 302.608 434.401 301.608 429.25C305.155 432.653 308.521 436.885 310.886 441.208C312.25 443.876 309.794 448.199 306.793 446.451C306.52 452.89 295.786 448.751 291.602 449.487L291.147 449.855Z" fill="#D3A288"/>
<path d="M393.389 307.738C372.467 290.077 337.356 278.303 335.445 246.568C339.539 247.764 341.176 257.606 346.543 254.571C336.992 245.004 334.445 220.444 350.272 216.581C343.177 211.154 335.718 219.984 334.718 227.067L333.171 228.079C336.719 247.764 312.614 232.494 313.523 267.725C311.158 265.701 308.793 263.585 306.428 261.562C290.237 295.228 411.945 325.583 393.389 307.738Z" fill="#FFE3D4"/>
<path d="M450.514 492.082C454.971 495.026 459.883 496.957 464.522 499.349C469.161 501.556 472.709 506.432 477.802 507.444C483.806 505.972 494.994 496.129 492.902 489.23C489.81 494.658 484.079 497.233 478.075 495.669C469.161 494.474 460.247 493.094 451.332 491.898L450.514 492.082Z" fill="#3D302A"/>
<path d="M551.574 410.668C563.581 425.478 561.034 453.901 546.935 466.687C547.026 448.014 555.758 429.617 551.756 410.944L551.574 410.668Z" fill="#3D302A"/>
<path d="M344.997 304.429C343.723 307.372 327.805 344.718 323.257 381.88C323.257 381.972 323.166 382.064 323.166 382.248L313.706 401.197C313.615 401.381 313.615 401.565 313.615 401.657C314.979 457.492 314.251 544.786 412.4 554.444C413.401 554.536 414.765 554.628 414.402 553.708C404.759 527.309 419.768 497.138 437.142 493.55C458.791 489.135 474.619 495.666 474.801 495.758C477.075 496.494 493.357 500.633 495.813 479.568C498.451 457.308 529.288 416.007 530.379 414.535C530.379 414.535 530.379 414.443 530.47 414.443C531.289 413.523 545.388 399.633 552.938 414.075C552.938 414.075 568.311 438.451 547.116 464.667C547.025 464.759 546.934 464.943 546.934 465.035L546.57 466.231C546.298 467.15 547.298 467.794 548.026 467.426C573.768 451.697 569.766 366.703 523.557 376.177C523.375 376.177 523.193 376.177 523.011 376.177C513.096 372.866 493.63 378.293 491.083 392.642C491.083 392.918 490.901 393.102 490.719 393.286L486.353 397.15C485.898 397.518 485.262 397.518 484.989 397.058C482.442 394.39 473.436 384.916 469.07 381.328C464.067 377.281 458.973 372.866 459.337 365.323C459.337 365.139 459.428 364.955 459.61 364.771C460.065 364.311 460.338 361.919 452.879 350.421C444.601 337.451 438.143 312.155 436.96 307.004C436.869 306.452 436.324 306.084 435.778 306.176L424.862 308.108C424.225 308.2 423.862 308.844 424.044 309.304L433.14 347.018C433.322 347.662 432.867 348.214 432.139 348.214C412.309 348.857 408.034 335.888 353.184 347.662C352.547 347.754 352.001 347.386 352.001 346.742C351.546 341.867 350.182 322.09 354.821 307.464C355.003 306.912 354.73 306.36 354.184 306.268L346.088 303.049C345.361 302.773 344.724 303.325 344.724 304.061C345.088 304.153 344.997 304.337 344.997 304.429Z" fill="#965640"/>
<path d="M313.706 188.615C313.706 188.615 286.053 199.745 290.055 248.681C290.055 248.681 289.691 276.921 315.434 284.74C309.703 277.381 301.971 276.737 305.61 262.939L311.613 271.31L313.706 269.93L312.887 266.618L313.706 264.043L312.159 258.064C312.159 258.064 314.888 245.738 334.354 238.839C334.354 238.839 331.989 216.119 343.087 215.291C343.087 215.291 351.728 214.463 356.276 223.753C356.276 223.753 360.46 243.622 370.921 228.905C375.196 222.558 397.118 172.794 440.235 187.419L461.065 191.467C466.887 194.134 475.074 203.425 480.076 216.762C480.076 216.762 488.172 209.404 479.258 196.986C468.706 182.084 453.788 179.6 454.334 167.734C446.602 167.918 445.147 172.058 432.139 157.524C432.139 157.524 426.408 150.625 424.498 161.111L424.68 163.411C425.863 163.319 408.125 151.913 372.558 160.192C372.558 160.192 349.545 164.331 339.903 160.192L338.356 169.022L328.532 175.461C328.532 175.461 322.802 173.805 323.802 167.366C323.802 167.366 319.618 178.589 319.618 178.129C319.618 178.129 321.346 180.98 311.977 180.428L310.431 183.464L313.706 188.615Z" fill="#965640"/>
<path d="M290.328 245.464C288.327 236.173 290.783 225.871 296.877 218.512C298.06 220.72 298.606 223.203 298.424 225.779C299.242 224.215 300.425 222.835 301.88 221.823C302.79 223.019 303.245 224.583 303.336 226.055C303.972 225.319 304.518 224.767 305.064 224.031C305.792 225.043 306.155 226.239 306.155 227.526C308.157 215.752 310.704 203.058 319.436 195.148C319.163 201.771 318.163 208.486 316.252 214.925C316.798 213.545 317.617 212.165 318.799 211.245C319.072 213.269 319.345 215.292 319.618 217.316C320.71 214.557 322.165 211.981 324.166 209.773C324.621 210.785 325.076 211.797 325.44 212.809C325.167 210.141 329.169 209.129 329.26 212.073C335.536 205.45 328.987 193.768 338.811 182.454C340.721 186.869 342.177 191.468 342.995 196.16C344.633 192.572 349.727 191.192 353.001 193.308C354.093 187.881 357.458 181.442 363.007 179.878C367.01 182.454 369.829 187.053 373.013 190.64C371.831 186.961 371.922 182.73 373.468 179.142C375.378 179.97 377.379 180.706 379.29 181.442C377.379 178.498 380.745 174.727 383.838 176.475C380.381 169.668 390.478 166.908 393.025 173.899C393.571 172.979 394.026 172.243 394.48 171.324C397.118 172.519 399.301 174.543 400.757 177.027C401.394 175.095 401.303 172.611 402.485 170.956C407.579 170.496 412.764 173.991 416.675 176.935C414.037 176.935 411.308 176.199 409.034 174.911C409.944 176.935 408.671 180.89 406.215 178.958C403.395 186.685 393.389 183.19 389.477 178.13C390.569 181.994 392.115 186.409 391.388 190.364C389.75 192.848 386.567 189.813 384.383 190.089C385.748 192.664 385.02 197.815 381.382 196.068C382.382 200.207 379.471 203.426 376.379 205.542C375.287 208.118 375.105 211.061 374.378 213.821C370.83 210.325 367.828 206.186 365.554 201.771C366.828 207.382 366.828 213.177 365.736 218.88C363.098 216.672 361.188 213.637 360.096 210.417C360.733 213.177 360.642 216.12 359.914 218.788C356.003 213.729 353.274 207.75 352.092 201.403C356.549 230.562 341.267 199.839 332.808 230.47C331.261 229.918 330.079 228.446 329.897 226.883C329.078 230.194 328.35 233.414 327.441 236.725C326.349 233.597 325.712 230.47 325.349 227.159C325.076 232.494 323.893 237.737 321.801 242.612C317.526 237.185 315.161 230.194 315.343 223.203C315.343 228.446 314.979 233.689 314.16 238.841C312.614 237.093 311.522 234.793 310.977 232.494C311.34 233.597 311.067 234.793 310.249 235.621C309.43 234.425 308.611 233.414 307.793 232.218C307.52 235.529 306.428 238.565 304.518 241.324C303.427 239.76 302.79 238.013 302.426 236.173C302.79 242.796 302.517 249.419 301.607 256.134C298.515 253.098 296.695 248.775 296.513 244.452C297.059 248.131 296.332 252.087 294.512 255.398C293.33 251.995 288.691 252.178 290.146 250.707L290.328 245.464Z" fill="#B28364"/>
<path d="M345.633 302.957C346.543 303.693 347.27 304.337 348.18 304.981C341.904 320.802 337.174 337.359 334.081 354.193L338.902 354.101L330.624 418.214C336.719 413.983 343.45 409.568 350.727 409.66C348.18 411.776 330.715 429.897 339.902 430.081C341.358 429.805 342.449 431.552 341.358 432.748C328.532 447.006 368.01 426.217 374.741 429.989L357.913 446.914C357.094 447.742 357.822 449.029 359.005 448.754L362.097 448.018C358.095 454.365 348.908 457.216 347.452 464.667C345.178 474.325 366.1 494.47 373.013 481.592C369.465 484.444 365.372 489.043 367.555 492.998L371.012 490.791C369.283 504.864 386.021 515.259 397.573 507.256C392.661 513.143 394.389 523.262 401.029 527.125C403.485 524.733 405.123 521.514 405.941 518.202C406.123 521.79 407.943 526.665 411.399 525.745C411.581 535.68 412.491 545.706 414.128 555.548C285.78 544.786 312.432 389.607 344.178 304.061L345.633 302.957Z" fill="#B76846"/>
<path d="M404.941 438.544C401.576 439.371 398.938 442.407 398.574 445.902C405.123 441.947 412.309 438.911 419.768 437.164C416.311 440.751 412.764 444.707 411.49 449.582C417.585 445.074 423.679 440.567 429.774 436.152C433.594 432.381 439.143 434.036 439.143 439.739C438.143 447.282 432.685 454.549 434.686 462.46C442.145 475.614 460.701 473.038 472.708 479.661C494.539 493.919 490.173 462.092 497.814 469.543C503.181 456.389 509.821 443.695 517.644 431.737C520.009 429.345 520.737 422.998 516.007 423.826C518.736 418.031 535.746 397.426 533.381 393.471C513.096 385.1 487.899 401.382 476.256 418.767C478.257 414.719 480.167 410.488 482.169 406.441C472.617 410.764 464.704 418.307 455.153 422.17C439.234 428.609 418.677 424.654 405.305 437.44L404.941 438.544Z" fill="#B76846"/>
<path d="M360.187 356.491C359.005 361.366 358.368 366.333 358.186 371.3C359.642 370.84 361.097 370.381 362.552 370.105C354.73 396.136 353.911 412.326 386.476 401.747C391.388 401.196 396.573 402.483 401.212 400.736C399.483 397.424 379.926 397.24 374.923 395.952C370.011 395.952 366.919 392.273 367.828 387.398C368.192 381.051 369.011 374.612 370.466 368.357C364.918 367.345 360.642 361.918 360.915 356.215L360.187 356.491Z" fill="#B76846"/>
<path d="M337.174 339.469C336.628 346.828 340.357 351.335 347.634 348.759C342.45 350.783 337.356 352.899 332.262 354.922C332.262 349.771 333.535 344.62 336.082 340.113L337.174 339.469Z" fill="#B76846"/>
<path d="M459.974 360.539C458.791 381.972 476.62 380.96 485.625 396.597C475.983 408.279 464.067 421.985 448.33 424.009C460.519 422.077 459.155 408.279 450.786 401.932C440.598 394.666 435.232 383.995 442.6 372.313C444.601 369.094 447.421 366.15 447.33 362.379C446.875 358.331 441.872 350.513 448.239 348.949C440.417 335.795 435.959 320.618 435.414 305.164C437.597 305.624 438.324 308.384 438.597 310.591C441.326 328.436 448.694 345.546 459.701 359.803L459.974 360.539Z" fill="#683A2E"/>
<path d="M493.63 392.274C539.202 355.296 570.13 386.755 562.216 439.095C563.58 425.113 558.213 397.333 540.112 398.897C544.842 379.856 506.91 381.788 497.268 389.423L493.63 392.274Z" fill="#683A2E"/>
<path d="M382.292 481.776C389.387 478.465 403.577 478.557 406.397 487.387C406.124 490.883 404.214 493.918 403.122 497.23C405.396 493.09 409.398 490.423 412.855 487.479C413.492 486.283 412.764 484.996 412.036 483.892C407.579 474.509 396.664 473.313 388.204 477.913L382.292 481.776Z" fill="#683A2E"/>
<path d="M411.673 457.125C420.951 457.309 428.41 464.576 436.688 468.715C448.877 474.786 463.431 474.694 475.62 480.673C479.986 483.433 493.994 489.228 485.171 494.931C483.079 495.943 480.532 495.759 478.167 495.391C466.341 494.011 454.516 492.631 442.782 491.252C446.694 491.252 450.696 489.964 453.88 487.664C450.059 485.18 445.511 483.985 441.054 484.077C443.419 484.353 444.874 480.949 443.874 478.834C440.781 473.682 433.413 475.338 428.774 472.762C422.043 469.267 419.314 459.701 412.037 457.677L411.673 457.125Z" fill="#683A2E"/>
<path d="M411.764 433.393C413.492 422.171 426.863 420.147 436.233 420.239C445.693 420.423 459.155 416.928 459.155 405.43C474.983 430.726 426.773 423.643 414.674 431.645L411.764 433.393Z" fill="#683A2E"/>
<path d="M371.103 368.909C386.84 370.381 402.485 373.233 417.767 377.28C422.77 377.832 425.499 382.983 422.77 387.398C418.586 393.377 410.308 395.217 403.395 395.861C401.394 396.045 398.119 398.253 398.665 400.276C406.215 399.08 414.128 398.345 421.678 399.172C423.861 399.448 429.683 402.116 430.138 400C430.502 398.712 433.594 393.101 433.14 389.238C432.685 385.375 430.229 382.983 428.319 379.58C426.408 376.268 423.316 372.129 421.405 368.817C405.76 368.449 391.57 367.713 376.015 367.438L371.103 368.909Z" fill="#683A2E"/>
<path d="M316.434 447.648C313.888 426.216 307.247 402.207 322.256 383.902C320.619 405.335 316.343 426.767 316.98 448.2L316.434 447.648Z" fill="#683A2E"/>
<path d="M336.082 354.01C335.718 355.482 335.536 357.046 335.354 358.518C340.085 355.666 345.178 353.274 350.454 351.435C349.818 347.939 349.636 344.352 348.908 340.948C345.906 339.937 348.635 346.56 348.089 347.939C344.542 350.239 339.994 351.435 336.082 352.998V354.01Z" fill="#683A2E"/>
<path d="M438.871 349.039C438.052 354.19 445.602 354.098 449.149 355.018C447.421 346.923 447.239 351.155 441.054 349.131L438.871 349.039Z" fill="#683A2E"/>
<path d="M294.512 232.219C294.33 233.414 294.967 244.912 296.877 241.693C298.969 238.106 298.333 218.237 295.058 231.851L294.512 232.219Z" fill="#D3A288"/>
<path d="M312.341 214.285C311.431 218.884 311.522 223.759 312.614 228.358C313.796 225.691 315.434 223.115 317.162 220.723C318.253 224.863 318.163 229.646 320.437 233.417C319.8 228.726 320.437 206.466 314.069 220.631C312.887 217.504 314.979 213.825 313.523 210.789C313.069 211.157 312.796 211.709 312.887 212.169L312.341 214.285Z" fill="#D3A288"/>
<path d="M331.353 219.8C330.898 217.869 331.353 215.845 332.535 214.189C333.081 214.649 333.536 215.109 333.991 215.385C334.627 208.486 335.264 201.495 338.084 195.148C340.995 198.46 341.177 203.427 342.814 207.382C342.723 205.083 343.451 202.691 344.724 200.852C346.816 203.979 347.271 208.21 345.907 211.614C345.27 210.97 344.724 210.418 344.178 209.866C345.361 212.81 340.722 213.545 340.085 210.786C340.54 214.833 338.903 219.157 335.992 221.824C335.173 220.628 334.536 219.433 333.9 218.237C333.718 219.433 332.535 226.423 331.626 221.824L331.353 219.8Z" fill="#D3A288"/>
<path d="M357.095 197.453C357.368 200.856 358.368 204.076 360.188 206.927C361.188 204.996 361.643 202.788 361.461 200.672C363.098 201.776 363.371 196.441 364.008 195.429C367.101 199.108 370.011 202.88 373.104 206.559C375.287 205.363 371.376 191.75 369.466 190.37C368.92 191.474 368.556 192.578 368.283 193.773C360.824 179.608 359.369 182.275 360.006 196.625C359.187 196.349 359.005 195.337 358.55 194.693C357.641 193.221 355.276 194.785 356.822 195.889L357.095 197.453Z" fill="#D3A288"/>
<path d="M384.657 183.924C385.567 185.028 386.658 185.856 387.932 186.316C387.568 182.82 381.291 174.266 383.202 183.004C380.382 181.717 382.656 186.592 383.474 187.42C384.748 187.604 384.202 185.856 384.202 185.12L384.657 183.924Z" fill="#D3A288"/>
<path d="M305.701 264.513C302.335 272.976 309.612 279.967 315.343 285.026C307.247 282.726 297.787 276.471 296.059 267.457C297.332 268.928 298.606 270.492 299.879 271.964C297.787 267.549 295.786 260.374 299.424 256.326C300.425 258.626 301.243 261.018 302.062 263.317C301.516 262.029 301.88 260.374 302.79 259.27C303.609 260.19 304.245 261.11 305.064 262.029C303.881 256.418 304.427 250.531 306.792 245.38C307.975 247.22 308.975 249.244 309.794 251.359C309.703 250.163 309.885 249.152 310.249 248.048C310.976 248.968 311.613 249.795 312.341 250.807C311.34 247.588 309.885 242.253 312.523 239.769C315.707 240.045 317.253 243.54 319.345 245.288C319.8 245.288 319.982 244.644 320.255 244.276C320.8 243.54 322.165 243.724 322.438 244.644C322.711 243.908 323.802 243.816 324.166 244.552C324.894 243.081 325.349 234.342 327.805 238.757C328.077 239.493 328.259 240.413 328.987 240.689C330.443 233.974 333.626 227.443 333.626 239.217C326.258 241.149 320.437 248.048 315.252 253.475C309.43 258.902 319.8 282.45 306.337 264.513H305.701V264.513Z" fill="#66392D"/>
<path d="M360.37 232.77C358.914 230.103 358.642 226.791 359.642 224.032C361.37 225.78 362.826 227.895 363.735 230.195C363.281 227.711 363.372 225.136 363.826 222.652C364.554 224.308 366.464 224.952 367.829 225.872C367.829 222.468 367.92 218.237 369.921 215.569C371.467 216.305 372.468 218.329 373.741 219.433C374.924 216.857 379.108 206.279 382.474 210.418C384.111 209.682 385.112 207.659 386.476 206.555C380.746 215.017 372.923 222.652 369.648 232.586C368.92 236.174 364.281 233.966 361.825 233.598L360.37 232.77Z" fill="#66392D"/>
<path d="M389.295 159.181C400.666 157.985 419.586 160.929 425.317 172.059C423.77 172.335 422.042 172.243 420.587 171.783C423.134 172.611 425.135 174.818 425.771 177.394C423.406 177.578 421.041 178.038 418.767 178.774C419.04 179.97 419.95 180.889 420.95 181.441C417.494 179.786 411.49 180.613 411.763 185.397C438.415 184.937 472.344 184.845 479.621 217.223C499.178 195.055 449.422 183.373 455.243 168.011C436.596 170.771 433.139 151.822 425.499 156.329C424.68 158.721 425.226 161.48 424.953 163.964C415.948 159.365 405.214 156.881 395.208 158.813L389.295 159.181Z" fill="#66392D"/>
<path d="M319.072 425.109C317.708 433.48 318.072 442.311 320.255 450.589C322.711 446.358 325.986 442.403 329.715 439.367C327.987 444.794 326.622 450.313 325.804 456.016C332.08 451.877 338.993 448.842 346.27 447.094C340.085 454.637 333.808 462.087 327.623 469.63C321.71 477.173 335.719 486.188 340.903 490.419C342.359 491.339 342.905 492.902 341.631 494.19C338.175 498.697 338.084 505.136 342.996 508.356C349.454 515.255 372.195 546.622 359.46 536.779C322.165 508.264 317.981 476.897 317.435 441.023L319.072 425.109Z" fill="#EF835E"/>
<path d="M493.266 432.283C481.259 423.36 469.161 445.161 457.972 448.196C444.419 451.14 443.054 460.338 455.334 466.409C472.89 468.065 490.446 490.601 489.263 454.543C489.991 447.368 495.904 439.733 493.266 432.283Z" fill="#EF835E"/>
<path d="M345.27 223.571C342.905 219.247 349.363 218.972 351.455 222.835C357.913 231.573 368.01 245.003 359.46 255.306C357.368 258.893 351 261.929 348.908 256.869C347.816 253.65 351.819 251.442 352.91 248.775C352.092 244.819 347.362 249.511 345.27 248.683C337.811 241.508 346.998 243.532 344.542 226.606L345.27 223.571Z" fill="#D3A288"/>
<path d="M353.911 248.316C352.547 252.731 344.906 258.986 340.085 254.111C333.081 245.924 331.352 233.046 334.991 222.744C338.447 210.694 350.909 213.454 355.548 222.468C351.182 217.869 342.632 211.522 337.902 220.261C333.717 228.539 334.172 239.853 337.993 247.856C341.995 258.25 348.635 255.031 353.911 248.316Z" fill="black"/>
<path d="M344.815 222.93C347.453 228.265 345.997 239.947 342.177 244.454C341.722 244.27 343.45 239.671 344.178 233.784C344.906 227.897 344.269 223.022 344.815 222.93Z" fill="black"/>
<path d="M352.819 234.614C352.637 235.074 350.818 234.89 348.635 234.798C338.083 234.154 351.091 231.303 352.819 234.614Z" fill="black"/>
<path d="M476.074 206.555C488.445 229.367 488.172 260.642 471.708 282.442C447.239 314.913 397.118 318.593 360.733 308.75C341.176 303.231 322.892 293.573 309.248 279.775C323.893 292.377 341.449 302.311 361.097 307.37C394.389 315.833 435.686 313.625 462.52 290.261C486.08 268.921 488.445 233.69 476.074 206.555Z" fill="black"/>
<path d="M476.165 206.646C472.163 203.058 468.342 196.895 463.612 193.584C460.701 191.652 457.154 191.192 453.606 190.548C447.148 189.444 441.053 188.433 434.231 187.237C409.58 180.89 397.482 194.504 383.11 212.257C379.926 215.844 377.015 219.248 374.741 222.835C372.103 226.147 372.012 230.378 369.375 233.505C366.009 236.633 360.46 234.333 358.368 230.93C356.64 228.262 356.185 223.663 355.821 221.179C355.639 220.076 355.548 219.616 355.639 219.616C357.186 224.215 357.458 232.953 364.19 233.781C370.83 234.977 370.011 225.871 373.377 222.099C378.653 214.28 384.747 207.106 391.479 199.839C398.847 191.928 408.67 185.029 419.313 184.201C424.407 183.649 429.501 185.029 434.322 185.765C442.963 187.421 450.968 188.525 459.155 190.548C467.069 192.48 471.708 201.035 476.165 206.646Z" fill="black"/>
<path d="M313.614 284.742C288.782 276.371 286.235 243.165 290.874 220.444C293.603 207.291 302.153 195.424 313.342 187.882C312.159 186.502 310.795 185.122 309.612 183.742C310.886 182.731 311.613 181.719 311.613 180.063C314.069 179.879 316.525 179.787 318.981 179.603C320.164 174.176 322.438 169.117 324.894 164.241C324.985 167.829 324.257 175.464 329.442 175.004C332.808 173.9 334.081 169.393 337.72 168.749C338.265 165.713 338.811 162.77 339.357 159.642C339.539 159.55 341.358 160.102 341.631 160.102C368.829 166.173 398.392 148.236 423.952 162.954C422.77 158.262 427.955 152.559 432.139 156.791C436.869 162.31 442.236 167.737 449.695 168.381C451.241 168.289 452.788 167.645 454.334 167.461C454.516 167.461 454.698 167.369 454.789 167.553C456.426 168.841 454.425 171.048 455.334 172.612C463.339 183.742 480.622 191.561 483.442 205.727C483.988 209.682 483.26 213.73 480.895 216.673C482.714 213.362 483.533 209.682 482.805 205.819C480.622 195.332 470.434 189.445 463.157 182.271C459.883 178.591 452.242 175.28 454.152 169.117C454.243 168.381 452.969 169.117 452.606 169.117C451.696 169.301 450.786 169.577 449.877 169.669C443.054 169.117 437.142 164.977 432.867 159.642C430.775 156.699 427.5 155.319 425.772 159.182C424.953 161.298 425.681 163.782 425.953 165.989C400.029 148.512 369.011 168.381 340.812 161.574C340.267 164.425 339.721 167.277 339.266 170.037C335.264 170.221 333.99 175.004 330.534 176.292C326.076 177.763 324.257 174.084 323.347 171.048C321.983 174.268 320.891 177.671 320.164 181.167C317.708 181.259 315.343 181.443 312.887 181.535C312.705 182.363 312.25 183.098 311.704 183.834C312.978 185.306 314.342 186.778 315.616 188.158C299.151 197.908 290.146 216.857 290.419 235.898C288.691 255.307 295.149 277.199 313.614 284.742Z" fill="black"/>
<path d="M310.886 279.867C307.247 278.58 304.427 274.44 303.972 269.841C303.609 267.173 305.155 264.138 303.972 261.654L305.337 260.918C307.065 264.046 309.612 267.725 312.068 270.393C312.887 269.749 311.795 268.645 311.795 267.725C311.613 265.978 312.978 265.058 312.25 263.494C309.248 252.64 322.984 243.625 330.806 239.946C332.535 239.118 333.626 238.75 333.626 238.842C328.35 242.245 319.891 247.029 316.07 253.376C310.886 260.734 315.525 261.654 313.614 267.173C313.887 268.737 314.888 271.313 312.523 272.049C309.794 272.6 305.246 263.678 303.972 261.654L305.337 260.918C306.519 263.494 305.337 266.162 305.155 268.737C304.882 273.612 307.884 277.384 310.886 279.867Z" fill="black"/>
<path d="M461.247 215.387C455.244 212.627 446.784 216.031 440.417 217.226C437.233 218.054 433.504 219.618 430.866 218.422C436.96 217.134 456.608 208.58 461.247 215.387Z" fill="black"/>
<path d="M451.332 233.05C455.062 253.747 443.418 251.079 441.144 232.498C445.601 232.866 450.423 233.142 454.88 233.05C454.88 231.854 454.88 230.382 454.88 229.187C450.877 228.819 446.42 229.37 442.509 230.29C439.598 231.118 434.868 232.406 432.867 229.922C435.505 231.21 439.234 230.198 442.236 229.095C446.238 227.899 450.695 227.347 455.062 227.531C457.7 227.715 456.426 232.682 456.699 234.614C456.699 234.89 456.699 234.798 456.426 234.798C452.151 234.982 447.603 234.89 443.327 234.522C447.148 251.999 451.787 248.227 451.332 233.05Z" fill="black"/>
<path d="M466.705 253.842C470.071 254.486 475.892 255.497 479.531 253.75C479.167 245.379 474.801 236.824 472.618 229.282C469.707 220.635 470.344 220.451 473.8 228.822C475.437 234.065 483.806 250.53 480.259 255.222C476.256 256.693 469.616 256.233 466.705 253.842Z" fill="black"/>
<path d="M485.807 222.558C485.443 222.926 483.169 220.81 480.077 218.878C476.984 216.855 474.255 215.567 474.437 215.107C477.984 214.555 485.079 219.246 485.807 222.558Z" fill="black"/>
<path d="M476.802 237.189C477.893 236.637 481.168 237.373 482.623 237.557C482.896 236.545 482.805 235.073 482.714 233.97C480.986 233.786 477.439 235.257 476.165 235.165C476.802 233.878 483.26 230.658 484.261 233.418C484.716 235.533 484.988 240.225 481.623 239.029C480.44 238.661 477.348 238.017 476.802 237.189Z" fill="black"/>
<path d="M481.441 237.371C484.624 240.039 479.531 255.124 480.713 242.43C480.986 239.671 480.986 237.463 481.441 237.371Z" fill="black"/>
<path d="M469.07 272.234C459.792 272.142 443.783 270.395 438.416 260.828C450.332 270.487 456.7 267.911 469.07 272.234Z" fill="black"/>
<path d="M463.703 271.125C464.158 273.333 463.976 278.944 460.155 277.104C453.151 275.357 445.692 270.573 441.235 264.962C437.233 259.351 437.688 258.983 442.145 264.134C447.239 269.378 454.607 274.069 461.702 276C463.248 275.724 462.793 271.861 463.703 271.125Z" fill="black"/>
<path d="M448.422 234.24C449.332 240.679 452.424 243.99 451.787 234.7C451.424 233.412 449.513 235.252 448.695 234.424L448.422 234.24Z" fill="black"/>
<path d="M443.782 265.055C446.511 269.47 453.515 278.301 460.246 279.864C461.793 277.933 463.157 273.241 463.976 271.586C464.431 273.701 462.884 279.312 460.883 281.244C454.425 281.98 443.964 270.298 443.782 265.055Z" fill="black"/>
<path d="M352.274 348.579C347.999 339.381 351.91 316.385 355.458 307.922C356.003 308.014 354.002 317.028 352.82 328.251C351.728 335.241 351.728 343.98 352.274 348.579Z" fill="#442F1F"/>
<path d="M420.678 347.48C410.217 346.836 398.21 342.881 386.658 343.893C374.924 343.985 360.097 347.48 352.547 347.848C359.551 345.272 376.925 342.237 386.658 342.053C398.028 341.593 410.49 344.445 420.678 347.48Z" fill="#442F1F"/>
<path d="M433.685 348.301C432.503 349.589 422.315 310.127 424.043 310.679C424.498 309.575 434.595 349.037 433.685 348.301Z" fill="#442F1F"/>
<path d="M432.867 347.944C433.049 349.14 421.133 348.68 421.405 347.484C421.224 346.472 433.231 346.84 432.867 347.944Z" fill="#442F1F"/>
<path d="M557.668 423.925C553.665 405.896 542.204 402.861 529.378 416.29C519.827 426.133 515.006 437.631 507.729 451.705C503.454 460.443 499.088 470.286 496.45 480.128C494.994 487.487 491.629 496.501 482.896 496.869C461.884 496.501 438.779 484.543 422.042 504.78C410.217 519.406 411.581 539.551 415.311 557.028C406.124 557.212 396.845 555.832 388.022 552.98C363.189 544.61 337.265 522.533 326.44 498.341C306.519 452.441 321.073 369.102 336.992 324.397C339.721 317.038 342.632 310.14 345.724 303.977C334.991 329.089 327.623 354.2 323.257 383.544C317.89 427.329 309.248 484.083 342.541 519.958C360.733 539.827 385.566 555.648 413.219 555.372C407.397 530.352 412.036 496.226 442.145 491.902C447.876 491.074 453.879 491.534 459.519 492.27C471.253 493.466 489.9 501.837 493.812 485.095C497.359 470.102 504.181 456.028 511.095 442.874C516.189 433.032 521.373 423.189 528.923 415.647C541.476 402.217 554.757 405.068 557.668 423.925Z" fill="#442F1F"/>
<path d="M477.075 407.546C484.261 394.944 500.453 385.929 513.278 378.755C541.75 364.037 564.399 389.977 564.217 418.216C564.308 436.061 562.671 457.77 547.571 468.532C563.672 454.918 565.491 421.804 559.942 402.027C551.665 376.823 529.379 369.648 507.548 383.63C497.087 389.701 483.443 398.439 477.075 407.546Z" fill="#442F1F"/>
<path d="M459.609 360.629C462.702 386.477 475.437 376.174 485.625 396.963C486.716 399.263 486.443 399.447 484.988 397.331C481.35 391.536 475.71 385.833 469.251 382.245C461.52 378.658 458.154 367.988 459.609 360.629Z" fill="#442F1F"/>
<path d="M436.96 306.816C439.143 312.795 443.054 327.237 446.602 334.596C449.422 342.323 456.881 355.201 459.519 360.996C449.149 348.578 438.506 323.006 436.96 306.816Z" fill="#442F1F"/>
<path d="M362.735 354.466C380.564 350.878 402.213 350.234 422.407 351.614C425.863 351.89 426.136 360.905 427.591 364.032C428.046 365.504 428.501 367.16 428.774 368.723C421.77 371.207 414.22 369.275 407.125 368.815C390.206 367.528 373.287 368.815 358.005 371.943C358.278 366.424 358.733 360.169 359.915 355.57C360.006 357.317 359.005 366.7 359.096 370.655C373.832 367.252 390.751 365.872 407.216 367.068C413.583 367.436 420.223 369.091 426.591 367.436C425.59 363.848 424.681 360.169 423.68 356.581C423.134 355.11 423.407 352.994 421.133 353.178C401.576 351.522 380.473 352.902 362.735 354.466Z" fill="#442F1F"/>
<path d="M421.951 369.461C425.044 373.324 428.956 379.855 433.231 386.386C434.05 387.582 434.868 389.146 434.777 390.71C434.595 394.389 430.957 396.964 431.048 400.736C416.039 401.104 398.392 400 382.747 403.403C351.455 412.602 355.549 390.25 363.371 370.013C363.462 370.105 362.917 371.853 362.007 375.348C357.004 395.033 355.822 409.75 382.383 401.748C397.664 398.436 415.038 398.988 429.683 399.356C430.138 396.045 433.322 393.469 433.504 390.434C433.504 389.238 432.867 388.134 432.23 387.03C428.228 380.223 424.044 373.876 421.951 369.461Z" fill="#442F1F"/>
<path d="M383.565 480.212C385.202 478.649 387.84 476.441 389.842 473.129L390.387 473.681C386.294 476.717 380.836 477.453 376.288 480.12C369.102 485.271 362.553 492.262 355.458 498.241C355.458 498.241 355.276 498.333 355.367 498.333L355.458 498.425C357.186 500.357 358.641 502.657 359.642 505.048C367.374 492.63 377.653 480.58 392.116 476.257C403.941 472.394 408.398 476.441 414.947 486.007C415.129 486.283 415.675 487.203 415.857 487.295C415.948 487.387 415.766 487.387 415.766 487.479L415.22 487.847C406.488 494.194 399.302 504.22 396.027 514.247C395.117 517.006 394.481 520.226 391.57 521.698C378.653 528.137 366.737 513.327 363.371 502.657C362.826 501.369 362.553 500.541 362.644 500.541C363.826 502.289 364.827 505.232 366.555 508.176C368.647 512.039 372.559 517.466 377.289 519.766C383.747 523.353 393.571 522.801 394.572 513.787C397.755 503.76 404.759 493.55 413.492 487.019C407.215 478.097 403.668 474.233 392.479 478.005C377.38 482.512 367.101 495.758 359.096 508.636C357.914 504.864 356.003 501.185 353.274 498.333C353.184 498.149 353.002 498.149 353.274 497.965C360.915 491.71 367.829 484.352 375.56 479.016C380.836 476.165 386.749 475.521 391.388 471.934C389.478 475.337 385.93 479.108 383.565 480.212Z" fill="#442F1F"/>
<path d="M491.447 393.101C486.353 390.341 502.09 376.635 506.183 375.531C506.82 375.163 507.457 374.887 508.093 374.52L508.002 374.979C507.093 378.751 503.181 389.973 505.455 379.027C505.455 378.751 505.91 377.463 505.637 377.647C501.908 379.947 489.901 389.237 491.447 393.101Z" fill="#442F1F"/>
<path d="M525.103 376.641C524.921 377.193 520.919 375.905 515.734 375.997C510.64 376.089 506.637 377.377 506.456 377.009C510.458 373.421 521.01 373.237 525.103 376.641Z" fill="#442F1F"/>
<path d="M415.766 447.561C420.405 441.49 435.05 430.911 443.874 426.588C453.425 421.529 464.431 417.849 472.345 411.686C474.983 409.571 475.347 409.755 472.8 412.238C465.523 419.229 454.243 423.093 444.692 428.152C435.778 432.291 421.588 443.145 415.766 447.561Z" fill="#442F1F"/>
<path d="M402.122 441.118C412.127 427.412 437.233 426.86 451.605 423.641C436.596 430.264 416.585 428.332 402.122 441.118Z" fill="#442F1F"/>
<path d="M548.389 398.988C537.383 396.781 527.65 406.715 522.465 416.282C515.825 426.86 507.82 441.761 503.817 450.224C499.906 458.135 496.359 466.045 499.178 458.227C504.181 445.257 512.095 429.619 521.1 415.454C526.012 406.071 537.747 394.481 548.389 398.988Z" fill="#442F1F"/>
<path d="M448.967 484.165C440.417 485.177 427.045 485.453 419.586 492.536C408.944 502.93 405.851 519.855 406.215 533.929C406.488 539.724 407.579 542.759 408.398 546.991C407.852 546.163 407.397 545.151 407.034 543.679C402.213 528.134 405.487 507.989 415.402 494.559C423.134 484.809 438.052 483.153 448.967 484.165Z" fill="#442F1F"/>
<path d="M317.981 462.184C313.342 450.226 314.433 434.589 313.251 420.699C311.977 400.738 311.705 400.922 321.438 383.905C323.53 380.133 323.803 380.317 322.074 384.273C313.251 402.486 313.524 399.91 314.979 420.607C315.525 432.289 316.071 453.538 317.981 462.184Z" fill="#442F1F"/>
<path d="M347.725 347.57C347.453 347.57 346.998 344.627 346.452 339.843C346.361 339.475 346.452 338.648 346.088 338.556C343.268 339.107 340.085 339.475 337.174 340.303C334.9 343.983 333.99 348.95 333.262 353.365C336.628 352.261 347.362 348.398 348.453 348.674C346.634 350.054 335.264 354.285 331.261 355.757C331.807 351.709 332.899 339.107 337.629 338.372C340.63 337.82 343.45 337.268 346.27 337.176C347.18 337.268 347.453 338.188 347.453 338.832C347.816 342.787 348.089 347.938 347.725 347.57Z" fill="#442F1F"/>
<path d="M432.685 334.506C434.686 333.954 439.507 334.414 442.054 334.414C444.055 339.841 446.42 345.176 448.967 350.327C450.058 351.431 444.146 351.155 443.418 351.063C440.507 350.419 436.141 349.96 435.413 346.556C435.141 343.797 432.867 335.702 433.23 335.886C433.776 335.518 436.596 344.348 437.051 347.016C439.507 349.132 443.236 349.5 446.42 349.408C444.328 344.992 442.418 340.393 440.871 335.794C438.87 335.334 434.322 335.15 432.685 334.506Z" fill="#442F1F"/>
<path d="M288.509 393.839C287.053 380.133 290.328 361.92 295.24 347.938C300.607 326.322 321.164 309.396 340.721 304.521C346.543 303.233 346.634 303.417 340.903 305.165C322.074 311.052 302.153 327.241 296.877 348.398C291.692 362.288 289.145 380.225 288.509 393.839Z" fill="black"/>
<path d="M301.607 449.859C272.863 456.39 265.586 410.766 285.507 396.232C293.785 389.425 308.884 390.345 314.979 398.899C307.975 392.093 294.603 390.621 286.417 397.52C267.769 412.237 274.228 453.171 301.607 449.859Z" fill="black"/>
<path d="M306.792 447.189C308.157 447.925 307.429 450.224 305.973 450.776C299.697 453.812 290.328 445.073 289.236 439.738C289.327 438.634 290.783 441.762 291.51 442.314C294.33 445.165 300.425 451.42 305.428 449.764C306.792 449.212 306.792 447.925 306.792 447.189Z" fill="black"/>
<path d="M301.971 429.984C306.246 432.468 311.795 438.263 311.795 444.058C310.067 451.785 300.789 444.426 298.697 440.839C294.785 434.952 295.149 434.308 299.697 440.011C301.334 442.494 310.977 450.037 310.067 442.218C308.975 437.527 304.336 433.388 301.971 429.984Z" fill="black"/>
<path d="M303.972 422.266C305.974 422.266 308.975 424.289 310.886 425.393C314.524 428.613 315.525 435.971 308.521 433.764C305.064 432.844 300.334 430.36 307.156 432.016C308.612 432.2 310.704 433.028 312.068 432.108C312.432 430.544 311.068 427.693 309.976 426.681C308.066 425.209 305.246 423.737 303.972 422.266Z" fill="black"/>
<path d="M462.339 340.301C464.977 345.176 464.431 356.306 458.7 359.25C462.612 352.719 461.884 347.108 462.339 340.301Z" fill="black"/>
<path d="M534.836 521.419C538.383 504.125 544.751 471.839 548.298 450.774C550.572 437.896 552.392 427.962 551.755 416.187C551.118 410.024 551.482 409.473 552.483 416.096C553.665 427.778 551.937 438.08 549.845 450.866C546.479 471.839 540.021 504.217 536.018 521.51C532.653 534.94 532.289 532.457 534.836 521.419Z" fill="black"/>
<path d="M498.724 529.696C495.267 521.141 491.993 501.456 492.993 492.258C494.176 496.305 494.722 504.584 495.995 510.931C496.814 517.37 498.815 525.556 498.724 529.696Z" fill="black"/>
<path d="M521.101 553.25C500.544 534.945 481.168 506.889 455.153 495.115C450.787 493.275 450.878 492.999 455.426 494.471C473.71 501.186 489.173 517.743 502.363 532.093C508.912 539.452 516.189 546.719 521.101 553.25Z" fill="black"/>
<path d="M538.839 587.376C532.653 589.215 525.103 588.295 518.645 585.168C514.006 582.408 509.185 580.569 503.727 580.017C474.255 573.946 433.686 569.346 416.13 541.567C413.947 537.612 412.037 533.196 416.767 541.199C435.414 567.875 474.619 571.922 504 578.453C518.554 580.477 521.465 589.399 538.839 587.376Z" fill="black"/>
<path d="M550.845 530.433C554.484 519.303 572.313 528.686 562.943 546.531C555.03 558.489 560.033 576.518 547.844 585.073C546.024 586.268 543.204 587.28 541.112 586.636C544.842 585.9 547.48 584.981 550.663 580.749C556.485 572.931 554.575 562.26 558.031 553.246C560.578 546.439 565.945 539.54 563.58 532.273C561.943 526.294 553.574 524.546 550.845 530.433Z" fill="black"/>
<path d="M545.751 545.799C548.389 538.44 539.748 535.496 536.382 542.671C533.744 548.558 526.74 550.214 522.101 553.618C519.372 555.549 517.735 559.781 516.825 562.172C516.461 560.424 517.28 557.757 518.736 555.365C521.646 550.306 528.014 549.202 532.107 545.339C534.29 543.223 535.382 539.912 537.929 538.072C543.114 534.025 550.3 541.475 545.751 545.799Z" fill="black"/>
<path d="M554.12 540.555C559.305 533.104 549.299 528.689 544.205 534.3C542.75 535.772 542.659 537.336 542.386 537.244C541.84 536.324 542.386 534.76 543.295 533.564C546.388 528.689 556.394 528.689 556.94 535.68C557.122 537.612 555.939 540.463 554.12 540.555Z" fill="black"/>
<path d="M492.993 493C492.265 499.163 483.715 507.626 477.62 508.086C479.257 506.43 484.169 503.854 486.171 501.463C488.536 499.531 491.355 494.748 492.993 493Z" fill="black"/>
<path d="M589.817 303.132C587.869 302.914 585.115 303.201 583.88 301.464C588.21 296.964 594.344 294.894 599.943 292.594C601.308 292.406 601.383 290.969 602.588 290.542C613.588 286.941 624.618 282.764 635.676 279.714C637.991 282.286 639.668 287.678 634.92 288.611C619.789 294.013 604.561 299.064 589.149 303.788L589.817 303.132Z" fill="#4F79A3"/>
<path d="M632.529 279.263C637.764 275.646 645.811 272.293 651.794 275.836C647.088 277.607 642.494 279.441 637.764 281.124C636.811 280.064 635.643 279.253 634.196 278.803L632.529 279.263Z" fill="#FFD39F"/>
<path d="M634.455 279.396C638.779 278.297 643.216 277.262 647.05 275.071C645.304 273.192 633.731 277.801 633.066 279.496L634.455 279.396Z" fill="white"/>
<path d="M637.937 282.779C643.388 281.653 648.668 279.912 653.779 277.558C648.886 272.486 642.407 279.468 636.996 280.394C638.034 280.391 638.891 281.099 639.069 282.089L637.937 282.779Z" fill="#FF9100"/>
<path d="M637.743 282.072C642.785 280.492 647.82 276.836 653.18 277.435C655.897 283.863 642.543 287.83 637.649 288.236C637.861 286.95 638.073 285.664 638.109 284.426L637.743 282.072Z" fill="#C47400"/>
<path d="M649.807 274.114C656.658 260.608 664.941 269.75 672.467 263.14C672.395 265.616 671.085 268.055 668.996 269.386C673.614 267.64 676.889 273.347 675.751 277.439C674.768 276.955 673.681 276.782 672.628 277.073C673.415 278.556 674.58 281.067 672.907 282.19C670.365 281.192 667.947 278.931 665.178 279.506C661.062 281.019 657.077 283.347 652.453 283.017C653.5 280.65 653.251 277.697 651.871 275.433L649.807 274.114Z" fill="#303030"/>
<path d="M600.225 293.275C612.438 289.622 624.837 286.296 636.745 281.877C636.826 279.777 633.849 279.938 632.493 280.501C622.056 282.719 612.538 288.272 602.101 290.491L600.225 293.275Z" fill="#7CB1DD"/>
<path d="M584.225 302.03C602.119 296.716 619.889 289.925 637.801 285.361C639.093 290.387 614.272 294.213 609.872 296.749C601.577 299.887 592.922 302.747 584.047 303.779L584.225 302.03Z" fill="#364C5B"/>
<path d="M601.51 290.743C610.473 286.948 622.547 282.106 633.342 279.128C638.728 278.114 641.21 285.74 637.043 288.778C630.712 291.847 623.259 293.242 616.734 295.609C607.042 298.472 596.88 302.031 588.549 303.669C596.308 300.3 606.663 297.443 616.235 294.141C620.054 292.238 635.473 289.589 637.131 286.015C638.017 283.41 636.532 280.42 633.451 280.892C622.799 283.359 610.87 288.728 601.51 290.743Z" fill="black"/>
<path d="M631.763 279.565C635.679 275.274 643.837 271.984 650.341 273.306C654.335 274.093 656.705 278.917 653.824 282.167C650.904 285.617 646.38 286.676 642.391 287.965C635.737 289.518 630.843 289.924 642.076 286.824C645.49 285.505 649.878 284.294 652.432 281.229C655.812 276.708 649.36 273.86 645.514 274.638C640.972 274.947 635.343 277.822 631.763 279.565Z" fill="black"/>
<path d="M650.063 273.671C650.112 271.108 653.758 267.552 656.606 266.578C659.659 264.98 663.79 265.918 666.988 264.847C668.735 263.987 670.284 261.388 672.46 262.771C674.82 264.48 671.809 266.916 670.856 268.596C672.956 268.678 674.796 269.87 676.27 271.447L675.178 271.937C676.803 273.377 678.331 277.205 675.187 277.789C675.187 277.789 675.187 277.789 675.099 277.814C676.255 279.95 674.745 285.089 671.77 283.548C668.974 280.259 664.017 280.777 660.54 282.208C658.331 283.101 654.231 284.327 652.478 283.11C657.925 283.685 663.578 278.159 669.461 280.313C670.772 280.613 671.837 281.736 672.869 282.395C675.09 280.177 673.398 277.811 671.564 275.956C672.602 275.953 674.721 276.785 675.341 275.953C675.066 274.612 674.04 273.29 673.047 272.43C673.292 271.607 673.761 270.911 674.527 270.605L674.252 272.003C672.121 269.758 669.512 270.572 666.88 271.298C667.252 270.251 673.955 263.397 670.795 264.269C663.85 270.245 656.515 262.825 650.063 273.671Z" fill="black"/>
<path d="M312.887 421.894C312.614 423.642 307.884 425.113 306.793 423.734C306.611 422.998 312.614 421.066 312.887 421.894Z" fill="black"/>
</g>
</g>
<defs>
<clipPath id="clip0_950_100143">
<rect width="1040" height="678" fill="white"/>
</clipPath>
<clipPath id="clip1_950_100143">
<rect width="412.061" height="433.25" fill="white" transform="translate(274.228 155.133)"/>
</clipPath>
</defs>
</svg>
