<svg width="1000" height="651" viewBox="0 0 1000 651" fill="none" xmlns="http://www.w3.org/2000/svg">
<g clip-path="url(#clip0_950_84962)">
<path d="M1084 733.767H-6.19531V23.7741C102.892 14.2145 118.67 104.385 258.889 120.317C296.722 126.432 353.301 131.599 362.717 176.555C363.65 184.22 362.123 192.488 366.365 199.378C378.495 214.363 381.04 215.999 376.629 235.721C373.914 261.127 398.429 283.175 415.31 301.863C434.141 322.102 453.567 341.307 477.148 356.465C539.072 396.512 634.587 403.143 673.014 461.534C677.255 467.993 680.988 475.314 688.368 479.189C694.136 482.289 701.261 482.806 708.047 483.495C793.383 491.418 856.41 546.967 885.59 614.66C952.943 638.343 1056.94 660.304 1084 733.767Z" fill="#44676B"/>
<path d="M-23.4153 211.27C-4.66856 231.853 24.1726 238.743 51.2324 244.685C98.6506 255.02 146.154 265.354 193.572 275.689C216.56 280.684 243.196 288.693 251.339 311.171C253.799 317.975 254.308 325.64 258.295 331.582C268.22 346.137 292.48 341.831 304.356 354.835C310.718 361.811 312.33 372.577 319.71 378.433C324.545 382.222 330.907 383.084 336.929 384.375C352.198 387.734 366.449 394.71 380.87 400.997C445.169 429.159 514.133 444.575 582.588 459.732C588.781 461.11 594.973 462.488 601.25 463.866C623.814 468.861 646.293 473.856 668.857 478.593C713.052 487.894 761.234 498.401 789.396 534.142C793.468 539.309 797.031 544.993 801.866 549.472C810.603 557.74 822.479 561.615 831.725 569.366C840.971 577.117 846.57 592.102 838.426 600.973C831.81 608.207 818.746 608.121 814.675 617.078C810.433 626.379 820.358 636.455 830.198 638.781C840.038 641.106 850.811 639.642 859.887 644.034C869.049 648.426 873.799 663.412 864.977 668.407C907.815 667.459 950.822 671.421 992.811 680.206C1014.19 684.684 1040.4 697.258 1038.19 719.305C1035.82 742.816 1004.77 748.328 981.444 747.553C749.188 739.458 516.678 737.735 284.252 742.558C186.616 744.539 88.1321 747.639 -7.89198 729.984C-25.6208 726.711 -44.3676 722.147 -57.0916 709.143C-74.1418 691.746 -75.7535 664.617 -75.9232 640.159C-77.0259 502.277 -66.2529 364.223 -43.9434 228.236" fill="#008965"/>
<path d="M-28.675 222.793C-13.1517 230.802 4.91648 231.319 22.2212 233.989C66.8401 240.879 107.472 263.27 147.086 285.232C158.962 291.777 170.838 298.408 181.781 306.332C153.618 311.671 124.522 312.274 96.1902 308.226C81.5152 306.159 65.3132 303.059 52.674 310.982C57.0002 316.58 61.4112 322.178 65.7374 327.862C63.1926 329.843 59.8843 330.532 56.7457 331.135C25.6142 336.905 -6.95929 334.321 -36.8184 323.642" fill="#24D36F"/>
<path d="M507.431 444.57C542.974 453.01 578.516 461.364 614.059 469.804C623.305 471.957 633.824 475.316 637.132 484.359C627.292 487.373 617.367 490.129 607.358 492.54C608.969 495.038 610.581 497.622 612.193 500.119C569.694 503.65 526.857 502.531 484.613 496.847C486.988 492.54 489.363 488.234 491.739 483.928C484.104 478.847 477.742 471.871 473.331 463.776" fill="#24D36F"/>
<path d="M299.86 438.107C274.921 436.213 249.558 441.897 227.672 454.126C236.325 460.499 245.995 465.408 256.174 468.681C238.445 490.986 199.595 485.388 182.799 508.469C198.492 510.795 214.185 513.12 229.878 515.445C237.936 516.651 247.607 519.062 250.236 526.899C211.47 536.287 171.856 541.799 132.072 543.349C101.704 544.555 70.4881 543.263 42.3256 531.55C50.469 525.177 58.5275 518.804 66.6709 512.517C64.0413 511.742 61.4116 510.881 58.8668 510.106C62.5992 506.661 66.4164 503.302 70.1488 499.857C48.1786 496.584 25.6147 497.79 4.15347 503.388C17.3016 498.651 32.5705 500.718 44.0221 508.814C20.9492 521.904 -2.20855 534.995 -25.2815 548.086C-29.947 550.755 -35.3759 555.234 -33.5945 560.315C-32.4069 563.76 -28.5049 565.31 -25.027 566.257C13.9086 577.453 54.7951 579.606 95.1727 581.673C132.836 583.654 170.499 585.549 208.162 587.53C225.891 588.477 243.535 589.338 261.264 589.597C276.024 589.855 290.784 589.597 305.543 588.477C388.674 582.19 468.072 548.344 551.287 543.263C576.396 541.713 603.201 542.401 624.493 528.708C626.953 527.158 629.413 525.177 630.261 522.335C632.212 515.704 624.577 510.622 618.215 508.211C596.415 500.029 573.851 493.57 551.033 489.006C536.866 486.164 522.191 483.924 510.146 475.829C458.826 453.695 403.519 440.949 347.702 438.538" fill="#273D30"/>
<path d="M-30.2865 622.073C-1.69978 643.432 36.0482 646.618 71.5059 647.565C167.7 650.063 264.148 641.451 358.39 621.987C371.793 619.231 385.365 616.131 397.665 609.93C406.487 605.452 414.546 599.337 423.538 595.203C436.771 589.088 451.7 587.538 466.206 588.399C518.374 591.5 563.841 624.485 613.974 639.47C656.896 652.302 705.672 652.905 740.196 681.842C753.26 692.78 763.524 707.248 778.199 715.688C791.262 723.095 806.446 725.076 821.036 728.607C848.266 735.324 874.053 748.243 895.939 766.07C581.061 755.649 265.42 781.83 -49.0332 761.419C-40.5505 733.946 -40.2112 703.976 -48.0153 676.244" fill="#273D30"/>
<path d="M288.324 550.589C329.38 559.804 410.39 587.277 452.295 590.808C461.965 591.67 472.229 592.186 480.712 587.363C481.899 586.674 483.087 585.813 483.681 584.608C485.547 580.474 479.863 577.201 475.537 576.254C463.831 573.756 452.04 571.431 440.164 569.364C417.176 565.316 364.753 524.752 342.613 532.073" fill="#273D30"/>
<path d="M422.011 552.572C484.613 566.61 470.532 564.887 534.406 570.313C549.081 571.605 579.025 580.217 591.919 572.897C593.7 571.863 603.031 567.385 603.88 565.49C606.679 559.203 609.054 556.533 602.438 555.155C584.539 551.366 554.341 535.261 536.357 532.075C501.409 525.874 465.357 504.429 431.596 515.625" fill="#273D30"/>
<g clip-path="url(#clip1_950_84962)">
<path d="M470.266 477.105C470.005 475.777 469.743 474.537 469.481 473.563C469.307 474.095 469.307 474.626 469.307 475.157C469.394 474.98 469.481 474.891 469.481 474.714L470.615 481.709C470.528 480.204 470.353 478.698 470.266 477.105ZM428.321 288.435C456.924 276.217 465.644 236.376 457.622 208.045C445.762 179.271 437.216 180.333 398.672 171.568C386.376 169.62 373.644 168.735 361.087 169.974C326.554 171.657 296.12 195.915 288.184 230.975C283.301 248.594 281.295 259.395 299.085 273.827C307.892 280.821 317.223 285.513 329.17 290.206C291.672 299.591 271.79 337.307 273.447 378.83C267.953 383.08 258.884 391.491 260.453 407.604C259.756 410.969 264.988 437.352 283.737 432.306C286.004 433.899 290.887 434.431 290.8 429.915C298.038 430.092 293.504 419.734 290.364 415.75C300.044 417.52 297.602 412.562 290.713 407.427C291.149 407.339 296.12 405.834 296.556 405.656C296.207 391.668 297.515 382.194 304.84 369.711C330.827 412.916 358.471 458.689 384.457 502.072C395.968 518.628 394.137 529.606 428.931 545.012C442.186 551.121 469.22 555.016 485.876 558.469C506.369 571.041 530.698 568.119 530.698 538.46C530.786 533.059 533.14 527.039 536.018 524.117C536.018 524.117 536.192 523.497 536.454 522.612C538.547 514.821 537.936 502.249 526.251 507.65C526.164 507.738 525.03 509.42 525.03 509.42C522.414 510.217 517.182 512.076 516.659 516.592L514.13 517.123L513.781 516.769C512.822 515.618 509.421 511.457 508.549 510.394C515.351 477.105 530.001 420.088 524.681 380.866C498.52 385.647 410.706 401.407 437.303 345.718C443.146 348.639 429.019 288.701 428.321 288.435ZM474.539 507.65L474.714 508.889C469.917 504.02 459.453 493.484 454.744 488.703C456.488 487.906 465.732 483.302 469.481 474.714C470.877 483.391 473.231 498.796 474.539 507.65Z" fill="#FFD3B6"/>
<path d="M572.296 319.073C558.256 316.062 531.397 319.869 531.397 319.869C531.397 319.869 499.045 322.703 490.15 327.306C490.15 327.306 488.929 326.244 486.836 324.473C477.941 316.859 468.174 361.924 480.208 362.809C485.964 359.888 491.807 361.127 498.085 361.835C499.393 361.747 506.98 361.216 508.463 360.861C520.758 356.435 535.234 350.326 545.524 341.118C547.879 340.056 551.367 338.55 553.721 337.577C553.896 346.165 556.338 346.961 559.128 338.639C570.029 340.852 573.517 335.452 561.134 331.202C560.087 329.077 562.355 328.546 565.756 327.661C568.197 327.129 571.773 326.598 577.092 326.333C577.092 326.333 577.703 326.067 578.226 325.624C580.406 324.385 582.935 321.286 572.296 319.073Z" fill="#FFD3B6"/>
<path d="M567.674 333.242C570.639 334.481 568.633 336.872 569.767 337.491C574.563 339.262 576.22 338.377 573.865 333.242C572.993 331.914 570.726 333.242 569.418 333.064L567.674 333.242Z" fill="#D3A288"/>
<path d="M490.324 327.574C478.813 321.82 476.546 343.422 519.537 328.902C526.862 327.574 537.85 318.986 543.431 319.606C532.443 319.429 505.236 323.767 490.324 327.574Z" fill="#D3A288"/>
<path d="M490.586 359.799C517.793 365.819 530.874 349.971 553.024 337.665C554.332 339.435 554.157 344.836 557.558 343.419C559.041 342.357 557.907 339.435 559.477 338.55C560.611 337.842 562.529 340.232 563.139 339.081C559.564 337.93 556.25 335.54 552.762 333.415C548.751 331.024 543.955 330.405 539.594 331.91C525.118 336.691 516.224 343.774 495.992 344.747C488.318 344.836 486.138 345.279 482.301 347.138C477.243 355.195 462.419 369.095 490.586 359.799Z" fill="#D3A288"/>
<path d="M559.302 338.898C560.436 345.715 553.721 348.725 553.198 339.783C553.111 336.861 553.721 336.773 554.331 339.606C556.686 347.397 557.122 342.085 559.302 338.898Z" fill="black"/>
<path d="M573.342 332.434C574.476 332.788 576.569 335.621 576.133 337.303C575.174 340.313 570.029 339.694 569.331 337.037C569.767 336.772 571.686 337.923 572.645 337.746C573.342 337.657 574.302 337.392 574.563 336.683C574.563 335.621 572.906 333.142 573.342 332.434Z" fill="black"/>
<path d="M548.489 338.812C553.809 334.828 560.262 339.963 566.017 339.167C568.285 338.547 569.331 335.182 566.453 334.386C564.273 333.766 557.471 331.907 561.483 328.896C566.628 327.037 572.034 325.798 577.528 325.709C579.185 325.709 580.057 323.23 578.662 322.168C577.179 320.928 575.261 320.308 573.168 320.043C564.273 318.626 555.466 317.741 546.309 319.246C527.386 321.282 508.288 321.548 490.847 328.277L490.499 328.365C490.411 328.454 490.411 328.365 490.324 328.277C488.319 326.506 483.522 321.017 490.76 326.595C508.114 319.866 527.299 319.512 546.048 317.475C551.803 316.767 557.646 316.236 563.401 316.856C568.895 318.184 575.087 317.121 579.796 320.928C582.063 322.965 580.58 327.037 577.528 327.126C573.517 327.126 569.418 327.923 565.407 328.985C556.338 331.198 566.802 331.464 568.895 334.209C569.854 335.36 569.68 337.219 568.895 338.37C565.93 342.885 557.471 338.635 553.198 338.193C546.309 340.229 542.908 344.656 538.025 347.312C530.613 351.916 518.491 358.644 514.567 359.176C513.782 359.441 528.956 352.801 548.489 338.812Z" fill="black"/>
<path d="M486.923 324.375C461.634 301.444 429.02 288.607 428.322 288.43C417.16 291.263 427.537 327.828 437.304 345.624C443.147 348.634 468.262 361.826 480.296 362.8C486.051 359.878 489.016 326.234 486.923 324.375Z" fill="#FFD3B6"/>
<path d="M444.368 309.147C480.383 326.057 473.233 332.609 491.982 333.671C499.307 332.343 505.324 323.755 490.412 327.562C481.866 319.063 449.426 293.653 431.375 290.466C430.852 289.492 430.154 288.784 429.282 288.164C421.608 317.912 444.368 309.147 444.368 309.147Z" fill="#D3A288"/>
<path d="M438.089 346.244C450.298 351.29 461.721 358.462 474.279 362.092C491.284 366.784 498.434 346.775 489.627 345.004C475.587 342.26 455.094 333.583 441.403 328.625C442.1 334.557 440.182 340.843 436.258 345.447L438.089 346.244Z" fill="#D3A288"/>
<path d="M490.847 328.366L490.498 328.454C490.411 328.543 490.411 328.454 490.324 328.366C488.318 326.595 486.225 324.736 484.132 322.965C472.447 313.049 439.571 289.233 426.055 289.41C424.049 289.676 422.566 290.561 424.049 289.676C428.932 287.639 434.339 290.207 439.135 292.42C457.186 300.742 475.238 312.96 490.76 326.683C508.986 319.601 502.096 325.621 490.847 328.366Z" fill="black"/>
<path d="M478.115 363.074C465.906 362.1 444.977 352.184 435.908 345.102C440.792 346.872 449.425 351.919 456.75 354.929C462.505 357.674 473.668 361.127 478.115 363.074Z" fill="black"/>
<path d="M431.373 290.475C430.85 289.502 430.152 288.793 429.28 288.174C461.982 271.44 468.609 229.917 453.436 198.841C451.605 194.06 442.971 185.915 438.437 183.613C428.931 178.832 417.246 181.577 407.392 177.504L405.822 179.54C414.979 184.321 424.31 189.191 431.548 196.628C434.949 200.081 437.914 204.153 441.663 207.163C444.018 209.023 446.634 210.616 448.552 212.918C450.645 215.486 451.692 218.673 452.564 221.86C453.61 227.261 459.889 240.718 457.883 244.791C454.569 249.572 448.029 244.171 443.756 246.031C435.385 250.369 445.675 263.915 438.96 269.315C435.821 269.581 432.681 268.519 430.414 266.394C422.042 288.616 404.602 291.715 385.417 300.746C385.504 300.834 385.678 301.011 385.766 301.1C371.202 302.87 354.895 298.621 337.629 294.991C355.942 330.936 421.083 348.643 444.367 309.245C419.077 307.74 431.373 290.475 431.373 290.475Z" fill="#D3A288"/>
<path d="M420.647 223.812C422.915 239.926 432.943 243.467 429.106 223.901C426.49 224.609 423.787 224.786 421.171 224.521L420.647 223.812Z" fill="white"/>
<path d="M454.221 228.32C455.354 231.508 455.616 234.96 457.273 237.882C458.145 235.049 458.843 232.127 458.93 229.117C457.796 228.32 455.878 228.852 454.57 228.055L454.221 228.32Z" fill="white"/>
<path d="M423.351 256.301C428.321 263.826 440.007 278.966 441.576 260.551C435.734 260.373 429.804 258.691 424.397 256.655L423.351 256.301Z" fill="white"/>
<path d="M537.762 521.731C541.076 508.982 532.356 501.81 532.705 512.435C532.966 514.383 532.181 517.304 530.263 516.95C531.484 510.044 520.932 511.815 523.025 522.351C521.978 523.856 520.845 521.642 520.409 520.846C519.101 519.163 516.136 520.226 515.264 522.174C514.392 524.121 514.915 526.423 515.176 528.637C516.136 536.074 513.781 543.865 509.072 549.62C504.799 553.604 498.433 562.103 506.456 565.556C507.764 565.91 513.607 565.202 514.915 564.848C518.665 563.52 518.926 564.582 522.327 562.192C524.159 560.952 525.815 559.27 526.6 557.145C526.862 556.26 528.78 552.276 529.042 551.39C531.571 541.386 532.705 532.178 535.669 525.981L537.762 521.731Z" fill="#D3A288"/>
<path d="M405.648 480.647C435.211 474.981 469.482 515.619 494.422 529.961C475.237 512.254 437.391 457.185 407.654 478.434L405.648 480.647Z" fill="#D3A288"/>
<path d="M289.579 377.68C293.765 377.326 296.119 372.722 297.689 368.827C303.096 355.546 308.415 342.177 313.822 328.809C310.944 342.177 309.113 355.812 305.625 369.092C303.619 373.962 298.91 377.326 297.427 382.373C295.858 380.071 293.59 378.389 290.887 377.592L289.579 377.68Z" fill="#D3A288"/>
<path d="M526.077 405.4C528.257 393.094 520.235 380.079 507.503 388.224C489.19 410.004 480.993 438.336 470.354 464.542C467.912 470.385 470.703 476.937 470.441 483.4L470.354 487.65C483.173 471.979 485.353 448.34 496.166 431.164C499.567 454.803 478.028 508.367 499.48 520.939C509.77 525.366 508.026 516.69 512.125 514.83C506.544 511.112 509.421 505.269 510.817 499.514C517.095 468.172 523.374 437.273 526.077 405.4Z" fill="#D3A288"/>
<path d="M396.405 495.258C415.764 546.609 476.633 537.844 486.312 558.561C439.571 552.275 380.447 534.745 395.184 497.117L396.405 495.258Z" fill="#FFE3D4"/>
<path d="M273.621 379.896C273.708 339.524 283.649 301.365 327.687 292.512C315.828 322.171 295.335 307.297 283.649 368.21C282.952 374.496 281.208 380.516 276.935 385.297C267.604 398.135 266.383 416.462 273.883 430.539C256.267 421.154 258.273 392.469 272.313 380.516L273.621 379.896Z" fill="#FFE3D4"/>
<path d="M287.225 377.863C292.544 378.66 296.905 385.654 292.196 389.727C288.882 391.852 284.26 390.967 281.295 393.888C272.052 403.804 290.539 407.7 293.94 415.137C296.905 419.209 298.213 411.418 292.544 407.611C294.201 406.903 296.207 406.726 297.689 405.663C298.213 400.883 296.905 395.748 296.817 390.878C295.509 381.936 304.404 384.326 292.108 378.837L287.225 377.863Z" fill="#D3A288"/>
<path d="M275.976 432.66C274.668 429.03 273.883 424.958 273.796 421.062C275.802 425.754 278.941 430.978 284.173 431.863C281.993 427.879 280.685 423.452 280.075 418.937C282.691 422.39 285.917 425.489 289.58 427.879C288.185 422.833 286.964 417.786 286.004 412.828C289.405 416.104 292.632 420.177 294.899 424.338C296.207 426.905 293.853 431.067 290.975 429.384C290.713 435.582 280.423 431.598 276.412 432.306L275.976 432.66Z" fill="#D3A288"/>
<path d="M373.993 295.874C353.936 278.875 320.275 267.542 318.444 236.998C322.368 238.149 323.937 247.622 329.082 244.7C319.926 235.493 317.484 211.853 332.658 208.135C325.856 202.911 318.705 211.411 317.746 218.228L316.264 219.202C319.664 238.149 296.555 223.452 297.427 257.361C295.16 255.413 292.893 253.377 290.626 251.429C275.103 283.833 391.782 313.05 373.993 295.874Z" fill="#FFE3D4"/>
<path d="M428.758 473.307C433.031 476.14 437.74 477.999 442.187 480.301C446.635 482.426 450.036 487.119 454.919 488.093C460.674 486.676 471.401 477.203 469.395 470.562C466.43 475.786 460.936 478.265 455.181 476.76C446.635 475.609 438.089 474.281 429.543 473.13L428.758 473.307Z" fill="#3D302A"/>
<path d="M525.641 394.945C537.152 409.2 534.71 436.557 521.193 448.864C521.281 430.891 529.652 413.184 525.815 395.211L525.641 394.945Z" fill="#3D302A"/>
<path d="M327.601 292.691C326.38 295.524 311.119 331.469 306.759 367.238C306.759 367.326 306.672 367.415 306.672 367.592L297.603 385.83C297.516 386.007 297.516 386.184 297.516 386.273C298.824 440.014 298.126 524.034 392.219 533.331C393.178 533.419 394.486 533.508 394.138 532.622C384.894 507.213 399.283 478.173 415.939 474.72C436.693 470.47 451.867 476.756 452.041 476.845C454.221 477.553 469.831 481.537 472.185 461.263C474.714 439.837 504.276 400.084 505.323 398.668C505.323 398.668 505.323 398.579 505.41 398.579C506.195 397.694 519.711 384.325 526.949 398.225C526.949 398.225 541.687 421.687 521.368 446.92C521.281 447.008 521.194 447.185 521.194 447.274L520.845 448.425C520.584 449.31 521.543 449.93 522.24 449.576C546.919 434.436 543.082 352.629 498.783 361.748C498.608 361.748 498.434 361.748 498.259 361.748C488.754 358.561 470.092 363.785 467.651 377.596C467.651 377.862 467.476 378.039 467.302 378.216L463.116 381.935C462.68 382.289 462.07 382.289 461.808 381.846C459.366 379.279 450.733 370.159 446.547 366.706C441.751 362.811 436.868 358.561 437.216 351.301C437.216 351.124 437.304 350.947 437.478 350.77C437.914 350.327 438.176 348.025 431.025 336.958C423.089 324.475 416.898 300.128 415.764 295.17C415.677 294.638 415.154 294.284 414.631 294.373L404.166 296.232C403.556 296.321 403.207 296.94 403.381 297.383L412.102 333.683C412.276 334.302 411.84 334.834 411.142 334.834C392.132 335.453 388.033 322.97 335.449 334.302C334.839 334.391 334.316 334.037 334.316 333.417C333.88 328.725 332.572 309.689 337.019 295.612C337.193 295.081 336.932 294.55 336.409 294.461L328.647 291.363C327.95 291.097 327.339 291.628 327.339 292.336C327.688 292.425 327.601 292.602 327.601 292.691Z" fill="#965640"/>
<path d="M297.603 181.217C297.603 181.217 271.092 191.93 274.929 239.031C274.929 239.031 274.581 266.211 299.259 273.737C293.766 266.654 286.353 266.034 289.841 252.754L295.597 260.811L297.603 259.483L296.818 256.295L297.603 253.816L296.12 248.062C296.12 248.062 298.736 236.198 317.398 229.558C317.398 229.558 315.131 207.689 325.769 206.893C325.769 206.893 334.054 206.096 338.414 215.038C338.414 215.038 342.425 234.162 352.454 219.996C356.552 213.887 377.569 165.989 418.903 180.066L438.873 183.962C444.454 186.529 452.302 195.471 457.099 208.309C457.099 208.309 464.86 201.226 456.314 189.274C446.198 174.931 431.897 172.541 432.42 161.12C425.008 161.297 423.612 165.281 411.142 151.292C411.142 151.292 405.648 144.652 403.817 154.745L403.991 156.958C405.125 156.87 388.12 145.891 354.024 153.86C354.024 153.86 331.961 157.844 322.717 153.86L321.235 162.359L311.817 168.557C311.817 168.557 306.323 166.963 307.282 160.765C307.282 160.765 303.271 171.567 303.271 171.124C303.271 171.124 304.928 173.869 295.946 173.337L294.463 176.259L297.603 181.217Z" fill="#965640"/>
<path d="M275.191 235.936C273.273 226.994 275.627 217.078 281.47 209.995C282.604 212.12 283.127 214.51 282.952 216.989C283.737 215.484 284.871 214.156 286.266 213.182C287.138 214.333 287.574 215.838 287.661 217.255C288.272 216.546 288.795 216.015 289.318 215.307C290.016 216.281 290.365 217.432 290.365 218.671C292.283 207.339 294.725 195.121 303.097 187.507C302.835 193.881 301.876 200.344 300.044 206.542C300.568 205.214 301.353 203.886 302.486 203C302.748 204.948 303.009 206.896 303.271 208.844C304.317 206.188 305.713 203.709 307.631 201.584C308.067 202.558 308.503 203.532 308.852 204.506C308.59 201.938 312.427 200.964 312.515 203.797C318.532 197.423 312.253 186.179 321.671 175.289C323.502 179.538 324.898 183.965 325.682 188.481C327.252 185.028 332.136 183.7 335.275 185.736C336.321 180.512 339.548 174.315 344.867 172.81C348.704 175.289 351.408 179.716 354.46 183.168C353.326 179.627 353.413 175.554 354.896 172.101C356.727 172.898 358.646 173.607 360.477 174.315C358.646 171.482 361.872 167.852 364.837 169.534C361.523 162.982 371.203 160.326 373.645 167.055C374.168 166.17 374.604 165.461 375.04 164.576C377.569 165.727 379.662 167.675 381.057 170.065C381.667 168.206 381.58 165.815 382.714 164.222C387.597 163.779 392.568 167.143 396.318 169.977C393.789 169.977 391.173 169.268 388.993 168.029C389.865 169.977 388.644 173.784 386.289 171.924C383.586 179.361 373.993 175.997 370.244 171.128C371.29 174.846 372.773 179.096 372.075 182.903C370.505 185.293 367.453 182.372 365.36 182.637C366.668 185.116 365.971 190.074 362.483 188.392C363.442 192.376 360.651 195.475 357.686 197.511C356.64 199.99 356.465 202.823 355.768 205.479C352.367 202.115 349.489 198.131 347.309 193.881C348.53 199.282 348.53 204.86 347.483 210.349C344.955 208.224 343.123 205.302 342.077 202.204C342.687 204.86 342.6 207.693 341.902 210.26C338.153 205.391 335.536 199.636 334.403 193.527C338.676 221.593 324.026 192.022 315.916 221.504C314.433 220.973 313.299 219.557 313.125 218.051C312.34 221.239 311.643 224.338 310.771 227.525C309.724 224.515 309.114 221.504 308.765 218.317C308.503 223.452 307.37 228.499 305.364 233.191C301.265 227.967 298.998 221.239 299.172 214.51C299.172 219.557 298.824 224.603 298.039 229.561C296.556 227.879 295.51 225.666 294.987 223.452C295.335 224.515 295.074 225.666 294.289 226.462C293.504 225.311 292.719 224.338 291.934 223.187C291.673 226.374 290.626 229.296 288.795 231.952C287.749 230.446 287.138 228.764 286.789 226.994C287.138 233.368 286.877 239.743 286.005 246.206C283.04 243.284 281.296 239.123 281.121 234.962C281.644 238.503 280.947 242.31 279.203 245.498C278.069 242.222 273.622 242.399 275.017 240.982L275.191 235.936Z" fill="#B28364"/>
<path d="M328.211 291.273C329.083 291.982 329.781 292.601 330.653 293.221C324.636 308.449 320.101 324.386 317.136 340.588L321.758 340.499L313.822 402.209C319.665 398.136 326.118 393.886 333.095 393.975C330.653 396.011 313.91 413.453 322.717 413.63C324.113 413.364 325.159 415.046 324.113 416.197C311.817 429.92 349.663 409.911 356.116 413.541L339.984 429.832C339.199 430.629 339.896 431.868 341.03 431.603L343.995 430.894C340.158 437.003 331.35 439.748 329.955 446.919C327.775 456.216 347.832 475.605 354.46 463.21C351.059 465.954 347.134 470.381 349.227 474.188L352.541 472.063C350.884 485.609 366.93 495.614 378.005 487.911C373.296 493.578 374.952 503.317 381.318 507.035C383.673 504.733 385.243 501.634 386.027 498.447C386.202 501.9 387.946 506.592 391.26 505.707C391.434 515.269 392.306 524.919 393.876 534.393C270.831 524.034 296.382 374.674 326.816 292.336L328.211 291.273Z" fill="#B76846"/>
<path d="M385.068 421.776C381.842 422.573 379.313 425.495 378.964 428.859C385.243 425.052 392.132 422.13 399.282 420.448C395.969 423.901 392.568 427.708 391.347 432.401C397.19 428.062 403.032 423.724 408.875 419.474C412.537 415.844 417.857 417.438 417.857 422.927C416.898 430.187 411.665 437.181 413.584 444.796C420.735 457.456 438.524 454.977 450.035 461.352C470.964 475.075 466.778 444.441 474.103 451.613C479.249 438.952 485.614 426.734 493.114 415.225C495.381 412.923 496.079 406.814 491.544 407.611C494.16 402.033 510.468 382.201 508.2 378.394C488.754 370.337 464.598 386.008 453.436 402.741C455.355 398.845 457.186 394.773 459.104 390.877C449.948 395.038 442.361 402.298 433.205 406.017C417.944 412.214 398.236 408.407 385.417 420.714L385.068 421.776Z" fill="#B76846"/>
<path d="M342.164 342.801C341.03 347.493 340.42 352.274 340.246 357.055C341.641 356.612 343.036 356.17 344.431 355.904C336.932 380.96 336.147 396.542 367.366 386.36C372.075 385.829 377.046 387.069 381.493 385.386C379.836 382.199 361.087 382.022 356.291 380.783C351.582 380.783 348.617 377.241 349.489 372.549C349.838 366.44 350.623 360.242 352.018 354.222C346.699 353.248 342.6 348.024 342.862 342.535L342.164 342.801Z" fill="#B76846"/>
<path d="M320.101 326.414C319.577 333.497 323.153 337.835 330.129 335.356C325.158 337.304 320.275 339.34 315.392 341.288C315.392 336.33 316.612 331.372 319.054 327.034L320.101 326.414Z" fill="#B76846"/>
<path d="M437.826 346.697C436.693 367.326 453.785 366.352 462.418 381.403C453.174 392.647 441.751 405.839 426.664 407.787C438.35 405.927 437.042 392.647 429.019 386.538C419.252 379.544 414.107 369.274 421.17 358.03C423.089 354.931 425.792 352.098 425.705 348.468C425.269 344.572 420.473 337.047 426.577 335.541C419.077 322.881 414.804 308.272 414.281 293.398C416.374 293.841 417.072 296.497 417.333 298.622C419.95 315.798 427.013 332.266 437.565 345.989L437.826 346.697Z" fill="#683A2E"/>
<path d="M470.092 377.241C513.781 341.65 543.43 371.929 535.844 422.306C537.152 408.849 532.007 382.111 514.653 383.616C519.188 365.289 482.824 367.148 473.58 374.497L470.092 377.241Z" fill="#683A2E"/>
<path d="M363.354 463.385C370.156 460.198 383.76 460.286 386.464 468.786C386.202 472.15 384.371 475.072 383.324 478.259C385.504 474.275 389.341 471.707 392.655 468.874C393.265 467.723 392.568 466.484 391.87 465.421C387.597 456.391 377.133 455.24 369.023 459.667L363.354 463.385Z" fill="#683A2E"/>
<path d="M391.521 439.66C400.416 439.837 407.567 446.832 415.503 450.816C427.188 456.659 441.141 456.57 452.826 462.325C457.012 464.981 470.441 470.559 461.982 476.048C459.977 477.022 457.535 476.845 455.268 476.491C443.931 475.163 432.595 473.835 421.345 472.507C425.095 472.507 428.932 471.267 431.984 469.054C428.322 466.664 423.961 465.513 419.688 465.601C421.956 465.867 423.351 462.591 422.392 460.555C419.427 455.597 412.363 457.19 407.916 454.711C401.463 451.347 398.847 442.139 391.87 440.191L391.521 439.66Z" fill="#683A2E"/>
<path d="M391.608 416.817C393.265 406.016 406.084 404.068 415.066 404.157C424.135 404.334 437.042 400.969 437.042 389.902C452.215 414.25 405.997 407.432 394.399 415.135L391.608 416.817Z" fill="#683A2E"/>
<path d="M352.628 354.753C367.714 356.169 382.713 358.914 397.364 362.809C402.16 363.34 404.776 368.298 402.16 372.548C398.148 378.303 390.213 380.074 383.585 380.693C381.667 380.871 378.528 382.995 379.051 384.943C386.289 383.792 393.875 383.084 401.113 383.881C403.206 384.146 408.787 386.714 409.223 384.678C409.572 383.438 412.537 378.037 412.101 374.319C411.665 370.6 409.311 368.298 407.479 365.023C405.648 361.835 402.683 357.851 400.852 354.664C385.853 354.31 372.249 353.602 357.337 353.336L352.628 354.753Z" fill="#683A2E"/>
<path d="M300.219 430.539C297.777 409.91 291.411 386.802 305.8 369.184C304.23 389.812 300.131 410.441 300.742 431.07L300.219 430.539Z" fill="#683A2E"/>
<path d="M319.055 340.411C318.706 341.828 318.532 343.333 318.357 344.749C322.892 342.005 327.775 339.703 332.833 337.932C332.223 334.568 332.048 331.115 331.351 327.839C328.473 326.865 331.089 333.24 330.566 334.568C327.165 336.781 322.805 337.932 319.055 339.437V340.411Z" fill="#683A2E"/>
<path d="M417.595 335.625C416.81 340.583 424.048 340.494 427.449 341.38C425.792 333.589 425.618 337.661 419.688 335.714L417.595 335.625Z" fill="#683A2E"/>
<path d="M279.202 223.188C279.028 224.339 279.638 235.406 281.47 232.307C283.475 228.855 282.865 209.731 279.726 222.834L279.202 223.188Z" fill="#D3A288"/>
<path d="M296.294 205.927C295.422 210.354 295.509 215.046 296.555 219.473C297.689 216.905 299.259 214.426 300.916 212.124C301.962 216.108 301.875 220.712 304.055 224.342C303.445 219.827 304.055 198.401 297.951 212.036C296.817 209.026 298.823 205.484 297.427 202.562C296.991 202.917 296.73 203.448 296.817 203.891L296.294 205.927Z" fill="#D3A288"/>
<path d="M314.52 211.235C314.084 209.376 314.52 207.428 315.654 205.835C316.177 206.277 316.613 206.72 317.049 206.986C317.659 200.345 318.27 193.617 320.973 187.508C323.763 190.695 323.938 195.476 325.508 199.283C325.42 197.07 326.118 194.768 327.339 192.997C329.345 196.007 329.781 200.08 328.472 203.356C327.862 202.736 327.339 202.205 326.816 201.674C327.949 204.507 323.502 205.215 322.891 202.559C323.327 206.454 321.758 210.616 318.967 213.183C318.182 212.032 317.572 210.881 316.962 209.73C316.787 210.881 315.654 217.61 314.781 213.183L314.52 211.235Z" fill="#D3A288"/>
<path d="M339.199 189.725C339.46 193.001 340.419 196.1 342.164 198.844C343.123 196.985 343.559 194.86 343.384 192.824C344.954 193.886 345.216 188.751 345.826 187.777C348.791 191.319 351.582 194.949 354.546 198.49C356.639 197.339 352.89 184.236 351.058 182.908C350.535 183.97 350.186 185.033 349.925 186.184C342.774 172.549 341.379 175.117 341.989 188.928C341.204 188.663 341.03 187.689 340.594 187.069C339.722 185.653 337.454 187.158 338.937 188.22L339.199 189.725Z" fill="#D3A288"/>
<path d="M365.621 176.704C366.493 177.766 367.54 178.563 368.761 179.006C368.412 175.642 362.395 167.408 364.226 175.819C361.523 174.579 363.703 179.272 364.488 180.068C365.708 180.245 365.185 178.563 365.185 177.855L365.621 176.704Z" fill="#D3A288"/>
<path d="M289.928 254.27C286.702 262.415 293.678 269.144 299.172 274.013C291.411 271.8 282.341 265.78 280.685 257.103C281.905 258.52 283.126 260.025 284.347 261.441C282.341 257.192 280.423 250.286 283.911 246.39C284.87 248.604 285.655 250.905 286.44 253.119C285.917 251.879 286.266 250.286 287.138 249.223C287.923 250.109 288.533 250.994 289.318 251.879C288.184 246.479 288.707 240.812 290.975 235.854C292.108 237.625 293.068 239.573 293.852 241.609C293.765 240.458 293.94 239.484 294.288 238.422C294.986 239.307 295.596 240.104 296.294 241.078C295.335 237.979 293.94 232.844 296.468 230.454C299.521 230.719 301.003 234.084 303.009 235.766C303.445 235.766 303.619 235.146 303.881 234.792C304.404 234.084 305.712 234.261 305.974 235.146C306.235 234.438 307.282 234.349 307.631 235.058C308.328 233.641 308.764 225.23 311.119 229.48C311.38 230.188 311.555 231.073 312.252 231.339C313.648 224.876 316.7 218.59 316.7 229.923C309.636 231.782 304.055 238.422 299.085 243.646C293.504 248.869 303.445 271.534 290.539 254.27H289.928V254.27Z" fill="#66392D"/>
<path d="M342.339 223.717C340.943 221.15 340.682 217.962 341.641 215.306C343.298 216.988 344.693 219.025 345.565 221.238C345.129 218.848 345.216 216.369 345.652 213.978C346.35 215.572 348.181 216.192 349.489 217.077C349.489 213.801 349.577 209.728 351.495 207.161C352.978 207.869 353.937 209.817 355.158 210.879C356.291 208.4 360.303 198.219 363.529 202.203C365.099 201.495 366.058 199.547 367.366 198.484C361.872 206.63 354.373 213.978 351.233 223.54C350.536 226.993 346.088 224.868 343.734 224.514L342.339 223.717Z" fill="#66392D"/>
<path d="M370.069 152.888C380.97 151.737 399.108 154.57 404.602 165.283C403.12 165.548 401.463 165.46 400.068 165.017C402.509 165.814 404.428 167.939 405.038 170.418C402.771 170.595 400.504 171.037 398.323 171.746C398.585 172.897 399.457 173.782 400.416 174.313C397.103 172.72 391.347 173.516 391.609 178.12C417.16 177.678 449.687 177.589 456.663 208.754C475.412 187.417 427.711 176.173 433.292 161.387C415.415 164.043 412.102 145.805 404.777 150.143C403.992 152.445 404.515 155.101 404.253 157.492C395.62 153.065 385.33 150.674 375.738 152.534L370.069 152.888Z" fill="#66392D"/>
<path d="M302.747 408.844C301.439 416.901 301.788 425.4 303.881 433.368C306.236 429.296 309.375 425.488 312.95 422.567C311.293 427.79 309.985 433.103 309.201 438.592C315.218 434.608 321.845 431.686 328.821 430.004C322.892 437.264 316.874 444.435 310.945 451.695C305.276 458.955 318.706 467.631 323.676 471.704C325.072 472.589 325.595 474.095 324.374 475.334C321.06 479.672 320.973 485.87 325.682 488.969C331.874 495.609 353.675 525.799 341.466 516.326C305.712 488.88 301.701 458.689 301.178 424.16L302.747 408.844Z" fill="#EF835E"/>
<path d="M469.743 415.75C458.232 407.162 446.634 428.145 435.908 431.066C422.915 433.899 421.607 442.753 433.379 448.596C450.21 450.19 467.04 471.881 465.906 437.175C466.604 430.269 472.272 422.921 469.743 415.75Z" fill="#EF835E"/>
<path d="M327.862 214.863C325.595 210.702 331.786 210.436 333.792 214.155C339.983 222.566 349.663 235.492 341.466 245.408C339.46 248.861 333.356 251.783 331.35 246.913C330.304 243.814 334.141 241.69 335.187 239.122C334.402 235.315 329.868 239.83 327.862 239.034C320.711 232.128 329.519 234.076 327.164 217.785L327.862 214.863Z" fill="#D3A288"/>
<path d="M336.146 238.68C334.838 242.929 327.513 248.95 322.891 244.257C316.176 236.378 314.519 223.983 318.008 214.067C321.321 202.469 333.268 205.125 337.716 213.801C333.53 209.374 325.333 203.265 320.798 211.676C316.787 219.644 317.223 230.534 320.885 238.237C324.722 248.242 331.088 245.143 336.146 238.68Z" fill="black"/>
<path d="M327.426 214.246C329.955 219.381 328.56 230.625 324.897 234.963C324.461 234.786 326.118 230.36 326.816 224.693C327.513 219.027 326.903 214.335 327.426 214.246Z" fill="black"/>
<path d="M335.1 225.493C334.925 225.935 333.181 225.758 331.088 225.67C320.973 225.05 333.443 222.305 335.1 225.493Z" fill="black"/>
<path d="M453.261 198.484C465.121 220.441 464.859 250.543 449.075 271.526C425.618 302.779 377.568 306.321 342.687 296.848C323.938 291.535 306.41 282.239 293.329 268.959C307.369 281.088 324.199 290.65 343.035 295.52C374.952 303.665 414.543 301.54 440.268 279.052C462.854 258.512 465.121 224.602 453.261 198.484Z" fill="black"/>
<path d="M453.349 198.573C449.512 195.12 445.849 189.188 441.315 186.001C438.524 184.141 435.123 183.699 431.722 183.079C425.531 182.017 419.688 181.043 413.148 179.892C389.516 173.783 377.918 186.886 364.139 203.973C361.087 207.426 358.297 210.702 356.117 214.155C353.588 217.342 353.5 221.415 350.972 224.425C347.745 227.435 342.426 225.222 340.42 221.946C338.763 219.379 338.327 214.952 337.978 212.561C337.804 211.499 337.717 211.056 337.804 211.056C339.286 215.483 339.548 223.894 346.001 224.691C352.367 225.842 351.582 217.077 354.809 213.447C359.866 205.921 365.709 199.015 372.162 192.021C379.226 184.407 388.644 177.767 398.847 176.97C403.73 176.439 408.613 177.767 413.235 178.475C421.52 180.069 429.194 181.131 437.042 183.079C444.629 184.938 449.076 193.172 453.349 198.573Z" fill="black"/>
<path d="M297.515 273.74C273.708 265.683 271.266 233.722 275.714 211.853C278.33 199.193 286.527 187.772 297.253 180.512C296.12 179.184 294.812 177.856 293.678 176.528C294.899 175.554 295.596 174.58 295.596 172.986C297.951 172.809 300.305 172.721 302.66 172.544C303.794 167.32 305.974 162.45 308.328 157.758C308.415 161.211 307.718 168.559 312.688 168.117C315.915 167.054 317.136 162.716 320.624 162.096C321.147 159.175 321.67 156.342 322.194 153.331C322.368 153.243 324.112 153.774 324.374 153.774C350.448 159.617 378.789 142.353 403.293 156.519C402.16 152.003 407.13 146.514 411.142 150.587C415.676 155.899 420.821 161.122 427.972 161.742C429.455 161.654 430.937 161.034 432.419 160.857C432.594 160.857 432.768 160.768 432.855 160.945C434.425 162.185 432.507 164.31 433.379 165.815C441.053 176.528 457.621 184.053 460.325 197.688C460.848 201.495 460.15 205.39 457.883 208.223C459.627 205.036 460.412 201.495 459.714 197.776C457.621 187.683 447.855 182.017 440.878 175.111C437.739 171.57 430.414 168.382 432.245 162.45C432.332 161.742 431.111 162.45 430.763 162.45C429.891 162.628 429.019 162.893 428.146 162.982C421.606 162.45 415.938 158.466 411.839 153.331C409.834 150.498 406.694 149.17 405.037 152.889C404.253 154.925 404.95 157.315 405.212 159.44C380.359 142.618 350.622 161.742 323.589 155.191C323.066 157.935 322.542 160.68 322.106 163.336C318.269 163.513 317.049 168.117 313.735 169.356C309.462 170.773 307.718 167.231 306.846 164.31C305.538 167.408 304.491 170.684 303.794 174.049C301.439 174.137 299.172 174.314 296.817 174.403C296.643 175.2 296.207 175.908 295.684 176.616C296.904 178.033 298.212 179.449 299.433 180.777C283.649 190.162 275.016 208.401 275.278 226.727C273.621 245.408 279.812 266.48 297.515 273.74Z" fill="black"/>
<path d="M294.899 269.047C291.411 267.808 288.707 263.823 288.271 259.397C287.923 256.829 289.405 253.907 288.271 251.517L289.579 250.809C291.236 253.819 293.678 257.36 296.033 259.928C296.817 259.308 295.771 258.246 295.771 257.36C295.596 255.678 296.905 254.793 296.207 253.288C293.329 242.841 306.497 234.164 313.997 230.623C315.653 229.826 316.7 229.472 316.7 229.56C311.642 232.836 303.532 237.44 299.869 243.549C294.899 250.632 299.346 251.517 297.515 256.829C297.777 258.334 298.736 260.813 296.469 261.522C293.852 262.053 289.492 253.465 288.271 251.517L289.579 250.809C290.713 253.288 289.579 255.855 289.405 258.334C289.143 263.027 292.021 266.657 294.899 269.047Z" fill="black"/>
<path d="M439.047 206.984C433.292 204.328 425.182 207.604 419.077 208.755C416.025 209.552 412.45 211.057 409.921 209.906C415.764 208.667 434.6 200.433 439.047 206.984Z" fill="black"/>
<path d="M429.542 223.986C433.118 243.907 421.956 241.339 419.775 223.455C424.048 223.809 428.67 224.075 432.943 223.986C432.943 222.835 432.943 221.419 432.943 220.268C429.106 219.914 424.833 220.445 421.083 221.33C418.293 222.127 413.758 223.366 411.84 220.976C414.369 222.215 417.944 221.242 420.822 220.179C424.659 219.028 428.932 218.497 433.118 218.674C435.647 218.851 434.426 223.632 434.687 225.491C434.687 225.757 434.687 225.668 434.426 225.668C430.327 225.845 425.967 225.757 421.868 225.403C425.531 242.224 429.978 238.595 429.542 223.986Z" fill="black"/>
<path d="M444.279 244.001C447.506 244.621 453.087 245.594 456.575 243.912C456.226 235.856 452.04 227.622 449.948 220.362C447.157 212.039 447.767 211.862 451.081 219.919C452.651 224.966 460.674 240.814 457.273 245.329C453.436 246.745 447.07 246.303 444.279 244.001Z" fill="black"/>
<path d="M462.592 213.89C462.244 214.244 460.063 212.208 457.098 210.349C454.134 208.401 451.517 207.161 451.692 206.719C455.093 206.187 461.895 210.703 462.592 213.89Z" fill="black"/>
<path d="M453.959 227.972C455.006 227.441 458.145 228.149 459.54 228.326C459.802 227.352 459.715 225.935 459.627 224.873C457.97 224.696 454.569 226.112 453.349 226.024C453.959 224.784 460.151 221.686 461.11 224.342C461.546 226.378 461.807 230.893 458.581 229.742C457.447 229.388 454.482 228.769 453.959 227.972Z" fill="black"/>
<path d="M458.407 228.145C461.459 230.712 456.576 245.232 457.709 233.014C457.971 230.358 457.971 228.233 458.407 228.145Z" fill="black"/>
<path d="M446.547 261.701C437.652 261.613 422.304 259.93 417.159 250.723C428.583 260.019 434.687 257.54 446.547 261.701Z" fill="black"/>
<path d="M441.403 260.633C441.839 262.758 441.664 268.159 438.002 266.388C431.287 264.706 424.136 260.102 419.863 254.701C416.026 249.3 416.462 248.946 420.735 253.904C425.619 258.951 432.682 263.466 439.484 265.325C440.967 265.06 440.531 261.341 441.403 260.633Z" fill="black"/>
<path d="M426.752 225.134C427.624 231.332 430.589 234.519 429.979 225.577C429.63 224.337 427.798 226.108 427.014 225.311L426.752 225.134Z" fill="black"/>
<path d="M422.305 254.793C424.921 259.043 431.636 267.542 438.089 269.047C439.571 267.188 440.879 262.673 441.664 261.079C442.1 263.115 440.618 268.516 438.699 270.375C432.508 271.084 422.479 259.84 422.305 254.793Z" fill="black"/>
<path d="M334.576 335.184C330.478 326.33 334.228 304.196 337.629 296.051C338.152 296.139 336.233 304.816 335.1 315.617C334.053 322.346 334.053 330.757 334.576 335.184Z" fill="#442F1F"/>
<path d="M400.155 334.126C390.126 333.507 378.615 329.699 367.54 330.673C356.291 330.762 342.077 334.126 334.839 334.48C341.554 332.001 358.21 329.08 367.54 328.903C378.441 328.46 390.388 331.205 400.155 334.126Z" fill="#442F1F"/>
<path d="M412.624 334.917C411.49 336.156 401.723 298.174 403.38 298.705C403.816 297.643 413.496 335.625 412.624 334.917Z" fill="#442F1F"/>
<path d="M411.84 334.572C412.014 335.723 400.59 335.281 400.852 334.13C400.678 333.156 412.189 333.51 411.84 334.572Z" fill="#442F1F"/>
<path d="M531.484 407.704C527.647 390.351 516.659 387.43 504.363 400.356C495.207 409.829 490.585 420.896 483.609 434.442C479.51 442.853 475.324 452.326 472.796 461.8C471.4 468.883 468.174 477.559 459.802 477.913C439.658 477.559 417.508 466.05 401.463 485.527C390.126 499.605 391.434 518.994 395.01 535.816C386.202 535.993 377.307 534.665 368.848 531.92C345.042 523.863 320.189 502.615 309.811 479.33C290.714 435.151 304.666 354.937 319.927 311.909C322.543 304.826 325.334 298.186 328.298 292.254C318.008 316.424 310.945 340.594 306.759 368.837C301.614 410.98 293.33 465.607 325.246 500.136C342.687 519.259 366.494 534.488 393.004 534.222C387.423 510.14 391.87 477.294 420.735 473.132C426.229 472.336 431.984 472.778 437.391 473.487C448.64 474.637 466.517 482.694 470.267 466.581C473.668 452.149 480.208 438.603 486.835 425.943C491.719 416.47 496.689 406.996 503.927 399.736C515.961 386.81 528.693 389.555 531.484 407.704Z" fill="#442F1F"/>
<path d="M454.221 391.939C461.11 379.81 476.632 371.134 488.928 364.228C516.223 350.062 537.937 375.029 537.762 402.21C537.849 419.386 536.28 440.28 521.804 450.639C537.239 437.535 538.983 405.662 533.664 386.627C525.728 362.368 504.363 355.463 483.434 368.92C473.406 374.763 460.325 383.174 454.221 391.939Z" fill="#442F1F"/>
<path d="M437.478 346.781C440.443 371.66 452.651 361.744 462.418 381.753C463.464 383.966 463.203 384.143 461.808 382.107C458.319 376.529 452.913 371.04 446.721 367.587C439.309 364.134 436.082 353.864 437.478 346.781Z" fill="#442F1F"/>
<path d="M415.764 294.988C417.857 300.743 421.606 314.643 425.007 321.726C427.711 329.163 434.861 341.558 437.39 347.136C427.449 335.183 417.246 310.571 415.764 294.988Z" fill="#442F1F"/>
<path d="M344.606 340.849C361.698 337.396 382.452 336.777 401.812 338.105C405.125 338.37 405.387 347.047 406.782 350.057C407.218 351.473 407.654 353.067 407.916 354.572C401.201 356.963 393.963 355.103 387.161 354.661C370.942 353.421 354.722 354.661 340.071 357.671C340.333 352.359 340.769 346.338 341.903 341.912C341.99 343.594 341.031 352.624 341.118 356.431C355.245 353.156 371.465 351.828 387.249 352.979C393.353 353.333 399.719 354.926 405.823 353.333C404.864 349.88 403.992 346.338 403.033 342.886C402.509 341.469 402.771 339.433 400.591 339.61C381.842 338.016 361.611 339.344 344.606 340.849Z" fill="#442F1F"/>
<path d="M401.376 355.281C404.341 359 408.09 365.286 412.189 371.572C412.974 372.723 413.759 374.228 413.671 375.733C413.497 379.274 410.009 381.753 410.096 385.383C395.707 385.738 378.79 384.675 363.791 387.951C333.793 396.804 337.717 375.29 345.216 355.812C345.304 355.901 344.78 357.583 343.908 360.948C339.112 379.894 337.978 394.06 363.442 386.357C378.092 383.17 394.748 383.701 408.788 384.055C409.224 380.868 412.276 378.389 412.451 375.467C412.451 374.316 411.84 373.254 411.23 372.192C407.393 365.64 403.381 359.531 401.376 355.281Z" fill="#442F1F"/>
<path d="M364.576 461.882C366.145 460.377 368.674 458.252 370.593 455.065L371.116 455.596C367.192 458.518 361.959 459.226 357.599 461.794C350.71 466.752 344.431 473.48 337.63 479.235C337.63 479.235 337.455 479.324 337.542 479.324L337.63 479.412C339.286 481.272 340.682 483.485 341.641 485.787C349.053 473.835 358.907 462.236 372.773 458.075C384.109 454.357 388.382 458.252 394.661 467.46C394.835 467.726 395.359 468.611 395.533 468.7C395.62 468.788 395.446 468.788 395.446 468.877L394.923 469.231C386.551 475.34 379.662 484.99 376.522 494.64C375.65 497.297 375.04 500.395 372.25 501.812C359.867 508.009 348.443 493.755 345.216 483.485C344.693 482.245 344.431 481.449 344.519 481.449C345.652 483.131 346.612 485.964 348.268 488.797C350.274 492.516 354.024 497.739 358.558 499.953C364.75 503.406 374.168 502.874 375.127 494.198C378.179 484.547 384.894 474.72 393.266 468.434C387.249 459.846 383.848 456.127 373.122 459.757C358.646 464.096 348.792 476.845 341.118 489.24C339.984 485.61 338.153 482.068 335.537 479.324C335.449 479.147 335.275 479.147 335.537 478.97C342.862 472.949 349.489 465.866 356.902 460.731C361.959 457.987 367.628 457.367 372.075 453.914C370.244 457.19 366.843 460.82 364.576 461.882Z" fill="#442F1F"/>
<path d="M467.999 378.037C463.115 375.38 478.202 362.189 482.126 361.126C482.736 360.772 483.347 360.506 483.957 360.152L483.87 360.595C482.998 364.225 479.248 375.026 481.428 364.491C481.428 364.225 481.864 362.985 481.603 363.163C478.027 365.376 466.516 374.318 467.999 378.037Z" fill="#442F1F"/>
<path d="M500.264 362.194C500.09 362.725 496.253 361.486 491.282 361.574C486.399 361.663 482.562 362.902 482.388 362.548C486.225 359.095 496.34 358.918 500.264 362.194Z" fill="#442F1F"/>
<path d="M395.445 430.454C399.893 424.61 413.933 414.429 422.391 410.267C431.548 405.398 442.099 401.856 449.686 395.925C452.215 393.888 452.564 394.065 450.122 396.456C443.146 403.185 432.333 406.903 423.176 411.772C414.63 415.757 401.026 426.204 395.445 430.454Z" fill="#442F1F"/>
<path d="M382.365 424.251C391.958 411.06 416.026 410.528 429.804 407.43C415.416 413.804 396.231 411.945 382.365 424.251Z" fill="#442F1F"/>
<path d="M522.589 383.705C512.037 381.58 502.706 391.142 497.736 400.349C491.37 410.531 483.696 424.874 479.859 433.019C476.109 440.633 472.708 448.247 475.411 440.722C480.208 428.238 487.794 413.187 496.428 399.552C501.137 390.522 512.386 379.366 522.589 383.705Z" fill="#442F1F"/>
<path d="M427.275 465.686C419.078 466.66 406.259 466.926 399.108 473.743C388.906 483.748 385.941 500.038 386.289 513.584C386.551 519.162 387.598 522.084 388.382 526.156C387.859 525.36 387.423 524.386 387.074 522.969C382.452 508.007 385.592 488.617 395.097 475.691C402.509 466.306 416.811 464.713 427.275 465.686Z" fill="#442F1F"/>
<path d="M301.702 444.53C297.254 433.02 298.301 417.969 297.167 404.6C295.946 385.388 295.685 385.565 305.015 369.186C307.021 365.556 307.283 365.733 305.626 369.54C297.167 387.07 297.429 384.591 298.824 404.511C299.347 415.755 299.87 436.207 301.702 444.53Z" fill="#442F1F"/>
<path d="M330.217 334.212C329.955 334.212 329.519 331.378 328.996 326.775C328.908 326.42 328.996 325.624 328.647 325.535C325.944 326.066 322.891 326.42 320.101 327.217C317.921 330.759 317.049 335.54 316.351 339.789C319.578 338.727 329.868 335.008 330.914 335.274C329.17 336.602 318.27 340.675 314.433 342.091C314.956 338.196 316.002 326.066 320.537 325.358C323.415 324.827 326.118 324.296 328.821 324.207C329.693 324.296 329.955 325.181 329.955 325.801C330.304 329.608 330.565 334.566 330.217 334.212Z" fill="#442F1F"/>
<path d="M411.665 321.64C413.584 321.109 418.205 321.552 420.647 321.552C422.566 326.775 424.833 331.911 427.275 336.869C428.321 337.931 422.653 337.665 421.955 337.577C419.165 336.957 414.979 336.514 414.281 333.239C414.02 330.582 411.839 322.791 412.188 322.968C412.711 322.614 415.415 331.114 415.851 333.681C418.205 335.718 421.781 336.072 424.833 335.983C422.827 331.733 420.996 327.307 419.513 322.88C417.595 322.437 413.235 322.26 411.665 321.64Z" fill="#442F1F"/>
<path d="M273.447 378.747C272.052 365.555 275.191 348.025 279.9 334.568C285.045 313.762 304.753 297.471 323.502 292.779C329.083 291.539 329.17 291.716 323.676 293.399C305.625 299.065 286.528 314.647 281.47 335.01C276.499 348.379 274.057 365.644 273.447 378.747Z" fill="black"/>
<path d="M286.004 432.668C258.447 438.954 251.471 395.04 270.569 381.051C278.504 374.5 292.98 375.385 298.823 383.619C292.108 377.067 279.289 375.651 271.441 382.291C253.564 396.456 259.755 435.855 286.004 432.668Z" fill="black"/>
<path d="M290.975 430.096C292.283 430.804 291.585 433.018 290.19 433.549C284.173 436.471 275.191 428.06 274.145 422.925C274.232 421.862 275.627 424.872 276.325 425.404C279.028 428.148 284.871 434.169 289.667 432.575C290.975 432.044 290.975 430.804 290.975 430.096Z" fill="black"/>
<path d="M286.354 413.535C290.452 415.926 295.772 421.503 295.772 427.081C294.115 434.518 285.22 427.435 283.214 423.982C279.464 418.316 279.813 417.696 284.173 423.186C285.743 425.576 294.987 432.836 294.115 425.31C293.068 420.795 288.621 416.811 286.354 413.535Z" fill="black"/>
<path d="M288.271 406.105C290.19 406.105 293.068 408.053 294.899 409.116C298.387 412.214 299.346 419.297 292.631 417.172C289.318 416.287 284.783 413.897 291.323 415.49C292.719 415.667 294.724 416.464 296.032 415.579C296.381 414.074 295.073 411.329 294.027 410.355C292.195 408.939 289.492 407.522 288.271 406.105Z" fill="black"/>
<path d="M440.094 327.215C442.623 331.907 442.099 342.62 436.605 345.453C440.355 339.167 439.658 333.766 440.094 327.215Z" fill="black"/>
<path d="M509.595 501.541C512.996 484.896 519.1 453.82 522.501 433.545C524.681 421.15 526.426 411.588 525.815 400.256C525.205 394.324 525.553 393.793 526.513 400.167C527.646 411.411 525.989 421.327 523.984 433.634C520.757 453.82 514.566 484.985 510.729 501.629C507.502 514.555 507.153 512.165 509.595 501.541Z" fill="black"/>
<path d="M474.976 509.511C471.662 501.277 468.523 482.33 469.482 473.477C470.616 477.372 471.139 485.34 472.36 491.449C473.144 497.647 475.063 505.527 474.976 509.511Z" fill="black"/>
<path d="M496.428 532.178C476.72 514.559 458.146 487.556 433.205 476.223C429.019 474.453 429.107 474.187 433.467 475.604C450.995 482.067 465.819 498.003 478.464 511.815C484.743 518.898 491.719 525.892 496.428 532.178Z" fill="black"/>
<path d="M513.433 565.027C507.503 566.798 500.265 565.913 494.073 562.902C489.626 560.246 485.004 558.475 479.772 557.944C451.518 552.101 412.625 547.674 395.794 520.936C393.701 517.129 391.87 512.88 396.405 520.582C414.282 546.258 451.867 550.153 480.033 556.439C493.986 558.387 496.777 566.975 513.433 565.027Z" fill="black"/>
<path d="M524.943 510.218C528.431 499.505 545.523 508.536 536.541 525.712C528.955 537.221 533.751 554.574 522.065 562.808C520.321 563.959 517.618 564.933 515.612 564.313C519.188 563.605 521.717 562.72 524.769 558.647C530.35 551.122 528.518 540.851 531.832 532.175C534.274 525.623 539.419 518.983 537.152 511.989C535.582 506.234 527.559 504.552 524.943 510.218Z" fill="black"/>
<path d="M520.059 525.008C522.588 517.925 514.304 515.092 511.077 521.998C508.549 527.664 501.834 529.258 497.386 532.534C494.77 534.393 493.201 538.466 492.329 540.768C491.98 539.085 492.765 536.518 494.16 534.216C496.95 529.347 503.055 528.284 506.979 524.566C509.072 522.529 510.118 519.342 512.56 517.571C517.531 513.676 524.42 520.847 520.059 525.008Z" fill="black"/>
<path d="M528.083 519.961C533.054 512.79 523.461 508.54 518.578 513.941C517.183 515.357 517.095 516.863 516.834 516.774C516.311 515.889 516.834 514.384 517.706 513.233C520.671 508.54 530.263 508.54 530.786 515.269C530.961 517.128 529.827 519.873 528.083 519.961Z" fill="black"/>
<path d="M469.482 474.188C468.784 480.119 460.587 488.265 454.744 488.707C456.314 487.114 461.023 484.635 462.941 482.333C465.209 480.474 467.912 475.87 469.482 474.188Z" fill="black"/>
<path d="M569.176 331.95C567.416 331.246 564.776 330.806 564.072 328.87C569.264 325.79 575.513 325.438 581.321 324.734C582.641 324.91 583.081 323.59 584.313 323.502C595.489 322.974 606.842 321.918 617.93 321.918C619.426 324.91 619.602 330.366 614.938 330.014C599.45 331.158 583.961 331.95 568.384 332.39L569.176 331.95Z" fill="#4F79A3"/>
<path d="M615.113 320.689C620.922 318.665 629.282 317.609 633.946 322.449C629.106 322.889 624.354 323.417 619.513 323.769C618.897 322.537 618.017 321.481 616.785 320.689H615.113Z" fill="#FFD39F"/>
<path d="M616.874 321.307C621.186 321.395 625.586 321.571 629.722 320.515C628.578 318.315 616.61 319.635 615.554 321.043L616.874 321.307Z" fill="white"/>
<path d="M619.25 325.358C624.619 325.71 629.987 325.446 635.355 324.566C632.099 318.582 624.267 323.422 618.986 322.894C619.954 323.158 620.57 324.038 620.482 325.006L619.25 325.358Z" fill="#FF9100"/>
<path d="M619.25 324.648C624.354 324.472 629.987 322.36 634.827 324.296C635.707 330.984 622.242 331.248 617.578 330.368C618.106 329.224 618.634 328.08 618.986 326.936L619.25 324.648Z" fill="#C47400"/>
<path d="M632.538 320.335C642.394 309.51 647.763 320.159 656.475 315.935C655.771 318.223 653.923 320.159 651.635 320.863C656.387 320.423 657.971 326.583 655.859 330.103C655.067 329.399 654.099 328.959 653.043 328.959C653.395 330.543 653.835 333.183 651.987 333.799C649.875 332.215 648.203 329.487 645.475 329.311C641.25 329.663 636.938 330.807 632.714 329.311C634.298 327.375 634.826 324.559 634.122 322.095L632.538 320.335Z" fill="#303030"/>
<path d="M581.408 325.445C593.729 325.181 606.137 325.269 618.37 324.213C618.986 322.277 616.17 321.661 614.761 321.837C604.465 321.221 594.169 323.949 583.872 323.333L581.408 325.445Z" fill="#7CB1DD"/>
<path d="M564.248 329.486C582.289 329.134 600.593 327.374 618.458 327.726C618.37 332.742 594.257 329.926 589.505 331.158C580.969 331.95 572.168 332.39 563.632 331.07L564.248 329.486Z" fill="#364C5B"/>
<path d="M583.256 323.414C592.584 322.181 605.081 320.773 615.905 320.773C621.186 321.213 621.538 328.958 616.873 330.718C610.185 331.95 602.881 331.334 596.193 331.862C586.424 332.038 576.04 332.742 567.855 332.126C575.952 330.982 586.336 330.982 596.105 330.366C600.153 329.574 615.201 331.07 617.665 328.166C619.161 325.966 618.545 322.798 615.553 322.446C604.993 322.005 592.496 323.942 583.256 323.414Z" fill="black"/>
<path d="M614.322 320.776C619.074 317.784 627.523 316.816 633.243 319.72C636.763 321.48 637.731 326.584 634.211 328.872C630.603 331.336 626.115 331.16 622.067 331.336C615.466 331.072 610.802 330.192 622.067 330.192C625.587 329.84 629.987 329.84 633.155 327.64C637.467 324.296 632.187 319.984 628.403 319.72C624.091 318.84 618.106 320.072 614.322 320.776Z" fill="black"/>
<path d="M632.89 319.988C633.594 317.612 637.906 315.236 640.81 315.06C644.066 314.356 647.674 316.292 650.931 316.116C652.779 315.764 654.891 313.74 656.563 315.588C658.323 317.788 654.891 319.284 653.571 320.604C655.507 321.22 656.915 322.804 657.883 324.652L656.739 324.828C657.883 326.588 658.323 330.549 655.243 330.285C655.243 330.285 655.243 330.285 655.155 330.285C655.683 332.573 652.955 336.973 650.579 334.773C648.818 330.989 644.066 330.197 640.458 330.637C638.17 330.901 634.034 330.989 632.714 329.405C637.642 331.341 644.33 327.644 649.259 331.165C650.403 331.781 651.107 333.101 651.899 333.981C654.539 332.485 653.571 329.845 652.339 327.644C653.307 327.908 655.067 329.229 655.859 328.612C655.947 327.292 655.331 325.796 654.627 324.74C655.067 324.036 655.683 323.508 656.475 323.42L655.859 324.652C654.451 322.012 651.811 322.1 649.171 322.1C649.787 321.22 657.795 316.556 654.627 316.556C646.618 320.34 641.69 311.54 632.89 319.988Z" fill="black"/>
<path d="M296.817 405.749C296.556 407.432 292.021 408.848 290.975 407.52C290.8 406.812 296.556 404.953 296.817 405.749Z" fill="black"/>
</g>
</g>
<defs>
<clipPath id="clip0_950_84962">
<rect width="1000" height="651" fill="white"/>
</clipPath>
<clipPath id="clip1_950_84962">
<rect width="395.034" height="417.003" fill="white" transform="translate(259.756 148.992)"/>
</clipPath>
</defs>
</svg>
