<svg width="243" height="50" viewBox="0 0 243 50" fill="none" xmlns="http://www.w3.org/2000/svg">
	<path d="M215.671 3.01088H200.015C198.17 1.87215 195.051 1.33627 191.997 2.34104C192.378 3.41278 162.022 2.87691 161.067 3.01088C159.476 -1.20912 150.057 -0.271343 146.621 3.01088H136.438C134.084 2.00612 131.22 2.14008 128.801 2.94389C128.229 0.33151 122.119 -0.740231 118.364 1.00135C110.6 5.82421 104.682 0.331512 97.872 2.80992C97.9356 3.14484 91.6352 3.01088 91.317 3.01088C88.8986 1.20231 83.871 1.47024 80.9435 3.01088C80.4981 1.93913 78.7798 1.06834 75.9796 1.00135C70.5701 0.867386 65.7971 1.67119 61.5331 3.01088C60.2603 1.93913 56.8237 1.33627 54.5963 2.40801C55.1054 3.34579 29.3309 3.01087 28.3763 3.07785C4.51104 2.80992 -2.04395 16.2067 1.13808 25.7854C0.119832 26.5893 1.83813 32.2829 1.13808 33.2877C-0.262013 34.1585 -0.0710902 35.2302 1.58357 35.8331C5.02017 48.2251 34.5495 47.4213 53.3235 47.0194C54.0235 51.7753 64.5242 50.5695 67.2608 47.0194C66.9426 47.3543 139.557 46.0816 135.165 47.6892C133.893 49.2969 138.857 50.7705 141.084 49.4308C142.993 48.56 143.821 46.6845 146.812 47.0194C149.103 48.3591 153.303 48.694 156.485 47.0194C179.523 45.4118 244.055 53.6508 242.846 33.2877C243.1 22.4362 247.619 2.74294 215.671 3.01088Z" fill="#FBE7F0" />
</svg>
