<svg width="391" height="79" viewBox="0 0 391 79" fill="none" xmlns="http://www.w3.org/2000/svg">
	<path d="M346.7 4.57678H321.509C318.539 2.75481 313.522 1.89741 308.606 3.50503C309.221 5.21982 260.375 4.36243 258.839 4.57678C256.279 -2.17522 241.124 -0.674773 235.594 4.57678H219.21C215.421 2.96916 210.813 3.1835 206.922 4.4696C206 0.289791 196.17 -1.42499 190.128 1.36154C177.635 9.0781 168.112 0.289794 157.155 4.25525C157.257 4.79112 147.119 4.57678 146.607 4.57678C142.716 1.68307 134.627 2.11176 129.916 4.57678C129.199 2.86198 126.434 1.46872 121.929 1.36154C113.225 1.14719 105.545 2.43329 98.6836 4.57678C96.6356 2.86198 91.106 1.8974 87.5219 3.6122C88.3411 5.11264 46.8686 4.57677 45.3326 4.68394C6.93206 4.25524 -3.61528 25.6901 1.50479 41.0161C-0.133631 42.3022 2.63121 51.412 1.50479 53.0196C-0.748039 54.4129 -0.440834 56.1277 2.2216 57.0923C7.75127 76.9195 55.2655 75.6334 85.4739 74.9904C86.6003 82.5998 103.497 80.6706 107.9 74.9904C107.388 75.5263 224.228 73.49 217.162 76.0621C215.114 78.6343 223.101 80.9922 226.685 78.8487C229.757 77.4554 231.089 74.4545 235.901 74.9904C239.588 77.1339 246.346 77.6698 251.466 74.9904C288.536 72.4182 392.371 85.6007 390.425 53.0196C390.835 35.6574 398.105 4.14808 346.7 4.57678Z" fill="#FBE7F0" />
</svg>
