<svg width="161" height="46" viewBox="0 0 161 46" fill="none" xmlns="http://www.w3.org/2000/svg">
<path d="M142.759 2.63165H132.386C131.163 1.58402 129.097 1.09101 127.073 2.01539C127.326 3.0014 107.213 2.5084 106.581 2.63165C105.527 -1.25075 99.2863 -0.387994 97.0094 2.63165H90.263C88.7028 1.70727 86.8054 1.83051 85.2031 2.57002C84.8236 0.16663 80.7758 -0.819372 78.288 0.782887C73.1439 5.21991 69.2225 0.166632 64.7108 2.44677C64.753 2.7549 60.5786 2.63165 60.3678 2.63165C58.7655 0.967763 55.4345 1.21426 53.4949 2.63165C53.1997 1.64564 52.0612 0.844512 50.206 0.782887C46.6219 0.659636 43.4595 1.39914 40.6345 2.63165C39.7911 1.64564 37.5142 1.09102 36.0384 2.07702C36.3758 2.93978 19.2988 2.63165 18.6664 2.69328C2.85438 2.44677 -1.48864 14.7718 0.61962 23.5843C-0.0550238 24.3238 1.08344 29.5619 0.61962 30.4863C-0.308015 31.2874 -0.181521 32.2734 0.914776 32.8281C3.1917 44.2287 22.7564 43.4892 35.1951 43.1195C35.659 47.4949 42.6162 46.3856 44.4293 43.1195C44.2185 43.4276 92.329 42.2567 89.4196 43.7357C88.5763 45.2147 91.8652 46.5705 93.341 45.338C94.606 44.5369 95.1541 42.8114 97.1359 43.1195C98.6538 44.352 101.437 44.6601 103.545 43.1195C118.809 41.6405 161.564 49.2204 160.763 30.4863C160.932 20.503 163.926 2.38515 142.759 2.63165ZM157.095 33.3211C156.547 33.0746 157.39 32.5199 157.474 32.1502C157.39 32.5199 157.264 32.8897 157.095 33.3211ZM9.0105 34.6768C9.09484 34.6152 9.17917 34.5536 9.2635 34.4919C9.22133 34.6152 9.22134 34.7384 9.17917 34.9233C9.137 34.8001 9.05267 34.7384 9.0105 34.6768ZM37.0926 11.1976C37.0926 11.1976 37.1347 11.1359 37.1769 11.1359C37.1347 11.1976 37.0926 11.1976 37.0926 11.1976ZM26.1296 5.21991C25.7923 5.09666 25.4128 4.97341 25.0755 4.85016H26.7621C26.5513 4.97341 26.3404 5.09666 26.1296 5.21991ZM30.051 40.7777C30.4305 41.0242 29.1655 40.8394 29.1233 40.901C29.4185 40.8394 29.7558 40.7777 30.051 40.7777ZM112.358 4.85016C109.069 6.6373 107.509 7.06867 105.274 4.85016C105.316 4.85016 112.358 4.85016 112.358 4.85016ZM156.673 24.447C157.011 24.0773 157.348 23.7075 157.643 23.3378C157.474 23.954 158.276 25.3098 156.673 24.447ZM150.264 8.91743C149.969 8.48605 149.505 8.05468 148.999 7.74655C149.674 7.93143 150.222 8.36281 150.433 8.85581C150.391 8.79418 150.306 8.73255 150.264 8.91743ZM123.489 13.3544C126.483 10.3964 132.344 8.36281 133.567 4.85016H135.759C131.627 7.6233 127.495 10.4581 123.489 13.3544ZM61.2954 38.8057C61.4219 39.6685 62.2231 40.408 63.235 40.901H58.5547C59.4823 40.1615 60.3678 39.4836 61.2954 38.8057ZM68.5057 40.5928C70.3609 38.0046 72.8487 40.7161 75.7159 40.8393H68.1262C68.2105 40.7777 68.3792 40.7161 68.5057 40.5928ZM114.044 40.8393C114.845 40.6545 115.604 40.7777 116.448 40.901H113.918C113.96 40.8394 114.002 40.8393 114.044 40.8393ZM152.71 7.50004C149.379 7.99305 146.216 5.95941 143.138 7.99305C143.686 6.82217 143.054 5.58966 141.873 4.78853C145.921 4.72691 149.885 5.71291 152.71 7.50004ZM117.755 6.94542C117.333 5.95941 116.279 5.15829 114.93 4.85016H121.592C120.285 5.52804 119.02 6.20591 117.755 6.94542ZM86.9741 10.3964C89.7148 8.67093 90.4738 4.48041 94.1843 4.78853C91.7809 6.69892 89.3775 8.54768 86.9741 10.3964ZM71.3308 4.91178C71.3308 4.85016 71.3729 4.85016 71.4572 4.85016C71.4151 4.85016 71.3729 4.91178 71.3308 4.91178ZM59.1872 6.32917C59.904 5.83616 60.157 4.66529 61.2954 4.85016C60.5786 5.34316 59.8618 5.83616 59.1872 6.32917ZM3.73985 25.0016C8.0407 21.2425 12.6367 17.7299 17.6122 14.4021C12.974 18.7775 8.37803 23.1529 3.73985 27.5283V25.0016ZM83.643 40.901C87.8174 37.3267 92.0339 33.7524 96.4191 30.2398C92.9615 34.4303 90.6003 37.8197 83.643 40.901Z" fill="#ECFFEB"/>
</svg>
