<svg width="131" height="218" viewBox="0 0 131 218" fill="none" xmlns="http://www.w3.org/2000/svg">
<path d="M10.9677 167.952H0.624023V217.913H10.9677V167.952Z" fill="white"/>
<path d="M29.0038 217.913V199.581C31.5251 199.775 34.111 199.775 36.2443 199.775C50.9841 199.775 55.2508 192.48 55.2508 183.509C55.2508 172.6 47.4285 167.952 35.404 167.952H18.6602V217.913H29.0038ZM34.5636 192.545C32.6241 192.545 29.8442 192.545 28.9392 192.48V175.505H35.404C41.6101 175.505 45.1658 178.473 45.1658 183.896V184.024C45.2304 188.285 43.6789 192.545 34.5636 192.545Z" fill="white"/>
<path d="M90.6137 167.952H59.1948V217.913H69.5385V195.902H89.1915V188.414H69.4738V175.568H89.9026L90.6137 167.952Z" fill="white"/>
<path d="M125.752 178.417L128.374 171.752C124.505 168.949 119.202 167.952 112.588 167.952C102.918 167.952 94.994 172.438 94.994 181.657C94.994 189.943 101.108 193.182 107.16 195.175L113.275 197.231C117.455 198.664 120.886 200.034 120.886 204.52C120.886 208.631 117.33 210.25 111.902 210.25C106.412 210.25 100.547 208.631 97.1778 206.513L94.5574 213.74C98.9247 216.542 104.477 217.913 111.902 217.913C122.508 217.913 130.682 213.241 130.682 203.398C130.682 194.178 123.632 191.251 116.519 188.884L109.905 186.703C107.036 185.768 104.852 184.46 104.852 180.785C104.852 177.047 107.909 175.552 112.526 175.552C118.141 175.365 122.508 176.424 125.752 178.417Z" fill="white"/>
<path d="M60.2483 67.5262L22.0718 45.7721C22.1575 45.0949 22.1575 44.4179 22.0718 43.7407L60.2483 22.0289C63.4655 24.3568 67.8408 24.3568 71.0579 22.0289L109.192 43.7407C109.106 44.4179 109.106 45.0949 109.192 45.7721L71.0579 67.4839C67.8408 65.1561 63.4655 65.1561 60.2483 67.5262Z" fill="white"/>
<path d="M60.72 128.895C60.0766 129.148 59.5189 129.487 58.9613 129.911L20.7847 108.157C21.2136 104.221 19.0259 100.496 15.3799 98.9301V55.4644C16.0233 55.2105 16.581 54.8719 17.1385 54.4486L55.2724 76.1604C54.8433 80.0964 57.031 83.8208 60.6771 85.3868V128.895H60.72Z" fill="white"/>
<path d="M115.926 98.9307C112.28 100.497 110.05 104.263 110.521 108.157L72.3877 129.868C71.8301 129.488 71.2295 129.149 70.6291 128.853L70.5432 85.6836C74.1894 84.1177 76.4199 80.3509 75.948 76.4571L114.125 54.4916C114.682 54.8724 115.283 55.211 115.883 55.5073V98.9307H115.926Z" fill="white"/>
<path d="M65.6529 7.51263L125.105 41.371V109.088L65.6529 142.946L6.20038 109.13V41.371L65.6529 7.51263ZM65.6529 1.16418L62.8647 2.77246L3.4122 36.6308L0.624023 38.1968V41.371V109.088V112.262L3.4122 113.87L62.8647 147.729L65.6529 149.337L68.4411 147.729L127.894 113.87L130.682 112.262V109.088V41.371V38.1968L127.894 36.5885L68.4411 2.73013L65.6529 1.16418Z" fill="white"/>
</svg>
