<svg width="161" height="178" viewBox="0 0 161 178" fill="none" xmlns="http://www.w3.org/2000/svg">
<path d="M0.286824 121.001C0.284824 107.55 10.7848 96.7083 24.0698 96.4433C37.8098 96.1703 48.6068 106.506 49.2128 120.818C49.4048 125.347 50.0448 129.468 53.9368 132.32C59.3398 136.278 68.8208 133.942 73.3078 127.612C77.2598 122.037 76.0178 115.214 69.5138 111.32C60.0058 105.629 55.7188 97.5293 55.4678 86.6003C55.2698 77.9763 47.5218 73.3883 39.5148 76.6693C36.7528 77.8013 34.1528 79.4083 31.3178 80.2723C18.3638 84.2213 4.26082 76.2273 0.825824 63.1533C-2.76618 49.4803 5.71182 35.5573 19.4188 32.6173C33.0498 29.6943 46.3448 38.6783 48.6308 52.4093C48.9848 54.5363 49.1148 56.7063 49.2698 58.8613C49.8858 67.4263 57.6048 72.6693 65.2368 68.7203C75.4418 63.4393 84.8018 63.1593 95.0598 68.7253C103.301 73.1973 111.127 67.3093 111.444 57.3563C111.814 45.7223 117.802 37.0523 127.888 33.5453C138.022 30.0213 149.736 33.6683 155.959 42.2853C162.288 51.0483 161.973 63.4533 155.203 72.0843C148.629 80.4653 136.942 83.5063 126.816 79.4713C110.073 72.7993 106.6 74.9223 104.441 92.6273C103.523 100.161 99.4828 105.961 92.9878 109.894C87.9508 112.943 84.2598 116.68 85.3568 123.149C86.2208 128.247 92.1008 133.275 98.2038 134.322C105.588 135.588 111.161 130.354 111.45 121.88C111.887 109.085 119.087 99.8693 130.721 97.2163C141.153 94.8373 151.809 99.4383 157.267 108.679C162.662 117.813 161.405 130.129 154.278 137.962C147.099 145.851 135.11 148.164 125.443 143.511C123.946 142.791 122.518 141.914 120.988 141.279C113.743 138.27 107.033 141.694 105.265 149.299C104.928 150.75 104.715 152.25 104.633 153.738C103.843 168.088 93.7378 178.105 80.1448 177.965C66.2918 177.823 56.1478 167.505 55.5828 153.026C55.5188 151.372 55.5218 149.65 55.0558 148.09C52.8778 140.791 45.3688 137.923 38.0798 141.934C31.7768 145.403 25.2648 146.648 18.3718 144.893C7.20382 142.052 0.288824 132.726 0.286824 121.001Z" fill="white"/>
<path d="M56.0166 24.4032C56.0686 10.7792 66.7516 0.0582305 80.3316 0.000230497C94.1076 -0.0577695 104.95 10.8372 104.896 24.6862C104.843 38.1602 93.9926 49.0772 80.5396 49.1942C66.9716 49.3112 55.9646 38.1842 56.0176 24.4032H56.0166Z" fill="white"/>
</svg>
