<svg width="183" height="183" viewBox="0 0 183 183" fill="none" xmlns="http://www.w3.org/2000/svg">
<g clip-path="url(#clip0_53106_87478)">
<path d="M91.7185 183C40.4592 182.743 0.377391 141.85 0.00276085 91.5954C-0.369121 41.7976 40.5205 0.420715 90.7072 0.00374823C141.488 -0.418717 182.813 40.2727 182.999 91.4231C183.181 141.477 142.657 182.53 91.7176 183H91.7185ZM169.49 91.9482C169.385 48.4938 134.39 13.4209 91.3274 13.6134C48.8567 13.8031 14.0152 48.4709 13.5334 89.9358C13.0269 133.565 48.4207 170.316 93.5202 169.394C133.096 168.586 169.206 135.985 169.49 91.9482Z" fill="white"/>
<path d="M70.283 110.863C75.1046 107.914 79.733 105.083 84.4823 102.178C82.7447 99.263 81.1619 96.6081 79.5425 93.8901C74.7785 96.6127 70.2408 99.2062 65.2598 102.053C65.2598 96.5944 65.2955 89.7186 65.2186 84.8524L54.6089 84.8643V102.055C49.7726 99.3006 45.3146 96.7603 40.6753 94.1173C38.8836 96.8913 37.1772 99.5333 35.3929 102.295C40.2896 105.273 44.9382 108.099 49.8377 111.078C44.8741 114.145 40.1843 117.043 35.3865 120.007C37.2331 122.77 38.9102 125.28 40.6817 127.932C45.3238 125.225 49.7974 122.617 54.7418 119.733V136.644H65.2827V119.803C70.2646 122.647 74.8445 125.262 79.5434 127.945C81.3542 125.106 83.0167 122.5 84.7552 119.773C79.896 116.781 75.2383 113.913 70.2848 110.862L70.283 110.863Z" fill="white"/>
<path d="M116.31 48.8723C114.508 46.047 112.835 43.4251 111.106 40.7135C106.424 43.394 101.906 45.9819 97.0145 48.7825V31.7666L86.25 31.751C86.1374 35.3305 86.1914 40.6246 86.1905 44.2078C86.1905 45.5925 86.1905 46.9781 86.1905 48.7587C81.4458 45.9095 77.2159 43.3692 72.7752 40.7025C70.9287 43.4224 69.1187 46.0882 67.2227 48.8796C72.2101 51.8937 76.9759 54.7749 81.9661 57.7917C76.8431 60.8507 72.0965 63.6842 67.219 66.5957C69.0454 69.4182 70.7336 72.0263 72.5023 74.7591C77.007 72.1116 81.3789 69.541 86.2445 66.6809V83.5777H97.0374V66.6809C101.89 69.4714 106.407 72.0694 111.095 74.7655C112.863 71.9851 114.552 69.3284 116.298 66.5829C111.457 63.6393 106.84 60.8333 101.843 57.7963C106.832 54.719 111.534 51.8195 116.31 48.8732V48.8723Z" fill="white"/>
<path d="M136.387 110.867C141.284 107.919 145.951 105.11 150.835 102.17C149.017 99.395 147.296 96.7676 145.566 94.1293C140.832 96.8492 136.394 99.3977 131.613 102.144C131.613 100.806 131.613 99.976 131.613 99.1448C131.613 95.0292 131.666 88.936 131.557 84.8231L121.039 84.8424V102.029C116.133 99.2731 111.589 96.7209 106.958 94.1201C105.158 96.9472 103.495 99.5563 101.75 102.295C106.594 105.279 111.231 108.137 116.209 111.203C111.236 114.265 106.599 117.119 101.738 120.112C103.564 122.85 105.202 125.304 106.948 127.923C111.632 125.22 116.191 122.588 121.165 119.717V136.59H131.825V119.88C136.61 122.685 141.045 125.285 145.573 127.938C147.401 125.105 149.078 122.505 150.839 119.775C145.965 116.771 141.316 113.905 136.386 110.866L136.387 110.867Z" fill="white"/>
</g>
<defs>
<clipPath id="clip0_53106_87478">
<rect width="183" height="183" fill="white"/>
</clipPath>
</defs>
</svg>
